G04 #@! TF.GenerationSoftware,KiCad,Pcbnew,(2017-01-24 revision 0b6147e)-makepkg*
G04 #@! TF.CreationDate,2017-09-23T08:26:01-07:00*
G04 #@! TF.ProjectId,Spartan6Dev,5370617274616E364465762E6B696361,rev?*
G04 #@! TF.FileFunction,Soldermask,Top*
G04 #@! TF.FilePolarity,Negative*
%FSLAX46Y46*%
G04 Gerber Fmt 4.6, Leading zero omitted, Abs format (unit mm)*
G04 Created by KiCad (PCBNEW (2017-01-24 revision 0b6147e)-makepkg) date 09/23/17 08:26:01*
%MOMM*%
%LPD*%
G01*
G04 APERTURE LIST*
%ADD10C,0.100000*%
%ADD11C,0.650000*%
%ADD12R,2.127200X2.127200*%
%ADD13O,2.127200X2.127200*%
%ADD14R,1.400000X0.650000*%
%ADD15R,0.650000X1.400000*%
%ADD16R,1.300000X0.900000*%
%ADD17R,1.200000X1.150000*%
%ADD18R,1.150000X1.200000*%
%ADD19R,1.630000X2.200000*%
%ADD20R,1.400000X2.000000*%
%ADD21R,1.700000X1.100000*%
%ADD22R,1.197560X1.197560*%
%ADD23R,2.432000X2.127200*%
%ADD24O,2.432000X2.127200*%
%ADD25R,0.900000X1.300000*%
%ADD26R,2.300000X2.800000*%
%ADD27R,1.602740X0.652780*%
%ADD28R,2.299920X2.299920*%
%ADD29C,1.650006*%
%ADD30C,1.504000*%
%ADD31C,4.400000*%
%ADD32C,4.900000*%
%ADD33R,1.000000X1.500000*%
%ADD34R,1.600000X0.900000*%
%ADD35C,1.640000*%
%ADD36C,2.127200*%
%ADD37R,2.100000X1.600000*%
%ADD38O,2.100000X1.600000*%
%ADD39R,1.160000X1.670000*%
%ADD40C,3.100000*%
%ADD41R,2.432000X2.432000*%
%ADD42O,2.432000X2.432000*%
%ADD43C,1.924000*%
%ADD44C,2.400000*%
%ADD45C,2.350000*%
%ADD46C,1.850000*%
%ADD47C,2.150000*%
G04 APERTURE END LIST*
D10*
D11*
X97647161Y-107227208D03*
D10*
G36*
X98071425Y-106343325D02*
X98531044Y-106802944D01*
X97222897Y-108111091D01*
X96763278Y-107651472D01*
X98071425Y-106343325D01*
X98071425Y-106343325D01*
G37*
D11*
X97293607Y-106873654D03*
D10*
G36*
X97717871Y-105989771D02*
X98177490Y-106449390D01*
X96869343Y-107757537D01*
X96409724Y-107297918D01*
X97717871Y-105989771D01*
X97717871Y-105989771D01*
G37*
D11*
X96940054Y-106520101D03*
D10*
G36*
X97364318Y-105636218D02*
X97823937Y-106095837D01*
X96515790Y-107403984D01*
X96056171Y-106944365D01*
X97364318Y-105636218D01*
X97364318Y-105636218D01*
G37*
D11*
X96586501Y-106166548D03*
D10*
G36*
X97010765Y-105282665D02*
X97470384Y-105742284D01*
X96162237Y-107050431D01*
X95702618Y-106590812D01*
X97010765Y-105282665D01*
X97010765Y-105282665D01*
G37*
D11*
X96232947Y-105812994D03*
D10*
G36*
X96657211Y-104929111D02*
X97116830Y-105388730D01*
X95808683Y-106696877D01*
X95349064Y-106237258D01*
X96657211Y-104929111D01*
X96657211Y-104929111D01*
G37*
D11*
X95879394Y-105459441D03*
D10*
G36*
X96303658Y-104575558D02*
X96763277Y-105035177D01*
X95455130Y-106343324D01*
X94995511Y-105883705D01*
X96303658Y-104575558D01*
X96303658Y-104575558D01*
G37*
D11*
X95525841Y-105105887D03*
D10*
G36*
X95950105Y-104222004D02*
X96409724Y-104681623D01*
X95101577Y-105989770D01*
X94641958Y-105530151D01*
X95950105Y-104222004D01*
X95950105Y-104222004D01*
G37*
D11*
X95172287Y-104752334D03*
D10*
G36*
X95596551Y-103868451D02*
X96056170Y-104328070D01*
X94748023Y-105636217D01*
X94288404Y-105176598D01*
X95596551Y-103868451D01*
X95596551Y-103868451D01*
G37*
D11*
X94818734Y-104398781D03*
D10*
G36*
X95242998Y-103514898D02*
X95702617Y-103974517D01*
X94394470Y-105282664D01*
X93934851Y-104823045D01*
X95242998Y-103514898D01*
X95242998Y-103514898D01*
G37*
D11*
X94465180Y-104045227D03*
D10*
G36*
X94889444Y-103161344D02*
X95349063Y-103620963D01*
X94040916Y-104929110D01*
X93581297Y-104469491D01*
X94889444Y-103161344D01*
X94889444Y-103161344D01*
G37*
D11*
X94111627Y-103691674D03*
D10*
G36*
X94535891Y-102807791D02*
X94995510Y-103267410D01*
X93687363Y-104575557D01*
X93227744Y-104115938D01*
X94535891Y-102807791D01*
X94535891Y-102807791D01*
G37*
D11*
X93758074Y-103338120D03*
D10*
G36*
X94182338Y-102454237D02*
X94641957Y-102913856D01*
X93333810Y-104222003D01*
X92874191Y-103762384D01*
X94182338Y-102454237D01*
X94182338Y-102454237D01*
G37*
D11*
X93404520Y-102984567D03*
D10*
G36*
X93828784Y-102100684D02*
X94288403Y-102560303D01*
X92980256Y-103868450D01*
X92520637Y-103408831D01*
X93828784Y-102100684D01*
X93828784Y-102100684D01*
G37*
D11*
X93050967Y-102631014D03*
D10*
G36*
X93475231Y-101747131D02*
X93934850Y-102206750D01*
X92626703Y-103514897D01*
X92167084Y-103055278D01*
X93475231Y-101747131D01*
X93475231Y-101747131D01*
G37*
D11*
X92697413Y-102277460D03*
D10*
G36*
X93121677Y-101393577D02*
X93581296Y-101853196D01*
X92273149Y-103161343D01*
X91813530Y-102701724D01*
X93121677Y-101393577D01*
X93121677Y-101393577D01*
G37*
D11*
X92343860Y-101923907D03*
D10*
G36*
X92768124Y-101040024D02*
X93227743Y-101499643D01*
X91919596Y-102807790D01*
X91459977Y-102348171D01*
X92768124Y-101040024D01*
X92768124Y-101040024D01*
G37*
D11*
X91990307Y-101570354D03*
D10*
G36*
X92414571Y-100686471D02*
X92874190Y-101146090D01*
X91566043Y-102454237D01*
X91106424Y-101994618D01*
X92414571Y-100686471D01*
X92414571Y-100686471D01*
G37*
D11*
X91636753Y-101216800D03*
D10*
G36*
X92061017Y-100332917D02*
X92520636Y-100792536D01*
X91212489Y-102100683D01*
X90752870Y-101641064D01*
X92061017Y-100332917D01*
X92061017Y-100332917D01*
G37*
D11*
X91283200Y-100863247D03*
D10*
G36*
X91707464Y-99979364D02*
X92167083Y-100438983D01*
X90858936Y-101747130D01*
X90399317Y-101287511D01*
X91707464Y-99979364D01*
X91707464Y-99979364D01*
G37*
D11*
X90929646Y-100509693D03*
D10*
G36*
X91353910Y-99625810D02*
X91813529Y-100085429D01*
X90505382Y-101393576D01*
X90045763Y-100933957D01*
X91353910Y-99625810D01*
X91353910Y-99625810D01*
G37*
D11*
X90576093Y-100156140D03*
D10*
G36*
X91000357Y-99272257D02*
X91459976Y-99731876D01*
X90151829Y-101040023D01*
X89692210Y-100580404D01*
X91000357Y-99272257D01*
X91000357Y-99272257D01*
G37*
D11*
X90222540Y-99802587D03*
D10*
G36*
X90646804Y-98918704D02*
X91106423Y-99378323D01*
X89798276Y-100686470D01*
X89338657Y-100226851D01*
X90646804Y-98918704D01*
X90646804Y-98918704D01*
G37*
D11*
X89868986Y-99449033D03*
D10*
G36*
X90293250Y-98565150D02*
X90752869Y-99024769D01*
X89444722Y-100332916D01*
X88985103Y-99873297D01*
X90293250Y-98565150D01*
X90293250Y-98565150D01*
G37*
D11*
X89515433Y-99095480D03*
D10*
G36*
X89939697Y-98211597D02*
X90399316Y-98671216D01*
X89091169Y-99979363D01*
X88631550Y-99519744D01*
X89939697Y-98211597D01*
X89939697Y-98211597D01*
G37*
D11*
X89161880Y-98741926D03*
D10*
G36*
X89586144Y-97858043D02*
X90045763Y-98317662D01*
X88737616Y-99625809D01*
X88277997Y-99166190D01*
X89586144Y-97858043D01*
X89586144Y-97858043D01*
G37*
D11*
X88808326Y-98388373D03*
D10*
G36*
X89232590Y-97504490D02*
X89692209Y-97964109D01*
X88384062Y-99272256D01*
X87924443Y-98812637D01*
X89232590Y-97504490D01*
X89232590Y-97504490D01*
G37*
D11*
X88454773Y-98034820D03*
D10*
G36*
X88879037Y-97150937D02*
X89338656Y-97610556D01*
X88030509Y-98918703D01*
X87570890Y-98459084D01*
X88879037Y-97150937D01*
X88879037Y-97150937D01*
G37*
D11*
X88101219Y-97681266D03*
D10*
G36*
X88525483Y-96797383D02*
X88985102Y-97257002D01*
X87676955Y-98565149D01*
X87217336Y-98105530D01*
X88525483Y-96797383D01*
X88525483Y-96797383D01*
G37*
D11*
X87747666Y-97327713D03*
D10*
G36*
X88171930Y-96443830D02*
X88631549Y-96903449D01*
X87323402Y-98211596D01*
X86863783Y-97751977D01*
X88171930Y-96443830D01*
X88171930Y-96443830D01*
G37*
D11*
X87394113Y-96974159D03*
D10*
G36*
X87818377Y-96090276D02*
X88277996Y-96549895D01*
X86969849Y-97858042D01*
X86510230Y-97398423D01*
X87818377Y-96090276D01*
X87818377Y-96090276D01*
G37*
D11*
X87040559Y-96620606D03*
D10*
G36*
X87464823Y-95736723D02*
X87924442Y-96196342D01*
X86616295Y-97504489D01*
X86156676Y-97044870D01*
X87464823Y-95736723D01*
X87464823Y-95736723D01*
G37*
D11*
X86687006Y-96267053D03*
D10*
G36*
X87111270Y-95383170D02*
X87570889Y-95842789D01*
X86262742Y-97150936D01*
X85803123Y-96691317D01*
X87111270Y-95383170D01*
X87111270Y-95383170D01*
G37*
D11*
X86333452Y-95913499D03*
D10*
G36*
X86757716Y-95029616D02*
X87217335Y-95489235D01*
X85909188Y-96797382D01*
X85449569Y-96337763D01*
X86757716Y-95029616D01*
X86757716Y-95029616D01*
G37*
D11*
X85979899Y-95559946D03*
D10*
G36*
X86404163Y-94676063D02*
X86863782Y-95135682D01*
X85555635Y-96443829D01*
X85096016Y-95984210D01*
X86404163Y-94676063D01*
X86404163Y-94676063D01*
G37*
D11*
X85626346Y-95206393D03*
D10*
G36*
X86050610Y-94322510D02*
X86510229Y-94782129D01*
X85202082Y-96090276D01*
X84742463Y-95630657D01*
X86050610Y-94322510D01*
X86050610Y-94322510D01*
G37*
D11*
X85272792Y-94852839D03*
D10*
G36*
X85697056Y-93968956D02*
X86156675Y-94428575D01*
X84848528Y-95736722D01*
X84388909Y-95277103D01*
X85697056Y-93968956D01*
X85697056Y-93968956D01*
G37*
D11*
X82727208Y-94852839D03*
D10*
G36*
X81843325Y-94428575D02*
X82302944Y-93968956D01*
X83611091Y-95277103D01*
X83151472Y-95736722D01*
X81843325Y-94428575D01*
X81843325Y-94428575D01*
G37*
D11*
X82373654Y-95206393D03*
D10*
G36*
X81489771Y-94782129D02*
X81949390Y-94322510D01*
X83257537Y-95630657D01*
X82797918Y-96090276D01*
X81489771Y-94782129D01*
X81489771Y-94782129D01*
G37*
D11*
X82020101Y-95559946D03*
D10*
G36*
X81136218Y-95135682D02*
X81595837Y-94676063D01*
X82903984Y-95984210D01*
X82444365Y-96443829D01*
X81136218Y-95135682D01*
X81136218Y-95135682D01*
G37*
D11*
X81666548Y-95913499D03*
D10*
G36*
X80782665Y-95489235D02*
X81242284Y-95029616D01*
X82550431Y-96337763D01*
X82090812Y-96797382D01*
X80782665Y-95489235D01*
X80782665Y-95489235D01*
G37*
D11*
X81312994Y-96267053D03*
D10*
G36*
X80429111Y-95842789D02*
X80888730Y-95383170D01*
X82196877Y-96691317D01*
X81737258Y-97150936D01*
X80429111Y-95842789D01*
X80429111Y-95842789D01*
G37*
D11*
X80959441Y-96620606D03*
D10*
G36*
X80075558Y-96196342D02*
X80535177Y-95736723D01*
X81843324Y-97044870D01*
X81383705Y-97504489D01*
X80075558Y-96196342D01*
X80075558Y-96196342D01*
G37*
D11*
X80605887Y-96974159D03*
D10*
G36*
X79722004Y-96549895D02*
X80181623Y-96090276D01*
X81489770Y-97398423D01*
X81030151Y-97858042D01*
X79722004Y-96549895D01*
X79722004Y-96549895D01*
G37*
D11*
X80252334Y-97327713D03*
D10*
G36*
X79368451Y-96903449D02*
X79828070Y-96443830D01*
X81136217Y-97751977D01*
X80676598Y-98211596D01*
X79368451Y-96903449D01*
X79368451Y-96903449D01*
G37*
D11*
X79898781Y-97681266D03*
D10*
G36*
X79014898Y-97257002D02*
X79474517Y-96797383D01*
X80782664Y-98105530D01*
X80323045Y-98565149D01*
X79014898Y-97257002D01*
X79014898Y-97257002D01*
G37*
D11*
X79545227Y-98034820D03*
D10*
G36*
X78661344Y-97610556D02*
X79120963Y-97150937D01*
X80429110Y-98459084D01*
X79969491Y-98918703D01*
X78661344Y-97610556D01*
X78661344Y-97610556D01*
G37*
D11*
X79191674Y-98388373D03*
D10*
G36*
X78307791Y-97964109D02*
X78767410Y-97504490D01*
X80075557Y-98812637D01*
X79615938Y-99272256D01*
X78307791Y-97964109D01*
X78307791Y-97964109D01*
G37*
D11*
X78838120Y-98741926D03*
D10*
G36*
X77954237Y-98317662D02*
X78413856Y-97858043D01*
X79722003Y-99166190D01*
X79262384Y-99625809D01*
X77954237Y-98317662D01*
X77954237Y-98317662D01*
G37*
D11*
X78484567Y-99095480D03*
D10*
G36*
X77600684Y-98671216D02*
X78060303Y-98211597D01*
X79368450Y-99519744D01*
X78908831Y-99979363D01*
X77600684Y-98671216D01*
X77600684Y-98671216D01*
G37*
D11*
X78131014Y-99449033D03*
D10*
G36*
X77247131Y-99024769D02*
X77706750Y-98565150D01*
X79014897Y-99873297D01*
X78555278Y-100332916D01*
X77247131Y-99024769D01*
X77247131Y-99024769D01*
G37*
D11*
X77777460Y-99802587D03*
D10*
G36*
X76893577Y-99378323D02*
X77353196Y-98918704D01*
X78661343Y-100226851D01*
X78201724Y-100686470D01*
X76893577Y-99378323D01*
X76893577Y-99378323D01*
G37*
D11*
X77423907Y-100156140D03*
D10*
G36*
X76540024Y-99731876D02*
X76999643Y-99272257D01*
X78307790Y-100580404D01*
X77848171Y-101040023D01*
X76540024Y-99731876D01*
X76540024Y-99731876D01*
G37*
D11*
X77070354Y-100509693D03*
D10*
G36*
X76186471Y-100085429D02*
X76646090Y-99625810D01*
X77954237Y-100933957D01*
X77494618Y-101393576D01*
X76186471Y-100085429D01*
X76186471Y-100085429D01*
G37*
D11*
X76716800Y-100863247D03*
D10*
G36*
X75832917Y-100438983D02*
X76292536Y-99979364D01*
X77600683Y-101287511D01*
X77141064Y-101747130D01*
X75832917Y-100438983D01*
X75832917Y-100438983D01*
G37*
D11*
X76363247Y-101216800D03*
D10*
G36*
X75479364Y-100792536D02*
X75938983Y-100332917D01*
X77247130Y-101641064D01*
X76787511Y-102100683D01*
X75479364Y-100792536D01*
X75479364Y-100792536D01*
G37*
D11*
X76009693Y-101570354D03*
D10*
G36*
X75125810Y-101146090D02*
X75585429Y-100686471D01*
X76893576Y-101994618D01*
X76433957Y-102454237D01*
X75125810Y-101146090D01*
X75125810Y-101146090D01*
G37*
D11*
X75656140Y-101923907D03*
D10*
G36*
X74772257Y-101499643D02*
X75231876Y-101040024D01*
X76540023Y-102348171D01*
X76080404Y-102807790D01*
X74772257Y-101499643D01*
X74772257Y-101499643D01*
G37*
D11*
X75302587Y-102277460D03*
D10*
G36*
X74418704Y-101853196D02*
X74878323Y-101393577D01*
X76186470Y-102701724D01*
X75726851Y-103161343D01*
X74418704Y-101853196D01*
X74418704Y-101853196D01*
G37*
D11*
X74949033Y-102631014D03*
D10*
G36*
X74065150Y-102206750D02*
X74524769Y-101747131D01*
X75832916Y-103055278D01*
X75373297Y-103514897D01*
X74065150Y-102206750D01*
X74065150Y-102206750D01*
G37*
D11*
X74595480Y-102984567D03*
D10*
G36*
X73711597Y-102560303D02*
X74171216Y-102100684D01*
X75479363Y-103408831D01*
X75019744Y-103868450D01*
X73711597Y-102560303D01*
X73711597Y-102560303D01*
G37*
D11*
X74241926Y-103338120D03*
D10*
G36*
X73358043Y-102913856D02*
X73817662Y-102454237D01*
X75125809Y-103762384D01*
X74666190Y-104222003D01*
X73358043Y-102913856D01*
X73358043Y-102913856D01*
G37*
D11*
X73888373Y-103691674D03*
D10*
G36*
X73004490Y-103267410D02*
X73464109Y-102807791D01*
X74772256Y-104115938D01*
X74312637Y-104575557D01*
X73004490Y-103267410D01*
X73004490Y-103267410D01*
G37*
D11*
X73534820Y-104045227D03*
D10*
G36*
X72650937Y-103620963D02*
X73110556Y-103161344D01*
X74418703Y-104469491D01*
X73959084Y-104929110D01*
X72650937Y-103620963D01*
X72650937Y-103620963D01*
G37*
D11*
X73181266Y-104398781D03*
D10*
G36*
X72297383Y-103974517D02*
X72757002Y-103514898D01*
X74065149Y-104823045D01*
X73605530Y-105282664D01*
X72297383Y-103974517D01*
X72297383Y-103974517D01*
G37*
D11*
X72827713Y-104752334D03*
D10*
G36*
X71943830Y-104328070D02*
X72403449Y-103868451D01*
X73711596Y-105176598D01*
X73251977Y-105636217D01*
X71943830Y-104328070D01*
X71943830Y-104328070D01*
G37*
D11*
X72474159Y-105105887D03*
D10*
G36*
X71590276Y-104681623D02*
X72049895Y-104222004D01*
X73358042Y-105530151D01*
X72898423Y-105989770D01*
X71590276Y-104681623D01*
X71590276Y-104681623D01*
G37*
D11*
X72120606Y-105459441D03*
D10*
G36*
X71236723Y-105035177D02*
X71696342Y-104575558D01*
X73004489Y-105883705D01*
X72544870Y-106343324D01*
X71236723Y-105035177D01*
X71236723Y-105035177D01*
G37*
D11*
X71767053Y-105812994D03*
D10*
G36*
X70883170Y-105388730D02*
X71342789Y-104929111D01*
X72650936Y-106237258D01*
X72191317Y-106696877D01*
X70883170Y-105388730D01*
X70883170Y-105388730D01*
G37*
D11*
X71413499Y-106166548D03*
D10*
G36*
X70529616Y-105742284D02*
X70989235Y-105282665D01*
X72297382Y-106590812D01*
X71837763Y-107050431D01*
X70529616Y-105742284D01*
X70529616Y-105742284D01*
G37*
D11*
X71059946Y-106520101D03*
D10*
G36*
X70176063Y-106095837D02*
X70635682Y-105636218D01*
X71943829Y-106944365D01*
X71484210Y-107403984D01*
X70176063Y-106095837D01*
X70176063Y-106095837D01*
G37*
D11*
X70706393Y-106873654D03*
D10*
G36*
X69822510Y-106449390D02*
X70282129Y-105989771D01*
X71590276Y-107297918D01*
X71130657Y-107757537D01*
X69822510Y-106449390D01*
X69822510Y-106449390D01*
G37*
D11*
X70352839Y-107227208D03*
D10*
G36*
X69468956Y-106802944D02*
X69928575Y-106343325D01*
X71236722Y-107651472D01*
X70777103Y-108111091D01*
X69468956Y-106802944D01*
X69468956Y-106802944D01*
G37*
D11*
X70352839Y-109772792D03*
D10*
G36*
X70777103Y-108888909D02*
X71236722Y-109348528D01*
X69928575Y-110656675D01*
X69468956Y-110197056D01*
X70777103Y-108888909D01*
X70777103Y-108888909D01*
G37*
D11*
X70706393Y-110126346D03*
D10*
G36*
X71130657Y-109242463D02*
X71590276Y-109702082D01*
X70282129Y-111010229D01*
X69822510Y-110550610D01*
X71130657Y-109242463D01*
X71130657Y-109242463D01*
G37*
D11*
X71059946Y-110479899D03*
D10*
G36*
X71484210Y-109596016D02*
X71943829Y-110055635D01*
X70635682Y-111363782D01*
X70176063Y-110904163D01*
X71484210Y-109596016D01*
X71484210Y-109596016D01*
G37*
D11*
X71413499Y-110833452D03*
D10*
G36*
X71837763Y-109949569D02*
X72297382Y-110409188D01*
X70989235Y-111717335D01*
X70529616Y-111257716D01*
X71837763Y-109949569D01*
X71837763Y-109949569D01*
G37*
D11*
X71767053Y-111187006D03*
D10*
G36*
X72191317Y-110303123D02*
X72650936Y-110762742D01*
X71342789Y-112070889D01*
X70883170Y-111611270D01*
X72191317Y-110303123D01*
X72191317Y-110303123D01*
G37*
D11*
X72120606Y-111540559D03*
D10*
G36*
X72544870Y-110656676D02*
X73004489Y-111116295D01*
X71696342Y-112424442D01*
X71236723Y-111964823D01*
X72544870Y-110656676D01*
X72544870Y-110656676D01*
G37*
D11*
X72474159Y-111894113D03*
D10*
G36*
X72898423Y-111010230D02*
X73358042Y-111469849D01*
X72049895Y-112777996D01*
X71590276Y-112318377D01*
X72898423Y-111010230D01*
X72898423Y-111010230D01*
G37*
D11*
X72827713Y-112247666D03*
D10*
G36*
X73251977Y-111363783D02*
X73711596Y-111823402D01*
X72403449Y-113131549D01*
X71943830Y-112671930D01*
X73251977Y-111363783D01*
X73251977Y-111363783D01*
G37*
D11*
X73181266Y-112601219D03*
D10*
G36*
X73605530Y-111717336D02*
X74065149Y-112176955D01*
X72757002Y-113485102D01*
X72297383Y-113025483D01*
X73605530Y-111717336D01*
X73605530Y-111717336D01*
G37*
D11*
X73534820Y-112954773D03*
D10*
G36*
X73959084Y-112070890D02*
X74418703Y-112530509D01*
X73110556Y-113838656D01*
X72650937Y-113379037D01*
X73959084Y-112070890D01*
X73959084Y-112070890D01*
G37*
D11*
X73888373Y-113308326D03*
D10*
G36*
X74312637Y-112424443D02*
X74772256Y-112884062D01*
X73464109Y-114192209D01*
X73004490Y-113732590D01*
X74312637Y-112424443D01*
X74312637Y-112424443D01*
G37*
D11*
X74241926Y-113661880D03*
D10*
G36*
X74666190Y-112777997D02*
X75125809Y-113237616D01*
X73817662Y-114545763D01*
X73358043Y-114086144D01*
X74666190Y-112777997D01*
X74666190Y-112777997D01*
G37*
D11*
X74595480Y-114015433D03*
D10*
G36*
X75019744Y-113131550D02*
X75479363Y-113591169D01*
X74171216Y-114899316D01*
X73711597Y-114439697D01*
X75019744Y-113131550D01*
X75019744Y-113131550D01*
G37*
D11*
X74949033Y-114368986D03*
D10*
G36*
X75373297Y-113485103D02*
X75832916Y-113944722D01*
X74524769Y-115252869D01*
X74065150Y-114793250D01*
X75373297Y-113485103D01*
X75373297Y-113485103D01*
G37*
D11*
X75302587Y-114722540D03*
D10*
G36*
X75726851Y-113838657D02*
X76186470Y-114298276D01*
X74878323Y-115606423D01*
X74418704Y-115146804D01*
X75726851Y-113838657D01*
X75726851Y-113838657D01*
G37*
D11*
X75656140Y-115076093D03*
D10*
G36*
X76080404Y-114192210D02*
X76540023Y-114651829D01*
X75231876Y-115959976D01*
X74772257Y-115500357D01*
X76080404Y-114192210D01*
X76080404Y-114192210D01*
G37*
D11*
X76009693Y-115429646D03*
D10*
G36*
X76433957Y-114545763D02*
X76893576Y-115005382D01*
X75585429Y-116313529D01*
X75125810Y-115853910D01*
X76433957Y-114545763D01*
X76433957Y-114545763D01*
G37*
D11*
X76363247Y-115783200D03*
D10*
G36*
X76787511Y-114899317D02*
X77247130Y-115358936D01*
X75938983Y-116667083D01*
X75479364Y-116207464D01*
X76787511Y-114899317D01*
X76787511Y-114899317D01*
G37*
D11*
X76716800Y-116136753D03*
D10*
G36*
X77141064Y-115252870D02*
X77600683Y-115712489D01*
X76292536Y-117020636D01*
X75832917Y-116561017D01*
X77141064Y-115252870D01*
X77141064Y-115252870D01*
G37*
D11*
X77070354Y-116490307D03*
D10*
G36*
X77494618Y-115606424D02*
X77954237Y-116066043D01*
X76646090Y-117374190D01*
X76186471Y-116914571D01*
X77494618Y-115606424D01*
X77494618Y-115606424D01*
G37*
D11*
X77423907Y-116843860D03*
D10*
G36*
X77848171Y-115959977D02*
X78307790Y-116419596D01*
X76999643Y-117727743D01*
X76540024Y-117268124D01*
X77848171Y-115959977D01*
X77848171Y-115959977D01*
G37*
D11*
X77777460Y-117197413D03*
D10*
G36*
X78201724Y-116313530D02*
X78661343Y-116773149D01*
X77353196Y-118081296D01*
X76893577Y-117621677D01*
X78201724Y-116313530D01*
X78201724Y-116313530D01*
G37*
D11*
X78131014Y-117550967D03*
D10*
G36*
X78555278Y-116667084D02*
X79014897Y-117126703D01*
X77706750Y-118434850D01*
X77247131Y-117975231D01*
X78555278Y-116667084D01*
X78555278Y-116667084D01*
G37*
D11*
X78484567Y-117904520D03*
D10*
G36*
X78908831Y-117020637D02*
X79368450Y-117480256D01*
X78060303Y-118788403D01*
X77600684Y-118328784D01*
X78908831Y-117020637D01*
X78908831Y-117020637D01*
G37*
D11*
X78838120Y-118258074D03*
D10*
G36*
X79262384Y-117374191D02*
X79722003Y-117833810D01*
X78413856Y-119141957D01*
X77954237Y-118682338D01*
X79262384Y-117374191D01*
X79262384Y-117374191D01*
G37*
D11*
X79191674Y-118611627D03*
D10*
G36*
X79615938Y-117727744D02*
X80075557Y-118187363D01*
X78767410Y-119495510D01*
X78307791Y-119035891D01*
X79615938Y-117727744D01*
X79615938Y-117727744D01*
G37*
D11*
X79545227Y-118965180D03*
D10*
G36*
X79969491Y-118081297D02*
X80429110Y-118540916D01*
X79120963Y-119849063D01*
X78661344Y-119389444D01*
X79969491Y-118081297D01*
X79969491Y-118081297D01*
G37*
D11*
X79898781Y-119318734D03*
D10*
G36*
X80323045Y-118434851D02*
X80782664Y-118894470D01*
X79474517Y-120202617D01*
X79014898Y-119742998D01*
X80323045Y-118434851D01*
X80323045Y-118434851D01*
G37*
D11*
X80252334Y-119672287D03*
D10*
G36*
X80676598Y-118788404D02*
X81136217Y-119248023D01*
X79828070Y-120556170D01*
X79368451Y-120096551D01*
X80676598Y-118788404D01*
X80676598Y-118788404D01*
G37*
D11*
X80605887Y-120025841D03*
D10*
G36*
X81030151Y-119141958D02*
X81489770Y-119601577D01*
X80181623Y-120909724D01*
X79722004Y-120450105D01*
X81030151Y-119141958D01*
X81030151Y-119141958D01*
G37*
D11*
X80959441Y-120379394D03*
D10*
G36*
X81383705Y-119495511D02*
X81843324Y-119955130D01*
X80535177Y-121263277D01*
X80075558Y-120803658D01*
X81383705Y-119495511D01*
X81383705Y-119495511D01*
G37*
D11*
X81312994Y-120732947D03*
D10*
G36*
X81737258Y-119849064D02*
X82196877Y-120308683D01*
X80888730Y-121616830D01*
X80429111Y-121157211D01*
X81737258Y-119849064D01*
X81737258Y-119849064D01*
G37*
D11*
X81666548Y-121086501D03*
D10*
G36*
X82090812Y-120202618D02*
X82550431Y-120662237D01*
X81242284Y-121970384D01*
X80782665Y-121510765D01*
X82090812Y-120202618D01*
X82090812Y-120202618D01*
G37*
D11*
X82020101Y-121440054D03*
D10*
G36*
X82444365Y-120556171D02*
X82903984Y-121015790D01*
X81595837Y-122323937D01*
X81136218Y-121864318D01*
X82444365Y-120556171D01*
X82444365Y-120556171D01*
G37*
D11*
X82373654Y-121793607D03*
D10*
G36*
X82797918Y-120909724D02*
X83257537Y-121369343D01*
X81949390Y-122677490D01*
X81489771Y-122217871D01*
X82797918Y-120909724D01*
X82797918Y-120909724D01*
G37*
D11*
X82727208Y-122147161D03*
D10*
G36*
X83151472Y-121263278D02*
X83611091Y-121722897D01*
X82302944Y-123031044D01*
X81843325Y-122571425D01*
X83151472Y-121263278D01*
X83151472Y-121263278D01*
G37*
D11*
X85272792Y-122147161D03*
D10*
G36*
X84388909Y-121722897D02*
X84848528Y-121263278D01*
X86156675Y-122571425D01*
X85697056Y-123031044D01*
X84388909Y-121722897D01*
X84388909Y-121722897D01*
G37*
D11*
X85626346Y-121793607D03*
D10*
G36*
X84742463Y-121369343D02*
X85202082Y-120909724D01*
X86510229Y-122217871D01*
X86050610Y-122677490D01*
X84742463Y-121369343D01*
X84742463Y-121369343D01*
G37*
D11*
X85979899Y-121440054D03*
D10*
G36*
X85096016Y-121015790D02*
X85555635Y-120556171D01*
X86863782Y-121864318D01*
X86404163Y-122323937D01*
X85096016Y-121015790D01*
X85096016Y-121015790D01*
G37*
D11*
X86333452Y-121086501D03*
D10*
G36*
X85449569Y-120662237D02*
X85909188Y-120202618D01*
X87217335Y-121510765D01*
X86757716Y-121970384D01*
X85449569Y-120662237D01*
X85449569Y-120662237D01*
G37*
D11*
X86687006Y-120732947D03*
D10*
G36*
X85803123Y-120308683D02*
X86262742Y-119849064D01*
X87570889Y-121157211D01*
X87111270Y-121616830D01*
X85803123Y-120308683D01*
X85803123Y-120308683D01*
G37*
D11*
X87040559Y-120379394D03*
D10*
G36*
X86156676Y-119955130D02*
X86616295Y-119495511D01*
X87924442Y-120803658D01*
X87464823Y-121263277D01*
X86156676Y-119955130D01*
X86156676Y-119955130D01*
G37*
D11*
X87394113Y-120025841D03*
D10*
G36*
X86510230Y-119601577D02*
X86969849Y-119141958D01*
X88277996Y-120450105D01*
X87818377Y-120909724D01*
X86510230Y-119601577D01*
X86510230Y-119601577D01*
G37*
D11*
X87747666Y-119672287D03*
D10*
G36*
X86863783Y-119248023D02*
X87323402Y-118788404D01*
X88631549Y-120096551D01*
X88171930Y-120556170D01*
X86863783Y-119248023D01*
X86863783Y-119248023D01*
G37*
D11*
X88101219Y-119318734D03*
D10*
G36*
X87217336Y-118894470D02*
X87676955Y-118434851D01*
X88985102Y-119742998D01*
X88525483Y-120202617D01*
X87217336Y-118894470D01*
X87217336Y-118894470D01*
G37*
D11*
X88454773Y-118965180D03*
D10*
G36*
X87570890Y-118540916D02*
X88030509Y-118081297D01*
X89338656Y-119389444D01*
X88879037Y-119849063D01*
X87570890Y-118540916D01*
X87570890Y-118540916D01*
G37*
D11*
X88808326Y-118611627D03*
D10*
G36*
X87924443Y-118187363D02*
X88384062Y-117727744D01*
X89692209Y-119035891D01*
X89232590Y-119495510D01*
X87924443Y-118187363D01*
X87924443Y-118187363D01*
G37*
D11*
X89161880Y-118258074D03*
D10*
G36*
X88277997Y-117833810D02*
X88737616Y-117374191D01*
X90045763Y-118682338D01*
X89586144Y-119141957D01*
X88277997Y-117833810D01*
X88277997Y-117833810D01*
G37*
D11*
X89515433Y-117904520D03*
D10*
G36*
X88631550Y-117480256D02*
X89091169Y-117020637D01*
X90399316Y-118328784D01*
X89939697Y-118788403D01*
X88631550Y-117480256D01*
X88631550Y-117480256D01*
G37*
D11*
X89868986Y-117550967D03*
D10*
G36*
X88985103Y-117126703D02*
X89444722Y-116667084D01*
X90752869Y-117975231D01*
X90293250Y-118434850D01*
X88985103Y-117126703D01*
X88985103Y-117126703D01*
G37*
D11*
X90222540Y-117197413D03*
D10*
G36*
X89338657Y-116773149D02*
X89798276Y-116313530D01*
X91106423Y-117621677D01*
X90646804Y-118081296D01*
X89338657Y-116773149D01*
X89338657Y-116773149D01*
G37*
D11*
X90576093Y-116843860D03*
D10*
G36*
X89692210Y-116419596D02*
X90151829Y-115959977D01*
X91459976Y-117268124D01*
X91000357Y-117727743D01*
X89692210Y-116419596D01*
X89692210Y-116419596D01*
G37*
D11*
X90929646Y-116490307D03*
D10*
G36*
X90045763Y-116066043D02*
X90505382Y-115606424D01*
X91813529Y-116914571D01*
X91353910Y-117374190D01*
X90045763Y-116066043D01*
X90045763Y-116066043D01*
G37*
D11*
X91283200Y-116136753D03*
D10*
G36*
X90399317Y-115712489D02*
X90858936Y-115252870D01*
X92167083Y-116561017D01*
X91707464Y-117020636D01*
X90399317Y-115712489D01*
X90399317Y-115712489D01*
G37*
D11*
X91636753Y-115783200D03*
D10*
G36*
X90752870Y-115358936D02*
X91212489Y-114899317D01*
X92520636Y-116207464D01*
X92061017Y-116667083D01*
X90752870Y-115358936D01*
X90752870Y-115358936D01*
G37*
D11*
X91990307Y-115429646D03*
D10*
G36*
X91106424Y-115005382D02*
X91566043Y-114545763D01*
X92874190Y-115853910D01*
X92414571Y-116313529D01*
X91106424Y-115005382D01*
X91106424Y-115005382D01*
G37*
D11*
X92343860Y-115076093D03*
D10*
G36*
X91459977Y-114651829D02*
X91919596Y-114192210D01*
X93227743Y-115500357D01*
X92768124Y-115959976D01*
X91459977Y-114651829D01*
X91459977Y-114651829D01*
G37*
D11*
X92697413Y-114722540D03*
D10*
G36*
X91813530Y-114298276D02*
X92273149Y-113838657D01*
X93581296Y-115146804D01*
X93121677Y-115606423D01*
X91813530Y-114298276D01*
X91813530Y-114298276D01*
G37*
D11*
X93050967Y-114368986D03*
D10*
G36*
X92167084Y-113944722D02*
X92626703Y-113485103D01*
X93934850Y-114793250D01*
X93475231Y-115252869D01*
X92167084Y-113944722D01*
X92167084Y-113944722D01*
G37*
D11*
X93404520Y-114015433D03*
D10*
G36*
X92520637Y-113591169D02*
X92980256Y-113131550D01*
X94288403Y-114439697D01*
X93828784Y-114899316D01*
X92520637Y-113591169D01*
X92520637Y-113591169D01*
G37*
D11*
X93758074Y-113661880D03*
D10*
G36*
X92874191Y-113237616D02*
X93333810Y-112777997D01*
X94641957Y-114086144D01*
X94182338Y-114545763D01*
X92874191Y-113237616D01*
X92874191Y-113237616D01*
G37*
D11*
X94111627Y-113308326D03*
D10*
G36*
X93227744Y-112884062D02*
X93687363Y-112424443D01*
X94995510Y-113732590D01*
X94535891Y-114192209D01*
X93227744Y-112884062D01*
X93227744Y-112884062D01*
G37*
D11*
X94465180Y-112954773D03*
D10*
G36*
X93581297Y-112530509D02*
X94040916Y-112070890D01*
X95349063Y-113379037D01*
X94889444Y-113838656D01*
X93581297Y-112530509D01*
X93581297Y-112530509D01*
G37*
D11*
X94818734Y-112601219D03*
D10*
G36*
X93934851Y-112176955D02*
X94394470Y-111717336D01*
X95702617Y-113025483D01*
X95242998Y-113485102D01*
X93934851Y-112176955D01*
X93934851Y-112176955D01*
G37*
D11*
X95172287Y-112247666D03*
D10*
G36*
X94288404Y-111823402D02*
X94748023Y-111363783D01*
X96056170Y-112671930D01*
X95596551Y-113131549D01*
X94288404Y-111823402D01*
X94288404Y-111823402D01*
G37*
D11*
X95525841Y-111894113D03*
D10*
G36*
X94641958Y-111469849D02*
X95101577Y-111010230D01*
X96409724Y-112318377D01*
X95950105Y-112777996D01*
X94641958Y-111469849D01*
X94641958Y-111469849D01*
G37*
D11*
X95879394Y-111540559D03*
D10*
G36*
X94995511Y-111116295D02*
X95455130Y-110656676D01*
X96763277Y-111964823D01*
X96303658Y-112424442D01*
X94995511Y-111116295D01*
X94995511Y-111116295D01*
G37*
D11*
X96232947Y-111187006D03*
D10*
G36*
X95349064Y-110762742D02*
X95808683Y-110303123D01*
X97116830Y-111611270D01*
X96657211Y-112070889D01*
X95349064Y-110762742D01*
X95349064Y-110762742D01*
G37*
D11*
X96586501Y-110833452D03*
D10*
G36*
X95702618Y-110409188D02*
X96162237Y-109949569D01*
X97470384Y-111257716D01*
X97010765Y-111717335D01*
X95702618Y-110409188D01*
X95702618Y-110409188D01*
G37*
D11*
X96940054Y-110479899D03*
D10*
G36*
X96056171Y-110055635D02*
X96515790Y-109596016D01*
X97823937Y-110904163D01*
X97364318Y-111363782D01*
X96056171Y-110055635D01*
X96056171Y-110055635D01*
G37*
D11*
X97293607Y-110126346D03*
D10*
G36*
X96409724Y-109702082D02*
X96869343Y-109242463D01*
X98177490Y-110550610D01*
X97717871Y-111010229D01*
X96409724Y-109702082D01*
X96409724Y-109702082D01*
G37*
D11*
X97647161Y-109772792D03*
D10*
G36*
X96763278Y-109348528D02*
X97222897Y-108888909D01*
X98531044Y-110197056D01*
X98071425Y-110656675D01*
X96763278Y-109348528D01*
X96763278Y-109348528D01*
G37*
D12*
X46140000Y-135390000D03*
D13*
X46140000Y-132850000D03*
X48680000Y-135390000D03*
X48680000Y-132850000D03*
X51220000Y-135390000D03*
X51220000Y-132850000D03*
X53760000Y-135390000D03*
X53760000Y-132850000D03*
X56300000Y-135390000D03*
X56300000Y-132850000D03*
X58840000Y-135390000D03*
X58840000Y-132850000D03*
X61380000Y-135390000D03*
X61380000Y-132850000D03*
D14*
X45300000Y-111250000D03*
X45300000Y-111750000D03*
X45300000Y-112250000D03*
X45300000Y-112750000D03*
X45300000Y-113250000D03*
X45300000Y-113750000D03*
X45300000Y-114250000D03*
X45300000Y-114750000D03*
X45300000Y-115250000D03*
X45300000Y-115750000D03*
X45300000Y-116250000D03*
X45300000Y-116750000D03*
X45300000Y-117250000D03*
X45300000Y-117750000D03*
X45300000Y-118250000D03*
X45300000Y-118750000D03*
D15*
X47250000Y-120700000D03*
X47750000Y-120700000D03*
X48250000Y-120700000D03*
X48750000Y-120700000D03*
X49250000Y-120700000D03*
X49750000Y-120700000D03*
X50250000Y-120700000D03*
X50750000Y-120700000D03*
X51250000Y-120700000D03*
X51750000Y-120700000D03*
X52250000Y-120700000D03*
X52750000Y-120700000D03*
X53250000Y-120700000D03*
X53750000Y-120700000D03*
X54250000Y-120700000D03*
X54750000Y-120700000D03*
D14*
X56700000Y-118750000D03*
X56700000Y-118250000D03*
X56700000Y-117750000D03*
X56700000Y-117250000D03*
X56700000Y-116750000D03*
X56700000Y-116250000D03*
X56700000Y-115750000D03*
X56700000Y-115250000D03*
X56700000Y-114750000D03*
X56700000Y-114250000D03*
X56700000Y-113750000D03*
X56700000Y-113250000D03*
X56700000Y-112750000D03*
X56700000Y-112250000D03*
X56700000Y-111750000D03*
X56700000Y-111250000D03*
D15*
X54750000Y-109300000D03*
X54250000Y-109300000D03*
X53750000Y-109300000D03*
X53250000Y-109300000D03*
X52750000Y-109300000D03*
X52250000Y-109300000D03*
X51750000Y-109300000D03*
X51250000Y-109300000D03*
X50750000Y-109300000D03*
X50250000Y-109300000D03*
X49750000Y-109300000D03*
X49250000Y-109300000D03*
X48750000Y-109300000D03*
X48250000Y-109300000D03*
X47750000Y-109300000D03*
X47250000Y-109300000D03*
D16*
X51200000Y-89050000D03*
X51200000Y-90550000D03*
D17*
X51750000Y-98500000D03*
X50250000Y-98500000D03*
X47250000Y-107500000D03*
X48750000Y-107500000D03*
D18*
X58660000Y-116900000D03*
X58660000Y-118400000D03*
D19*
X39000000Y-123760000D03*
X39000000Y-121140000D03*
D20*
X53250000Y-107000000D03*
X56250000Y-107000000D03*
D19*
X39000000Y-129010000D03*
X39000000Y-126390000D03*
D18*
X58650000Y-112450000D03*
X58650000Y-113950000D03*
X43000000Y-121500000D03*
X43000000Y-123000000D03*
X43100000Y-127800000D03*
X43100000Y-126300000D03*
D21*
X34900000Y-121550000D03*
X34900000Y-123450000D03*
X35000000Y-126250000D03*
X35000000Y-128150000D03*
D22*
X120329300Y-96300000D03*
X118830700Y-96300000D03*
X118850700Y-99850000D03*
X120349300Y-99850000D03*
X120349300Y-103350000D03*
X118850700Y-103350000D03*
X120349300Y-106850000D03*
X118850700Y-106850000D03*
X118850700Y-110350000D03*
X120349300Y-110350000D03*
X120349300Y-113850000D03*
X118850700Y-113850000D03*
X118850700Y-117350000D03*
X120349300Y-117350000D03*
X120349300Y-120850000D03*
X118850700Y-120850000D03*
X64499300Y-107000000D03*
X63000700Y-107000000D03*
X48500700Y-126500000D03*
X49999300Y-126500000D03*
X49999300Y-123750000D03*
X48500700Y-123750000D03*
X51200000Y-92250700D03*
X51200000Y-93749300D03*
D23*
X34400000Y-107500000D03*
D24*
X34400000Y-104960000D03*
X34400000Y-102420000D03*
D25*
X64500000Y-110000000D03*
X63000000Y-110000000D03*
D16*
X48000000Y-102500000D03*
X48000000Y-101000000D03*
X54000000Y-98000000D03*
X54000000Y-99500000D03*
X54000000Y-102500000D03*
X54000000Y-101000000D03*
D25*
X51750000Y-105000000D03*
X50250000Y-105000000D03*
X42000000Y-113750000D03*
X43500000Y-113750000D03*
X43500000Y-115500000D03*
X42000000Y-115500000D03*
X53500000Y-126500000D03*
X52000000Y-126500000D03*
X52000000Y-123750000D03*
X53500000Y-123750000D03*
D16*
X56300000Y-87250000D03*
X56300000Y-88750000D03*
X60300000Y-88750000D03*
X60300000Y-87250000D03*
X64300000Y-87250000D03*
X64300000Y-88750000D03*
X66300000Y-88750000D03*
X66300000Y-87250000D03*
X85200000Y-128250000D03*
X85200000Y-129750000D03*
X81200000Y-128250000D03*
X81200000Y-129750000D03*
X77200000Y-129750000D03*
X77200000Y-128250000D03*
X73200000Y-128250000D03*
X73200000Y-129750000D03*
X54300000Y-87250000D03*
X54300000Y-88750000D03*
X58300000Y-88750000D03*
X58300000Y-87250000D03*
X62300000Y-87250000D03*
X62300000Y-88750000D03*
X68300000Y-88750000D03*
X68300000Y-87250000D03*
X83200000Y-129750000D03*
X83200000Y-128250000D03*
X79200000Y-128250000D03*
X79200000Y-129750000D03*
X75200000Y-128250000D03*
X75200000Y-129750000D03*
X71200000Y-128250000D03*
X71200000Y-129750000D03*
X108200000Y-129750000D03*
X108200000Y-128250000D03*
X104200000Y-128250000D03*
X104200000Y-129750000D03*
X100200000Y-129750000D03*
X100200000Y-128250000D03*
X96200000Y-128250000D03*
X96200000Y-129750000D03*
X102300000Y-87250000D03*
X102300000Y-88750000D03*
X106300000Y-88750000D03*
X106300000Y-87250000D03*
X110300000Y-87250000D03*
X110300000Y-88750000D03*
X112300000Y-88750000D03*
X112300000Y-87250000D03*
X79300000Y-88750000D03*
X79300000Y-87250000D03*
X83300000Y-87250000D03*
X83300000Y-88750000D03*
X87300000Y-88750000D03*
X87300000Y-87250000D03*
X89300000Y-88750000D03*
X89300000Y-87250000D03*
X106200000Y-129750000D03*
X106200000Y-128250000D03*
X102200000Y-128250000D03*
X102200000Y-129750000D03*
X98200000Y-128250000D03*
X98200000Y-129750000D03*
X94200000Y-129750000D03*
X94200000Y-128250000D03*
X100300000Y-87250000D03*
X100300000Y-88750000D03*
X104300000Y-88750000D03*
X104300000Y-87250000D03*
X108300000Y-87250000D03*
X108300000Y-88750000D03*
X114300000Y-87250000D03*
X114300000Y-88750000D03*
X77300000Y-87250000D03*
X77300000Y-88750000D03*
X81300000Y-88750000D03*
X81300000Y-87250000D03*
X85300000Y-87250000D03*
X85300000Y-88750000D03*
X91300000Y-88750000D03*
X91300000Y-87250000D03*
D26*
X44560000Y-106550000D03*
X40470000Y-106550000D03*
D27*
X36770000Y-113652060D03*
X36770000Y-114302300D03*
X36770000Y-114950000D03*
X36770000Y-115597700D03*
X36770000Y-116247940D03*
D28*
X34095380Y-113751120D03*
X34095380Y-116148880D03*
D29*
X34100000Y-111520000D03*
X34100000Y-118380000D03*
D30*
X36770000Y-117447940D03*
X36770000Y-112447940D03*
D31*
X43866000Y-98450000D03*
X40866000Y-93750000D03*
D32*
X46866000Y-93750000D03*
D33*
X50050000Y-103140000D03*
X51000000Y-103140000D03*
X51950000Y-103140000D03*
X50050000Y-100340000D03*
X51000000Y-100340000D03*
X51950000Y-100340000D03*
D34*
X103350000Y-100100000D03*
X103350000Y-100900000D03*
X103350000Y-101700000D03*
X103350000Y-102500000D03*
X103350000Y-103300000D03*
X103350000Y-104100000D03*
X103350000Y-104900000D03*
X103350000Y-105700000D03*
X103350000Y-106500000D03*
X103350000Y-107300000D03*
X103350000Y-108100000D03*
X103350000Y-108900000D03*
X103350000Y-110500000D03*
X103350000Y-109700000D03*
X103350000Y-111300000D03*
X103350000Y-112100000D03*
X103350000Y-112900000D03*
X103350000Y-113700000D03*
X103350000Y-114500000D03*
X103350000Y-115300000D03*
X103350000Y-116100000D03*
X103350000Y-116900000D03*
X114650000Y-116900000D03*
X114650000Y-116100000D03*
X114650000Y-115300000D03*
X114650000Y-114500000D03*
X114650000Y-113700000D03*
X114650000Y-112900000D03*
X114650000Y-112100000D03*
X114650000Y-111300000D03*
X114650000Y-109700000D03*
X114650000Y-110500000D03*
X114650000Y-108900000D03*
X114650000Y-108100000D03*
X114650000Y-107300000D03*
X114650000Y-106500000D03*
X114650000Y-105700000D03*
X114650000Y-104900000D03*
X114650000Y-104100000D03*
X114650000Y-103300000D03*
X114650000Y-102500000D03*
X114650000Y-101700000D03*
X114650000Y-100900000D03*
X114650000Y-100100000D03*
D35*
X75716855Y-97864235D03*
D10*
G36*
X75699177Y-96686902D02*
X76894188Y-97881913D01*
X75734533Y-99041568D01*
X74539522Y-97846557D01*
X75699177Y-96686902D01*
X75699177Y-96686902D01*
G37*
D35*
X73920804Y-99660287D03*
D10*
G36*
X73903126Y-98482954D02*
X75098137Y-99677965D01*
X73938482Y-100837620D01*
X72743471Y-99642609D01*
X73903126Y-98482954D01*
X73903126Y-98482954D01*
G37*
D35*
X74125865Y-96273245D03*
D10*
G36*
X74108187Y-95095912D02*
X75303198Y-96290923D01*
X74143543Y-97450578D01*
X72948532Y-96255567D01*
X74108187Y-95095912D01*
X74108187Y-95095912D01*
G37*
D35*
X72329814Y-98069296D03*
D10*
G36*
X72312136Y-96891963D02*
X73507147Y-98086974D01*
X72347492Y-99246629D01*
X71152481Y-98051618D01*
X72312136Y-96891963D01*
X72312136Y-96891963D01*
G37*
D13*
X84503500Y-134543500D03*
D12*
X84503500Y-132003500D03*
D13*
X81963500Y-134543500D03*
X81963500Y-132003500D03*
X79423500Y-134543500D03*
X79423500Y-132003500D03*
X76883500Y-134543500D03*
X76883500Y-132003500D03*
X74343500Y-134543500D03*
X74343500Y-132003500D03*
X71803500Y-134543500D03*
D36*
X71803500Y-132003500D03*
X94803500Y-132003500D03*
D13*
X94803500Y-134543500D03*
X97343500Y-132003500D03*
X97343500Y-134543500D03*
X99883500Y-132003500D03*
X99883500Y-134543500D03*
X102423500Y-132003500D03*
X102423500Y-134543500D03*
X104963500Y-132003500D03*
X104963500Y-134543500D03*
D12*
X107503500Y-132003500D03*
D13*
X107503500Y-134543500D03*
D36*
X67696500Y-84996500D03*
D13*
X67696500Y-82456500D03*
X65156500Y-84996500D03*
X65156500Y-82456500D03*
X62616500Y-84996500D03*
X62616500Y-82456500D03*
X60076500Y-84996500D03*
X60076500Y-82456500D03*
X57536500Y-84996500D03*
X57536500Y-82456500D03*
D12*
X54996500Y-84996500D03*
D13*
X54996500Y-82456500D03*
D36*
X90696500Y-84996500D03*
D13*
X90696500Y-82456500D03*
X88156500Y-84996500D03*
X88156500Y-82456500D03*
X85616500Y-84996500D03*
X85616500Y-82456500D03*
X83076500Y-84996500D03*
X83076500Y-82456500D03*
X80536500Y-84996500D03*
X80536500Y-82456500D03*
D12*
X77996500Y-84996500D03*
D13*
X77996500Y-82456500D03*
X100996500Y-82456500D03*
D12*
X100996500Y-84996500D03*
D13*
X103536500Y-82456500D03*
X103536500Y-84996500D03*
X106076500Y-82456500D03*
X106076500Y-84996500D03*
X108616500Y-82456500D03*
X108616500Y-84996500D03*
X111156500Y-82456500D03*
X111156500Y-84996500D03*
X113696500Y-82456500D03*
D36*
X113696500Y-84996500D03*
D37*
X36750000Y-92750000D03*
D38*
X36750000Y-94750000D03*
D39*
X39750000Y-117400000D03*
X39750000Y-115620000D03*
X39750000Y-113630000D03*
X39750000Y-111850000D03*
D40*
X119500000Y-137000000D03*
X119500000Y-80000000D03*
D41*
X39450000Y-102300000D03*
D42*
X41990000Y-102300000D03*
D43*
X119500000Y-87500000D03*
X119500000Y-85500000D03*
X119500000Y-89500000D03*
D44*
X119500000Y-91600000D03*
X119500000Y-83400000D03*
D40*
X34500000Y-80000000D03*
D45*
X72800000Y-84800000D03*
X72800000Y-91300000D03*
X120000000Y-131840000D03*
X113500000Y-131840000D03*
X113500000Y-126500000D03*
X120000000Y-126500000D03*
D46*
X40250000Y-83500000D03*
X44250000Y-83500000D03*
X48250000Y-83500000D03*
D47*
X50250000Y-85250000D03*
X50250000Y-79250000D03*
X38250000Y-85250000D03*
X38250000Y-79250000D03*
D40*
X34500000Y-137000000D03*
M02*
