M48
INCH,TZ
T1C0.016
T2C0.028
T3C0.030
T4C0.031
T5C0.033
T6C0.040
T7C0.041
T8C0.045
T9C0.049
T10C0.059
T11C0.118
T12C0.138
%
G90
G05
T1
X14272Y-48819
X14370Y-49508
X14961Y-41634
X14984Y-45866
X15945Y-48720
X15945Y-49705
X16043Y-43996
X16043Y-46161
X16535Y-41929
X16831Y-41634
X16929Y-48819
X16929Y-49311
X17126Y-46949
X17323Y-43504
X17693Y-47087
X18209Y-45591
X18209Y-45965
X18209Y-46358
X18283Y-44551
X18334Y-44892
X18602Y-39370
X18602Y-41535
X18673Y-41906
X18701Y-49409
X18921Y-46988
X18996Y-41831
X19193Y-48327
X19291Y-46555
X19390Y-48130
X19488Y-34646
X19488Y-38386
X19587Y-41831
X20079Y-40157
X20079Y-43799
X20079Y-48130
X20177Y-37546
X20374Y-38386
X20472Y-41831
X20472Y-42421
X20571Y-34646
X20571Y-48130
X20768Y-39665
X21013Y-43489
X21299Y-44276
X21319Y-43563
X21358Y-47047
X21555Y-41831
X21752Y-39567
X21850Y-38484
X22047Y-37992
X22146Y-41535
X22374Y-31157
X23087Y-47028
X23091Y-43870
X23228Y-40059
X23657Y-44854
X24114Y-42028
X24114Y-42421
X24409Y-39567
X25000Y-40059
X25000Y-46949
X25591Y-39567
X25591Y-40650
X26673Y-36713
X26736Y-41575
X26772Y-37500
X27067Y-36713
X27067Y-40650
X27088Y-37959
X27165Y-37500
X27165Y-44685
X27461Y-34941
X27854Y-41339
X27953Y-38386
X27953Y-40157
X28051Y-42913
X28378Y-43142
X28573Y-42335
X28601Y-43365
X28642Y-42028
X28642Y-42815
X28740Y-45866
X28839Y-37500
X28937Y-38386
X28937Y-45276
X28937Y-46358
X29165Y-41686
X29429Y-41240
X29528Y-35728
X29724Y-39173
X29724Y-40945
X29732Y-41327
X29823Y-46063
X30079Y-39110
X30084Y-38756
X30217Y-40748
X30303Y-44862
X30445Y-44084
X30488Y-35287
X30692Y-40016
X30906Y-48327
X31004Y-37106
X31004Y-40059
X31004Y-44685
X31144Y-40341
X31299Y-46063
X31339Y-31327
X31496Y-39173
X31699Y-42542
X31890Y-44143
X32185Y-38386
X32185Y-47047
X32480Y-38189
X32677Y-48327
X32705Y-47406
X32768Y-54134
X32776Y-37205
X32789Y-38125
X32874Y-45079
X32874Y-45669
X32988Y-47571
X33169Y-38976
X33169Y-39764
X33169Y-45276
X33268Y-37795
X33358Y-47496
X33366Y-36417
X33760Y-36516
X33760Y-47146
X33765Y-41881
X33854Y-46839
X34252Y-38878
X34303Y-48622
X34524Y-48909
X34547Y-39173
X34674Y-37627
X34736Y-39425
X34941Y-45669
X34941Y-45965
X35024Y-37288
X35098Y-40232
X35138Y-40945
X35335Y-43012
X35428Y-40044
X35433Y-44882
X35728Y-41887
X35728Y-45177
X36024Y-40748
X36220Y-43504
X36272Y-44520
X36411Y-40839
X36505Y-44309
X36516Y-46555
X36571Y-41142
X36795Y-41402
X36811Y-45669
X36909Y-38780
X36909Y-43602
X37043Y-41634
X37205Y-46063
X37567Y-43339
X37573Y-42199
X37697Y-44882
X37795Y-42421
X37831Y-42965
X38016Y-42697
X38780Y-43110
X38976Y-40846
X39665Y-42717
X40256Y-42520
X40256Y-42913
X40453Y-31398
X41693Y-54059
X44390Y-42598
X44390Y-42913
X45114Y-52850
X45291Y-50713
X46780Y-38390
X46780Y-46713
X46780Y-48102
X46787Y-41189
X46787Y-42524
X46787Y-43945
X46787Y-45323
X46795Y-39807
X47362Y-43866
X47382Y-38354
X47382Y-39728
X47382Y-42472
X47390Y-47992
X47398Y-41094
X47402Y-46622
X47413Y-45236
T2
X14469Y-36516
X14469Y-37303
T3
X15846Y-32874
X17421Y-32874
X18996Y-32874
T4
X47047Y-33661
X47047Y-34449
X47047Y-35236
T5
X14476Y-44271
X14476Y-46239
T6
X13543Y-40323
X13543Y-41323
X13543Y-42323
X15531Y-40276
X16531Y-40276
X18165Y-52303
X18165Y-53303
X19165Y-52303
X19165Y-53303
X20165Y-52303
X20165Y-53303
X21165Y-52303
X21165Y-53303
X21652Y-32463
X21652Y-33463
X22165Y-52303
X22165Y-53303
X22652Y-32463
X22652Y-33463
X23165Y-52303
X23165Y-53303
X23652Y-32463
X23652Y-33463
X24165Y-52303
X24165Y-53303
X24652Y-32463
X24652Y-33463
X25652Y-32463
X25652Y-33463
X26652Y-32463
X26652Y-33463
X28269Y-51970
X28269Y-52970
X29269Y-51970
X29269Y-52970
X30269Y-51970
X30269Y-52970
X30707Y-32463
X30707Y-33463
X31269Y-51970
X31269Y-52970
X31707Y-32463
X31707Y-33463
X32269Y-51970
X32269Y-52970
X32707Y-32463
X32707Y-33463
X33269Y-51970
X33269Y-52970
X33707Y-32463
X33707Y-33463
X34707Y-32463
X34707Y-33463
X35707Y-32463
X35707Y-33463
X37324Y-51970
X37324Y-52970
X38324Y-51970
X38324Y-52970
X39324Y-51970
X39324Y-52970
X39762Y-32463
X39762Y-33463
X40324Y-51970
X40324Y-52970
X40762Y-32463
X40762Y-33463
X41324Y-51970
X41324Y-52970
X41762Y-32463
X41762Y-33463
X42324Y-51970
X42324Y-52970
X42762Y-32463
X42762Y-33463
X43762Y-32463
X43762Y-33463
X44762Y-32463
X44762Y-33463
T7
X15059Y-31201
X15059Y-33563
X19783Y-31201
X19783Y-33563
T8
X13425Y-43906
X13425Y-46606
T9
X28661Y-33386
X28661Y-35945
X44685Y-49803
X44685Y-51906
X47244Y-49803
X47244Y-51906
T10
X47047Y-32835
X47047Y-36063
T11
X16089Y-36909
X17270Y-38760
T12
X18451Y-36909
T0
M30
