<?xml version="1.0" encoding="UTF-8" standalone="no"?>
<!-- Created with Inkscape (http://www.inkscape.org/) -->

<svg
   xmlns:dc="http://purl.org/dc/elements/1.1/"
   xmlns:cc="http://creativecommons.org/ns#"
   xmlns:rdf="http://www.w3.org/1999/02/22-rdf-syntax-ns#"
   xmlns:svg="http://www.w3.org/2000/svg"
   xmlns="http://www.w3.org/2000/svg"
   xmlns:sodipodi="http://sodipodi.sourceforge.net/DTD/sodipodi-0.dtd"
   xmlns:inkscape="http://www.inkscape.org/namespaces/inkscape"
   width="210mm"
   height="297mm"
   viewBox="0 0 744.09448819 1052.3622047"
   id="svg2"
   version="1.1"
   inkscape:version="0.91 r13725"
   sodipodi:docname="drawing_template_icon.svg">
  <defs
     id="defs4" />
  <sodipodi:namedview
     id="base"
     pagecolor="#ffffff"
     bordercolor="#666666"
     borderopacity="1.0"
     inkscape:pageopacity="0.0"
     inkscape:pageshadow="2"
     inkscape:zoom="2.9241519"
     inkscape:cx="153.10915"
     inkscape:cy="32.857142"
     inkscape:document-units="px"
     inkscape:current-layer="layer4"
     showgrid="false"
     inkscape:window-width="1280"
     inkscape:window-height="737"
     inkscape:window-x="-4"
     inkscape:window-y="-4"
     inkscape:window-maximized="1" />
  <metadata
     id="metadata7">
    <rdf:RDF>
      <cc:Work
         rdf:about="">
        <dc:format>image/svg+xml</dc:format>
        <dc:type
           rdf:resource="http://purl.org/dc/dcmitype/StillImage" />
        <dc:title></dc:title>
      </cc:Work>
    </rdf:RDF>
  </metadata>
  <g
     inkscape:groupmode="layer"
     id="layer5"
     inkscape:label="Layer 5 text bg">
    <rect
       style="fill:#ffffff;fill-opacity:1;stroke:none;stroke-width:0.56646419;stroke-linejoin:miter;stroke-miterlimit:4;stroke-dasharray:none;stroke-opacity:1"
       id="rect5109"
       width="21.838793"
       height="7.4507403"
       x="181.80971"
       y="999.68274"
       inkscape:export-xdpi="88.219086"
       inkscape:export-ydpi="88.219086" />
    <rect
       style="fill:#ffffff;fill-opacity:1;stroke:#000000;stroke-width:1;stroke-linejoin:miter;stroke-miterlimit:4;stroke-dasharray:none;stroke-opacity:1"
       id="rect4153"
       width="64.292145"
       height="64.292145"
       x="172.35767"
       y="962.07959"
       inkscape:export-xdpi="88.219086"
       inkscape:export-ydpi="88.219086" />
  </g>
  <g
     inkscape:groupmode="layer"
     id="layer2"
     inkscape:label="Layer 2"
     style="display:inline">
    <rect
       style="fill:#ffffff;fill-opacity:1;stroke:none;stroke-width:0;stroke-linejoin:miter;stroke-miterlimit:4;stroke-dasharray:none;stroke-opacity:1"
       id="rect5090"
       width="34.01786"
       height="44.910748"
       x="200.2628"
       y="979.21252"
       inkscape:export-xdpi="88.219086"
       inkscape:export-ydpi="88.219086" />
  </g>
  <g
     inkscape:label="Layer 1"
     inkscape:groupmode="layer"
     id="layer1"
     style="display:inline">
    <g
       inkscape:groupmode="layer"
       id="layer4"
       inkscape:label="Layer 4 mini"
       style="display:inline">
      <text
         xml:space="preserve"
         style="font-style:normal;font-variant:normal;font-weight:normal;font-stretch:normal;font-size:7.5px;line-height:125%;font-family:'Segoe Script';-inkscape-font-specification:'Segoe Script';letter-spacing:0px;word-spacing:0px;fill:#000000;fill-opacity:1;stroke:none;stroke-width:1px;stroke-linecap:butt;stroke-linejoin:miter;stroke-opacity:1"
         x="181.91663"
         y="1005.9684"
         id="text5100"
         sodipodi:linespacing="125%"
         inkscape:export-xdpi="88.219086"
         inkscape:export-ydpi="88.219086"><tspan
           sodipodi:role="line"
           id="tspan5102"
           x="181.91663"
           y="1005.9684">mini</tspan></text>
    </g>
    <g
       inkscape:groupmode="layer"
       id="layer3"
       inkscape:label="Layer 3  spartan"
       style="display:inline">
      <rect
         style="fill:#ffffff;fill-opacity:1;stroke:none;stroke-width:1.36483896;stroke-linejoin:miter;stroke-miterlimit:4;stroke-dasharray:none;stroke-opacity:1"
         id="rect5107"
         width="27.973667"
         height="9.3123417"
         x="174.45999"
         y="989.51849"
         inkscape:export-xdpi="88.219086"
         inkscape:export-ydpi="88.219086" />
      <text
         xml:space="preserve"
         style="font-style:normal;font-variant:normal;font-weight:normal;font-stretch:normal;font-size:9.87994671px;line-height:125%;font-family:Narkisim;-inkscape-font-specification:Narkisim;letter-spacing:0px;word-spacing:0px;fill:#000000;fill-opacity:1;stroke:none;stroke-width:1px;stroke-linecap:butt;stroke-linejoin:miter;stroke-opacity:1"
         x="176.29405"
         y="985.11987"
         id="text5095"
         sodipodi:linespacing="125%"
         inkscape:export-xdpi="88.219086"
         inkscape:export-ydpi="88.219086"
         transform="scale(0.98799465,1.0121512)"><tspan
           sodipodi:role="line"
           id="tspan5097"
           x="176.29405"
           y="985.11987"
           style="font-style:normal;font-variant:normal;font-weight:normal;font-stretch:normal;font-size:9.87994671px;font-family:Narkisim;-inkscape-font-specification:Narkisim">Spartan</tspan></text>
    </g>
    <path
       style="fill:#000000"
       d="m 218.18317,1022.7923 c -0.01,-0.067 -0.007,-0.07 0.052,-0.059 0.0551,0.011 0.0673,0 0.10353,-0.079 0.0226,-0.05 0.0495,-0.091 0.0599,-0.091 0.0104,0 0.0129,-0.016 0.006,-0.035 -0.017,-0.044 0.035,-0.044 0.094,5e-4 0.0438,0.033 0.0438,0.034 -0.004,0.034 -0.027,0 -0.0565,0.012 -0.0655,0.026 -0.0116,0.019 0.003,0.022 0.0505,0.01 0.0549,-0.014 0.0615,-0.011 0.0371,0.014 -0.0163,0.017 -0.0423,0.031 -0.0576,0.033 -0.12861,0.012 -0.12308,0.01 -0.0798,0.034 0.05,0.029 0.0551,0.1009 0.006,0.082 -0.019,-0.01 -0.0579,-0 -0.0864,0.01 -0.0322,0.013 -0.0383,0.021 -0.016,0.022 0.0198,10e-4 0.056,0.017 0.0807,0.035 0.0414,0.031 0.0368,0.034 -0.0621,0.035 -0.10202,4e-4 -0.10733,-0 -0.11732,-0.071 z m 0.40064,-0.2759 c -0.0297,-0.012 -0.0628,-0.016 -0.0735,-0.01 -0.0107,0.01 -0.0293,-0.01 -0.0413,-0.027 -0.0304,-0.054 0.1218,-0.1623 0.17113,-0.1213 0.0233,0.019 0.0322,0.02 0.0322,10e-4 0,-0.044 0.0497,-0.029 0.0621,0.019 0.006,0.025 0.0288,0.049 0.0497,0.055 0.0268,0.01 0.0233,0.011 -0.012,0.013 -0.0275,0 -0.0536,-0.01 -0.058,-0.022 -0.005,-0.017 -0.0263,-0.017 -0.0653,-0 -0.0557,0.022 -0.0559,0.023 -0.005,0.024 0.0531,0 0.0751,0.047 0.023,0.048 -0.0192,4e-4 -0.0173,0.01 0.006,0.023 0.0307,0.02 0.0307,0.022 0,0.021 -0.019,-5e-4 -0.0589,-0.011 -0.0885,-0.023 z m -0.47172,-0.154 c -0.0417,-0.1967 -0.0437,-0.2189 -0.0183,-0.2032 0.0357,0.022 0.0318,-0.014 -0.008,-0.07 -0.0182,-0.026 -0.0363,-0.088 -0.0403,-0.1377 -0.006,-0.08 -8.8e-4,-0.091 0.0465,-0.098 0.0296,-0 0.0754,0.011 0.1019,0.035 0.0265,0.023 0.0406,0.029 0.0315,0.014 -0.0112,-0.019 -0.005,-0.024 0.0189,-0.015 0.02,0.01 0.0411,-10e-4 0.0483,-0.019 0.007,-0.018 0.0252,-0.033 0.0405,-0.033 0.0153,-4e-4 0.0494,-0.01 0.0758,-0.016 0.0334,-0.011 0.048,-0.01 0.048,0.017 0,0.018 -0.0138,0.027 -0.0307,0.021 -0.0169,-0.01 -0.0307,5e-4 -0.0307,0.015 0,0.015 -0.0104,0.021 -0.023,0.013 -0.0521,-0.032 -0.18905,0.1244 -0.16692,0.1907 0.0165,0.049 0.0517,0.03 0.0517,-0.028 0,-0.031 0.012,-0.064 0.0266,-0.073 0.0175,-0.011 0.0209,-0 0.01,0.016 -0.009,0.018 -1.4e-4,0.012 0.0202,-0.013 0.0367,-0.045 0.0371,-0.045 0.0505,0.01 0.007,0.028 0.0226,0.051 0.0338,0.051 0.0112,0 0.0204,0.016 0.0204,0.035 0,0.037 -0.0861,0.081 -0.12757,0.065 -0.0131,-0 -0.0256,0.014 -0.0276,0.041 -0.005,0.066 -0.0522,0.1158 -0.0522,0.056 0,-0.071 -0.0329,-0.016 -0.059,0.099 l -0.0245,0.1077 -0.0159,-0.075 z m -4.59622,-0.237 c -0.0285,-0.011 -0.0519,-0.014 -0.0519,-0.01 0,0.028 -0.0975,-0.074 -0.12938,-0.1361 -0.0297,-0.058 -0.029,-0.062 0.008,-0.05 0.0274,0.01 0.021,-0 -0.0196,-0.041 -0.0686,-0.061 -0.32621,-0.5436 -0.30692,-0.5748 0.007,-0.011 -8.8e-4,-0.021 -0.0175,-0.021 -0.0219,-4e-4 -0.0207,-0.01 0.004,-0.023 0.0285,-0.018 0.0288,-0.022 0.002,-0.023 -0.018,-4e-4 -0.0266,-0.01 -0.0193,-0.014 0.007,-0.01 0.0363,-0 0.0642,0.014 0.0367,0.02 0.0463,0.02 0.0346,10e-4 -0.0258,-0.042 0.0951,-0.01 0.26272,0.076 0.11198,0.055 0.14915,0.086 0.15164,0.1239 0.002,0.037 -0.0149,0.057 -0.0619,0.074 -0.0671,0.023 -0.0874,0.081 -0.0364,0.103 0.0158,0.01 -10e-4,0.01 -0.038,-0 -0.047,-0.01 -0.062,-0.01 -0.0505,0.012 0.009,0.014 0.0306,0.026 0.0482,0.026 0.0175,0 0.0391,0.012 0.0479,0.026 0.0111,0.018 -0.01,0.023 -0.0678,0.016 -0.0917,-0.011 -0.0975,-0 -0.0514,0.056 0.018,0.024 0.0462,0.035 0.0675,0.027 0.0279,-0.011 0.0343,-0 0.027,0.036 -0.007,0.037 1.5e-4,0.048 0.0297,0.041 0.0216,-0 0.0364,-0.022 0.0328,-0.038 -0.004,-0.016 0.007,-0.025 0.023,-0.019 0.0162,0.01 0.0269,0.023 0.0238,0.037 -0.003,0.014 0.006,0.023 0.0202,0.02 0.0143,-0 0.0303,0.01 0.0356,0.02 0.005,0.015 -0.0262,0.033 -0.0737,0.042 -0.0666,0.012 -0.0782,0.022 -0.0575,0.047 0.0181,0.022 0.0185,0.036 0.001,0.046 -0.0436,0.027 -1.4e-4,0.058 0.0813,0.058 0.0551,0 0.0793,0.01 0.0793,0.035 0,0.019 -0.003,0.034 -0.006,0.033 -0.003,-10e-4 -0.0291,-0.011 -0.0576,-0.022 z m 5.74908,-0.6012 c -0.0226,-0.025 -0.0351,-0.055 -0.0276,-0.067 0.007,-0.012 -0.001,-0.016 -0.0195,-0.01 -0.0218,0.01 -0.0413,-0.011 -0.0574,-0.057 -0.0255,-0.073 -0.005,-0.1089 0.0477,-0.082 0.0158,0.01 0.01,-10e-4 -0.0138,-0.02 -0.0252,-0.02 -0.0354,-0.046 -0.025,-0.063 0.0121,-0.02 0.006,-0.024 -0.0188,-0.014 -0.044,0.017 -0.0652,-0.028 -0.0466,-0.1 0.0105,-0.04 0.006,-0.048 -0.0189,-0.033 -0.0178,0.01 -0.0117,-0 0.0137,-0.035 0.0399,-0.047 0.0407,-0.052 0.006,-0.039 -0.0251,0.01 -0.038,0 -0.0346,-0.013 0.003,-0.015 -0.007,-0.025 -0.0233,-0.022 -0.0417,0.01 -0.0355,-0.062 0.007,-0.078 0.0206,-0.01 0.0488,0 0.0666,0.029 0.0258,0.035 0.037,0.037 0.0667,0.013 0.0321,-0.027 0.0309,-0.039 -0.0119,-0.1212 -0.0465,-0.089 -0.0466,-0.092 -0.005,-0.1236 0.0384,-0.029 0.0457,-0.026 0.0656,0.018 0.0255,0.058 0.0769,0.097 0.12741,0.097 0.0522,0 0.0415,0.068 -0.0119,0.076 -0.0256,0 -0.0664,0.036 -0.0908,0.072 -0.0269,0.04 -0.0574,0.061 -0.0776,0.053 -0.0218,-0.01 -0.0293,-0 -0.0216,0.02 0.007,0.018 0.0241,0.03 0.0392,0.026 0.0331,-0.01 0.1627,0.081 0.1627,0.1115 0,0.03 -0.0862,0.027 -0.10554,-0 -0.0111,-0.018 -0.0222,-0.015 -0.036,0.01 -0.028,0.05 -1e-5,0.1086 0.0518,0.1086 0.024,0 0.0436,0.016 0.0436,0.035 0,0.019 -0.008,0.035 -0.0173,0.035 -0.01,0 -0.0188,0.026 -0.0206,0.058 -0.004,0.068 0.01,0.072 0.0519,0.017 0.0178,-0.023 0.0309,-0.029 0.0314,-0.012 4.4e-4,0.015 0.0141,0.023 0.0304,0.017 0.0177,-0.01 0.0311,0.01 0.0332,0.036 0.002,0.026 -0.006,0.041 -0.0181,0.034 -0.0119,-0.01 -0.0216,-10e-4 -0.0216,0.014 0,0.02 -0.008,0.021 -0.0309,0 -0.037,-0.031 -0.063,-0.011 -0.0457,0.034 0.0163,0.043 0.005,0.038 -0.0452,-0.016 z m -0.28852,-0 c -0.038,-0.038 -0.0344,-0.064 0.009,-0.064 0.0199,0 0.0518,-0.016 0.0708,-0.035 0.047,-0.047 0.0714,-0.043 0.0894,0.013 0.0182,0.057 0.0155,0.061 -0.0582,0.071 -0.0317,0 -0.0634,0.016 -0.0704,0.025 -0.007,0.01 -0.0252,0 -0.0403,-0.01 z m 0.48693,-0.1644 c 0.008,-0.055 0.004,-0.1096 -0.007,-0.1212 -0.0283,-0.028 0.0106,-0.089 0.0439,-0.068 0.0143,0.01 0.019,0.027 0.0105,0.041 -0.009,0.014 -0.005,0.018 0.008,0.01 0.0254,-0.016 0.0514,0.054 0.052,0.1394 2.9e-4,0.045 -0.0573,0.099 -0.10501,0.099 -0.009,0 -0.01,-0.045 -0.002,-0.1001 z m -1.30333,-0.035 c -0.0151,-0.055 0.031,-0.1307 0.0615,-0.1003 0.008,0.01 0.0253,4e-4 0.0373,-0.018 0.0183,-0.028 0.0251,-0.029 0.0422,-0 0.0165,0.026 0.0256,0.023 0.0478,-0.011 0.0258,-0.041 0.0267,-0.041 0.0142,-0 -0.007,0.023 -0.0133,0.061 -0.0133,0.085 0,0.034 -0.0155,0.041 -0.0796,0.036 -0.058,-0 -0.0817,0 -0.0874,0.031 -0.005,0.026 -0.0123,0.02 -0.0227,-0.018 z m 1.42564,-0.032 c -0.008,-0.029 -0.014,-0.08 -0.0142,-0.1134 -4.4e-4,-0.099 -0.0206,-0.1285 -0.0789,-0.1174 -0.0357,0.01 -0.0582,-0 -0.0685,-0.03 -0.0211,-0.055 0.002,-0.071 0.0549,-0.039 0.0243,0.015 0.0497,0.018 0.0567,0.01 0.007,-0.011 0.0308,-0.017 0.0529,-0.013 0.0221,0 0.0454,0.01 0.0518,0.01 0.006,10e-4 -0.004,0.013 -0.023,0.027 -0.0278,0.02 -0.0244,0.022 0.0173,0.013 0.0638,-0.014 0.0643,-0.01 0.004,0.078 -0.0431,0.061 -0.0437,0.065 -0.006,0.052 0.023,-0.01 0.0342,-0.01 0.0249,0 -0.009,0.01 0.001,0.032 0.023,0.048 0.0374,0.028 0.0367,0.032 -0.0109,0.077 -0.0635,0.06 -0.0674,0.059 -0.0844,-0 z m 0.30811,0.014 c 0,-0.019 0.0262,-0.031 0.0691,-0.031 0.038,0 0.0691,-0.01 0.0691,-0.021 0,-0.012 0.0353,-0.01 0.0807,0 0.0444,0.014 0.0807,0.034 0.0807,0.045 0,0.035 -0.0685,0.048 -0.10299,0.019 -0.0183,-0.015 -0.0447,-0.02 -0.0586,-0.012 -0.0498,0.031 -0.13796,0.029 -0.13796,-0 z m -1.15535,-0.07 c -0.0308,-0.01 -0.0342,-0.025 -0.0185,-0.095 0.0206,-0.091 -0.0198,-0.1664 -0.0892,-0.1664 -0.0263,0 -0.0236,0.01 0.0114,0.04 0.0351,0.031 0.0435,0.061 0.0356,0.1267 -0.006,0.048 -0.0185,0.086 -0.0284,0.086 -0.0329,0 -0.0473,-0.074 -0.0206,-0.1066 0.0366,-0.044 -0.0123,-0.042 -0.0568,0 -0.019,0.019 -0.0426,0.035 -0.0524,0.035 -0.01,0 -0.005,-0.012 0.01,-0.028 0.0384,-0.038 0.0346,-0.088 -0.007,-0.088 -0.019,0 -0.0346,0.015 -0.0346,0.032 0,0.022 -0.0165,0.028 -0.0519,0.019 -0.0657,-0.017 -0.0886,-0.051 -0.0734,-0.1093 0.009,-0.036 0.004,-0.034 -0.0252,0.011 -0.0218,0.034 -0.0317,0.04 -0.024,0.015 0.007,-0.023 0.0131,-0.055 0.0131,-0.071 0,-0.035 0.0746,-0.039 0.097,-0 0.0116,0.018 0.0234,0.018 0.0411,4e-4 0.0275,-0.028 0.008,-0.1016 -0.0269,-0.1016 -0.0122,0 -0.0379,-0.016 -0.057,-0.035 -0.0191,-0.019 -0.0459,-0.028 -0.0596,-0.019 -0.0379,0.023 -0.004,-0.1512 0.039,-0.1982 0.0516,-0.057 0.0437,-0.073 -0.0216,-0.043 -0.0467,0.021 -0.0544,0.037 -0.0423,0.086 0.0134,0.054 0.011,0.057 -0.0236,0.028 -0.0212,-0.017 -0.0479,-0.064 -0.0594,-0.1037 -0.0115,-0.04 -0.0218,-0.055 -0.023,-0.034 -0.001,0.021 -0.0236,0.043 -0.05,0.05 -0.0339,0.01 -0.0444,0 -0.036,-0.019 0.0112,-0.029 -0.0444,-0.07 -0.0838,-0.061 -0.01,0 -0.0231,-0.01 -0.0294,-0.026 -0.007,-0.017 -0.0452,-0.029 -0.092,-0.027 -0.0471,0 -0.0923,-0.012 -0.1089,-0.032 -0.0184,-0.023 -0.0191,-0.029 -0.002,-0.019 0.0386,0.023 0.0598,-0.053 0.027,-0.096 -0.0233,-0.031 -0.0227,-0.033 0.003,-0.01 0.0217,0.019 0.0443,0.021 0.0738,0 0.0339,-0.018 0.0429,-0.014 0.0444,0.018 0.001,0.024 0.007,0.029 0.0134,0.012 0.0237,-0.059 0.0595,-0.028 0.046,0.039 -0.007,0.038 -0.004,0.074 0.009,0.082 0.0123,0.01 0.0223,-0 0.0223,-0.022 0,-0.019 0.0311,-0.051 0.069,-0.071 0.061,-0.032 0.0657,-0.041 0.0405,-0.081 -0.0225,-0.036 -0.0225,-0.055 -1.5e-4,-0.091 0.0233,-0.037 0.0225,-0.043 -0.004,-0.033 -0.0236,0.01 -0.0291,-4e-4 -0.02,-0.035 0.01,-0.036 0.002,-0.048 -0.0322,-0.048 -0.0246,0 -0.064,-0.018 -0.0875,-0.041 -0.0409,-0.039 -0.045,-0.039 -0.0942,0 -0.0381,0.034 -0.046,0.056 -0.0304,0.085 0.0233,0.043 0.0289,0.104 0.008,0.083 -0.007,-0.01 -0.0358,0.01 -0.0631,0.036 l -0.0497,0.05 -0.0153,-0.1071 c -0.008,-0.059 -0.0226,-0.1302 -0.0315,-0.1582 -0.011,-0.035 -0.008,-0.046 0.009,-0.035 0.014,0.01 0.0255,0 0.0255,-0.013 0,-0.023 0.006,-0.023 0.0276,-0 0.0334,0.033 0.073,0.037 0.053,0 -0.008,-0.013 -0.003,-0.023 0.0102,-0.023 0.0134,0 0.0244,-0.01 0.0244,-0.022 0,-0.012 -0.0159,-0.016 -0.0353,-0.01 -0.0457,0.017 -0.14014,-0.091 -0.15837,-0.1825 -0.0197,-0.099 -0.0177,-0.1091 0.0208,-0.1091 0.019,0 0.0346,-0.01 0.0346,-0.021 0,-0.012 -0.0196,-0.016 -0.0436,-0.01 -0.038,0.01 -0.0457,-0.01 -0.0597,-0.1277 -0.009,-0.077 -0.008,-0.1516 0.001,-0.1669 0.01,-0.016 0.007,-0.022 -0.005,-0.014 -0.0131,0.01 -0.076,-0.3035 -0.15405,-0.7627 -0.22908,-1.3481 -0.65266,-3.8795 -0.68328,-4.0834 -0.0162,-0.1078 -0.18395,-1.1334 -0.37284,-2.2793 -0.18888,-1.1459 -0.34049,-2.0911 -0.33692,-2.1004 0.004,-0.01 0.21911,0.087 0.47895,0.2131 0.70021,0.3412 0.85103,0.4101 0.89736,0.4101 0.0231,0 0.25858,-0.1892 0.52335,-0.4206 0.26478,-0.2313 0.83846,-0.7317 1.27486,-1.1119 0.43639,-0.3803 1.04288,-0.91 1.34775,-1.1772 0.30487,-0.2672 0.58957,-0.5161 0.63267,-0.5531 0.0431,-0.037 0.13194,-0.114 0.19742,-0.171 0.0655,-0.057 0.18517,-0.1607 0.26598,-0.2304 0.0808,-0.07 0.18383,-0.1598 0.22893,-0.2002 0.0451,-0.04 0.15233,-0.1333 0.23829,-0.2066 0.13172,-0.1124 0.1546,-0.1425 0.14551,-0.1917 -0.006,-0.032 -0.0396,-0.3773 -0.0748,-0.767 -0.0632,-0.6993 -0.0648,-0.7087 -0.11562,-0.7087 -0.0284,0 -0.0754,0.01 -0.10449,0.021 -0.0291,0.011 -0.0944,0.031 -0.14513,0.045 -0.12275,0.032 -0.65614,0.1823 -0.82964,0.2334 -0.076,0.022 -0.22124,0.063 -0.32264,0.089 -0.20711,0.055 -0.98159,0.2694 -1.14077,0.3163 -0.057,0.017 -0.3163,0.089 -0.57614,0.1596 -0.25984,0.071 -0.5554,0.154 -0.6568,0.1843 -0.10141,0.03 -0.44882,0.1278 -0.77204,0.2166 -0.32321,0.089 -0.79507,0.2197 -1.04858,0.2909 -0.2535,0.071 -0.83425,0.2335 -1.29056,0.3605 -0.4563,0.1271 -0.83854,0.2395 -0.84941,0.2499 -0.0109,0.01 0.0489,1.3868 0.1343,3.088 0.0847,1.6881 0.15016,3.0732 0.1454,3.0779 -0.0113,0.011 -0.96916,-0.1497 -0.98514,-0.1656 -0.007,-0.01 -0.0395,-0.1384 -0.0727,-0.2927 -0.13228,-0.614 -0.53407,-2.4677 -0.60775,-2.8039 -0.0813,-0.3708 -0.40513,-1.8596 -0.55521,-2.5523 l -0.0861,-0.3975 -0.52058,-0.38 c -0.28632,-0.2091 -0.54107,-0.3947 -0.56612,-0.4126 -0.0416,-0.03 -0.0471,-0.072 -0.0638,-0.49 -0.0166,-0.4168 0.004,-1.2275 0.044,-1.7546 l 0.0146,-0.191 0.10278,0.015 c 0.0756,0.011 0.10812,0.01 0.12294,-0.016 0.0331,-0.052 0.0242,-0.066 -0.0425,-0.067 -0.13706,-10e-4 -0.13612,0.01 -0.0558,-0.6144 0.0405,-0.3147 0.0737,-0.5825 0.0737,-0.5952 2.7e-4,-0.068 0.0372,-0.082 0.12206,-0.046 0.0919,0.038 0.0996,0.03 0.0518,-0.056 -0.0172,-0.031 -0.0282,-0.067 -0.0244,-0.081 0.0224,-0.079 0.13697,-0.4585 0.21618,-0.7155 0.13415,-0.4355 0.13353,-0.4208 0.0177,-0.4218 -0.0528,-4e-4 -0.10455,-0 -0.11509,-0 -0.0105,-10e-4 0.003,-0.037 0.0295,-0.081 0.0267,-0.043 0.0471,-0.087 0.0452,-0.098 -0.007,-0.043 0.003,-0.079 0.0201,-0.068 0.0271,0.017 0.15057,-0.2327 0.1351,-0.273 -0.007,-0.019 -0.0345,-0.035 -0.0602,-0.035 -0.0258,0 -0.0468,-0 -0.0468,-0.01 0,-0 0.0574,-0.1772 0.12747,-0.3836 0.10863,-0.31987 0.16435,-0.46976 0.287,-0.772 0.10218,-0.25181 0.36456,-0.81547 0.39155,-0.84117 0.007,-0.006 0.037,-0.0582 0.0674,-0.11523 0.0304,-0.057 0.0858,-0.16074 0.12299,-0.23046 0.0958,-0.17957 0.16246,-0.28682 0.18368,-0.29575 0.0101,-0.004 0.0183,-0.0178 0.0183,-0.0301 0,-0.0123 0.0441,-0.0855 0.098,-0.16252 0.0539,-0.0771 0.1135,-0.16339 0.13251,-0.1918 0.14154,-0.21154 0.22088,-0.32037 0.2787,-0.38227 0.0368,-0.0394 0.067,-0.0813 0.067,-0.093 0,-0.0117 0.0147,-0.0269 0.0326,-0.0339 0.018,-0.007 0.0582,-0.0512 0.0895,-0.0985 0.0665,-0.10047 0.65317,-0.6975 0.86453,-0.87978 0.80745,-0.69635 1.86721,-1.25809 2.95046,-1.56394 1.28979,-0.36416 2.86843,-0.49363 4.09177,-0.33559 0.69093,0.0893 1.26783,0.23809 1.99608,0.51497 0.12771,0.0486 0.49959,0.23236 0.84106,0.4157 0.85111,0.45696 1.77076,1.27767 2.45444,2.19037 0.40853,0.54537 0.67974,0.98876 1.01308,1.65626 0.19347,0.38738 0.29438,0.6277 0.6647,1.58281 0.32192,0.8303 0.50743,1.5659 0.65743,2.6068 0.0584,0.4055 0.0592,0.4006 -0.085,0.5624 -0.0337,0.038 -0.0558,0.069 -0.049,0.069 0.007,0 -0.004,0.025 -0.024,0.055 -0.0199,0.03 -0.0278,0.059 -0.0174,0.063 0.0365,0.016 0.12092,0.1405 0.10851,0.1605 -0.007,0.011 -8.8e-4,0.02 0.0135,0.02 0.0333,0 0.10143,0.067 0.0849,0.084 -0.007,0.01 0.0178,0.044 0.0549,0.083 0.0536,0.056 0.0677,0.092 0.0691,0.1766 0.001,0.058 0.005,0.1268 0.009,0.1521 0.004,0.025 0.0195,0.2069 0.0343,0.4033 0.0149,0.1965 0.0364,0.4661 0.0478,0.5992 0.0114,0.1331 0.0272,0.4183 0.0351,0.6338 0.008,0.2154 0.0181,0.4155 0.0225,0.4446 0.0146,0.095 0.044,1.3852 0.0447,1.9637 l 7.4e-4,0.5646 -0.0922,-0 c -0.0507,-0 -0.1355,-0.01 -0.18844,-0.014 -0.0529,-0.01 -0.10997,-0 -0.12675,0.01 -0.0252,0.016 -0.0252,0.019 1.5e-4,0.02 0.0169,4e-4 0.0264,0.013 0.021,0.029 -0.005,0.016 0.007,0.043 0.0269,0.059 0.0293,0.024 0.0297,0.028 0.002,0.016 -0.0216,-0.01 -0.0191,-0 0.007,0.019 0.0227,0.019 0.0382,0.048 0.0346,0.065 -0.004,0.017 0.004,0.029 0.018,0.027 0.0136,-0 0.0413,0.024 0.0617,0.058 0.0357,0.06 0.0352,0.063 -0.0131,0.06 -0.0936,-0 -0.19996,-0.037 -0.19996,-0.059 0,-0.012 -0.0104,-0.016 -0.023,-0.01 -0.0127,0.01 -0.023,0 -0.023,-0.01 0,-0.022 -0.15231,-0.074 -0.21745,-0.074 -0.0277,0 -0.0369,0.015 -0.0314,0.052 0.004,0.029 0.0206,0.049 0.0362,0.046 0.0155,-0 0.0283,0 0.0283,0.012 0,0.01 0.0285,0.029 0.0634,0.043 0.14064,0.058 0.15655,0.063 0.18124,0.065 0.0141,10e-4 0.04,0.013 0.0576,0.027 0.0176,0.014 0.0624,0.033 0.0996,0.042 0.12383,0.03 0.12665,0.045 0.12745,0.6764 5.8e-4,0.5042 -0.004,0.5845 -0.0348,0.5963 -0.0415,0.016 -0.47206,-0.036 -0.50604,-0.061 -0.0127,-0.01 -0.18898,-0.04 -0.39178,-0.067 -0.50514,-0.069 -0.49752,-0.067 -0.56059,-0.181 -0.0391,-0.071 -0.0681,-0.097 -0.10702,-0.097 -0.0509,0 -0.0523,0 -0.03,0.092 0.0182,0.072 0.0371,0.096 0.084,0.1069 0.0788,0.019 0.12137,0.053 0.10278,0.083 -0.008,0.013 -0.004,0.017 0.01,0.01 0.0135,-0.01 0.0287,-0 0.0336,0.012 0.005,0.015 0.024,0.03 0.0423,0.034 0.0511,0.011 0.37935,0.075 0.59794,0.1157 0.10774,0.02 0.20626,0.044 0.21894,0.054 0.0127,0.01 0.0516,0.024 0.0864,0.032 l 0.0634,0.015 0,0.2261 c 0,0.1244 -0.007,0.2332 -0.0154,0.2416 -0.008,0.01 -0.0344,-0 -0.0576,-0.023 -0.0537,-0.049 -0.0552,-0.014 -0.002,0.044 0.0353,0.039 0.0394,0.087 0.0332,0.3936 l -0.007,0.3492 -0.11281,0.1139 c -0.11102,0.1121 -0.11355,0.1133 -0.1599,0.071 -0.0259,-0.023 -0.0471,-0.057 -0.0471,-0.074 0,-0.017 -0.0149,-0.031 -0.033,-0.031 -0.0182,0 -0.04,-0.022 -0.0486,-0.049 -0.0243,-0.077 -0.0556,-0.01 -0.0579,0.1298 -10e-4,0.086 -0.007,0.1035 -0.0218,0.069 -0.0135,-0.031 -0.0203,0.011 -0.0214,0.1318 l -0.002,0.1778 0.20165,0.061 c 0.11091,0.034 0.20683,0.068 0.21317,0.076 0.006,0.01 0.0245,0.015 0.0403,0.017 0.10361,0.01 0.10722,0.012 0.0403,0.042 -0.038,0.017 -0.0943,0.058 -0.125,0.091 -0.0307,0.033 -0.064,0.061 -0.0739,0.061 -0.01,0 -0.0423,0.023 -0.072,0.052 -0.0297,0.029 -0.0809,0.073 -0.11365,0.098 -0.0756,0.058 -0.31993,0.2887 -0.36097,0.3401 -0.0287,0.036 -0.019,0.038 0.12675,0.029 0.15057,-0.01 0.15253,-0.01 0.0426,0.011 -0.0634,0.012 -0.21054,0.031 -0.32703,0.042 l -0.21181,0.021 -0.33645,0.3199 c -0.18504,0.176 -0.349,0.3219 -0.36433,0.3243 -0.0153,0 -0.0772,0.011 -0.13736,0.019 -0.12059,0.016 -0.1499,0.058 -0.0404,0.058 0.0645,0 0.0497,0.019 -0.22408,0.2823 -0.16121,0.1552 -0.42302,0.4079 -0.5818,0.5615 -0.15878,0.1536 -0.32688,0.3122 -0.37355,0.3525 l -0.0849,0.073 -0.0132,-0.099 c -0.007,-0.054 -0.0157,-0.1507 -0.0189,-0.214 -0.004,-0.089 -0.0149,-0.1168 -0.046,-0.1227 -0.023,-0 -0.0471,0.01 -0.0559,0.034 -0.008,0.023 -0.0232,0.047 -0.0325,0.054 -0.009,0.01 -0.0198,0.1205 -0.0233,0.2535 -0.004,0.133 -0.0105,0.2502 -0.0157,0.2604 -0.005,0.01 -0.0338,0 -0.0636,-0.017 -0.0361,-0.024 -0.0593,-0.027 -0.0693,-0.011 -0.01,0.016 -0.0325,0.01 -0.0646,-0.017 -0.0273,-0.023 0.0101,0.021 0.0829,0.097 0.0729,0.076 0.13252,0.149 0.13252,0.1623 0,0.013 -0.0856,0.1059 -0.19013,0.2059 -0.10457,0.1 -0.31458,0.3016 -0.46668,0.4482 -0.1521,0.1466 -0.44248,0.4181 -0.64528,0.6034 -0.2028,0.1853 -0.41496,0.3846 -0.47147,0.443 -0.0565,0.058 -0.11675,0.1062 -0.13388,0.1062 -0.0171,0 -0.0252,0.01 -0.018,0.021 0.007,0.012 -0.0155,0.043 -0.0505,0.07 -0.0562,0.043 -0.20427,0.1846 -0.85229,0.8138 -0.12791,0.1242 -0.17348,0.1558 -0.1967,0.1365 -0.0234,-0.019 -0.03,-0.014 -0.0294,0.027 5.8e-4,0.037 -0.0933,0.143 -0.32549,0.368 l -0.32629,0.3163 -0.0482,-0.061 c -0.0265,-0.034 -0.0482,-0.052 -0.0482,-0.04 0,0.012 0.0124,0.034 0.0276,0.049 0.0181,0.018 0.019,0.028 0.003,0.028 -0.0266,0 -0.0829,-0.1168 -0.0732,-0.1518 0.009,-0.034 -0.0276,-0.1247 -0.051,-0.1247 -0.0287,0 -0.0275,0.04 0.002,0.058 0.0143,0.01 0.009,0.028 -0.0126,0.05 -0.0438,0.044 -0.0314,0.091 0.0215,0.081 0.0335,-0.01 0.0349,-5e-4 0.01,0.039 -0.0174,0.028 -0.0349,0.037 -0.0439,0.022 -0.008,-0.013 -0.0204,-0 -0.0274,0.024 -0.007,0.026 -0.002,0.048 0.01,0.048 0.0123,0 0.0194,0.018 0.0157,0.04 -0.004,0.022 0.001,0.053 0.0113,0.069 0.0127,0.02 0.006,0.024 -0.0219,0.013 -0.0314,-0.012 -0.0364,-0.01 -0.0236,0.027 0.0185,0.048 -0.0691,0.158 -0.10727,0.1344 -0.0128,-0.01 -0.0168,-0 -0.009,0.01 0.0221,0.036 -0.20702,0.2389 -0.25068,0.2221 -0.0449,-0.017 -0.0792,-0.1022 -0.0792,-0.1963 0,-0.063 -0.006,-0.069 -0.0582,-0.059 -0.0605,0.011 -0.0983,-0.015 -0.0574,-0.04 0.0461,-0.028 0.0239,-0.081 -0.0342,-0.081 -0.0317,0 -0.055,-0.01 -0.0519,-0.018 0.003,-0.01 -0.0445,-0.069 -0.106,-0.1325 -0.091,-0.093 -0.10861,-0.104 -0.0948,-0.057 0.009,0.032 0.0273,0.064 0.0399,0.072 0.0126,0.01 0.0259,0.052 0.0296,0.098 0.005,0.061 -0.003,0.083 -0.0271,0.083 -0.0185,0 -0.0306,0.017 -0.0269,0.037 0.004,0.022 -0.0239,0.054 -0.0708,0.079 -0.0623,0.034 -0.0861,0.037 -0.12105,0.015 -0.0609,-0.038 -0.0438,-0.069 0.0678,-0.1234 0.008,-0 0.0225,-0.071 0.0253,-0.1173 0.001,-0.016 0.0134,-0.026 0.0277,-0.023 0.0143,0 0.03,-0 0.0349,-0.018 0.005,-0.013 -0.0263,-0.026 -0.0695,-0.029 -0.0618,-0 -0.0953,0.011 -0.15755,0.072 -0.0435,0.042 -0.093,0.072 -0.10993,0.067 -0.0206,-0.01 -0.026,0 -0.0164,0.027 0.009,0.023 0.003,0.038 -0.0167,0.038 -0.0171,0 -0.0366,-0.021 -0.0432,-0.046 -0.0154,-0.059 -0.0767,-0.059 -0.10809,-10e-4 -0.0142,0.027 -0.0383,0.04 -0.0584,0.032 -0.0188,-0.01 -0.0342,-4e-4 -0.0342,0.015 0,0.017 -0.0164,0.022 -0.0403,0.014 -0.0317,-0.011 -0.03,-0 0.008,0.027 0.0401,0.034 0.043,0.046 0.0173,0.07 -0.0456,0.043 -0.0377,0.1271 0.0151,0.16 0.0254,0.016 0.0461,0.053 0.0461,0.082 0,0.033 0.0137,0.054 0.0353,0.054 0.0243,0 0.0279,-0.01 0.0115,-0.024 -0.0465,-0.046 -0.0271,-0.059 0.0972,-0.062 0.0222,-4e-4 0.0403,-0.016 0.0403,-0.034 0,-0.018 0.0187,-0.033 0.0415,-0.033 0.0228,0 0.0539,-0.012 0.0691,-0.028 0.0215,-0.022 0.0283,-0.02 0.0304,0.01 0.001,0.018 8.8e-4,0.043 -0.001,0.055 -0.002,0.012 0.0117,0.01 0.0308,-0.01 0.0485,-0.04 0.083,-0.012 0.083,0.069 0,0.037 0.009,0.068 0.0206,0.068 0.0458,0 0.0441,0.072 -0.003,0.1152 l -0.0497,0.046 -0.0633,-0.061 -0.0633,-0.061 -0.0993,0.058 c -0.0546,0.032 -0.11747,0.055 -0.13965,0.051 -0.0222,-0 -0.0403,0 -0.0403,0.015 0,0.012 0.013,0.021 0.0288,0.021 0.0192,4e-4 0.0173,0.01 -0.006,0.023 -0.0295,0.019 -0.0287,0.022 0.006,0.023 0.0285,4e-4 0.0404,0.019 0.0407,0.064 2.9e-4,0.047 0.006,0.055 0.0214,0.03 0.0128,-0.02 0.0126,-0.049 -4.4e-4,-0.073 -0.0313,-0.058 0.0181,-0.079 0.0723,-0.03 0.0246,0.022 0.0438,0.057 0.0428,0.077 -0.001,0.024 -0.006,0.027 -0.0134,0.01 -0.006,-0.016 -0.0211,-0.029 -0.0327,-0.029 -0.0329,0 -0.0249,0.06 0.0121,0.091 0.0183,0.015 0.0364,0.049 0.0403,0.076 0.007,0.047 0.009,0.047 0.0475,0.01 0.0384,-0.039 0.0403,-0.038 0.0403,0.025 0,0.053 -0.0107,0.067 -0.0576,0.07 -0.0317,0 -0.0576,-0 -0.0576,-0.015 0,-0.036 -0.11259,-0.1413 -0.12685,-0.1182 -0.008,0.013 -0.0297,0.023 -0.0487,0.023 -0.0198,0 -0.0277,-0.011 -0.0185,-0.026 0.01,-0.015 0.004,-0.022 -0.0145,-0.016 -0.0473,0.016 -0.0509,0.056 -0.009,0.098 0.0499,0.05 0.0215,0.078 -0.0401,0.039 -0.0343,-0.021 -0.0548,-0.023 -0.0727,-0 -0.0179,0.018 -0.0149,0.025 0.0107,0.025 0.0196,0 0.0532,0.019 0.0747,0.043 0.0369,0.041 0.0365,0.044 -0.008,0.055 -0.0259,0.01 -0.047,0 -0.047,-0.01 0,-0.011 -0.0147,-0.014 -0.0327,-0.01 -0.0212,0.01 -0.0363,-0.01 -0.043,-0.041 -0.009,-0.049 -0.0105,-0.048 -0.0134,0.01 -0.005,0.094 -0.0646,0.057 -0.0646,-0.041 0,-0.044 0.009,-0.08 0.0192,-0.08 0.0106,0 0.0192,0.011 0.0192,0.025 0,0.014 0.013,0.02 0.0288,0.014 0.0158,-0.01 0.0257,-0.024 0.0218,-0.04 -0.004,-0.016 0.006,-0.039 0.023,-0.051 0.0245,-0.017 0.0245,-0.023 1.4e-4,-0.033 -0.0225,-0.01 -0.0234,-0.02 -0.004,-0.044 0.047,-0.057 0.0116,-0.083 -0.043,-0.032 -0.0349,0.032 -0.0619,0.042 -0.0803,0.028 -0.0183,-0.014 -0.0415,-0.01 -0.068,0.021 -0.0222,0.023 -0.0331,0.042 -0.0242,0.042 0.009,0 0.004,0.012 -0.0113,0.028 -0.0376,0.038 -0.097,0.044 -0.097,0.01 0,-0.015 -0.028,-0.027 -0.0623,-0.027 -0.0397,5e-4 -0.0711,-0.016 -0.0864,-0.045 -0.0247,-0.048 -0.0524,-0.057 -0.0935,-0.03 -0.0128,0.01 -0.0412,0 -0.0632,-0.014 -0.0375,-0.027 -0.0371,-0.032 0.006,-0.071 0.0355,-0.032 0.0462,-0.034 0.0475,-0.01 8.8e-4,0.018 0.01,0.012 0.0202,-0.014 0.0106,-0.026 0.009,-0.058 -0.004,-0.075 -0.0127,-0.016 -0.0145,-0.029 -0.004,-0.029 0.0104,0 0.007,-0.012 -0.009,-0.028 -0.0152,-0.015 -0.0276,-0.048 -0.0276,-0.072 0,-0.039 -0.005,-0.04 -0.0403,-0.013 -0.0328,0.025 -0.0322,0.022 0.004,-0.02 0.0381,-0.045 0.039,-0.052 0.007,-0.052 -0.0205,0 -0.0571,0.021 -0.0813,0.047 l -0.044,0.047 0.0112,-0.059 c 0.007,-0.035 5.9e-4,-0.059 -0.0145,-0.059 -0.0142,0 -0.0257,-0.026 -0.0257,-0.058 0,-0.032 0.0121,-0.058 0.0269,-0.058 0.0148,0 0.02,-0.01 0.0117,-0.015 -0.008,-0.01 -0.0375,0 -0.0648,0.029 -0.0495,0.044 -0.0495,0.044 -0.0208,-0.011 0.0281,-0.053 0.0275,-0.054 -0.0223,-0.019 -0.0281,0.02 -0.0655,0.03 -0.0831,0.024 -0.0283,-0.011 -0.0426,0.017 -0.0346,0.068 0.002,0.01 -0.008,0.017 -0.0203,0.017 -0.0345,0 -0.0278,-0.068 0.0105,-0.106 0.0423,-0.042 0.0224,-0.1 -0.0298,-0.086 -0.0516,0.014 -0.0982,0.1566 -0.0634,0.1945 0.0186,0.02 0.0169,0.023 -0.007,0.01 -0.0218,-0.012 -0.0281,-0.01 -0.0202,0.014 0.006,0.018 0.0233,0.029 0.0376,0.026 0.0143,-0 0.0259,0.011 0.0259,0.032 0,0.027 -0.0154,0.034 -0.0576,0.026 -0.053,-0.01 -0.0692,0.01 -0.0595,0.06 0.006,0.035 -0.0468,0.082 -0.0793,0.069 -0.0417,-0.016 -0.0849,0.011 -0.0661,0.042 0.01,0.016 0.0206,0.014 0.032,-0 0.0126,-0.02 0.0295,-0.021 0.0627,-0 0.0519,0.028 0.0986,-0 0.0986,-0.066 0,-0.021 0.007,-0.044 0.0146,-0.052 0.0228,-0.023 0.10068,0.028 0.10068,0.065 0,0.019 0.0104,0.034 0.023,0.034 0.0391,0 0.0257,0.042 -0.0344,0.1091 -0.0316,0.035 -0.0777,0.088 -0.10248,0.1177 -0.0494,0.059 -0.0936,0.049 -0.0936,-0.021 0,-0.025 -0.0104,-0.045 -0.023,-0.045 -0.0127,0 -0.0231,0.01 -0.0231,0.023 0,0.013 -0.0155,0.023 -0.0346,0.023 -0.0379,0 -0.0489,0.09 -0.0115,0.095 0.0461,0.01 0.0581,0.01 0.088,0.029 0.0167,0.011 0.0246,0.034 0.0175,0.053 -0.007,0.019 -0.003,0.027 0.01,0.019 0.0125,-0.01 0.0228,-0 0.0228,0.01 0,0.013 -0.0208,0.029 -0.0461,0.037 -0.0354,0.011 -0.0429,0.028 -0.0321,0.071 0.009,0.036 0.004,0.056 -0.0139,0.056 -0.0154,0 -0.0221,0.016 -0.0148,0.035 0.007,0.019 0.011,0.033 0.008,0.032 -0.003,-0 -0.022,-0.01 -0.0427,-0.013 z m 1.30715,-0.8624 c 0.002,-0.1306 -0.008,-0.1853 -0.0403,-0.232 -0.0233,-0.034 -0.0423,-0.072 -0.0423,-0.086 0,-0.028 -0.03,-0.034 -0.0536,-0.01 -0.008,0.01 0.005,0.03 0.0307,0.047 0.056,0.039 0.0598,0.074 0.007,0.066 -0.0645,-0.01 -0.0754,-0.087 -0.0228,-0.1616 0.0404,-0.057 0.0416,-0.065 0.008,-0.053 -0.0215,0.01 -0.0391,0 -0.0391,-0.01 0,-0.042 -0.0565,-0.082 -0.11053,-0.078 -0.0362,0 -0.045,-0 -0.0286,-0.02 0.0131,-0.013 0.0239,-0.038 0.0239,-0.055 0,-0.024 -0.01,-0.022 -0.0393,0.01 -0.0316,0.032 -0.0413,0.033 -0.0495,0.01 -0.0266,-0.083 -0.11856,-0.059 -0.11856,0.031 0,0.032 0.0109,0.042 0.0351,0.032 0.0283,-0.011 0.0306,-0 0.0115,0.031 -0.0323,0.06 -0.0299,0.07 0.0168,0.071 0.0222,5e-4 0.0596,0.027 0.0832,0.059 0.0425,0.058 0.0424,0.059 -0.0216,0.1261 -0.0354,0.037 -0.0772,0.067 -0.0928,0.067 -0.0156,0 -0.0338,0.013 -0.0404,0.029 -0.009,0.021 -0.0194,0.017 -0.0376,-0.012 -0.014,-0.022 -0.0329,-0.04 -0.0419,-0.04 -0.026,0 -0.14692,0.1186 -0.13404,0.1315 0.006,0.01 0.0387,-0.015 0.0717,-0.048 0.0683,-0.068 0.0922,-0.076 0.0722,-0.024 -0.009,0.024 -0.004,0.03 0.0148,0.019 0.0166,-0.01 0.0205,-0.01 0.009,0 -0.0106,0.012 -0.0312,0.021 -0.0458,0.021 -0.0146,0 -0.0301,0.018 -0.0343,0.04 -0.004,0.022 0.003,0.04 0.017,0.04 0.0136,0 0.0247,0.016 0.0247,0.037 0,0.02 0.013,0.032 0.0288,0.027 0.0158,-0 0.0257,-0.036 0.0219,-0.068 -0.009,-0.078 0.0908,-0.1511 0.13442,-0.099 0.0338,0.041 0.0915,0.044 0.0915,0.01 0,-0.021 0.006,-0.021 0.0277,0 0.0347,0.035 0.0726,0.036 0.0516,0 -0.011,-0.018 -0.001,-0.018 0.0332,10e-4 0.0269,0.014 0.0489,0.042 0.0489,0.061 0,0.019 0.0104,0.029 0.023,0.021 0.0127,-0.01 0.0231,-0 0.0231,0.01 0,0.042 -0.11098,0.028 -0.12239,-0.016 -0.006,-0.022 -0.0117,-0.01 -0.0132,0.035 -0.001,0.041 0.007,0.072 0.0187,0.069 0.0118,-0 0.0375,0.015 0.0572,0.04 0.0309,0.04 0.0389,0.041 0.0589,0.011 0.0196,-0.029 0.0232,-0.028 0.0235,0.01 1.5e-4,0.024 0.0132,0.038 0.0292,0.033 0.0193,-0.01 0.0295,-0.066 0.0308,-0.1805 z m -0.29583,0.1134 c 0.0314,0.01 0.0382,-0.04 0.0112,-0.077 -0.009,-0.013 -0.0516,-0.025 -0.094,-0.028 -0.0612,-0 -0.0743,0 -0.0634,0.031 0.008,0.02 0.0137,0.056 0.0137,0.081 0,0.04 0.006,0.042 0.0519,0.016 0.0285,-0.016 0.0648,-0.026 0.0807,-0.023 z m -0.9188,-0.2439 c -0.008,-0.048 0.0128,-0.08 0.12913,-0.2048 0.0948,-0.1014 0.13144,-0.1275 0.14659,-0.1044 0.0163,0.025 0.0229,0.024 0.0342,-0.01 0.008,-0.02 0.0305,-0.037 0.0507,-0.037 0.0202,0 0.0302,0.01 0.0224,0.023 -0.008,0.013 -0.004,0.023 0.008,0.023 0.0124,0 0.0271,-0.013 0.0328,-0.029 0.006,-0.016 0.0187,-0.021 0.029,-0.011 0.0103,0.01 -1.5e-4,0.031 -0.0234,0.048 -0.0659,0.048 -0.0221,0.091 0.0469,0.046 0.0447,-0.029 0.0635,-0.031 0.09,-0.01 0.0263,0.022 0.0437,0.021 0.0815,-0.01 0.0469,-0.033 0.047,-0.034 0.003,-0.045 -0.0248,-0.01 -0.0554,-0 -0.0681,0.011 -0.0153,0.015 -0.0462,-0.018 -0.0925,-0.099 l -0.0695,-0.1217 0.0816,-0.1 c 0.0449,-0.055 0.0909,-0.094 0.1021,-0.087 0.0113,0.01 0.0205,-0 0.0205,-0.02 0,-0.018 0.0205,-0.042 0.0455,-0.053 0.0339,-0.015 0.0397,-0.03 0.0229,-0.055 -0.0185,-0.028 -0.0412,-0.014 -0.12528,0.081 -0.0706,0.079 -0.10299,0.1026 -0.1036,0.075 -4.4e-4,-0.022 -0.01,-0.04 -0.0202,-0.04 -0.0106,0 -0.0319,-0.028 -0.0472,-0.061 -0.0223,-0.049 -0.0334,-0.055 -0.0555,-0.032 -0.0216,0.023 -0.0214,0.032 10e-4,0.04 0.0402,0.015 0.0361,0.053 -0.006,0.053 -0.019,0 -0.0346,0.01 -0.0346,0.019 0,0.011 -0.0269,0.032 -0.0599,0.047 -0.0394,0.018 -0.0553,0.039 -0.0464,0.062 0.008,0.02 0.004,0.029 -0.009,0.021 -0.0125,-0.01 -0.0228,0.01 -0.0228,0.033 0,0.038 0.0148,0.048 0.0749,0.048 0.11279,4e-4 0.14386,0.028 0.10823,0.094 -0.0273,0.051 -0.03,0.052 -0.0446,0.01 -0.014,-0.04 -0.0233,-0.036 -0.0943,0.041 -0.0434,0.047 -0.10293,0.1161 -0.13241,0.1542 -0.0295,0.038 -0.0736,0.069 -0.0979,0.069 -0.0749,0 -0.0593,0.1118 0.019,0.1365 0.003,10e-4 0.004,-0.01 0.003,-0.016 z m -0.3433,-0.143 c 0.0681,-0.052 0.0621,-0.062 -0.0515,-0.079 -0.0808,-0.013 -0.0864,-0.01 -0.0864,0.045 0,0.033 0.01,0.053 0.0231,0.045 0.0127,-0.01 0.023,-0 0.023,0.01 0,0.035 0.0268,0.029 0.0918,-0.021 z m 1.53073,-0.1518 c -0.009,-0.048 0.001,-0.063 0.0568,-0.082 0.0371,-0.013 0.0729,-0.044 0.0795,-0.069 0.0107,-0.041 0.0179,-0.043 0.0652,-0.016 0.0293,0.017 0.0643,0.044 0.0779,0.061 0.0204,0.026 0.03,0.024 0.0551,-0.01 0.0167,-0.02 0.0447,-0.037 0.0622,-0.037 0.0175,0 0.0317,-0.016 0.0317,-0.035 0,-0.046 -0.0226,-0.044 -0.0601,0.01 -0.0187,0.025 -0.0309,0.029 -0.0314,0.012 -4.4e-4,-0.016 -0.03,-0.029 -0.0685,-0.029 -0.0373,0 -0.0743,-0.011 -0.0823,-0.024 -0.008,-0.014 -0.0327,-0 -0.0586,0.029 l -0.044,0.052 -0.0145,-0.052 c -0.008,-0.028 -0.0242,-0.046 -0.0359,-0.038 -0.0118,0.01 -0.0148,0.034 -0.007,0.059 0.009,0.029 -0.001,0.064 -0.0294,0.096 -0.0383,0.043 -0.045,0.068 -0.0324,0.119 0.002,0.01 0.0126,0.012 0.0244,0.012 0.0118,0 0.0167,-0.026 0.0109,-0.059 z m 1.29951,-0 c -0.0167,-0.02 -0.0158,-0.039 0.003,-0.061 0.0207,-0.025 0.0205,-0.037 -7.4e-4,-0.05 -0.0176,-0.011 -0.0217,-0.01 -0.0113,0.01 0.0268,0.043 -0.10344,0.032 -0.15545,-0.014 -0.0415,-0.036 -0.0447,-0.037 -0.0321,-0 0.009,0.024 -9e-5,0.044 -0.0223,0.052 -0.0324,0.012 -0.0321,0.019 0.003,0.058 0.0473,0.052 0.2587,0.059 0.21543,0.01 z m -2.69162,-0.058 c 0,-0.013 0.006,-0.018 0.0143,-0.01 0.0457,0.046 0.0875,-0.1211 0.0536,-0.214 -0.002,-0.01 -0.003,-0.019 -0.002,-0.029 0.002,-0.01 -0.009,-0.017 -0.0228,-0.017 -0.0157,0 -0.02,-0.022 -0.0111,-0.058 0.0112,-0.045 0.006,-0.058 -0.0251,-0.058 -0.0296,0 -0.033,-0.01 -0.0134,-0.026 0.0283,-0.028 -0.0135,-0.089 -0.0614,-0.089 -0.0311,0 -0.0323,0.039 -0.002,0.058 0.0127,0.01 0.023,0.025 0.023,0.037 0,0.013 -0.0115,0.016 -0.0256,0.01 -0.0312,-0.019 -0.12999,0.09 -0.17349,0.1916 -0.0176,0.041 -0.0448,0.072 -0.0605,0.069 -0.017,-0 -0.0253,0.013 -0.0206,0.04 0.0104,0.06 0.0143,0.063 0.084,0.063 0.0326,0 0.0688,0.018 0.0804,0.039 0.0151,0.028 0.0412,0.036 0.0914,0.029 0.0387,-0.01 0.0704,-0.021 0.0704,-0.035 z m -0.0691,-0.1076 c 0,-0.014 -0.0259,-0.037 -0.0576,-0.052 -0.0693,-0.032 -0.0757,-0.1022 -0.0112,-0.1227 0.0255,-0.01 0.0409,-0.024 0.0342,-0.034 -0.007,-0.011 -0.002,-0.026 0.0112,-0.034 0.0222,-0.014 0.0273,-0 0.0326,0.063 0.001,0.016 0.0211,0.048 0.044,0.071 0.023,0.023 0.0384,0.059 0.0343,0.08 -0.008,0.043 -0.0876,0.069 -0.0876,0.029 z m 4.76322,-1.4722 c 0.0186,-0.019 0.029,-0.053 0.023,-0.075 -0.006,-0.023 0.001,-0.047 0.0155,-0.053 0.0145,-0.01 0.003,-0.018 -0.0255,-0.027 -0.0285,-0.01 -0.0519,-0.024 -0.0519,-0.034 0,-0.01 -0.0207,-0.013 -0.0461,-0.01 -0.0447,0.012 -0.0556,0.033 -0.0478,0.093 0.002,0.016 -0.0149,0.029 -0.0376,0.03 -0.0358,0 -0.035,0 0.006,0.02 0.0258,0.01 0.0621,0.037 0.0807,0.06 0.028,0.034 0.0284,0.043 0.002,0.052 -0.0265,0.01 -0.0265,0.014 0,0.03 0.0212,0.013 0.0341,0.01 0.0397,-0.018 0.004,-0.021 0.0235,-0.053 0.0421,-0.072 z m 2.08136,-2.3892 c -0.0158,-0.019 -0.0208,-0.035 -0.0112,-0.035 0.0231,0 -0.0953,-0.118 -0.11974,-0.1194 -0.0104,-4e-4 -0.0583,-0.032 -0.10643,-0.07 l -0.0876,-0.069 0.0162,0.065 c 0.0225,0.09 0.12507,0.1998 0.174,0.187 0.0218,-0.01 0.0453,0 0.0524,0.023 0.007,0.018 0.0226,0.028 0.0345,0.02 0.0119,-0.01 0.0281,-0 0.0361,0.01 0.008,0.013 0.0203,0.023 0.0275,0.023 0.007,0 0,-0.016 -0.0157,-0.035 z m 2.67331,-2.1013 c 0,-0.02 -0.0658,-0.076 -0.089,-0.076 -0.0127,0 -0.0443,-0.03 -0.0702,-0.066 -0.0422,-0.059 -0.17497,-0.1144 -0.20443,-0.085 -0.006,0.01 0.0369,0.066 0.0948,0.1339 0.0966,0.1131 0.11223,0.1226 0.18709,0.1138 0.0449,-0 0.0817,-0.014 0.0817,-0.02 z m 0.40699,-1.7999 c -0.0434,-0.098 -0.0972,-0.2275 -0.11959,-0.2881 -0.0224,-0.061 -0.0496,-0.1157 -0.0604,-0.1223 -0.0432,-0.027 -0.0157,0.1614 0.0499,0.341 0.0382,0.1048 0.0643,0.2041 0.0579,0.2208 -0.007,0.018 -0.001,0.024 0.0136,0.015 0.0171,-0.01 0.0199,10e-4 0.009,0.036 -0.0123,0.039 -0.009,0.047 0.013,0.034 0.0209,-0.013 0.0252,-0.01 0.0147,0.02 -0.008,0.021 -0.004,0.038 0.009,0.038 0.013,0 0.0178,0.01 0.0107,0.021 -0.007,0.012 -0.003,0.024 0.01,0.029 0.0208,0.01 0.0333,0.049 0.0499,0.1691 0.004,0.025 0.01,-0.04 0.0142,-0.1448 0.007,-0.1761 0.002,-0.2048 -0.0711,-0.3688 z m -10.37508,9.099 c -0.0473,-0.019 -0.1215,-0.093 -0.0934,-0.093 0.008,0 0.004,-0.02 -0.009,-0.046 -0.0199,-0.037 -0.0179,-0.043 0.0107,-0.032 0.0193,0.01 0.0351,0.024 0.0351,0.037 0,0.013 0.013,0.018 0.0288,0.012 0.016,-0.01 0.0465,0.024 0.0687,0.067 0.0415,0.081 0.037,0.087 -0.0406,0.056 z m -0.0826,-0.3595 c -0.001,-0.025 -0.001,-0.053 0,-0.062 0.002,-0.01 -0.008,-0.017 -0.0203,-0.017 -0.0127,0 -0.023,-0.017 -0.023,-0.037 0,-0.024 0.0125,-0.032 0.0365,-0.023 0.02,0.01 0.0512,0.014 0.0691,0.014 0.018,0 0.0327,0.014 0.0327,0.031 0,0.017 0.0233,0.042 0.0519,0.056 0.0496,0.024 0.0489,0.025 -0.0184,0.027 -0.0387,10e-4 -0.0827,0.014 -0.0979,0.029 -0.0215,0.022 -0.0283,0.018 -0.0304,-0.017 z m -5.38909,-0.1239 c -0.0209,-0.039 -0.0207,-0.058 7.3e-4,-0.084 0.0311,-0.037 0.023,-0.051 -0.0531,-0.088 -0.0493,-0.024 -0.11222,-0.1357 -0.47241,-0.8387 -0.0926,-0.1806 -0.10431,-0.2174 -0.0752,-0.2358 0.0599,-0.038 0.0858,-0.025 0.10287,0.052 0.009,0.041 0.0217,0.062 0.0279,0.046 0.006,-0.016 0.0224,-0.022 0.036,-0.014 0.0136,0.01 0.018,0 0.01,-0.01 -0.0221,-0.036 0.0416,-0.078 0.0912,-0.061 0.0294,0.01 0.0358,0.01 0.0202,-0.01 -0.0127,-0.013 -0.0645,-0.037 -0.11522,-0.052 -0.0507,-0.016 -0.11001,-0.044 -0.13179,-0.063 -0.0353,-0.031 -0.0359,-0.04 -0.006,-0.083 0.0457,-0.065 0.0432,-0.073 -0.024,-0.073 -0.036,0 -0.0538,0.011 -0.0471,0.028 0.006,0.016 0.002,0.034 -0.009,0.04 -0.0108,0.01 -0.0265,-0.01 -0.0348,-0.027 -0.0104,-0.027 0.004,-0.053 0.0437,-0.082 0.0706,-0.051 0.0743,-0.087 0.0136,-0.1306 -0.0338,-0.024 -0.0389,-0.04 -0.0202,-0.063 0.0312,-0.038 -0.008,-0.04 -0.0448,-0 -0.015,0.015 -0.0333,0.021 -0.0408,0.014 -0.0231,-0.023 -0.0838,-0.4149 -0.073,-0.4714 0.006,-0.029 0.003,-0.054 -0.006,-0.054 -0.009,0 -0.0236,-0.08 -0.0321,-0.1786 -0.008,-0.098 -0.0213,-0.2257 -0.0286,-0.2833 -0.0121,-0.096 -0.008,-0.1069 0.0468,-0.132 0.0774,-0.035 0.0762,-0.065 -0.003,-0.081 -0.0488,-0.01 -0.0634,-0.026 -0.0634,-0.07 0,-0.032 0.005,-0.057 0.0115,-0.057 0.0638,0 0.0922,-0.011 0.0922,-0.051 0,-0.05 -0.0449,-0.061 -0.0852,-0.021 -0.0296,0.03 -0.0557,-0.062 -0.0538,-0.1886 6.5e-4,-0.043 -0.004,-0.115 -0.0108,-0.1594 -0.0511,-0.3443 -0.15914,-2.3728 -0.20561,-3.8601 -0.057,-1.8249 -0.0717,-3.1931 -0.0345,-3.2161 0.0179,-0.011 0.0438,-0.01 0.0608,0 0.038,0.032 0.0387,-0.01 7.5e-4,-0.049 -0.0237,-0.025 -0.0166,-0.028 0.0403,-0.016 0.0549,0.012 0.0608,0.01 0.0288,-0.01 -0.0492,-0.03 -0.0539,-0.078 -0.006,-0.06 0.0309,0.012 0.0451,-0.011 0.0373,-0.06 -0.001,-0.01 0.008,-0.017 0.0203,-0.017 0.0127,0 0.023,-0.011 0.023,-0.025 0,-0.014 -0.0182,-0.021 -0.0403,-0.016 -0.0222,0 -0.0373,0.023 -0.0336,0.039 0.005,0.021 -0.0115,0.027 -0.0536,0.019 -0.054,-0.01 -0.0589,-0.01 -0.0466,0.043 0.008,0.032 0.004,0.055 -0.0111,0.055 -0.0137,0 -0.0174,0.012 -0.008,0.027 0.0104,0.017 0.006,0.02 -0.0113,0.01 -0.0202,-0.013 -0.0209,-0.025 -0.003,-0.047 0.0183,-0.022 0.0177,-0.033 -0.002,-0.039 -0.0195,-0.01 -0.0156,-0.027 0.0135,-0.072 0.0361,-0.055 0.0365,-0.061 0.003,-0.048 -0.0206,0.01 -0.038,0.011 -0.0386,0.01 -6.5e-4,-0 -0.007,-0.073 -0.0139,-0.1524 -0.0117,-0.1328 -0.009,-0.1431 0.03,-0.1308 0.0397,0.013 0.0398,0.012 0.002,-0.013 -0.0422,-0.027 -0.057,-0.1022 -0.0175,-0.089 0.0386,0.013 1.05909,1.296 1.0601,1.3328 0.001,0.038 0.14823,1.5318 0.24182,2.4544 0.0321,0.3169 0.0842,0.851 0.1156,1.1869 0.0314,0.3359 0.088,0.927 0.12576,1.3136 0.0377,0.3866 0.0738,0.7858 0.0802,0.8872 0.006,0.1014 0.0897,1.0037 0.18514,2.005 0.0954,1.0014 0.17268,1.8362 0.17169,1.8552 -0.001,0.026 -0.005,0.027 -0.014,0 -0.009,-0.023 -0.0263,-0.017 -0.0675,0.022 -0.0544,0.051 -0.0559,0.051 -0.0914,0.01 -0.0199,-0.024 -0.0296,-0.032 -0.0215,-0.016 0.008,0.017 2.9e-4,0.029 -0.0192,0.029 -0.0224,0 -0.0297,0.016 -0.0217,0.046 0.0284,0.1085 -0.0941,0 -0.13603,-0.118 -0.0284,-0.082 -0.0647,-0.087 -0.0647,-0.01 0,0.036 0.0131,0.058 0.0346,0.058 0.0498,0 0.0448,0.1089 -0.006,0.1246 -0.0222,0.01 -0.10255,0.014 -0.1786,0.016 -0.076,0 -0.14494,0.014 -0.15309,0.027 -0.008,0.013 -0.027,0 -0.0419,-0.028 z m 8.3932,-0.3544 c -0.0283,-0.013 -0.0515,-0.033 -0.0515,-0.045 0,-0.012 -0.0251,-0.016 -0.0558,-0.01 -0.0611,0.015 -0.12858,-0 -0.12858,-0.034 0,-0.011 0.0259,-0.01 0.0576,0 0.0341,0.013 0.0576,0.013 0.0576,10e-4 0,-0.026 0.16976,-0 0.18052,0.026 0.004,0.011 0.0224,0.019 0.0403,0.019 0.018,0 0.0327,0.01 0.0327,0.02 0,0.033 -0.077,0.044 -0.13284,0.019 z m 7.35923,-21.58961 c -0.0994,-0.15423 -0.47206,-0.65593 -0.62277,-0.83837 -0.51951,-0.62886 -0.53484,-0.64608 -0.99187,-1.11398 -0.39234,-0.40167 -0.87336,-0.84412 -1.24458,-1.14478 -0.1521,-0.1232 -0.28,-0.23316 -0.28423,-0.24437 -0.004,-0.0112 -0.0207,-0.0204 -0.0365,-0.0204 -0.0158,0 -0.0591,-0.0308 -0.096,-0.0685 -0.037,-0.0377 -0.0763,-0.0688 -0.0874,-0.0691 -0.0111,-4.4e-4 -0.0889,-0.0507 -0.17284,-0.11179 -0.23565,-0.17162 -0.40151,-0.27917 -0.75181,-0.48747 -1.88172,-1.11895 -3.77542,-1.53145 -5.72021,-1.24602 -1.33437,0.19585 -2.65789,0.72419 -4.01661,1.60341 -0.20444,0.1323 -0.78956,0.54618 -0.88473,0.62583 -0.0366,0.0307 -0.0797,0.0507 -0.0958,0.0446 -0.0369,-0.0142 -0.64827,-0.46623 -0.71201,-0.52646 -0.0261,-0.0247 -0.0786,-0.061 -0.1166,-0.0808 -0.038,-0.0198 -0.0996,-0.0655 -0.13689,-0.10175 -0.0373,-0.0362 -0.0808,-0.0658 -0.0968,-0.0658 -0.016,0 -0.0373,-0.0139 -0.0475,-0.0309 -0.0101,-0.017 -0.0495,-0.0506 -0.0876,-0.0746 -0.038,-0.024 -0.0805,-0.0544 -0.0943,-0.0675 -0.0139,-0.0131 -0.20831,-0.15718 -0.43211,-0.32013 -0.2238,-0.16295 -0.4069,-0.30458 -0.4069,-0.31472 0,-0.0101 0.0155,-0.034 0.0346,-0.053 0.0451,-0.0451 0.0457,-0.15309 8e-4,-0.15309 -0.0186,0 -0.0449,0.0207 -0.0584,0.0461 -0.0378,0.0706 -0.0833,0.0561 -0.19852,-0.0634 -0.0581,-0.0602 -0.11569,-0.10661 -0.12808,-0.10313 -0.0124,0.004 -0.0169,-0.003 -0.01,-0.0139 0.0159,-0.0258 -0.0878,-0.12493 -0.10875,-0.104 -0.009,0.009 -0.0156,-0.003 -0.0156,-0.0242 0,-0.0219 -0.0104,-0.0334 -0.0231,-0.0256 -0.0127,0.008 -0.023,-0.002 -0.023,-0.023 0,-0.0205 -0.0104,-0.0309 -0.023,-0.023 -0.0127,0.008 -0.023,-0.003 -0.023,-0.0224 0,-0.0202 -0.0233,-0.046 -0.0519,-0.0575 -0.0285,-0.0114 -0.0437,-0.0215 -0.0337,-0.0223 0.01,-10e-4 -0.004,-0.0248 -0.0301,-0.0533 -0.0266,-0.0285 -0.0542,-0.0486 -0.0614,-0.0446 -0.007,0.004 -0.0256,-0.0168 -0.0409,-0.0461 -0.0153,-0.0293 -0.0407,-0.0505 -0.0564,-0.047 -0.0157,0.004 -0.0221,-0.005 -0.014,-0.0173 0.008,-0.013 -0.01,-0.0329 -0.0396,-0.0443 -0.0577,-0.0219 -0.10472,-0.0682 -0.10795,-0.10607 -0.001,-0.0127 -0.0119,-0.023 -0.024,-0.023 -0.0121,0 -0.0366,-0.0199 -0.0544,-0.0443 -0.0326,-0.0446 -0.10788,-0.0707 -0.10788,-0.0375 0,0.01 -0.0468,0.0243 -0.10403,0.0321 -0.0927,0.0127 -0.11486,0.006 -0.20363,-0.0602 -0.0548,-0.041 -0.22515,-0.16597 -0.37858,-0.27779 -0.17688,-0.12889 -0.27465,-0.21458 -0.26714,-0.23414 0.007,-0.017 -0.005,-0.0634 -0.0256,-0.10322 -0.0206,-0.0398 -0.031,-0.0926 -0.0232,-0.1173 0.008,-0.0247 0.004,-0.0449 -0.009,-0.0449 -0.0129,0 -0.0305,-0.0622 -0.0391,-0.13828 -0.009,-0.0761 -0.0236,-0.13827 -0.0332,-0.13827 -0.0302,0 -0.0464,0.0706 -0.0255,0.11114 0.029,0.0563 0.0549,0.28664 0.0312,0.27716 -0.0111,-0.005 -0.0816,-0.0525 -0.15666,-0.1069 -0.0751,-0.0544 -0.23247,-0.16637 -0.34972,-0.24889 l -0.21317,-0.15003 0,-0.12425 c 0,-0.12676 -0.0316,-0.18605 -0.0568,-0.10664 -0.008,0.0242 -0.012,0.0529 -0.01,0.0637 0.002,0.0109 -0.002,0.0352 -0.009,0.0542 -0.007,0.019 -0.0168,0.0476 -0.021,0.0635 -0.005,0.0196 -0.0362,0.009 -0.096,-0.0339 -0.0486,-0.0346 -0.0771,-0.0666 -0.0633,-0.0712 0.0251,-0.008 0.0361,-0.0736 0.0124,-0.0736 -0.007,0 -0.0413,0.0148 -0.0763,0.0329 -0.0611,0.0316 -0.0694,0.0286 -0.20582,-0.0749 -0.0782,-0.0593 -0.20717,-0.15427 -0.28664,-0.21102 -0.0795,-0.0568 -0.26482,-0.19158 -0.41191,-0.29959 -0.81215,-0.59645 -0.786,-0.57926 -0.85713,-0.56364 -0.0574,0.0126 -0.0652,0.009 -0.0547,-0.0279 0.0137,-0.048 -0.0268,-0.0823 -0.54821,-0.46392 -0.31463,-0.23029 -0.32462,-0.24023 -0.35922,-0.35709 -0.0454,-0.15337 -0.10807,-0.17695 -0.11857,-0.0446 l -0.007,0.0902 -0.48331,-0.35379 c -0.26582,-0.19459 -0.49656,-0.3538 -0.51277,-0.3538 -0.0162,0 -0.0308,0.0129 -0.0325,0.0288 -0.002,0.0159 -0.009,-0.007 -0.0173,-0.0516 -0.0134,-0.0755 -0.10222,-0.14468 -1.45376,-1.13246 -0.79173,-0.57864 -1.44305,-1.0627 -1.44739,-1.0757 -0.0136,-0.0408 1.1697,-0.80571 2.05149,-1.32624 0.242,-0.14285 0.33993,-0.21287 0.33993,-0.24306 0,-0.0351 0.0491,-0.0546 0.28331,-0.11276 0.23343,-0.058 0.33183,-0.097 0.55886,-0.2219 0.22302,-0.12265 0.2951,-0.15154 0.3781,-0.15157 0.0798,-2e-5 0.0964,0.006 0.0749,0.0276 -0.0365,0.0365 -0.0353,0.0876 0.002,0.0876 0.0163,0 0.0689,-0.02 0.11677,-0.0444 0.0581,-0.0296 0.11282,-0.0402 0.16435,-0.0319 0.0865,0.0141 0.54188,-0.0591 0.54188,-0.087 0,-0.01 0.0233,-0.0224 0.0519,-0.0279 0.0302,-0.006 0.0134,-0.0114 -0.0403,-0.0135 -0.1679,-0.006 -0.16071,-0.034 0.037,-0.14241 0.2083,-0.11415 0.41042,-0.22635 0.60999,-0.33858 0.0733,-0.0412 0.15381,-0.0749 0.17902,-0.0749 0.0252,0 0.0394,-0.006 0.0316,-0.0142 -0.008,-0.008 8e-4,-0.0293 0.0192,-0.0477 0.0402,-0.0402 0.0425,-0.0969 0.007,-0.18424 -0.0349,-0.087 -0.17972,-0.59272 -0.17191,-0.60053 0.003,-0.004 0.0467,0.0689 0.0963,0.16072 0.0496,0.0918 0.10771,0.17028 0.12918,0.17441 0.0546,0.0105 0.45643,-0.17985 0.45643,-0.21624 0,-0.02 0.0522,-0.035 0.15858,-0.0455 0.21318,-0.021 0.22529,-0.0301 0.19119,-0.14394 -0.015,-0.0502 -0.0429,-0.10413 -0.0618,-0.11986 -0.019,-0.0157 -0.0345,-0.0526 -0.0345,-0.0819 0,-0.0484 0.008,-0.0522 0.0864,-0.0413 0.0475,0.007 0.10198,0.0184 0.121,0.0262 0.019,0.008 0.0605,0.0168 0.0922,0.0201 0.0317,0.004 0.0904,0.0127 0.13046,0.0208 0.0933,0.0189 0.13261,-0.0368 0.16882,-0.2395 0.0143,-0.0803 0.0348,-0.16842 0.0456,-0.19589 0.0107,-0.0275 0.0328,-0.11065 0.049,-0.18482 0.0274,-0.12546 0.0698,-0.18121 0.10841,-0.14262 0.0206,0.0206 0.025,0.35814 0.005,0.35814 -0.0137,0 -0.0691,0.20461 -0.0691,0.25526 0,0.0117 0.0143,0.0213 0.0318,0.0213 0.0175,0 0.0464,0.0221 0.0644,0.0491 0.0248,0.0374 0.0454,0.0451 0.0859,0.0323 0.0454,-0.0144 0.0511,-0.0276 0.0388,-0.0892 -0.008,-0.0398 -0.0352,-0.11205 -0.0605,-0.16067 l -0.0461,-0.0884 0.0524,-0.0437 c 0.0288,-0.024 0.0635,-0.044 0.0772,-0.0444 0.0137,-4.4e-4 0.15369,-0.0513 0.31112,-0.11305 0.39178,-0.15368 0.39141,-0.1552 -0.0907,-0.37534 -0.11856,-0.0541 -0.20377,-0.10237 -0.18935,-0.10718 0.0144,-0.005 0.0388,10e-4 0.0542,0.0134 0.0154,0.0122 0.13174,0.056 0.25849,0.0974 0.12675,0.0414 0.24083,0.0831 0.2535,0.0927 0.0127,0.01 0.12564,0.0501 0.25104,0.0901 l 0.22799,0.0727 0.14475,-0.0559 c 0.14355,-0.0555 0.14534,-0.0556 0.2162,-0.0125 0.0948,0.0576 0.18556,0.0577 0.18556,1.4e-4 0,-0.0238 -0.0156,-0.0562 -0.0346,-0.072 -0.0496,-0.0412 -0.0426,-0.0691 0.0173,-0.0695 0.0528,-4.3e-4 0.10268,-0.0241 0.20923,-0.0997 0.0329,-0.0233 0.13017,-0.0661 0.21622,-0.095 0.0983,-0.0331 0.15926,-0.0668 0.16401,-0.0907 0.009,-0.044 -0.0829,-0.24435 -0.11177,-0.24435 -0.0107,0 -0.0267,-0.0233 -0.0356,-0.0519 -0.009,-0.0285 -0.0603,-0.12045 -0.11431,-0.20431 -0.054,-0.0838 -0.11137,-0.17719 -0.12748,-0.20741 -0.0271,-0.0508 -0.0263,-0.0525 0.0106,-0.0221 0.0219,0.0181 0.0561,0.0648 0.076,0.1037 0.0199,0.0389 0.0503,0.0791 0.0676,0.0893 0.0173,0.0101 0.0315,0.0291 0.0315,0.0422 0,0.0217 0.18308,0.28637 0.35656,0.51551 0.0384,0.0507 0.0813,0.11292 0.0953,0.13828 0.0274,0.0495 0.1114,0.0653 0.49662,0.0931 0.17043,0.0123 0.20114,0.0208 0.21102,0.0586 0.0161,0.0617 0.0496,0.0551 0.0821,-0.0163 0.0251,-0.0552 0.0366,-0.0595 0.13003,-0.049 0.0563,0.006 0.0969,0.003 0.09,-0.009 -0.007,-0.0111 -0.0493,-0.0202 -0.0943,-0.0202 -0.0773,0 -0.0809,-0.004 -0.0662,-0.0621 0.04,-0.15945 0.0767,-0.21114 0.16965,-0.23898 0.0776,-0.0233 0.0998,-0.0217 0.14519,0.01 0.0774,0.0542 0.14011,0.0491 0.13117,-0.0107 -0.008,-0.0523 -0.0145,-0.0493 0.37642,-0.16789 0.1096,-0.0332 0.20647,-0.0604 0.21527,-0.0604 0.009,0 -0.0601,0.0631 -0.15318,0.1403 -0.22952,0.19035 -0.27247,0.23789 -0.24908,0.27574 0.0106,0.0171 0.0145,0.0389 0.009,0.0484 -0.006,0.009 0.0104,0.0285 0.0361,0.0423 0.0541,0.029 0.063,-0.004 0.0124,-0.0455 -0.0393,-0.0327 -0.0256,-0.0693 0.026,-0.0693 0.0193,0 0.16444,-0.10111 0.3226,-0.2247 0.25864,-0.2021 0.28638,-0.23073 0.27596,-0.28468 -0.0109,-0.0565 -0.004,-0.0617 0.11968,-0.0894 0.0722,-0.0162 0.14427,-0.0344 0.16018,-0.0404 0.0179,-0.007 0.0531,0.0424 0.0922,0.12893 0.0444,0.0983 0.0762,0.14025 0.10661,0.14079 0.0377,4.4e-4 0.0412,-0.0104 0.0268,-0.0857 -0.0334,-0.17431 -0.0361,-0.16974 0.12577,-0.21488 0.0824,-0.023 0.25254,-0.0639 0.37811,-0.091 0.12558,-0.0271 0.25521,-0.0664 0.28807,-0.0873 0.0711,-0.0453 1.31739,-0.93112 1.42522,-1.01304 0.0412,-0.0313 0.0749,-0.052 0.0749,-0.046 0,0.006 -0.14259,0.11833 -0.31688,0.24958 -0.41909,0.31564 -0.51277,0.39413 -0.51277,0.42967 0,0.0392 0.0242,0.0379 0.30139,-0.0168 0.1296,-0.0255 0.24185,-0.0397 0.24944,-0.0314 0.008,0.008 0.001,0.0196 -0.0146,0.0252 -0.0339,0.0122 -0.1567,0.1897 -0.17835,0.25793 -0.01,0.0305 -0.005,0.0483 0.012,0.0483 0.028,0 0.0889,-0.059 0.33654,-0.32628 l 0.1418,-0.15302 0.20964,-0.0287 c 0.11531,-0.0158 0.20955,-0.0349 0.20943,-0.0427 -9e-5,-0.008 -0.026,-0.11541 -0.0576,-0.23935 -0.0587,-0.23027 -0.0748,-0.3606 -0.0362,-0.29319 0.0109,0.019 0.0733,0.18494 0.13878,0.36873 0.0655,0.18379 0.13143,0.34673 0.14662,0.36208 0.0204,0.0206 0.0667,0.0224 0.1774,0.007 0.17529,-0.0246 0.50688,-0.0588 1.03706,-0.10682 0.20914,-0.019 0.74102,-0.0405 1.18195,-0.0478 0.52923,-0.009 0.79903,-0.0213 0.79385,-0.0368 -0.004,-0.0129 0.0264,-0.0607 0.0682,-0.10627 0.0418,-0.0455 0.0761,-0.092 0.0761,-0.10325 1.4e-4,-0.0262 0.0724,-0.0815 0.10755,-0.0825 0.0147,-4.4e-4 0.0335,0.0434 0.0416,0.0972 0.008,0.0539 0.0254,0.15239 0.0382,0.21894 l 0.0234,0.12099 0.21154,0.003 c 0.11635,0.002 0.27694,0.009 0.35687,0.0173 l 0.14533,0.0146 -0.23175,0.13549 c -0.21379,0.12499 -0.28602,0.19867 -0.19475,0.19867 0.0204,0 0.19925,-0.0891 0.39754,-0.19809 l 0.36054,-0.19809 0.17284,0.0126 c 0.24597,0.018 0.69159,0.0826 0.76571,0.11105 0.0472,0.0181 0.0665,0.045 0.0778,0.108 0.008,0.0461 0.0285,0.0994 0.045,0.11843 0.0317,0.0365 0.0333,0.0421 0.0333,0.11523 0,0.0253 0.0112,0.0461 0.0248,0.0461 0.0136,0 0.0229,-0.0285 0.0206,-0.0634 -0.007,-0.1097 -1.5e-4,-0.14405 0.0295,-0.14375 0.03,3e-4 0.13253,0.0517 0.50124,0.25135 0.12042,0.0652 0.25783,0.13534 0.30536,0.15587 0.0475,0.0205 0.0864,0.0524 0.0864,0.0708 0,0.0416 0.0779,0.0324 0.41482,-0.0492 0.1395,-0.0338 0.24524,-0.0492 0.24966,-0.0364 0.0117,0.0337 0.0868,0.0264 0.11828,-0.0115 0.0242,-0.0292 0.0483,-0.026 0.18142,0.0237 0.0844,0.0315 0.16505,0.0726 0.17912,0.0912 0.0141,0.0186 0.0465,0.0339 0.0721,0.0339 0.12604,0 1.07242,0.485 1.55587,0.79735 0.15465,0.0999 0.15555,0.10111 0.15555,0.20572 l 0,0.10521 0.0864,-0.0159 c 0.0475,-0.009 0.0916,-0.0238 0.098,-0.0335 0.006,-0.01 0.1308,0.0754 0.27655,0.18908 0.22291,0.17381 0.26395,0.21556 0.25837,0.26286 -0.006,0.0477 0.003,0.0563 0.0576,0.0566 0.0495,2.9e-4 0.12905,0.0599 0.34618,0.25926 0.15506,0.14238 0.29713,0.2806 0.31569,0.30716 0.0186,0.0265 0.0478,0.12508 0.065,0.21894 0.0262,0.1429 0.0386,0.17063 0.0761,0.17063 0.0246,0 0.0518,0.01 0.0604,0.0217 0.01,0.0134 0.0381,0.0115 0.0739,-0.005 0.0534,-0.0243 0.0649,-0.0188 0.13745,0.0659 0.055,0.0642 0.0753,0.10723 0.0666,0.1407 -0.0109,0.0416 -0.004,0.0466 0.0472,0.0368 0.0526,-0.01 0.0814,0.0149 0.23979,0.20824 0.099,0.12082 0.2163,0.26795 0.26066,0.32694 0.0444,0.059 0.11518,0.15304 0.15736,0.20897 l 0.0767,0.10171 -0.14007,0.007 c -0.0982,0.005 -0.14007,0.0161 -0.14007,0.0377 0,0.0306 0.0414,0.0397 0.32783,0.0723 l 0.13194,0.015 0.22405,0.34311 c 0.12323,0.1887 0.23497,0.34354 0.24831,0.34407 0.0133,4.4e-4 0.0554,0.0646 0.0934,0.14229 0.038,0.0777 0.091,0.16802 0.1177,0.20067 0.1066,0.13033 0.5852,1.05496 0.5852,1.13058 0,0.0558 0.0145,0.0583 0.062,0.0108 0.0731,-0.0731 0.0543,-0.009 -0.0369,0.12481 -0.094,0.13848 -0.0943,0.13927 -0.0943,0.35899 0,0.21951 1.4e-4,0.22019 0.0576,0.22019 0.051,0 0.0578,-0.01 0.0589,-0.0864 7.3e-4,-0.0475 0.009,-0.12746 0.0175,-0.17763 l 0.0162,-0.0912 0.0804,0.20015 c 0.0642,0.15968 0.0933,0.20551 0.1443,0.22672 0.0831,0.0346 0.0991,0.0633 0.054,0.097 -0.0326,0.0243 -0.0239,0.0611 0.0798,0.33839 0.1282,0.34289 0.45339,1.31363 0.52596,1.57008 l 0.0461,0.16307 -0.0786,-0.0148 c -0.0432,-0.008 -0.10753,-0.0299 -0.14292,-0.0483 -0.0354,-0.0185 -0.0799,-0.0337 -0.0989,-0.0339 -0.019,0 -0.0643,-0.0158 -0.10058,-0.0347 -0.0363,-0.0189 -0.0749,-0.0344 -0.0857,-0.0344 -0.0109,0 -0.0745,-0.0246 -0.1414,-0.0548 -0.0669,-0.0301 -0.16316,-0.0673 -0.21386,-0.0827 -0.18107,-0.0548 -0.24524,-0.0952 -0.27888,-0.17576 -0.0453,-0.10852 -0.1169,-0.10754 -0.13743,0.002 -0.0192,0.10256 -7.3e-4,0.14997 0.0584,0.14997 0.0258,0 0.0468,0.011 0.0468,0.0244 0,0.0134 0.0104,0.018 0.023,0.0102 0.0127,-0.008 0.023,-0.005 0.023,0.007 0,0.0114 0.0441,0.0338 0.0979,0.0498 0.0539,0.016 0.10832,0.0373 0.12099,0.0475 0.0127,0.0101 0.12157,0.0598 0.24198,0.11045 0.37227,0.1565 0.43466,0.18858 0.44687,0.2298 0.0643,0.21683 0.21352,0.77346 0.25996,0.96945 0.032,0.13516 0.0779,0.32872 0.10195,0.43012 0.0241,0.1014 0.0653,0.28807 0.0916,0.41482 0.0264,0.12675 0.0631,0.29046 0.0816,0.3638 0.0331,0.13117 0.0287,0.17778 -0.0168,0.17778 -0.0127,0 -0.0164,-0.0108 -0.008,-0.024 0.01,-0.0157 -0.008,-0.0186 -0.0505,-0.008 -0.0365,0.009 -0.0571,0.007 -0.0467,-0.005 0.0161,-0.0172 -0.0657,-0.0374 -0.35857,-0.0885 -0.0414,-0.007 -0.0634,-0.001 -0.0634,0.018 0,0.016 0.0285,0.0407 0.0634,0.055 l 0.0634,0.0259 -0.0685,-0.0137 -0.0685,-0.0138 0.0415,0.0633 c 0.0228,0.0348 0.0356,0.0785 0.0284,0.0972 -0.008,0.0217 -0.003,0.028 0.0137,0.0174 0.0178,-0.011 0.0218,-0.004 0.012,0.0218 -0.008,0.0211 -0.005,0.0383 0.007,0.0383 0.0119,0 0.0156,0.0156 0.008,0.0346 -0.007,0.019 -0.002,0.0346 0.0115,0.0346 0.0136,0 0.0182,0.0172 0.0101,0.0384 -0.01,0.0256 -0.006,0.0329 0.012,0.0218 0.0176,-0.0109 0.0219,-0.004 0.0127,0.0201 -0.008,0.0201 0.001,0.0544 0.0198,0.0761 0.0345,0.0403 0.0691,0.11322 0.0733,0.1547 0.001,0.0127 0.0156,0.0464 0.0318,0.0749 0.0162,0.0285 0.0214,0.052 0.0114,0.0522 -0.01,0 -0.007,0.008 0.007,0.0173 0.0311,0.021 0.0821,0.16559 0.067,0.19001 -0.006,0.01 0.005,0.0242 0.0249,0.0318 0.0248,0.01 0.0312,0.0292 0.0204,0.0629 -0.0104,0.0328 -0.007,0.0439 0.01,0.0335 0.0158,-0.01 0.0201,-0.002 0.0115,0.0202 -0.008,0.0197 -0.002,0.0358 0.0131,0.0358 0.0148,0 0.0205,0.0104 0.0126,0.023 -0.008,0.0127 -0.006,0.036 0.004,0.0519 0.01,0.0159 0.0212,0.0495 0.0251,0.0749 0.004,0.0254 0.0172,0.0496 0.0296,0.0538 0.0124,0.004 0.0167,0.0172 0.009,0.0288 -0.007,0.0116 -0.003,0.0211 0.009,0.0211 0.029,0 0.0742,0.13072 0.0589,0.17052 -0.007,0.017 0.002,0.0453 0.0201,0.0629 0.0176,0.0176 0.0281,0.0437 0.0233,0.0579 -0.005,0.0143 0.008,0.0425 0.0281,0.0627 0.0202,0.0202 0.0341,0.0499 0.0309,0.066 -0.009,0.0448 0.0502,0.20217 0.0758,0.20217 0.0124,0 0.0158,0.011 0.007,0.0245 -0.008,0.0135 0.003,0.0444 0.0248,0.0686 0.022,0.0243 0.0412,0.0677 0.0428,0.0965 0.002,0.0434 0.0146,0.0515 0.0718,0.0471 0.0379,-0.003 0.13754,-0.009 0.22137,-0.0139 l 0.15242,-0.009 0.0146,0.18675 c 0.008,0.10271 0.0195,0.21142 0.0254,0.24159 0.006,0.0302 0.0171,0.12868 0.0247,0.21893 0.008,0.0902 0.0182,0.17759 0.0235,0.19409 0.006,0.0178 -0.001,0.0234 -0.0166,0.0138 -0.0144,-0.009 -0.0584,-0.0186 -0.0977,-0.0214 -0.0393,-0.003 -0.1077,-0.0144 -0.15206,-0.0257 -0.0444,-0.0112 -0.11175,-0.0168 -0.14974,-0.0122 l -0.0691,0.008 0.0917,0.0446 c 0.0504,0.0245 0.13113,0.0509 0.17938,0.0586 0.0482,0.008 0.097,0.0314 0.10833,0.0525 0.0113,0.0212 0.0368,0.24534 0.0566,0.49816 0.0198,0.25282 0.0414,0.5219 0.048,0.59794 0.0111,0.12738 0.009,0.13465 -0.023,0.0922 -0.0476,-0.0626 -0.13336,-0.17157 -0.1615,-0.20527 -0.0127,-0.0152 -0.0453,-0.0685 -0.0724,-0.11858 -0.0596,-0.10983 -0.12346,-0.13391 -0.12346,-0.0466 0,0.0326 0.0104,0.0593 0.023,0.0593 0.0127,0 0.0214,0.008 0.0194,0.0173 -0.008,0.0367 0.0327,0.0969 0.0557,0.0827 0.0139,-0.009 0.0174,-0.004 0.008,0.0109 -0.009,0.0142 0.0778,0.17682 0.19233,0.36133 0.20837,0.3356 0.23,0.38044 0.18343,0.38044 -0.0137,0 -0.0889,0.0247 -0.16708,0.0548 -0.0782,0.0301 -0.30814,0.11451 -0.51094,0.18752 -0.2028,0.073 -0.39984,0.14675 -0.43787,0.16385 -0.0698,0.0314 -0.40499,0.15555 -0.93335,0.34571 -0.15844,0.057 -0.33992,0.12336 -0.4033,0.14743 -0.36891,0.14009 -1.33162,0.48343 -1.35503,0.48326 -0.0152,0 -0.0685,-0.0635 -0.11836,-0.14087 z m 2.22237,-6.38179 c 0,-0.0132 -0.0191,-0.0624 -0.0425,-0.10946 -0.0234,-0.047 -0.0718,-0.17107 -0.1077,-0.27564 -0.051,-0.14886 -0.0747,-0.19013 -0.10912,-0.19013 -0.0375,0 -0.0416,0.0109 -0.0276,0.0749 0.0272,0.12489 0.12691,0.41743 0.15292,0.44878 0.0134,0.0162 0.0154,0.0302 0.004,0.0311 -0.0268,0.002 0.0641,0.0408 0.10089,0.0429 0.0158,10e-4 0.0288,-0.009 0.0288,-0.0223 z m -23.69103,-7.54536 c 0,-0.005 -0.027,-0.0858 -0.06,-0.17844 -0.0597,-0.16752 -0.11303,-0.26329 -0.0864,-0.15524 0.008,0.0308 0.0187,0.094 0.0247,0.14046 l 0.011,0.0845 -0.10018,-0.0118 c -0.0551,-0.007 -0.13551,-0.0208 -0.17868,-0.0318 -0.0432,-0.011 -0.0873,-0.0146 -0.0979,-0.008 -0.0107,0.007 -0.0194,0.002 -0.0194,-0.0105 0,-0.0124 -0.0685,-0.0299 -0.15217,-0.0388 -0.10664,-0.0114 -0.14284,-0.0229 -0.12099,-0.0384 0.0218,-0.0155 0.0138,-0.0179 -0.0264,-0.008 -0.30695,0.0748 -0.36846,0.0945 -0.36153,0.11549 0.008,0.0231 0.12157,0.0403 0.73026,0.11029 0.30765,0.0354 0.43787,0.0444 0.43787,0.0304 z m -0.55381,-0.30953 c 0.0842,-0.0235 0.13435,-0.0475 0.11523,-0.055 -0.0296,-0.0117 -0.0295,-0.0168 7e-4,-0.0404 0.0298,-0.0232 0.029,-0.0252 -0.005,-0.0142 -0.0219,0.007 -0.16192,0.0365 -0.31112,0.0656 l -0.27126,0.0528 0.1498,0.0133 c 0.0824,0.007 0.15498,0.0147 0.16132,0.0165 0.006,0.002 0.0786,-0.0156 0.16061,-0.0385 z m 13.60145,-3.77653 c -0.11241,-0.14026 -0.3239,-0.33857 -0.34189,-0.32059 -0.0174,0.0175 0.35719,0.40701 0.39142,0.40701 0.0109,0 -0.0114,-0.0389 -0.0495,-0.0864 z m 11.85187,13.96226 c 0.009,-0.014 0.004,-0.0254 -0.01,-0.0254 -0.014,0 -0.0227,-0.0129 -0.0194,-0.0288 0.01,-0.0473 -0.0796,-0.2695 -0.10279,-0.25518 -0.0125,0.008 -0.0145,-0.008 -0.005,-0.0386 0.0111,-0.035 0.008,-0.0468 -0.009,-0.0362 -0.0158,0.01 -0.0201,0.002 -0.0115,-0.0202 0.008,-0.0197 0.002,-0.0358 -0.0118,-0.0358 -0.014,0 -0.0243,-0.008 -0.0228,-0.0173 0.008,-0.0505 -0.007,-0.0987 -0.0406,-0.13258 -0.0209,-0.0209 -0.0408,-0.0646 -0.0444,-0.0972 -0.004,-0.0326 -0.0186,-0.0667 -0.0333,-0.0758 -0.0147,-0.009 -0.0292,-0.051 -0.0321,-0.0932 -0.003,-0.0421 -0.017,-0.0805 -0.0312,-0.0853 -0.0142,-0.005 -0.0202,-0.0235 -0.0132,-0.0417 0.007,-0.0182 0,-0.0331 -0.0153,-0.0331 -0.0158,0 -0.022,-0.0156 -0.0143,-0.0358 0.008,-0.0197 0.005,-0.0301 -0.007,-0.0232 -0.0234,0.0145 -0.0482,-0.0394 -0.0482,-0.10427 0,-0.0243 -0.011,-0.0442 -0.0244,-0.0442 -0.0134,0 -0.0176,-0.011 -0.009,-0.0245 0.008,-0.0135 -0.002,-0.0434 -0.0229,-0.0666 -0.0209,-0.0231 -0.0394,-0.0665 -0.041,-0.0965 -0.002,-0.03 -0.0239,-0.0848 -0.0494,-0.12198 -0.0294,-0.0429 -0.0342,-0.0603 -0.0131,-0.0479 0.0195,0.0115 0.0156,-4.4e-4 -0.009,-0.029 -0.0234,-0.0268 -0.0358,-0.0596 -0.0274,-0.0731 0.008,-0.0135 0.005,-0.0245 -0.007,-0.0245 -0.0267,0 -0.0846,-0.13462 -0.066,-0.15328 0.007,-0.007 -0.001,-0.0281 -0.019,-0.046 -0.0179,-0.0179 -0.026,-0.0494 -0.018,-0.0702 0.01,-0.025 0.005,-0.0321 -0.0122,-0.0212 -0.0174,0.0108 -0.0219,0.004 -0.013,-0.0193 0.007,-0.0197 0.0222,-0.0358 0.0325,-0.0358 0.0183,0 0.36493,0.11701 0.48648,0.1642 0.0709,0.0276 0.0705,0.0256 0.23808,1.08027 0.0574,0.36124 0.10928,0.68512 0.11527,0.71972 0.008,0.0471 -0.001,0.0694 -0.0373,0.0887 -0.0344,0.0184 -0.0437,0.0185 -0.0325,4.4e-4 z m -8.97489,-13.64902 c -0.0951,-0.0523 -0.23248,-0.12523 -0.30536,-0.16202 -0.0729,-0.0368 -0.13251,-0.0767 -0.13251,-0.0886 0,-0.0119 0.005,-0.0217 0.0101,-0.0217 0.0398,0 0.66682,0.16446 0.85097,0.22319 l 0.11206,0.0357 -0.066,0.0297 c -0.0958,0.0431 -0.21703,0.0802 -0.25953,0.0795 -0.0203,-4.4e-4 -0.11467,-0.0434 -0.20974,-0.0957 z"
       id="path4147"
       inkscape:connector-curvature="0"
       inkscape:export-xdpi="88.219086"
       inkscape:export-ydpi="88.219086" />
  </g>
</svg>
