G04 #@! TF.GenerationSoftware,KiCad,Pcbnew,(2017-01-24 revision 0b6147e)-makepkg*
G04 #@! TF.CreationDate,2017-03-21T13:18:50-07:00*
G04 #@! TF.ProjectId,Spartan6Dev,5370617274616E364465762E6B696361,rev?*
G04 #@! TF.FileFunction,Copper,L1,Top,Signal*
G04 #@! TF.FilePolarity,Positive*
%FSLAX46Y46*%
G04 Gerber Fmt 4.6, Leading zero omitted, Abs format (unit mm)*
G04 Created by KiCad (PCBNEW (2017-01-24 revision 0b6147e)-makepkg) date 03/21/17 13:18:50*
%MOMM*%
%LPD*%
G01*
G04 APERTURE LIST*
%ADD10C,0.100000*%
%ADD11C,0.250000*%
%ADD12R,1.727200X1.727200*%
%ADD13O,1.727200X1.727200*%
%ADD14R,1.000000X0.250000*%
%ADD15R,0.250000X1.000000*%
%ADD16R,0.900000X0.500000*%
%ADD17R,0.800000X0.750000*%
%ADD18R,0.750000X0.800000*%
%ADD19R,1.230000X1.800000*%
%ADD20R,1.000000X1.600000*%
%ADD21R,1.300000X0.700000*%
%ADD22R,0.797560X0.797560*%
%ADD23R,2.032000X1.727200*%
%ADD24O,2.032000X1.727200*%
%ADD25R,0.500000X0.900000*%
%ADD26R,1.900000X2.400000*%
%ADD27R,1.348740X0.398780*%
%ADD28R,1.899920X1.899920*%
%ADD29C,1.650000*%
%ADD30C,1.250000*%
%ADD31C,4.000000*%
%ADD32C,4.500000*%
%ADD33R,0.600000X1.100000*%
%ADD34R,1.200000X0.500000*%
%ADD35C,1.240000*%
%ADD36C,1.727200*%
%ADD37R,1.700000X1.200000*%
%ADD38O,1.700000X1.200000*%
%ADD39R,0.760000X1.270000*%
%ADD40R,2.032000X2.032000*%
%ADD41O,2.032000X2.032000*%
%ADD42C,1.524000*%
%ADD43C,2.000000*%
%ADD44C,1.950000*%
%ADD45C,1.450000*%
%ADD46C,1.750000*%
%ADD47C,0.600000*%
%ADD48C,0.254000*%
%ADD49C,0.508000*%
%ADD50C,0.381000*%
%ADD51C,0.250000*%
%ADD52C,0.762000*%
G04 APERTURE END LIST*
D10*
D11*
X97647161Y-107227208D03*
D10*
G36*
X98071425Y-106626167D02*
X98248202Y-106802944D01*
X97222897Y-107828249D01*
X97046120Y-107651472D01*
X98071425Y-106626167D01*
X98071425Y-106626167D01*
G37*
D11*
X97293607Y-106873654D03*
D10*
G36*
X97717871Y-106272613D02*
X97894648Y-106449390D01*
X96869343Y-107474695D01*
X96692566Y-107297918D01*
X97717871Y-106272613D01*
X97717871Y-106272613D01*
G37*
D11*
X96940054Y-106520101D03*
D10*
G36*
X97364318Y-105919060D02*
X97541095Y-106095837D01*
X96515790Y-107121142D01*
X96339013Y-106944365D01*
X97364318Y-105919060D01*
X97364318Y-105919060D01*
G37*
D11*
X96586501Y-106166548D03*
D10*
G36*
X97010765Y-105565507D02*
X97187542Y-105742284D01*
X96162237Y-106767589D01*
X95985460Y-106590812D01*
X97010765Y-105565507D01*
X97010765Y-105565507D01*
G37*
D11*
X96232947Y-105812994D03*
D10*
G36*
X96657211Y-105211953D02*
X96833988Y-105388730D01*
X95808683Y-106414035D01*
X95631906Y-106237258D01*
X96657211Y-105211953D01*
X96657211Y-105211953D01*
G37*
D11*
X95879394Y-105459441D03*
D10*
G36*
X96303658Y-104858400D02*
X96480435Y-105035177D01*
X95455130Y-106060482D01*
X95278353Y-105883705D01*
X96303658Y-104858400D01*
X96303658Y-104858400D01*
G37*
D11*
X95525841Y-105105887D03*
D10*
G36*
X95950105Y-104504846D02*
X96126882Y-104681623D01*
X95101577Y-105706928D01*
X94924800Y-105530151D01*
X95950105Y-104504846D01*
X95950105Y-104504846D01*
G37*
D11*
X95172287Y-104752334D03*
D10*
G36*
X95596551Y-104151293D02*
X95773328Y-104328070D01*
X94748023Y-105353375D01*
X94571246Y-105176598D01*
X95596551Y-104151293D01*
X95596551Y-104151293D01*
G37*
D11*
X94818734Y-104398781D03*
D10*
G36*
X95242998Y-103797740D02*
X95419775Y-103974517D01*
X94394470Y-104999822D01*
X94217693Y-104823045D01*
X95242998Y-103797740D01*
X95242998Y-103797740D01*
G37*
D11*
X94465180Y-104045227D03*
D10*
G36*
X94889444Y-103444186D02*
X95066221Y-103620963D01*
X94040916Y-104646268D01*
X93864139Y-104469491D01*
X94889444Y-103444186D01*
X94889444Y-103444186D01*
G37*
D11*
X94111627Y-103691674D03*
D10*
G36*
X94535891Y-103090633D02*
X94712668Y-103267410D01*
X93687363Y-104292715D01*
X93510586Y-104115938D01*
X94535891Y-103090633D01*
X94535891Y-103090633D01*
G37*
D11*
X93758074Y-103338120D03*
D10*
G36*
X94182338Y-102737079D02*
X94359115Y-102913856D01*
X93333810Y-103939161D01*
X93157033Y-103762384D01*
X94182338Y-102737079D01*
X94182338Y-102737079D01*
G37*
D11*
X93404520Y-102984567D03*
D10*
G36*
X93828784Y-102383526D02*
X94005561Y-102560303D01*
X92980256Y-103585608D01*
X92803479Y-103408831D01*
X93828784Y-102383526D01*
X93828784Y-102383526D01*
G37*
D11*
X93050967Y-102631014D03*
D10*
G36*
X93475231Y-102029973D02*
X93652008Y-102206750D01*
X92626703Y-103232055D01*
X92449926Y-103055278D01*
X93475231Y-102029973D01*
X93475231Y-102029973D01*
G37*
D11*
X92697413Y-102277460D03*
D10*
G36*
X93121677Y-101676419D02*
X93298454Y-101853196D01*
X92273149Y-102878501D01*
X92096372Y-102701724D01*
X93121677Y-101676419D01*
X93121677Y-101676419D01*
G37*
D11*
X92343860Y-101923907D03*
D10*
G36*
X92768124Y-101322866D02*
X92944901Y-101499643D01*
X91919596Y-102524948D01*
X91742819Y-102348171D01*
X92768124Y-101322866D01*
X92768124Y-101322866D01*
G37*
D11*
X91990307Y-101570354D03*
D10*
G36*
X92414571Y-100969313D02*
X92591348Y-101146090D01*
X91566043Y-102171395D01*
X91389266Y-101994618D01*
X92414571Y-100969313D01*
X92414571Y-100969313D01*
G37*
D11*
X91636753Y-101216800D03*
D10*
G36*
X92061017Y-100615759D02*
X92237794Y-100792536D01*
X91212489Y-101817841D01*
X91035712Y-101641064D01*
X92061017Y-100615759D01*
X92061017Y-100615759D01*
G37*
D11*
X91283200Y-100863247D03*
D10*
G36*
X91707464Y-100262206D02*
X91884241Y-100438983D01*
X90858936Y-101464288D01*
X90682159Y-101287511D01*
X91707464Y-100262206D01*
X91707464Y-100262206D01*
G37*
D11*
X90929646Y-100509693D03*
D10*
G36*
X91353910Y-99908652D02*
X91530687Y-100085429D01*
X90505382Y-101110734D01*
X90328605Y-100933957D01*
X91353910Y-99908652D01*
X91353910Y-99908652D01*
G37*
D11*
X90576093Y-100156140D03*
D10*
G36*
X91000357Y-99555099D02*
X91177134Y-99731876D01*
X90151829Y-100757181D01*
X89975052Y-100580404D01*
X91000357Y-99555099D01*
X91000357Y-99555099D01*
G37*
D11*
X90222540Y-99802587D03*
D10*
G36*
X90646804Y-99201546D02*
X90823581Y-99378323D01*
X89798276Y-100403628D01*
X89621499Y-100226851D01*
X90646804Y-99201546D01*
X90646804Y-99201546D01*
G37*
D11*
X89868986Y-99449033D03*
D10*
G36*
X90293250Y-98847992D02*
X90470027Y-99024769D01*
X89444722Y-100050074D01*
X89267945Y-99873297D01*
X90293250Y-98847992D01*
X90293250Y-98847992D01*
G37*
D11*
X89515433Y-99095480D03*
D10*
G36*
X89939697Y-98494439D02*
X90116474Y-98671216D01*
X89091169Y-99696521D01*
X88914392Y-99519744D01*
X89939697Y-98494439D01*
X89939697Y-98494439D01*
G37*
D11*
X89161880Y-98741926D03*
D10*
G36*
X89586144Y-98140885D02*
X89762921Y-98317662D01*
X88737616Y-99342967D01*
X88560839Y-99166190D01*
X89586144Y-98140885D01*
X89586144Y-98140885D01*
G37*
D11*
X88808326Y-98388373D03*
D10*
G36*
X89232590Y-97787332D02*
X89409367Y-97964109D01*
X88384062Y-98989414D01*
X88207285Y-98812637D01*
X89232590Y-97787332D01*
X89232590Y-97787332D01*
G37*
D11*
X88454773Y-98034820D03*
D10*
G36*
X88879037Y-97433779D02*
X89055814Y-97610556D01*
X88030509Y-98635861D01*
X87853732Y-98459084D01*
X88879037Y-97433779D01*
X88879037Y-97433779D01*
G37*
D11*
X88101219Y-97681266D03*
D10*
G36*
X88525483Y-97080225D02*
X88702260Y-97257002D01*
X87676955Y-98282307D01*
X87500178Y-98105530D01*
X88525483Y-97080225D01*
X88525483Y-97080225D01*
G37*
D11*
X87747666Y-97327713D03*
D10*
G36*
X88171930Y-96726672D02*
X88348707Y-96903449D01*
X87323402Y-97928754D01*
X87146625Y-97751977D01*
X88171930Y-96726672D01*
X88171930Y-96726672D01*
G37*
D11*
X87394113Y-96974159D03*
D10*
G36*
X87818377Y-96373118D02*
X87995154Y-96549895D01*
X86969849Y-97575200D01*
X86793072Y-97398423D01*
X87818377Y-96373118D01*
X87818377Y-96373118D01*
G37*
D11*
X87040559Y-96620606D03*
D10*
G36*
X87464823Y-96019565D02*
X87641600Y-96196342D01*
X86616295Y-97221647D01*
X86439518Y-97044870D01*
X87464823Y-96019565D01*
X87464823Y-96019565D01*
G37*
D11*
X86687006Y-96267053D03*
D10*
G36*
X87111270Y-95666012D02*
X87288047Y-95842789D01*
X86262742Y-96868094D01*
X86085965Y-96691317D01*
X87111270Y-95666012D01*
X87111270Y-95666012D01*
G37*
D11*
X86333452Y-95913499D03*
D10*
G36*
X86757716Y-95312458D02*
X86934493Y-95489235D01*
X85909188Y-96514540D01*
X85732411Y-96337763D01*
X86757716Y-95312458D01*
X86757716Y-95312458D01*
G37*
D11*
X85979899Y-95559946D03*
D10*
G36*
X86404163Y-94958905D02*
X86580940Y-95135682D01*
X85555635Y-96160987D01*
X85378858Y-95984210D01*
X86404163Y-94958905D01*
X86404163Y-94958905D01*
G37*
D11*
X85626346Y-95206393D03*
D10*
G36*
X86050610Y-94605352D02*
X86227387Y-94782129D01*
X85202082Y-95807434D01*
X85025305Y-95630657D01*
X86050610Y-94605352D01*
X86050610Y-94605352D01*
G37*
D11*
X85272792Y-94852839D03*
D10*
G36*
X85697056Y-94251798D02*
X85873833Y-94428575D01*
X84848528Y-95453880D01*
X84671751Y-95277103D01*
X85697056Y-94251798D01*
X85697056Y-94251798D01*
G37*
D11*
X82727208Y-94852839D03*
D10*
G36*
X82126167Y-94428575D02*
X82302944Y-94251798D01*
X83328249Y-95277103D01*
X83151472Y-95453880D01*
X82126167Y-94428575D01*
X82126167Y-94428575D01*
G37*
D11*
X82373654Y-95206393D03*
D10*
G36*
X81772613Y-94782129D02*
X81949390Y-94605352D01*
X82974695Y-95630657D01*
X82797918Y-95807434D01*
X81772613Y-94782129D01*
X81772613Y-94782129D01*
G37*
D11*
X82020101Y-95559946D03*
D10*
G36*
X81419060Y-95135682D02*
X81595837Y-94958905D01*
X82621142Y-95984210D01*
X82444365Y-96160987D01*
X81419060Y-95135682D01*
X81419060Y-95135682D01*
G37*
D11*
X81666548Y-95913499D03*
D10*
G36*
X81065507Y-95489235D02*
X81242284Y-95312458D01*
X82267589Y-96337763D01*
X82090812Y-96514540D01*
X81065507Y-95489235D01*
X81065507Y-95489235D01*
G37*
D11*
X81312994Y-96267053D03*
D10*
G36*
X80711953Y-95842789D02*
X80888730Y-95666012D01*
X81914035Y-96691317D01*
X81737258Y-96868094D01*
X80711953Y-95842789D01*
X80711953Y-95842789D01*
G37*
D11*
X80959441Y-96620606D03*
D10*
G36*
X80358400Y-96196342D02*
X80535177Y-96019565D01*
X81560482Y-97044870D01*
X81383705Y-97221647D01*
X80358400Y-96196342D01*
X80358400Y-96196342D01*
G37*
D11*
X80605887Y-96974159D03*
D10*
G36*
X80004846Y-96549895D02*
X80181623Y-96373118D01*
X81206928Y-97398423D01*
X81030151Y-97575200D01*
X80004846Y-96549895D01*
X80004846Y-96549895D01*
G37*
D11*
X80252334Y-97327713D03*
D10*
G36*
X79651293Y-96903449D02*
X79828070Y-96726672D01*
X80853375Y-97751977D01*
X80676598Y-97928754D01*
X79651293Y-96903449D01*
X79651293Y-96903449D01*
G37*
D11*
X79898781Y-97681266D03*
D10*
G36*
X79297740Y-97257002D02*
X79474517Y-97080225D01*
X80499822Y-98105530D01*
X80323045Y-98282307D01*
X79297740Y-97257002D01*
X79297740Y-97257002D01*
G37*
D11*
X79545227Y-98034820D03*
D10*
G36*
X78944186Y-97610556D02*
X79120963Y-97433779D01*
X80146268Y-98459084D01*
X79969491Y-98635861D01*
X78944186Y-97610556D01*
X78944186Y-97610556D01*
G37*
D11*
X79191674Y-98388373D03*
D10*
G36*
X78590633Y-97964109D02*
X78767410Y-97787332D01*
X79792715Y-98812637D01*
X79615938Y-98989414D01*
X78590633Y-97964109D01*
X78590633Y-97964109D01*
G37*
D11*
X78838120Y-98741926D03*
D10*
G36*
X78237079Y-98317662D02*
X78413856Y-98140885D01*
X79439161Y-99166190D01*
X79262384Y-99342967D01*
X78237079Y-98317662D01*
X78237079Y-98317662D01*
G37*
D11*
X78484567Y-99095480D03*
D10*
G36*
X77883526Y-98671216D02*
X78060303Y-98494439D01*
X79085608Y-99519744D01*
X78908831Y-99696521D01*
X77883526Y-98671216D01*
X77883526Y-98671216D01*
G37*
D11*
X78131014Y-99449033D03*
D10*
G36*
X77529973Y-99024769D02*
X77706750Y-98847992D01*
X78732055Y-99873297D01*
X78555278Y-100050074D01*
X77529973Y-99024769D01*
X77529973Y-99024769D01*
G37*
D11*
X77777460Y-99802587D03*
D10*
G36*
X77176419Y-99378323D02*
X77353196Y-99201546D01*
X78378501Y-100226851D01*
X78201724Y-100403628D01*
X77176419Y-99378323D01*
X77176419Y-99378323D01*
G37*
D11*
X77423907Y-100156140D03*
D10*
G36*
X76822866Y-99731876D02*
X76999643Y-99555099D01*
X78024948Y-100580404D01*
X77848171Y-100757181D01*
X76822866Y-99731876D01*
X76822866Y-99731876D01*
G37*
D11*
X77070354Y-100509693D03*
D10*
G36*
X76469313Y-100085429D02*
X76646090Y-99908652D01*
X77671395Y-100933957D01*
X77494618Y-101110734D01*
X76469313Y-100085429D01*
X76469313Y-100085429D01*
G37*
D11*
X76716800Y-100863247D03*
D10*
G36*
X76115759Y-100438983D02*
X76292536Y-100262206D01*
X77317841Y-101287511D01*
X77141064Y-101464288D01*
X76115759Y-100438983D01*
X76115759Y-100438983D01*
G37*
D11*
X76363247Y-101216800D03*
D10*
G36*
X75762206Y-100792536D02*
X75938983Y-100615759D01*
X76964288Y-101641064D01*
X76787511Y-101817841D01*
X75762206Y-100792536D01*
X75762206Y-100792536D01*
G37*
D11*
X76009693Y-101570354D03*
D10*
G36*
X75408652Y-101146090D02*
X75585429Y-100969313D01*
X76610734Y-101994618D01*
X76433957Y-102171395D01*
X75408652Y-101146090D01*
X75408652Y-101146090D01*
G37*
D11*
X75656140Y-101923907D03*
D10*
G36*
X75055099Y-101499643D02*
X75231876Y-101322866D01*
X76257181Y-102348171D01*
X76080404Y-102524948D01*
X75055099Y-101499643D01*
X75055099Y-101499643D01*
G37*
D11*
X75302587Y-102277460D03*
D10*
G36*
X74701546Y-101853196D02*
X74878323Y-101676419D01*
X75903628Y-102701724D01*
X75726851Y-102878501D01*
X74701546Y-101853196D01*
X74701546Y-101853196D01*
G37*
D11*
X74949033Y-102631014D03*
D10*
G36*
X74347992Y-102206750D02*
X74524769Y-102029973D01*
X75550074Y-103055278D01*
X75373297Y-103232055D01*
X74347992Y-102206750D01*
X74347992Y-102206750D01*
G37*
D11*
X74595480Y-102984567D03*
D10*
G36*
X73994439Y-102560303D02*
X74171216Y-102383526D01*
X75196521Y-103408831D01*
X75019744Y-103585608D01*
X73994439Y-102560303D01*
X73994439Y-102560303D01*
G37*
D11*
X74241926Y-103338120D03*
D10*
G36*
X73640885Y-102913856D02*
X73817662Y-102737079D01*
X74842967Y-103762384D01*
X74666190Y-103939161D01*
X73640885Y-102913856D01*
X73640885Y-102913856D01*
G37*
D11*
X73888373Y-103691674D03*
D10*
G36*
X73287332Y-103267410D02*
X73464109Y-103090633D01*
X74489414Y-104115938D01*
X74312637Y-104292715D01*
X73287332Y-103267410D01*
X73287332Y-103267410D01*
G37*
D11*
X73534820Y-104045227D03*
D10*
G36*
X72933779Y-103620963D02*
X73110556Y-103444186D01*
X74135861Y-104469491D01*
X73959084Y-104646268D01*
X72933779Y-103620963D01*
X72933779Y-103620963D01*
G37*
D11*
X73181266Y-104398781D03*
D10*
G36*
X72580225Y-103974517D02*
X72757002Y-103797740D01*
X73782307Y-104823045D01*
X73605530Y-104999822D01*
X72580225Y-103974517D01*
X72580225Y-103974517D01*
G37*
D11*
X72827713Y-104752334D03*
D10*
G36*
X72226672Y-104328070D02*
X72403449Y-104151293D01*
X73428754Y-105176598D01*
X73251977Y-105353375D01*
X72226672Y-104328070D01*
X72226672Y-104328070D01*
G37*
D11*
X72474159Y-105105887D03*
D10*
G36*
X71873118Y-104681623D02*
X72049895Y-104504846D01*
X73075200Y-105530151D01*
X72898423Y-105706928D01*
X71873118Y-104681623D01*
X71873118Y-104681623D01*
G37*
D11*
X72120606Y-105459441D03*
D10*
G36*
X71519565Y-105035177D02*
X71696342Y-104858400D01*
X72721647Y-105883705D01*
X72544870Y-106060482D01*
X71519565Y-105035177D01*
X71519565Y-105035177D01*
G37*
D11*
X71767053Y-105812994D03*
D10*
G36*
X71166012Y-105388730D02*
X71342789Y-105211953D01*
X72368094Y-106237258D01*
X72191317Y-106414035D01*
X71166012Y-105388730D01*
X71166012Y-105388730D01*
G37*
D11*
X71413499Y-106166548D03*
D10*
G36*
X70812458Y-105742284D02*
X70989235Y-105565507D01*
X72014540Y-106590812D01*
X71837763Y-106767589D01*
X70812458Y-105742284D01*
X70812458Y-105742284D01*
G37*
D11*
X71059946Y-106520101D03*
D10*
G36*
X70458905Y-106095837D02*
X70635682Y-105919060D01*
X71660987Y-106944365D01*
X71484210Y-107121142D01*
X70458905Y-106095837D01*
X70458905Y-106095837D01*
G37*
D11*
X70706393Y-106873654D03*
D10*
G36*
X70105352Y-106449390D02*
X70282129Y-106272613D01*
X71307434Y-107297918D01*
X71130657Y-107474695D01*
X70105352Y-106449390D01*
X70105352Y-106449390D01*
G37*
D11*
X70352839Y-107227208D03*
D10*
G36*
X69751798Y-106802944D02*
X69928575Y-106626167D01*
X70953880Y-107651472D01*
X70777103Y-107828249D01*
X69751798Y-106802944D01*
X69751798Y-106802944D01*
G37*
D11*
X70352839Y-109772792D03*
D10*
G36*
X70777103Y-109171751D02*
X70953880Y-109348528D01*
X69928575Y-110373833D01*
X69751798Y-110197056D01*
X70777103Y-109171751D01*
X70777103Y-109171751D01*
G37*
D11*
X70706393Y-110126346D03*
D10*
G36*
X71130657Y-109525305D02*
X71307434Y-109702082D01*
X70282129Y-110727387D01*
X70105352Y-110550610D01*
X71130657Y-109525305D01*
X71130657Y-109525305D01*
G37*
D11*
X71059946Y-110479899D03*
D10*
G36*
X71484210Y-109878858D02*
X71660987Y-110055635D01*
X70635682Y-111080940D01*
X70458905Y-110904163D01*
X71484210Y-109878858D01*
X71484210Y-109878858D01*
G37*
D11*
X71413499Y-110833452D03*
D10*
G36*
X71837763Y-110232411D02*
X72014540Y-110409188D01*
X70989235Y-111434493D01*
X70812458Y-111257716D01*
X71837763Y-110232411D01*
X71837763Y-110232411D01*
G37*
D11*
X71767053Y-111187006D03*
D10*
G36*
X72191317Y-110585965D02*
X72368094Y-110762742D01*
X71342789Y-111788047D01*
X71166012Y-111611270D01*
X72191317Y-110585965D01*
X72191317Y-110585965D01*
G37*
D11*
X72120606Y-111540559D03*
D10*
G36*
X72544870Y-110939518D02*
X72721647Y-111116295D01*
X71696342Y-112141600D01*
X71519565Y-111964823D01*
X72544870Y-110939518D01*
X72544870Y-110939518D01*
G37*
D11*
X72474159Y-111894113D03*
D10*
G36*
X72898423Y-111293072D02*
X73075200Y-111469849D01*
X72049895Y-112495154D01*
X71873118Y-112318377D01*
X72898423Y-111293072D01*
X72898423Y-111293072D01*
G37*
D11*
X72827713Y-112247666D03*
D10*
G36*
X73251977Y-111646625D02*
X73428754Y-111823402D01*
X72403449Y-112848707D01*
X72226672Y-112671930D01*
X73251977Y-111646625D01*
X73251977Y-111646625D01*
G37*
D11*
X73181266Y-112601219D03*
D10*
G36*
X73605530Y-112000178D02*
X73782307Y-112176955D01*
X72757002Y-113202260D01*
X72580225Y-113025483D01*
X73605530Y-112000178D01*
X73605530Y-112000178D01*
G37*
D11*
X73534820Y-112954773D03*
D10*
G36*
X73959084Y-112353732D02*
X74135861Y-112530509D01*
X73110556Y-113555814D01*
X72933779Y-113379037D01*
X73959084Y-112353732D01*
X73959084Y-112353732D01*
G37*
D11*
X73888373Y-113308326D03*
D10*
G36*
X74312637Y-112707285D02*
X74489414Y-112884062D01*
X73464109Y-113909367D01*
X73287332Y-113732590D01*
X74312637Y-112707285D01*
X74312637Y-112707285D01*
G37*
D11*
X74241926Y-113661880D03*
D10*
G36*
X74666190Y-113060839D02*
X74842967Y-113237616D01*
X73817662Y-114262921D01*
X73640885Y-114086144D01*
X74666190Y-113060839D01*
X74666190Y-113060839D01*
G37*
D11*
X74595480Y-114015433D03*
D10*
G36*
X75019744Y-113414392D02*
X75196521Y-113591169D01*
X74171216Y-114616474D01*
X73994439Y-114439697D01*
X75019744Y-113414392D01*
X75019744Y-113414392D01*
G37*
D11*
X74949033Y-114368986D03*
D10*
G36*
X75373297Y-113767945D02*
X75550074Y-113944722D01*
X74524769Y-114970027D01*
X74347992Y-114793250D01*
X75373297Y-113767945D01*
X75373297Y-113767945D01*
G37*
D11*
X75302587Y-114722540D03*
D10*
G36*
X75726851Y-114121499D02*
X75903628Y-114298276D01*
X74878323Y-115323581D01*
X74701546Y-115146804D01*
X75726851Y-114121499D01*
X75726851Y-114121499D01*
G37*
D11*
X75656140Y-115076093D03*
D10*
G36*
X76080404Y-114475052D02*
X76257181Y-114651829D01*
X75231876Y-115677134D01*
X75055099Y-115500357D01*
X76080404Y-114475052D01*
X76080404Y-114475052D01*
G37*
D11*
X76009693Y-115429646D03*
D10*
G36*
X76433957Y-114828605D02*
X76610734Y-115005382D01*
X75585429Y-116030687D01*
X75408652Y-115853910D01*
X76433957Y-114828605D01*
X76433957Y-114828605D01*
G37*
D11*
X76363247Y-115783200D03*
D10*
G36*
X76787511Y-115182159D02*
X76964288Y-115358936D01*
X75938983Y-116384241D01*
X75762206Y-116207464D01*
X76787511Y-115182159D01*
X76787511Y-115182159D01*
G37*
D11*
X76716800Y-116136753D03*
D10*
G36*
X77141064Y-115535712D02*
X77317841Y-115712489D01*
X76292536Y-116737794D01*
X76115759Y-116561017D01*
X77141064Y-115535712D01*
X77141064Y-115535712D01*
G37*
D11*
X77070354Y-116490307D03*
D10*
G36*
X77494618Y-115889266D02*
X77671395Y-116066043D01*
X76646090Y-117091348D01*
X76469313Y-116914571D01*
X77494618Y-115889266D01*
X77494618Y-115889266D01*
G37*
D11*
X77423907Y-116843860D03*
D10*
G36*
X77848171Y-116242819D02*
X78024948Y-116419596D01*
X76999643Y-117444901D01*
X76822866Y-117268124D01*
X77848171Y-116242819D01*
X77848171Y-116242819D01*
G37*
D11*
X77777460Y-117197413D03*
D10*
G36*
X78201724Y-116596372D02*
X78378501Y-116773149D01*
X77353196Y-117798454D01*
X77176419Y-117621677D01*
X78201724Y-116596372D01*
X78201724Y-116596372D01*
G37*
D11*
X78131014Y-117550967D03*
D10*
G36*
X78555278Y-116949926D02*
X78732055Y-117126703D01*
X77706750Y-118152008D01*
X77529973Y-117975231D01*
X78555278Y-116949926D01*
X78555278Y-116949926D01*
G37*
D11*
X78484567Y-117904520D03*
D10*
G36*
X78908831Y-117303479D02*
X79085608Y-117480256D01*
X78060303Y-118505561D01*
X77883526Y-118328784D01*
X78908831Y-117303479D01*
X78908831Y-117303479D01*
G37*
D11*
X78838120Y-118258074D03*
D10*
G36*
X79262384Y-117657033D02*
X79439161Y-117833810D01*
X78413856Y-118859115D01*
X78237079Y-118682338D01*
X79262384Y-117657033D01*
X79262384Y-117657033D01*
G37*
D11*
X79191674Y-118611627D03*
D10*
G36*
X79615938Y-118010586D02*
X79792715Y-118187363D01*
X78767410Y-119212668D01*
X78590633Y-119035891D01*
X79615938Y-118010586D01*
X79615938Y-118010586D01*
G37*
D11*
X79545227Y-118965180D03*
D10*
G36*
X79969491Y-118364139D02*
X80146268Y-118540916D01*
X79120963Y-119566221D01*
X78944186Y-119389444D01*
X79969491Y-118364139D01*
X79969491Y-118364139D01*
G37*
D11*
X79898781Y-119318734D03*
D10*
G36*
X80323045Y-118717693D02*
X80499822Y-118894470D01*
X79474517Y-119919775D01*
X79297740Y-119742998D01*
X80323045Y-118717693D01*
X80323045Y-118717693D01*
G37*
D11*
X80252334Y-119672287D03*
D10*
G36*
X80676598Y-119071246D02*
X80853375Y-119248023D01*
X79828070Y-120273328D01*
X79651293Y-120096551D01*
X80676598Y-119071246D01*
X80676598Y-119071246D01*
G37*
D11*
X80605887Y-120025841D03*
D10*
G36*
X81030151Y-119424800D02*
X81206928Y-119601577D01*
X80181623Y-120626882D01*
X80004846Y-120450105D01*
X81030151Y-119424800D01*
X81030151Y-119424800D01*
G37*
D11*
X80959441Y-120379394D03*
D10*
G36*
X81383705Y-119778353D02*
X81560482Y-119955130D01*
X80535177Y-120980435D01*
X80358400Y-120803658D01*
X81383705Y-119778353D01*
X81383705Y-119778353D01*
G37*
D11*
X81312994Y-120732947D03*
D10*
G36*
X81737258Y-120131906D02*
X81914035Y-120308683D01*
X80888730Y-121333988D01*
X80711953Y-121157211D01*
X81737258Y-120131906D01*
X81737258Y-120131906D01*
G37*
D11*
X81666548Y-121086501D03*
D10*
G36*
X82090812Y-120485460D02*
X82267589Y-120662237D01*
X81242284Y-121687542D01*
X81065507Y-121510765D01*
X82090812Y-120485460D01*
X82090812Y-120485460D01*
G37*
D11*
X82020101Y-121440054D03*
D10*
G36*
X82444365Y-120839013D02*
X82621142Y-121015790D01*
X81595837Y-122041095D01*
X81419060Y-121864318D01*
X82444365Y-120839013D01*
X82444365Y-120839013D01*
G37*
D11*
X82373654Y-121793607D03*
D10*
G36*
X82797918Y-121192566D02*
X82974695Y-121369343D01*
X81949390Y-122394648D01*
X81772613Y-122217871D01*
X82797918Y-121192566D01*
X82797918Y-121192566D01*
G37*
D11*
X82727208Y-122147161D03*
D10*
G36*
X83151472Y-121546120D02*
X83328249Y-121722897D01*
X82302944Y-122748202D01*
X82126167Y-122571425D01*
X83151472Y-121546120D01*
X83151472Y-121546120D01*
G37*
D11*
X85272792Y-122147161D03*
D10*
G36*
X84671751Y-121722897D02*
X84848528Y-121546120D01*
X85873833Y-122571425D01*
X85697056Y-122748202D01*
X84671751Y-121722897D01*
X84671751Y-121722897D01*
G37*
D11*
X85626346Y-121793607D03*
D10*
G36*
X85025305Y-121369343D02*
X85202082Y-121192566D01*
X86227387Y-122217871D01*
X86050610Y-122394648D01*
X85025305Y-121369343D01*
X85025305Y-121369343D01*
G37*
D11*
X85979899Y-121440054D03*
D10*
G36*
X85378858Y-121015790D02*
X85555635Y-120839013D01*
X86580940Y-121864318D01*
X86404163Y-122041095D01*
X85378858Y-121015790D01*
X85378858Y-121015790D01*
G37*
D11*
X86333452Y-121086501D03*
D10*
G36*
X85732411Y-120662237D02*
X85909188Y-120485460D01*
X86934493Y-121510765D01*
X86757716Y-121687542D01*
X85732411Y-120662237D01*
X85732411Y-120662237D01*
G37*
D11*
X86687006Y-120732947D03*
D10*
G36*
X86085965Y-120308683D02*
X86262742Y-120131906D01*
X87288047Y-121157211D01*
X87111270Y-121333988D01*
X86085965Y-120308683D01*
X86085965Y-120308683D01*
G37*
D11*
X87040559Y-120379394D03*
D10*
G36*
X86439518Y-119955130D02*
X86616295Y-119778353D01*
X87641600Y-120803658D01*
X87464823Y-120980435D01*
X86439518Y-119955130D01*
X86439518Y-119955130D01*
G37*
D11*
X87394113Y-120025841D03*
D10*
G36*
X86793072Y-119601577D02*
X86969849Y-119424800D01*
X87995154Y-120450105D01*
X87818377Y-120626882D01*
X86793072Y-119601577D01*
X86793072Y-119601577D01*
G37*
D11*
X87747666Y-119672287D03*
D10*
G36*
X87146625Y-119248023D02*
X87323402Y-119071246D01*
X88348707Y-120096551D01*
X88171930Y-120273328D01*
X87146625Y-119248023D01*
X87146625Y-119248023D01*
G37*
D11*
X88101219Y-119318734D03*
D10*
G36*
X87500178Y-118894470D02*
X87676955Y-118717693D01*
X88702260Y-119742998D01*
X88525483Y-119919775D01*
X87500178Y-118894470D01*
X87500178Y-118894470D01*
G37*
D11*
X88454773Y-118965180D03*
D10*
G36*
X87853732Y-118540916D02*
X88030509Y-118364139D01*
X89055814Y-119389444D01*
X88879037Y-119566221D01*
X87853732Y-118540916D01*
X87853732Y-118540916D01*
G37*
D11*
X88808326Y-118611627D03*
D10*
G36*
X88207285Y-118187363D02*
X88384062Y-118010586D01*
X89409367Y-119035891D01*
X89232590Y-119212668D01*
X88207285Y-118187363D01*
X88207285Y-118187363D01*
G37*
D11*
X89161880Y-118258074D03*
D10*
G36*
X88560839Y-117833810D02*
X88737616Y-117657033D01*
X89762921Y-118682338D01*
X89586144Y-118859115D01*
X88560839Y-117833810D01*
X88560839Y-117833810D01*
G37*
D11*
X89515433Y-117904520D03*
D10*
G36*
X88914392Y-117480256D02*
X89091169Y-117303479D01*
X90116474Y-118328784D01*
X89939697Y-118505561D01*
X88914392Y-117480256D01*
X88914392Y-117480256D01*
G37*
D11*
X89868986Y-117550967D03*
D10*
G36*
X89267945Y-117126703D02*
X89444722Y-116949926D01*
X90470027Y-117975231D01*
X90293250Y-118152008D01*
X89267945Y-117126703D01*
X89267945Y-117126703D01*
G37*
D11*
X90222540Y-117197413D03*
D10*
G36*
X89621499Y-116773149D02*
X89798276Y-116596372D01*
X90823581Y-117621677D01*
X90646804Y-117798454D01*
X89621499Y-116773149D01*
X89621499Y-116773149D01*
G37*
D11*
X90576093Y-116843860D03*
D10*
G36*
X89975052Y-116419596D02*
X90151829Y-116242819D01*
X91177134Y-117268124D01*
X91000357Y-117444901D01*
X89975052Y-116419596D01*
X89975052Y-116419596D01*
G37*
D11*
X90929646Y-116490307D03*
D10*
G36*
X90328605Y-116066043D02*
X90505382Y-115889266D01*
X91530687Y-116914571D01*
X91353910Y-117091348D01*
X90328605Y-116066043D01*
X90328605Y-116066043D01*
G37*
D11*
X91283200Y-116136753D03*
D10*
G36*
X90682159Y-115712489D02*
X90858936Y-115535712D01*
X91884241Y-116561017D01*
X91707464Y-116737794D01*
X90682159Y-115712489D01*
X90682159Y-115712489D01*
G37*
D11*
X91636753Y-115783200D03*
D10*
G36*
X91035712Y-115358936D02*
X91212489Y-115182159D01*
X92237794Y-116207464D01*
X92061017Y-116384241D01*
X91035712Y-115358936D01*
X91035712Y-115358936D01*
G37*
D11*
X91990307Y-115429646D03*
D10*
G36*
X91389266Y-115005382D02*
X91566043Y-114828605D01*
X92591348Y-115853910D01*
X92414571Y-116030687D01*
X91389266Y-115005382D01*
X91389266Y-115005382D01*
G37*
D11*
X92343860Y-115076093D03*
D10*
G36*
X91742819Y-114651829D02*
X91919596Y-114475052D01*
X92944901Y-115500357D01*
X92768124Y-115677134D01*
X91742819Y-114651829D01*
X91742819Y-114651829D01*
G37*
D11*
X92697413Y-114722540D03*
D10*
G36*
X92096372Y-114298276D02*
X92273149Y-114121499D01*
X93298454Y-115146804D01*
X93121677Y-115323581D01*
X92096372Y-114298276D01*
X92096372Y-114298276D01*
G37*
D11*
X93050967Y-114368986D03*
D10*
G36*
X92449926Y-113944722D02*
X92626703Y-113767945D01*
X93652008Y-114793250D01*
X93475231Y-114970027D01*
X92449926Y-113944722D01*
X92449926Y-113944722D01*
G37*
D11*
X93404520Y-114015433D03*
D10*
G36*
X92803479Y-113591169D02*
X92980256Y-113414392D01*
X94005561Y-114439697D01*
X93828784Y-114616474D01*
X92803479Y-113591169D01*
X92803479Y-113591169D01*
G37*
D11*
X93758074Y-113661880D03*
D10*
G36*
X93157033Y-113237616D02*
X93333810Y-113060839D01*
X94359115Y-114086144D01*
X94182338Y-114262921D01*
X93157033Y-113237616D01*
X93157033Y-113237616D01*
G37*
D11*
X94111627Y-113308326D03*
D10*
G36*
X93510586Y-112884062D02*
X93687363Y-112707285D01*
X94712668Y-113732590D01*
X94535891Y-113909367D01*
X93510586Y-112884062D01*
X93510586Y-112884062D01*
G37*
D11*
X94465180Y-112954773D03*
D10*
G36*
X93864139Y-112530509D02*
X94040916Y-112353732D01*
X95066221Y-113379037D01*
X94889444Y-113555814D01*
X93864139Y-112530509D01*
X93864139Y-112530509D01*
G37*
D11*
X94818734Y-112601219D03*
D10*
G36*
X94217693Y-112176955D02*
X94394470Y-112000178D01*
X95419775Y-113025483D01*
X95242998Y-113202260D01*
X94217693Y-112176955D01*
X94217693Y-112176955D01*
G37*
D11*
X95172287Y-112247666D03*
D10*
G36*
X94571246Y-111823402D02*
X94748023Y-111646625D01*
X95773328Y-112671930D01*
X95596551Y-112848707D01*
X94571246Y-111823402D01*
X94571246Y-111823402D01*
G37*
D11*
X95525841Y-111894113D03*
D10*
G36*
X94924800Y-111469849D02*
X95101577Y-111293072D01*
X96126882Y-112318377D01*
X95950105Y-112495154D01*
X94924800Y-111469849D01*
X94924800Y-111469849D01*
G37*
D11*
X95879394Y-111540559D03*
D10*
G36*
X95278353Y-111116295D02*
X95455130Y-110939518D01*
X96480435Y-111964823D01*
X96303658Y-112141600D01*
X95278353Y-111116295D01*
X95278353Y-111116295D01*
G37*
D11*
X96232947Y-111187006D03*
D10*
G36*
X95631906Y-110762742D02*
X95808683Y-110585965D01*
X96833988Y-111611270D01*
X96657211Y-111788047D01*
X95631906Y-110762742D01*
X95631906Y-110762742D01*
G37*
D11*
X96586501Y-110833452D03*
D10*
G36*
X95985460Y-110409188D02*
X96162237Y-110232411D01*
X97187542Y-111257716D01*
X97010765Y-111434493D01*
X95985460Y-110409188D01*
X95985460Y-110409188D01*
G37*
D11*
X96940054Y-110479899D03*
D10*
G36*
X96339013Y-110055635D02*
X96515790Y-109878858D01*
X97541095Y-110904163D01*
X97364318Y-111080940D01*
X96339013Y-110055635D01*
X96339013Y-110055635D01*
G37*
D11*
X97293607Y-110126346D03*
D10*
G36*
X96692566Y-109702082D02*
X96869343Y-109525305D01*
X97894648Y-110550610D01*
X97717871Y-110727387D01*
X96692566Y-109702082D01*
X96692566Y-109702082D01*
G37*
D11*
X97647161Y-109772792D03*
D10*
G36*
X97046120Y-109348528D02*
X97222897Y-109171751D01*
X98248202Y-110197056D01*
X98071425Y-110373833D01*
X97046120Y-109348528D01*
X97046120Y-109348528D01*
G37*
D12*
X46140000Y-135390000D03*
D13*
X46140000Y-132850000D03*
X48680000Y-135390000D03*
X48680000Y-132850000D03*
X51220000Y-135390000D03*
X51220000Y-132850000D03*
X53760000Y-135390000D03*
X53760000Y-132850000D03*
X56300000Y-135390000D03*
X56300000Y-132850000D03*
X58840000Y-135390000D03*
X58840000Y-132850000D03*
X61380000Y-135390000D03*
X61380000Y-132850000D03*
D14*
X45300000Y-111250000D03*
X45300000Y-111750000D03*
X45300000Y-112250000D03*
X45300000Y-112750000D03*
X45300000Y-113250000D03*
X45300000Y-113750000D03*
X45300000Y-114250000D03*
X45300000Y-114750000D03*
X45300000Y-115250000D03*
X45300000Y-115750000D03*
X45300000Y-116250000D03*
X45300000Y-116750000D03*
X45300000Y-117250000D03*
X45300000Y-117750000D03*
X45300000Y-118250000D03*
X45300000Y-118750000D03*
D15*
X47250000Y-120700000D03*
X47750000Y-120700000D03*
X48250000Y-120700000D03*
X48750000Y-120700000D03*
X49250000Y-120700000D03*
X49750000Y-120700000D03*
X50250000Y-120700000D03*
X50750000Y-120700000D03*
X51250000Y-120700000D03*
X51750000Y-120700000D03*
X52250000Y-120700000D03*
X52750000Y-120700000D03*
X53250000Y-120700000D03*
X53750000Y-120700000D03*
X54250000Y-120700000D03*
X54750000Y-120700000D03*
D14*
X56700000Y-118750000D03*
X56700000Y-118250000D03*
X56700000Y-117750000D03*
X56700000Y-117250000D03*
X56700000Y-116750000D03*
X56700000Y-116250000D03*
X56700000Y-115750000D03*
X56700000Y-115250000D03*
X56700000Y-114750000D03*
X56700000Y-114250000D03*
X56700000Y-113750000D03*
X56700000Y-113250000D03*
X56700000Y-112750000D03*
X56700000Y-112250000D03*
X56700000Y-111750000D03*
X56700000Y-111250000D03*
D15*
X54750000Y-109300000D03*
X54250000Y-109300000D03*
X53750000Y-109300000D03*
X53250000Y-109300000D03*
X52750000Y-109300000D03*
X52250000Y-109300000D03*
X51750000Y-109300000D03*
X51250000Y-109300000D03*
X50750000Y-109300000D03*
X50250000Y-109300000D03*
X49750000Y-109300000D03*
X49250000Y-109300000D03*
X48750000Y-109300000D03*
X48250000Y-109300000D03*
X47750000Y-109300000D03*
X47250000Y-109300000D03*
D16*
X51200000Y-89050000D03*
X51200000Y-90550000D03*
D17*
X51750000Y-98500000D03*
X50250000Y-98500000D03*
X47250000Y-107500000D03*
X48750000Y-107500000D03*
D18*
X58660000Y-116900000D03*
X58660000Y-118400000D03*
D19*
X39000000Y-123760000D03*
X39000000Y-121140000D03*
D20*
X53250000Y-107000000D03*
X56250000Y-107000000D03*
D19*
X39000000Y-129010000D03*
X39000000Y-126390000D03*
D18*
X58650000Y-112450000D03*
X58650000Y-113950000D03*
X43000000Y-121500000D03*
X43000000Y-123000000D03*
X43100000Y-127800000D03*
X43100000Y-126300000D03*
D21*
X34900000Y-121550000D03*
X34900000Y-123450000D03*
X35000000Y-126250000D03*
X35000000Y-128150000D03*
D22*
X120329300Y-96300000D03*
X118830700Y-96300000D03*
X118850700Y-99850000D03*
X120349300Y-99850000D03*
X120349300Y-103350000D03*
X118850700Y-103350000D03*
X120349300Y-106850000D03*
X118850700Y-106850000D03*
X118850700Y-110350000D03*
X120349300Y-110350000D03*
X120349300Y-113850000D03*
X118850700Y-113850000D03*
X118850700Y-117350000D03*
X120349300Y-117350000D03*
X120349300Y-120850000D03*
X118850700Y-120850000D03*
X64499300Y-107000000D03*
X63000700Y-107000000D03*
X48500700Y-126500000D03*
X49999300Y-126500000D03*
X49999300Y-123750000D03*
X48500700Y-123750000D03*
X51200000Y-92250700D03*
X51200000Y-93749300D03*
D23*
X34400000Y-107500000D03*
D24*
X34400000Y-104960000D03*
X34400000Y-102420000D03*
D25*
X64500000Y-110000000D03*
X63000000Y-110000000D03*
D16*
X48000000Y-102500000D03*
X48000000Y-101000000D03*
X54000000Y-98000000D03*
X54000000Y-99500000D03*
X54000000Y-102500000D03*
X54000000Y-101000000D03*
D25*
X51750000Y-105000000D03*
X50250000Y-105000000D03*
X42000000Y-113750000D03*
X43500000Y-113750000D03*
X43500000Y-115500000D03*
X42000000Y-115500000D03*
X53500000Y-126500000D03*
X52000000Y-126500000D03*
X52000000Y-123750000D03*
X53500000Y-123750000D03*
D16*
X56300000Y-87250000D03*
X56300000Y-88750000D03*
X60300000Y-88750000D03*
X60300000Y-87250000D03*
X64300000Y-87250000D03*
X64300000Y-88750000D03*
X66300000Y-88750000D03*
X66300000Y-87250000D03*
X85200000Y-128250000D03*
X85200000Y-129750000D03*
X81200000Y-128250000D03*
X81200000Y-129750000D03*
X77200000Y-129750000D03*
X77200000Y-128250000D03*
X73200000Y-128250000D03*
X73200000Y-129750000D03*
X54300000Y-87250000D03*
X54300000Y-88750000D03*
X58300000Y-88750000D03*
X58300000Y-87250000D03*
X62300000Y-87250000D03*
X62300000Y-88750000D03*
X68300000Y-88750000D03*
X68300000Y-87250000D03*
X83200000Y-129750000D03*
X83200000Y-128250000D03*
X79200000Y-128250000D03*
X79200000Y-129750000D03*
X75200000Y-128250000D03*
X75200000Y-129750000D03*
X71200000Y-128250000D03*
X71200000Y-129750000D03*
X108200000Y-129750000D03*
X108200000Y-128250000D03*
X104200000Y-128250000D03*
X104200000Y-129750000D03*
X100200000Y-129750000D03*
X100200000Y-128250000D03*
X96200000Y-128250000D03*
X96200000Y-129750000D03*
X102300000Y-87250000D03*
X102300000Y-88750000D03*
X106300000Y-88750000D03*
X106300000Y-87250000D03*
X110300000Y-87250000D03*
X110300000Y-88750000D03*
X112300000Y-88750000D03*
X112300000Y-87250000D03*
X79300000Y-88750000D03*
X79300000Y-87250000D03*
X83300000Y-87250000D03*
X83300000Y-88750000D03*
X87300000Y-88750000D03*
X87300000Y-87250000D03*
X89300000Y-88750000D03*
X89300000Y-87250000D03*
X106200000Y-129750000D03*
X106200000Y-128250000D03*
X102200000Y-128250000D03*
X102200000Y-129750000D03*
X98200000Y-128250000D03*
X98200000Y-129750000D03*
X94200000Y-129750000D03*
X94200000Y-128250000D03*
X100300000Y-87250000D03*
X100300000Y-88750000D03*
X104300000Y-88750000D03*
X104300000Y-87250000D03*
X108300000Y-87250000D03*
X108300000Y-88750000D03*
X114300000Y-87250000D03*
X114300000Y-88750000D03*
X77300000Y-87250000D03*
X77300000Y-88750000D03*
X81300000Y-88750000D03*
X81300000Y-87250000D03*
X85300000Y-87250000D03*
X85300000Y-88750000D03*
X91300000Y-88750000D03*
X91300000Y-87250000D03*
D26*
X44560000Y-106550000D03*
X40470000Y-106550000D03*
D27*
X36770000Y-113652060D03*
X36770000Y-114302300D03*
X36770000Y-114950000D03*
X36770000Y-115597700D03*
X36770000Y-116247940D03*
D28*
X34095380Y-113751120D03*
X34095380Y-116148880D03*
D29*
X34100000Y-111520000D03*
X34100000Y-118380000D03*
D30*
X36770000Y-117447940D03*
X36770000Y-112447940D03*
D31*
X43866000Y-98450000D03*
X40866000Y-93750000D03*
D32*
X46866000Y-93750000D03*
D33*
X50050000Y-103140000D03*
X51000000Y-103140000D03*
X51950000Y-103140000D03*
X50050000Y-100340000D03*
X51000000Y-100340000D03*
X51950000Y-100340000D03*
D34*
X103350000Y-100100000D03*
X103350000Y-100900000D03*
X103350000Y-101700000D03*
X103350000Y-102500000D03*
X103350000Y-103300000D03*
X103350000Y-104100000D03*
X103350000Y-104900000D03*
X103350000Y-105700000D03*
X103350000Y-106500000D03*
X103350000Y-107300000D03*
X103350000Y-108100000D03*
X103350000Y-108900000D03*
X103350000Y-110500000D03*
X103350000Y-109700000D03*
X103350000Y-111300000D03*
X103350000Y-112100000D03*
X103350000Y-112900000D03*
X103350000Y-113700000D03*
X103350000Y-114500000D03*
X103350000Y-115300000D03*
X103350000Y-116100000D03*
X103350000Y-116900000D03*
X114650000Y-116900000D03*
X114650000Y-116100000D03*
X114650000Y-115300000D03*
X114650000Y-114500000D03*
X114650000Y-113700000D03*
X114650000Y-112900000D03*
X114650000Y-112100000D03*
X114650000Y-111300000D03*
X114650000Y-109700000D03*
X114650000Y-110500000D03*
X114650000Y-108900000D03*
X114650000Y-108100000D03*
X114650000Y-107300000D03*
X114650000Y-106500000D03*
X114650000Y-105700000D03*
X114650000Y-104900000D03*
X114650000Y-104100000D03*
X114650000Y-103300000D03*
X114650000Y-102500000D03*
X114650000Y-101700000D03*
X114650000Y-100900000D03*
X114650000Y-100100000D03*
D35*
X75716855Y-97864235D03*
D10*
G36*
X75699177Y-96969745D02*
X76611345Y-97881913D01*
X75734533Y-98758725D01*
X74822365Y-97846557D01*
X75699177Y-96969745D01*
X75699177Y-96969745D01*
G37*
D35*
X73920804Y-99660287D03*
D10*
G36*
X73903126Y-98765797D02*
X74815294Y-99677965D01*
X73938482Y-100554777D01*
X73026314Y-99642609D01*
X73903126Y-98765797D01*
X73903126Y-98765797D01*
G37*
D35*
X74125865Y-96273245D03*
D10*
G36*
X74108187Y-95378755D02*
X75020355Y-96290923D01*
X74143543Y-97167735D01*
X73231375Y-96255567D01*
X74108187Y-95378755D01*
X74108187Y-95378755D01*
G37*
D35*
X72329814Y-98069296D03*
D10*
G36*
X72312136Y-97174806D02*
X73224304Y-98086974D01*
X72347492Y-98963786D01*
X71435324Y-98051618D01*
X72312136Y-97174806D01*
X72312136Y-97174806D01*
G37*
D13*
X84503500Y-134543500D03*
D12*
X84503500Y-132003500D03*
D13*
X81963500Y-134543500D03*
X81963500Y-132003500D03*
X79423500Y-134543500D03*
X79423500Y-132003500D03*
X76883500Y-134543500D03*
X76883500Y-132003500D03*
X74343500Y-134543500D03*
X74343500Y-132003500D03*
X71803500Y-134543500D03*
D36*
X71803500Y-132003500D03*
X94803500Y-132003500D03*
D13*
X94803500Y-134543500D03*
X97343500Y-132003500D03*
X97343500Y-134543500D03*
X99883500Y-132003500D03*
X99883500Y-134543500D03*
X102423500Y-132003500D03*
X102423500Y-134543500D03*
X104963500Y-132003500D03*
X104963500Y-134543500D03*
D12*
X107503500Y-132003500D03*
D13*
X107503500Y-134543500D03*
D36*
X67696500Y-84996500D03*
D13*
X67696500Y-82456500D03*
X65156500Y-84996500D03*
X65156500Y-82456500D03*
X62616500Y-84996500D03*
X62616500Y-82456500D03*
X60076500Y-84996500D03*
X60076500Y-82456500D03*
X57536500Y-84996500D03*
X57536500Y-82456500D03*
D12*
X54996500Y-84996500D03*
D13*
X54996500Y-82456500D03*
D36*
X90696500Y-84996500D03*
D13*
X90696500Y-82456500D03*
X88156500Y-84996500D03*
X88156500Y-82456500D03*
X85616500Y-84996500D03*
X85616500Y-82456500D03*
X83076500Y-84996500D03*
X83076500Y-82456500D03*
X80536500Y-84996500D03*
X80536500Y-82456500D03*
D12*
X77996500Y-84996500D03*
D13*
X77996500Y-82456500D03*
X100996500Y-82456500D03*
D12*
X100996500Y-84996500D03*
D13*
X103536500Y-82456500D03*
X103536500Y-84996500D03*
X106076500Y-82456500D03*
X106076500Y-84996500D03*
X108616500Y-82456500D03*
X108616500Y-84996500D03*
X111156500Y-82456500D03*
X111156500Y-84996500D03*
X113696500Y-82456500D03*
D36*
X113696500Y-84996500D03*
D37*
X36750000Y-92750000D03*
D38*
X36750000Y-94750000D03*
D39*
X39750000Y-117400000D03*
X39750000Y-115620000D03*
X39750000Y-113630000D03*
X39750000Y-111850000D03*
D40*
X39450000Y-102300000D03*
D41*
X41990000Y-102300000D03*
D42*
X119500000Y-87500000D03*
X119500000Y-85500000D03*
X119500000Y-89500000D03*
D43*
X119500000Y-91600000D03*
X119500000Y-83400000D03*
D44*
X72800000Y-84800000D03*
X72800000Y-91300000D03*
X120000000Y-131840000D03*
X113500000Y-131840000D03*
X113500000Y-126500000D03*
X120000000Y-126500000D03*
D45*
X40250000Y-83500000D03*
X44250000Y-83500000D03*
X48250000Y-83500000D03*
D46*
X50250000Y-85250000D03*
X50250000Y-79250000D03*
X38250000Y-85250000D03*
X38250000Y-79250000D03*
D47*
X60090000Y-113930000D03*
X81000000Y-112122990D03*
X72750000Y-106750000D03*
X65000000Y-103250000D03*
X80515291Y-108057010D03*
X90750000Y-106392990D03*
X72080942Y-109580942D03*
X54150000Y-110650000D03*
X76412849Y-98440424D03*
X112750000Y-109000000D03*
X102250000Y-108000000D03*
X88229482Y-100140403D03*
X91500000Y-103500000D03*
X54250000Y-119500000D03*
X49000000Y-118250000D03*
X77957403Y-101641329D03*
X84750000Y-92500000D03*
X89750000Y-109250000D03*
X68750000Y-103250000D03*
X74750000Y-104750000D03*
X73500000Y-115000000D03*
X75750000Y-117000000D03*
X81750000Y-119500000D03*
X88750000Y-116750000D03*
X90750000Y-114750000D03*
X95750000Y-114000000D03*
X84500000Y-96000000D03*
X81750000Y-97500000D03*
X73250000Y-95250000D03*
X88072839Y-95572830D03*
X84250000Y-101000000D03*
X95434306Y-107184306D03*
X100750000Y-108500000D03*
X88750000Y-116000000D03*
X84250000Y-115000000D03*
X83500000Y-114500000D03*
X49250000Y-122250000D03*
X54750000Y-106250000D03*
X52000000Y-107750000D03*
X48750000Y-122750000D03*
X47500000Y-125500000D03*
X36250000Y-124000000D03*
X36500000Y-125750000D03*
X49500000Y-88000000D03*
X47250000Y-100000000D03*
X49500000Y-97500000D03*
X55500000Y-97750000D03*
X55250000Y-100500000D03*
X59000000Y-101750000D03*
X69000000Y-95250000D03*
X68000000Y-95250000D03*
X68750000Y-93250000D03*
X67750000Y-93250000D03*
X75000000Y-90750000D03*
X83250000Y-94500000D03*
X120350000Y-97420000D03*
X120350000Y-100910000D03*
X120390000Y-104380000D03*
X120350000Y-107880000D03*
X120300000Y-111420000D03*
X120430000Y-114900000D03*
X120400000Y-118420000D03*
X120370000Y-121900000D03*
X115040000Y-128810000D03*
X114590000Y-134240000D03*
X77329100Y-111972105D03*
X58650000Y-111430000D03*
X56830000Y-79140000D03*
X102750000Y-79750000D03*
X68803160Y-96416432D03*
X88960602Y-94710602D03*
X92484857Y-103732049D03*
X85762084Y-106377010D03*
X72646636Y-110146636D03*
X79600000Y-79570000D03*
X105900000Y-137310000D03*
X83230000Y-137500000D03*
X53372483Y-110461623D03*
X58640000Y-119450000D03*
X46440000Y-113160000D03*
X80000000Y-99500000D03*
X89147888Y-102188200D03*
X112750000Y-108199987D03*
X102250000Y-109000000D03*
X87750000Y-99500000D03*
X89250000Y-104000000D03*
X43500000Y-119250000D03*
X46249999Y-115800037D03*
X79106094Y-102466391D03*
X93750000Y-98500000D03*
X71250000Y-109000000D03*
X83000000Y-122750000D03*
X85750000Y-119750000D03*
X75500000Y-104000000D03*
X71000000Y-102000000D03*
X70750000Y-105000000D03*
X79500000Y-117000000D03*
X78500000Y-122750000D03*
X94500000Y-117000000D03*
X92750000Y-118250000D03*
X93750000Y-110750000D03*
X85750000Y-92750000D03*
X78750000Y-94250000D03*
X71000000Y-97500000D03*
X73500000Y-97500000D03*
X84250000Y-99000000D03*
X96000000Y-107750000D03*
X99000000Y-103750000D03*
X92000000Y-110500000D03*
X90000000Y-114000000D03*
X83500000Y-116000000D03*
X78750000Y-113500000D03*
X69000000Y-113500000D03*
X73500000Y-117750000D03*
X63500000Y-119250000D03*
X51000000Y-122250000D03*
X52250000Y-122250000D03*
X52000000Y-106250000D03*
X49750000Y-106250000D03*
X47250000Y-105500000D03*
X38000000Y-105750000D03*
X43000000Y-124000000D03*
X43000000Y-125250000D03*
X40500000Y-126250000D03*
X40500000Y-123750000D03*
X38060000Y-116500000D03*
X40750000Y-117250000D03*
X40750000Y-111750000D03*
X44000000Y-110500000D03*
X56250000Y-105500000D03*
X48250000Y-106250000D03*
X52250000Y-88000000D03*
X51000000Y-102000000D03*
X51750000Y-97500000D03*
X61250000Y-107750000D03*
X61250000Y-106750000D03*
X65000000Y-100500000D03*
X62000000Y-100500000D03*
X63500000Y-101750000D03*
X56000000Y-96500000D03*
X51250000Y-95366000D03*
X73000000Y-116500000D03*
X89986408Y-101711201D03*
X72750000Y-108750000D03*
X78750000Y-101750000D03*
X93500000Y-116000000D03*
X87000000Y-98750000D03*
X75500000Y-99500000D03*
X54100000Y-112460000D03*
X47430000Y-106440000D03*
X46250000Y-116750000D03*
X42750000Y-105750000D03*
X118820000Y-97510000D03*
X118860000Y-101110000D03*
X118840000Y-104620000D03*
X118840000Y-108010000D03*
X118840000Y-111620000D03*
X118840000Y-115120000D03*
X118820000Y-118650000D03*
X118820000Y-122180000D03*
X87130000Y-123500000D03*
X83070000Y-120410000D03*
X83790000Y-120830000D03*
X48060000Y-119350000D03*
X87690000Y-124230000D03*
X44940000Y-119600000D03*
X98500000Y-109500000D03*
X67910000Y-105600000D03*
X82500000Y-97000000D03*
X46567112Y-114026193D03*
X74079151Y-105883288D03*
X75519231Y-104969780D03*
X93460000Y-105160000D03*
X83283196Y-96836835D03*
X72575220Y-107530686D03*
X94090000Y-105750000D03*
X96560000Y-108450000D03*
X96090000Y-109130000D03*
X95420000Y-110080000D03*
X92723673Y-112543743D03*
X92130000Y-113080000D03*
X85990000Y-118970000D03*
X84730000Y-120640000D03*
X76970000Y-113950000D03*
X69750000Y-88750000D03*
X76750000Y-103500000D03*
X77440000Y-89630000D03*
X76400000Y-99340000D03*
X42000000Y-106500000D03*
X52750000Y-100750000D03*
X51000000Y-111250000D03*
X92890000Y-104500000D03*
X46250000Y-117750000D03*
D48*
X58650000Y-113950000D02*
X60070000Y-113950000D01*
X60070000Y-113950000D02*
X60090000Y-113930000D01*
X57950000Y-113950000D02*
X57650000Y-114250000D01*
X57650000Y-114250000D02*
X56700000Y-114250000D01*
X58650000Y-113950000D02*
X57950000Y-113950000D01*
X71996951Y-106750000D02*
X72750000Y-106750000D01*
X71413499Y-106166548D02*
X71996951Y-106750000D01*
X71996861Y-109665023D02*
X72080942Y-109580942D01*
X71996861Y-110250090D02*
X71996861Y-109665023D01*
X71413499Y-110833452D02*
X71996861Y-110250090D01*
X51250000Y-109300000D02*
X51250000Y-108500000D01*
X51250000Y-108500000D02*
X52000000Y-107750000D01*
X54250000Y-109300000D02*
X54250000Y-110550000D01*
X54250000Y-110550000D02*
X54150000Y-110650000D01*
D49*
X76293044Y-98440424D02*
X76412849Y-98440424D01*
X75716855Y-97864235D02*
X76293044Y-98440424D01*
D48*
X114650000Y-108900000D02*
X112850000Y-108900000D01*
X112850000Y-108900000D02*
X112750000Y-109000000D01*
X102250000Y-108000000D02*
X103250000Y-108000000D01*
X103250000Y-108000000D02*
X103350000Y-108100000D01*
X88529481Y-100440402D02*
X88229482Y-100140403D01*
X90355148Y-101084191D02*
X89173270Y-101084191D01*
X90929646Y-100509693D02*
X90355148Y-101084191D01*
X89173270Y-101084191D02*
X88529481Y-100440402D01*
X91500000Y-103500000D02*
X91500000Y-103075736D01*
X91500000Y-103075736D02*
X91053391Y-102629127D01*
X91053391Y-102629127D02*
X91053391Y-101800162D01*
X91053391Y-101800162D02*
X91636753Y-101216800D01*
X54250000Y-119500000D02*
X54250000Y-120700000D01*
X77070354Y-100509693D02*
X77957403Y-101396742D01*
X77957403Y-101396742D02*
X77957403Y-101641329D01*
X73602686Y-104045227D02*
X74177184Y-104619725D01*
X73534820Y-104045227D02*
X73602686Y-104045227D01*
X74177184Y-104619725D02*
X74619725Y-104619725D01*
X74619725Y-104619725D02*
X74750000Y-104750000D01*
X73500000Y-115000000D02*
X74318019Y-115000000D01*
X74318019Y-115000000D02*
X74949033Y-114368986D01*
X75750000Y-117000000D02*
X75750000Y-116396447D01*
X75750000Y-116396447D02*
X76363247Y-115783200D01*
X81750000Y-119500000D02*
X81750000Y-119588835D01*
X81750000Y-119588835D02*
X80959441Y-120379394D01*
X88750000Y-116750000D02*
X89068019Y-116750000D01*
X89068019Y-116750000D02*
X89868986Y-117550967D01*
X92343860Y-115076093D02*
X91760498Y-114492731D01*
X91760498Y-114492731D02*
X91007269Y-114492731D01*
X91007269Y-114492731D02*
X90750000Y-114750000D01*
X95750000Y-114000000D02*
X95510407Y-114000000D01*
X95510407Y-114000000D02*
X94465180Y-112954773D01*
X84500000Y-96000000D02*
X84500000Y-95625631D01*
X84500000Y-95625631D02*
X85272792Y-94852839D01*
X81750000Y-97500000D02*
X81750000Y-97411165D01*
X81750000Y-97411165D02*
X80959441Y-96620606D01*
D49*
X74125865Y-96273245D02*
X74125865Y-96125865D01*
X74125865Y-96125865D02*
X73250000Y-95250000D01*
X74125865Y-96273245D02*
X75716855Y-97864235D01*
D48*
X88072839Y-95572830D02*
X88072839Y-95588326D01*
X88072839Y-95588326D02*
X87040559Y-96620606D01*
X95568743Y-107184306D02*
X95434306Y-107184306D01*
X96586501Y-106166548D02*
X95568743Y-107184306D01*
X88750000Y-116000000D02*
X89049999Y-115700001D01*
X89049999Y-115700001D02*
X90139340Y-115700001D01*
X90139340Y-115700001D02*
X90346284Y-115906945D01*
X90346284Y-115906945D02*
X90929646Y-116490307D01*
X49250000Y-122250000D02*
X48750000Y-121750000D01*
X48750000Y-121750000D02*
X48750000Y-120700000D01*
D50*
X48500700Y-123750000D02*
X48500700Y-122999300D01*
X48500700Y-122999300D02*
X48750000Y-122750000D01*
X48500700Y-126500000D02*
X48500000Y-126500000D01*
X48500000Y-126500000D02*
X47500000Y-125500000D01*
X36250000Y-123769000D02*
X36250000Y-124000000D01*
X34900000Y-123450000D02*
X35931000Y-123450000D01*
X35931000Y-123450000D02*
X36250000Y-123769000D01*
X35000000Y-126250000D02*
X36000000Y-126250000D01*
X36000000Y-126250000D02*
X36500000Y-125750000D01*
D48*
X51200000Y-89050000D02*
X50550000Y-89050000D01*
X50550000Y-89050000D02*
X49500000Y-88000000D01*
X48000000Y-101000000D02*
X48000000Y-100750000D01*
X48000000Y-100750000D02*
X47250000Y-100000000D01*
X48000000Y-101000000D02*
X48000000Y-100496000D01*
X48000000Y-100496000D02*
X48156000Y-100340000D01*
X48156000Y-100340000D02*
X49496000Y-100340000D01*
X49496000Y-100340000D02*
X50050000Y-100340000D01*
X50250000Y-98500000D02*
X50250000Y-100140000D01*
X50250000Y-100140000D02*
X50050000Y-100340000D01*
X50250000Y-98500000D02*
X50250000Y-98250000D01*
X50250000Y-98250000D02*
X49500000Y-97500000D01*
X54000000Y-98000000D02*
X55250000Y-98000000D01*
X55250000Y-98000000D02*
X55500000Y-97750000D01*
X54000000Y-101000000D02*
X54750000Y-101000000D01*
X54750000Y-101000000D02*
X55250000Y-100500000D01*
X75000000Y-90750000D02*
X75000000Y-91647060D01*
X74822640Y-91824420D02*
X74815580Y-91824420D01*
X74815580Y-91824420D02*
X74365001Y-92274999D01*
X74365001Y-92274999D02*
X73774999Y-92274999D01*
X73774999Y-92274999D02*
X72800000Y-91300000D01*
X75000000Y-91647060D02*
X74822640Y-91824420D01*
X82727208Y-94852839D02*
X82897161Y-94852839D01*
X82897161Y-94852839D02*
X83250000Y-94500000D01*
X120329300Y-96300000D02*
X120329300Y-97399300D01*
X120329300Y-97399300D02*
X120350000Y-97420000D01*
X120349300Y-99850000D02*
X120349300Y-100909300D01*
X120349300Y-100909300D02*
X120350000Y-100910000D01*
X120349300Y-103350000D02*
X120349300Y-104339300D01*
X120349300Y-104339300D02*
X120390000Y-104380000D01*
X120349300Y-106850000D02*
X120349300Y-107879300D01*
X120349300Y-107879300D02*
X120350000Y-107880000D01*
X120349300Y-110350000D02*
X120349300Y-111370700D01*
X120349300Y-111370700D02*
X120300000Y-111420000D01*
X120349300Y-113850000D02*
X120349300Y-114819300D01*
X120349300Y-114819300D02*
X120430000Y-114900000D01*
X120349300Y-117350000D02*
X120349300Y-118369300D01*
X120349300Y-118369300D02*
X120400000Y-118420000D01*
X120349300Y-120850000D02*
X120349300Y-121879300D01*
X120349300Y-121879300D02*
X120370000Y-121900000D01*
X92697413Y-114722540D02*
X91974873Y-114000000D01*
X91974873Y-114000000D02*
X90424264Y-114000000D01*
X90424264Y-114000000D02*
X90000000Y-114000000D01*
X58650000Y-112450000D02*
X58650000Y-111430000D01*
X57990000Y-112450000D02*
X57290000Y-111750000D01*
X57290000Y-111750000D02*
X56700000Y-111750000D01*
X58650000Y-112450000D02*
X57990000Y-112450000D01*
X51200000Y-93749300D02*
X51200000Y-95316000D01*
X51200000Y-95316000D02*
X51250000Y-95366000D01*
X76716800Y-116136753D02*
X78750000Y-114103553D01*
X78750000Y-114103553D02*
X78750000Y-113500000D01*
X92657038Y-103732049D02*
X92484857Y-103732049D01*
X93404520Y-102984567D02*
X92657038Y-103732049D01*
X72646636Y-110307423D02*
X72646636Y-110146636D01*
X71767053Y-111187006D02*
X72646636Y-110307423D01*
X53672482Y-110161624D02*
X53372483Y-110461623D01*
X53750000Y-110084106D02*
X53672482Y-110161624D01*
X53750000Y-109300000D02*
X53750000Y-110084106D01*
X58660000Y-118400000D02*
X58660000Y-119430000D01*
X58660000Y-119430000D02*
X58640000Y-119450000D01*
X45300000Y-113250000D02*
X46350000Y-113250000D01*
X46350000Y-113250000D02*
X46440000Y-113160000D01*
X78484567Y-99095480D02*
X79067929Y-99678842D01*
X79067929Y-99678842D02*
X79821158Y-99678842D01*
X79821158Y-99678842D02*
X80000000Y-99500000D01*
X114650000Y-108100000D02*
X112849987Y-108100000D01*
X112849987Y-108100000D02*
X112750000Y-108199987D01*
X102250000Y-109000000D02*
X103250000Y-109000000D01*
X103250000Y-109000000D02*
X103350000Y-108900000D01*
X89161880Y-98741926D02*
X88403806Y-99500000D01*
X88403806Y-99500000D02*
X87750000Y-99500000D01*
X56700000Y-117750000D02*
X58010000Y-117750000D01*
X58010000Y-117750000D02*
X58660000Y-118400000D01*
D51*
X43500000Y-117750000D02*
X44000000Y-117250000D01*
X44000000Y-117250000D02*
X45300000Y-117250000D01*
X43500000Y-119250000D02*
X43500000Y-117750000D01*
X45300000Y-118250000D02*
X44500000Y-118250000D01*
X44500000Y-118250000D02*
X43500000Y-119250000D01*
X45300000Y-116250000D02*
X45800036Y-116250000D01*
X45800036Y-116250000D02*
X46249999Y-115800037D01*
X45300000Y-115750000D02*
X46199962Y-115750000D01*
X46199962Y-115750000D02*
X46249999Y-115800037D01*
D48*
X76716800Y-100863247D02*
X77330401Y-101476848D01*
X77330401Y-101476848D02*
X77330401Y-101942291D01*
X77330401Y-101942291D02*
X77854501Y-102466391D01*
X77854501Y-102466391D02*
X78681830Y-102466391D01*
X78681830Y-102466391D02*
X79106094Y-102466391D01*
X70352839Y-109772792D02*
X71125631Y-109000000D01*
X71125631Y-109000000D02*
X71250000Y-109000000D01*
X82727208Y-122147161D02*
X82727208Y-122477208D01*
X82727208Y-122477208D02*
X83000000Y-122750000D01*
X86687006Y-120732947D02*
X86687006Y-120687006D01*
X86687006Y-120687006D02*
X85750000Y-119750000D01*
X74595480Y-102984567D02*
X75500000Y-103889087D01*
X75500000Y-103889087D02*
X75500000Y-104000000D01*
X71767053Y-105812994D02*
X70954059Y-105000000D01*
X70954059Y-105000000D02*
X70750000Y-105000000D01*
X78484567Y-117904520D02*
X79389087Y-117000000D01*
X79389087Y-117000000D02*
X79500000Y-117000000D01*
X94818734Y-112601219D02*
X93750000Y-111532485D01*
X93750000Y-111532485D02*
X93750000Y-110750000D01*
D49*
X72329814Y-98069296D02*
X71569296Y-98069296D01*
X71569296Y-98069296D02*
X71000000Y-97500000D01*
D48*
X96940054Y-106520101D02*
X96000000Y-107460155D01*
X96000000Y-107460155D02*
X96000000Y-107750000D01*
X51000000Y-122250000D02*
X52250000Y-122250000D01*
X51250000Y-120700000D02*
X51250000Y-122000000D01*
X51250000Y-122000000D02*
X51000000Y-122250000D01*
D50*
X43000000Y-123000000D02*
X43000000Y-124000000D01*
X43100000Y-126300000D02*
X43100000Y-125350000D01*
X43100000Y-125350000D02*
X43000000Y-125250000D01*
X39000000Y-126390000D02*
X40360000Y-126390000D01*
X40360000Y-126390000D02*
X40500000Y-126250000D01*
X39000000Y-123760000D02*
X40490000Y-123760000D01*
X40490000Y-123760000D02*
X40500000Y-123750000D01*
X38060000Y-116500000D02*
X38960000Y-117400000D01*
X36770000Y-116247940D02*
X37807940Y-116247940D01*
X37807940Y-116247940D02*
X38060000Y-116500000D01*
X39750000Y-117400000D02*
X40600000Y-117400000D01*
X40600000Y-117400000D02*
X40750000Y-117250000D01*
X39750000Y-111850000D02*
X40650000Y-111850000D01*
X40650000Y-111850000D02*
X40750000Y-111750000D01*
D48*
X44000000Y-110500000D02*
X44550000Y-110500000D01*
X44550000Y-110500000D02*
X45300000Y-111250000D01*
D50*
X56250000Y-107000000D02*
X56250000Y-105500000D01*
D48*
X48750000Y-107500000D02*
X48750000Y-106750000D01*
X48750000Y-106750000D02*
X48250000Y-106250000D01*
X51000000Y-103140000D02*
X51000000Y-102000000D01*
X51750000Y-98500000D02*
X51750000Y-97500000D01*
X63000700Y-107000000D02*
X62000000Y-107000000D01*
X62000000Y-107000000D02*
X61250000Y-107750000D01*
D50*
X38960000Y-117400000D02*
X39750000Y-117400000D01*
D48*
X78484567Y-117904520D02*
X78484567Y-117915433D01*
X76009693Y-115429646D02*
X74939339Y-116500000D01*
X74939339Y-116500000D02*
X73000000Y-116500000D01*
D49*
X79049999Y-101450001D02*
X78750000Y-101750000D01*
X79950001Y-101450001D02*
X79049999Y-101450001D01*
X80000000Y-101500000D02*
X79950001Y-101450001D01*
X74108328Y-108750000D02*
X80000000Y-102858328D01*
X72750000Y-108750000D02*
X74108328Y-108750000D01*
X80000000Y-102858328D02*
X80000000Y-101500000D01*
X85750000Y-100000000D02*
X86700001Y-99049999D01*
X80615924Y-100000000D02*
X85750000Y-100000000D01*
X79165923Y-101450001D02*
X80615924Y-100000000D01*
X86700001Y-99049999D02*
X87000000Y-98750000D01*
X79049999Y-101450001D02*
X79165923Y-101450001D01*
D48*
X88277184Y-102972816D02*
X87000000Y-101695632D01*
X87000000Y-101695632D02*
X87000000Y-98750000D01*
X89250000Y-102972816D02*
X88277184Y-102972816D01*
X89986408Y-102236408D02*
X89250000Y-102972816D01*
X89986408Y-101711201D02*
X89986408Y-102236408D01*
X90435246Y-101711201D02*
X90410672Y-101711201D01*
X90410672Y-101711201D02*
X89986408Y-101711201D01*
X91283200Y-100863247D02*
X90435246Y-101711201D01*
X78750000Y-101750000D02*
X78750000Y-101482233D01*
X78750000Y-101482233D02*
X77423907Y-100156140D01*
X93500000Y-116000000D02*
X93075736Y-116000000D01*
X93075736Y-116000000D02*
X93062728Y-116013008D01*
X93062728Y-116013008D02*
X92573669Y-116013008D01*
X92573669Y-116013008D02*
X91990307Y-115429646D01*
X87000000Y-98750000D02*
X87032485Y-98750000D01*
X87032485Y-98750000D02*
X88101219Y-97681266D01*
D49*
X75500000Y-99500000D02*
X74081091Y-99500000D01*
X74081091Y-99500000D02*
X73920804Y-99660287D01*
D48*
X73920804Y-99660287D02*
X74447598Y-100187081D01*
X74447598Y-100187081D02*
X75333528Y-100187081D01*
X75333528Y-100187081D02*
X75779885Y-100633438D01*
X75779885Y-100633438D02*
X76363247Y-101216800D01*
X54750000Y-110987964D02*
X54750000Y-112790000D01*
X54750000Y-112790000D02*
X54750000Y-115554000D01*
X54100000Y-112460000D02*
X54524264Y-112460000D01*
X54524264Y-112460000D02*
X54750000Y-112685736D01*
X54750000Y-112685736D02*
X54750000Y-112790000D01*
X54750000Y-115554000D02*
X55946000Y-116750000D01*
X55946000Y-116750000D02*
X56700000Y-116750000D01*
X54750000Y-109675000D02*
X55129000Y-110054000D01*
X54750000Y-109300000D02*
X54750000Y-109675000D01*
X55129000Y-110054000D02*
X55129000Y-110608964D01*
X55129000Y-110608964D02*
X54750000Y-110987964D01*
X47430000Y-106440000D02*
X47430000Y-107320000D01*
X47430000Y-107320000D02*
X47250000Y-107500000D01*
D51*
X46250000Y-116750000D02*
X45300000Y-116750000D01*
D48*
X56700000Y-116750000D02*
X58510000Y-116750000D01*
X58510000Y-116750000D02*
X58660000Y-116900000D01*
X47250000Y-109300000D02*
X47250000Y-107500000D01*
X54450000Y-108370000D02*
X54750000Y-108670000D01*
X54750000Y-108670000D02*
X54750000Y-109300000D01*
X54070000Y-108370000D02*
X54450000Y-108370000D01*
X53250000Y-107550000D02*
X54070000Y-108370000D01*
X53250000Y-107000000D02*
X53250000Y-107550000D01*
X44560000Y-106550000D02*
X43550000Y-106550000D01*
X43550000Y-106550000D02*
X42750000Y-105750000D01*
X46680000Y-111460000D02*
X46390000Y-111750000D01*
X46390000Y-111750000D02*
X45300000Y-111750000D01*
X46680000Y-110790000D02*
X46680000Y-111460000D01*
X44560000Y-108670000D02*
X46680000Y-110790000D01*
X44560000Y-106550000D02*
X44560000Y-108670000D01*
X66300000Y-87250000D02*
X65596000Y-87250000D01*
X65596000Y-87250000D02*
X63342500Y-84996500D01*
X63342500Y-84996500D02*
X62616500Y-84996500D01*
X63864000Y-86310000D02*
X61390000Y-86310000D01*
X61390000Y-86310000D02*
X60076500Y-84996500D01*
X64300000Y-87250000D02*
X64300000Y-86746000D01*
X64300000Y-86746000D02*
X63864000Y-86310000D01*
X60300000Y-87250000D02*
X59596000Y-87250000D01*
X59596000Y-87250000D02*
X58726000Y-86380000D01*
X58726000Y-86380000D02*
X57698686Y-86380000D01*
X57698686Y-86380000D02*
X57536500Y-86217814D01*
X57536500Y-86217814D02*
X57536500Y-84996500D01*
X56300000Y-87250000D02*
X56100000Y-87250000D01*
X56100000Y-87250000D02*
X54996500Y-86146500D01*
X54996500Y-86146500D02*
X54996500Y-86114100D01*
X54996500Y-86114100D02*
X54996500Y-84996500D01*
X73700000Y-130750000D02*
X73200000Y-130250000D01*
X73200000Y-130250000D02*
X73200000Y-129750000D01*
X75140000Y-130750000D02*
X73700000Y-130750000D01*
X76393500Y-132003500D02*
X75140000Y-130750000D01*
X76883500Y-132003500D02*
X76393500Y-132003500D01*
X77200000Y-129750000D02*
X77200000Y-129780000D01*
X77200000Y-129780000D02*
X79423500Y-132003500D01*
X81200000Y-129750000D02*
X81200000Y-131240000D01*
X81200000Y-131240000D02*
X81963500Y-132003500D01*
X85200000Y-129750000D02*
X85200000Y-131307000D01*
X85200000Y-131307000D02*
X84503500Y-132003500D01*
X83200000Y-129750000D02*
X83200000Y-133240000D01*
X83200000Y-133240000D02*
X84503500Y-134543500D01*
X80720000Y-131310000D02*
X80720000Y-133300000D01*
X80720000Y-133300000D02*
X81963500Y-134543500D01*
X79200000Y-129790000D02*
X80720000Y-131310000D01*
X79200000Y-129750000D02*
X79200000Y-129790000D01*
X78210000Y-131620000D02*
X78210000Y-133330000D01*
X78210000Y-133330000D02*
X79423500Y-134543500D01*
X77370000Y-130780000D02*
X78210000Y-131620000D01*
X75990000Y-130780000D02*
X77370000Y-130780000D01*
X75200000Y-129990000D02*
X75990000Y-130780000D01*
X75200000Y-129750000D02*
X75200000Y-129990000D01*
X73580000Y-133270000D02*
X75610000Y-133270000D01*
X75610000Y-133270000D02*
X76883500Y-134543500D01*
X73060000Y-132750000D02*
X73580000Y-133270000D01*
X73060000Y-131010000D02*
X73060000Y-132750000D01*
X71800000Y-129750000D02*
X73060000Y-131010000D01*
X71200000Y-129750000D02*
X71800000Y-129750000D01*
X53490000Y-85936000D02*
X53490000Y-83963000D01*
X53490000Y-83963000D02*
X54996500Y-82456500D01*
X54300000Y-87250000D02*
X54300000Y-86746000D01*
X54300000Y-86746000D02*
X53490000Y-85936000D01*
X56340000Y-85994000D02*
X56340000Y-83653000D01*
X56340000Y-83653000D02*
X57536500Y-82456500D01*
X58300000Y-87250000D02*
X57596000Y-87250000D01*
X57596000Y-87250000D02*
X56340000Y-85994000D01*
X58810000Y-85492090D02*
X58810000Y-83723000D01*
X58810000Y-83723000D02*
X60076500Y-82456500D01*
X62300000Y-87250000D02*
X61596000Y-87250000D01*
X61596000Y-87250000D02*
X60533101Y-86187101D01*
X60533101Y-86187101D02*
X59505011Y-86187101D01*
X59505011Y-86187101D02*
X58810000Y-85492090D01*
X68300000Y-87250000D02*
X67596000Y-87250000D01*
X67596000Y-87250000D02*
X66347101Y-86001101D01*
X66347101Y-86001101D02*
X66347101Y-84425011D01*
X66347101Y-84425011D02*
X65569191Y-83647101D01*
X65569191Y-83647101D02*
X63807101Y-83647101D01*
X63807101Y-83647101D02*
X63480099Y-83320099D01*
X63480099Y-83320099D02*
X62616500Y-82456500D01*
X97870000Y-130770000D02*
X99103500Y-132003500D01*
X99103500Y-132003500D02*
X99883500Y-132003500D01*
X96960000Y-130770000D02*
X97870000Y-130770000D01*
X96200000Y-130010000D02*
X96960000Y-130770000D01*
X96200000Y-129750000D02*
X96200000Y-130010000D01*
X102423500Y-132003500D02*
X102423500Y-131973500D01*
X102423500Y-131973500D02*
X100200000Y-129750000D01*
X104963500Y-131363500D02*
X104200000Y-130600000D01*
X104200000Y-130600000D02*
X104200000Y-129750000D01*
X104963500Y-132003500D02*
X104963500Y-131363500D01*
X107503500Y-131206500D02*
X108200000Y-130510000D01*
X108200000Y-130510000D02*
X108200000Y-129750000D01*
X107503500Y-132003500D02*
X107503500Y-131206500D01*
X112300000Y-87250000D02*
X111596000Y-87250000D01*
X111596000Y-87250000D02*
X110341990Y-85995990D01*
X110341990Y-85995990D02*
X109615990Y-85995990D01*
X109615990Y-85995990D02*
X108616500Y-84996500D01*
X108110000Y-86450000D02*
X106656500Y-84996500D01*
X106656500Y-84996500D02*
X106076500Y-84996500D01*
X109490000Y-86450000D02*
X108110000Y-86450000D01*
X110290000Y-87250000D02*
X109490000Y-86450000D01*
X110300000Y-87250000D02*
X110290000Y-87250000D01*
X104900000Y-86290000D02*
X104830000Y-86290000D01*
X104830000Y-86290000D02*
X103536500Y-84996500D01*
X105860000Y-87250000D02*
X104900000Y-86290000D01*
X106300000Y-87250000D02*
X105860000Y-87250000D01*
X102300000Y-87220000D02*
X100996500Y-85916500D01*
X100996500Y-85916500D02*
X100996500Y-84996500D01*
X102300000Y-87250000D02*
X102300000Y-87220000D01*
X89054000Y-86500000D02*
X87696067Y-86500000D01*
X87696067Y-86500000D02*
X86192567Y-84996500D01*
X86192567Y-84996500D02*
X85616500Y-84996500D01*
X89300000Y-87250000D02*
X89300000Y-86746000D01*
X89300000Y-86746000D02*
X89054000Y-86500000D01*
X87300000Y-87250000D02*
X87300000Y-86746000D01*
X87300000Y-86746000D02*
X86741101Y-86187101D01*
X86741101Y-86187101D02*
X84267101Y-86187101D01*
X84267101Y-86187101D02*
X83940099Y-85860099D01*
X83940099Y-85860099D02*
X83076500Y-84996500D01*
X83300000Y-87250000D02*
X82970000Y-87250000D01*
X82970000Y-87250000D02*
X82380000Y-86660000D01*
X82380000Y-86660000D02*
X80978686Y-86660000D01*
X80978686Y-86660000D02*
X80536500Y-86217814D01*
X80536500Y-86217814D02*
X80536500Y-84996500D01*
X79300000Y-87250000D02*
X78596000Y-87250000D01*
X78596000Y-87250000D02*
X77996500Y-86650500D01*
X77996500Y-86650500D02*
X77996500Y-86114100D01*
X77996500Y-86114100D02*
X77996500Y-84996500D01*
X99220000Y-83290000D02*
X100053500Y-82456500D01*
X100053500Y-82456500D02*
X100996500Y-82456500D01*
X99220000Y-85960000D02*
X99220000Y-83290000D01*
X100300000Y-87040000D02*
X99220000Y-85960000D01*
X100300000Y-87250000D02*
X100300000Y-87040000D01*
X102270000Y-85790000D02*
X102270000Y-83723000D01*
X102270000Y-83723000D02*
X103536500Y-82456500D01*
X103730000Y-87250000D02*
X102270000Y-85790000D01*
X104300000Y-87250000D02*
X103730000Y-87250000D01*
X104770000Y-85460000D02*
X104770000Y-83763000D01*
X104770000Y-83763000D02*
X106076500Y-82456500D01*
X105780000Y-86470000D02*
X104770000Y-85460000D01*
X107480000Y-86470000D02*
X105780000Y-86470000D01*
X108260000Y-87250000D02*
X107480000Y-86470000D01*
X108300000Y-87250000D02*
X108260000Y-87250000D01*
X112400000Y-84300000D02*
X111905899Y-83805899D01*
X111905899Y-83805899D02*
X109965899Y-83805899D01*
X109965899Y-83805899D02*
X109480099Y-83320099D01*
X109480099Y-83320099D02*
X108616500Y-82456500D01*
X112400000Y-86054000D02*
X112400000Y-84300000D01*
X114300000Y-87250000D02*
X113596000Y-87250000D01*
X113596000Y-87250000D02*
X112400000Y-86054000D01*
X77300000Y-87250000D02*
X76596000Y-87250000D01*
X76596000Y-87250000D02*
X76250000Y-86904000D01*
X76250000Y-86904000D02*
X76250000Y-82981686D01*
X76250000Y-82981686D02*
X76775186Y-82456500D01*
X76775186Y-82456500D02*
X77996500Y-82456500D01*
X79250000Y-85904000D02*
X79250000Y-83743000D01*
X79250000Y-83743000D02*
X80536500Y-82456500D01*
X81300000Y-87250000D02*
X80596000Y-87250000D01*
X80596000Y-87250000D02*
X79250000Y-85904000D01*
X85300000Y-87250000D02*
X84596000Y-87250000D01*
X84596000Y-87250000D02*
X83551990Y-86205990D01*
X83551990Y-86205990D02*
X82523900Y-86205990D01*
X82523900Y-86205990D02*
X81885899Y-85567989D01*
X81885899Y-85567989D02*
X81885899Y-83647101D01*
X81885899Y-83647101D02*
X82212901Y-83320099D01*
X82212901Y-83320099D02*
X83076500Y-82456500D01*
X91300000Y-87250000D02*
X91100000Y-87250000D01*
X91100000Y-87250000D02*
X89347101Y-85497101D01*
X89347101Y-85497101D02*
X89347101Y-84425011D01*
X89347101Y-84425011D02*
X88569191Y-83647101D01*
X88569191Y-83647101D02*
X86807101Y-83647101D01*
X86807101Y-83647101D02*
X86480099Y-83320099D01*
X86480099Y-83320099D02*
X85616500Y-82456500D01*
X106230000Y-130520000D02*
X106230000Y-133270000D01*
X106230000Y-133270000D02*
X107503500Y-134543500D01*
X106200000Y-130490000D02*
X106230000Y-130520000D01*
X106200000Y-129750000D02*
X106200000Y-130490000D01*
X103680000Y-131260000D02*
X103680000Y-133260000D01*
X103680000Y-133260000D02*
X104963500Y-134543500D01*
X102200000Y-129780000D02*
X103680000Y-131260000D01*
X102200000Y-129750000D02*
X102200000Y-129780000D01*
X101180000Y-131530000D02*
X101180000Y-133300000D01*
X101180000Y-133300000D02*
X102423500Y-134543500D01*
X100460000Y-130810000D02*
X101180000Y-131530000D01*
X98700000Y-130810000D02*
X100460000Y-130810000D01*
X98200000Y-130310000D02*
X98700000Y-130810000D01*
X98200000Y-129750000D02*
X98200000Y-130310000D01*
X97950000Y-133230000D02*
X99263500Y-134543500D01*
X99263500Y-134543500D02*
X99883500Y-134543500D01*
X96680000Y-133230000D02*
X97950000Y-133230000D01*
X96070000Y-132620000D02*
X96680000Y-133230000D01*
X96070000Y-131300000D02*
X96070000Y-132620000D01*
X94520000Y-129750000D02*
X96070000Y-131300000D01*
X94200000Y-129750000D02*
X94520000Y-129750000D01*
X118820000Y-97510000D02*
X118820000Y-96310700D01*
X118820000Y-96310700D02*
X118830700Y-96300000D01*
X118860000Y-101110000D02*
X118860000Y-99859300D01*
X118860000Y-99859300D02*
X118850700Y-99850000D01*
X118750000Y-99499300D02*
X118750700Y-99500000D01*
X118840000Y-104620000D02*
X118840000Y-103360700D01*
X118840000Y-103360700D02*
X118850700Y-103350000D01*
X118840000Y-108010000D02*
X118840000Y-106860700D01*
X118840000Y-106860700D02*
X118850700Y-106850000D01*
X118840000Y-111620000D02*
X118840000Y-110360700D01*
X118840000Y-110360700D02*
X118850700Y-110350000D01*
X118840000Y-115120000D02*
X118840000Y-113860700D01*
X118840000Y-113860700D02*
X118850700Y-113850000D01*
X118820000Y-118650000D02*
X118820000Y-117380700D01*
X118820000Y-117380700D02*
X118850700Y-117350000D01*
X118820000Y-122180000D02*
X118820000Y-120880700D01*
X118820000Y-120880700D02*
X118850700Y-120850000D01*
X64499300Y-107770700D02*
X63000000Y-109270000D01*
X63000000Y-109270000D02*
X63000000Y-110000000D01*
X64499300Y-107000000D02*
X64499300Y-107770700D01*
X52000000Y-126500000D02*
X49999300Y-126500000D01*
X49999300Y-123750000D02*
X52000000Y-123750000D01*
X86490000Y-122860000D02*
X86490000Y-122657261D01*
X86490000Y-122657261D02*
X85626346Y-121793607D01*
X87130000Y-123500000D02*
X86490000Y-122860000D01*
X52780000Y-127250000D02*
X56300000Y-130770000D01*
X56300000Y-130770000D02*
X56300000Y-132850000D01*
X52780000Y-125720000D02*
X52780000Y-127250000D01*
X52070000Y-125010000D02*
X52780000Y-125720000D01*
X48070000Y-125010000D02*
X52070000Y-125010000D01*
X47250000Y-124190000D02*
X48070000Y-125010000D01*
X47250000Y-120700000D02*
X47250000Y-124190000D01*
X83070000Y-120410000D02*
X82039946Y-121440054D01*
X82039946Y-121440054D02*
X82020101Y-121440054D01*
X51360000Y-127990000D02*
X53760000Y-130390000D01*
X53760000Y-130390000D02*
X53760000Y-132850000D01*
X47560000Y-127990000D02*
X51360000Y-127990000D01*
X46680000Y-127110000D02*
X47560000Y-127990000D01*
X46680000Y-120130000D02*
X46680000Y-127110000D01*
X47050000Y-119760000D02*
X46680000Y-120130000D01*
X47570000Y-119760000D02*
X47050000Y-119760000D01*
X47750000Y-119940000D02*
X47570000Y-119760000D01*
X47750000Y-120700000D02*
X47750000Y-119940000D01*
X83530000Y-121090000D02*
X83077261Y-121090000D01*
X83077261Y-121090000D02*
X82373654Y-121793607D01*
X83790000Y-120830000D02*
X83530000Y-121090000D01*
X48060000Y-119450000D02*
X48250000Y-119640000D01*
X48250000Y-119640000D02*
X48250000Y-120700000D01*
X48060000Y-119350000D02*
X48060000Y-119450000D01*
X86030000Y-123320000D02*
X86030000Y-122904369D01*
X86030000Y-122904369D02*
X85272792Y-122147161D01*
X86710000Y-124000000D02*
X86030000Y-123320000D01*
X86710000Y-124230000D02*
X86710000Y-124000000D01*
X87690000Y-124230000D02*
X86710000Y-124230000D01*
X44970000Y-119600000D02*
X45300000Y-119270000D01*
X45300000Y-119270000D02*
X45300000Y-118750000D01*
X44940000Y-119600000D02*
X44970000Y-119600000D01*
D50*
X38140000Y-113220000D02*
X38140000Y-111240000D01*
X38140000Y-111240000D02*
X34400000Y-107500000D01*
X37707940Y-113652060D02*
X38140000Y-113220000D01*
X36770000Y-113652060D02*
X37707940Y-113652060D01*
D48*
X97647161Y-109772792D02*
X98227208Y-109772792D01*
X98227208Y-109772792D02*
X98500000Y-109500000D01*
X68680000Y-106050000D02*
X69882739Y-106050000D01*
X67746000Y-106050000D02*
X68680000Y-106050000D01*
X68680000Y-106050000D02*
X68360000Y-106050000D01*
X68360000Y-106050000D02*
X67910000Y-105600000D01*
X69882739Y-106050000D02*
X70706393Y-106873654D01*
X64500000Y-110000000D02*
X64500000Y-109296000D01*
X64500000Y-109296000D02*
X67746000Y-106050000D01*
X82750000Y-96325736D02*
X82750000Y-96289845D01*
X82750000Y-96289845D02*
X82020101Y-95559946D01*
X82500000Y-97000000D02*
X82500000Y-96575736D01*
X82500000Y-96575736D02*
X82750000Y-96325736D01*
X52672998Y-101372998D02*
X53800000Y-102500000D01*
X53800000Y-102500000D02*
X54000000Y-102500000D01*
X51000000Y-101144000D02*
X51228998Y-101372998D01*
X51000000Y-100340000D02*
X51000000Y-101144000D01*
X51228998Y-101372998D02*
X52672998Y-101372998D01*
X47520000Y-110430000D02*
X47750000Y-110200000D01*
X47750000Y-110200000D02*
X47750000Y-109300000D01*
X47100000Y-110430000D02*
X47520000Y-110430000D01*
X46080000Y-109410000D02*
X47100000Y-110430000D01*
X46080000Y-102600000D02*
X46080000Y-109410000D01*
X46950000Y-101730000D02*
X46080000Y-102600000D01*
X50220000Y-101730000D02*
X46950000Y-101730000D01*
X51000000Y-100950000D02*
X50220000Y-101730000D01*
X51000000Y-100340000D02*
X51000000Y-100950000D01*
X43870000Y-113750000D02*
X44370000Y-114250000D01*
X44370000Y-114250000D02*
X45300000Y-114250000D01*
X43500000Y-113750000D02*
X43870000Y-113750000D01*
X43500000Y-115500000D02*
X43630000Y-115500000D01*
X43630000Y-115500000D02*
X44380000Y-114750000D01*
X44380000Y-114750000D02*
X45300000Y-114750000D01*
X46204767Y-114026193D02*
X46567112Y-114026193D01*
X45928574Y-113750000D02*
X46204767Y-114026193D01*
X45300000Y-113750000D02*
X45928574Y-113750000D01*
X72827713Y-104752334D02*
X73958667Y-105883288D01*
X73958667Y-105883288D02*
X74079151Y-105883288D01*
X75219232Y-105269779D02*
X75519231Y-104969780D01*
X73856221Y-105073736D02*
X74145772Y-105073736D01*
X73181266Y-104398781D02*
X73856221Y-105073736D01*
X74449038Y-105377002D02*
X75112009Y-105377002D01*
X75112009Y-105377002D02*
X75219232Y-105269779D01*
X74145772Y-105073736D02*
X74449038Y-105377002D01*
X73426217Y-111140000D02*
X75552261Y-109013956D01*
X73228272Y-111140000D02*
X73426217Y-111140000D01*
X72474159Y-111894113D02*
X73228272Y-111140000D01*
X79660001Y-105459999D02*
X93160001Y-105459999D01*
X93160001Y-105459999D02*
X93460000Y-105160000D01*
X75552261Y-109013956D02*
X76106044Y-109013956D01*
X76106044Y-109013956D02*
X79660001Y-105459999D01*
X83283196Y-96412571D02*
X83283196Y-96836835D01*
X83283196Y-96115935D02*
X83283196Y-96412571D01*
X82373654Y-95206393D02*
X83283196Y-96115935D01*
X72150956Y-107530686D02*
X72575220Y-107530686D01*
X72070531Y-107530686D02*
X72150956Y-107530686D01*
X71059946Y-106520101D02*
X72070531Y-107530686D01*
X92680000Y-107160000D02*
X93790001Y-106049999D01*
X93790001Y-106049999D02*
X94090000Y-105750000D01*
X75740318Y-109467967D02*
X76305829Y-109467967D01*
X78613796Y-107160000D02*
X92680000Y-107160000D01*
X76305829Y-109467967D02*
X78613796Y-107160000D01*
X73543981Y-111664304D02*
X75740318Y-109467967D01*
X73411075Y-111664304D02*
X73543981Y-111664304D01*
X72827713Y-112247666D02*
X73411075Y-111664304D01*
X75928375Y-109921978D02*
X76493886Y-109921978D01*
X76493886Y-109921978D02*
X77705864Y-108710000D01*
X77705864Y-108710000D02*
X89070000Y-108710000D01*
X96135736Y-108450000D02*
X96560000Y-108450000D01*
X89910000Y-107870000D02*
X94190000Y-107870000D01*
X94190000Y-107870000D02*
X94770000Y-108450000D01*
X73181266Y-112601219D02*
X73249134Y-112601219D01*
X73249134Y-112601219D02*
X75928375Y-109921978D01*
X94770000Y-108450000D02*
X96135736Y-108450000D01*
X89070000Y-108710000D02*
X89910000Y-107870000D01*
X95665736Y-109130000D02*
X96090000Y-109130000D01*
X77087932Y-109970000D02*
X90637932Y-109970000D01*
X76681943Y-110375989D02*
X77087932Y-109970000D01*
X76178642Y-110375989D02*
X76681943Y-110375989D01*
X73534820Y-112954773D02*
X73599858Y-112954773D01*
X90637932Y-109970000D02*
X91477932Y-109130000D01*
X91477932Y-109130000D02*
X95665736Y-109130000D01*
X73599858Y-112954773D02*
X76178642Y-110375989D01*
X90480000Y-110830000D02*
X76366699Y-110830000D01*
X76366699Y-110830000D02*
X73888373Y-113308326D01*
X91590000Y-109720000D02*
X90480000Y-110830000D01*
X92520000Y-109720000D02*
X91590000Y-109720000D01*
X92880000Y-110080000D02*
X92520000Y-109720000D01*
X95420000Y-110080000D02*
X92880000Y-110080000D01*
X92423674Y-112243744D02*
X92723673Y-112543743D01*
X77772052Y-111345104D02*
X77846948Y-111420000D01*
X74241926Y-113661880D02*
X76558702Y-111345104D01*
X76558702Y-111345104D02*
X77772052Y-111345104D01*
X91599930Y-111420000D02*
X92423674Y-112243744D01*
X77846948Y-111420000D02*
X91599930Y-111420000D01*
X75178842Y-113432071D02*
X74595480Y-114015433D01*
X75934923Y-112675990D02*
X75178842Y-113432071D01*
X77511942Y-112675990D02*
X75934923Y-112675990D01*
X79828057Y-112155989D02*
X78031943Y-112155989D01*
X80752068Y-113080000D02*
X79828057Y-112155989D01*
X92130000Y-113080000D02*
X80752068Y-113080000D01*
X78031943Y-112155989D02*
X77511942Y-112675990D01*
X85990000Y-118970000D02*
X85690001Y-118670001D01*
X85690001Y-118670001D02*
X84670001Y-118670001D01*
X84670001Y-118670001D02*
X82170000Y-116170000D01*
X82170000Y-115180000D02*
X82170000Y-116170000D01*
X79600000Y-112610000D02*
X82170000Y-115180000D01*
X78220000Y-112610000D02*
X79600000Y-112610000D01*
X77630000Y-113200000D02*
X78220000Y-112610000D01*
X76820000Y-113200000D02*
X77630000Y-113200000D01*
X75885949Y-114134051D02*
X76820000Y-113200000D01*
X75302587Y-114722540D02*
X75885949Y-114139178D01*
X75885949Y-114139178D02*
X75885949Y-114134051D01*
X77070354Y-116490307D02*
X77653716Y-115906945D01*
X77653716Y-115906945D02*
X79996945Y-115906945D01*
X79996945Y-115906945D02*
X84730000Y-120640000D01*
X75656140Y-115076093D02*
X76782233Y-113950000D01*
X76782233Y-113950000D02*
X76970000Y-113950000D01*
X79581012Y-122831012D02*
X85000000Y-128250000D01*
X85000000Y-128250000D02*
X85200000Y-128250000D01*
X79100000Y-121779970D02*
X79581012Y-122260982D01*
X79581012Y-122260982D02*
X79581012Y-122831012D01*
X80252334Y-119672287D02*
X79100000Y-120824621D01*
X79100000Y-120824621D02*
X79100000Y-121779970D01*
X78961865Y-119548542D02*
X79545227Y-118965180D01*
X77872999Y-120637408D02*
X78961865Y-119548542D01*
X77872999Y-123050961D02*
X77872999Y-120637408D01*
X81200000Y-126377962D02*
X77872999Y-123050961D01*
X81200000Y-128250000D02*
X81200000Y-126377962D01*
X78254758Y-118841436D02*
X78838120Y-118258074D01*
X76964978Y-120131216D02*
X78254758Y-118841436D01*
X76964978Y-123427074D02*
X76964978Y-120131216D01*
X77200000Y-123662098D02*
X76964978Y-123427074D01*
X77200000Y-128250000D02*
X77200000Y-123662098D01*
X73200000Y-128250000D02*
X73200000Y-121774873D01*
X73200000Y-121774873D02*
X77777460Y-117197413D01*
X56300000Y-88750000D02*
X56300000Y-88931728D01*
X56300000Y-88931728D02*
X72474159Y-105105887D01*
X70696794Y-101372998D02*
X66887968Y-97564172D01*
X72473951Y-102545989D02*
X71300961Y-101372999D01*
X74241926Y-103338120D02*
X73449795Y-102545989D01*
X73449795Y-102545989D02*
X72473951Y-102545989D01*
X66887968Y-97564172D02*
X66887968Y-97527968D01*
X66887968Y-97527968D02*
X60300000Y-90940000D01*
X71300961Y-101372999D02*
X70696794Y-101372998D01*
X60300000Y-90940000D02*
X60300000Y-89254000D01*
X60300000Y-89254000D02*
X60300000Y-88750000D01*
X64300000Y-93620030D02*
X64300000Y-89254000D01*
X72778087Y-101565989D02*
X71416109Y-100204011D01*
X74591116Y-101565989D02*
X72778087Y-101565989D01*
X67795990Y-97116020D02*
X64300000Y-93620030D01*
X75302587Y-102277460D02*
X74591116Y-101565989D01*
X70811942Y-100204010D02*
X67795990Y-97188058D01*
X64300000Y-89254000D02*
X64300000Y-88750000D01*
X71416109Y-100204011D02*
X70811942Y-100204010D01*
X67795990Y-97188058D02*
X67795990Y-97116020D01*
X71250000Y-99750000D02*
X66300000Y-94800000D01*
X66300000Y-94800000D02*
X66300000Y-88750000D01*
X71750000Y-99750000D02*
X71250000Y-99750000D01*
X73111979Y-101111979D02*
X71750000Y-99750000D01*
X75656140Y-101923907D02*
X75591100Y-101923907D01*
X75591100Y-101923907D02*
X74779173Y-101111979D01*
X74779173Y-101111979D02*
X73111979Y-101111979D01*
X78620000Y-120597515D02*
X79315419Y-119902096D01*
X79315419Y-119902096D02*
X79898781Y-119318734D01*
X78620000Y-121942038D02*
X78620000Y-120597515D01*
X79127001Y-122449039D02*
X78620000Y-121942038D01*
X79127001Y-123047001D02*
X79127001Y-122449039D01*
X83200000Y-127120000D02*
X79127001Y-123047001D01*
X83200000Y-128250000D02*
X83200000Y-127120000D01*
X78608312Y-119194989D02*
X79191674Y-118611627D01*
X77418988Y-120384313D02*
X78608312Y-119194989D01*
X77418988Y-123239018D02*
X77418988Y-120384313D01*
X79200000Y-125020030D02*
X77418988Y-123239018D01*
X79200000Y-128250000D02*
X79200000Y-125020030D01*
X78129033Y-117550967D02*
X75200000Y-120480000D01*
X75200000Y-120480000D02*
X75200000Y-128250000D01*
X78131014Y-117550967D02*
X78129033Y-117550967D01*
X71200000Y-128250000D02*
X71200000Y-123067767D01*
X71200000Y-123067767D02*
X77423907Y-116843860D01*
X72120606Y-105459441D02*
X72120606Y-105440606D01*
X72120606Y-105440606D02*
X57240000Y-90560000D01*
X57240000Y-90560000D02*
X55590000Y-90560000D01*
X55590000Y-90560000D02*
X54300000Y-89270000D01*
X54300000Y-89270000D02*
X54300000Y-88750000D01*
X58300000Y-89860000D02*
X58300000Y-89254000D01*
X70372999Y-101932999D02*
X58300000Y-89860000D01*
X70372999Y-102300961D02*
X70372999Y-101932999D01*
X73888373Y-103691674D02*
X73196699Y-103000000D01*
X71072038Y-103000000D02*
X70372999Y-102300961D01*
X58300000Y-89254000D02*
X58300000Y-88750000D01*
X73196699Y-103000000D02*
X71072038Y-103000000D01*
X74949033Y-102631014D02*
X74365671Y-102047652D01*
X70884852Y-100918988D02*
X67341979Y-97376115D01*
X74365671Y-102047652D02*
X72617682Y-102047652D01*
X72617682Y-102047652D02*
X71489018Y-100918988D01*
X67341979Y-97376115D02*
X67341979Y-97304078D01*
X67341979Y-97304078D02*
X62300000Y-92262098D01*
X62300000Y-92262098D02*
X62300000Y-89254000D01*
X71489018Y-100918988D02*
X70884852Y-100918988D01*
X62300000Y-89254000D02*
X62300000Y-88750000D01*
X69750000Y-88750000D02*
X68300000Y-88750000D01*
X76009693Y-101570354D02*
X76750000Y-102310661D01*
X76750000Y-102310661D02*
X76750000Y-103500000D01*
X87747666Y-119672287D02*
X87747666Y-119697666D01*
X108200000Y-124410000D02*
X108200000Y-128250000D01*
X87747666Y-119697666D02*
X90550000Y-122500000D01*
X90550000Y-122500000D02*
X106290000Y-122500000D01*
X106290000Y-122500000D02*
X108200000Y-124410000D01*
X102440000Y-123450000D02*
X90111165Y-123450000D01*
X90111165Y-123450000D02*
X87040559Y-120379394D01*
X104200000Y-125210000D02*
X102440000Y-123450000D01*
X104200000Y-128250000D02*
X104200000Y-125210000D01*
X98440000Y-124400000D02*
X88939845Y-124400000D01*
X88939845Y-124400000D02*
X85979899Y-121440054D01*
X100200000Y-126160000D02*
X98440000Y-124400000D01*
X100200000Y-128250000D02*
X100200000Y-126160000D01*
X81312994Y-120732947D02*
X81307053Y-120732947D01*
X81307053Y-120732947D02*
X80530000Y-121510000D01*
X80530000Y-121510000D02*
X80530000Y-122460000D01*
X80530000Y-122460000D02*
X83420000Y-125350000D01*
X83420000Y-125350000D02*
X94150000Y-125350000D01*
X94150000Y-125350000D02*
X96200000Y-127400000D01*
X96200000Y-127400000D02*
X96200000Y-128250000D01*
X79300000Y-89254000D02*
X79300000Y-88750000D01*
X76306958Y-96846958D02*
X76306958Y-93043042D01*
X79300000Y-90050000D02*
X79300000Y-89254000D01*
X76306958Y-93043042D02*
X79300000Y-90050000D01*
X77547652Y-98087652D02*
X76306958Y-96846958D01*
X78131014Y-99449033D02*
X77547652Y-98865671D01*
X77547652Y-98865671D02*
X77547652Y-98087652D01*
X83300000Y-88750000D02*
X82510000Y-88750000D01*
X82510000Y-88750000D02*
X78545021Y-92714979D01*
X78545021Y-92714979D02*
X78072923Y-92714979D01*
X78072923Y-92714979D02*
X77214978Y-93572926D01*
X77214978Y-93572926D02*
X77214978Y-96411677D01*
X77214978Y-96411677D02*
X78608312Y-97805011D01*
X78608312Y-97805011D02*
X79191674Y-98388373D01*
X78449039Y-93622999D02*
X78122999Y-93949039D01*
X78122999Y-93949039D02*
X78122999Y-95905484D01*
X78122999Y-95905484D02*
X79315419Y-97097904D01*
X78997001Y-93622999D02*
X78449039Y-93622999D01*
X82778022Y-89841978D02*
X78997001Y-93622999D01*
X85504022Y-89841978D02*
X82778022Y-89841978D01*
X86596000Y-88750000D02*
X85504022Y-89841978D01*
X79315419Y-97097904D02*
X79898781Y-97681266D01*
X87300000Y-88750000D02*
X86596000Y-88750000D01*
X80252334Y-97327713D02*
X79545989Y-96621368D01*
X87050011Y-90295989D02*
X88596000Y-88750000D01*
X88596000Y-88750000D02*
X89300000Y-88750000D01*
X83061943Y-90295989D02*
X87050011Y-90295989D01*
X79545990Y-93811942D02*
X83061943Y-90295989D01*
X79545989Y-96621368D02*
X79545990Y-93811942D01*
X81666548Y-95913499D02*
X81083186Y-95330137D01*
X81083186Y-95330137D02*
X81083186Y-94950950D01*
X81083186Y-94950950D02*
X84126114Y-91908022D01*
X84126114Y-91908022D02*
X84376114Y-91908022D01*
X84376114Y-91908022D02*
X84411137Y-91872999D01*
X84411137Y-91872999D02*
X85800961Y-91872999D01*
X85800961Y-91872999D02*
X86141973Y-92214011D01*
X86141973Y-92214011D02*
X98728057Y-92214011D01*
X98728057Y-92214011D02*
X102192068Y-88750000D01*
X102192068Y-88750000D02*
X102300000Y-88750000D01*
X81666548Y-95913499D02*
X81633499Y-95913499D01*
X85979899Y-95559946D02*
X85979899Y-95494906D01*
X85979899Y-95494906D02*
X88352772Y-93122033D01*
X88352772Y-93122033D02*
X101957967Y-93122033D01*
X101957967Y-93122033D02*
X106330000Y-88750000D01*
X106330000Y-88750000D02*
X106300000Y-88750000D01*
X86687006Y-96267053D02*
X87372999Y-95581060D01*
X87372999Y-95581060D02*
X87372999Y-95385942D01*
X87372999Y-95385942D02*
X88728886Y-94030055D01*
X88728886Y-94030055D02*
X105469945Y-94030055D01*
X105469945Y-94030055D02*
X110246000Y-89254000D01*
X110246000Y-89254000D02*
X110300000Y-89254000D01*
X110300000Y-89254000D02*
X110300000Y-88750000D01*
X87394113Y-96974159D02*
X88156330Y-96211942D01*
X112300000Y-89254000D02*
X112300000Y-88750000D01*
X88156330Y-96211942D02*
X88345990Y-96211942D01*
X88345990Y-96211942D02*
X90029047Y-94528885D01*
X90029047Y-94528885D02*
X107131115Y-94528885D01*
X107131115Y-94528885D02*
X112300000Y-89360000D01*
X112300000Y-89360000D02*
X112300000Y-89254000D01*
X106200000Y-128250000D02*
X106200000Y-124910000D01*
X106200000Y-124910000D02*
X104250000Y-122960000D01*
X104250000Y-122960000D02*
X90328272Y-122960000D01*
X90328272Y-122960000D02*
X87394113Y-120025841D01*
X102200000Y-128250000D02*
X102200000Y-125870000D01*
X102200000Y-125870000D02*
X100270000Y-123940000D01*
X100270000Y-123940000D02*
X89186951Y-123940000D01*
X89186951Y-123940000D02*
X86333452Y-121086501D01*
X81040000Y-122310000D02*
X81040000Y-121713049D01*
X81040000Y-121713049D02*
X81666548Y-121086501D01*
X83620000Y-124890000D02*
X81040000Y-122310000D01*
X96310000Y-124890000D02*
X83620000Y-124890000D01*
X98200000Y-126780000D02*
X96310000Y-124890000D01*
X98200000Y-128250000D02*
X98200000Y-126780000D01*
X91076000Y-125830000D02*
X83230000Y-125830000D01*
X83230000Y-125830000D02*
X80035023Y-122635023D01*
X80035023Y-122635023D02*
X80035023Y-122072925D01*
X80035023Y-122072925D02*
X80022525Y-122060427D01*
X80022525Y-122060427D02*
X80022525Y-120609203D01*
X80022525Y-120609203D02*
X80605887Y-120025841D01*
X94200000Y-128250000D02*
X93496000Y-128250000D01*
X93496000Y-128250000D02*
X91076000Y-125830000D01*
X77440000Y-89630000D02*
X77440000Y-88890000D01*
X77440000Y-88890000D02*
X77300000Y-88750000D01*
X77777460Y-99802587D02*
X77194098Y-99219225D01*
X76520775Y-99219225D02*
X76400000Y-99340000D01*
X77194098Y-99219225D02*
X76520775Y-99219225D01*
X78838120Y-98741926D02*
X78254758Y-98158564D01*
X78254758Y-98158564D02*
X78254758Y-98124758D01*
X78254758Y-98124758D02*
X76760968Y-96630968D01*
X76760968Y-93289032D02*
X80596000Y-89454000D01*
X76760968Y-96630968D02*
X76760968Y-93289032D01*
X80596000Y-89454000D02*
X81300000Y-88750000D01*
X78961865Y-97451458D02*
X79545227Y-98034820D01*
X78260981Y-93168989D02*
X77668988Y-93760982D01*
X83958033Y-89387967D02*
X82582033Y-89387967D01*
X85300000Y-88750000D02*
X84596000Y-88750000D01*
X78801012Y-93168988D02*
X78260981Y-93168989D01*
X84596000Y-88750000D02*
X83958033Y-89387967D01*
X82582033Y-89387967D02*
X78801012Y-93168988D01*
X77668988Y-96158581D02*
X78961865Y-97451458D01*
X77668988Y-93760982D02*
X77668988Y-96158581D01*
X80605887Y-96974159D02*
X80000000Y-96368272D01*
X80000000Y-96368272D02*
X80000000Y-94000000D01*
X80000000Y-94000000D02*
X83250000Y-90750000D01*
X83250000Y-90750000D02*
X89380000Y-90750000D01*
X89380000Y-90750000D02*
X91300000Y-88830000D01*
X91300000Y-88830000D02*
X91300000Y-88750000D01*
X100300000Y-88750000D02*
X100290000Y-88750000D01*
X100290000Y-88750000D02*
X97280000Y-91760000D01*
X97280000Y-91760000D02*
X86330030Y-91760000D01*
X86330030Y-91760000D02*
X85790030Y-91220000D01*
X85790030Y-91220000D02*
X83450000Y-91220000D01*
X83450000Y-91220000D02*
X80460000Y-94210000D01*
X80460000Y-94210000D02*
X80460000Y-95414059D01*
X80460000Y-95414059D02*
X80729632Y-95683691D01*
X80729632Y-95683691D02*
X81312994Y-96267053D01*
X81312994Y-96267053D02*
X81312994Y-96262994D01*
X104300000Y-88750000D02*
X104200000Y-88750000D01*
X104200000Y-88750000D02*
X100281978Y-92668022D01*
X100281978Y-92668022D02*
X88164717Y-92668022D01*
X88164717Y-92668022D02*
X86209708Y-94623031D01*
X86209708Y-94623031D02*
X85626346Y-95206393D01*
X108300000Y-88750000D02*
X108300000Y-89020000D01*
X108300000Y-89020000D02*
X103743956Y-93576044D01*
X103743956Y-93576044D02*
X88540829Y-93576044D01*
X88540829Y-93576044D02*
X86918988Y-95197885D01*
X86918988Y-95197885D02*
X86918988Y-95327963D01*
X86918988Y-95327963D02*
X86916814Y-95330137D01*
X86916814Y-95330137D02*
X86333452Y-95913499D01*
X114300000Y-88750000D02*
X114300000Y-89660000D01*
X114300000Y-89660000D02*
X108977104Y-94982896D01*
X108977104Y-94982896D02*
X90217104Y-94982896D01*
X90217104Y-94982896D02*
X88534047Y-96665952D01*
X88534047Y-96665952D02*
X88409427Y-96665952D01*
X88409427Y-96665952D02*
X87747666Y-97327713D01*
X93280775Y-101694098D02*
X92697413Y-102277460D01*
X114650000Y-106500000D02*
X112021389Y-106500000D01*
X112021389Y-106500000D02*
X104590384Y-99068995D01*
X104590384Y-99068995D02*
X95905878Y-99068995D01*
X95905878Y-99068995D02*
X93280775Y-101694098D01*
X99810000Y-106010000D02*
X100300000Y-106500000D01*
X100300000Y-106500000D02*
X103350000Y-106500000D01*
X98140000Y-106010000D02*
X99810000Y-106010000D01*
X97293607Y-106856393D02*
X98140000Y-106010000D01*
X97293607Y-106873654D02*
X97293607Y-106856393D01*
X95652783Y-98614984D02*
X92927222Y-101340545D01*
X104778444Y-98614984D02*
X95652783Y-98614984D01*
X111863460Y-105700000D02*
X104778444Y-98614984D01*
X92927222Y-101340545D02*
X92343860Y-101923907D01*
X114650000Y-105700000D02*
X111863460Y-105700000D01*
X100400000Y-105700000D02*
X102496000Y-105700000D01*
X102496000Y-105700000D02*
X103350000Y-105700000D01*
X99985022Y-105285022D02*
X100400000Y-105700000D01*
X98322926Y-105285022D02*
X99985022Y-105285022D01*
X96232947Y-105812994D02*
X96816309Y-105229632D01*
X96816309Y-105229632D02*
X98267534Y-105229632D01*
X98267534Y-105229632D02*
X98322926Y-105285022D01*
X96158982Y-99522999D02*
X104382999Y-99522999D01*
X112160000Y-107300000D02*
X113796000Y-107300000D01*
X104382999Y-99522999D02*
X112160000Y-107300000D01*
X93050967Y-102631014D02*
X96158982Y-99522999D01*
X113796000Y-107300000D02*
X114650000Y-107300000D01*
X97647161Y-107227208D02*
X97647161Y-107212839D01*
X97647161Y-107212839D02*
X98350000Y-106510000D01*
X98350000Y-106510000D02*
X99620000Y-106510000D01*
X99620000Y-106510000D02*
X100410000Y-107300000D01*
X100410000Y-107300000D02*
X103350000Y-107300000D01*
X94821219Y-104398781D02*
X96720000Y-102500000D01*
X96720000Y-102500000D02*
X103350000Y-102500000D01*
X94818734Y-104398781D02*
X94821219Y-104398781D01*
X92265984Y-96344929D02*
X90098795Y-98512118D01*
X90098795Y-98512118D02*
X89515433Y-99095480D01*
X111373796Y-101700000D02*
X106018725Y-96344929D01*
X106018725Y-96344929D02*
X92265984Y-96344929D01*
X114650000Y-101700000D02*
X111373796Y-101700000D01*
X94465180Y-104044820D02*
X96810000Y-101700000D01*
X96810000Y-101700000D02*
X103350000Y-101700000D01*
X94465180Y-104045227D02*
X94465180Y-104044820D01*
X89391688Y-97805011D02*
X88808326Y-98388373D01*
X114650000Y-100900000D02*
X111215864Y-100900000D01*
X106206782Y-95890918D02*
X91305781Y-95890918D01*
X91305781Y-95890918D02*
X89391688Y-97805011D01*
X111215864Y-100900000D02*
X106206782Y-95890918D01*
X103350000Y-100900000D02*
X96903301Y-100900000D01*
X96903301Y-100900000D02*
X94111627Y-103691674D01*
X111950000Y-104900000D02*
X113796000Y-104900000D01*
X105210973Y-98160973D02*
X111950000Y-104900000D01*
X113796000Y-104900000D02*
X114650000Y-104900000D01*
X95399688Y-98160973D02*
X105210973Y-98160973D01*
X91990307Y-101570354D02*
X95399688Y-98160973D01*
X96598835Y-104740000D02*
X98419970Y-104740000D01*
X102427012Y-104831012D02*
X102496000Y-104900000D01*
X102496000Y-104900000D02*
X103350000Y-104900000D01*
X95879394Y-105459441D02*
X96598835Y-104740000D01*
X98419970Y-104740000D02*
X98510982Y-104831012D01*
X98510982Y-104831012D02*
X102427012Y-104831012D01*
X111847592Y-104100000D02*
X105454554Y-97706962D01*
X114650000Y-104100000D02*
X111847592Y-104100000D01*
X105454554Y-97706962D02*
X93025271Y-97706962D01*
X93025271Y-97706962D02*
X91159455Y-99572778D01*
X91159455Y-99572778D02*
X90576093Y-100156140D01*
X89038135Y-97451458D02*
X88454773Y-98034820D01*
X114650000Y-100100000D02*
X111057932Y-100100000D01*
X91052686Y-95436907D02*
X89038135Y-97451458D01*
X106394839Y-95436907D02*
X91052686Y-95436907D01*
X111057932Y-100100000D02*
X106394839Y-95436907D01*
X103350000Y-100100000D02*
X96996194Y-100100000D01*
X96996194Y-100100000D02*
X93758074Y-103338120D01*
X102496000Y-104100000D02*
X103350000Y-104100000D01*
X99300961Y-104377001D02*
X99577962Y-104100000D01*
X99577962Y-104100000D02*
X102496000Y-104100000D01*
X98699039Y-104377001D02*
X99300961Y-104377001D01*
X98422038Y-104100000D02*
X98699039Y-104377001D01*
X96531728Y-104100000D02*
X98422038Y-104100000D01*
X95525841Y-105105887D02*
X96531728Y-104100000D01*
X111689660Y-103300000D02*
X105642611Y-97252951D01*
X90805902Y-99219225D02*
X90222540Y-99802587D01*
X105642611Y-97252951D02*
X92772176Y-97252951D01*
X92772176Y-97252951D02*
X90805902Y-99219225D01*
X114650000Y-103300000D02*
X111689660Y-103300000D01*
X102496000Y-103300000D02*
X103350000Y-103300000D01*
X99477962Y-103300000D02*
X102496000Y-103300000D01*
X99300961Y-103122999D02*
X99477962Y-103300000D01*
X96801622Y-103122999D02*
X99300961Y-103122999D01*
X95172287Y-104752334D02*
X96801622Y-103122999D01*
X105830668Y-96798940D02*
X92519079Y-96798940D01*
X92519079Y-96798940D02*
X90452348Y-98865671D01*
X90452348Y-98865671D02*
X89868986Y-99449033D01*
X111531728Y-102500000D02*
X105830668Y-96798940D01*
X114650000Y-102500000D02*
X111531728Y-102500000D01*
X58310000Y-115000000D02*
X57560000Y-115750000D01*
X57560000Y-115750000D02*
X56700000Y-115750000D01*
X65770000Y-115000000D02*
X58310000Y-115000000D01*
X70643654Y-110126346D02*
X65770000Y-115000000D01*
X70706393Y-110126346D02*
X70643654Y-110126346D01*
X57800000Y-116250000D02*
X58500000Y-115550000D01*
X58500000Y-115550000D02*
X66010000Y-115550000D01*
X56700000Y-116250000D02*
X57800000Y-116250000D01*
X71059946Y-110500054D02*
X66010000Y-115550000D01*
X71059946Y-110479899D02*
X71059946Y-110500054D01*
X106290000Y-122030000D02*
X90812485Y-122030000D01*
X90812485Y-122030000D02*
X88101219Y-119318734D01*
X111420000Y-116900000D02*
X106290000Y-122030000D01*
X114650000Y-116900000D02*
X111420000Y-116900000D01*
X93405433Y-114015433D02*
X96290000Y-116900000D01*
X96290000Y-116900000D02*
X103350000Y-116900000D01*
X93404520Y-114015433D02*
X93405433Y-114015433D01*
X106030000Y-121550000D02*
X91039593Y-121550000D01*
X91039593Y-121550000D02*
X88454773Y-118965180D01*
X111480000Y-116100000D02*
X106030000Y-121550000D01*
X114650000Y-116100000D02*
X111480000Y-116100000D01*
X93758074Y-113668074D02*
X96190000Y-116100000D01*
X96190000Y-116100000D02*
X103350000Y-116100000D01*
X93758074Y-113661880D02*
X93758074Y-113668074D01*
X111550000Y-115300000D02*
X105770000Y-121080000D01*
X89391688Y-119194989D02*
X88808326Y-118611627D01*
X114650000Y-115300000D02*
X111550000Y-115300000D01*
X91276699Y-121080000D02*
X89391688Y-119194989D01*
X105770000Y-121080000D02*
X91276699Y-121080000D01*
X94111627Y-113341627D02*
X96070000Y-115300000D01*
X96070000Y-115300000D02*
X103350000Y-115300000D01*
X94111627Y-113308326D02*
X94111627Y-113341627D01*
X91523806Y-120620000D02*
X89745242Y-118841436D01*
X111640000Y-114500000D02*
X105520000Y-120620000D01*
X114650000Y-114500000D02*
X111640000Y-114500000D01*
X89745242Y-118841436D02*
X89161880Y-118258074D01*
X105520000Y-120620000D02*
X91523806Y-120620000D01*
X95172287Y-112272287D02*
X97400000Y-114500000D01*
X97400000Y-114500000D02*
X103350000Y-114500000D01*
X95172287Y-112247666D02*
X95172287Y-112272287D01*
X90098795Y-118487882D02*
X89515433Y-117904520D01*
X91750913Y-120140000D02*
X90098795Y-118487882D01*
X111740000Y-113700000D02*
X105300000Y-120140000D01*
X114650000Y-113700000D02*
X111740000Y-113700000D01*
X105300000Y-120140000D02*
X91750913Y-120140000D01*
X95525841Y-111915841D02*
X97310000Y-113700000D01*
X97310000Y-113700000D02*
X103350000Y-113700000D01*
X95525841Y-111894113D02*
X95525841Y-111915841D01*
X91668988Y-118643861D02*
X90805902Y-117780775D01*
X90805902Y-117780775D02*
X90222540Y-117197413D01*
X105070000Y-119670000D02*
X92599970Y-119670000D01*
X91668988Y-118739018D02*
X91668988Y-118643861D01*
X114650000Y-112900000D02*
X111840000Y-112900000D01*
X111840000Y-112900000D02*
X105070000Y-119670000D01*
X92599970Y-119670000D02*
X91668988Y-118739018D01*
X95880559Y-111540559D02*
X97240000Y-112900000D01*
X97240000Y-112900000D02*
X103350000Y-112900000D01*
X95879394Y-111540559D02*
X95880559Y-111540559D01*
X92122999Y-118390766D02*
X91159455Y-117427222D01*
X92122999Y-118550961D02*
X92122999Y-118390766D01*
X104870000Y-119190000D02*
X92762038Y-119190000D01*
X92762038Y-119190000D02*
X92122999Y-118550961D01*
X114650000Y-112100000D02*
X111960000Y-112100000D01*
X111960000Y-112100000D02*
X104870000Y-119190000D01*
X91159455Y-117427222D02*
X90576093Y-116843860D01*
X100490000Y-112270000D02*
X100660000Y-112100000D01*
X100660000Y-112100000D02*
X103350000Y-112100000D01*
X97360000Y-112270000D02*
X100490000Y-112270000D01*
X96277006Y-111187006D02*
X97360000Y-112270000D01*
X96232947Y-111187006D02*
X96277006Y-111187006D01*
X93050961Y-117622999D02*
X92769446Y-117622999D01*
X104590000Y-118700000D02*
X94127962Y-118700000D01*
X92769446Y-117622999D02*
X91866562Y-116720115D01*
X114650000Y-111300000D02*
X111990000Y-111300000D01*
X94127962Y-118700000D02*
X93050961Y-117622999D01*
X91866562Y-116720115D02*
X91283200Y-116136753D01*
X111990000Y-111300000D02*
X104590000Y-118700000D01*
X99900000Y-111800000D02*
X100400000Y-111300000D01*
X100400000Y-111300000D02*
X103350000Y-111300000D01*
X97600000Y-111800000D02*
X99900000Y-111800000D01*
X96633452Y-110833452D02*
X97600000Y-111800000D01*
X96586501Y-110833452D02*
X96633452Y-110833452D01*
X93239018Y-117168988D02*
X94250030Y-118180000D01*
X104360000Y-118180000D02*
X112040000Y-110500000D01*
X113796000Y-110500000D02*
X114650000Y-110500000D01*
X94250030Y-118180000D02*
X104360000Y-118180000D01*
X93022541Y-117168988D02*
X93239018Y-117168988D01*
X91636753Y-115783200D02*
X93022541Y-117168988D01*
X112040000Y-110500000D02*
X113796000Y-110500000D01*
X99700000Y-111300000D02*
X100500000Y-110500000D01*
X100500000Y-110500000D02*
X103350000Y-110500000D01*
X97800000Y-111300000D02*
X99700000Y-111300000D01*
X96979899Y-110479899D02*
X97800000Y-111300000D01*
X96940054Y-110479899D02*
X96979899Y-110479899D01*
X93050967Y-114368986D02*
X93058986Y-114368986D01*
X104170000Y-117680000D02*
X112150000Y-109700000D01*
X93058986Y-114368986D02*
X96370000Y-117680000D01*
X96370000Y-117680000D02*
X104170000Y-117680000D01*
X112150000Y-109700000D02*
X114650000Y-109700000D01*
X99500000Y-110800000D02*
X100600000Y-109700000D01*
X100600000Y-109700000D02*
X103350000Y-109700000D01*
X98000000Y-110800000D02*
X99500000Y-110800000D01*
X97326346Y-110126346D02*
X98000000Y-110800000D01*
X97293607Y-110126346D02*
X97326346Y-110126346D01*
X42000000Y-106500000D02*
X41950000Y-106550000D01*
X41950000Y-106550000D02*
X40470000Y-106550000D01*
X44620000Y-112250000D02*
X40470000Y-108100000D01*
X40470000Y-108100000D02*
X40470000Y-106550000D01*
X45300000Y-112250000D02*
X44620000Y-112250000D01*
X45347999Y-115202001D02*
X45300000Y-115250000D01*
X46127001Y-115136601D02*
X46061601Y-115202001D01*
X46564565Y-115136601D02*
X46127001Y-115136601D01*
X46877002Y-115449038D02*
X46564565Y-115136601D01*
X46877002Y-118550930D02*
X46877002Y-115449038D01*
X46061601Y-115202001D02*
X45347999Y-115202001D01*
X43927932Y-121500000D02*
X46877002Y-118550930D01*
X43000000Y-121500000D02*
X43927932Y-121500000D01*
X36810000Y-121140000D02*
X36400000Y-121550000D01*
X36400000Y-121550000D02*
X34900000Y-121550000D01*
X39000000Y-121140000D02*
X36810000Y-121140000D01*
X40680000Y-121500000D02*
X40320000Y-121140000D01*
X40320000Y-121140000D02*
X39000000Y-121140000D01*
X43000000Y-121500000D02*
X40680000Y-121500000D01*
X45922036Y-112750000D02*
X45300000Y-112750000D01*
X46740962Y-112532998D02*
X46139038Y-112532998D01*
X47331013Y-118738987D02*
X47331013Y-113123049D01*
X45750000Y-120320000D02*
X47331013Y-118738987D01*
X45750000Y-125125000D02*
X45750000Y-120320000D01*
X43100000Y-127775000D02*
X45750000Y-125125000D01*
X46139038Y-112532998D02*
X45922036Y-112750000D01*
X43100000Y-127800000D02*
X43100000Y-127775000D01*
X47331013Y-113123049D02*
X46740962Y-112532998D01*
X37410000Y-129010000D02*
X36550000Y-128150000D01*
X36550000Y-128150000D02*
X35000000Y-128150000D01*
X39000000Y-129010000D02*
X37410000Y-129010000D01*
X41380000Y-127800000D02*
X40170000Y-129010000D01*
X40170000Y-129010000D02*
X39000000Y-129010000D01*
X43100000Y-127800000D02*
X41380000Y-127800000D01*
X51200000Y-90550000D02*
X51200000Y-92250700D01*
X48150000Y-103140000D02*
X48000000Y-102990000D01*
X48000000Y-102990000D02*
X48000000Y-102500000D01*
X50050000Y-103140000D02*
X48150000Y-103140000D01*
X50250000Y-104370000D02*
X50050000Y-104170000D01*
X50050000Y-104170000D02*
X50050000Y-103140000D01*
X50250000Y-105000000D02*
X50250000Y-104370000D01*
X52750000Y-100750000D02*
X52360000Y-100750000D01*
X52360000Y-100750000D02*
X51950000Y-100340000D01*
X48750000Y-110554000D02*
X50304000Y-110554000D01*
X50304000Y-110554000D02*
X51000000Y-111250000D01*
X48250000Y-109300000D02*
X48250000Y-110054000D01*
X48250000Y-110054000D02*
X48750000Y-110554000D01*
X51950000Y-100310000D02*
X52760000Y-99500000D01*
X52760000Y-99500000D02*
X54000000Y-99500000D01*
X51950000Y-100340000D02*
X51950000Y-100310000D01*
X51250000Y-106750000D02*
X51246000Y-106746000D01*
X51246000Y-106746000D02*
X51246000Y-105704000D01*
X51246000Y-105704000D02*
X51750000Y-105200000D01*
X51750000Y-105200000D02*
X51750000Y-105000000D01*
X49797999Y-108202001D02*
X51250000Y-106750000D01*
X48750000Y-108500000D02*
X49047999Y-108202001D01*
X49047999Y-108202001D02*
X49797999Y-108202001D01*
X48750000Y-109300000D02*
X48750000Y-108500000D01*
X51950000Y-104010000D02*
X51750000Y-104210000D01*
X51750000Y-104210000D02*
X51750000Y-105000000D01*
X51950000Y-103140000D02*
X51950000Y-104010000D01*
X73238160Y-110685989D02*
X75364204Y-108559945D01*
X72975176Y-110685989D02*
X73238160Y-110685989D01*
X72120606Y-111540559D02*
X72975176Y-110685989D01*
X75364204Y-108559945D02*
X75460055Y-108559945D01*
X75460055Y-108559945D02*
X79220001Y-104799999D01*
X79220001Y-104799999D02*
X92590001Y-104799999D01*
X92590001Y-104799999D02*
X92890000Y-104500000D01*
D51*
X45300000Y-117750000D02*
X46250000Y-117750000D01*
D48*
X55810000Y-119310000D02*
X52250000Y-115750000D01*
X52250000Y-115750000D02*
X52250000Y-109300000D01*
X55810000Y-124780000D02*
X55810000Y-119310000D01*
X54090000Y-126500000D02*
X55810000Y-124780000D01*
X53500000Y-126500000D02*
X54090000Y-126500000D01*
X55310000Y-119580000D02*
X51750000Y-116020000D01*
X51750000Y-116020000D02*
X51750000Y-109300000D01*
X55310000Y-122570000D02*
X55310000Y-119580000D01*
X54130000Y-123750000D02*
X55310000Y-122570000D01*
X53500000Y-123750000D02*
X54130000Y-123750000D01*
D52*
X39450000Y-102300000D02*
X34520000Y-102300000D01*
X34520000Y-102300000D02*
X34400000Y-102420000D01*
X33730000Y-93930000D02*
X34910000Y-92750000D01*
X34910000Y-92750000D02*
X36750000Y-92750000D01*
X33730000Y-100124400D02*
X33730000Y-93930000D01*
X34400000Y-102420000D02*
X34400000Y-100794400D01*
X34400000Y-100794400D02*
X33730000Y-100124400D01*
X36750000Y-92750000D02*
X36750000Y-91388000D01*
X36750000Y-91388000D02*
X38148000Y-89990000D01*
X38148000Y-89990000D02*
X46287980Y-89990000D01*
X46287980Y-89990000D02*
X46866000Y-90568020D01*
X46866000Y-90568020D02*
X46866000Y-93750000D01*
D48*
X41300000Y-115620000D02*
X41420000Y-115500000D01*
X41420000Y-115500000D02*
X42000000Y-115500000D01*
X39750000Y-115620000D02*
X41300000Y-115620000D01*
X38050000Y-114950000D02*
X38720000Y-115620000D01*
X38720000Y-115620000D02*
X39750000Y-115620000D01*
X36770000Y-114950000D02*
X38050000Y-114950000D01*
X41310000Y-113630000D02*
X41430000Y-113750000D01*
X41430000Y-113750000D02*
X42000000Y-113750000D01*
X39750000Y-113630000D02*
X41310000Y-113630000D01*
X38047700Y-114302300D02*
X38720000Y-113630000D01*
X38720000Y-113630000D02*
X39750000Y-113630000D01*
X36770000Y-114302300D02*
X38047700Y-114302300D01*
M02*
