G04 #@! TF.GenerationSoftware,KiCad,Pcbnew,(2017-01-24 revision 0b6147e)-makepkg*
G04 #@! TF.CreationDate,2017-03-21T13:18:50-07:00*
G04 #@! TF.ProjectId,Spartan6Dev,5370617274616E364465762E6B696361,rev?*
G04 #@! TF.FileFunction,Legend,Top*
G04 #@! TF.FilePolarity,Positive*
%FSLAX46Y46*%
G04 Gerber Fmt 4.6, Leading zero omitted, Abs format (unit mm)*
G04 Created by KiCad (PCBNEW (2017-01-24 revision 0b6147e)-makepkg) date 03/21/17 13:18:50*
%MOMM*%
%LPD*%
G01*
G04 APERTURE LIST*
%ADD10C,0.100000*%
%ADD11C,0.150000*%
%ADD12C,0.010000*%
%ADD13C,0.127000*%
%ADD14C,0.007620*%
%ADD15C,0.152400*%
%ADD16C,0.650000*%
%ADD17R,2.127200X2.127200*%
%ADD18O,2.127200X2.127200*%
%ADD19R,1.400000X0.650000*%
%ADD20R,0.650000X1.400000*%
%ADD21R,1.300000X0.900000*%
%ADD22R,1.200000X1.150000*%
%ADD23R,1.150000X1.200000*%
%ADD24R,1.630000X2.200000*%
%ADD25R,1.400000X2.000000*%
%ADD26R,1.700000X1.100000*%
%ADD27R,1.197560X1.197560*%
%ADD28R,2.432000X2.127200*%
%ADD29O,2.432000X2.127200*%
%ADD30R,0.900000X1.300000*%
%ADD31R,2.300000X2.800000*%
%ADD32R,1.602740X0.652780*%
%ADD33R,2.299920X2.299920*%
%ADD34C,1.650006*%
%ADD35C,1.504000*%
%ADD36C,4.400000*%
%ADD37C,4.900000*%
%ADD38R,1.000000X1.500000*%
%ADD39R,1.600000X0.900000*%
%ADD40C,1.640000*%
%ADD41C,2.127200*%
%ADD42R,2.100000X1.600000*%
%ADD43O,2.100000X1.600000*%
%ADD44R,1.160000X1.670000*%
%ADD45C,3.100000*%
%ADD46R,2.432000X2.432000*%
%ADD47O,2.432000X2.432000*%
%ADD48C,1.924000*%
%ADD49C,2.400000*%
%ADD50C,2.350000*%
%ADD51C,1.850000*%
%ADD52C,2.150000*%
G04 APERTURE END LIST*
D10*
D11*
X38974761Y-99342380D02*
X39308095Y-100342380D01*
X39641428Y-99342380D01*
X39974761Y-100342380D02*
X39974761Y-99342380D01*
X40450952Y-100342380D02*
X40450952Y-99342380D01*
X41022380Y-100342380D01*
X41022380Y-99342380D01*
X62101428Y-126832380D02*
X62101428Y-126165714D01*
X62101428Y-126356190D02*
X62149047Y-126260952D01*
X62196666Y-126213333D01*
X62291904Y-126165714D01*
X62387142Y-126165714D01*
X63101428Y-126784761D02*
X63006190Y-126832380D01*
X62815714Y-126832380D01*
X62720476Y-126784761D01*
X62672857Y-126689523D01*
X62672857Y-126308571D01*
X62720476Y-126213333D01*
X62815714Y-126165714D01*
X63006190Y-126165714D01*
X63101428Y-126213333D01*
X63149047Y-126308571D01*
X63149047Y-126403809D01*
X62672857Y-126499047D01*
X63482380Y-126165714D02*
X63720476Y-126832380D01*
X63958571Y-126165714D01*
X65625238Y-126832380D02*
X65053809Y-126832380D01*
X65339523Y-126832380D02*
X65339523Y-125832380D01*
X65244285Y-125975238D01*
X65149047Y-126070476D01*
X65053809Y-126118095D01*
X66053809Y-126737142D02*
X66101428Y-126784761D01*
X66053809Y-126832380D01*
X66006190Y-126784761D01*
X66053809Y-126737142D01*
X66053809Y-126832380D01*
X66958571Y-126832380D02*
X66958571Y-125832380D01*
X66958571Y-126784761D02*
X66863333Y-126832380D01*
X66672857Y-126832380D01*
X66577619Y-126784761D01*
X66530000Y-126737142D01*
X66482380Y-126641904D01*
X66482380Y-126356190D01*
X66530000Y-126260952D01*
X66577619Y-126213333D01*
X66672857Y-126165714D01*
X66863333Y-126165714D01*
X66958571Y-126213333D01*
X93376190Y-120565476D02*
X93280952Y-120517857D01*
X93090476Y-120517857D01*
X92995238Y-120565476D01*
X92900000Y-120660714D01*
X92852380Y-120755952D01*
X92852380Y-120946428D01*
X92900000Y-121041666D01*
X92995238Y-121136904D01*
X93090476Y-121184523D01*
X93280952Y-121184523D01*
X93376190Y-121136904D01*
X93185714Y-120184523D02*
X92947619Y-120232142D01*
X92709523Y-120375000D01*
X92566666Y-120613095D01*
X92519047Y-120851190D01*
X92566666Y-121089285D01*
X92709523Y-121327380D01*
X92947619Y-121470238D01*
X93185714Y-121517857D01*
X93423809Y-121470238D01*
X93661904Y-121327380D01*
X93804761Y-121089285D01*
X93852380Y-120851190D01*
X93804761Y-120613095D01*
X93661904Y-120375000D01*
X93423809Y-120232142D01*
X93185714Y-120184523D01*
X94995238Y-120422619D02*
X95042857Y-120375000D01*
X95138095Y-120327380D01*
X95376190Y-120327380D01*
X95471428Y-120375000D01*
X95519047Y-120422619D01*
X95566666Y-120517857D01*
X95566666Y-120613095D01*
X95519047Y-120755952D01*
X94947619Y-121327380D01*
X95566666Y-121327380D01*
X96185714Y-120327380D02*
X96280952Y-120327380D01*
X96376190Y-120375000D01*
X96423809Y-120422619D01*
X96471428Y-120517857D01*
X96519047Y-120708333D01*
X96519047Y-120946428D01*
X96471428Y-121136904D01*
X96423809Y-121232142D01*
X96376190Y-121279761D01*
X96280952Y-121327380D01*
X96185714Y-121327380D01*
X96090476Y-121279761D01*
X96042857Y-121232142D01*
X95995238Y-121136904D01*
X95947619Y-120946428D01*
X95947619Y-120708333D01*
X95995238Y-120517857D01*
X96042857Y-120422619D01*
X96090476Y-120375000D01*
X96185714Y-120327380D01*
X97471428Y-121327380D02*
X96900000Y-121327380D01*
X97185714Y-121327380D02*
X97185714Y-120327380D01*
X97090476Y-120470238D01*
X96995238Y-120565476D01*
X96900000Y-120613095D01*
X97804761Y-120327380D02*
X98471428Y-120327380D01*
X98042857Y-121327380D01*
X100185714Y-121232142D02*
X100138095Y-121279761D01*
X99995238Y-121327380D01*
X99900000Y-121327380D01*
X99757142Y-121279761D01*
X99661904Y-121184523D01*
X99614285Y-121089285D01*
X99566666Y-120898809D01*
X99566666Y-120755952D01*
X99614285Y-120565476D01*
X99661904Y-120470238D01*
X99757142Y-120375000D01*
X99900000Y-120327380D01*
X99995238Y-120327380D01*
X100138095Y-120375000D01*
X100185714Y-120422619D01*
X100614285Y-121327380D02*
X100614285Y-120660714D01*
X100614285Y-120327380D02*
X100566666Y-120375000D01*
X100614285Y-120422619D01*
X100661904Y-120375000D01*
X100614285Y-120327380D01*
X100614285Y-120422619D01*
X101090476Y-121327380D02*
X101090476Y-120660714D01*
X101090476Y-120851190D02*
X101138095Y-120755952D01*
X101185714Y-120708333D01*
X101280952Y-120660714D01*
X101376190Y-120660714D01*
X102138095Y-121279761D02*
X102042857Y-121327380D01*
X101852380Y-121327380D01*
X101757142Y-121279761D01*
X101709523Y-121232142D01*
X101661904Y-121136904D01*
X101661904Y-120851190D01*
X101709523Y-120755952D01*
X101757142Y-120708333D01*
X101852380Y-120660714D01*
X102042857Y-120660714D01*
X102138095Y-120708333D01*
X102995238Y-120660714D02*
X102995238Y-121327380D01*
X102566666Y-120660714D02*
X102566666Y-121184523D01*
X102614285Y-121279761D01*
X102709523Y-121327380D01*
X102852380Y-121327380D01*
X102947619Y-121279761D01*
X102995238Y-121232142D01*
X103471428Y-121327380D02*
X103471428Y-120660714D01*
X103471428Y-120327380D02*
X103423809Y-120375000D01*
X103471428Y-120422619D01*
X103519047Y-120375000D01*
X103471428Y-120327380D01*
X103471428Y-120422619D01*
X103804761Y-120660714D02*
X104185714Y-120660714D01*
X103947619Y-120327380D02*
X103947619Y-121184523D01*
X103995238Y-121279761D01*
X104090476Y-121327380D01*
X104185714Y-121327380D01*
X105852380Y-121232142D02*
X105804761Y-121279761D01*
X105661904Y-121327380D01*
X105566666Y-121327380D01*
X105423809Y-121279761D01*
X105328571Y-121184523D01*
X105280952Y-121089285D01*
X105233333Y-120898809D01*
X105233333Y-120755952D01*
X105280952Y-120565476D01*
X105328571Y-120470238D01*
X105423809Y-120375000D01*
X105566666Y-120327380D01*
X105661904Y-120327380D01*
X105804761Y-120375000D01*
X105852380Y-120422619D01*
X106280952Y-121327380D02*
X106280952Y-120660714D01*
X106280952Y-120851190D02*
X106328571Y-120755952D01*
X106376190Y-120708333D01*
X106471428Y-120660714D01*
X106566666Y-120660714D01*
X107042857Y-121327380D02*
X106947619Y-121279761D01*
X106900000Y-121232142D01*
X106852380Y-121136904D01*
X106852380Y-120851190D01*
X106900000Y-120755952D01*
X106947619Y-120708333D01*
X107042857Y-120660714D01*
X107185714Y-120660714D01*
X107280952Y-120708333D01*
X107328571Y-120755952D01*
X107376190Y-120851190D01*
X107376190Y-121136904D01*
X107328571Y-121232142D01*
X107280952Y-121279761D01*
X107185714Y-121327380D01*
X107042857Y-121327380D01*
X107757142Y-121279761D02*
X107852380Y-121327380D01*
X108042857Y-121327380D01*
X108138095Y-121279761D01*
X108185714Y-121184523D01*
X108185714Y-121136904D01*
X108138095Y-121041666D01*
X108042857Y-120994047D01*
X107900000Y-120994047D01*
X107804761Y-120946428D01*
X107757142Y-120851190D01*
X107757142Y-120803571D01*
X107804761Y-120708333D01*
X107900000Y-120660714D01*
X108042857Y-120660714D01*
X108138095Y-120708333D01*
X108566666Y-121279761D02*
X108661904Y-121327380D01*
X108852380Y-121327380D01*
X108947619Y-121279761D01*
X108995238Y-121184523D01*
X108995238Y-121136904D01*
X108947619Y-121041666D01*
X108852380Y-120994047D01*
X108709523Y-120994047D01*
X108614285Y-120946428D01*
X108566666Y-120851190D01*
X108566666Y-120803571D01*
X108614285Y-120708333D01*
X108709523Y-120660714D01*
X108852380Y-120660714D01*
X108947619Y-120708333D01*
X109423809Y-121327380D02*
X109423809Y-120660714D01*
X109423809Y-120327380D02*
X109376190Y-120375000D01*
X109423809Y-120422619D01*
X109471428Y-120375000D01*
X109423809Y-120327380D01*
X109423809Y-120422619D01*
X109900000Y-120660714D02*
X109900000Y-121327380D01*
X109900000Y-120755952D02*
X109947619Y-120708333D01*
X110042857Y-120660714D01*
X110185714Y-120660714D01*
X110280952Y-120708333D01*
X110328571Y-120803571D01*
X110328571Y-121327380D01*
X111233333Y-120660714D02*
X111233333Y-121470238D01*
X111185714Y-121565476D01*
X111138095Y-121613095D01*
X111042857Y-121660714D01*
X110900000Y-121660714D01*
X110804761Y-121613095D01*
X111233333Y-121279761D02*
X111138095Y-121327380D01*
X110947619Y-121327380D01*
X110852380Y-121279761D01*
X110804761Y-121232142D01*
X110757142Y-121136904D01*
X110757142Y-120851190D01*
X110804761Y-120755952D01*
X110852380Y-120708333D01*
X110947619Y-120660714D01*
X111138095Y-120660714D01*
X111233333Y-120708333D01*
X92923809Y-122310714D02*
X93114285Y-122977380D01*
X93304761Y-122501190D01*
X93495238Y-122977380D01*
X93685714Y-122310714D01*
X93971428Y-122310714D02*
X94161904Y-122977380D01*
X94352380Y-122501190D01*
X94542857Y-122977380D01*
X94733333Y-122310714D01*
X95019047Y-122310714D02*
X95209523Y-122977380D01*
X95400000Y-122501190D01*
X95590476Y-122977380D01*
X95780952Y-122310714D01*
X96161904Y-122882142D02*
X96209523Y-122929761D01*
X96161904Y-122977380D01*
X96114285Y-122929761D01*
X96161904Y-122882142D01*
X96161904Y-122977380D01*
X97066666Y-122929761D02*
X96971428Y-122977380D01*
X96780952Y-122977380D01*
X96685714Y-122929761D01*
X96638095Y-122882142D01*
X96590476Y-122786904D01*
X96590476Y-122501190D01*
X96638095Y-122405952D01*
X96685714Y-122358333D01*
X96780952Y-122310714D01*
X96971428Y-122310714D01*
X97066666Y-122358333D01*
X97495238Y-122977380D02*
X97495238Y-122310714D01*
X97495238Y-121977380D02*
X97447619Y-122025000D01*
X97495238Y-122072619D01*
X97542857Y-122025000D01*
X97495238Y-121977380D01*
X97495238Y-122072619D01*
X97971428Y-122977380D02*
X97971428Y-122310714D01*
X97971428Y-122501190D02*
X98019047Y-122405952D01*
X98066666Y-122358333D01*
X98161904Y-122310714D01*
X98257142Y-122310714D01*
X99019047Y-122929761D02*
X98923809Y-122977380D01*
X98733333Y-122977380D01*
X98638095Y-122929761D01*
X98590476Y-122882142D01*
X98542857Y-122786904D01*
X98542857Y-122501190D01*
X98590476Y-122405952D01*
X98638095Y-122358333D01*
X98733333Y-122310714D01*
X98923809Y-122310714D01*
X99019047Y-122358333D01*
X99876190Y-122310714D02*
X99876190Y-122977380D01*
X99447619Y-122310714D02*
X99447619Y-122834523D01*
X99495238Y-122929761D01*
X99590476Y-122977380D01*
X99733333Y-122977380D01*
X99828571Y-122929761D01*
X99876190Y-122882142D01*
X100352380Y-122977380D02*
X100352380Y-122310714D01*
X100352380Y-121977380D02*
X100304761Y-122025000D01*
X100352380Y-122072619D01*
X100400000Y-122025000D01*
X100352380Y-121977380D01*
X100352380Y-122072619D01*
X100685714Y-122310714D02*
X101066666Y-122310714D01*
X100828571Y-121977380D02*
X100828571Y-122834523D01*
X100876190Y-122929761D01*
X100971428Y-122977380D01*
X101066666Y-122977380D01*
X101828571Y-122929761D02*
X101733333Y-122977380D01*
X101542857Y-122977380D01*
X101447619Y-122929761D01*
X101400000Y-122882142D01*
X101352380Y-122786904D01*
X101352380Y-122501190D01*
X101400000Y-122405952D01*
X101447619Y-122358333D01*
X101542857Y-122310714D01*
X101733333Y-122310714D01*
X101828571Y-122358333D01*
X102257142Y-122977380D02*
X102257142Y-122310714D01*
X102257142Y-122501190D02*
X102304761Y-122405952D01*
X102352380Y-122358333D01*
X102447619Y-122310714D01*
X102542857Y-122310714D01*
X103019047Y-122977380D02*
X102923809Y-122929761D01*
X102876190Y-122882142D01*
X102828571Y-122786904D01*
X102828571Y-122501190D01*
X102876190Y-122405952D01*
X102923809Y-122358333D01*
X103019047Y-122310714D01*
X103161904Y-122310714D01*
X103257142Y-122358333D01*
X103304761Y-122405952D01*
X103352380Y-122501190D01*
X103352380Y-122786904D01*
X103304761Y-122882142D01*
X103257142Y-122929761D01*
X103161904Y-122977380D01*
X103019047Y-122977380D01*
X103733333Y-122929761D02*
X103828571Y-122977380D01*
X104019047Y-122977380D01*
X104114285Y-122929761D01*
X104161904Y-122834523D01*
X104161904Y-122786904D01*
X104114285Y-122691666D01*
X104019047Y-122644047D01*
X103876190Y-122644047D01*
X103780952Y-122596428D01*
X103733333Y-122501190D01*
X103733333Y-122453571D01*
X103780952Y-122358333D01*
X103876190Y-122310714D01*
X104019047Y-122310714D01*
X104114285Y-122358333D01*
X104542857Y-122929761D02*
X104638095Y-122977380D01*
X104828571Y-122977380D01*
X104923809Y-122929761D01*
X104971428Y-122834523D01*
X104971428Y-122786904D01*
X104923809Y-122691666D01*
X104828571Y-122644047D01*
X104685714Y-122644047D01*
X104590476Y-122596428D01*
X104542857Y-122501190D01*
X104542857Y-122453571D01*
X104590476Y-122358333D01*
X104685714Y-122310714D01*
X104828571Y-122310714D01*
X104923809Y-122358333D01*
X105400000Y-122977380D02*
X105400000Y-122310714D01*
X105400000Y-121977380D02*
X105352380Y-122025000D01*
X105400000Y-122072619D01*
X105447619Y-122025000D01*
X105400000Y-121977380D01*
X105400000Y-122072619D01*
X105876190Y-122310714D02*
X105876190Y-122977380D01*
X105876190Y-122405952D02*
X105923809Y-122358333D01*
X106019047Y-122310714D01*
X106161904Y-122310714D01*
X106257142Y-122358333D01*
X106304761Y-122453571D01*
X106304761Y-122977380D01*
X107209523Y-122310714D02*
X107209523Y-123120238D01*
X107161904Y-123215476D01*
X107114285Y-123263095D01*
X107019047Y-123310714D01*
X106876190Y-123310714D01*
X106780952Y-123263095D01*
X107209523Y-122929761D02*
X107114285Y-122977380D01*
X106923809Y-122977380D01*
X106828571Y-122929761D01*
X106780952Y-122882142D01*
X106733333Y-122786904D01*
X106733333Y-122501190D01*
X106780952Y-122405952D01*
X106828571Y-122358333D01*
X106923809Y-122310714D01*
X107114285Y-122310714D01*
X107209523Y-122358333D01*
X107685714Y-122882142D02*
X107733333Y-122929761D01*
X107685714Y-122977380D01*
X107638095Y-122929761D01*
X107685714Y-122882142D01*
X107685714Y-122977380D01*
X108590476Y-122929761D02*
X108495238Y-122977380D01*
X108304761Y-122977380D01*
X108209523Y-122929761D01*
X108161904Y-122882142D01*
X108114285Y-122786904D01*
X108114285Y-122501190D01*
X108161904Y-122405952D01*
X108209523Y-122358333D01*
X108304761Y-122310714D01*
X108495238Y-122310714D01*
X108590476Y-122358333D01*
X109161904Y-122977380D02*
X109066666Y-122929761D01*
X109019047Y-122882142D01*
X108971428Y-122786904D01*
X108971428Y-122501190D01*
X109019047Y-122405952D01*
X109066666Y-122358333D01*
X109161904Y-122310714D01*
X109304761Y-122310714D01*
X109400000Y-122358333D01*
X109447619Y-122405952D01*
X109495238Y-122501190D01*
X109495238Y-122786904D01*
X109447619Y-122882142D01*
X109400000Y-122929761D01*
X109304761Y-122977380D01*
X109161904Y-122977380D01*
X109923809Y-122977380D02*
X109923809Y-122310714D01*
X109923809Y-122405952D02*
X109971428Y-122358333D01*
X110066666Y-122310714D01*
X110209523Y-122310714D01*
X110304761Y-122358333D01*
X110352380Y-122453571D01*
X110352380Y-122977380D01*
X110352380Y-122453571D02*
X110400000Y-122358333D01*
X110495238Y-122310714D01*
X110638095Y-122310714D01*
X110733333Y-122358333D01*
X110780952Y-122453571D01*
X110780952Y-122977380D01*
X61988095Y-106052380D02*
X61988095Y-105052380D01*
X62226190Y-105052380D01*
X62369047Y-105100000D01*
X62464285Y-105195238D01*
X62511904Y-105290476D01*
X62559523Y-105480952D01*
X62559523Y-105623809D01*
X62511904Y-105814285D01*
X62464285Y-105909523D01*
X62369047Y-106004761D01*
X62226190Y-106052380D01*
X61988095Y-106052380D01*
X63178571Y-105052380D02*
X63369047Y-105052380D01*
X63464285Y-105100000D01*
X63559523Y-105195238D01*
X63607142Y-105385714D01*
X63607142Y-105719047D01*
X63559523Y-105909523D01*
X63464285Y-106004761D01*
X63369047Y-106052380D01*
X63178571Y-106052380D01*
X63083333Y-106004761D01*
X62988095Y-105909523D01*
X62940476Y-105719047D01*
X62940476Y-105385714D01*
X62988095Y-105195238D01*
X63083333Y-105100000D01*
X63178571Y-105052380D01*
X64035714Y-106052380D02*
X64035714Y-105052380D01*
X64607142Y-106052380D01*
X64607142Y-105052380D01*
X65083333Y-105528571D02*
X65416666Y-105528571D01*
X65559523Y-106052380D02*
X65083333Y-106052380D01*
X65083333Y-105052380D01*
X65559523Y-105052380D01*
X49133333Y-128452380D02*
X48800000Y-127976190D01*
X48561904Y-128452380D02*
X48561904Y-127452380D01*
X48942857Y-127452380D01*
X49038095Y-127500000D01*
X49085714Y-127547619D01*
X49133333Y-127642857D01*
X49133333Y-127785714D01*
X49085714Y-127880952D01*
X49038095Y-127928571D01*
X48942857Y-127976190D01*
X48561904Y-127976190D01*
X49466666Y-127452380D02*
X50133333Y-128452380D01*
X50133333Y-127452380D02*
X49466666Y-128452380D01*
X48438095Y-124652380D02*
X49009523Y-124652380D01*
X48723809Y-125652380D02*
X48723809Y-124652380D01*
X49247619Y-124652380D02*
X49914285Y-125652380D01*
X49914285Y-124652380D02*
X49247619Y-125652380D01*
X86885714Y-132952380D02*
X86314285Y-132952380D01*
X86600000Y-132952380D02*
X86600000Y-131952380D01*
X86504761Y-132095238D01*
X86409523Y-132190476D01*
X86314285Y-132238095D01*
X109885714Y-132952380D02*
X109314285Y-132952380D01*
X109600000Y-132952380D02*
X109600000Y-131952380D01*
X109504761Y-132095238D01*
X109409523Y-132190476D01*
X109314285Y-132238095D01*
X99085714Y-85952380D02*
X98514285Y-85952380D01*
X98800000Y-85952380D02*
X98800000Y-84952380D01*
X98704761Y-85095238D01*
X98609523Y-85190476D01*
X98514285Y-85238095D01*
X76285714Y-86052380D02*
X75714285Y-86052380D01*
X76000000Y-86052380D02*
X76000000Y-85052380D01*
X75904761Y-85195238D01*
X75809523Y-85290476D01*
X75714285Y-85338095D01*
X53485714Y-86052380D02*
X52914285Y-86052380D01*
X53200000Y-86052380D02*
X53200000Y-85052380D01*
X53104761Y-85195238D01*
X53009523Y-85290476D01*
X52914285Y-85338095D01*
X71247619Y-94052380D02*
X70914285Y-93576190D01*
X70676190Y-94052380D02*
X70676190Y-93052380D01*
X71057142Y-93052380D01*
X71152380Y-93100000D01*
X71200000Y-93147619D01*
X71247619Y-93242857D01*
X71247619Y-93385714D01*
X71200000Y-93480952D01*
X71152380Y-93528571D01*
X71057142Y-93576190D01*
X70676190Y-93576190D01*
X71676190Y-93528571D02*
X72009523Y-93528571D01*
X72152380Y-94052380D02*
X71676190Y-94052380D01*
X71676190Y-93052380D01*
X72152380Y-93052380D01*
X72533333Y-94004761D02*
X72676190Y-94052380D01*
X72914285Y-94052380D01*
X73009523Y-94004761D01*
X73057142Y-93957142D01*
X73104761Y-93861904D01*
X73104761Y-93766666D01*
X73057142Y-93671428D01*
X73009523Y-93623809D01*
X72914285Y-93576190D01*
X72723809Y-93528571D01*
X72628571Y-93480952D01*
X72580952Y-93433333D01*
X72533333Y-93338095D01*
X72533333Y-93242857D01*
X72580952Y-93147619D01*
X72628571Y-93100000D01*
X72723809Y-93052380D01*
X72961904Y-93052380D01*
X73104761Y-93100000D01*
X73533333Y-93528571D02*
X73866666Y-93528571D01*
X74009523Y-94052380D02*
X73533333Y-94052380D01*
X73533333Y-93052380D01*
X74009523Y-93052380D01*
X74295238Y-93052380D02*
X74866666Y-93052380D01*
X74580952Y-94052380D02*
X74580952Y-93052380D01*
X36152380Y-108852380D02*
X36961904Y-108852380D01*
X37057142Y-108804761D01*
X37104761Y-108757142D01*
X37152380Y-108661904D01*
X37152380Y-108471428D01*
X37104761Y-108376190D01*
X37057142Y-108328571D01*
X36961904Y-108280952D01*
X36152380Y-108280952D01*
X37104761Y-107852380D02*
X37152380Y-107709523D01*
X37152380Y-107471428D01*
X37104761Y-107376190D01*
X37057142Y-107328571D01*
X36961904Y-107280952D01*
X36866666Y-107280952D01*
X36771428Y-107328571D01*
X36723809Y-107376190D01*
X36676190Y-107471428D01*
X36628571Y-107661904D01*
X36580952Y-107757142D01*
X36533333Y-107804761D01*
X36438095Y-107852380D01*
X36342857Y-107852380D01*
X36247619Y-107804761D01*
X36200000Y-107757142D01*
X36152380Y-107661904D01*
X36152380Y-107423809D01*
X36200000Y-107280952D01*
X36628571Y-106519047D02*
X36676190Y-106376190D01*
X36723809Y-106328571D01*
X36819047Y-106280952D01*
X36961904Y-106280952D01*
X37057142Y-106328571D01*
X37104761Y-106376190D01*
X37152380Y-106471428D01*
X37152380Y-106852380D01*
X36152380Y-106852380D01*
X36152380Y-106519047D01*
X36200000Y-106423809D01*
X36247619Y-106376190D01*
X36342857Y-106328571D01*
X36438095Y-106328571D01*
X36533333Y-106376190D01*
X36580952Y-106423809D01*
X36628571Y-106519047D01*
X36628571Y-106852380D01*
X37485714Y-105614285D02*
X36057142Y-105614285D01*
X36152380Y-104995238D02*
X37152380Y-104757142D01*
X36438095Y-104566666D01*
X37152380Y-104376190D01*
X36152380Y-104138095D01*
X36866666Y-103804761D02*
X36866666Y-103328571D01*
X37152380Y-103900000D02*
X36152380Y-103566666D01*
X37152380Y-103233333D01*
X37152380Y-102423809D02*
X37152380Y-102900000D01*
X36152380Y-102900000D01*
X37152380Y-101614285D02*
X37152380Y-102090476D01*
X36152380Y-102090476D01*
X36104761Y-100566666D02*
X37390476Y-101423809D01*
X36628571Y-99900000D02*
X36676190Y-99757142D01*
X36723809Y-99709523D01*
X36819047Y-99661904D01*
X36961904Y-99661904D01*
X37057142Y-99709523D01*
X37104761Y-99757142D01*
X37152380Y-99852380D01*
X37152380Y-100233333D01*
X36152380Y-100233333D01*
X36152380Y-99900000D01*
X36200000Y-99804761D01*
X36247619Y-99757142D01*
X36342857Y-99709523D01*
X36438095Y-99709523D01*
X36533333Y-99757142D01*
X36580952Y-99804761D01*
X36628571Y-99900000D01*
X36628571Y-100233333D01*
X36152380Y-99376190D02*
X36152380Y-98804761D01*
X37152380Y-99090476D02*
X36152380Y-99090476D01*
X33535714Y-87602380D02*
X34154761Y-87602380D01*
X33821428Y-87983333D01*
X33964285Y-87983333D01*
X34059523Y-88030952D01*
X34107142Y-88078571D01*
X34154761Y-88173809D01*
X34154761Y-88411904D01*
X34107142Y-88507142D01*
X34059523Y-88554761D01*
X33964285Y-88602380D01*
X33678571Y-88602380D01*
X33583333Y-88554761D01*
X33535714Y-88507142D01*
X34583333Y-88507142D02*
X34630952Y-88554761D01*
X34583333Y-88602380D01*
X34535714Y-88554761D01*
X34583333Y-88507142D01*
X34583333Y-88602380D01*
X34964285Y-87602380D02*
X35630952Y-87602380D01*
X35202380Y-88602380D01*
X36773809Y-88221428D02*
X37535714Y-88221428D01*
X39202380Y-87602380D02*
X39011904Y-87602380D01*
X38916666Y-87650000D01*
X38869047Y-87697619D01*
X38773809Y-87840476D01*
X38726190Y-88030952D01*
X38726190Y-88411904D01*
X38773809Y-88507142D01*
X38821428Y-88554761D01*
X38916666Y-88602380D01*
X39107142Y-88602380D01*
X39202380Y-88554761D01*
X39250000Y-88507142D01*
X39297619Y-88411904D01*
X39297619Y-88173809D01*
X39250000Y-88078571D01*
X39202380Y-88030952D01*
X39107142Y-87983333D01*
X38916666Y-87983333D01*
X38821428Y-88030952D01*
X38773809Y-88078571D01*
X38726190Y-88173809D01*
X40345238Y-87602380D02*
X40678571Y-88602380D01*
X41011904Y-87602380D01*
X41345238Y-88602380D02*
X41345238Y-87602380D01*
X41583333Y-87602380D01*
X41726190Y-87650000D01*
X41821428Y-87745238D01*
X41869047Y-87840476D01*
X41916666Y-88030952D01*
X41916666Y-88173809D01*
X41869047Y-88364285D01*
X41821428Y-88459523D01*
X41726190Y-88554761D01*
X41583333Y-88602380D01*
X41345238Y-88602380D01*
X42916666Y-88507142D02*
X42869047Y-88554761D01*
X42726190Y-88602380D01*
X42630952Y-88602380D01*
X42488095Y-88554761D01*
X42392857Y-88459523D01*
X42345238Y-88364285D01*
X42297619Y-88173809D01*
X42297619Y-88030952D01*
X42345238Y-87840476D01*
X42392857Y-87745238D01*
X42488095Y-87650000D01*
X42630952Y-87602380D01*
X42726190Y-87602380D01*
X42869047Y-87650000D01*
X42916666Y-87697619D01*
X39864285Y-86052380D02*
X40054761Y-86052380D01*
X40150000Y-86100000D01*
X40245238Y-86195238D01*
X40292857Y-86385714D01*
X40292857Y-86719047D01*
X40245238Y-86909523D01*
X40150000Y-87004761D01*
X40054761Y-87052380D01*
X39864285Y-87052380D01*
X39769047Y-87004761D01*
X39673809Y-86909523D01*
X39626190Y-86719047D01*
X39626190Y-86385714D01*
X39673809Y-86195238D01*
X39769047Y-86100000D01*
X39864285Y-86052380D01*
X41054761Y-86528571D02*
X40721428Y-86528571D01*
X40721428Y-87052380D02*
X40721428Y-86052380D01*
X41197619Y-86052380D01*
X41911904Y-86528571D02*
X41578571Y-86528571D01*
X41578571Y-87052380D02*
X41578571Y-86052380D01*
X42054761Y-86052380D01*
X47197619Y-86052380D02*
X47388095Y-86052380D01*
X47483333Y-86100000D01*
X47578571Y-86195238D01*
X47626190Y-86385714D01*
X47626190Y-86719047D01*
X47578571Y-86909523D01*
X47483333Y-87004761D01*
X47388095Y-87052380D01*
X47197619Y-87052380D01*
X47102380Y-87004761D01*
X47007142Y-86909523D01*
X46959523Y-86719047D01*
X46959523Y-86385714D01*
X47007142Y-86195238D01*
X47102380Y-86100000D01*
X47197619Y-86052380D01*
X48054761Y-87052380D02*
X48054761Y-86052380D01*
X48626190Y-87052380D01*
X48626190Y-86052380D01*
X53052380Y-95309523D02*
X52052380Y-95309523D01*
X52052380Y-94928571D01*
X52100000Y-94833333D01*
X52147619Y-94785714D01*
X52242857Y-94738095D01*
X52385714Y-94738095D01*
X52480952Y-94785714D01*
X52528571Y-94833333D01*
X52576190Y-94928571D01*
X52576190Y-95309523D01*
X52052380Y-94119047D02*
X52052380Y-93928571D01*
X52100000Y-93833333D01*
X52195238Y-93738095D01*
X52385714Y-93690476D01*
X52719047Y-93690476D01*
X52909523Y-93738095D01*
X53004761Y-93833333D01*
X53052380Y-93928571D01*
X53052380Y-94119047D01*
X53004761Y-94214285D01*
X52909523Y-94309523D01*
X52719047Y-94357142D01*
X52385714Y-94357142D01*
X52195238Y-94309523D01*
X52100000Y-94214285D01*
X52052380Y-94119047D01*
X52052380Y-93357142D02*
X53052380Y-93119047D01*
X52338095Y-92928571D01*
X53052380Y-92738095D01*
X52052380Y-92500000D01*
X52528571Y-92119047D02*
X52528571Y-91785714D01*
X53052380Y-91642857D02*
X53052380Y-92119047D01*
X52052380Y-92119047D01*
X52052380Y-91642857D01*
X53052380Y-90642857D02*
X52576190Y-90976190D01*
X53052380Y-91214285D02*
X52052380Y-91214285D01*
X52052380Y-90833333D01*
X52100000Y-90738095D01*
X52147619Y-90690476D01*
X52242857Y-90642857D01*
X52385714Y-90642857D01*
X52480952Y-90690476D01*
X52528571Y-90738095D01*
X52576190Y-90833333D01*
X52576190Y-91214285D01*
X58083333Y-128052380D02*
X58083333Y-128766666D01*
X58035714Y-128909523D01*
X57940476Y-129004761D01*
X57797619Y-129052380D01*
X57702380Y-129052380D01*
X58416666Y-128052380D02*
X58988095Y-128052380D01*
X58702380Y-129052380D02*
X58702380Y-128052380D01*
X59273809Y-128766666D02*
X59750000Y-128766666D01*
X59178571Y-129052380D02*
X59511904Y-128052380D01*
X59845238Y-129052380D01*
X60702380Y-128100000D02*
X60607142Y-128052380D01*
X60464285Y-128052380D01*
X60321428Y-128100000D01*
X60226190Y-128195238D01*
X60178571Y-128290476D01*
X60130952Y-128480952D01*
X60130952Y-128623809D01*
X60178571Y-128814285D01*
X60226190Y-128909523D01*
X60321428Y-129004761D01*
X60464285Y-129052380D01*
X60559523Y-129052380D01*
X60702380Y-129004761D01*
X60750000Y-128957142D01*
X60750000Y-128623809D01*
X60559523Y-128623809D01*
D12*
G36*
X62282573Y-123601748D02*
X62332003Y-123877134D01*
X62428745Y-123991212D01*
X62436000Y-123992889D01*
X62575409Y-123950107D01*
X62773651Y-123810671D01*
X62985975Y-123611883D01*
X63167632Y-123391047D01*
X63180147Y-123372572D01*
X63246806Y-123287621D01*
X63267633Y-123324893D01*
X63251088Y-123505483D01*
X63246853Y-123538878D01*
X63204412Y-123869423D01*
X63494237Y-123553007D01*
X63703830Y-123353140D01*
X63846575Y-123299908D01*
X63942775Y-123394763D01*
X64002333Y-123589333D01*
X64063027Y-123781972D01*
X64128678Y-123885261D01*
X64235967Y-123865368D01*
X64399057Y-123757718D01*
X64567321Y-123606263D01*
X64690135Y-123454957D01*
X64722000Y-123370140D01*
X64769301Y-123262372D01*
X64805046Y-123250666D01*
X64847930Y-123326686D01*
X64847792Y-123529612D01*
X64837402Y-123620503D01*
X64827519Y-123910434D01*
X64899026Y-124052759D01*
X65053828Y-124049388D01*
X65191389Y-123975679D01*
X65336254Y-123905900D01*
X65399247Y-123925370D01*
X65399333Y-123927863D01*
X65327003Y-124032324D01*
X65158160Y-124121360D01*
X64965020Y-124165288D01*
X64852365Y-124152673D01*
X64715714Y-124036275D01*
X64651843Y-123922433D01*
X64590025Y-123800647D01*
X64517402Y-123829039D01*
X64474177Y-123878223D01*
X64286737Y-124005593D01*
X64090303Y-123999215D01*
X63941870Y-123868988D01*
X63907573Y-123779833D01*
X63843701Y-123561453D01*
X63769857Y-123480567D01*
X63656608Y-123536317D01*
X63474521Y-123727849D01*
X63441149Y-123766273D01*
X63118386Y-124139666D01*
X63115859Y-123890224D01*
X63113333Y-123640782D01*
X62834135Y-123911391D01*
X62639243Y-124075026D01*
X62474242Y-124171257D01*
X62427735Y-124182000D01*
X62234076Y-124107951D01*
X62113022Y-123926784D01*
X62097333Y-123823865D01*
X62084340Y-123733314D01*
X62020097Y-123736696D01*
X61866707Y-123839524D01*
X61836414Y-123861836D01*
X61679913Y-123969913D01*
X61573022Y-123993621D01*
X61474445Y-123914839D01*
X61342886Y-123715449D01*
X61285103Y-123619944D01*
X61218816Y-123539542D01*
X61148152Y-123561724D01*
X61038378Y-123705356D01*
X60988770Y-123780895D01*
X60824837Y-124007742D01*
X60721118Y-124081758D01*
X60668803Y-124004740D01*
X60658000Y-123848330D01*
X60627826Y-123625988D01*
X60540316Y-123559543D01*
X60399987Y-123647261D01*
X60211355Y-123887406D01*
X60101540Y-124062078D01*
X60014612Y-124158740D01*
X59944661Y-124107572D01*
X59914653Y-123966197D01*
X59921539Y-123749199D01*
X59956143Y-123517211D01*
X60009287Y-123330867D01*
X60071795Y-123250801D01*
X60074357Y-123250666D01*
X60117752Y-123325305D01*
X60107616Y-123524524D01*
X60100342Y-123568166D01*
X60043012Y-123885666D01*
X60241754Y-123631666D01*
X60441252Y-123398070D01*
X60576424Y-123296735D01*
X60667257Y-123313071D01*
X60671944Y-123317692D01*
X60721746Y-123438089D01*
X60757318Y-123631666D01*
X60785000Y-123885666D01*
X60951421Y-123610500D01*
X61119956Y-123397313D01*
X61265674Y-123349593D01*
X61385362Y-123467834D01*
X61416873Y-123538775D01*
X61529748Y-123749256D01*
X61662250Y-123804865D01*
X61833783Y-123706110D01*
X61980494Y-123553506D01*
X62256146Y-123234624D01*
X62282573Y-123601748D01*
X62282573Y-123601748D01*
G37*
X62282573Y-123601748D02*
X62332003Y-123877134D01*
X62428745Y-123991212D01*
X62436000Y-123992889D01*
X62575409Y-123950107D01*
X62773651Y-123810671D01*
X62985975Y-123611883D01*
X63167632Y-123391047D01*
X63180147Y-123372572D01*
X63246806Y-123287621D01*
X63267633Y-123324893D01*
X63251088Y-123505483D01*
X63246853Y-123538878D01*
X63204412Y-123869423D01*
X63494237Y-123553007D01*
X63703830Y-123353140D01*
X63846575Y-123299908D01*
X63942775Y-123394763D01*
X64002333Y-123589333D01*
X64063027Y-123781972D01*
X64128678Y-123885261D01*
X64235967Y-123865368D01*
X64399057Y-123757718D01*
X64567321Y-123606263D01*
X64690135Y-123454957D01*
X64722000Y-123370140D01*
X64769301Y-123262372D01*
X64805046Y-123250666D01*
X64847930Y-123326686D01*
X64847792Y-123529612D01*
X64837402Y-123620503D01*
X64827519Y-123910434D01*
X64899026Y-124052759D01*
X65053828Y-124049388D01*
X65191389Y-123975679D01*
X65336254Y-123905900D01*
X65399247Y-123925370D01*
X65399333Y-123927863D01*
X65327003Y-124032324D01*
X65158160Y-124121360D01*
X64965020Y-124165288D01*
X64852365Y-124152673D01*
X64715714Y-124036275D01*
X64651843Y-123922433D01*
X64590025Y-123800647D01*
X64517402Y-123829039D01*
X64474177Y-123878223D01*
X64286737Y-124005593D01*
X64090303Y-123999215D01*
X63941870Y-123868988D01*
X63907573Y-123779833D01*
X63843701Y-123561453D01*
X63769857Y-123480567D01*
X63656608Y-123536317D01*
X63474521Y-123727849D01*
X63441149Y-123766273D01*
X63118386Y-124139666D01*
X63115859Y-123890224D01*
X63113333Y-123640782D01*
X62834135Y-123911391D01*
X62639243Y-124075026D01*
X62474242Y-124171257D01*
X62427735Y-124182000D01*
X62234076Y-124107951D01*
X62113022Y-123926784D01*
X62097333Y-123823865D01*
X62084340Y-123733314D01*
X62020097Y-123736696D01*
X61866707Y-123839524D01*
X61836414Y-123861836D01*
X61679913Y-123969913D01*
X61573022Y-123993621D01*
X61474445Y-123914839D01*
X61342886Y-123715449D01*
X61285103Y-123619944D01*
X61218816Y-123539542D01*
X61148152Y-123561724D01*
X61038378Y-123705356D01*
X60988770Y-123780895D01*
X60824837Y-124007742D01*
X60721118Y-124081758D01*
X60668803Y-124004740D01*
X60658000Y-123848330D01*
X60627826Y-123625988D01*
X60540316Y-123559543D01*
X60399987Y-123647261D01*
X60211355Y-123887406D01*
X60101540Y-124062078D01*
X60014612Y-124158740D01*
X59944661Y-124107572D01*
X59914653Y-123966197D01*
X59921539Y-123749199D01*
X59956143Y-123517211D01*
X60009287Y-123330867D01*
X60071795Y-123250801D01*
X60074357Y-123250666D01*
X60117752Y-123325305D01*
X60107616Y-123524524D01*
X60100342Y-123568166D01*
X60043012Y-123885666D01*
X60241754Y-123631666D01*
X60441252Y-123398070D01*
X60576424Y-123296735D01*
X60667257Y-123313071D01*
X60671944Y-123317692D01*
X60721746Y-123438089D01*
X60757318Y-123631666D01*
X60785000Y-123885666D01*
X60951421Y-123610500D01*
X61119956Y-123397313D01*
X61265674Y-123349593D01*
X61385362Y-123467834D01*
X61416873Y-123538775D01*
X61529748Y-123749256D01*
X61662250Y-123804865D01*
X61833783Y-123706110D01*
X61980494Y-123553506D01*
X62256146Y-123234624D01*
X62282573Y-123601748D01*
G36*
X65051114Y-122726576D02*
X65060666Y-122785000D01*
X65014949Y-122897671D01*
X64976000Y-122912000D01*
X64900885Y-122843423D01*
X64891333Y-122785000D01*
X64937050Y-122672328D01*
X64976000Y-122658000D01*
X65051114Y-122726576D01*
X65051114Y-122726576D01*
G37*
X65051114Y-122726576D02*
X65060666Y-122785000D01*
X65014949Y-122897671D01*
X64976000Y-122912000D01*
X64900885Y-122843423D01*
X64891333Y-122785000D01*
X64937050Y-122672328D01*
X64976000Y-122658000D01*
X65051114Y-122726576D01*
G36*
X62423816Y-122634860D02*
X62436000Y-122695336D01*
X62391795Y-122811178D01*
X62351333Y-122827333D01*
X62269090Y-122766565D01*
X62266666Y-122747663D01*
X62328210Y-122632996D01*
X62351333Y-122615666D01*
X62423816Y-122634860D01*
X62423816Y-122634860D01*
G37*
X62423816Y-122634860D02*
X62436000Y-122695336D01*
X62391795Y-122811178D01*
X62351333Y-122827333D01*
X62269090Y-122766565D01*
X62266666Y-122747663D01*
X62328210Y-122632996D01*
X62351333Y-122615666D01*
X62423816Y-122634860D01*
G36*
X58213698Y-121021767D02*
X58235492Y-121100166D01*
X58242060Y-121270015D01*
X58251686Y-121531654D01*
X58256659Y-121670195D01*
X58279991Y-121936548D01*
X58335402Y-122074476D01*
X58423900Y-122121686D01*
X58634257Y-122090641D01*
X58775412Y-121924635D01*
X58822000Y-121678233D01*
X58768444Y-121394180D01*
X58614181Y-121235670D01*
X58466399Y-121206000D01*
X58332889Y-121163964D01*
X58339443Y-121073743D01*
X58447924Y-121003391D01*
X58638074Y-120957506D01*
X58789010Y-121015803D01*
X58906666Y-121121333D01*
X59036546Y-121342276D01*
X59076000Y-121665619D01*
X59030260Y-122010657D01*
X58889256Y-122218275D01*
X58647315Y-122294743D01*
X58511956Y-122288996D01*
X58320097Y-122280110D01*
X58243051Y-122340420D01*
X58229333Y-122493001D01*
X58193931Y-122676547D01*
X58081166Y-122730178D01*
X58015272Y-122714827D01*
X57974160Y-122648944D01*
X57953803Y-122503076D01*
X57950173Y-122247767D01*
X57959244Y-121853563D01*
X57959613Y-121841178D01*
X57976663Y-121429026D01*
X58001145Y-121160798D01*
X58037289Y-121011112D01*
X58089324Y-120954589D01*
X58107780Y-120951999D01*
X58213698Y-121021767D01*
X58213698Y-121021767D01*
G37*
X58213698Y-121021767D02*
X58235492Y-121100166D01*
X58242060Y-121270015D01*
X58251686Y-121531654D01*
X58256659Y-121670195D01*
X58279991Y-121936548D01*
X58335402Y-122074476D01*
X58423900Y-122121686D01*
X58634257Y-122090641D01*
X58775412Y-121924635D01*
X58822000Y-121678233D01*
X58768444Y-121394180D01*
X58614181Y-121235670D01*
X58466399Y-121206000D01*
X58332889Y-121163964D01*
X58339443Y-121073743D01*
X58447924Y-121003391D01*
X58638074Y-120957506D01*
X58789010Y-121015803D01*
X58906666Y-121121333D01*
X59036546Y-121342276D01*
X59076000Y-121665619D01*
X59030260Y-122010657D01*
X58889256Y-122218275D01*
X58647315Y-122294743D01*
X58511956Y-122288996D01*
X58320097Y-122280110D01*
X58243051Y-122340420D01*
X58229333Y-122493001D01*
X58193931Y-122676547D01*
X58081166Y-122730178D01*
X58015272Y-122714827D01*
X57974160Y-122648944D01*
X57953803Y-122503076D01*
X57950173Y-122247767D01*
X57959244Y-121853563D01*
X57959613Y-121841178D01*
X57976663Y-121429026D01*
X58001145Y-121160798D01*
X58037289Y-121011112D01*
X58089324Y-120954589D01*
X58107780Y-120951999D01*
X58213698Y-121021767D01*
G36*
X57404884Y-120402369D02*
X57523833Y-120501427D01*
X57532456Y-120529623D01*
X57498671Y-120622528D01*
X57332172Y-120655935D01*
X57281266Y-120656623D01*
X57054031Y-120696690D01*
X56973181Y-120813605D01*
X57038597Y-120999302D01*
X57250159Y-121245719D01*
X57290602Y-121283837D01*
X57495328Y-121505695D01*
X57617360Y-121704741D01*
X57636666Y-121785661D01*
X57560073Y-122032379D01*
X57353673Y-122213521D01*
X57052533Y-122302113D01*
X56959333Y-122306666D01*
X56737864Y-122292529D01*
X56639960Y-122235227D01*
X56620666Y-122136615D01*
X56639334Y-122020943D01*
X56726162Y-122034698D01*
X56790292Y-122072498D01*
X56976943Y-122133870D01*
X57107792Y-122085735D01*
X57262492Y-121919464D01*
X57251990Y-121719513D01*
X57076659Y-121487679D01*
X56962980Y-121388445D01*
X56709066Y-121125602D01*
X56622299Y-120876338D01*
X56701589Y-120635027D01*
X56794992Y-120523674D01*
X56980198Y-120413006D01*
X57203584Y-120372733D01*
X57404884Y-120402369D01*
X57404884Y-120402369D01*
G37*
X57404884Y-120402369D02*
X57523833Y-120501427D01*
X57532456Y-120529623D01*
X57498671Y-120622528D01*
X57332172Y-120655935D01*
X57281266Y-120656623D01*
X57054031Y-120696690D01*
X56973181Y-120813605D01*
X57038597Y-120999302D01*
X57250159Y-121245719D01*
X57290602Y-121283837D01*
X57495328Y-121505695D01*
X57617360Y-121704741D01*
X57636666Y-121785661D01*
X57560073Y-122032379D01*
X57353673Y-122213521D01*
X57052533Y-122302113D01*
X56959333Y-122306666D01*
X56737864Y-122292529D01*
X56639960Y-122235227D01*
X56620666Y-122136615D01*
X56639334Y-122020943D01*
X56726162Y-122034698D01*
X56790292Y-122072498D01*
X56976943Y-122133870D01*
X57107792Y-122085735D01*
X57262492Y-121919464D01*
X57251990Y-121719513D01*
X57076659Y-121487679D01*
X56962980Y-121388445D01*
X56709066Y-121125602D01*
X56622299Y-120876338D01*
X56701589Y-120635027D01*
X56794992Y-120523674D01*
X56980198Y-120413006D01*
X57203584Y-120372733D01*
X57404884Y-120402369D01*
G36*
X60091316Y-121078176D02*
X60152727Y-121225464D01*
X60207591Y-121482292D01*
X60239616Y-121747297D01*
X60283198Y-122290242D01*
X59858124Y-122293535D01*
X59603725Y-122285956D01*
X59425928Y-122262971D01*
X59381525Y-122245302D01*
X59341260Y-122128760D01*
X59330000Y-121991901D01*
X59349771Y-121925666D01*
X59584000Y-121925666D01*
X59623686Y-122091647D01*
X59753333Y-122137333D01*
X59886118Y-122087724D01*
X59922666Y-121925666D01*
X59882979Y-121759685D01*
X59753333Y-121714000D01*
X59620548Y-121763608D01*
X59584000Y-121925666D01*
X59349771Y-121925666D01*
X59379463Y-121826200D01*
X59551865Y-121699691D01*
X59626333Y-121666210D01*
X59857531Y-121522205D01*
X59922666Y-121374197D01*
X59890197Y-121244878D01*
X59767487Y-121195094D01*
X59545630Y-121204486D01*
X59433295Y-121200453D01*
X59463228Y-121123678D01*
X59492497Y-121087236D01*
X59681759Y-120971924D01*
X59909948Y-120969903D01*
X60091316Y-121078176D01*
X60091316Y-121078176D01*
G37*
X60091316Y-121078176D02*
X60152727Y-121225464D01*
X60207591Y-121482292D01*
X60239616Y-121747297D01*
X60283198Y-122290242D01*
X59858124Y-122293535D01*
X59603725Y-122285956D01*
X59425928Y-122262971D01*
X59381525Y-122245302D01*
X59341260Y-122128760D01*
X59330000Y-121991901D01*
X59349771Y-121925666D01*
X59584000Y-121925666D01*
X59623686Y-122091647D01*
X59753333Y-122137333D01*
X59886118Y-122087724D01*
X59922666Y-121925666D01*
X59882979Y-121759685D01*
X59753333Y-121714000D01*
X59620548Y-121763608D01*
X59584000Y-121925666D01*
X59349771Y-121925666D01*
X59379463Y-121826200D01*
X59551865Y-121699691D01*
X59626333Y-121666210D01*
X59857531Y-121522205D01*
X59922666Y-121374197D01*
X59890197Y-121244878D01*
X59767487Y-121195094D01*
X59545630Y-121204486D01*
X59433295Y-121200453D01*
X59463228Y-121123678D01*
X59492497Y-121087236D01*
X59681759Y-120971924D01*
X59909948Y-120969903D01*
X60091316Y-121078176D01*
G36*
X60792972Y-121014868D02*
X60816226Y-121044043D01*
X60900757Y-121090299D01*
X60965156Y-121044043D01*
X61125841Y-120962833D01*
X61206942Y-120952000D01*
X61311958Y-120993721D01*
X61303396Y-121086069D01*
X61204442Y-121179819D01*
X61079674Y-121222216D01*
X60977546Y-121255635D01*
X60918202Y-121346095D01*
X60886528Y-121533841D01*
X60871126Y-121777500D01*
X60848697Y-122074827D01*
X60809806Y-122237769D01*
X60743293Y-122301194D01*
X60701793Y-122306557D01*
X60629180Y-122284320D01*
X60585610Y-122195931D01*
X60564121Y-122008665D01*
X60557749Y-121689801D01*
X60557666Y-121629205D01*
X60568110Y-121249122D01*
X60600464Y-121026840D01*
X60656262Y-120952054D01*
X60658503Y-120951981D01*
X60792972Y-121014868D01*
X60792972Y-121014868D01*
G37*
X60792972Y-121014868D02*
X60816226Y-121044043D01*
X60900757Y-121090299D01*
X60965156Y-121044043D01*
X61125841Y-120962833D01*
X61206942Y-120952000D01*
X61311958Y-120993721D01*
X61303396Y-121086069D01*
X61204442Y-121179819D01*
X61079674Y-121222216D01*
X60977546Y-121255635D01*
X60918202Y-121346095D01*
X60886528Y-121533841D01*
X60871126Y-121777500D01*
X60848697Y-122074827D01*
X60809806Y-122237769D01*
X60743293Y-122301194D01*
X60701793Y-122306557D01*
X60629180Y-122284320D01*
X60585610Y-122195931D01*
X60564121Y-122008665D01*
X60557749Y-121689801D01*
X60557666Y-121629205D01*
X60568110Y-121249122D01*
X60600464Y-121026840D01*
X60656262Y-120952054D01*
X60658503Y-120951981D01*
X60792972Y-121014868D01*
G36*
X61785333Y-120849190D02*
X61856060Y-120932640D01*
X61954666Y-120952000D01*
X62100204Y-120988440D01*
X62102151Y-121067531D01*
X61961589Y-121143929D01*
X61950009Y-121147083D01*
X61849030Y-121194710D01*
X61801972Y-121298667D01*
X61795251Y-121504496D01*
X61801842Y-121643791D01*
X61824755Y-121906959D01*
X61867017Y-122041206D01*
X61947478Y-122086943D01*
X62009614Y-122089196D01*
X62143223Y-122122870D01*
X62148722Y-122195029D01*
X62036673Y-122286984D01*
X61852494Y-122306058D01*
X61674388Y-122257308D01*
X61583581Y-122158500D01*
X61556053Y-121994608D01*
X61531607Y-121729581D01*
X61519989Y-121520909D01*
X61523709Y-121194439D01*
X61573087Y-120988563D01*
X61642781Y-120888933D01*
X61753983Y-120809634D01*
X61785333Y-120849190D01*
X61785333Y-120849190D01*
G37*
X61785333Y-120849190D02*
X61856060Y-120932640D01*
X61954666Y-120952000D01*
X62100204Y-120988440D01*
X62102151Y-121067531D01*
X61961589Y-121143929D01*
X61950009Y-121147083D01*
X61849030Y-121194710D01*
X61801972Y-121298667D01*
X61795251Y-121504496D01*
X61801842Y-121643791D01*
X61824755Y-121906959D01*
X61867017Y-122041206D01*
X61947478Y-122086943D01*
X62009614Y-122089196D01*
X62143223Y-122122870D01*
X62148722Y-122195029D01*
X62036673Y-122286984D01*
X61852494Y-122306058D01*
X61674388Y-122257308D01*
X61583581Y-122158500D01*
X61556053Y-121994608D01*
X61531607Y-121729581D01*
X61519989Y-121520909D01*
X61523709Y-121194439D01*
X61573087Y-120988563D01*
X61642781Y-120888933D01*
X61753983Y-120809634D01*
X61785333Y-120849190D01*
G36*
X62967875Y-121012935D02*
X63127328Y-121206913D01*
X63211514Y-121545106D01*
X63224666Y-121803063D01*
X63224666Y-122277782D01*
X62796873Y-122287526D01*
X62514745Y-122277585D01*
X62363239Y-122225281D01*
X62317732Y-122163460D01*
X62321437Y-121958216D01*
X62399655Y-121863333D01*
X62547333Y-121863333D01*
X62592023Y-122057937D01*
X62746423Y-122133375D01*
X62821333Y-122137333D01*
X62942398Y-122091607D01*
X62955388Y-121946833D01*
X62881448Y-121799475D01*
X62749805Y-121723833D01*
X62619373Y-121731962D01*
X62549068Y-121835919D01*
X62547333Y-121863333D01*
X62399655Y-121863333D01*
X62480924Y-121764749D01*
X62701878Y-121635220D01*
X62881392Y-121538034D01*
X62968978Y-121458623D01*
X62970666Y-121450768D01*
X62900827Y-121312992D01*
X62745902Y-121203038D01*
X62587783Y-121176884D01*
X62575663Y-121180755D01*
X62475966Y-121184656D01*
X62478809Y-121113658D01*
X62584153Y-121014453D01*
X62736176Y-120968332D01*
X62967875Y-121012935D01*
X62967875Y-121012935D01*
G37*
X62967875Y-121012935D02*
X63127328Y-121206913D01*
X63211514Y-121545106D01*
X63224666Y-121803063D01*
X63224666Y-122277782D01*
X62796873Y-122287526D01*
X62514745Y-122277585D01*
X62363239Y-122225281D01*
X62317732Y-122163460D01*
X62321437Y-121958216D01*
X62399655Y-121863333D01*
X62547333Y-121863333D01*
X62592023Y-122057937D01*
X62746423Y-122133375D01*
X62821333Y-122137333D01*
X62942398Y-122091607D01*
X62955388Y-121946833D01*
X62881448Y-121799475D01*
X62749805Y-121723833D01*
X62619373Y-121731962D01*
X62549068Y-121835919D01*
X62547333Y-121863333D01*
X62399655Y-121863333D01*
X62480924Y-121764749D01*
X62701878Y-121635220D01*
X62881392Y-121538034D01*
X62968978Y-121458623D01*
X62970666Y-121450768D01*
X62900827Y-121312992D01*
X62745902Y-121203038D01*
X62587783Y-121176884D01*
X62575663Y-121180755D01*
X62475966Y-121184656D01*
X62478809Y-121113658D01*
X62584153Y-121014453D01*
X62736176Y-120968332D01*
X62967875Y-121012935D01*
G36*
X63760870Y-120977027D02*
X63819002Y-121071444D01*
X63843320Y-121264041D01*
X63839793Y-121583679D01*
X63831275Y-121765975D01*
X63807021Y-122068461D01*
X63767250Y-122235545D01*
X63701353Y-122301087D01*
X63661942Y-122306483D01*
X63590758Y-122282762D01*
X63548040Y-122190224D01*
X63527047Y-121996467D01*
X63521036Y-121669089D01*
X63521000Y-121629077D01*
X63525848Y-121287347D01*
X63544934Y-121082285D01*
X63585073Y-120981391D01*
X63653079Y-120952163D01*
X63662958Y-120951927D01*
X63760870Y-120977027D01*
X63760870Y-120977027D01*
G37*
X63760870Y-120977027D02*
X63819002Y-121071444D01*
X63843320Y-121264041D01*
X63839793Y-121583679D01*
X63831275Y-121765975D01*
X63807021Y-122068461D01*
X63767250Y-122235545D01*
X63701353Y-122301087D01*
X63661942Y-122306483D01*
X63590758Y-122282762D01*
X63548040Y-122190224D01*
X63527047Y-121996467D01*
X63521036Y-121669089D01*
X63521000Y-121629077D01*
X63525848Y-121287347D01*
X63544934Y-121082285D01*
X63585073Y-120981391D01*
X63653079Y-120952163D01*
X63662958Y-120951927D01*
X63760870Y-120977027D01*
G36*
X64347625Y-120997327D02*
X64491182Y-121163758D01*
X64565800Y-121475418D01*
X64579333Y-121762380D01*
X64572699Y-122061439D01*
X64546253Y-122227527D01*
X64490179Y-122296716D01*
X64431166Y-122306821D01*
X64348838Y-122282006D01*
X64303618Y-122183067D01*
X64285309Y-121973587D01*
X64283000Y-121777654D01*
X64277737Y-121486710D01*
X64252383Y-121324086D01*
X64192584Y-121248864D01*
X64087620Y-121220638D01*
X63946450Y-121157151D01*
X63944183Y-121060616D01*
X64072213Y-120981135D01*
X64130911Y-120968660D01*
X64347625Y-120997327D01*
X64347625Y-120997327D01*
G37*
X64347625Y-120997327D02*
X64491182Y-121163758D01*
X64565800Y-121475418D01*
X64579333Y-121762380D01*
X64572699Y-122061439D01*
X64546253Y-122227527D01*
X64490179Y-122296716D01*
X64431166Y-122306821D01*
X64348838Y-122282006D01*
X64303618Y-122183067D01*
X64285309Y-121973587D01*
X64283000Y-121777654D01*
X64277737Y-121486710D01*
X64252383Y-121324086D01*
X64192584Y-121248864D01*
X64087620Y-121220638D01*
X63946450Y-121157151D01*
X63944183Y-121060616D01*
X64072213Y-120981135D01*
X64130911Y-120968660D01*
X64347625Y-120997327D01*
G36*
X68311986Y-114110287D02*
X69049872Y-114158504D01*
X69671667Y-114304193D01*
X70206697Y-114558057D01*
X70684287Y-114930803D01*
X70758546Y-115003413D01*
X71198098Y-115551308D01*
X71525396Y-116181435D01*
X71723199Y-116851402D01*
X71774913Y-117502678D01*
X71779821Y-117682351D01*
X71816692Y-117705967D01*
X71842766Y-117672011D01*
X71908215Y-117609799D01*
X71922703Y-117646575D01*
X71948621Y-117808171D01*
X71974320Y-117900575D01*
X71999148Y-118001041D01*
X71950273Y-117951986D01*
X71933283Y-117928666D01*
X71858053Y-117862823D01*
X71840630Y-117901452D01*
X71894347Y-118038197D01*
X71966333Y-118128238D01*
X72049689Y-118293976D01*
X72091911Y-118541184D01*
X72093333Y-118593869D01*
X72085698Y-118785503D01*
X72037550Y-118904646D01*
X71911028Y-118992810D01*
X71668268Y-119091508D01*
X71624490Y-119107916D01*
X71363522Y-119200375D01*
X71168805Y-119259806D01*
X71095324Y-119272921D01*
X71013723Y-119211227D01*
X70844832Y-119054354D01*
X70617866Y-118830006D01*
X70484667Y-118693886D01*
X70144736Y-118365821D01*
X69850435Y-118141557D01*
X69551889Y-117985065D01*
X69444324Y-117942298D01*
X68798462Y-117784213D01*
X68163783Y-117794737D01*
X67545522Y-117973248D01*
X67088838Y-118221549D01*
X66783342Y-118423181D01*
X66369171Y-118064044D01*
X66133774Y-117867742D01*
X65934758Y-117715521D01*
X65828000Y-117647400D01*
X65700734Y-117570453D01*
X65483634Y-117421232D01*
X65221263Y-117230477D01*
X65193000Y-117209362D01*
X64865011Y-116966797D01*
X64615400Y-116785666D01*
X71500667Y-116785666D01*
X71543000Y-116828000D01*
X71585333Y-116785666D01*
X71543000Y-116743333D01*
X71500667Y-116785666D01*
X64615400Y-116785666D01*
X64517848Y-116714878D01*
X64261667Y-116532800D01*
X63905333Y-116281125D01*
X63669711Y-116105001D01*
X63535326Y-115985002D01*
X63482699Y-115901698D01*
X63492355Y-115835664D01*
X63521440Y-115794439D01*
X63688097Y-115660754D01*
X63951790Y-115512479D01*
X64246624Y-115381143D01*
X64355870Y-115346333D01*
X64896667Y-115346333D01*
X64939000Y-115388666D01*
X64981333Y-115346333D01*
X64939000Y-115304000D01*
X64896667Y-115346333D01*
X64355870Y-115346333D01*
X64506703Y-115298272D01*
X64584332Y-115285909D01*
X64733612Y-115260998D01*
X64767830Y-115231607D01*
X64796456Y-115158302D01*
X64917349Y-115033936D01*
X65080562Y-114899370D01*
X65236149Y-114795466D01*
X65334165Y-114763085D01*
X65338250Y-114764945D01*
X65401010Y-114743343D01*
X65404667Y-114716330D01*
X65476934Y-114648354D01*
X65611336Y-114626666D01*
X65791546Y-114594119D01*
X65872462Y-114538555D01*
X65987259Y-114486562D01*
X66077942Y-114498378D01*
X66262183Y-114502131D01*
X66472984Y-114446548D01*
X66704062Y-114363459D01*
X66879688Y-114315707D01*
X67072064Y-114245925D01*
X67145943Y-114198677D01*
X67278712Y-114128998D01*
X67321921Y-114125722D01*
X67470316Y-114124562D01*
X67479000Y-114123086D01*
X67597275Y-114116368D01*
X67840785Y-114111792D01*
X68165439Y-114110034D01*
X68311986Y-114110287D01*
X68311986Y-114110287D01*
G37*
X68311986Y-114110287D02*
X69049872Y-114158504D01*
X69671667Y-114304193D01*
X70206697Y-114558057D01*
X70684287Y-114930803D01*
X70758546Y-115003413D01*
X71198098Y-115551308D01*
X71525396Y-116181435D01*
X71723199Y-116851402D01*
X71774913Y-117502678D01*
X71779821Y-117682351D01*
X71816692Y-117705967D01*
X71842766Y-117672011D01*
X71908215Y-117609799D01*
X71922703Y-117646575D01*
X71948621Y-117808171D01*
X71974320Y-117900575D01*
X71999148Y-118001041D01*
X71950273Y-117951986D01*
X71933283Y-117928666D01*
X71858053Y-117862823D01*
X71840630Y-117901452D01*
X71894347Y-118038197D01*
X71966333Y-118128238D01*
X72049689Y-118293976D01*
X72091911Y-118541184D01*
X72093333Y-118593869D01*
X72085698Y-118785503D01*
X72037550Y-118904646D01*
X71911028Y-118992810D01*
X71668268Y-119091508D01*
X71624490Y-119107916D01*
X71363522Y-119200375D01*
X71168805Y-119259806D01*
X71095324Y-119272921D01*
X71013723Y-119211227D01*
X70844832Y-119054354D01*
X70617866Y-118830006D01*
X70484667Y-118693886D01*
X70144736Y-118365821D01*
X69850435Y-118141557D01*
X69551889Y-117985065D01*
X69444324Y-117942298D01*
X68798462Y-117784213D01*
X68163783Y-117794737D01*
X67545522Y-117973248D01*
X67088838Y-118221549D01*
X66783342Y-118423181D01*
X66369171Y-118064044D01*
X66133774Y-117867742D01*
X65934758Y-117715521D01*
X65828000Y-117647400D01*
X65700734Y-117570453D01*
X65483634Y-117421232D01*
X65221263Y-117230477D01*
X65193000Y-117209362D01*
X64865011Y-116966797D01*
X64615400Y-116785666D01*
X71500667Y-116785666D01*
X71543000Y-116828000D01*
X71585333Y-116785666D01*
X71543000Y-116743333D01*
X71500667Y-116785666D01*
X64615400Y-116785666D01*
X64517848Y-116714878D01*
X64261667Y-116532800D01*
X63905333Y-116281125D01*
X63669711Y-116105001D01*
X63535326Y-115985002D01*
X63482699Y-115901698D01*
X63492355Y-115835664D01*
X63521440Y-115794439D01*
X63688097Y-115660754D01*
X63951790Y-115512479D01*
X64246624Y-115381143D01*
X64355870Y-115346333D01*
X64896667Y-115346333D01*
X64939000Y-115388666D01*
X64981333Y-115346333D01*
X64939000Y-115304000D01*
X64896667Y-115346333D01*
X64355870Y-115346333D01*
X64506703Y-115298272D01*
X64584332Y-115285909D01*
X64733612Y-115260998D01*
X64767830Y-115231607D01*
X64796456Y-115158302D01*
X64917349Y-115033936D01*
X65080562Y-114899370D01*
X65236149Y-114795466D01*
X65334165Y-114763085D01*
X65338250Y-114764945D01*
X65401010Y-114743343D01*
X65404667Y-114716330D01*
X65476934Y-114648354D01*
X65611336Y-114626666D01*
X65791546Y-114594119D01*
X65872462Y-114538555D01*
X65987259Y-114486562D01*
X66077942Y-114498378D01*
X66262183Y-114502131D01*
X66472984Y-114446548D01*
X66704062Y-114363459D01*
X66879688Y-114315707D01*
X67072064Y-114245925D01*
X67145943Y-114198677D01*
X67278712Y-114128998D01*
X67321921Y-114125722D01*
X67470316Y-114124562D01*
X67479000Y-114123086D01*
X67597275Y-114116368D01*
X67840785Y-114111792D01*
X68165439Y-114110034D01*
X68311986Y-114110287D01*
G36*
X66470351Y-122658333D02*
X66550060Y-122969175D01*
X66620644Y-123434099D01*
X66662432Y-123832782D01*
X66712541Y-124411516D01*
X66743195Y-124841532D01*
X66754516Y-125142307D01*
X66746623Y-125333323D01*
X66719639Y-125434057D01*
X66673685Y-125463989D01*
X66672571Y-125464000D01*
X66582141Y-125394062D01*
X66490648Y-125231166D01*
X66450832Y-125067170D01*
X66409179Y-124785102D01*
X66368352Y-124420844D01*
X66331015Y-124010275D01*
X66299833Y-123589275D01*
X66277468Y-123193724D01*
X66266585Y-122859502D01*
X66269848Y-122622489D01*
X66289308Y-122519136D01*
X66382954Y-122506633D01*
X66470351Y-122658333D01*
X66470351Y-122658333D01*
G37*
X66470351Y-122658333D02*
X66550060Y-122969175D01*
X66620644Y-123434099D01*
X66662432Y-123832782D01*
X66712541Y-124411516D01*
X66743195Y-124841532D01*
X66754516Y-125142307D01*
X66746623Y-125333323D01*
X66719639Y-125434057D01*
X66673685Y-125463989D01*
X66672571Y-125464000D01*
X66582141Y-125394062D01*
X66490648Y-125231166D01*
X66450832Y-125067170D01*
X66409179Y-124785102D01*
X66368352Y-124420844D01*
X66331015Y-124010275D01*
X66299833Y-123589275D01*
X66277468Y-123193724D01*
X66266585Y-122859502D01*
X66269848Y-122622489D01*
X66289308Y-122519136D01*
X66382954Y-122506633D01*
X66470351Y-122658333D01*
G36*
X68745984Y-125444256D02*
X68740279Y-125478111D01*
X68628611Y-125547969D01*
X68617003Y-125548666D01*
X68538862Y-125491860D01*
X68537333Y-125478111D01*
X68605854Y-125414943D01*
X68660609Y-125407555D01*
X68745984Y-125444256D01*
X68745984Y-125444256D01*
G37*
X68745984Y-125444256D02*
X68740279Y-125478111D01*
X68628611Y-125547969D01*
X68617003Y-125548666D01*
X68538862Y-125491860D01*
X68537333Y-125478111D01*
X68605854Y-125414943D01*
X68660609Y-125407555D01*
X68745984Y-125444256D01*
G36*
X69546738Y-118158234D02*
X70045460Y-118396935D01*
X70473825Y-118759731D01*
X70648895Y-118982454D01*
X70886067Y-119372378D01*
X71059596Y-119769538D01*
X71179138Y-120211964D01*
X71254343Y-120737688D01*
X71294865Y-121384740D01*
X71300113Y-121548166D01*
X71307847Y-122013456D01*
X71303489Y-122384612D01*
X71287907Y-122638270D01*
X71261966Y-122751063D01*
X71255368Y-122754666D01*
X71200524Y-122822713D01*
X71200951Y-122902833D01*
X71181859Y-123083607D01*
X71148156Y-123147921D01*
X71092358Y-123279486D01*
X71095497Y-123317254D01*
X71053230Y-123409331D01*
X70920410Y-123562439D01*
X70737321Y-123740028D01*
X70544250Y-123905549D01*
X70381480Y-124022451D01*
X70289297Y-124054186D01*
X70285954Y-124051731D01*
X70237729Y-124066694D01*
X70230667Y-124119746D01*
X70172961Y-124229351D01*
X70018154Y-124421166D01*
X69793704Y-124662698D01*
X69656440Y-124799233D01*
X69376783Y-125062960D01*
X69179792Y-125224492D01*
X69031799Y-125304686D01*
X68899140Y-125324395D01*
X68820551Y-125317014D01*
X68567660Y-125332194D01*
X68392789Y-125456897D01*
X68226690Y-125635183D01*
X68122871Y-125407326D01*
X68080648Y-125264895D01*
X68077758Y-125252333D01*
X68198667Y-125252333D01*
X68241000Y-125294666D01*
X68283333Y-125252333D01*
X68368000Y-125252333D01*
X68410333Y-125294666D01*
X68452667Y-125252333D01*
X68410333Y-125210000D01*
X68368000Y-125252333D01*
X68283333Y-125252333D01*
X68241000Y-125210000D01*
X68198667Y-125252333D01*
X68077758Y-125252333D01*
X68018102Y-124993109D01*
X67942333Y-124629713D01*
X67860444Y-124212448D01*
X67779534Y-123779059D01*
X67706706Y-123367289D01*
X67649059Y-123014880D01*
X67613696Y-122759577D01*
X67610043Y-122712333D01*
X70908000Y-122712333D01*
X70950333Y-122754666D01*
X70992667Y-122712333D01*
X70950333Y-122670000D01*
X70908000Y-122712333D01*
X67610043Y-122712333D01*
X67606000Y-122660066D01*
X67676937Y-122606856D01*
X67806105Y-122603295D01*
X67959460Y-122574257D01*
X68181039Y-122448731D01*
X68489812Y-122214978D01*
X68652771Y-122079408D01*
X68963993Y-121806010D01*
X69160602Y-121605424D01*
X69264827Y-121450727D01*
X69298896Y-121314990D01*
X69299333Y-121296242D01*
X69277745Y-121126263D01*
X69230034Y-121061333D01*
X69183679Y-121066823D01*
X69092969Y-121087408D01*
X68935673Y-121129259D01*
X68689562Y-121198548D01*
X68332409Y-121301447D01*
X67841984Y-121444129D01*
X67658510Y-121497667D01*
X67076021Y-121667716D01*
X67116461Y-122507524D01*
X67132041Y-122893504D01*
X67131599Y-123140512D01*
X67111598Y-123278450D01*
X67068502Y-123337218D01*
X67017126Y-123347333D01*
X66942636Y-123310392D01*
X66874715Y-123182699D01*
X66804053Y-122938944D01*
X66721344Y-122553821D01*
X66716799Y-122530777D01*
X66621657Y-122098598D01*
X66529482Y-121802658D01*
X66428662Y-121610492D01*
X66359405Y-121531699D01*
X66254819Y-121421775D01*
X66205171Y-121307495D01*
X66202625Y-121137494D01*
X66239348Y-120860404D01*
X66248284Y-120803088D01*
X66333129Y-120294631D01*
X66410625Y-119914527D01*
X66491163Y-119622729D01*
X66585134Y-119379187D01*
X66655665Y-119232983D01*
X66984496Y-118764255D01*
X67412122Y-118409010D01*
X67910352Y-118169016D01*
X68450992Y-118046044D01*
X69005852Y-118041860D01*
X69546738Y-118158234D01*
X69546738Y-118158234D01*
G37*
X69546738Y-118158234D02*
X70045460Y-118396935D01*
X70473825Y-118759731D01*
X70648895Y-118982454D01*
X70886067Y-119372378D01*
X71059596Y-119769538D01*
X71179138Y-120211964D01*
X71254343Y-120737688D01*
X71294865Y-121384740D01*
X71300113Y-121548166D01*
X71307847Y-122013456D01*
X71303489Y-122384612D01*
X71287907Y-122638270D01*
X71261966Y-122751063D01*
X71255368Y-122754666D01*
X71200524Y-122822713D01*
X71200951Y-122902833D01*
X71181859Y-123083607D01*
X71148156Y-123147921D01*
X71092358Y-123279486D01*
X71095497Y-123317254D01*
X71053230Y-123409331D01*
X70920410Y-123562439D01*
X70737321Y-123740028D01*
X70544250Y-123905549D01*
X70381480Y-124022451D01*
X70289297Y-124054186D01*
X70285954Y-124051731D01*
X70237729Y-124066694D01*
X70230667Y-124119746D01*
X70172961Y-124229351D01*
X70018154Y-124421166D01*
X69793704Y-124662698D01*
X69656440Y-124799233D01*
X69376783Y-125062960D01*
X69179792Y-125224492D01*
X69031799Y-125304686D01*
X68899140Y-125324395D01*
X68820551Y-125317014D01*
X68567660Y-125332194D01*
X68392789Y-125456897D01*
X68226690Y-125635183D01*
X68122871Y-125407326D01*
X68080648Y-125264895D01*
X68077758Y-125252333D01*
X68198667Y-125252333D01*
X68241000Y-125294666D01*
X68283333Y-125252333D01*
X68368000Y-125252333D01*
X68410333Y-125294666D01*
X68452667Y-125252333D01*
X68410333Y-125210000D01*
X68368000Y-125252333D01*
X68283333Y-125252333D01*
X68241000Y-125210000D01*
X68198667Y-125252333D01*
X68077758Y-125252333D01*
X68018102Y-124993109D01*
X67942333Y-124629713D01*
X67860444Y-124212448D01*
X67779534Y-123779059D01*
X67706706Y-123367289D01*
X67649059Y-123014880D01*
X67613696Y-122759577D01*
X67610043Y-122712333D01*
X70908000Y-122712333D01*
X70950333Y-122754666D01*
X70992667Y-122712333D01*
X70950333Y-122670000D01*
X70908000Y-122712333D01*
X67610043Y-122712333D01*
X67606000Y-122660066D01*
X67676937Y-122606856D01*
X67806105Y-122603295D01*
X67959460Y-122574257D01*
X68181039Y-122448731D01*
X68489812Y-122214978D01*
X68652771Y-122079408D01*
X68963993Y-121806010D01*
X69160602Y-121605424D01*
X69264827Y-121450727D01*
X69298896Y-121314990D01*
X69299333Y-121296242D01*
X69277745Y-121126263D01*
X69230034Y-121061333D01*
X69183679Y-121066823D01*
X69092969Y-121087408D01*
X68935673Y-121129259D01*
X68689562Y-121198548D01*
X68332409Y-121301447D01*
X67841984Y-121444129D01*
X67658510Y-121497667D01*
X67076021Y-121667716D01*
X67116461Y-122507524D01*
X67132041Y-122893504D01*
X67131599Y-123140512D01*
X67111598Y-123278450D01*
X67068502Y-123337218D01*
X67017126Y-123347333D01*
X66942636Y-123310392D01*
X66874715Y-123182699D01*
X66804053Y-122938944D01*
X66721344Y-122553821D01*
X66716799Y-122530777D01*
X66621657Y-122098598D01*
X66529482Y-121802658D01*
X66428662Y-121610492D01*
X66359405Y-121531699D01*
X66254819Y-121421775D01*
X66205171Y-121307495D01*
X66202625Y-121137494D01*
X66239348Y-120860404D01*
X66248284Y-120803088D01*
X66333129Y-120294631D01*
X66410625Y-119914527D01*
X66491163Y-119622729D01*
X66585134Y-119379187D01*
X66655665Y-119232983D01*
X66984496Y-118764255D01*
X67412122Y-118409010D01*
X67910352Y-118169016D01*
X68450992Y-118046044D01*
X69005852Y-118041860D01*
X69546738Y-118158234D01*
G36*
X66844000Y-125760333D02*
X66801667Y-125802666D01*
X66759333Y-125760333D01*
X66801667Y-125718000D01*
X66844000Y-125760333D01*
X66844000Y-125760333D01*
G37*
X66844000Y-125760333D02*
X66801667Y-125802666D01*
X66759333Y-125760333D01*
X66801667Y-125718000D01*
X66844000Y-125760333D01*
D11*
X98389623Y-108500000D02*
X97629483Y-107739860D01*
X84000000Y-122889623D02*
X83239860Y-122129483D01*
X69610377Y-108500000D02*
X70370517Y-109260140D01*
X84000000Y-94110377D02*
X84760140Y-94870517D01*
X98389623Y-108500000D02*
X97629483Y-109260140D01*
X84000000Y-94110377D02*
X83239860Y-94870517D01*
X69610377Y-108500000D02*
X70370517Y-107739860D01*
X84000000Y-122889623D02*
X84760140Y-122129483D01*
X97629483Y-107739860D02*
X98407301Y-106962043D01*
X41060000Y-129570000D02*
X66460000Y-129570000D01*
X41600000Y-130120000D02*
X65900000Y-130120000D01*
X41060000Y-138670000D02*
X66460000Y-138670000D01*
X41600000Y-138120000D02*
X51510000Y-138120000D01*
X56010000Y-138120000D02*
X65900000Y-138120000D01*
X51510000Y-138120000D02*
X51510000Y-138670000D01*
X56010000Y-138120000D02*
X56010000Y-138670000D01*
X41060000Y-129570000D02*
X41060000Y-138670000D01*
X41600000Y-130120000D02*
X41600000Y-138120000D01*
X66460000Y-129570000D02*
X66460000Y-138670000D01*
X65900000Y-130120000D02*
X65900000Y-138120000D01*
X41060000Y-129570000D02*
X41600000Y-130120000D01*
X66460000Y-129570000D02*
X65900000Y-130120000D01*
X41060000Y-138670000D02*
X41600000Y-138120000D01*
X66460000Y-138670000D02*
X65900000Y-138120000D01*
X45825000Y-109825000D02*
X45825000Y-110900000D01*
X56175000Y-109825000D02*
X56175000Y-110900000D01*
X56175000Y-120175000D02*
X56175000Y-119100000D01*
X45825000Y-120175000D02*
X45825000Y-119100000D01*
X45825000Y-109825000D02*
X46900000Y-109825000D01*
X45825000Y-120175000D02*
X46900000Y-120175000D01*
X56175000Y-120175000D02*
X55100000Y-120175000D01*
X56175000Y-109825000D02*
X55100000Y-109825000D01*
X45825000Y-110900000D02*
X44800000Y-110900000D01*
X50525000Y-90300000D02*
X50525000Y-89300000D01*
X51875000Y-89300000D02*
X51875000Y-90300000D01*
X51350000Y-99100000D02*
X50650000Y-99100000D01*
X50650000Y-97900000D02*
X51350000Y-97900000D01*
X47650000Y-106900000D02*
X48350000Y-106900000D01*
X48350000Y-108100000D02*
X47650000Y-108100000D01*
X59260000Y-117300000D02*
X59260000Y-118000000D01*
X58060000Y-118000000D02*
X58060000Y-117300000D01*
X38100000Y-124050000D02*
X38100000Y-120350000D01*
X39900000Y-124050000D02*
X39900000Y-120350000D01*
X40650000Y-120200000D02*
X40650000Y-120720000D01*
X40930000Y-120460000D02*
X40400000Y-120460000D01*
X55750000Y-105975000D02*
X53750000Y-105975000D01*
X53750000Y-108025000D02*
X55750000Y-108025000D01*
X37070000Y-129690000D02*
X37600000Y-129690000D01*
X37350000Y-129950000D02*
X37350000Y-129430000D01*
X38100000Y-126100000D02*
X38100000Y-129800000D01*
X39900000Y-126100000D02*
X39900000Y-129800000D01*
X59250000Y-112850000D02*
X59250000Y-113550000D01*
X58050000Y-113550000D02*
X58050000Y-112850000D01*
X43600000Y-121900000D02*
X43600000Y-122600000D01*
X42400000Y-122600000D02*
X42400000Y-121900000D01*
X42500000Y-127400000D02*
X42500000Y-126700000D01*
X43700000Y-126700000D02*
X43700000Y-127400000D01*
X34025000Y-123100000D02*
X34025000Y-121900000D01*
X35775000Y-121900000D02*
X35775000Y-123100000D01*
X34125000Y-127800000D02*
X34125000Y-126600000D01*
X35875000Y-126600000D02*
X35875000Y-127800000D01*
X119580000Y-96050000D02*
X119830000Y-96300000D01*
X119580000Y-96550000D02*
X119580000Y-96050000D01*
X119830000Y-96300000D02*
X119580000Y-96550000D01*
X119830000Y-96550000D02*
X119830000Y-96050000D01*
X119780000Y-96300000D02*
X119330000Y-96300000D01*
X120680000Y-96850000D02*
X118780000Y-96850000D01*
X120680000Y-95750000D02*
X118780000Y-95750000D01*
X120700000Y-99300000D02*
X118800000Y-99300000D01*
X120700000Y-100400000D02*
X118800000Y-100400000D01*
X119800000Y-99850000D02*
X119350000Y-99850000D01*
X119850000Y-100100000D02*
X119850000Y-99600000D01*
X119850000Y-99850000D02*
X119600000Y-100100000D01*
X119600000Y-100100000D02*
X119600000Y-99600000D01*
X119600000Y-99600000D02*
X119850000Y-99850000D01*
X119600000Y-103100000D02*
X119850000Y-103350000D01*
X119600000Y-103600000D02*
X119600000Y-103100000D01*
X119850000Y-103350000D02*
X119600000Y-103600000D01*
X119850000Y-103600000D02*
X119850000Y-103100000D01*
X119800000Y-103350000D02*
X119350000Y-103350000D01*
X120700000Y-103900000D02*
X118800000Y-103900000D01*
X120700000Y-102800000D02*
X118800000Y-102800000D01*
X119600000Y-106600000D02*
X119850000Y-106850000D01*
X119600000Y-107100000D02*
X119600000Y-106600000D01*
X119850000Y-106850000D02*
X119600000Y-107100000D01*
X119850000Y-107100000D02*
X119850000Y-106600000D01*
X119800000Y-106850000D02*
X119350000Y-106850000D01*
X120700000Y-107400000D02*
X118800000Y-107400000D01*
X120700000Y-106300000D02*
X118800000Y-106300000D01*
X120700000Y-109800000D02*
X118800000Y-109800000D01*
X120700000Y-110900000D02*
X118800000Y-110900000D01*
X119800000Y-110350000D02*
X119350000Y-110350000D01*
X119850000Y-110600000D02*
X119850000Y-110100000D01*
X119850000Y-110350000D02*
X119600000Y-110600000D01*
X119600000Y-110600000D02*
X119600000Y-110100000D01*
X119600000Y-110100000D02*
X119850000Y-110350000D01*
X119600000Y-113600000D02*
X119850000Y-113850000D01*
X119600000Y-114100000D02*
X119600000Y-113600000D01*
X119850000Y-113850000D02*
X119600000Y-114100000D01*
X119850000Y-114100000D02*
X119850000Y-113600000D01*
X119800000Y-113850000D02*
X119350000Y-113850000D01*
X120700000Y-114400000D02*
X118800000Y-114400000D01*
X120700000Y-113300000D02*
X118800000Y-113300000D01*
X120700000Y-116800000D02*
X118800000Y-116800000D01*
X120700000Y-117900000D02*
X118800000Y-117900000D01*
X119800000Y-117350000D02*
X119350000Y-117350000D01*
X119850000Y-117600000D02*
X119850000Y-117100000D01*
X119850000Y-117350000D02*
X119600000Y-117600000D01*
X119600000Y-117600000D02*
X119600000Y-117100000D01*
X119600000Y-117100000D02*
X119850000Y-117350000D01*
X119600000Y-120600000D02*
X119850000Y-120850000D01*
X119600000Y-121100000D02*
X119600000Y-120600000D01*
X119850000Y-120850000D02*
X119600000Y-121100000D01*
X119850000Y-121100000D02*
X119850000Y-120600000D01*
X119800000Y-120850000D02*
X119350000Y-120850000D01*
X120700000Y-121400000D02*
X118800000Y-121400000D01*
X120700000Y-120300000D02*
X118800000Y-120300000D01*
X62650000Y-107550000D02*
X64550000Y-107550000D01*
X62650000Y-106450000D02*
X64550000Y-106450000D01*
X63550000Y-107000000D02*
X64000000Y-107000000D01*
X63500000Y-106750000D02*
X63500000Y-107250000D01*
X63500000Y-107000000D02*
X63750000Y-106750000D01*
X63750000Y-106750000D02*
X63750000Y-107250000D01*
X63750000Y-107250000D02*
X63500000Y-107000000D01*
X50350000Y-125950000D02*
X48450000Y-125950000D01*
X50350000Y-127050000D02*
X48450000Y-127050000D01*
X49450000Y-126500000D02*
X49000000Y-126500000D01*
X49500000Y-126750000D02*
X49500000Y-126250000D01*
X49500000Y-126500000D02*
X49250000Y-126750000D01*
X49250000Y-126750000D02*
X49250000Y-126250000D01*
X49250000Y-126250000D02*
X49500000Y-126500000D01*
X49250000Y-123500000D02*
X49500000Y-123750000D01*
X49250000Y-124000000D02*
X49250000Y-123500000D01*
X49500000Y-123750000D02*
X49250000Y-124000000D01*
X49500000Y-124000000D02*
X49500000Y-123500000D01*
X49450000Y-123750000D02*
X49000000Y-123750000D01*
X50350000Y-124300000D02*
X48450000Y-124300000D01*
X50350000Y-123200000D02*
X48450000Y-123200000D01*
X51750000Y-94100000D02*
X51750000Y-92200000D01*
X50650000Y-94100000D02*
X50650000Y-92200000D01*
X51200000Y-93200000D02*
X51200000Y-92750000D01*
X50950000Y-93250000D02*
X51450000Y-93250000D01*
X51200000Y-93250000D02*
X50950000Y-93000000D01*
X50950000Y-93000000D02*
X51450000Y-93000000D01*
X51450000Y-93000000D02*
X51200000Y-93250000D01*
X35670000Y-106230000D02*
X35670000Y-101150000D01*
X35670000Y-101150000D02*
X33130000Y-101150000D01*
X33130000Y-101150000D02*
X33130000Y-106230000D01*
X32850000Y-109050000D02*
X32850000Y-107500000D01*
X33130000Y-106230000D02*
X35670000Y-106230000D01*
X35950000Y-107500000D02*
X35950000Y-109050000D01*
X35950000Y-109050000D02*
X32850000Y-109050000D01*
X63250000Y-109325000D02*
X64250000Y-109325000D01*
X64250000Y-110675000D02*
X63250000Y-110675000D01*
X48675000Y-101250000D02*
X48675000Y-102250000D01*
X47325000Y-102250000D02*
X47325000Y-101250000D01*
X53325000Y-99250000D02*
X53325000Y-98250000D01*
X54675000Y-98250000D02*
X54675000Y-99250000D01*
X54675000Y-101250000D02*
X54675000Y-102250000D01*
X53325000Y-102250000D02*
X53325000Y-101250000D01*
X50500000Y-104325000D02*
X51500000Y-104325000D01*
X51500000Y-105675000D02*
X50500000Y-105675000D01*
X43250000Y-114425000D02*
X42250000Y-114425000D01*
X42250000Y-113075000D02*
X43250000Y-113075000D01*
X42250000Y-114825000D02*
X43250000Y-114825000D01*
X43250000Y-116175000D02*
X42250000Y-116175000D01*
X52250000Y-125825000D02*
X53250000Y-125825000D01*
X53250000Y-127175000D02*
X52250000Y-127175000D01*
X53250000Y-124425000D02*
X52250000Y-124425000D01*
X52250000Y-123075000D02*
X53250000Y-123075000D01*
X55625000Y-88500000D02*
X55625000Y-87500000D01*
X56975000Y-87500000D02*
X56975000Y-88500000D01*
X60975000Y-87500000D02*
X60975000Y-88500000D01*
X59625000Y-88500000D02*
X59625000Y-87500000D01*
X63625000Y-88500000D02*
X63625000Y-87500000D01*
X64975000Y-87500000D02*
X64975000Y-88500000D01*
X66975000Y-87500000D02*
X66975000Y-88500000D01*
X65625000Y-88500000D02*
X65625000Y-87500000D01*
X84525000Y-129500000D02*
X84525000Y-128500000D01*
X85875000Y-128500000D02*
X85875000Y-129500000D01*
X80525000Y-129500000D02*
X80525000Y-128500000D01*
X81875000Y-128500000D02*
X81875000Y-129500000D01*
X77875000Y-128500000D02*
X77875000Y-129500000D01*
X76525000Y-129500000D02*
X76525000Y-128500000D01*
X72525000Y-129500000D02*
X72525000Y-128500000D01*
X73875000Y-128500000D02*
X73875000Y-129500000D01*
X53625000Y-88500000D02*
X53625000Y-87500000D01*
X54975000Y-87500000D02*
X54975000Y-88500000D01*
X58975000Y-87500000D02*
X58975000Y-88500000D01*
X57625000Y-88500000D02*
X57625000Y-87500000D01*
X61625000Y-88500000D02*
X61625000Y-87500000D01*
X62975000Y-87500000D02*
X62975000Y-88500000D01*
X68975000Y-87500000D02*
X68975000Y-88500000D01*
X67625000Y-88500000D02*
X67625000Y-87500000D01*
X83875000Y-128500000D02*
X83875000Y-129500000D01*
X82525000Y-129500000D02*
X82525000Y-128500000D01*
X78525000Y-129500000D02*
X78525000Y-128500000D01*
X79875000Y-128500000D02*
X79875000Y-129500000D01*
X74525000Y-129500000D02*
X74525000Y-128500000D01*
X75875000Y-128500000D02*
X75875000Y-129500000D01*
X70525000Y-129500000D02*
X70525000Y-128500000D01*
X71875000Y-128500000D02*
X71875000Y-129500000D01*
X108875000Y-128500000D02*
X108875000Y-129500000D01*
X107525000Y-129500000D02*
X107525000Y-128500000D01*
X103525000Y-129500000D02*
X103525000Y-128500000D01*
X104875000Y-128500000D02*
X104875000Y-129500000D01*
X100875000Y-128500000D02*
X100875000Y-129500000D01*
X99525000Y-129500000D02*
X99525000Y-128500000D01*
X95525000Y-129500000D02*
X95525000Y-128500000D01*
X96875000Y-128500000D02*
X96875000Y-129500000D01*
X101625000Y-88500000D02*
X101625000Y-87500000D01*
X102975000Y-87500000D02*
X102975000Y-88500000D01*
X106975000Y-87500000D02*
X106975000Y-88500000D01*
X105625000Y-88500000D02*
X105625000Y-87500000D01*
X109625000Y-88500000D02*
X109625000Y-87500000D01*
X110975000Y-87500000D02*
X110975000Y-88500000D01*
X112975000Y-87500000D02*
X112975000Y-88500000D01*
X111625000Y-88500000D02*
X111625000Y-87500000D01*
X79975000Y-87500000D02*
X79975000Y-88500000D01*
X78625000Y-88500000D02*
X78625000Y-87500000D01*
X82625000Y-88500000D02*
X82625000Y-87500000D01*
X83975000Y-87500000D02*
X83975000Y-88500000D01*
X87975000Y-87500000D02*
X87975000Y-88500000D01*
X86625000Y-88500000D02*
X86625000Y-87500000D01*
X89975000Y-87500000D02*
X89975000Y-88500000D01*
X88625000Y-88500000D02*
X88625000Y-87500000D01*
X106875000Y-128500000D02*
X106875000Y-129500000D01*
X105525000Y-129500000D02*
X105525000Y-128500000D01*
X101525000Y-129500000D02*
X101525000Y-128500000D01*
X102875000Y-128500000D02*
X102875000Y-129500000D01*
X97525000Y-129500000D02*
X97525000Y-128500000D01*
X98875000Y-128500000D02*
X98875000Y-129500000D01*
X94875000Y-128500000D02*
X94875000Y-129500000D01*
X93525000Y-129500000D02*
X93525000Y-128500000D01*
X99625000Y-88500000D02*
X99625000Y-87500000D01*
X100975000Y-87500000D02*
X100975000Y-88500000D01*
X104975000Y-87500000D02*
X104975000Y-88500000D01*
X103625000Y-88500000D02*
X103625000Y-87500000D01*
X107625000Y-88500000D02*
X107625000Y-87500000D01*
X108975000Y-87500000D02*
X108975000Y-88500000D01*
X113625000Y-88500000D02*
X113625000Y-87500000D01*
X114975000Y-87500000D02*
X114975000Y-88500000D01*
X76625000Y-88500000D02*
X76625000Y-87500000D01*
X77975000Y-87500000D02*
X77975000Y-88500000D01*
X81975000Y-87500000D02*
X81975000Y-88500000D01*
X80625000Y-88500000D02*
X80625000Y-87500000D01*
X84625000Y-88500000D02*
X84625000Y-87500000D01*
X85975000Y-87500000D02*
X85975000Y-88500000D01*
X91975000Y-87500000D02*
X91975000Y-88500000D01*
X90625000Y-88500000D02*
X90625000Y-87500000D01*
X45000000Y-104900000D02*
X45000000Y-108200000D01*
X40000000Y-104900000D02*
X45000000Y-104900000D01*
X40000000Y-108200000D02*
X40000000Y-104900000D01*
X45000000Y-108200000D02*
X40000000Y-108200000D01*
D13*
X32645040Y-109870000D02*
X32645040Y-120030000D01*
X32645040Y-109870000D02*
X36797940Y-109870000D01*
X36797940Y-109870000D02*
X37798700Y-110870760D01*
X37798700Y-110870760D02*
X37798700Y-119029240D01*
X37798700Y-119029240D02*
X36797940Y-120030000D01*
X36797940Y-120030000D02*
X32645040Y-120030000D01*
D14*
X34450980Y-111401620D02*
X33752480Y-111401620D01*
D11*
X46866000Y-89432000D02*
X46866000Y-98322000D01*
X32388000Y-98322000D02*
X46866000Y-98322000D01*
X32388000Y-89432000D02*
X32388000Y-98322000D01*
X46866000Y-89432000D02*
X32388000Y-89432000D01*
X52300000Y-102440000D02*
X49700000Y-102440000D01*
X52300000Y-101040000D02*
X52300000Y-102440000D01*
X49700000Y-101040000D02*
X52300000Y-101040000D01*
X49700000Y-102440000D02*
X49700000Y-101040000D01*
X50040000Y-102190000D02*
G75*
G03X50040000Y-102190000I-50000J0D01*
G01*
D13*
X103900000Y-117800000D02*
X103900000Y-99200000D01*
X103900000Y-99200000D02*
X114100000Y-99200000D01*
X114100000Y-99200000D02*
X114100000Y-117800000D01*
X114100000Y-117800000D02*
X103900000Y-117800000D01*
X113717067Y-116976400D02*
G75*
G03X113717067Y-116976400I-472467J0D01*
G01*
D11*
X74636396Y-94959441D02*
X77040559Y-97363604D01*
X70959441Y-98636396D02*
X74636396Y-94959441D01*
X73363604Y-101040559D02*
X70959441Y-98636396D01*
X77040559Y-97363604D02*
X73363604Y-101040559D01*
X37950000Y-92750000D02*
X38350000Y-92350000D01*
X38350000Y-92350000D02*
X38350000Y-93150000D01*
X38350000Y-93150000D02*
X37950000Y-92750000D01*
X36760000Y-91820000D02*
X36760000Y-91250000D01*
X37060000Y-91530000D02*
X36480000Y-91530000D01*
X36750000Y-96250000D02*
X36750000Y-95680000D01*
X40720000Y-101030000D02*
X43260000Y-101030000D01*
X37900000Y-100750000D02*
X39450000Y-100750000D01*
X40720000Y-101030000D02*
X40720000Y-103570000D01*
X39450000Y-103850000D02*
X37900000Y-103850000D01*
X37900000Y-103850000D02*
X37900000Y-100750000D01*
X40720000Y-103570000D02*
X43260000Y-103570000D01*
X43260000Y-103570000D02*
X43260000Y-101030000D01*
X121600000Y-91800000D02*
X117300000Y-91800000D01*
X121600000Y-83200000D02*
X121600000Y-91800000D01*
X117300000Y-83200000D02*
X121600000Y-83200000D01*
X117300000Y-91800000D02*
X117300000Y-83200000D01*
X71050000Y-85050000D02*
X74550000Y-85050000D01*
X71050000Y-91050000D02*
X71050000Y-85050000D01*
X74550000Y-91050000D02*
X71050000Y-91050000D01*
X74550000Y-85050000D02*
X74550000Y-91050000D01*
X113750000Y-130090000D02*
X119750000Y-130090000D01*
X119750000Y-130090000D02*
X119750000Y-133590000D01*
X119750000Y-133590000D02*
X113750000Y-133590000D01*
X113750000Y-133590000D02*
X113750000Y-130090000D01*
X113750000Y-128250000D02*
X113750000Y-124750000D01*
X119750000Y-128250000D02*
X113750000Y-128250000D01*
X119750000Y-124750000D02*
X119750000Y-128250000D01*
X113750000Y-124750000D02*
X119750000Y-124750000D01*
X37325000Y-85500000D02*
X37325000Y-79000000D01*
X51125000Y-85500000D02*
X37325000Y-85500000D01*
X51125000Y-79000000D02*
X51125000Y-85500000D01*
X37325000Y-79000000D02*
X51125000Y-79000000D01*
X91753762Y-117331258D02*
X92326182Y-117903678D01*
X92427197Y-117937350D01*
X92494541Y-117937350D01*
X92595556Y-117903678D01*
X92730243Y-117768991D01*
X92763915Y-117667976D01*
X92763915Y-117600632D01*
X92730243Y-117499617D01*
X92157823Y-116927197D01*
X93572037Y-116927197D02*
X93167976Y-117331258D01*
X93370006Y-117129228D02*
X92662900Y-116422121D01*
X92696571Y-116590480D01*
X92696571Y-116725167D01*
X92662900Y-116826182D01*
X64051904Y-128992380D02*
X64051904Y-127992380D01*
X64432857Y-127992380D01*
X64528095Y-128040000D01*
X64575714Y-128087619D01*
X64623333Y-128182857D01*
X64623333Y-128325714D01*
X64575714Y-128420952D01*
X64528095Y-128468571D01*
X64432857Y-128516190D01*
X64051904Y-128516190D01*
X65575714Y-128992380D02*
X65004285Y-128992380D01*
X65290000Y-128992380D02*
X65290000Y-127992380D01*
X65194761Y-128135238D01*
X65099523Y-128230476D01*
X65004285Y-128278095D01*
X56738095Y-108952380D02*
X56738095Y-109761904D01*
X56785714Y-109857142D01*
X56833333Y-109904761D01*
X56928571Y-109952380D01*
X57119047Y-109952380D01*
X57214285Y-109904761D01*
X57261904Y-109857142D01*
X57309523Y-109761904D01*
X57309523Y-108952380D01*
X57690476Y-108952380D02*
X58309523Y-108952380D01*
X57976190Y-109333333D01*
X58119047Y-109333333D01*
X58214285Y-109380952D01*
X58261904Y-109428571D01*
X58309523Y-109523809D01*
X58309523Y-109761904D01*
X58261904Y-109857142D01*
X58214285Y-109904761D01*
X58119047Y-109952380D01*
X57833333Y-109952380D01*
X57738095Y-109904761D01*
X57690476Y-109857142D01*
X50232380Y-90442857D02*
X49756190Y-90776190D01*
X50232380Y-91014285D02*
X49232380Y-91014285D01*
X49232380Y-90633333D01*
X49280000Y-90538095D01*
X49327619Y-90490476D01*
X49422857Y-90442857D01*
X49565714Y-90442857D01*
X49660952Y-90490476D01*
X49708571Y-90538095D01*
X49756190Y-90633333D01*
X49756190Y-91014285D01*
X50232380Y-89490476D02*
X50232380Y-90061904D01*
X50232380Y-89776190D02*
X49232380Y-89776190D01*
X49375238Y-89871428D01*
X49470476Y-89966666D01*
X49518095Y-90061904D01*
X49232380Y-88633333D02*
X49232380Y-88823809D01*
X49280000Y-88919047D01*
X49327619Y-88966666D01*
X49470476Y-89061904D01*
X49660952Y-89109523D01*
X50041904Y-89109523D01*
X50137142Y-89061904D01*
X50184761Y-89014285D01*
X50232380Y-88919047D01*
X50232380Y-88728571D01*
X50184761Y-88633333D01*
X50137142Y-88585714D01*
X50041904Y-88538095D01*
X49803809Y-88538095D01*
X49708571Y-88585714D01*
X49660952Y-88633333D01*
X49613333Y-88728571D01*
X49613333Y-88919047D01*
X49660952Y-89014285D01*
X49708571Y-89061904D01*
X49803809Y-89109523D01*
X50357142Y-96957142D02*
X50309523Y-97004761D01*
X50166666Y-97052380D01*
X50071428Y-97052380D01*
X49928571Y-97004761D01*
X49833333Y-96909523D01*
X49785714Y-96814285D01*
X49738095Y-96623809D01*
X49738095Y-96480952D01*
X49785714Y-96290476D01*
X49833333Y-96195238D01*
X49928571Y-96100000D01*
X50071428Y-96052380D01*
X50166666Y-96052380D01*
X50309523Y-96100000D01*
X50357142Y-96147619D01*
X50738095Y-96147619D02*
X50785714Y-96100000D01*
X50880952Y-96052380D01*
X51119047Y-96052380D01*
X51214285Y-96100000D01*
X51261904Y-96147619D01*
X51309523Y-96242857D01*
X51309523Y-96338095D01*
X51261904Y-96480952D01*
X50690476Y-97052380D01*
X51309523Y-97052380D01*
X52166666Y-96385714D02*
X52166666Y-97052380D01*
X51928571Y-96004761D02*
X51690476Y-96719047D01*
X52309523Y-96719047D01*
X47357142Y-105957142D02*
X47309523Y-106004761D01*
X47166666Y-106052380D01*
X47071428Y-106052380D01*
X46928571Y-106004761D01*
X46833333Y-105909523D01*
X46785714Y-105814285D01*
X46738095Y-105623809D01*
X46738095Y-105480952D01*
X46785714Y-105290476D01*
X46833333Y-105195238D01*
X46928571Y-105100000D01*
X47071428Y-105052380D01*
X47166666Y-105052380D01*
X47309523Y-105100000D01*
X47357142Y-105147619D01*
X47738095Y-105147619D02*
X47785714Y-105100000D01*
X47880952Y-105052380D01*
X48119047Y-105052380D01*
X48214285Y-105100000D01*
X48261904Y-105147619D01*
X48309523Y-105242857D01*
X48309523Y-105338095D01*
X48261904Y-105480952D01*
X47690476Y-106052380D01*
X48309523Y-106052380D01*
X49214285Y-105052380D02*
X48738095Y-105052380D01*
X48690476Y-105528571D01*
X48738095Y-105480952D01*
X48833333Y-105433333D01*
X49071428Y-105433333D01*
X49166666Y-105480952D01*
X49214285Y-105528571D01*
X49261904Y-105623809D01*
X49261904Y-105861904D01*
X49214285Y-105957142D01*
X49166666Y-106004761D01*
X49071428Y-106052380D01*
X48833333Y-106052380D01*
X48738095Y-106004761D01*
X48690476Y-105957142D01*
X60507142Y-118292857D02*
X60554761Y-118340476D01*
X60602380Y-118483333D01*
X60602380Y-118578571D01*
X60554761Y-118721428D01*
X60459523Y-118816666D01*
X60364285Y-118864285D01*
X60173809Y-118911904D01*
X60030952Y-118911904D01*
X59840476Y-118864285D01*
X59745238Y-118816666D01*
X59650000Y-118721428D01*
X59602380Y-118578571D01*
X59602380Y-118483333D01*
X59650000Y-118340476D01*
X59697619Y-118292857D01*
X59697619Y-117911904D02*
X59650000Y-117864285D01*
X59602380Y-117769047D01*
X59602380Y-117530952D01*
X59650000Y-117435714D01*
X59697619Y-117388095D01*
X59792857Y-117340476D01*
X59888095Y-117340476D01*
X60030952Y-117388095D01*
X60602380Y-117959523D01*
X60602380Y-117340476D01*
X60602380Y-116864285D02*
X60602380Y-116673809D01*
X60554761Y-116578571D01*
X60507142Y-116530952D01*
X60364285Y-116435714D01*
X60173809Y-116388095D01*
X59792857Y-116388095D01*
X59697619Y-116435714D01*
X59650000Y-116483333D01*
X59602380Y-116578571D01*
X59602380Y-116769047D01*
X59650000Y-116864285D01*
X59697619Y-116911904D01*
X59792857Y-116959523D01*
X60030952Y-116959523D01*
X60126190Y-116911904D01*
X60173809Y-116864285D01*
X60221428Y-116769047D01*
X60221428Y-116578571D01*
X60173809Y-116483333D01*
X60126190Y-116435714D01*
X60030952Y-116388095D01*
X37607142Y-123142857D02*
X37654761Y-123190476D01*
X37702380Y-123333333D01*
X37702380Y-123428571D01*
X37654761Y-123571428D01*
X37559523Y-123666666D01*
X37464285Y-123714285D01*
X37273809Y-123761904D01*
X37130952Y-123761904D01*
X36940476Y-123714285D01*
X36845238Y-123666666D01*
X36750000Y-123571428D01*
X36702380Y-123428571D01*
X36702380Y-123333333D01*
X36750000Y-123190476D01*
X36797619Y-123142857D01*
X36702380Y-122809523D02*
X36702380Y-122190476D01*
X37083333Y-122523809D01*
X37083333Y-122380952D01*
X37130952Y-122285714D01*
X37178571Y-122238095D01*
X37273809Y-122190476D01*
X37511904Y-122190476D01*
X37607142Y-122238095D01*
X37654761Y-122285714D01*
X37702380Y-122380952D01*
X37702380Y-122666666D01*
X37654761Y-122761904D01*
X37607142Y-122809523D01*
X36702380Y-121571428D02*
X36702380Y-121476190D01*
X36750000Y-121380952D01*
X36797619Y-121333333D01*
X36892857Y-121285714D01*
X37083333Y-121238095D01*
X37321428Y-121238095D01*
X37511904Y-121285714D01*
X37607142Y-121333333D01*
X37654761Y-121380952D01*
X37702380Y-121476190D01*
X37702380Y-121571428D01*
X37654761Y-121666666D01*
X37607142Y-121714285D01*
X37511904Y-121761904D01*
X37321428Y-121809523D01*
X37083333Y-121809523D01*
X36892857Y-121761904D01*
X36797619Y-121714285D01*
X36750000Y-121666666D01*
X36702380Y-121571428D01*
X53857142Y-105357142D02*
X53809523Y-105404761D01*
X53666666Y-105452380D01*
X53571428Y-105452380D01*
X53428571Y-105404761D01*
X53333333Y-105309523D01*
X53285714Y-105214285D01*
X53238095Y-105023809D01*
X53238095Y-104880952D01*
X53285714Y-104690476D01*
X53333333Y-104595238D01*
X53428571Y-104500000D01*
X53571428Y-104452380D01*
X53666666Y-104452380D01*
X53809523Y-104500000D01*
X53857142Y-104547619D01*
X54190476Y-104452380D02*
X54809523Y-104452380D01*
X54476190Y-104833333D01*
X54619047Y-104833333D01*
X54714285Y-104880952D01*
X54761904Y-104928571D01*
X54809523Y-105023809D01*
X54809523Y-105261904D01*
X54761904Y-105357142D01*
X54714285Y-105404761D01*
X54619047Y-105452380D01*
X54333333Y-105452380D01*
X54238095Y-105404761D01*
X54190476Y-105357142D01*
X55761904Y-105452380D02*
X55190476Y-105452380D01*
X55476190Y-105452380D02*
X55476190Y-104452380D01*
X55380952Y-104595238D01*
X55285714Y-104690476D01*
X55190476Y-104738095D01*
X37607142Y-128392857D02*
X37654761Y-128440476D01*
X37702380Y-128583333D01*
X37702380Y-128678571D01*
X37654761Y-128821428D01*
X37559523Y-128916666D01*
X37464285Y-128964285D01*
X37273809Y-129011904D01*
X37130952Y-129011904D01*
X36940476Y-128964285D01*
X36845238Y-128916666D01*
X36750000Y-128821428D01*
X36702380Y-128678571D01*
X36702380Y-128583333D01*
X36750000Y-128440476D01*
X36797619Y-128392857D01*
X36702380Y-128059523D02*
X36702380Y-127440476D01*
X37083333Y-127773809D01*
X37083333Y-127630952D01*
X37130952Y-127535714D01*
X37178571Y-127488095D01*
X37273809Y-127440476D01*
X37511904Y-127440476D01*
X37607142Y-127488095D01*
X37654761Y-127535714D01*
X37702380Y-127630952D01*
X37702380Y-127916666D01*
X37654761Y-128011904D01*
X37607142Y-128059523D01*
X36702380Y-127107142D02*
X36702380Y-126488095D01*
X37083333Y-126821428D01*
X37083333Y-126678571D01*
X37130952Y-126583333D01*
X37178571Y-126535714D01*
X37273809Y-126488095D01*
X37511904Y-126488095D01*
X37607142Y-126535714D01*
X37654761Y-126583333D01*
X37702380Y-126678571D01*
X37702380Y-126964285D01*
X37654761Y-127059523D01*
X37607142Y-127107142D01*
X60507142Y-113842857D02*
X60554761Y-113890476D01*
X60602380Y-114033333D01*
X60602380Y-114128571D01*
X60554761Y-114271428D01*
X60459523Y-114366666D01*
X60364285Y-114414285D01*
X60173809Y-114461904D01*
X60030952Y-114461904D01*
X59840476Y-114414285D01*
X59745238Y-114366666D01*
X59650000Y-114271428D01*
X59602380Y-114128571D01*
X59602380Y-114033333D01*
X59650000Y-113890476D01*
X59697619Y-113842857D01*
X59602380Y-113509523D02*
X59602380Y-112890476D01*
X59983333Y-113223809D01*
X59983333Y-113080952D01*
X60030952Y-112985714D01*
X60078571Y-112938095D01*
X60173809Y-112890476D01*
X60411904Y-112890476D01*
X60507142Y-112938095D01*
X60554761Y-112985714D01*
X60602380Y-113080952D01*
X60602380Y-113366666D01*
X60554761Y-113461904D01*
X60507142Y-113509523D01*
X59935714Y-112033333D02*
X60602380Y-112033333D01*
X59554761Y-112271428D02*
X60269047Y-112509523D01*
X60269047Y-111890476D01*
X41857142Y-122892857D02*
X41904761Y-122940476D01*
X41952380Y-123083333D01*
X41952380Y-123178571D01*
X41904761Y-123321428D01*
X41809523Y-123416666D01*
X41714285Y-123464285D01*
X41523809Y-123511904D01*
X41380952Y-123511904D01*
X41190476Y-123464285D01*
X41095238Y-123416666D01*
X41000000Y-123321428D01*
X40952380Y-123178571D01*
X40952380Y-123083333D01*
X41000000Y-122940476D01*
X41047619Y-122892857D01*
X40952380Y-122559523D02*
X40952380Y-121940476D01*
X41333333Y-122273809D01*
X41333333Y-122130952D01*
X41380952Y-122035714D01*
X41428571Y-121988095D01*
X41523809Y-121940476D01*
X41761904Y-121940476D01*
X41857142Y-121988095D01*
X41904761Y-122035714D01*
X41952380Y-122130952D01*
X41952380Y-122416666D01*
X41904761Y-122511904D01*
X41857142Y-122559523D01*
X40952380Y-121035714D02*
X40952380Y-121511904D01*
X41428571Y-121559523D01*
X41380952Y-121511904D01*
X41333333Y-121416666D01*
X41333333Y-121178571D01*
X41380952Y-121083333D01*
X41428571Y-121035714D01*
X41523809Y-120988095D01*
X41761904Y-120988095D01*
X41857142Y-121035714D01*
X41904761Y-121083333D01*
X41952380Y-121178571D01*
X41952380Y-121416666D01*
X41904761Y-121511904D01*
X41857142Y-121559523D01*
X41857142Y-127642857D02*
X41904761Y-127690476D01*
X41952380Y-127833333D01*
X41952380Y-127928571D01*
X41904761Y-128071428D01*
X41809523Y-128166666D01*
X41714285Y-128214285D01*
X41523809Y-128261904D01*
X41380952Y-128261904D01*
X41190476Y-128214285D01*
X41095238Y-128166666D01*
X41000000Y-128071428D01*
X40952380Y-127928571D01*
X40952380Y-127833333D01*
X41000000Y-127690476D01*
X41047619Y-127642857D01*
X40952380Y-127309523D02*
X40952380Y-126690476D01*
X41333333Y-127023809D01*
X41333333Y-126880952D01*
X41380952Y-126785714D01*
X41428571Y-126738095D01*
X41523809Y-126690476D01*
X41761904Y-126690476D01*
X41857142Y-126738095D01*
X41904761Y-126785714D01*
X41952380Y-126880952D01*
X41952380Y-127166666D01*
X41904761Y-127261904D01*
X41857142Y-127309523D01*
X40952380Y-126357142D02*
X40952380Y-125690476D01*
X41952380Y-126119047D01*
X33702380Y-122666666D02*
X33702380Y-123142857D01*
X32702380Y-123142857D01*
X33702380Y-121809523D02*
X33702380Y-122380952D01*
X33702380Y-122095238D02*
X32702380Y-122095238D01*
X32845238Y-122190476D01*
X32940476Y-122285714D01*
X32988095Y-122380952D01*
X33702380Y-127416666D02*
X33702380Y-127892857D01*
X32702380Y-127892857D01*
X32797619Y-127130952D02*
X32750000Y-127083333D01*
X32702380Y-126988095D01*
X32702380Y-126750000D01*
X32750000Y-126654761D01*
X32797619Y-126607142D01*
X32892857Y-126559523D01*
X32988095Y-126559523D01*
X33130952Y-126607142D01*
X33702380Y-127178571D01*
X33702380Y-126559523D01*
X118933333Y-95352380D02*
X118457142Y-95352380D01*
X118457142Y-94352380D01*
X119266666Y-95352380D02*
X119266666Y-94352380D01*
X119504761Y-94352380D01*
X119647619Y-94400000D01*
X119742857Y-94495238D01*
X119790476Y-94590476D01*
X119838095Y-94780952D01*
X119838095Y-94923809D01*
X119790476Y-95114285D01*
X119742857Y-95209523D01*
X119647619Y-95304761D01*
X119504761Y-95352380D01*
X119266666Y-95352380D01*
X120790476Y-95352380D02*
X120219047Y-95352380D01*
X120504761Y-95352380D02*
X120504761Y-94352380D01*
X120409523Y-94495238D01*
X120314285Y-94590476D01*
X120219047Y-94638095D01*
X118933333Y-98952380D02*
X118457142Y-98952380D01*
X118457142Y-97952380D01*
X119266666Y-98952380D02*
X119266666Y-97952380D01*
X119504761Y-97952380D01*
X119647619Y-98000000D01*
X119742857Y-98095238D01*
X119790476Y-98190476D01*
X119838095Y-98380952D01*
X119838095Y-98523809D01*
X119790476Y-98714285D01*
X119742857Y-98809523D01*
X119647619Y-98904761D01*
X119504761Y-98952380D01*
X119266666Y-98952380D01*
X120219047Y-98047619D02*
X120266666Y-98000000D01*
X120361904Y-97952380D01*
X120600000Y-97952380D01*
X120695238Y-98000000D01*
X120742857Y-98047619D01*
X120790476Y-98142857D01*
X120790476Y-98238095D01*
X120742857Y-98380952D01*
X120171428Y-98952380D01*
X120790476Y-98952380D01*
X118933333Y-102452380D02*
X118457142Y-102452380D01*
X118457142Y-101452380D01*
X119266666Y-102452380D02*
X119266666Y-101452380D01*
X119504761Y-101452380D01*
X119647619Y-101500000D01*
X119742857Y-101595238D01*
X119790476Y-101690476D01*
X119838095Y-101880952D01*
X119838095Y-102023809D01*
X119790476Y-102214285D01*
X119742857Y-102309523D01*
X119647619Y-102404761D01*
X119504761Y-102452380D01*
X119266666Y-102452380D01*
X120171428Y-101452380D02*
X120790476Y-101452380D01*
X120457142Y-101833333D01*
X120600000Y-101833333D01*
X120695238Y-101880952D01*
X120742857Y-101928571D01*
X120790476Y-102023809D01*
X120790476Y-102261904D01*
X120742857Y-102357142D01*
X120695238Y-102404761D01*
X120600000Y-102452380D01*
X120314285Y-102452380D01*
X120219047Y-102404761D01*
X120171428Y-102357142D01*
X118933333Y-105952380D02*
X118457142Y-105952380D01*
X118457142Y-104952380D01*
X119266666Y-105952380D02*
X119266666Y-104952380D01*
X119504761Y-104952380D01*
X119647619Y-105000000D01*
X119742857Y-105095238D01*
X119790476Y-105190476D01*
X119838095Y-105380952D01*
X119838095Y-105523809D01*
X119790476Y-105714285D01*
X119742857Y-105809523D01*
X119647619Y-105904761D01*
X119504761Y-105952380D01*
X119266666Y-105952380D01*
X120695238Y-105285714D02*
X120695238Y-105952380D01*
X120457142Y-104904761D02*
X120219047Y-105619047D01*
X120838095Y-105619047D01*
X118933333Y-109452380D02*
X118457142Y-109452380D01*
X118457142Y-108452380D01*
X119266666Y-109452380D02*
X119266666Y-108452380D01*
X119504761Y-108452380D01*
X119647619Y-108500000D01*
X119742857Y-108595238D01*
X119790476Y-108690476D01*
X119838095Y-108880952D01*
X119838095Y-109023809D01*
X119790476Y-109214285D01*
X119742857Y-109309523D01*
X119647619Y-109404761D01*
X119504761Y-109452380D01*
X119266666Y-109452380D01*
X120742857Y-108452380D02*
X120266666Y-108452380D01*
X120219047Y-108928571D01*
X120266666Y-108880952D01*
X120361904Y-108833333D01*
X120600000Y-108833333D01*
X120695238Y-108880952D01*
X120742857Y-108928571D01*
X120790476Y-109023809D01*
X120790476Y-109261904D01*
X120742857Y-109357142D01*
X120695238Y-109404761D01*
X120600000Y-109452380D01*
X120361904Y-109452380D01*
X120266666Y-109404761D01*
X120219047Y-109357142D01*
X118933333Y-112952380D02*
X118457142Y-112952380D01*
X118457142Y-111952380D01*
X119266666Y-112952380D02*
X119266666Y-111952380D01*
X119504761Y-111952380D01*
X119647619Y-112000000D01*
X119742857Y-112095238D01*
X119790476Y-112190476D01*
X119838095Y-112380952D01*
X119838095Y-112523809D01*
X119790476Y-112714285D01*
X119742857Y-112809523D01*
X119647619Y-112904761D01*
X119504761Y-112952380D01*
X119266666Y-112952380D01*
X120695238Y-111952380D02*
X120504761Y-111952380D01*
X120409523Y-112000000D01*
X120361904Y-112047619D01*
X120266666Y-112190476D01*
X120219047Y-112380952D01*
X120219047Y-112761904D01*
X120266666Y-112857142D01*
X120314285Y-112904761D01*
X120409523Y-112952380D01*
X120600000Y-112952380D01*
X120695238Y-112904761D01*
X120742857Y-112857142D01*
X120790476Y-112761904D01*
X120790476Y-112523809D01*
X120742857Y-112428571D01*
X120695238Y-112380952D01*
X120600000Y-112333333D01*
X120409523Y-112333333D01*
X120314285Y-112380952D01*
X120266666Y-112428571D01*
X120219047Y-112523809D01*
X118933333Y-116452380D02*
X118457142Y-116452380D01*
X118457142Y-115452380D01*
X119266666Y-116452380D02*
X119266666Y-115452380D01*
X119504761Y-115452380D01*
X119647619Y-115500000D01*
X119742857Y-115595238D01*
X119790476Y-115690476D01*
X119838095Y-115880952D01*
X119838095Y-116023809D01*
X119790476Y-116214285D01*
X119742857Y-116309523D01*
X119647619Y-116404761D01*
X119504761Y-116452380D01*
X119266666Y-116452380D01*
X120171428Y-115452380D02*
X120838095Y-115452380D01*
X120409523Y-116452380D01*
X118933333Y-119952380D02*
X118457142Y-119952380D01*
X118457142Y-118952380D01*
X119266666Y-119952380D02*
X119266666Y-118952380D01*
X119504761Y-118952380D01*
X119647619Y-119000000D01*
X119742857Y-119095238D01*
X119790476Y-119190476D01*
X119838095Y-119380952D01*
X119838095Y-119523809D01*
X119790476Y-119714285D01*
X119742857Y-119809523D01*
X119647619Y-119904761D01*
X119504761Y-119952380D01*
X119266666Y-119952380D01*
X120409523Y-119380952D02*
X120314285Y-119333333D01*
X120266666Y-119285714D01*
X120219047Y-119190476D01*
X120219047Y-119142857D01*
X120266666Y-119047619D01*
X120314285Y-119000000D01*
X120409523Y-118952380D01*
X120600000Y-118952380D01*
X120695238Y-119000000D01*
X120742857Y-119047619D01*
X120790476Y-119142857D01*
X120790476Y-119190476D01*
X120742857Y-119285714D01*
X120695238Y-119333333D01*
X120600000Y-119380952D01*
X120409523Y-119380952D01*
X120314285Y-119428571D01*
X120266666Y-119476190D01*
X120219047Y-119571428D01*
X120219047Y-119761904D01*
X120266666Y-119857142D01*
X120314285Y-119904761D01*
X120409523Y-119952380D01*
X120600000Y-119952380D01*
X120695238Y-119904761D01*
X120742857Y-119857142D01*
X120790476Y-119761904D01*
X120790476Y-119571428D01*
X120742857Y-119476190D01*
X120695238Y-119428571D01*
X120600000Y-119380952D01*
X62880952Y-108952380D02*
X62404761Y-108952380D01*
X62404761Y-107952380D01*
X63214285Y-108428571D02*
X63547619Y-108428571D01*
X63690476Y-108952380D02*
X63214285Y-108952380D01*
X63214285Y-107952380D01*
X63690476Y-107952380D01*
X64119047Y-108952380D02*
X64119047Y-107952380D01*
X64357142Y-107952380D01*
X64500000Y-108000000D01*
X64595238Y-108095238D01*
X64642857Y-108190476D01*
X64690476Y-108380952D01*
X64690476Y-108523809D01*
X64642857Y-108714285D01*
X64595238Y-108809523D01*
X64500000Y-108904761D01*
X64357142Y-108952380D01*
X64119047Y-108952380D01*
X65642857Y-108952380D02*
X65071428Y-108952380D01*
X65357142Y-108952380D02*
X65357142Y-107952380D01*
X65261904Y-108095238D01*
X65166666Y-108190476D01*
X65071428Y-108238095D01*
X44880952Y-126952380D02*
X44404761Y-126952380D01*
X44404761Y-125952380D01*
X45214285Y-126428571D02*
X45547619Y-126428571D01*
X45690476Y-126952380D02*
X45214285Y-126952380D01*
X45214285Y-125952380D01*
X45690476Y-125952380D01*
X46119047Y-126952380D02*
X46119047Y-125952380D01*
X46357142Y-125952380D01*
X46500000Y-126000000D01*
X46595238Y-126095238D01*
X46642857Y-126190476D01*
X46690476Y-126380952D01*
X46690476Y-126523809D01*
X46642857Y-126714285D01*
X46595238Y-126809523D01*
X46500000Y-126904761D01*
X46357142Y-126952380D01*
X46119047Y-126952380D01*
X47071428Y-126047619D02*
X47119047Y-126000000D01*
X47214285Y-125952380D01*
X47452380Y-125952380D01*
X47547619Y-126000000D01*
X47595238Y-126047619D01*
X47642857Y-126142857D01*
X47642857Y-126238095D01*
X47595238Y-126380952D01*
X47023809Y-126952380D01*
X47642857Y-126952380D01*
X44880952Y-124202380D02*
X44404761Y-124202380D01*
X44404761Y-123202380D01*
X45214285Y-123678571D02*
X45547619Y-123678571D01*
X45690476Y-124202380D02*
X45214285Y-124202380D01*
X45214285Y-123202380D01*
X45690476Y-123202380D01*
X46119047Y-124202380D02*
X46119047Y-123202380D01*
X46357142Y-123202380D01*
X46500000Y-123250000D01*
X46595238Y-123345238D01*
X46642857Y-123440476D01*
X46690476Y-123630952D01*
X46690476Y-123773809D01*
X46642857Y-123964285D01*
X46595238Y-124059523D01*
X46500000Y-124154761D01*
X46357142Y-124202380D01*
X46119047Y-124202380D01*
X47023809Y-123202380D02*
X47642857Y-123202380D01*
X47309523Y-123583333D01*
X47452380Y-123583333D01*
X47547619Y-123630952D01*
X47595238Y-123678571D01*
X47642857Y-123773809D01*
X47642857Y-124011904D01*
X47595238Y-124107142D01*
X47547619Y-124154761D01*
X47452380Y-124202380D01*
X47166666Y-124202380D01*
X47071428Y-124154761D01*
X47023809Y-124107142D01*
X50352380Y-94019047D02*
X50352380Y-94495238D01*
X49352380Y-94495238D01*
X49828571Y-93685714D02*
X49828571Y-93352380D01*
X50352380Y-93209523D02*
X50352380Y-93685714D01*
X49352380Y-93685714D01*
X49352380Y-93209523D01*
X50352380Y-92780952D02*
X49352380Y-92780952D01*
X49352380Y-92542857D01*
X49400000Y-92400000D01*
X49495238Y-92304761D01*
X49590476Y-92257142D01*
X49780952Y-92209523D01*
X49923809Y-92209523D01*
X50114285Y-92257142D01*
X50209523Y-92304761D01*
X50304761Y-92400000D01*
X50352380Y-92542857D01*
X50352380Y-92780952D01*
X49685714Y-91352380D02*
X50352380Y-91352380D01*
X49304761Y-91590476D02*
X50019047Y-91828571D01*
X50019047Y-91209523D01*
X33161904Y-100202380D02*
X33161904Y-99202380D01*
X33542857Y-99202380D01*
X33638095Y-99250000D01*
X33685714Y-99297619D01*
X33733333Y-99392857D01*
X33733333Y-99535714D01*
X33685714Y-99630952D01*
X33638095Y-99678571D01*
X33542857Y-99726190D01*
X33161904Y-99726190D01*
X34114285Y-99297619D02*
X34161904Y-99250000D01*
X34257142Y-99202380D01*
X34495238Y-99202380D01*
X34590476Y-99250000D01*
X34638095Y-99297619D01*
X34685714Y-99392857D01*
X34685714Y-99488095D01*
X34638095Y-99630952D01*
X34066666Y-100202380D01*
X34685714Y-100202380D01*
X63583333Y-111952380D02*
X63250000Y-111476190D01*
X63011904Y-111952380D02*
X63011904Y-110952380D01*
X63392857Y-110952380D01*
X63488095Y-111000000D01*
X63535714Y-111047619D01*
X63583333Y-111142857D01*
X63583333Y-111285714D01*
X63535714Y-111380952D01*
X63488095Y-111428571D01*
X63392857Y-111476190D01*
X63011904Y-111476190D01*
X64535714Y-111952380D02*
X63964285Y-111952380D01*
X64250000Y-111952380D02*
X64250000Y-110952380D01*
X64154761Y-111095238D01*
X64059523Y-111190476D01*
X63964285Y-111238095D01*
X46952380Y-101916666D02*
X46476190Y-102250000D01*
X46952380Y-102488095D02*
X45952380Y-102488095D01*
X45952380Y-102107142D01*
X46000000Y-102011904D01*
X46047619Y-101964285D01*
X46142857Y-101916666D01*
X46285714Y-101916666D01*
X46380952Y-101964285D01*
X46428571Y-102011904D01*
X46476190Y-102107142D01*
X46476190Y-102488095D01*
X45952380Y-101059523D02*
X45952380Y-101250000D01*
X46000000Y-101345238D01*
X46047619Y-101392857D01*
X46190476Y-101488095D01*
X46380952Y-101535714D01*
X46761904Y-101535714D01*
X46857142Y-101488095D01*
X46904761Y-101440476D01*
X46952380Y-101345238D01*
X46952380Y-101154761D01*
X46904761Y-101059523D01*
X46857142Y-101011904D01*
X46761904Y-100964285D01*
X46523809Y-100964285D01*
X46428571Y-101011904D01*
X46380952Y-101059523D01*
X46333333Y-101154761D01*
X46333333Y-101345238D01*
X46380952Y-101440476D01*
X46428571Y-101488095D01*
X46523809Y-101535714D01*
X55952380Y-98916666D02*
X55476190Y-99250000D01*
X55952380Y-99488095D02*
X54952380Y-99488095D01*
X54952380Y-99107142D01*
X55000000Y-99011904D01*
X55047619Y-98964285D01*
X55142857Y-98916666D01*
X55285714Y-98916666D01*
X55380952Y-98964285D01*
X55428571Y-99011904D01*
X55476190Y-99107142D01*
X55476190Y-99488095D01*
X54952380Y-98583333D02*
X54952380Y-97916666D01*
X55952380Y-98345238D01*
X55952380Y-101916666D02*
X55476190Y-102250000D01*
X55952380Y-102488095D02*
X54952380Y-102488095D01*
X54952380Y-102107142D01*
X55000000Y-102011904D01*
X55047619Y-101964285D01*
X55142857Y-101916666D01*
X55285714Y-101916666D01*
X55380952Y-101964285D01*
X55428571Y-102011904D01*
X55476190Y-102107142D01*
X55476190Y-102488095D01*
X55380952Y-101345238D02*
X55333333Y-101440476D01*
X55285714Y-101488095D01*
X55190476Y-101535714D01*
X55142857Y-101535714D01*
X55047619Y-101488095D01*
X55000000Y-101440476D01*
X54952380Y-101345238D01*
X54952380Y-101154761D01*
X55000000Y-101059523D01*
X55047619Y-101011904D01*
X55142857Y-100964285D01*
X55190476Y-100964285D01*
X55285714Y-101011904D01*
X55333333Y-101059523D01*
X55380952Y-101154761D01*
X55380952Y-101345238D01*
X55428571Y-101440476D01*
X55476190Y-101488095D01*
X55571428Y-101535714D01*
X55761904Y-101535714D01*
X55857142Y-101488095D01*
X55904761Y-101440476D01*
X55952380Y-101345238D01*
X55952380Y-101154761D01*
X55904761Y-101059523D01*
X55857142Y-101011904D01*
X55761904Y-100964285D01*
X55571428Y-100964285D01*
X55476190Y-101011904D01*
X55428571Y-101059523D01*
X55380952Y-101154761D01*
X50833333Y-107352380D02*
X50500000Y-106876190D01*
X50261904Y-107352380D02*
X50261904Y-106352380D01*
X50642857Y-106352380D01*
X50738095Y-106400000D01*
X50785714Y-106447619D01*
X50833333Y-106542857D01*
X50833333Y-106685714D01*
X50785714Y-106780952D01*
X50738095Y-106828571D01*
X50642857Y-106876190D01*
X50261904Y-106876190D01*
X51309523Y-107352380D02*
X51500000Y-107352380D01*
X51595238Y-107304761D01*
X51642857Y-107257142D01*
X51738095Y-107114285D01*
X51785714Y-106923809D01*
X51785714Y-106542857D01*
X51738095Y-106447619D01*
X51690476Y-106400000D01*
X51595238Y-106352380D01*
X51404761Y-106352380D01*
X51309523Y-106400000D01*
X51261904Y-106447619D01*
X51214285Y-106542857D01*
X51214285Y-106780952D01*
X51261904Y-106876190D01*
X51309523Y-106923809D01*
X51404761Y-106971428D01*
X51595238Y-106971428D01*
X51690476Y-106923809D01*
X51738095Y-106876190D01*
X51785714Y-106780952D01*
X42107142Y-112678380D02*
X41773809Y-112202190D01*
X41535714Y-112678380D02*
X41535714Y-111678380D01*
X41916666Y-111678380D01*
X42011904Y-111726000D01*
X42059523Y-111773619D01*
X42107142Y-111868857D01*
X42107142Y-112011714D01*
X42059523Y-112106952D01*
X42011904Y-112154571D01*
X41916666Y-112202190D01*
X41535714Y-112202190D01*
X43059523Y-112678380D02*
X42488095Y-112678380D01*
X42773809Y-112678380D02*
X42773809Y-111678380D01*
X42678571Y-111821238D01*
X42583333Y-111916476D01*
X42488095Y-111964095D01*
X43678571Y-111678380D02*
X43773809Y-111678380D01*
X43869047Y-111726000D01*
X43916666Y-111773619D01*
X43964285Y-111868857D01*
X44011904Y-112059333D01*
X44011904Y-112297428D01*
X43964285Y-112487904D01*
X43916666Y-112583142D01*
X43869047Y-112630761D01*
X43773809Y-112678380D01*
X43678571Y-112678380D01*
X43583333Y-112630761D01*
X43535714Y-112583142D01*
X43488095Y-112487904D01*
X43440476Y-112297428D01*
X43440476Y-112059333D01*
X43488095Y-111868857D01*
X43535714Y-111773619D01*
X43583333Y-111726000D01*
X43678571Y-111678380D01*
X42107142Y-117730380D02*
X41773809Y-117254190D01*
X41535714Y-117730380D02*
X41535714Y-116730380D01*
X41916666Y-116730380D01*
X42011904Y-116778000D01*
X42059523Y-116825619D01*
X42107142Y-116920857D01*
X42107142Y-117063714D01*
X42059523Y-117158952D01*
X42011904Y-117206571D01*
X41916666Y-117254190D01*
X41535714Y-117254190D01*
X43059523Y-117730380D02*
X42488095Y-117730380D01*
X42773809Y-117730380D02*
X42773809Y-116730380D01*
X42678571Y-116873238D01*
X42583333Y-116968476D01*
X42488095Y-117016095D01*
X44011904Y-117730380D02*
X43440476Y-117730380D01*
X43726190Y-117730380D02*
X43726190Y-116730380D01*
X43630952Y-116873238D01*
X43535714Y-116968476D01*
X43440476Y-117016095D01*
X54857142Y-126952380D02*
X54523809Y-126476190D01*
X54285714Y-126952380D02*
X54285714Y-125952380D01*
X54666666Y-125952380D01*
X54761904Y-126000000D01*
X54809523Y-126047619D01*
X54857142Y-126142857D01*
X54857142Y-126285714D01*
X54809523Y-126380952D01*
X54761904Y-126428571D01*
X54666666Y-126476190D01*
X54285714Y-126476190D01*
X55809523Y-126952380D02*
X55238095Y-126952380D01*
X55523809Y-126952380D02*
X55523809Y-125952380D01*
X55428571Y-126095238D01*
X55333333Y-126190476D01*
X55238095Y-126238095D01*
X56666666Y-126285714D02*
X56666666Y-126952380D01*
X56428571Y-125904761D02*
X56190476Y-126619047D01*
X56809523Y-126619047D01*
X54857142Y-124202380D02*
X54523809Y-123726190D01*
X54285714Y-124202380D02*
X54285714Y-123202380D01*
X54666666Y-123202380D01*
X54761904Y-123250000D01*
X54809523Y-123297619D01*
X54857142Y-123392857D01*
X54857142Y-123535714D01*
X54809523Y-123630952D01*
X54761904Y-123678571D01*
X54666666Y-123726190D01*
X54285714Y-123726190D01*
X55809523Y-124202380D02*
X55238095Y-124202380D01*
X55523809Y-124202380D02*
X55523809Y-123202380D01*
X55428571Y-123345238D01*
X55333333Y-123440476D01*
X55238095Y-123488095D01*
X56714285Y-123202380D02*
X56238095Y-123202380D01*
X56190476Y-123678571D01*
X56238095Y-123630952D01*
X56333333Y-123583333D01*
X56571428Y-123583333D01*
X56666666Y-123630952D01*
X56714285Y-123678571D01*
X56761904Y-123773809D01*
X56761904Y-124011904D01*
X56714285Y-124107142D01*
X56666666Y-124154761D01*
X56571428Y-124202380D01*
X56333333Y-124202380D01*
X56238095Y-124154761D01*
X56190476Y-124107142D01*
X56752380Y-91392857D02*
X56276190Y-91726190D01*
X56752380Y-91964285D02*
X55752380Y-91964285D01*
X55752380Y-91583333D01*
X55800000Y-91488095D01*
X55847619Y-91440476D01*
X55942857Y-91392857D01*
X56085714Y-91392857D01*
X56180952Y-91440476D01*
X56228571Y-91488095D01*
X56276190Y-91583333D01*
X56276190Y-91964285D01*
X55752380Y-91059523D02*
X55752380Y-90440476D01*
X56133333Y-90773809D01*
X56133333Y-90630952D01*
X56180952Y-90535714D01*
X56228571Y-90488095D01*
X56323809Y-90440476D01*
X56561904Y-90440476D01*
X56657142Y-90488095D01*
X56704761Y-90535714D01*
X56752380Y-90630952D01*
X56752380Y-90916666D01*
X56704761Y-91011904D01*
X56657142Y-91059523D01*
X56752380Y-89964285D02*
X56752380Y-89773809D01*
X56704761Y-89678571D01*
X56657142Y-89630952D01*
X56514285Y-89535714D01*
X56323809Y-89488095D01*
X55942857Y-89488095D01*
X55847619Y-89535714D01*
X55800000Y-89583333D01*
X55752380Y-89678571D01*
X55752380Y-89869047D01*
X55800000Y-89964285D01*
X55847619Y-90011904D01*
X55942857Y-90059523D01*
X56180952Y-90059523D01*
X56276190Y-90011904D01*
X56323809Y-89964285D01*
X56371428Y-89869047D01*
X56371428Y-89678571D01*
X56323809Y-89583333D01*
X56276190Y-89535714D01*
X56180952Y-89488095D01*
X60752380Y-91392857D02*
X60276190Y-91726190D01*
X60752380Y-91964285D02*
X59752380Y-91964285D01*
X59752380Y-91583333D01*
X59800000Y-91488095D01*
X59847619Y-91440476D01*
X59942857Y-91392857D01*
X60085714Y-91392857D01*
X60180952Y-91440476D01*
X60228571Y-91488095D01*
X60276190Y-91583333D01*
X60276190Y-91964285D01*
X60085714Y-90535714D02*
X60752380Y-90535714D01*
X59704761Y-90773809D02*
X60419047Y-91011904D01*
X60419047Y-90392857D01*
X59752380Y-89821428D02*
X59752380Y-89726190D01*
X59800000Y-89630952D01*
X59847619Y-89583333D01*
X59942857Y-89535714D01*
X60133333Y-89488095D01*
X60371428Y-89488095D01*
X60561904Y-89535714D01*
X60657142Y-89583333D01*
X60704761Y-89630952D01*
X60752380Y-89726190D01*
X60752380Y-89821428D01*
X60704761Y-89916666D01*
X60657142Y-89964285D01*
X60561904Y-90011904D01*
X60371428Y-90059523D01*
X60133333Y-90059523D01*
X59942857Y-90011904D01*
X59847619Y-89964285D01*
X59800000Y-89916666D01*
X59752380Y-89821428D01*
X64752380Y-91392857D02*
X64276190Y-91726190D01*
X64752380Y-91964285D02*
X63752380Y-91964285D01*
X63752380Y-91583333D01*
X63800000Y-91488095D01*
X63847619Y-91440476D01*
X63942857Y-91392857D01*
X64085714Y-91392857D01*
X64180952Y-91440476D01*
X64228571Y-91488095D01*
X64276190Y-91583333D01*
X64276190Y-91964285D01*
X64085714Y-90535714D02*
X64752380Y-90535714D01*
X63704761Y-90773809D02*
X64419047Y-91011904D01*
X64419047Y-90392857D01*
X64752380Y-89488095D02*
X64752380Y-90059523D01*
X64752380Y-89773809D02*
X63752380Y-89773809D01*
X63895238Y-89869047D01*
X63990476Y-89964285D01*
X64038095Y-90059523D01*
X66752380Y-91392857D02*
X66276190Y-91726190D01*
X66752380Y-91964285D02*
X65752380Y-91964285D01*
X65752380Y-91583333D01*
X65800000Y-91488095D01*
X65847619Y-91440476D01*
X65942857Y-91392857D01*
X66085714Y-91392857D01*
X66180952Y-91440476D01*
X66228571Y-91488095D01*
X66276190Y-91583333D01*
X66276190Y-91964285D01*
X66085714Y-90535714D02*
X66752380Y-90535714D01*
X65704761Y-90773809D02*
X66419047Y-91011904D01*
X66419047Y-90392857D01*
X65847619Y-90059523D02*
X65800000Y-90011904D01*
X65752380Y-89916666D01*
X65752380Y-89678571D01*
X65800000Y-89583333D01*
X65847619Y-89535714D01*
X65942857Y-89488095D01*
X66038095Y-89488095D01*
X66180952Y-89535714D01*
X66752380Y-90107142D01*
X66752380Y-89488095D01*
X85652380Y-126892857D02*
X85176190Y-127226190D01*
X85652380Y-127464285D02*
X84652380Y-127464285D01*
X84652380Y-127083333D01*
X84700000Y-126988095D01*
X84747619Y-126940476D01*
X84842857Y-126892857D01*
X84985714Y-126892857D01*
X85080952Y-126940476D01*
X85128571Y-126988095D01*
X85176190Y-127083333D01*
X85176190Y-127464285D01*
X84985714Y-126035714D02*
X85652380Y-126035714D01*
X84604761Y-126273809D02*
X85319047Y-126511904D01*
X85319047Y-125892857D01*
X84652380Y-125607142D02*
X84652380Y-124988095D01*
X85033333Y-125321428D01*
X85033333Y-125178571D01*
X85080952Y-125083333D01*
X85128571Y-125035714D01*
X85223809Y-124988095D01*
X85461904Y-124988095D01*
X85557142Y-125035714D01*
X85604761Y-125083333D01*
X85652380Y-125178571D01*
X85652380Y-125464285D01*
X85604761Y-125559523D01*
X85557142Y-125607142D01*
X81652380Y-126892857D02*
X81176190Y-127226190D01*
X81652380Y-127464285D02*
X80652380Y-127464285D01*
X80652380Y-127083333D01*
X80700000Y-126988095D01*
X80747619Y-126940476D01*
X80842857Y-126892857D01*
X80985714Y-126892857D01*
X81080952Y-126940476D01*
X81128571Y-126988095D01*
X81176190Y-127083333D01*
X81176190Y-127464285D01*
X80985714Y-126035714D02*
X81652380Y-126035714D01*
X80604761Y-126273809D02*
X81319047Y-126511904D01*
X81319047Y-125892857D01*
X80985714Y-125083333D02*
X81652380Y-125083333D01*
X80604761Y-125321428D02*
X81319047Y-125559523D01*
X81319047Y-124940476D01*
X77652380Y-126892857D02*
X77176190Y-127226190D01*
X77652380Y-127464285D02*
X76652380Y-127464285D01*
X76652380Y-127083333D01*
X76700000Y-126988095D01*
X76747619Y-126940476D01*
X76842857Y-126892857D01*
X76985714Y-126892857D01*
X77080952Y-126940476D01*
X77128571Y-126988095D01*
X77176190Y-127083333D01*
X77176190Y-127464285D01*
X76985714Y-126035714D02*
X77652380Y-126035714D01*
X76604761Y-126273809D02*
X77319047Y-126511904D01*
X77319047Y-125892857D01*
X76652380Y-125035714D02*
X76652380Y-125511904D01*
X77128571Y-125559523D01*
X77080952Y-125511904D01*
X77033333Y-125416666D01*
X77033333Y-125178571D01*
X77080952Y-125083333D01*
X77128571Y-125035714D01*
X77223809Y-124988095D01*
X77461904Y-124988095D01*
X77557142Y-125035714D01*
X77604761Y-125083333D01*
X77652380Y-125178571D01*
X77652380Y-125416666D01*
X77604761Y-125511904D01*
X77557142Y-125559523D01*
X73652380Y-126892857D02*
X73176190Y-127226190D01*
X73652380Y-127464285D02*
X72652380Y-127464285D01*
X72652380Y-127083333D01*
X72700000Y-126988095D01*
X72747619Y-126940476D01*
X72842857Y-126892857D01*
X72985714Y-126892857D01*
X73080952Y-126940476D01*
X73128571Y-126988095D01*
X73176190Y-127083333D01*
X73176190Y-127464285D01*
X72985714Y-126035714D02*
X73652380Y-126035714D01*
X72604761Y-126273809D02*
X73319047Y-126511904D01*
X73319047Y-125892857D01*
X72652380Y-125083333D02*
X72652380Y-125273809D01*
X72700000Y-125369047D01*
X72747619Y-125416666D01*
X72890476Y-125511904D01*
X73080952Y-125559523D01*
X73461904Y-125559523D01*
X73557142Y-125511904D01*
X73604761Y-125464285D01*
X73652380Y-125369047D01*
X73652380Y-125178571D01*
X73604761Y-125083333D01*
X73557142Y-125035714D01*
X73461904Y-124988095D01*
X73223809Y-124988095D01*
X73128571Y-125035714D01*
X73080952Y-125083333D01*
X73033333Y-125178571D01*
X73033333Y-125369047D01*
X73080952Y-125464285D01*
X73128571Y-125511904D01*
X73223809Y-125559523D01*
X54752380Y-91392857D02*
X54276190Y-91726190D01*
X54752380Y-91964285D02*
X53752380Y-91964285D01*
X53752380Y-91583333D01*
X53800000Y-91488095D01*
X53847619Y-91440476D01*
X53942857Y-91392857D01*
X54085714Y-91392857D01*
X54180952Y-91440476D01*
X54228571Y-91488095D01*
X54276190Y-91583333D01*
X54276190Y-91964285D01*
X54085714Y-90535714D02*
X54752380Y-90535714D01*
X53704761Y-90773809D02*
X54419047Y-91011904D01*
X54419047Y-90392857D01*
X53752380Y-90107142D02*
X53752380Y-89440476D01*
X54752380Y-89869047D01*
X58752380Y-91392857D02*
X58276190Y-91726190D01*
X58752380Y-91964285D02*
X57752380Y-91964285D01*
X57752380Y-91583333D01*
X57800000Y-91488095D01*
X57847619Y-91440476D01*
X57942857Y-91392857D01*
X58085714Y-91392857D01*
X58180952Y-91440476D01*
X58228571Y-91488095D01*
X58276190Y-91583333D01*
X58276190Y-91964285D01*
X58085714Y-90535714D02*
X58752380Y-90535714D01*
X57704761Y-90773809D02*
X58419047Y-91011904D01*
X58419047Y-90392857D01*
X58180952Y-89869047D02*
X58133333Y-89964285D01*
X58085714Y-90011904D01*
X57990476Y-90059523D01*
X57942857Y-90059523D01*
X57847619Y-90011904D01*
X57800000Y-89964285D01*
X57752380Y-89869047D01*
X57752380Y-89678571D01*
X57800000Y-89583333D01*
X57847619Y-89535714D01*
X57942857Y-89488095D01*
X57990476Y-89488095D01*
X58085714Y-89535714D01*
X58133333Y-89583333D01*
X58180952Y-89678571D01*
X58180952Y-89869047D01*
X58228571Y-89964285D01*
X58276190Y-90011904D01*
X58371428Y-90059523D01*
X58561904Y-90059523D01*
X58657142Y-90011904D01*
X58704761Y-89964285D01*
X58752380Y-89869047D01*
X58752380Y-89678571D01*
X58704761Y-89583333D01*
X58657142Y-89535714D01*
X58561904Y-89488095D01*
X58371428Y-89488095D01*
X58276190Y-89535714D01*
X58228571Y-89583333D01*
X58180952Y-89678571D01*
X62752380Y-91392857D02*
X62276190Y-91726190D01*
X62752380Y-91964285D02*
X61752380Y-91964285D01*
X61752380Y-91583333D01*
X61800000Y-91488095D01*
X61847619Y-91440476D01*
X61942857Y-91392857D01*
X62085714Y-91392857D01*
X62180952Y-91440476D01*
X62228571Y-91488095D01*
X62276190Y-91583333D01*
X62276190Y-91964285D01*
X62085714Y-90535714D02*
X62752380Y-90535714D01*
X61704761Y-90773809D02*
X62419047Y-91011904D01*
X62419047Y-90392857D01*
X62752380Y-89964285D02*
X62752380Y-89773809D01*
X62704761Y-89678571D01*
X62657142Y-89630952D01*
X62514285Y-89535714D01*
X62323809Y-89488095D01*
X61942857Y-89488095D01*
X61847619Y-89535714D01*
X61800000Y-89583333D01*
X61752380Y-89678571D01*
X61752380Y-89869047D01*
X61800000Y-89964285D01*
X61847619Y-90011904D01*
X61942857Y-90059523D01*
X62180952Y-90059523D01*
X62276190Y-90011904D01*
X62323809Y-89964285D01*
X62371428Y-89869047D01*
X62371428Y-89678571D01*
X62323809Y-89583333D01*
X62276190Y-89535714D01*
X62180952Y-89488095D01*
X68752380Y-91392857D02*
X68276190Y-91726190D01*
X68752380Y-91964285D02*
X67752380Y-91964285D01*
X67752380Y-91583333D01*
X67800000Y-91488095D01*
X67847619Y-91440476D01*
X67942857Y-91392857D01*
X68085714Y-91392857D01*
X68180952Y-91440476D01*
X68228571Y-91488095D01*
X68276190Y-91583333D01*
X68276190Y-91964285D01*
X67752380Y-90488095D02*
X67752380Y-90964285D01*
X68228571Y-91011904D01*
X68180952Y-90964285D01*
X68133333Y-90869047D01*
X68133333Y-90630952D01*
X68180952Y-90535714D01*
X68228571Y-90488095D01*
X68323809Y-90440476D01*
X68561904Y-90440476D01*
X68657142Y-90488095D01*
X68704761Y-90535714D01*
X68752380Y-90630952D01*
X68752380Y-90869047D01*
X68704761Y-90964285D01*
X68657142Y-91011904D01*
X67752380Y-89821428D02*
X67752380Y-89726190D01*
X67800000Y-89630952D01*
X67847619Y-89583333D01*
X67942857Y-89535714D01*
X68133333Y-89488095D01*
X68371428Y-89488095D01*
X68561904Y-89535714D01*
X68657142Y-89583333D01*
X68704761Y-89630952D01*
X68752380Y-89726190D01*
X68752380Y-89821428D01*
X68704761Y-89916666D01*
X68657142Y-89964285D01*
X68561904Y-90011904D01*
X68371428Y-90059523D01*
X68133333Y-90059523D01*
X67942857Y-90011904D01*
X67847619Y-89964285D01*
X67800000Y-89916666D01*
X67752380Y-89821428D01*
X83652380Y-126892857D02*
X83176190Y-127226190D01*
X83652380Y-127464285D02*
X82652380Y-127464285D01*
X82652380Y-127083333D01*
X82700000Y-126988095D01*
X82747619Y-126940476D01*
X82842857Y-126892857D01*
X82985714Y-126892857D01*
X83080952Y-126940476D01*
X83128571Y-126988095D01*
X83176190Y-127083333D01*
X83176190Y-127464285D01*
X82652380Y-125988095D02*
X82652380Y-126464285D01*
X83128571Y-126511904D01*
X83080952Y-126464285D01*
X83033333Y-126369047D01*
X83033333Y-126130952D01*
X83080952Y-126035714D01*
X83128571Y-125988095D01*
X83223809Y-125940476D01*
X83461904Y-125940476D01*
X83557142Y-125988095D01*
X83604761Y-126035714D01*
X83652380Y-126130952D01*
X83652380Y-126369047D01*
X83604761Y-126464285D01*
X83557142Y-126511904D01*
X83652380Y-124988095D02*
X83652380Y-125559523D01*
X83652380Y-125273809D02*
X82652380Y-125273809D01*
X82795238Y-125369047D01*
X82890476Y-125464285D01*
X82938095Y-125559523D01*
X79652380Y-126892857D02*
X79176190Y-127226190D01*
X79652380Y-127464285D02*
X78652380Y-127464285D01*
X78652380Y-127083333D01*
X78700000Y-126988095D01*
X78747619Y-126940476D01*
X78842857Y-126892857D01*
X78985714Y-126892857D01*
X79080952Y-126940476D01*
X79128571Y-126988095D01*
X79176190Y-127083333D01*
X79176190Y-127464285D01*
X78652380Y-125988095D02*
X78652380Y-126464285D01*
X79128571Y-126511904D01*
X79080952Y-126464285D01*
X79033333Y-126369047D01*
X79033333Y-126130952D01*
X79080952Y-126035714D01*
X79128571Y-125988095D01*
X79223809Y-125940476D01*
X79461904Y-125940476D01*
X79557142Y-125988095D01*
X79604761Y-126035714D01*
X79652380Y-126130952D01*
X79652380Y-126369047D01*
X79604761Y-126464285D01*
X79557142Y-126511904D01*
X78747619Y-125559523D02*
X78700000Y-125511904D01*
X78652380Y-125416666D01*
X78652380Y-125178571D01*
X78700000Y-125083333D01*
X78747619Y-125035714D01*
X78842857Y-124988095D01*
X78938095Y-124988095D01*
X79080952Y-125035714D01*
X79652380Y-125607142D01*
X79652380Y-124988095D01*
X75652380Y-126892857D02*
X75176190Y-127226190D01*
X75652380Y-127464285D02*
X74652380Y-127464285D01*
X74652380Y-127083333D01*
X74700000Y-126988095D01*
X74747619Y-126940476D01*
X74842857Y-126892857D01*
X74985714Y-126892857D01*
X75080952Y-126940476D01*
X75128571Y-126988095D01*
X75176190Y-127083333D01*
X75176190Y-127464285D01*
X74652380Y-125988095D02*
X74652380Y-126464285D01*
X75128571Y-126511904D01*
X75080952Y-126464285D01*
X75033333Y-126369047D01*
X75033333Y-126130952D01*
X75080952Y-126035714D01*
X75128571Y-125988095D01*
X75223809Y-125940476D01*
X75461904Y-125940476D01*
X75557142Y-125988095D01*
X75604761Y-126035714D01*
X75652380Y-126130952D01*
X75652380Y-126369047D01*
X75604761Y-126464285D01*
X75557142Y-126511904D01*
X74652380Y-125607142D02*
X74652380Y-124988095D01*
X75033333Y-125321428D01*
X75033333Y-125178571D01*
X75080952Y-125083333D01*
X75128571Y-125035714D01*
X75223809Y-124988095D01*
X75461904Y-124988095D01*
X75557142Y-125035714D01*
X75604761Y-125083333D01*
X75652380Y-125178571D01*
X75652380Y-125464285D01*
X75604761Y-125559523D01*
X75557142Y-125607142D01*
X71652380Y-126892857D02*
X71176190Y-127226190D01*
X71652380Y-127464285D02*
X70652380Y-127464285D01*
X70652380Y-127083333D01*
X70700000Y-126988095D01*
X70747619Y-126940476D01*
X70842857Y-126892857D01*
X70985714Y-126892857D01*
X71080952Y-126940476D01*
X71128571Y-126988095D01*
X71176190Y-127083333D01*
X71176190Y-127464285D01*
X70652380Y-125988095D02*
X70652380Y-126464285D01*
X71128571Y-126511904D01*
X71080952Y-126464285D01*
X71033333Y-126369047D01*
X71033333Y-126130952D01*
X71080952Y-126035714D01*
X71128571Y-125988095D01*
X71223809Y-125940476D01*
X71461904Y-125940476D01*
X71557142Y-125988095D01*
X71604761Y-126035714D01*
X71652380Y-126130952D01*
X71652380Y-126369047D01*
X71604761Y-126464285D01*
X71557142Y-126511904D01*
X70985714Y-125083333D02*
X71652380Y-125083333D01*
X70604761Y-125321428D02*
X71319047Y-125559523D01*
X71319047Y-124940476D01*
X108702380Y-126892857D02*
X108226190Y-127226190D01*
X108702380Y-127464285D02*
X107702380Y-127464285D01*
X107702380Y-127083333D01*
X107750000Y-126988095D01*
X107797619Y-126940476D01*
X107892857Y-126892857D01*
X108035714Y-126892857D01*
X108130952Y-126940476D01*
X108178571Y-126988095D01*
X108226190Y-127083333D01*
X108226190Y-127464285D01*
X107702380Y-125988095D02*
X107702380Y-126464285D01*
X108178571Y-126511904D01*
X108130952Y-126464285D01*
X108083333Y-126369047D01*
X108083333Y-126130952D01*
X108130952Y-126035714D01*
X108178571Y-125988095D01*
X108273809Y-125940476D01*
X108511904Y-125940476D01*
X108607142Y-125988095D01*
X108654761Y-126035714D01*
X108702380Y-126130952D01*
X108702380Y-126369047D01*
X108654761Y-126464285D01*
X108607142Y-126511904D01*
X107702380Y-125035714D02*
X107702380Y-125511904D01*
X108178571Y-125559523D01*
X108130952Y-125511904D01*
X108083333Y-125416666D01*
X108083333Y-125178571D01*
X108130952Y-125083333D01*
X108178571Y-125035714D01*
X108273809Y-124988095D01*
X108511904Y-124988095D01*
X108607142Y-125035714D01*
X108654761Y-125083333D01*
X108702380Y-125178571D01*
X108702380Y-125416666D01*
X108654761Y-125511904D01*
X108607142Y-125559523D01*
X104702380Y-126892857D02*
X104226190Y-127226190D01*
X104702380Y-127464285D02*
X103702380Y-127464285D01*
X103702380Y-127083333D01*
X103750000Y-126988095D01*
X103797619Y-126940476D01*
X103892857Y-126892857D01*
X104035714Y-126892857D01*
X104130952Y-126940476D01*
X104178571Y-126988095D01*
X104226190Y-127083333D01*
X104226190Y-127464285D01*
X103702380Y-125988095D02*
X103702380Y-126464285D01*
X104178571Y-126511904D01*
X104130952Y-126464285D01*
X104083333Y-126369047D01*
X104083333Y-126130952D01*
X104130952Y-126035714D01*
X104178571Y-125988095D01*
X104273809Y-125940476D01*
X104511904Y-125940476D01*
X104607142Y-125988095D01*
X104654761Y-126035714D01*
X104702380Y-126130952D01*
X104702380Y-126369047D01*
X104654761Y-126464285D01*
X104607142Y-126511904D01*
X103702380Y-125083333D02*
X103702380Y-125273809D01*
X103750000Y-125369047D01*
X103797619Y-125416666D01*
X103940476Y-125511904D01*
X104130952Y-125559523D01*
X104511904Y-125559523D01*
X104607142Y-125511904D01*
X104654761Y-125464285D01*
X104702380Y-125369047D01*
X104702380Y-125178571D01*
X104654761Y-125083333D01*
X104607142Y-125035714D01*
X104511904Y-124988095D01*
X104273809Y-124988095D01*
X104178571Y-125035714D01*
X104130952Y-125083333D01*
X104083333Y-125178571D01*
X104083333Y-125369047D01*
X104130952Y-125464285D01*
X104178571Y-125511904D01*
X104273809Y-125559523D01*
X100652380Y-126892857D02*
X100176190Y-127226190D01*
X100652380Y-127464285D02*
X99652380Y-127464285D01*
X99652380Y-127083333D01*
X99700000Y-126988095D01*
X99747619Y-126940476D01*
X99842857Y-126892857D01*
X99985714Y-126892857D01*
X100080952Y-126940476D01*
X100128571Y-126988095D01*
X100176190Y-127083333D01*
X100176190Y-127464285D01*
X99652380Y-125988095D02*
X99652380Y-126464285D01*
X100128571Y-126511904D01*
X100080952Y-126464285D01*
X100033333Y-126369047D01*
X100033333Y-126130952D01*
X100080952Y-126035714D01*
X100128571Y-125988095D01*
X100223809Y-125940476D01*
X100461904Y-125940476D01*
X100557142Y-125988095D01*
X100604761Y-126035714D01*
X100652380Y-126130952D01*
X100652380Y-126369047D01*
X100604761Y-126464285D01*
X100557142Y-126511904D01*
X99652380Y-125607142D02*
X99652380Y-124940476D01*
X100652380Y-125369047D01*
X96652380Y-126892857D02*
X96176190Y-127226190D01*
X96652380Y-127464285D02*
X95652380Y-127464285D01*
X95652380Y-127083333D01*
X95700000Y-126988095D01*
X95747619Y-126940476D01*
X95842857Y-126892857D01*
X95985714Y-126892857D01*
X96080952Y-126940476D01*
X96128571Y-126988095D01*
X96176190Y-127083333D01*
X96176190Y-127464285D01*
X95652380Y-125988095D02*
X95652380Y-126464285D01*
X96128571Y-126511904D01*
X96080952Y-126464285D01*
X96033333Y-126369047D01*
X96033333Y-126130952D01*
X96080952Y-126035714D01*
X96128571Y-125988095D01*
X96223809Y-125940476D01*
X96461904Y-125940476D01*
X96557142Y-125988095D01*
X96604761Y-126035714D01*
X96652380Y-126130952D01*
X96652380Y-126369047D01*
X96604761Y-126464285D01*
X96557142Y-126511904D01*
X96080952Y-125369047D02*
X96033333Y-125464285D01*
X95985714Y-125511904D01*
X95890476Y-125559523D01*
X95842857Y-125559523D01*
X95747619Y-125511904D01*
X95700000Y-125464285D01*
X95652380Y-125369047D01*
X95652380Y-125178571D01*
X95700000Y-125083333D01*
X95747619Y-125035714D01*
X95842857Y-124988095D01*
X95890476Y-124988095D01*
X95985714Y-125035714D01*
X96033333Y-125083333D01*
X96080952Y-125178571D01*
X96080952Y-125369047D01*
X96128571Y-125464285D01*
X96176190Y-125511904D01*
X96271428Y-125559523D01*
X96461904Y-125559523D01*
X96557142Y-125511904D01*
X96604761Y-125464285D01*
X96652380Y-125369047D01*
X96652380Y-125178571D01*
X96604761Y-125083333D01*
X96557142Y-125035714D01*
X96461904Y-124988095D01*
X96271428Y-124988095D01*
X96176190Y-125035714D01*
X96128571Y-125083333D01*
X96080952Y-125178571D01*
X102702380Y-91392857D02*
X102226190Y-91726190D01*
X102702380Y-91964285D02*
X101702380Y-91964285D01*
X101702380Y-91583333D01*
X101750000Y-91488095D01*
X101797619Y-91440476D01*
X101892857Y-91392857D01*
X102035714Y-91392857D01*
X102130952Y-91440476D01*
X102178571Y-91488095D01*
X102226190Y-91583333D01*
X102226190Y-91964285D01*
X101702380Y-90488095D02*
X101702380Y-90964285D01*
X102178571Y-91011904D01*
X102130952Y-90964285D01*
X102083333Y-90869047D01*
X102083333Y-90630952D01*
X102130952Y-90535714D01*
X102178571Y-90488095D01*
X102273809Y-90440476D01*
X102511904Y-90440476D01*
X102607142Y-90488095D01*
X102654761Y-90535714D01*
X102702380Y-90630952D01*
X102702380Y-90869047D01*
X102654761Y-90964285D01*
X102607142Y-91011904D01*
X102702380Y-89964285D02*
X102702380Y-89773809D01*
X102654761Y-89678571D01*
X102607142Y-89630952D01*
X102464285Y-89535714D01*
X102273809Y-89488095D01*
X101892857Y-89488095D01*
X101797619Y-89535714D01*
X101750000Y-89583333D01*
X101702380Y-89678571D01*
X101702380Y-89869047D01*
X101750000Y-89964285D01*
X101797619Y-90011904D01*
X101892857Y-90059523D01*
X102130952Y-90059523D01*
X102226190Y-90011904D01*
X102273809Y-89964285D01*
X102321428Y-89869047D01*
X102321428Y-89678571D01*
X102273809Y-89583333D01*
X102226190Y-89535714D01*
X102130952Y-89488095D01*
X106752380Y-91392857D02*
X106276190Y-91726190D01*
X106752380Y-91964285D02*
X105752380Y-91964285D01*
X105752380Y-91583333D01*
X105800000Y-91488095D01*
X105847619Y-91440476D01*
X105942857Y-91392857D01*
X106085714Y-91392857D01*
X106180952Y-91440476D01*
X106228571Y-91488095D01*
X106276190Y-91583333D01*
X106276190Y-91964285D01*
X105752380Y-90535714D02*
X105752380Y-90726190D01*
X105800000Y-90821428D01*
X105847619Y-90869047D01*
X105990476Y-90964285D01*
X106180952Y-91011904D01*
X106561904Y-91011904D01*
X106657142Y-90964285D01*
X106704761Y-90916666D01*
X106752380Y-90821428D01*
X106752380Y-90630952D01*
X106704761Y-90535714D01*
X106657142Y-90488095D01*
X106561904Y-90440476D01*
X106323809Y-90440476D01*
X106228571Y-90488095D01*
X106180952Y-90535714D01*
X106133333Y-90630952D01*
X106133333Y-90821428D01*
X106180952Y-90916666D01*
X106228571Y-90964285D01*
X106323809Y-91011904D01*
X105752380Y-89821428D02*
X105752380Y-89726190D01*
X105800000Y-89630952D01*
X105847619Y-89583333D01*
X105942857Y-89535714D01*
X106133333Y-89488095D01*
X106371428Y-89488095D01*
X106561904Y-89535714D01*
X106657142Y-89583333D01*
X106704761Y-89630952D01*
X106752380Y-89726190D01*
X106752380Y-89821428D01*
X106704761Y-89916666D01*
X106657142Y-89964285D01*
X106561904Y-90011904D01*
X106371428Y-90059523D01*
X106133333Y-90059523D01*
X105942857Y-90011904D01*
X105847619Y-89964285D01*
X105800000Y-89916666D01*
X105752380Y-89821428D01*
X110752380Y-91392857D02*
X110276190Y-91726190D01*
X110752380Y-91964285D02*
X109752380Y-91964285D01*
X109752380Y-91583333D01*
X109800000Y-91488095D01*
X109847619Y-91440476D01*
X109942857Y-91392857D01*
X110085714Y-91392857D01*
X110180952Y-91440476D01*
X110228571Y-91488095D01*
X110276190Y-91583333D01*
X110276190Y-91964285D01*
X109752380Y-90535714D02*
X109752380Y-90726190D01*
X109800000Y-90821428D01*
X109847619Y-90869047D01*
X109990476Y-90964285D01*
X110180952Y-91011904D01*
X110561904Y-91011904D01*
X110657142Y-90964285D01*
X110704761Y-90916666D01*
X110752380Y-90821428D01*
X110752380Y-90630952D01*
X110704761Y-90535714D01*
X110657142Y-90488095D01*
X110561904Y-90440476D01*
X110323809Y-90440476D01*
X110228571Y-90488095D01*
X110180952Y-90535714D01*
X110133333Y-90630952D01*
X110133333Y-90821428D01*
X110180952Y-90916666D01*
X110228571Y-90964285D01*
X110323809Y-91011904D01*
X110752380Y-89488095D02*
X110752380Y-90059523D01*
X110752380Y-89773809D02*
X109752380Y-89773809D01*
X109895238Y-89869047D01*
X109990476Y-89964285D01*
X110038095Y-90059523D01*
X112752380Y-91392857D02*
X112276190Y-91726190D01*
X112752380Y-91964285D02*
X111752380Y-91964285D01*
X111752380Y-91583333D01*
X111800000Y-91488095D01*
X111847619Y-91440476D01*
X111942857Y-91392857D01*
X112085714Y-91392857D01*
X112180952Y-91440476D01*
X112228571Y-91488095D01*
X112276190Y-91583333D01*
X112276190Y-91964285D01*
X111752380Y-90535714D02*
X111752380Y-90726190D01*
X111800000Y-90821428D01*
X111847619Y-90869047D01*
X111990476Y-90964285D01*
X112180952Y-91011904D01*
X112561904Y-91011904D01*
X112657142Y-90964285D01*
X112704761Y-90916666D01*
X112752380Y-90821428D01*
X112752380Y-90630952D01*
X112704761Y-90535714D01*
X112657142Y-90488095D01*
X112561904Y-90440476D01*
X112323809Y-90440476D01*
X112228571Y-90488095D01*
X112180952Y-90535714D01*
X112133333Y-90630952D01*
X112133333Y-90821428D01*
X112180952Y-90916666D01*
X112228571Y-90964285D01*
X112323809Y-91011904D01*
X111847619Y-90059523D02*
X111800000Y-90011904D01*
X111752380Y-89916666D01*
X111752380Y-89678571D01*
X111800000Y-89583333D01*
X111847619Y-89535714D01*
X111942857Y-89488095D01*
X112038095Y-89488095D01*
X112180952Y-89535714D01*
X112752380Y-90107142D01*
X112752380Y-89488095D01*
X79702380Y-91392857D02*
X79226190Y-91726190D01*
X79702380Y-91964285D02*
X78702380Y-91964285D01*
X78702380Y-91583333D01*
X78750000Y-91488095D01*
X78797619Y-91440476D01*
X78892857Y-91392857D01*
X79035714Y-91392857D01*
X79130952Y-91440476D01*
X79178571Y-91488095D01*
X79226190Y-91583333D01*
X79226190Y-91964285D01*
X78702380Y-90535714D02*
X78702380Y-90726190D01*
X78750000Y-90821428D01*
X78797619Y-90869047D01*
X78940476Y-90964285D01*
X79130952Y-91011904D01*
X79511904Y-91011904D01*
X79607142Y-90964285D01*
X79654761Y-90916666D01*
X79702380Y-90821428D01*
X79702380Y-90630952D01*
X79654761Y-90535714D01*
X79607142Y-90488095D01*
X79511904Y-90440476D01*
X79273809Y-90440476D01*
X79178571Y-90488095D01*
X79130952Y-90535714D01*
X79083333Y-90630952D01*
X79083333Y-90821428D01*
X79130952Y-90916666D01*
X79178571Y-90964285D01*
X79273809Y-91011904D01*
X78702380Y-90107142D02*
X78702380Y-89488095D01*
X79083333Y-89821428D01*
X79083333Y-89678571D01*
X79130952Y-89583333D01*
X79178571Y-89535714D01*
X79273809Y-89488095D01*
X79511904Y-89488095D01*
X79607142Y-89535714D01*
X79654761Y-89583333D01*
X79702380Y-89678571D01*
X79702380Y-89964285D01*
X79654761Y-90059523D01*
X79607142Y-90107142D01*
X83702380Y-91392857D02*
X83226190Y-91726190D01*
X83702380Y-91964285D02*
X82702380Y-91964285D01*
X82702380Y-91583333D01*
X82750000Y-91488095D01*
X82797619Y-91440476D01*
X82892857Y-91392857D01*
X83035714Y-91392857D01*
X83130952Y-91440476D01*
X83178571Y-91488095D01*
X83226190Y-91583333D01*
X83226190Y-91964285D01*
X82702380Y-90535714D02*
X82702380Y-90726190D01*
X82750000Y-90821428D01*
X82797619Y-90869047D01*
X82940476Y-90964285D01*
X83130952Y-91011904D01*
X83511904Y-91011904D01*
X83607142Y-90964285D01*
X83654761Y-90916666D01*
X83702380Y-90821428D01*
X83702380Y-90630952D01*
X83654761Y-90535714D01*
X83607142Y-90488095D01*
X83511904Y-90440476D01*
X83273809Y-90440476D01*
X83178571Y-90488095D01*
X83130952Y-90535714D01*
X83083333Y-90630952D01*
X83083333Y-90821428D01*
X83130952Y-90916666D01*
X83178571Y-90964285D01*
X83273809Y-91011904D01*
X83035714Y-89583333D02*
X83702380Y-89583333D01*
X82654761Y-89821428D02*
X83369047Y-90059523D01*
X83369047Y-89440476D01*
X87752380Y-91392857D02*
X87276190Y-91726190D01*
X87752380Y-91964285D02*
X86752380Y-91964285D01*
X86752380Y-91583333D01*
X86800000Y-91488095D01*
X86847619Y-91440476D01*
X86942857Y-91392857D01*
X87085714Y-91392857D01*
X87180952Y-91440476D01*
X87228571Y-91488095D01*
X87276190Y-91583333D01*
X87276190Y-91964285D01*
X86752380Y-90535714D02*
X86752380Y-90726190D01*
X86800000Y-90821428D01*
X86847619Y-90869047D01*
X86990476Y-90964285D01*
X87180952Y-91011904D01*
X87561904Y-91011904D01*
X87657142Y-90964285D01*
X87704761Y-90916666D01*
X87752380Y-90821428D01*
X87752380Y-90630952D01*
X87704761Y-90535714D01*
X87657142Y-90488095D01*
X87561904Y-90440476D01*
X87323809Y-90440476D01*
X87228571Y-90488095D01*
X87180952Y-90535714D01*
X87133333Y-90630952D01*
X87133333Y-90821428D01*
X87180952Y-90916666D01*
X87228571Y-90964285D01*
X87323809Y-91011904D01*
X86752380Y-89535714D02*
X86752380Y-90011904D01*
X87228571Y-90059523D01*
X87180952Y-90011904D01*
X87133333Y-89916666D01*
X87133333Y-89678571D01*
X87180952Y-89583333D01*
X87228571Y-89535714D01*
X87323809Y-89488095D01*
X87561904Y-89488095D01*
X87657142Y-89535714D01*
X87704761Y-89583333D01*
X87752380Y-89678571D01*
X87752380Y-89916666D01*
X87704761Y-90011904D01*
X87657142Y-90059523D01*
X89752380Y-91392857D02*
X89276190Y-91726190D01*
X89752380Y-91964285D02*
X88752380Y-91964285D01*
X88752380Y-91583333D01*
X88800000Y-91488095D01*
X88847619Y-91440476D01*
X88942857Y-91392857D01*
X89085714Y-91392857D01*
X89180952Y-91440476D01*
X89228571Y-91488095D01*
X89276190Y-91583333D01*
X89276190Y-91964285D01*
X88752380Y-90535714D02*
X88752380Y-90726190D01*
X88800000Y-90821428D01*
X88847619Y-90869047D01*
X88990476Y-90964285D01*
X89180952Y-91011904D01*
X89561904Y-91011904D01*
X89657142Y-90964285D01*
X89704761Y-90916666D01*
X89752380Y-90821428D01*
X89752380Y-90630952D01*
X89704761Y-90535714D01*
X89657142Y-90488095D01*
X89561904Y-90440476D01*
X89323809Y-90440476D01*
X89228571Y-90488095D01*
X89180952Y-90535714D01*
X89133333Y-90630952D01*
X89133333Y-90821428D01*
X89180952Y-90916666D01*
X89228571Y-90964285D01*
X89323809Y-91011904D01*
X88752380Y-89583333D02*
X88752380Y-89773809D01*
X88800000Y-89869047D01*
X88847619Y-89916666D01*
X88990476Y-90011904D01*
X89180952Y-90059523D01*
X89561904Y-90059523D01*
X89657142Y-90011904D01*
X89704761Y-89964285D01*
X89752380Y-89869047D01*
X89752380Y-89678571D01*
X89704761Y-89583333D01*
X89657142Y-89535714D01*
X89561904Y-89488095D01*
X89323809Y-89488095D01*
X89228571Y-89535714D01*
X89180952Y-89583333D01*
X89133333Y-89678571D01*
X89133333Y-89869047D01*
X89180952Y-89964285D01*
X89228571Y-90011904D01*
X89323809Y-90059523D01*
X106652380Y-126892857D02*
X106176190Y-127226190D01*
X106652380Y-127464285D02*
X105652380Y-127464285D01*
X105652380Y-127083333D01*
X105700000Y-126988095D01*
X105747619Y-126940476D01*
X105842857Y-126892857D01*
X105985714Y-126892857D01*
X106080952Y-126940476D01*
X106128571Y-126988095D01*
X106176190Y-127083333D01*
X106176190Y-127464285D01*
X105652380Y-126035714D02*
X105652380Y-126226190D01*
X105700000Y-126321428D01*
X105747619Y-126369047D01*
X105890476Y-126464285D01*
X106080952Y-126511904D01*
X106461904Y-126511904D01*
X106557142Y-126464285D01*
X106604761Y-126416666D01*
X106652380Y-126321428D01*
X106652380Y-126130952D01*
X106604761Y-126035714D01*
X106557142Y-125988095D01*
X106461904Y-125940476D01*
X106223809Y-125940476D01*
X106128571Y-125988095D01*
X106080952Y-126035714D01*
X106033333Y-126130952D01*
X106033333Y-126321428D01*
X106080952Y-126416666D01*
X106128571Y-126464285D01*
X106223809Y-126511904D01*
X105652380Y-125607142D02*
X105652380Y-124940476D01*
X106652380Y-125369047D01*
X102652380Y-126892857D02*
X102176190Y-127226190D01*
X102652380Y-127464285D02*
X101652380Y-127464285D01*
X101652380Y-127083333D01*
X101700000Y-126988095D01*
X101747619Y-126940476D01*
X101842857Y-126892857D01*
X101985714Y-126892857D01*
X102080952Y-126940476D01*
X102128571Y-126988095D01*
X102176190Y-127083333D01*
X102176190Y-127464285D01*
X101652380Y-126035714D02*
X101652380Y-126226190D01*
X101700000Y-126321428D01*
X101747619Y-126369047D01*
X101890476Y-126464285D01*
X102080952Y-126511904D01*
X102461904Y-126511904D01*
X102557142Y-126464285D01*
X102604761Y-126416666D01*
X102652380Y-126321428D01*
X102652380Y-126130952D01*
X102604761Y-126035714D01*
X102557142Y-125988095D01*
X102461904Y-125940476D01*
X102223809Y-125940476D01*
X102128571Y-125988095D01*
X102080952Y-126035714D01*
X102033333Y-126130952D01*
X102033333Y-126321428D01*
X102080952Y-126416666D01*
X102128571Y-126464285D01*
X102223809Y-126511904D01*
X102080952Y-125369047D02*
X102033333Y-125464285D01*
X101985714Y-125511904D01*
X101890476Y-125559523D01*
X101842857Y-125559523D01*
X101747619Y-125511904D01*
X101700000Y-125464285D01*
X101652380Y-125369047D01*
X101652380Y-125178571D01*
X101700000Y-125083333D01*
X101747619Y-125035714D01*
X101842857Y-124988095D01*
X101890476Y-124988095D01*
X101985714Y-125035714D01*
X102033333Y-125083333D01*
X102080952Y-125178571D01*
X102080952Y-125369047D01*
X102128571Y-125464285D01*
X102176190Y-125511904D01*
X102271428Y-125559523D01*
X102461904Y-125559523D01*
X102557142Y-125511904D01*
X102604761Y-125464285D01*
X102652380Y-125369047D01*
X102652380Y-125178571D01*
X102604761Y-125083333D01*
X102557142Y-125035714D01*
X102461904Y-124988095D01*
X102271428Y-124988095D01*
X102176190Y-125035714D01*
X102128571Y-125083333D01*
X102080952Y-125178571D01*
X98652380Y-126892857D02*
X98176190Y-127226190D01*
X98652380Y-127464285D02*
X97652380Y-127464285D01*
X97652380Y-127083333D01*
X97700000Y-126988095D01*
X97747619Y-126940476D01*
X97842857Y-126892857D01*
X97985714Y-126892857D01*
X98080952Y-126940476D01*
X98128571Y-126988095D01*
X98176190Y-127083333D01*
X98176190Y-127464285D01*
X97652380Y-126035714D02*
X97652380Y-126226190D01*
X97700000Y-126321428D01*
X97747619Y-126369047D01*
X97890476Y-126464285D01*
X98080952Y-126511904D01*
X98461904Y-126511904D01*
X98557142Y-126464285D01*
X98604761Y-126416666D01*
X98652380Y-126321428D01*
X98652380Y-126130952D01*
X98604761Y-126035714D01*
X98557142Y-125988095D01*
X98461904Y-125940476D01*
X98223809Y-125940476D01*
X98128571Y-125988095D01*
X98080952Y-126035714D01*
X98033333Y-126130952D01*
X98033333Y-126321428D01*
X98080952Y-126416666D01*
X98128571Y-126464285D01*
X98223809Y-126511904D01*
X98652380Y-125464285D02*
X98652380Y-125273809D01*
X98604761Y-125178571D01*
X98557142Y-125130952D01*
X98414285Y-125035714D01*
X98223809Y-124988095D01*
X97842857Y-124988095D01*
X97747619Y-125035714D01*
X97700000Y-125083333D01*
X97652380Y-125178571D01*
X97652380Y-125369047D01*
X97700000Y-125464285D01*
X97747619Y-125511904D01*
X97842857Y-125559523D01*
X98080952Y-125559523D01*
X98176190Y-125511904D01*
X98223809Y-125464285D01*
X98271428Y-125369047D01*
X98271428Y-125178571D01*
X98223809Y-125083333D01*
X98176190Y-125035714D01*
X98080952Y-124988095D01*
X94652380Y-126892857D02*
X94176190Y-127226190D01*
X94652380Y-127464285D02*
X93652380Y-127464285D01*
X93652380Y-127083333D01*
X93700000Y-126988095D01*
X93747619Y-126940476D01*
X93842857Y-126892857D01*
X93985714Y-126892857D01*
X94080952Y-126940476D01*
X94128571Y-126988095D01*
X94176190Y-127083333D01*
X94176190Y-127464285D01*
X93652380Y-126559523D02*
X93652380Y-125892857D01*
X94652380Y-126321428D01*
X93652380Y-125321428D02*
X93652380Y-125226190D01*
X93700000Y-125130952D01*
X93747619Y-125083333D01*
X93842857Y-125035714D01*
X94033333Y-124988095D01*
X94271428Y-124988095D01*
X94461904Y-125035714D01*
X94557142Y-125083333D01*
X94604761Y-125130952D01*
X94652380Y-125226190D01*
X94652380Y-125321428D01*
X94604761Y-125416666D01*
X94557142Y-125464285D01*
X94461904Y-125511904D01*
X94271428Y-125559523D01*
X94033333Y-125559523D01*
X93842857Y-125511904D01*
X93747619Y-125464285D01*
X93700000Y-125416666D01*
X93652380Y-125321428D01*
X100752380Y-91392857D02*
X100276190Y-91726190D01*
X100752380Y-91964285D02*
X99752380Y-91964285D01*
X99752380Y-91583333D01*
X99800000Y-91488095D01*
X99847619Y-91440476D01*
X99942857Y-91392857D01*
X100085714Y-91392857D01*
X100180952Y-91440476D01*
X100228571Y-91488095D01*
X100276190Y-91583333D01*
X100276190Y-91964285D01*
X99752380Y-91059523D02*
X99752380Y-90392857D01*
X100752380Y-90821428D01*
X100752380Y-89488095D02*
X100752380Y-90059523D01*
X100752380Y-89773809D02*
X99752380Y-89773809D01*
X99895238Y-89869047D01*
X99990476Y-89964285D01*
X100038095Y-90059523D01*
X104752380Y-91392857D02*
X104276190Y-91726190D01*
X104752380Y-91964285D02*
X103752380Y-91964285D01*
X103752380Y-91583333D01*
X103800000Y-91488095D01*
X103847619Y-91440476D01*
X103942857Y-91392857D01*
X104085714Y-91392857D01*
X104180952Y-91440476D01*
X104228571Y-91488095D01*
X104276190Y-91583333D01*
X104276190Y-91964285D01*
X103752380Y-91059523D02*
X103752380Y-90392857D01*
X104752380Y-90821428D01*
X103847619Y-90059523D02*
X103800000Y-90011904D01*
X103752380Y-89916666D01*
X103752380Y-89678571D01*
X103800000Y-89583333D01*
X103847619Y-89535714D01*
X103942857Y-89488095D01*
X104038095Y-89488095D01*
X104180952Y-89535714D01*
X104752380Y-90107142D01*
X104752380Y-89488095D01*
X108752380Y-91392857D02*
X108276190Y-91726190D01*
X108752380Y-91964285D02*
X107752380Y-91964285D01*
X107752380Y-91583333D01*
X107800000Y-91488095D01*
X107847619Y-91440476D01*
X107942857Y-91392857D01*
X108085714Y-91392857D01*
X108180952Y-91440476D01*
X108228571Y-91488095D01*
X108276190Y-91583333D01*
X108276190Y-91964285D01*
X107752380Y-91059523D02*
X107752380Y-90392857D01*
X108752380Y-90821428D01*
X107752380Y-90107142D02*
X107752380Y-89488095D01*
X108133333Y-89821428D01*
X108133333Y-89678571D01*
X108180952Y-89583333D01*
X108228571Y-89535714D01*
X108323809Y-89488095D01*
X108561904Y-89488095D01*
X108657142Y-89535714D01*
X108704761Y-89583333D01*
X108752380Y-89678571D01*
X108752380Y-89964285D01*
X108704761Y-90059523D01*
X108657142Y-90107142D01*
X114752380Y-91392857D02*
X114276190Y-91726190D01*
X114752380Y-91964285D02*
X113752380Y-91964285D01*
X113752380Y-91583333D01*
X113800000Y-91488095D01*
X113847619Y-91440476D01*
X113942857Y-91392857D01*
X114085714Y-91392857D01*
X114180952Y-91440476D01*
X114228571Y-91488095D01*
X114276190Y-91583333D01*
X114276190Y-91964285D01*
X113752380Y-91059523D02*
X113752380Y-90392857D01*
X114752380Y-90821428D01*
X114085714Y-89583333D02*
X114752380Y-89583333D01*
X113704761Y-89821428D02*
X114419047Y-90059523D01*
X114419047Y-89440476D01*
X77752380Y-91392857D02*
X77276190Y-91726190D01*
X77752380Y-91964285D02*
X76752380Y-91964285D01*
X76752380Y-91583333D01*
X76800000Y-91488095D01*
X76847619Y-91440476D01*
X76942857Y-91392857D01*
X77085714Y-91392857D01*
X77180952Y-91440476D01*
X77228571Y-91488095D01*
X77276190Y-91583333D01*
X77276190Y-91964285D01*
X76752380Y-91059523D02*
X76752380Y-90392857D01*
X77752380Y-90821428D01*
X76752380Y-89535714D02*
X76752380Y-90011904D01*
X77228571Y-90059523D01*
X77180952Y-90011904D01*
X77133333Y-89916666D01*
X77133333Y-89678571D01*
X77180952Y-89583333D01*
X77228571Y-89535714D01*
X77323809Y-89488095D01*
X77561904Y-89488095D01*
X77657142Y-89535714D01*
X77704761Y-89583333D01*
X77752380Y-89678571D01*
X77752380Y-89916666D01*
X77704761Y-90011904D01*
X77657142Y-90059523D01*
X81702380Y-91392857D02*
X81226190Y-91726190D01*
X81702380Y-91964285D02*
X80702380Y-91964285D01*
X80702380Y-91583333D01*
X80750000Y-91488095D01*
X80797619Y-91440476D01*
X80892857Y-91392857D01*
X81035714Y-91392857D01*
X81130952Y-91440476D01*
X81178571Y-91488095D01*
X81226190Y-91583333D01*
X81226190Y-91964285D01*
X80702380Y-91059523D02*
X80702380Y-90392857D01*
X81702380Y-90821428D01*
X80702380Y-89583333D02*
X80702380Y-89773809D01*
X80750000Y-89869047D01*
X80797619Y-89916666D01*
X80940476Y-90011904D01*
X81130952Y-90059523D01*
X81511904Y-90059523D01*
X81607142Y-90011904D01*
X81654761Y-89964285D01*
X81702380Y-89869047D01*
X81702380Y-89678571D01*
X81654761Y-89583333D01*
X81607142Y-89535714D01*
X81511904Y-89488095D01*
X81273809Y-89488095D01*
X81178571Y-89535714D01*
X81130952Y-89583333D01*
X81083333Y-89678571D01*
X81083333Y-89869047D01*
X81130952Y-89964285D01*
X81178571Y-90011904D01*
X81273809Y-90059523D01*
X85752380Y-91392857D02*
X85276190Y-91726190D01*
X85752380Y-91964285D02*
X84752380Y-91964285D01*
X84752380Y-91583333D01*
X84800000Y-91488095D01*
X84847619Y-91440476D01*
X84942857Y-91392857D01*
X85085714Y-91392857D01*
X85180952Y-91440476D01*
X85228571Y-91488095D01*
X85276190Y-91583333D01*
X85276190Y-91964285D01*
X84752380Y-91059523D02*
X84752380Y-90392857D01*
X85752380Y-90821428D01*
X84752380Y-90107142D02*
X84752380Y-89440476D01*
X85752380Y-89869047D01*
X91752380Y-91392857D02*
X91276190Y-91726190D01*
X91752380Y-91964285D02*
X90752380Y-91964285D01*
X90752380Y-91583333D01*
X90800000Y-91488095D01*
X90847619Y-91440476D01*
X90942857Y-91392857D01*
X91085714Y-91392857D01*
X91180952Y-91440476D01*
X91228571Y-91488095D01*
X91276190Y-91583333D01*
X91276190Y-91964285D01*
X90752380Y-91059523D02*
X90752380Y-90392857D01*
X91752380Y-90821428D01*
X91180952Y-89869047D02*
X91133333Y-89964285D01*
X91085714Y-90011904D01*
X90990476Y-90059523D01*
X90942857Y-90059523D01*
X90847619Y-90011904D01*
X90800000Y-89964285D01*
X90752380Y-89869047D01*
X90752380Y-89678571D01*
X90800000Y-89583333D01*
X90847619Y-89535714D01*
X90942857Y-89488095D01*
X90990476Y-89488095D01*
X91085714Y-89535714D01*
X91133333Y-89583333D01*
X91180952Y-89678571D01*
X91180952Y-89869047D01*
X91228571Y-89964285D01*
X91276190Y-90011904D01*
X91371428Y-90059523D01*
X91561904Y-90059523D01*
X91657142Y-90011904D01*
X91704761Y-89964285D01*
X91752380Y-89869047D01*
X91752380Y-89678571D01*
X91704761Y-89583333D01*
X91657142Y-89535714D01*
X91561904Y-89488095D01*
X91371428Y-89488095D01*
X91276190Y-89535714D01*
X91228571Y-89583333D01*
X91180952Y-89678571D01*
X43790476Y-103602380D02*
X44457142Y-104602380D01*
X44457142Y-103602380D02*
X43790476Y-104602380D01*
X44790476Y-103697619D02*
X44838095Y-103650000D01*
X44933333Y-103602380D01*
X45171428Y-103602380D01*
X45266666Y-103650000D01*
X45314285Y-103697619D01*
X45361904Y-103792857D01*
X45361904Y-103888095D01*
X45314285Y-104030952D01*
X44742857Y-104602380D01*
X45361904Y-104602380D01*
D15*
X37043619Y-109838666D02*
X37769333Y-109838666D01*
X37914476Y-109887047D01*
X38011238Y-109983809D01*
X38059619Y-110128952D01*
X38059619Y-110225714D01*
X38059619Y-108822666D02*
X38059619Y-109403238D01*
X38059619Y-109112952D02*
X37043619Y-109112952D01*
X37188761Y-109209714D01*
X37285523Y-109306476D01*
X37333904Y-109403238D01*
D11*
X45166666Y-87602380D02*
X45166666Y-88316666D01*
X45119047Y-88459523D01*
X45023809Y-88554761D01*
X44880952Y-88602380D01*
X44785714Y-88602380D01*
X45595238Y-87697619D02*
X45642857Y-87650000D01*
X45738095Y-87602380D01*
X45976190Y-87602380D01*
X46071428Y-87650000D01*
X46119047Y-87697619D01*
X46166666Y-87792857D01*
X46166666Y-87888095D01*
X46119047Y-88030952D01*
X45547619Y-88602380D01*
X46166666Y-88602380D01*
X47738095Y-99202380D02*
X47738095Y-100011904D01*
X47785714Y-100107142D01*
X47833333Y-100154761D01*
X47928571Y-100202380D01*
X48119047Y-100202380D01*
X48214285Y-100154761D01*
X48261904Y-100107142D01*
X48309523Y-100011904D01*
X48309523Y-99202380D01*
X48738095Y-99297619D02*
X48785714Y-99250000D01*
X48880952Y-99202380D01*
X49119047Y-99202380D01*
X49214285Y-99250000D01*
X49261904Y-99297619D01*
X49309523Y-99392857D01*
X49309523Y-99488095D01*
X49261904Y-99630952D01*
X48690476Y-100202380D01*
X49309523Y-100202380D01*
X108238095Y-97952380D02*
X108238095Y-98761904D01*
X108285714Y-98857142D01*
X108333333Y-98904761D01*
X108428571Y-98952380D01*
X108619047Y-98952380D01*
X108714285Y-98904761D01*
X108761904Y-98857142D01*
X108809523Y-98761904D01*
X108809523Y-97952380D01*
X109714285Y-97952380D02*
X109523809Y-97952380D01*
X109428571Y-98000000D01*
X109380952Y-98047619D01*
X109285714Y-98190476D01*
X109238095Y-98380952D01*
X109238095Y-98761904D01*
X109285714Y-98857142D01*
X109333333Y-98904761D01*
X109428571Y-98952380D01*
X109619047Y-98952380D01*
X109714285Y-98904761D01*
X109761904Y-98857142D01*
X109809523Y-98761904D01*
X109809523Y-98523809D01*
X109761904Y-98428571D01*
X109714285Y-98380952D01*
X109619047Y-98333333D01*
X109428571Y-98333333D01*
X109333333Y-98380952D01*
X109285714Y-98428571D01*
X109238095Y-98523809D01*
X71040355Y-96185194D02*
X72218866Y-96420896D01*
X71511759Y-95713790D02*
X71747461Y-96892301D01*
X72858629Y-95781133D02*
X72454568Y-96185194D01*
X72656599Y-95983164D02*
X71949492Y-95276057D01*
X71983164Y-95444416D01*
X71983164Y-95579103D01*
X71949492Y-95680118D01*
X68238095Y-133952380D02*
X68238095Y-134666666D01*
X68190476Y-134809523D01*
X68095238Y-134904761D01*
X67952380Y-134952380D01*
X67857142Y-134952380D01*
X68666666Y-134666666D02*
X69142857Y-134666666D01*
X68571428Y-134952380D02*
X68904761Y-133952380D01*
X69238095Y-134952380D01*
X70095238Y-134952380D02*
X69523809Y-134952380D01*
X69809523Y-134952380D02*
X69809523Y-133952380D01*
X69714285Y-134095238D01*
X69619047Y-134190476D01*
X69523809Y-134238095D01*
X90866666Y-133952380D02*
X90866666Y-134666666D01*
X90819047Y-134809523D01*
X90723809Y-134904761D01*
X90580952Y-134952380D01*
X90485714Y-134952380D01*
X91676190Y-134428571D02*
X91819047Y-134476190D01*
X91866666Y-134523809D01*
X91914285Y-134619047D01*
X91914285Y-134761904D01*
X91866666Y-134857142D01*
X91819047Y-134904761D01*
X91723809Y-134952380D01*
X91342857Y-134952380D01*
X91342857Y-133952380D01*
X91676190Y-133952380D01*
X91771428Y-134000000D01*
X91819047Y-134047619D01*
X91866666Y-134142857D01*
X91866666Y-134238095D01*
X91819047Y-134333333D01*
X91771428Y-134380952D01*
X91676190Y-134428571D01*
X91342857Y-134428571D01*
X92866666Y-134952380D02*
X92295238Y-134952380D01*
X92580952Y-134952380D02*
X92580952Y-133952380D01*
X92485714Y-134095238D01*
X92390476Y-134190476D01*
X92295238Y-134238095D01*
X69866666Y-81952380D02*
X69866666Y-82666666D01*
X69819047Y-82809523D01*
X69723809Y-82904761D01*
X69580952Y-82952380D01*
X69485714Y-82952380D01*
X70914285Y-82857142D02*
X70866666Y-82904761D01*
X70723809Y-82952380D01*
X70628571Y-82952380D01*
X70485714Y-82904761D01*
X70390476Y-82809523D01*
X70342857Y-82714285D01*
X70295238Y-82523809D01*
X70295238Y-82380952D01*
X70342857Y-82190476D01*
X70390476Y-82095238D01*
X70485714Y-82000000D01*
X70628571Y-81952380D01*
X70723809Y-81952380D01*
X70866666Y-82000000D01*
X70914285Y-82047619D01*
X71866666Y-82952380D02*
X71295238Y-82952380D01*
X71580952Y-82952380D02*
X71580952Y-81952380D01*
X71485714Y-82095238D01*
X71390476Y-82190476D01*
X71295238Y-82238095D01*
X74166666Y-81952380D02*
X74166666Y-82666666D01*
X74119047Y-82809523D01*
X74023809Y-82904761D01*
X73880952Y-82952380D01*
X73785714Y-82952380D01*
X74642857Y-82952380D02*
X74642857Y-81952380D01*
X74880952Y-81952380D01*
X75023809Y-82000000D01*
X75119047Y-82095238D01*
X75166666Y-82190476D01*
X75214285Y-82380952D01*
X75214285Y-82523809D01*
X75166666Y-82714285D01*
X75119047Y-82809523D01*
X75023809Y-82904761D01*
X74880952Y-82952380D01*
X74642857Y-82952380D01*
X76166666Y-82952380D02*
X75595238Y-82952380D01*
X75880952Y-82952380D02*
X75880952Y-81952380D01*
X75785714Y-82095238D01*
X75690476Y-82190476D01*
X75595238Y-82238095D01*
X97014285Y-81952380D02*
X97014285Y-82666666D01*
X96966666Y-82809523D01*
X96871428Y-82904761D01*
X96728571Y-82952380D01*
X96633333Y-82952380D01*
X97490476Y-82428571D02*
X97823809Y-82428571D01*
X97966666Y-82952380D02*
X97490476Y-82952380D01*
X97490476Y-81952380D01*
X97966666Y-81952380D01*
X98919047Y-82952380D02*
X98347619Y-82952380D01*
X98633333Y-82952380D02*
X98633333Y-81952380D01*
X98538095Y-82095238D01*
X98442857Y-82190476D01*
X98347619Y-82238095D01*
X37964285Y-90178571D02*
X38107142Y-90226190D01*
X38154761Y-90273809D01*
X38202380Y-90369047D01*
X38202380Y-90511904D01*
X38154761Y-90607142D01*
X38107142Y-90654761D01*
X38011904Y-90702380D01*
X37630952Y-90702380D01*
X37630952Y-89702380D01*
X37964285Y-89702380D01*
X38059523Y-89750000D01*
X38107142Y-89797619D01*
X38154761Y-89892857D01*
X38154761Y-89988095D01*
X38107142Y-90083333D01*
X38059523Y-90130952D01*
X37964285Y-90178571D01*
X37630952Y-90178571D01*
X38488095Y-89702380D02*
X39059523Y-89702380D01*
X38773809Y-90702380D02*
X38773809Y-89702380D01*
X39916666Y-90702380D02*
X39345238Y-90702380D01*
X39630952Y-90702380D02*
X39630952Y-89702380D01*
X39535714Y-89845238D01*
X39440476Y-89940476D01*
X39345238Y-89988095D01*
X39083333Y-119357142D02*
X39035714Y-119404761D01*
X38892857Y-119452380D01*
X38797619Y-119452380D01*
X38654761Y-119404761D01*
X38559523Y-119309523D01*
X38511904Y-119214285D01*
X38464285Y-119023809D01*
X38464285Y-118880952D01*
X38511904Y-118690476D01*
X38559523Y-118595238D01*
X38654761Y-118500000D01*
X38797619Y-118452380D01*
X38892857Y-118452380D01*
X39035714Y-118500000D01*
X39083333Y-118547619D01*
X40083333Y-119452380D02*
X39750000Y-118976190D01*
X39511904Y-119452380D02*
X39511904Y-118452380D01*
X39892857Y-118452380D01*
X39988095Y-118500000D01*
X40035714Y-118547619D01*
X40083333Y-118642857D01*
X40083333Y-118785714D01*
X40035714Y-118880952D01*
X39988095Y-118928571D01*
X39892857Y-118976190D01*
X39511904Y-118976190D01*
X41035714Y-119452380D02*
X40464285Y-119452380D01*
X40750000Y-119452380D02*
X40750000Y-118452380D01*
X40654761Y-118595238D01*
X40559523Y-118690476D01*
X40464285Y-118738095D01*
X39133333Y-110607142D02*
X39085714Y-110654761D01*
X38942857Y-110702380D01*
X38847619Y-110702380D01*
X38704761Y-110654761D01*
X38609523Y-110559523D01*
X38561904Y-110464285D01*
X38514285Y-110273809D01*
X38514285Y-110130952D01*
X38561904Y-109940476D01*
X38609523Y-109845238D01*
X38704761Y-109750000D01*
X38847619Y-109702380D01*
X38942857Y-109702380D01*
X39085714Y-109750000D01*
X39133333Y-109797619D01*
X40133333Y-110702380D02*
X39800000Y-110226190D01*
X39561904Y-110702380D02*
X39561904Y-109702380D01*
X39942857Y-109702380D01*
X40038095Y-109750000D01*
X40085714Y-109797619D01*
X40133333Y-109892857D01*
X40133333Y-110035714D01*
X40085714Y-110130952D01*
X40038095Y-110178571D01*
X39942857Y-110226190D01*
X39561904Y-110226190D01*
X40514285Y-109797619D02*
X40561904Y-109750000D01*
X40657142Y-109702380D01*
X40895238Y-109702380D01*
X40990476Y-109750000D01*
X41038095Y-109797619D01*
X41085714Y-109892857D01*
X41085714Y-109988095D01*
X41038095Y-110130952D01*
X40466666Y-110702380D01*
X41085714Y-110702380D01*
X34802380Y-103038095D02*
X33802380Y-103038095D01*
X33802380Y-102657142D01*
X33850000Y-102561904D01*
X33897619Y-102514285D01*
X33992857Y-102466666D01*
X34135714Y-102466666D01*
X34230952Y-102514285D01*
X34278571Y-102561904D01*
X34326190Y-102657142D01*
X34326190Y-103038095D01*
X33802380Y-102133333D02*
X33802380Y-101514285D01*
X34183333Y-101847619D01*
X34183333Y-101704761D01*
X34230952Y-101609523D01*
X34278571Y-101561904D01*
X34373809Y-101514285D01*
X34611904Y-101514285D01*
X34707142Y-101561904D01*
X34754761Y-101609523D01*
X34802380Y-101704761D01*
X34802380Y-101990476D01*
X34754761Y-102085714D01*
X34707142Y-102133333D01*
X116904761Y-88833333D02*
X116952380Y-88690476D01*
X116952380Y-88452380D01*
X116904761Y-88357142D01*
X116857142Y-88309523D01*
X116761904Y-88261904D01*
X116666666Y-88261904D01*
X116571428Y-88309523D01*
X116523809Y-88357142D01*
X116476190Y-88452380D01*
X116428571Y-88642857D01*
X116380952Y-88738095D01*
X116333333Y-88785714D01*
X116238095Y-88833333D01*
X116142857Y-88833333D01*
X116047619Y-88785714D01*
X116000000Y-88738095D01*
X115952380Y-88642857D01*
X115952380Y-88404761D01*
X116000000Y-88261904D01*
X115952380Y-87928571D02*
X116952380Y-87690476D01*
X116238095Y-87500000D01*
X116952380Y-87309523D01*
X115952380Y-87071428D01*
X116047619Y-86738095D02*
X116000000Y-86690476D01*
X115952380Y-86595238D01*
X115952380Y-86357142D01*
X116000000Y-86261904D01*
X116047619Y-86214285D01*
X116142857Y-86166666D01*
X116238095Y-86166666D01*
X116380952Y-86214285D01*
X116952380Y-86785714D01*
X116952380Y-86166666D01*
X70278571Y-87959523D02*
X70326190Y-87816666D01*
X70373809Y-87769047D01*
X70469047Y-87721428D01*
X70611904Y-87721428D01*
X70707142Y-87769047D01*
X70754761Y-87816666D01*
X70802380Y-87911904D01*
X70802380Y-88292857D01*
X69802380Y-88292857D01*
X69802380Y-87959523D01*
X69850000Y-87864285D01*
X69897619Y-87816666D01*
X69992857Y-87769047D01*
X70088095Y-87769047D01*
X70183333Y-87816666D01*
X70230952Y-87864285D01*
X70278571Y-87959523D01*
X70278571Y-88292857D01*
X69802380Y-87435714D02*
X69802380Y-86864285D01*
X70802380Y-87150000D02*
X69802380Y-87150000D01*
X70802380Y-86530952D02*
X69802380Y-86530952D01*
X70802380Y-85959523D01*
X69802380Y-85959523D01*
X70802380Y-84959523D02*
X70802380Y-85530952D01*
X70802380Y-85245238D02*
X69802380Y-85245238D01*
X69945238Y-85340476D01*
X70040476Y-85435714D01*
X70088095Y-85530952D01*
X115390476Y-134218571D02*
X115533333Y-134266190D01*
X115580952Y-134313809D01*
X115628571Y-134409047D01*
X115628571Y-134551904D01*
X115580952Y-134647142D01*
X115533333Y-134694761D01*
X115438095Y-134742380D01*
X115057142Y-134742380D01*
X115057142Y-133742380D01*
X115390476Y-133742380D01*
X115485714Y-133790000D01*
X115533333Y-133837619D01*
X115580952Y-133932857D01*
X115580952Y-134028095D01*
X115533333Y-134123333D01*
X115485714Y-134170952D01*
X115390476Y-134218571D01*
X115057142Y-134218571D01*
X115914285Y-133742380D02*
X116485714Y-133742380D01*
X116200000Y-134742380D02*
X116200000Y-133742380D01*
X116819047Y-134742380D02*
X116819047Y-133742380D01*
X117390476Y-134742380D01*
X117390476Y-133742380D01*
X117819047Y-133837619D02*
X117866666Y-133790000D01*
X117961904Y-133742380D01*
X118200000Y-133742380D01*
X118295238Y-133790000D01*
X118342857Y-133837619D01*
X118390476Y-133932857D01*
X118390476Y-134028095D01*
X118342857Y-134170952D01*
X117771428Y-134742380D01*
X118390476Y-134742380D01*
X115440476Y-123928571D02*
X115583333Y-123976190D01*
X115630952Y-124023809D01*
X115678571Y-124119047D01*
X115678571Y-124261904D01*
X115630952Y-124357142D01*
X115583333Y-124404761D01*
X115488095Y-124452380D01*
X115107142Y-124452380D01*
X115107142Y-123452380D01*
X115440476Y-123452380D01*
X115535714Y-123500000D01*
X115583333Y-123547619D01*
X115630952Y-123642857D01*
X115630952Y-123738095D01*
X115583333Y-123833333D01*
X115535714Y-123880952D01*
X115440476Y-123928571D01*
X115107142Y-123928571D01*
X115964285Y-123452380D02*
X116535714Y-123452380D01*
X116250000Y-124452380D02*
X116250000Y-123452380D01*
X116869047Y-124452380D02*
X116869047Y-123452380D01*
X117440476Y-124452380D01*
X117440476Y-123452380D01*
X117821428Y-123452380D02*
X118440476Y-123452380D01*
X118107142Y-123833333D01*
X118250000Y-123833333D01*
X118345238Y-123880952D01*
X118392857Y-123928571D01*
X118440476Y-124023809D01*
X118440476Y-124261904D01*
X118392857Y-124357142D01*
X118345238Y-124404761D01*
X118250000Y-124452380D01*
X117964285Y-124452380D01*
X117869047Y-124404761D01*
X117821428Y-124357142D01*
X36804761Y-85483333D02*
X36852380Y-85340476D01*
X36852380Y-85102380D01*
X36804761Y-85007142D01*
X36757142Y-84959523D01*
X36661904Y-84911904D01*
X36566666Y-84911904D01*
X36471428Y-84959523D01*
X36423809Y-85007142D01*
X36376190Y-85102380D01*
X36328571Y-85292857D01*
X36280952Y-85388095D01*
X36233333Y-85435714D01*
X36138095Y-85483333D01*
X36042857Y-85483333D01*
X35947619Y-85435714D01*
X35900000Y-85388095D01*
X35852380Y-85292857D01*
X35852380Y-85054761D01*
X35900000Y-84911904D01*
X35852380Y-84578571D02*
X36852380Y-84340476D01*
X36138095Y-84150000D01*
X36852380Y-83959523D01*
X35852380Y-83721428D01*
X36852380Y-82816666D02*
X36852380Y-83388095D01*
X36852380Y-83102380D02*
X35852380Y-83102380D01*
X35995238Y-83197619D01*
X36090476Y-83292857D01*
X36138095Y-83388095D01*
%LPC*%
D16*
X97647161Y-107227208D03*
D10*
G36*
X98071425Y-106343325D02*
X98531044Y-106802944D01*
X97222897Y-108111091D01*
X96763278Y-107651472D01*
X98071425Y-106343325D01*
X98071425Y-106343325D01*
G37*
D16*
X97293607Y-106873654D03*
D10*
G36*
X97717871Y-105989771D02*
X98177490Y-106449390D01*
X96869343Y-107757537D01*
X96409724Y-107297918D01*
X97717871Y-105989771D01*
X97717871Y-105989771D01*
G37*
D16*
X96940054Y-106520101D03*
D10*
G36*
X97364318Y-105636218D02*
X97823937Y-106095837D01*
X96515790Y-107403984D01*
X96056171Y-106944365D01*
X97364318Y-105636218D01*
X97364318Y-105636218D01*
G37*
D16*
X96586501Y-106166548D03*
D10*
G36*
X97010765Y-105282665D02*
X97470384Y-105742284D01*
X96162237Y-107050431D01*
X95702618Y-106590812D01*
X97010765Y-105282665D01*
X97010765Y-105282665D01*
G37*
D16*
X96232947Y-105812994D03*
D10*
G36*
X96657211Y-104929111D02*
X97116830Y-105388730D01*
X95808683Y-106696877D01*
X95349064Y-106237258D01*
X96657211Y-104929111D01*
X96657211Y-104929111D01*
G37*
D16*
X95879394Y-105459441D03*
D10*
G36*
X96303658Y-104575558D02*
X96763277Y-105035177D01*
X95455130Y-106343324D01*
X94995511Y-105883705D01*
X96303658Y-104575558D01*
X96303658Y-104575558D01*
G37*
D16*
X95525841Y-105105887D03*
D10*
G36*
X95950105Y-104222004D02*
X96409724Y-104681623D01*
X95101577Y-105989770D01*
X94641958Y-105530151D01*
X95950105Y-104222004D01*
X95950105Y-104222004D01*
G37*
D16*
X95172287Y-104752334D03*
D10*
G36*
X95596551Y-103868451D02*
X96056170Y-104328070D01*
X94748023Y-105636217D01*
X94288404Y-105176598D01*
X95596551Y-103868451D01*
X95596551Y-103868451D01*
G37*
D16*
X94818734Y-104398781D03*
D10*
G36*
X95242998Y-103514898D02*
X95702617Y-103974517D01*
X94394470Y-105282664D01*
X93934851Y-104823045D01*
X95242998Y-103514898D01*
X95242998Y-103514898D01*
G37*
D16*
X94465180Y-104045227D03*
D10*
G36*
X94889444Y-103161344D02*
X95349063Y-103620963D01*
X94040916Y-104929110D01*
X93581297Y-104469491D01*
X94889444Y-103161344D01*
X94889444Y-103161344D01*
G37*
D16*
X94111627Y-103691674D03*
D10*
G36*
X94535891Y-102807791D02*
X94995510Y-103267410D01*
X93687363Y-104575557D01*
X93227744Y-104115938D01*
X94535891Y-102807791D01*
X94535891Y-102807791D01*
G37*
D16*
X93758074Y-103338120D03*
D10*
G36*
X94182338Y-102454237D02*
X94641957Y-102913856D01*
X93333810Y-104222003D01*
X92874191Y-103762384D01*
X94182338Y-102454237D01*
X94182338Y-102454237D01*
G37*
D16*
X93404520Y-102984567D03*
D10*
G36*
X93828784Y-102100684D02*
X94288403Y-102560303D01*
X92980256Y-103868450D01*
X92520637Y-103408831D01*
X93828784Y-102100684D01*
X93828784Y-102100684D01*
G37*
D16*
X93050967Y-102631014D03*
D10*
G36*
X93475231Y-101747131D02*
X93934850Y-102206750D01*
X92626703Y-103514897D01*
X92167084Y-103055278D01*
X93475231Y-101747131D01*
X93475231Y-101747131D01*
G37*
D16*
X92697413Y-102277460D03*
D10*
G36*
X93121677Y-101393577D02*
X93581296Y-101853196D01*
X92273149Y-103161343D01*
X91813530Y-102701724D01*
X93121677Y-101393577D01*
X93121677Y-101393577D01*
G37*
D16*
X92343860Y-101923907D03*
D10*
G36*
X92768124Y-101040024D02*
X93227743Y-101499643D01*
X91919596Y-102807790D01*
X91459977Y-102348171D01*
X92768124Y-101040024D01*
X92768124Y-101040024D01*
G37*
D16*
X91990307Y-101570354D03*
D10*
G36*
X92414571Y-100686471D02*
X92874190Y-101146090D01*
X91566043Y-102454237D01*
X91106424Y-101994618D01*
X92414571Y-100686471D01*
X92414571Y-100686471D01*
G37*
D16*
X91636753Y-101216800D03*
D10*
G36*
X92061017Y-100332917D02*
X92520636Y-100792536D01*
X91212489Y-102100683D01*
X90752870Y-101641064D01*
X92061017Y-100332917D01*
X92061017Y-100332917D01*
G37*
D16*
X91283200Y-100863247D03*
D10*
G36*
X91707464Y-99979364D02*
X92167083Y-100438983D01*
X90858936Y-101747130D01*
X90399317Y-101287511D01*
X91707464Y-99979364D01*
X91707464Y-99979364D01*
G37*
D16*
X90929646Y-100509693D03*
D10*
G36*
X91353910Y-99625810D02*
X91813529Y-100085429D01*
X90505382Y-101393576D01*
X90045763Y-100933957D01*
X91353910Y-99625810D01*
X91353910Y-99625810D01*
G37*
D16*
X90576093Y-100156140D03*
D10*
G36*
X91000357Y-99272257D02*
X91459976Y-99731876D01*
X90151829Y-101040023D01*
X89692210Y-100580404D01*
X91000357Y-99272257D01*
X91000357Y-99272257D01*
G37*
D16*
X90222540Y-99802587D03*
D10*
G36*
X90646804Y-98918704D02*
X91106423Y-99378323D01*
X89798276Y-100686470D01*
X89338657Y-100226851D01*
X90646804Y-98918704D01*
X90646804Y-98918704D01*
G37*
D16*
X89868986Y-99449033D03*
D10*
G36*
X90293250Y-98565150D02*
X90752869Y-99024769D01*
X89444722Y-100332916D01*
X88985103Y-99873297D01*
X90293250Y-98565150D01*
X90293250Y-98565150D01*
G37*
D16*
X89515433Y-99095480D03*
D10*
G36*
X89939697Y-98211597D02*
X90399316Y-98671216D01*
X89091169Y-99979363D01*
X88631550Y-99519744D01*
X89939697Y-98211597D01*
X89939697Y-98211597D01*
G37*
D16*
X89161880Y-98741926D03*
D10*
G36*
X89586144Y-97858043D02*
X90045763Y-98317662D01*
X88737616Y-99625809D01*
X88277997Y-99166190D01*
X89586144Y-97858043D01*
X89586144Y-97858043D01*
G37*
D16*
X88808326Y-98388373D03*
D10*
G36*
X89232590Y-97504490D02*
X89692209Y-97964109D01*
X88384062Y-99272256D01*
X87924443Y-98812637D01*
X89232590Y-97504490D01*
X89232590Y-97504490D01*
G37*
D16*
X88454773Y-98034820D03*
D10*
G36*
X88879037Y-97150937D02*
X89338656Y-97610556D01*
X88030509Y-98918703D01*
X87570890Y-98459084D01*
X88879037Y-97150937D01*
X88879037Y-97150937D01*
G37*
D16*
X88101219Y-97681266D03*
D10*
G36*
X88525483Y-96797383D02*
X88985102Y-97257002D01*
X87676955Y-98565149D01*
X87217336Y-98105530D01*
X88525483Y-96797383D01*
X88525483Y-96797383D01*
G37*
D16*
X87747666Y-97327713D03*
D10*
G36*
X88171930Y-96443830D02*
X88631549Y-96903449D01*
X87323402Y-98211596D01*
X86863783Y-97751977D01*
X88171930Y-96443830D01*
X88171930Y-96443830D01*
G37*
D16*
X87394113Y-96974159D03*
D10*
G36*
X87818377Y-96090276D02*
X88277996Y-96549895D01*
X86969849Y-97858042D01*
X86510230Y-97398423D01*
X87818377Y-96090276D01*
X87818377Y-96090276D01*
G37*
D16*
X87040559Y-96620606D03*
D10*
G36*
X87464823Y-95736723D02*
X87924442Y-96196342D01*
X86616295Y-97504489D01*
X86156676Y-97044870D01*
X87464823Y-95736723D01*
X87464823Y-95736723D01*
G37*
D16*
X86687006Y-96267053D03*
D10*
G36*
X87111270Y-95383170D02*
X87570889Y-95842789D01*
X86262742Y-97150936D01*
X85803123Y-96691317D01*
X87111270Y-95383170D01*
X87111270Y-95383170D01*
G37*
D16*
X86333452Y-95913499D03*
D10*
G36*
X86757716Y-95029616D02*
X87217335Y-95489235D01*
X85909188Y-96797382D01*
X85449569Y-96337763D01*
X86757716Y-95029616D01*
X86757716Y-95029616D01*
G37*
D16*
X85979899Y-95559946D03*
D10*
G36*
X86404163Y-94676063D02*
X86863782Y-95135682D01*
X85555635Y-96443829D01*
X85096016Y-95984210D01*
X86404163Y-94676063D01*
X86404163Y-94676063D01*
G37*
D16*
X85626346Y-95206393D03*
D10*
G36*
X86050610Y-94322510D02*
X86510229Y-94782129D01*
X85202082Y-96090276D01*
X84742463Y-95630657D01*
X86050610Y-94322510D01*
X86050610Y-94322510D01*
G37*
D16*
X85272792Y-94852839D03*
D10*
G36*
X85697056Y-93968956D02*
X86156675Y-94428575D01*
X84848528Y-95736722D01*
X84388909Y-95277103D01*
X85697056Y-93968956D01*
X85697056Y-93968956D01*
G37*
D16*
X82727208Y-94852839D03*
D10*
G36*
X81843325Y-94428575D02*
X82302944Y-93968956D01*
X83611091Y-95277103D01*
X83151472Y-95736722D01*
X81843325Y-94428575D01*
X81843325Y-94428575D01*
G37*
D16*
X82373654Y-95206393D03*
D10*
G36*
X81489771Y-94782129D02*
X81949390Y-94322510D01*
X83257537Y-95630657D01*
X82797918Y-96090276D01*
X81489771Y-94782129D01*
X81489771Y-94782129D01*
G37*
D16*
X82020101Y-95559946D03*
D10*
G36*
X81136218Y-95135682D02*
X81595837Y-94676063D01*
X82903984Y-95984210D01*
X82444365Y-96443829D01*
X81136218Y-95135682D01*
X81136218Y-95135682D01*
G37*
D16*
X81666548Y-95913499D03*
D10*
G36*
X80782665Y-95489235D02*
X81242284Y-95029616D01*
X82550431Y-96337763D01*
X82090812Y-96797382D01*
X80782665Y-95489235D01*
X80782665Y-95489235D01*
G37*
D16*
X81312994Y-96267053D03*
D10*
G36*
X80429111Y-95842789D02*
X80888730Y-95383170D01*
X82196877Y-96691317D01*
X81737258Y-97150936D01*
X80429111Y-95842789D01*
X80429111Y-95842789D01*
G37*
D16*
X80959441Y-96620606D03*
D10*
G36*
X80075558Y-96196342D02*
X80535177Y-95736723D01*
X81843324Y-97044870D01*
X81383705Y-97504489D01*
X80075558Y-96196342D01*
X80075558Y-96196342D01*
G37*
D16*
X80605887Y-96974159D03*
D10*
G36*
X79722004Y-96549895D02*
X80181623Y-96090276D01*
X81489770Y-97398423D01*
X81030151Y-97858042D01*
X79722004Y-96549895D01*
X79722004Y-96549895D01*
G37*
D16*
X80252334Y-97327713D03*
D10*
G36*
X79368451Y-96903449D02*
X79828070Y-96443830D01*
X81136217Y-97751977D01*
X80676598Y-98211596D01*
X79368451Y-96903449D01*
X79368451Y-96903449D01*
G37*
D16*
X79898781Y-97681266D03*
D10*
G36*
X79014898Y-97257002D02*
X79474517Y-96797383D01*
X80782664Y-98105530D01*
X80323045Y-98565149D01*
X79014898Y-97257002D01*
X79014898Y-97257002D01*
G37*
D16*
X79545227Y-98034820D03*
D10*
G36*
X78661344Y-97610556D02*
X79120963Y-97150937D01*
X80429110Y-98459084D01*
X79969491Y-98918703D01*
X78661344Y-97610556D01*
X78661344Y-97610556D01*
G37*
D16*
X79191674Y-98388373D03*
D10*
G36*
X78307791Y-97964109D02*
X78767410Y-97504490D01*
X80075557Y-98812637D01*
X79615938Y-99272256D01*
X78307791Y-97964109D01*
X78307791Y-97964109D01*
G37*
D16*
X78838120Y-98741926D03*
D10*
G36*
X77954237Y-98317662D02*
X78413856Y-97858043D01*
X79722003Y-99166190D01*
X79262384Y-99625809D01*
X77954237Y-98317662D01*
X77954237Y-98317662D01*
G37*
D16*
X78484567Y-99095480D03*
D10*
G36*
X77600684Y-98671216D02*
X78060303Y-98211597D01*
X79368450Y-99519744D01*
X78908831Y-99979363D01*
X77600684Y-98671216D01*
X77600684Y-98671216D01*
G37*
D16*
X78131014Y-99449033D03*
D10*
G36*
X77247131Y-99024769D02*
X77706750Y-98565150D01*
X79014897Y-99873297D01*
X78555278Y-100332916D01*
X77247131Y-99024769D01*
X77247131Y-99024769D01*
G37*
D16*
X77777460Y-99802587D03*
D10*
G36*
X76893577Y-99378323D02*
X77353196Y-98918704D01*
X78661343Y-100226851D01*
X78201724Y-100686470D01*
X76893577Y-99378323D01*
X76893577Y-99378323D01*
G37*
D16*
X77423907Y-100156140D03*
D10*
G36*
X76540024Y-99731876D02*
X76999643Y-99272257D01*
X78307790Y-100580404D01*
X77848171Y-101040023D01*
X76540024Y-99731876D01*
X76540024Y-99731876D01*
G37*
D16*
X77070354Y-100509693D03*
D10*
G36*
X76186471Y-100085429D02*
X76646090Y-99625810D01*
X77954237Y-100933957D01*
X77494618Y-101393576D01*
X76186471Y-100085429D01*
X76186471Y-100085429D01*
G37*
D16*
X76716800Y-100863247D03*
D10*
G36*
X75832917Y-100438983D02*
X76292536Y-99979364D01*
X77600683Y-101287511D01*
X77141064Y-101747130D01*
X75832917Y-100438983D01*
X75832917Y-100438983D01*
G37*
D16*
X76363247Y-101216800D03*
D10*
G36*
X75479364Y-100792536D02*
X75938983Y-100332917D01*
X77247130Y-101641064D01*
X76787511Y-102100683D01*
X75479364Y-100792536D01*
X75479364Y-100792536D01*
G37*
D16*
X76009693Y-101570354D03*
D10*
G36*
X75125810Y-101146090D02*
X75585429Y-100686471D01*
X76893576Y-101994618D01*
X76433957Y-102454237D01*
X75125810Y-101146090D01*
X75125810Y-101146090D01*
G37*
D16*
X75656140Y-101923907D03*
D10*
G36*
X74772257Y-101499643D02*
X75231876Y-101040024D01*
X76540023Y-102348171D01*
X76080404Y-102807790D01*
X74772257Y-101499643D01*
X74772257Y-101499643D01*
G37*
D16*
X75302587Y-102277460D03*
D10*
G36*
X74418704Y-101853196D02*
X74878323Y-101393577D01*
X76186470Y-102701724D01*
X75726851Y-103161343D01*
X74418704Y-101853196D01*
X74418704Y-101853196D01*
G37*
D16*
X74949033Y-102631014D03*
D10*
G36*
X74065150Y-102206750D02*
X74524769Y-101747131D01*
X75832916Y-103055278D01*
X75373297Y-103514897D01*
X74065150Y-102206750D01*
X74065150Y-102206750D01*
G37*
D16*
X74595480Y-102984567D03*
D10*
G36*
X73711597Y-102560303D02*
X74171216Y-102100684D01*
X75479363Y-103408831D01*
X75019744Y-103868450D01*
X73711597Y-102560303D01*
X73711597Y-102560303D01*
G37*
D16*
X74241926Y-103338120D03*
D10*
G36*
X73358043Y-102913856D02*
X73817662Y-102454237D01*
X75125809Y-103762384D01*
X74666190Y-104222003D01*
X73358043Y-102913856D01*
X73358043Y-102913856D01*
G37*
D16*
X73888373Y-103691674D03*
D10*
G36*
X73004490Y-103267410D02*
X73464109Y-102807791D01*
X74772256Y-104115938D01*
X74312637Y-104575557D01*
X73004490Y-103267410D01*
X73004490Y-103267410D01*
G37*
D16*
X73534820Y-104045227D03*
D10*
G36*
X72650937Y-103620963D02*
X73110556Y-103161344D01*
X74418703Y-104469491D01*
X73959084Y-104929110D01*
X72650937Y-103620963D01*
X72650937Y-103620963D01*
G37*
D16*
X73181266Y-104398781D03*
D10*
G36*
X72297383Y-103974517D02*
X72757002Y-103514898D01*
X74065149Y-104823045D01*
X73605530Y-105282664D01*
X72297383Y-103974517D01*
X72297383Y-103974517D01*
G37*
D16*
X72827713Y-104752334D03*
D10*
G36*
X71943830Y-104328070D02*
X72403449Y-103868451D01*
X73711596Y-105176598D01*
X73251977Y-105636217D01*
X71943830Y-104328070D01*
X71943830Y-104328070D01*
G37*
D16*
X72474159Y-105105887D03*
D10*
G36*
X71590276Y-104681623D02*
X72049895Y-104222004D01*
X73358042Y-105530151D01*
X72898423Y-105989770D01*
X71590276Y-104681623D01*
X71590276Y-104681623D01*
G37*
D16*
X72120606Y-105459441D03*
D10*
G36*
X71236723Y-105035177D02*
X71696342Y-104575558D01*
X73004489Y-105883705D01*
X72544870Y-106343324D01*
X71236723Y-105035177D01*
X71236723Y-105035177D01*
G37*
D16*
X71767053Y-105812994D03*
D10*
G36*
X70883170Y-105388730D02*
X71342789Y-104929111D01*
X72650936Y-106237258D01*
X72191317Y-106696877D01*
X70883170Y-105388730D01*
X70883170Y-105388730D01*
G37*
D16*
X71413499Y-106166548D03*
D10*
G36*
X70529616Y-105742284D02*
X70989235Y-105282665D01*
X72297382Y-106590812D01*
X71837763Y-107050431D01*
X70529616Y-105742284D01*
X70529616Y-105742284D01*
G37*
D16*
X71059946Y-106520101D03*
D10*
G36*
X70176063Y-106095837D02*
X70635682Y-105636218D01*
X71943829Y-106944365D01*
X71484210Y-107403984D01*
X70176063Y-106095837D01*
X70176063Y-106095837D01*
G37*
D16*
X70706393Y-106873654D03*
D10*
G36*
X69822510Y-106449390D02*
X70282129Y-105989771D01*
X71590276Y-107297918D01*
X71130657Y-107757537D01*
X69822510Y-106449390D01*
X69822510Y-106449390D01*
G37*
D16*
X70352839Y-107227208D03*
D10*
G36*
X69468956Y-106802944D02*
X69928575Y-106343325D01*
X71236722Y-107651472D01*
X70777103Y-108111091D01*
X69468956Y-106802944D01*
X69468956Y-106802944D01*
G37*
D16*
X70352839Y-109772792D03*
D10*
G36*
X70777103Y-108888909D02*
X71236722Y-109348528D01*
X69928575Y-110656675D01*
X69468956Y-110197056D01*
X70777103Y-108888909D01*
X70777103Y-108888909D01*
G37*
D16*
X70706393Y-110126346D03*
D10*
G36*
X71130657Y-109242463D02*
X71590276Y-109702082D01*
X70282129Y-111010229D01*
X69822510Y-110550610D01*
X71130657Y-109242463D01*
X71130657Y-109242463D01*
G37*
D16*
X71059946Y-110479899D03*
D10*
G36*
X71484210Y-109596016D02*
X71943829Y-110055635D01*
X70635682Y-111363782D01*
X70176063Y-110904163D01*
X71484210Y-109596016D01*
X71484210Y-109596016D01*
G37*
D16*
X71413499Y-110833452D03*
D10*
G36*
X71837763Y-109949569D02*
X72297382Y-110409188D01*
X70989235Y-111717335D01*
X70529616Y-111257716D01*
X71837763Y-109949569D01*
X71837763Y-109949569D01*
G37*
D16*
X71767053Y-111187006D03*
D10*
G36*
X72191317Y-110303123D02*
X72650936Y-110762742D01*
X71342789Y-112070889D01*
X70883170Y-111611270D01*
X72191317Y-110303123D01*
X72191317Y-110303123D01*
G37*
D16*
X72120606Y-111540559D03*
D10*
G36*
X72544870Y-110656676D02*
X73004489Y-111116295D01*
X71696342Y-112424442D01*
X71236723Y-111964823D01*
X72544870Y-110656676D01*
X72544870Y-110656676D01*
G37*
D16*
X72474159Y-111894113D03*
D10*
G36*
X72898423Y-111010230D02*
X73358042Y-111469849D01*
X72049895Y-112777996D01*
X71590276Y-112318377D01*
X72898423Y-111010230D01*
X72898423Y-111010230D01*
G37*
D16*
X72827713Y-112247666D03*
D10*
G36*
X73251977Y-111363783D02*
X73711596Y-111823402D01*
X72403449Y-113131549D01*
X71943830Y-112671930D01*
X73251977Y-111363783D01*
X73251977Y-111363783D01*
G37*
D16*
X73181266Y-112601219D03*
D10*
G36*
X73605530Y-111717336D02*
X74065149Y-112176955D01*
X72757002Y-113485102D01*
X72297383Y-113025483D01*
X73605530Y-111717336D01*
X73605530Y-111717336D01*
G37*
D16*
X73534820Y-112954773D03*
D10*
G36*
X73959084Y-112070890D02*
X74418703Y-112530509D01*
X73110556Y-113838656D01*
X72650937Y-113379037D01*
X73959084Y-112070890D01*
X73959084Y-112070890D01*
G37*
D16*
X73888373Y-113308326D03*
D10*
G36*
X74312637Y-112424443D02*
X74772256Y-112884062D01*
X73464109Y-114192209D01*
X73004490Y-113732590D01*
X74312637Y-112424443D01*
X74312637Y-112424443D01*
G37*
D16*
X74241926Y-113661880D03*
D10*
G36*
X74666190Y-112777997D02*
X75125809Y-113237616D01*
X73817662Y-114545763D01*
X73358043Y-114086144D01*
X74666190Y-112777997D01*
X74666190Y-112777997D01*
G37*
D16*
X74595480Y-114015433D03*
D10*
G36*
X75019744Y-113131550D02*
X75479363Y-113591169D01*
X74171216Y-114899316D01*
X73711597Y-114439697D01*
X75019744Y-113131550D01*
X75019744Y-113131550D01*
G37*
D16*
X74949033Y-114368986D03*
D10*
G36*
X75373297Y-113485103D02*
X75832916Y-113944722D01*
X74524769Y-115252869D01*
X74065150Y-114793250D01*
X75373297Y-113485103D01*
X75373297Y-113485103D01*
G37*
D16*
X75302587Y-114722540D03*
D10*
G36*
X75726851Y-113838657D02*
X76186470Y-114298276D01*
X74878323Y-115606423D01*
X74418704Y-115146804D01*
X75726851Y-113838657D01*
X75726851Y-113838657D01*
G37*
D16*
X75656140Y-115076093D03*
D10*
G36*
X76080404Y-114192210D02*
X76540023Y-114651829D01*
X75231876Y-115959976D01*
X74772257Y-115500357D01*
X76080404Y-114192210D01*
X76080404Y-114192210D01*
G37*
D16*
X76009693Y-115429646D03*
D10*
G36*
X76433957Y-114545763D02*
X76893576Y-115005382D01*
X75585429Y-116313529D01*
X75125810Y-115853910D01*
X76433957Y-114545763D01*
X76433957Y-114545763D01*
G37*
D16*
X76363247Y-115783200D03*
D10*
G36*
X76787511Y-114899317D02*
X77247130Y-115358936D01*
X75938983Y-116667083D01*
X75479364Y-116207464D01*
X76787511Y-114899317D01*
X76787511Y-114899317D01*
G37*
D16*
X76716800Y-116136753D03*
D10*
G36*
X77141064Y-115252870D02*
X77600683Y-115712489D01*
X76292536Y-117020636D01*
X75832917Y-116561017D01*
X77141064Y-115252870D01*
X77141064Y-115252870D01*
G37*
D16*
X77070354Y-116490307D03*
D10*
G36*
X77494618Y-115606424D02*
X77954237Y-116066043D01*
X76646090Y-117374190D01*
X76186471Y-116914571D01*
X77494618Y-115606424D01*
X77494618Y-115606424D01*
G37*
D16*
X77423907Y-116843860D03*
D10*
G36*
X77848171Y-115959977D02*
X78307790Y-116419596D01*
X76999643Y-117727743D01*
X76540024Y-117268124D01*
X77848171Y-115959977D01*
X77848171Y-115959977D01*
G37*
D16*
X77777460Y-117197413D03*
D10*
G36*
X78201724Y-116313530D02*
X78661343Y-116773149D01*
X77353196Y-118081296D01*
X76893577Y-117621677D01*
X78201724Y-116313530D01*
X78201724Y-116313530D01*
G37*
D16*
X78131014Y-117550967D03*
D10*
G36*
X78555278Y-116667084D02*
X79014897Y-117126703D01*
X77706750Y-118434850D01*
X77247131Y-117975231D01*
X78555278Y-116667084D01*
X78555278Y-116667084D01*
G37*
D16*
X78484567Y-117904520D03*
D10*
G36*
X78908831Y-117020637D02*
X79368450Y-117480256D01*
X78060303Y-118788403D01*
X77600684Y-118328784D01*
X78908831Y-117020637D01*
X78908831Y-117020637D01*
G37*
D16*
X78838120Y-118258074D03*
D10*
G36*
X79262384Y-117374191D02*
X79722003Y-117833810D01*
X78413856Y-119141957D01*
X77954237Y-118682338D01*
X79262384Y-117374191D01*
X79262384Y-117374191D01*
G37*
D16*
X79191674Y-118611627D03*
D10*
G36*
X79615938Y-117727744D02*
X80075557Y-118187363D01*
X78767410Y-119495510D01*
X78307791Y-119035891D01*
X79615938Y-117727744D01*
X79615938Y-117727744D01*
G37*
D16*
X79545227Y-118965180D03*
D10*
G36*
X79969491Y-118081297D02*
X80429110Y-118540916D01*
X79120963Y-119849063D01*
X78661344Y-119389444D01*
X79969491Y-118081297D01*
X79969491Y-118081297D01*
G37*
D16*
X79898781Y-119318734D03*
D10*
G36*
X80323045Y-118434851D02*
X80782664Y-118894470D01*
X79474517Y-120202617D01*
X79014898Y-119742998D01*
X80323045Y-118434851D01*
X80323045Y-118434851D01*
G37*
D16*
X80252334Y-119672287D03*
D10*
G36*
X80676598Y-118788404D02*
X81136217Y-119248023D01*
X79828070Y-120556170D01*
X79368451Y-120096551D01*
X80676598Y-118788404D01*
X80676598Y-118788404D01*
G37*
D16*
X80605887Y-120025841D03*
D10*
G36*
X81030151Y-119141958D02*
X81489770Y-119601577D01*
X80181623Y-120909724D01*
X79722004Y-120450105D01*
X81030151Y-119141958D01*
X81030151Y-119141958D01*
G37*
D16*
X80959441Y-120379394D03*
D10*
G36*
X81383705Y-119495511D02*
X81843324Y-119955130D01*
X80535177Y-121263277D01*
X80075558Y-120803658D01*
X81383705Y-119495511D01*
X81383705Y-119495511D01*
G37*
D16*
X81312994Y-120732947D03*
D10*
G36*
X81737258Y-119849064D02*
X82196877Y-120308683D01*
X80888730Y-121616830D01*
X80429111Y-121157211D01*
X81737258Y-119849064D01*
X81737258Y-119849064D01*
G37*
D16*
X81666548Y-121086501D03*
D10*
G36*
X82090812Y-120202618D02*
X82550431Y-120662237D01*
X81242284Y-121970384D01*
X80782665Y-121510765D01*
X82090812Y-120202618D01*
X82090812Y-120202618D01*
G37*
D16*
X82020101Y-121440054D03*
D10*
G36*
X82444365Y-120556171D02*
X82903984Y-121015790D01*
X81595837Y-122323937D01*
X81136218Y-121864318D01*
X82444365Y-120556171D01*
X82444365Y-120556171D01*
G37*
D16*
X82373654Y-121793607D03*
D10*
G36*
X82797918Y-120909724D02*
X83257537Y-121369343D01*
X81949390Y-122677490D01*
X81489771Y-122217871D01*
X82797918Y-120909724D01*
X82797918Y-120909724D01*
G37*
D16*
X82727208Y-122147161D03*
D10*
G36*
X83151472Y-121263278D02*
X83611091Y-121722897D01*
X82302944Y-123031044D01*
X81843325Y-122571425D01*
X83151472Y-121263278D01*
X83151472Y-121263278D01*
G37*
D16*
X85272792Y-122147161D03*
D10*
G36*
X84388909Y-121722897D02*
X84848528Y-121263278D01*
X86156675Y-122571425D01*
X85697056Y-123031044D01*
X84388909Y-121722897D01*
X84388909Y-121722897D01*
G37*
D16*
X85626346Y-121793607D03*
D10*
G36*
X84742463Y-121369343D02*
X85202082Y-120909724D01*
X86510229Y-122217871D01*
X86050610Y-122677490D01*
X84742463Y-121369343D01*
X84742463Y-121369343D01*
G37*
D16*
X85979899Y-121440054D03*
D10*
G36*
X85096016Y-121015790D02*
X85555635Y-120556171D01*
X86863782Y-121864318D01*
X86404163Y-122323937D01*
X85096016Y-121015790D01*
X85096016Y-121015790D01*
G37*
D16*
X86333452Y-121086501D03*
D10*
G36*
X85449569Y-120662237D02*
X85909188Y-120202618D01*
X87217335Y-121510765D01*
X86757716Y-121970384D01*
X85449569Y-120662237D01*
X85449569Y-120662237D01*
G37*
D16*
X86687006Y-120732947D03*
D10*
G36*
X85803123Y-120308683D02*
X86262742Y-119849064D01*
X87570889Y-121157211D01*
X87111270Y-121616830D01*
X85803123Y-120308683D01*
X85803123Y-120308683D01*
G37*
D16*
X87040559Y-120379394D03*
D10*
G36*
X86156676Y-119955130D02*
X86616295Y-119495511D01*
X87924442Y-120803658D01*
X87464823Y-121263277D01*
X86156676Y-119955130D01*
X86156676Y-119955130D01*
G37*
D16*
X87394113Y-120025841D03*
D10*
G36*
X86510230Y-119601577D02*
X86969849Y-119141958D01*
X88277996Y-120450105D01*
X87818377Y-120909724D01*
X86510230Y-119601577D01*
X86510230Y-119601577D01*
G37*
D16*
X87747666Y-119672287D03*
D10*
G36*
X86863783Y-119248023D02*
X87323402Y-118788404D01*
X88631549Y-120096551D01*
X88171930Y-120556170D01*
X86863783Y-119248023D01*
X86863783Y-119248023D01*
G37*
D16*
X88101219Y-119318734D03*
D10*
G36*
X87217336Y-118894470D02*
X87676955Y-118434851D01*
X88985102Y-119742998D01*
X88525483Y-120202617D01*
X87217336Y-118894470D01*
X87217336Y-118894470D01*
G37*
D16*
X88454773Y-118965180D03*
D10*
G36*
X87570890Y-118540916D02*
X88030509Y-118081297D01*
X89338656Y-119389444D01*
X88879037Y-119849063D01*
X87570890Y-118540916D01*
X87570890Y-118540916D01*
G37*
D16*
X88808326Y-118611627D03*
D10*
G36*
X87924443Y-118187363D02*
X88384062Y-117727744D01*
X89692209Y-119035891D01*
X89232590Y-119495510D01*
X87924443Y-118187363D01*
X87924443Y-118187363D01*
G37*
D16*
X89161880Y-118258074D03*
D10*
G36*
X88277997Y-117833810D02*
X88737616Y-117374191D01*
X90045763Y-118682338D01*
X89586144Y-119141957D01*
X88277997Y-117833810D01*
X88277997Y-117833810D01*
G37*
D16*
X89515433Y-117904520D03*
D10*
G36*
X88631550Y-117480256D02*
X89091169Y-117020637D01*
X90399316Y-118328784D01*
X89939697Y-118788403D01*
X88631550Y-117480256D01*
X88631550Y-117480256D01*
G37*
D16*
X89868986Y-117550967D03*
D10*
G36*
X88985103Y-117126703D02*
X89444722Y-116667084D01*
X90752869Y-117975231D01*
X90293250Y-118434850D01*
X88985103Y-117126703D01*
X88985103Y-117126703D01*
G37*
D16*
X90222540Y-117197413D03*
D10*
G36*
X89338657Y-116773149D02*
X89798276Y-116313530D01*
X91106423Y-117621677D01*
X90646804Y-118081296D01*
X89338657Y-116773149D01*
X89338657Y-116773149D01*
G37*
D16*
X90576093Y-116843860D03*
D10*
G36*
X89692210Y-116419596D02*
X90151829Y-115959977D01*
X91459976Y-117268124D01*
X91000357Y-117727743D01*
X89692210Y-116419596D01*
X89692210Y-116419596D01*
G37*
D16*
X90929646Y-116490307D03*
D10*
G36*
X90045763Y-116066043D02*
X90505382Y-115606424D01*
X91813529Y-116914571D01*
X91353910Y-117374190D01*
X90045763Y-116066043D01*
X90045763Y-116066043D01*
G37*
D16*
X91283200Y-116136753D03*
D10*
G36*
X90399317Y-115712489D02*
X90858936Y-115252870D01*
X92167083Y-116561017D01*
X91707464Y-117020636D01*
X90399317Y-115712489D01*
X90399317Y-115712489D01*
G37*
D16*
X91636753Y-115783200D03*
D10*
G36*
X90752870Y-115358936D02*
X91212489Y-114899317D01*
X92520636Y-116207464D01*
X92061017Y-116667083D01*
X90752870Y-115358936D01*
X90752870Y-115358936D01*
G37*
D16*
X91990307Y-115429646D03*
D10*
G36*
X91106424Y-115005382D02*
X91566043Y-114545763D01*
X92874190Y-115853910D01*
X92414571Y-116313529D01*
X91106424Y-115005382D01*
X91106424Y-115005382D01*
G37*
D16*
X92343860Y-115076093D03*
D10*
G36*
X91459977Y-114651829D02*
X91919596Y-114192210D01*
X93227743Y-115500357D01*
X92768124Y-115959976D01*
X91459977Y-114651829D01*
X91459977Y-114651829D01*
G37*
D16*
X92697413Y-114722540D03*
D10*
G36*
X91813530Y-114298276D02*
X92273149Y-113838657D01*
X93581296Y-115146804D01*
X93121677Y-115606423D01*
X91813530Y-114298276D01*
X91813530Y-114298276D01*
G37*
D16*
X93050967Y-114368986D03*
D10*
G36*
X92167084Y-113944722D02*
X92626703Y-113485103D01*
X93934850Y-114793250D01*
X93475231Y-115252869D01*
X92167084Y-113944722D01*
X92167084Y-113944722D01*
G37*
D16*
X93404520Y-114015433D03*
D10*
G36*
X92520637Y-113591169D02*
X92980256Y-113131550D01*
X94288403Y-114439697D01*
X93828784Y-114899316D01*
X92520637Y-113591169D01*
X92520637Y-113591169D01*
G37*
D16*
X93758074Y-113661880D03*
D10*
G36*
X92874191Y-113237616D02*
X93333810Y-112777997D01*
X94641957Y-114086144D01*
X94182338Y-114545763D01*
X92874191Y-113237616D01*
X92874191Y-113237616D01*
G37*
D16*
X94111627Y-113308326D03*
D10*
G36*
X93227744Y-112884062D02*
X93687363Y-112424443D01*
X94995510Y-113732590D01*
X94535891Y-114192209D01*
X93227744Y-112884062D01*
X93227744Y-112884062D01*
G37*
D16*
X94465180Y-112954773D03*
D10*
G36*
X93581297Y-112530509D02*
X94040916Y-112070890D01*
X95349063Y-113379037D01*
X94889444Y-113838656D01*
X93581297Y-112530509D01*
X93581297Y-112530509D01*
G37*
D16*
X94818734Y-112601219D03*
D10*
G36*
X93934851Y-112176955D02*
X94394470Y-111717336D01*
X95702617Y-113025483D01*
X95242998Y-113485102D01*
X93934851Y-112176955D01*
X93934851Y-112176955D01*
G37*
D16*
X95172287Y-112247666D03*
D10*
G36*
X94288404Y-111823402D02*
X94748023Y-111363783D01*
X96056170Y-112671930D01*
X95596551Y-113131549D01*
X94288404Y-111823402D01*
X94288404Y-111823402D01*
G37*
D16*
X95525841Y-111894113D03*
D10*
G36*
X94641958Y-111469849D02*
X95101577Y-111010230D01*
X96409724Y-112318377D01*
X95950105Y-112777996D01*
X94641958Y-111469849D01*
X94641958Y-111469849D01*
G37*
D16*
X95879394Y-111540559D03*
D10*
G36*
X94995511Y-111116295D02*
X95455130Y-110656676D01*
X96763277Y-111964823D01*
X96303658Y-112424442D01*
X94995511Y-111116295D01*
X94995511Y-111116295D01*
G37*
D16*
X96232947Y-111187006D03*
D10*
G36*
X95349064Y-110762742D02*
X95808683Y-110303123D01*
X97116830Y-111611270D01*
X96657211Y-112070889D01*
X95349064Y-110762742D01*
X95349064Y-110762742D01*
G37*
D16*
X96586501Y-110833452D03*
D10*
G36*
X95702618Y-110409188D02*
X96162237Y-109949569D01*
X97470384Y-111257716D01*
X97010765Y-111717335D01*
X95702618Y-110409188D01*
X95702618Y-110409188D01*
G37*
D16*
X96940054Y-110479899D03*
D10*
G36*
X96056171Y-110055635D02*
X96515790Y-109596016D01*
X97823937Y-110904163D01*
X97364318Y-111363782D01*
X96056171Y-110055635D01*
X96056171Y-110055635D01*
G37*
D16*
X97293607Y-110126346D03*
D10*
G36*
X96409724Y-109702082D02*
X96869343Y-109242463D01*
X98177490Y-110550610D01*
X97717871Y-111010229D01*
X96409724Y-109702082D01*
X96409724Y-109702082D01*
G37*
D16*
X97647161Y-109772792D03*
D10*
G36*
X96763278Y-109348528D02*
X97222897Y-108888909D01*
X98531044Y-110197056D01*
X98071425Y-110656675D01*
X96763278Y-109348528D01*
X96763278Y-109348528D01*
G37*
D17*
X46140000Y-135390000D03*
D18*
X46140000Y-132850000D03*
X48680000Y-135390000D03*
X48680000Y-132850000D03*
X51220000Y-135390000D03*
X51220000Y-132850000D03*
X53760000Y-135390000D03*
X53760000Y-132850000D03*
X56300000Y-135390000D03*
X56300000Y-132850000D03*
X58840000Y-135390000D03*
X58840000Y-132850000D03*
X61380000Y-135390000D03*
X61380000Y-132850000D03*
D19*
X45300000Y-111250000D03*
X45300000Y-111750000D03*
X45300000Y-112250000D03*
X45300000Y-112750000D03*
X45300000Y-113250000D03*
X45300000Y-113750000D03*
X45300000Y-114250000D03*
X45300000Y-114750000D03*
X45300000Y-115250000D03*
X45300000Y-115750000D03*
X45300000Y-116250000D03*
X45300000Y-116750000D03*
X45300000Y-117250000D03*
X45300000Y-117750000D03*
X45300000Y-118250000D03*
X45300000Y-118750000D03*
D20*
X47250000Y-120700000D03*
X47750000Y-120700000D03*
X48250000Y-120700000D03*
X48750000Y-120700000D03*
X49250000Y-120700000D03*
X49750000Y-120700000D03*
X50250000Y-120700000D03*
X50750000Y-120700000D03*
X51250000Y-120700000D03*
X51750000Y-120700000D03*
X52250000Y-120700000D03*
X52750000Y-120700000D03*
X53250000Y-120700000D03*
X53750000Y-120700000D03*
X54250000Y-120700000D03*
X54750000Y-120700000D03*
D19*
X56700000Y-118750000D03*
X56700000Y-118250000D03*
X56700000Y-117750000D03*
X56700000Y-117250000D03*
X56700000Y-116750000D03*
X56700000Y-116250000D03*
X56700000Y-115750000D03*
X56700000Y-115250000D03*
X56700000Y-114750000D03*
X56700000Y-114250000D03*
X56700000Y-113750000D03*
X56700000Y-113250000D03*
X56700000Y-112750000D03*
X56700000Y-112250000D03*
X56700000Y-111750000D03*
X56700000Y-111250000D03*
D20*
X54750000Y-109300000D03*
X54250000Y-109300000D03*
X53750000Y-109300000D03*
X53250000Y-109300000D03*
X52750000Y-109300000D03*
X52250000Y-109300000D03*
X51750000Y-109300000D03*
X51250000Y-109300000D03*
X50750000Y-109300000D03*
X50250000Y-109300000D03*
X49750000Y-109300000D03*
X49250000Y-109300000D03*
X48750000Y-109300000D03*
X48250000Y-109300000D03*
X47750000Y-109300000D03*
X47250000Y-109300000D03*
D21*
X51200000Y-89050000D03*
X51200000Y-90550000D03*
D22*
X51750000Y-98500000D03*
X50250000Y-98500000D03*
X47250000Y-107500000D03*
X48750000Y-107500000D03*
D23*
X58660000Y-116900000D03*
X58660000Y-118400000D03*
D24*
X39000000Y-123760000D03*
X39000000Y-121140000D03*
D25*
X53250000Y-107000000D03*
X56250000Y-107000000D03*
D24*
X39000000Y-129010000D03*
X39000000Y-126390000D03*
D23*
X58650000Y-112450000D03*
X58650000Y-113950000D03*
X43000000Y-121500000D03*
X43000000Y-123000000D03*
X43100000Y-127800000D03*
X43100000Y-126300000D03*
D26*
X34900000Y-121550000D03*
X34900000Y-123450000D03*
X35000000Y-126250000D03*
X35000000Y-128150000D03*
D27*
X120329300Y-96300000D03*
X118830700Y-96300000D03*
X118850700Y-99850000D03*
X120349300Y-99850000D03*
X120349300Y-103350000D03*
X118850700Y-103350000D03*
X120349300Y-106850000D03*
X118850700Y-106850000D03*
X118850700Y-110350000D03*
X120349300Y-110350000D03*
X120349300Y-113850000D03*
X118850700Y-113850000D03*
X118850700Y-117350000D03*
X120349300Y-117350000D03*
X120349300Y-120850000D03*
X118850700Y-120850000D03*
X64499300Y-107000000D03*
X63000700Y-107000000D03*
X48500700Y-126500000D03*
X49999300Y-126500000D03*
X49999300Y-123750000D03*
X48500700Y-123750000D03*
X51200000Y-92250700D03*
X51200000Y-93749300D03*
D28*
X34400000Y-107500000D03*
D29*
X34400000Y-104960000D03*
X34400000Y-102420000D03*
D30*
X64500000Y-110000000D03*
X63000000Y-110000000D03*
D21*
X48000000Y-102500000D03*
X48000000Y-101000000D03*
X54000000Y-98000000D03*
X54000000Y-99500000D03*
X54000000Y-102500000D03*
X54000000Y-101000000D03*
D30*
X51750000Y-105000000D03*
X50250000Y-105000000D03*
X42000000Y-113750000D03*
X43500000Y-113750000D03*
X43500000Y-115500000D03*
X42000000Y-115500000D03*
X53500000Y-126500000D03*
X52000000Y-126500000D03*
X52000000Y-123750000D03*
X53500000Y-123750000D03*
D21*
X56300000Y-87250000D03*
X56300000Y-88750000D03*
X60300000Y-88750000D03*
X60300000Y-87250000D03*
X64300000Y-87250000D03*
X64300000Y-88750000D03*
X66300000Y-88750000D03*
X66300000Y-87250000D03*
X85200000Y-128250000D03*
X85200000Y-129750000D03*
X81200000Y-128250000D03*
X81200000Y-129750000D03*
X77200000Y-129750000D03*
X77200000Y-128250000D03*
X73200000Y-128250000D03*
X73200000Y-129750000D03*
X54300000Y-87250000D03*
X54300000Y-88750000D03*
X58300000Y-88750000D03*
X58300000Y-87250000D03*
X62300000Y-87250000D03*
X62300000Y-88750000D03*
X68300000Y-88750000D03*
X68300000Y-87250000D03*
X83200000Y-129750000D03*
X83200000Y-128250000D03*
X79200000Y-128250000D03*
X79200000Y-129750000D03*
X75200000Y-128250000D03*
X75200000Y-129750000D03*
X71200000Y-128250000D03*
X71200000Y-129750000D03*
X108200000Y-129750000D03*
X108200000Y-128250000D03*
X104200000Y-128250000D03*
X104200000Y-129750000D03*
X100200000Y-129750000D03*
X100200000Y-128250000D03*
X96200000Y-128250000D03*
X96200000Y-129750000D03*
X102300000Y-87250000D03*
X102300000Y-88750000D03*
X106300000Y-88750000D03*
X106300000Y-87250000D03*
X110300000Y-87250000D03*
X110300000Y-88750000D03*
X112300000Y-88750000D03*
X112300000Y-87250000D03*
X79300000Y-88750000D03*
X79300000Y-87250000D03*
X83300000Y-87250000D03*
X83300000Y-88750000D03*
X87300000Y-88750000D03*
X87300000Y-87250000D03*
X89300000Y-88750000D03*
X89300000Y-87250000D03*
X106200000Y-129750000D03*
X106200000Y-128250000D03*
X102200000Y-128250000D03*
X102200000Y-129750000D03*
X98200000Y-128250000D03*
X98200000Y-129750000D03*
X94200000Y-129750000D03*
X94200000Y-128250000D03*
X100300000Y-87250000D03*
X100300000Y-88750000D03*
X104300000Y-88750000D03*
X104300000Y-87250000D03*
X108300000Y-87250000D03*
X108300000Y-88750000D03*
X114300000Y-87250000D03*
X114300000Y-88750000D03*
X77300000Y-87250000D03*
X77300000Y-88750000D03*
X81300000Y-88750000D03*
X81300000Y-87250000D03*
X85300000Y-87250000D03*
X85300000Y-88750000D03*
X91300000Y-88750000D03*
X91300000Y-87250000D03*
D31*
X44560000Y-106550000D03*
X40470000Y-106550000D03*
D32*
X36770000Y-113652060D03*
X36770000Y-114302300D03*
X36770000Y-114950000D03*
X36770000Y-115597700D03*
X36770000Y-116247940D03*
D33*
X34095380Y-113751120D03*
X34095380Y-116148880D03*
D34*
X34100000Y-111520000D03*
X34100000Y-118380000D03*
D35*
X36770000Y-117447940D03*
X36770000Y-112447940D03*
D36*
X43866000Y-98450000D03*
X40866000Y-93750000D03*
D37*
X46866000Y-93750000D03*
D38*
X50050000Y-103140000D03*
X51000000Y-103140000D03*
X51950000Y-103140000D03*
X50050000Y-100340000D03*
X51000000Y-100340000D03*
X51950000Y-100340000D03*
D39*
X103350000Y-100100000D03*
X103350000Y-100900000D03*
X103350000Y-101700000D03*
X103350000Y-102500000D03*
X103350000Y-103300000D03*
X103350000Y-104100000D03*
X103350000Y-104900000D03*
X103350000Y-105700000D03*
X103350000Y-106500000D03*
X103350000Y-107300000D03*
X103350000Y-108100000D03*
X103350000Y-108900000D03*
X103350000Y-110500000D03*
X103350000Y-109700000D03*
X103350000Y-111300000D03*
X103350000Y-112100000D03*
X103350000Y-112900000D03*
X103350000Y-113700000D03*
X103350000Y-114500000D03*
X103350000Y-115300000D03*
X103350000Y-116100000D03*
X103350000Y-116900000D03*
X114650000Y-116900000D03*
X114650000Y-116100000D03*
X114650000Y-115300000D03*
X114650000Y-114500000D03*
X114650000Y-113700000D03*
X114650000Y-112900000D03*
X114650000Y-112100000D03*
X114650000Y-111300000D03*
X114650000Y-109700000D03*
X114650000Y-110500000D03*
X114650000Y-108900000D03*
X114650000Y-108100000D03*
X114650000Y-107300000D03*
X114650000Y-106500000D03*
X114650000Y-105700000D03*
X114650000Y-104900000D03*
X114650000Y-104100000D03*
X114650000Y-103300000D03*
X114650000Y-102500000D03*
X114650000Y-101700000D03*
X114650000Y-100900000D03*
X114650000Y-100100000D03*
D40*
X75716855Y-97864235D03*
D10*
G36*
X75699177Y-96686902D02*
X76894188Y-97881913D01*
X75734533Y-99041568D01*
X74539522Y-97846557D01*
X75699177Y-96686902D01*
X75699177Y-96686902D01*
G37*
D40*
X73920804Y-99660287D03*
D10*
G36*
X73903126Y-98482954D02*
X75098137Y-99677965D01*
X73938482Y-100837620D01*
X72743471Y-99642609D01*
X73903126Y-98482954D01*
X73903126Y-98482954D01*
G37*
D40*
X74125865Y-96273245D03*
D10*
G36*
X74108187Y-95095912D02*
X75303198Y-96290923D01*
X74143543Y-97450578D01*
X72948532Y-96255567D01*
X74108187Y-95095912D01*
X74108187Y-95095912D01*
G37*
D40*
X72329814Y-98069296D03*
D10*
G36*
X72312136Y-96891963D02*
X73507147Y-98086974D01*
X72347492Y-99246629D01*
X71152481Y-98051618D01*
X72312136Y-96891963D01*
X72312136Y-96891963D01*
G37*
D18*
X84503500Y-134543500D03*
D17*
X84503500Y-132003500D03*
D18*
X81963500Y-134543500D03*
X81963500Y-132003500D03*
X79423500Y-134543500D03*
X79423500Y-132003500D03*
X76883500Y-134543500D03*
X76883500Y-132003500D03*
X74343500Y-134543500D03*
X74343500Y-132003500D03*
X71803500Y-134543500D03*
D41*
X71803500Y-132003500D03*
X94803500Y-132003500D03*
D18*
X94803500Y-134543500D03*
X97343500Y-132003500D03*
X97343500Y-134543500D03*
X99883500Y-132003500D03*
X99883500Y-134543500D03*
X102423500Y-132003500D03*
X102423500Y-134543500D03*
X104963500Y-132003500D03*
X104963500Y-134543500D03*
D17*
X107503500Y-132003500D03*
D18*
X107503500Y-134543500D03*
D41*
X67696500Y-84996500D03*
D18*
X67696500Y-82456500D03*
X65156500Y-84996500D03*
X65156500Y-82456500D03*
X62616500Y-84996500D03*
X62616500Y-82456500D03*
X60076500Y-84996500D03*
X60076500Y-82456500D03*
X57536500Y-84996500D03*
X57536500Y-82456500D03*
D17*
X54996500Y-84996500D03*
D18*
X54996500Y-82456500D03*
D41*
X90696500Y-84996500D03*
D18*
X90696500Y-82456500D03*
X88156500Y-84996500D03*
X88156500Y-82456500D03*
X85616500Y-84996500D03*
X85616500Y-82456500D03*
X83076500Y-84996500D03*
X83076500Y-82456500D03*
X80536500Y-84996500D03*
X80536500Y-82456500D03*
D17*
X77996500Y-84996500D03*
D18*
X77996500Y-82456500D03*
X100996500Y-82456500D03*
D17*
X100996500Y-84996500D03*
D18*
X103536500Y-82456500D03*
X103536500Y-84996500D03*
X106076500Y-82456500D03*
X106076500Y-84996500D03*
X108616500Y-82456500D03*
X108616500Y-84996500D03*
X111156500Y-82456500D03*
X111156500Y-84996500D03*
X113696500Y-82456500D03*
D41*
X113696500Y-84996500D03*
D42*
X36750000Y-92750000D03*
D43*
X36750000Y-94750000D03*
D44*
X39750000Y-117400000D03*
X39750000Y-115620000D03*
X39750000Y-113630000D03*
X39750000Y-111850000D03*
D45*
X119500000Y-137000000D03*
X119500000Y-80000000D03*
D46*
X39450000Y-102300000D03*
D47*
X41990000Y-102300000D03*
D48*
X119500000Y-87500000D03*
X119500000Y-85500000D03*
X119500000Y-89500000D03*
D49*
X119500000Y-91600000D03*
X119500000Y-83400000D03*
D45*
X34500000Y-80000000D03*
D50*
X72800000Y-84800000D03*
X72800000Y-91300000D03*
X120000000Y-131840000D03*
X113500000Y-131840000D03*
X113500000Y-126500000D03*
X120000000Y-126500000D03*
D51*
X40250000Y-83500000D03*
X44250000Y-83500000D03*
X48250000Y-83500000D03*
D52*
X50250000Y-85250000D03*
X50250000Y-79250000D03*
X38250000Y-85250000D03*
X38250000Y-79250000D03*
D45*
X34500000Y-137000000D03*
M02*
