G04 #@! TF.GenerationSoftware,KiCad,Pcbnew,(2017-01-24 revision 0b6147e)-makepkg*
G04 #@! TF.CreationDate,2017-03-21T13:18:50-07:00*
G04 #@! TF.ProjectId,Spartan6Dev,5370617274616E364465762E6B696361,rev?*
G04 #@! TF.FileFunction,Legend,Bot*
G04 #@! TF.FilePolarity,Positive*
%FSLAX46Y46*%
G04 Gerber Fmt 4.6, Leading zero omitted, Abs format (unit mm)*
G04 Created by KiCad (PCBNEW (2017-01-24 revision 0b6147e)-makepkg) date 03/21/17 13:18:50*
%MOMM*%
%LPD*%
G01*
G04 APERTURE LIST*
%ADD10C,0.100000*%
%ADD11C,0.150000*%
%ADD12R,1.400000X2.900000*%
%ADD13R,2.127200X2.127200*%
%ADD14O,2.127200X2.127200*%
%ADD15R,1.050000X2.100000*%
%ADD16C,1.150000*%
%ADD17R,1.200000X1.150000*%
%ADD18R,1.150000X1.200000*%
%ADD19R,2.000000X1.400000*%
%ADD20R,1.400000X2.000000*%
%ADD21R,0.900000X0.800000*%
%ADD22R,2.432000X2.127200*%
%ADD23O,2.432000X2.127200*%
%ADD24C,0.900000*%
%ADD25R,1.300000X0.900000*%
%ADD26R,0.900000X1.300000*%
%ADD27R,2.432000X1.416000*%
%ADD28R,2.432000X4.057600*%
%ADD29C,1.650006*%
%ADD30C,1.504000*%
%ADD31C,4.400000*%
%ADD32C,4.900000*%
%ADD33R,4.057600X2.432000*%
%ADD34R,1.416000X2.432000*%
%ADD35C,2.127200*%
%ADD36R,2.100000X1.300000*%
%ADD37R,1.300000X2.100000*%
%ADD38R,2.100000X1.600000*%
%ADD39O,2.100000X1.600000*%
%ADD40C,3.100000*%
%ADD41R,2.432000X2.432000*%
%ADD42O,2.432000X2.432000*%
%ADD43C,1.924000*%
%ADD44C,2.400000*%
%ADD45C,2.350000*%
%ADD46C,1.850000*%
%ADD47C,2.150000*%
G04 APERTURE END LIST*
D10*
D11*
X39365714Y-90168571D02*
X39222857Y-90216190D01*
X39175238Y-90263809D01*
X39127619Y-90359047D01*
X39127619Y-90501904D01*
X39175238Y-90597142D01*
X39222857Y-90644761D01*
X39318095Y-90692380D01*
X39699047Y-90692380D01*
X39699047Y-89692380D01*
X39365714Y-89692380D01*
X39270476Y-89740000D01*
X39222857Y-89787619D01*
X39175238Y-89882857D01*
X39175238Y-89978095D01*
X39222857Y-90073333D01*
X39270476Y-90120952D01*
X39365714Y-90168571D01*
X39699047Y-90168571D01*
X38841904Y-89692380D02*
X38270476Y-89692380D01*
X38556190Y-90692380D02*
X38556190Y-89692380D01*
X37413333Y-90692380D02*
X37984761Y-90692380D01*
X37699047Y-90692380D02*
X37699047Y-89692380D01*
X37794285Y-89835238D01*
X37889523Y-89930476D01*
X37984761Y-89978095D01*
X116904761Y-86166666D02*
X116952380Y-86309523D01*
X116952380Y-86547619D01*
X116904761Y-86642857D01*
X116857142Y-86690476D01*
X116761904Y-86738095D01*
X116666666Y-86738095D01*
X116571428Y-86690476D01*
X116523809Y-86642857D01*
X116476190Y-86547619D01*
X116428571Y-86357142D01*
X116380952Y-86261904D01*
X116333333Y-86214285D01*
X116238095Y-86166666D01*
X116142857Y-86166666D01*
X116047619Y-86214285D01*
X116000000Y-86261904D01*
X115952380Y-86357142D01*
X115952380Y-86595238D01*
X116000000Y-86738095D01*
X115952380Y-87071428D02*
X116952380Y-87309523D01*
X116238095Y-87500000D01*
X116952380Y-87690476D01*
X115952380Y-87928571D01*
X116047619Y-88261904D02*
X116000000Y-88309523D01*
X115952380Y-88404761D01*
X115952380Y-88642857D01*
X116000000Y-88738095D01*
X116047619Y-88785714D01*
X116142857Y-88833333D01*
X116238095Y-88833333D01*
X116380952Y-88785714D01*
X116952380Y-88214285D01*
X116952380Y-88833333D01*
X98585714Y-81952380D02*
X98585714Y-82666666D01*
X98633333Y-82809523D01*
X98728571Y-82904761D01*
X98871428Y-82952380D01*
X98966666Y-82952380D01*
X98109523Y-82428571D02*
X97776190Y-82428571D01*
X97633333Y-82952380D02*
X98109523Y-82952380D01*
X98109523Y-81952380D01*
X97633333Y-81952380D01*
X96680952Y-82952380D02*
X97252380Y-82952380D01*
X96966666Y-82952380D02*
X96966666Y-81952380D01*
X97061904Y-82095238D01*
X97157142Y-82190476D01*
X97252380Y-82238095D01*
X75793333Y-81962380D02*
X75793333Y-82676666D01*
X75840952Y-82819523D01*
X75936190Y-82914761D01*
X76079047Y-82962380D01*
X76174285Y-82962380D01*
X75317142Y-82962380D02*
X75317142Y-81962380D01*
X75079047Y-81962380D01*
X74936190Y-82010000D01*
X74840952Y-82105238D01*
X74793333Y-82200476D01*
X74745714Y-82390952D01*
X74745714Y-82533809D01*
X74793333Y-82724285D01*
X74840952Y-82819523D01*
X74936190Y-82914761D01*
X75079047Y-82962380D01*
X75317142Y-82962380D01*
X73793333Y-82962380D02*
X74364761Y-82962380D01*
X74079047Y-82962380D02*
X74079047Y-81962380D01*
X74174285Y-82105238D01*
X74269523Y-82200476D01*
X74364761Y-82248095D01*
X71493333Y-81962380D02*
X71493333Y-82676666D01*
X71540952Y-82819523D01*
X71636190Y-82914761D01*
X71779047Y-82962380D01*
X71874285Y-82962380D01*
X70445714Y-82867142D02*
X70493333Y-82914761D01*
X70636190Y-82962380D01*
X70731428Y-82962380D01*
X70874285Y-82914761D01*
X70969523Y-82819523D01*
X71017142Y-82724285D01*
X71064761Y-82533809D01*
X71064761Y-82390952D01*
X71017142Y-82200476D01*
X70969523Y-82105238D01*
X70874285Y-82010000D01*
X70731428Y-81962380D01*
X70636190Y-81962380D01*
X70493333Y-82010000D01*
X70445714Y-82057619D01*
X69493333Y-82962380D02*
X70064761Y-82962380D01*
X69779047Y-82962380D02*
X69779047Y-81962380D01*
X69874285Y-82105238D01*
X69969523Y-82200476D01*
X70064761Y-82248095D01*
X69751904Y-133952380D02*
X69751904Y-134666666D01*
X69799523Y-134809523D01*
X69894761Y-134904761D01*
X70037619Y-134952380D01*
X70132857Y-134952380D01*
X69323333Y-134666666D02*
X68847142Y-134666666D01*
X69418571Y-134952380D02*
X69085238Y-133952380D01*
X68751904Y-134952380D01*
X67894761Y-134952380D02*
X68466190Y-134952380D01*
X68180476Y-134952380D02*
X68180476Y-133952380D01*
X68275714Y-134095238D01*
X68370952Y-134190476D01*
X68466190Y-134238095D01*
X92543333Y-133942380D02*
X92543333Y-134656666D01*
X92590952Y-134799523D01*
X92686190Y-134894761D01*
X92829047Y-134942380D01*
X92924285Y-134942380D01*
X91733809Y-134418571D02*
X91590952Y-134466190D01*
X91543333Y-134513809D01*
X91495714Y-134609047D01*
X91495714Y-134751904D01*
X91543333Y-134847142D01*
X91590952Y-134894761D01*
X91686190Y-134942380D01*
X92067142Y-134942380D01*
X92067142Y-133942380D01*
X91733809Y-133942380D01*
X91638571Y-133990000D01*
X91590952Y-134037619D01*
X91543333Y-134132857D01*
X91543333Y-134228095D01*
X91590952Y-134323333D01*
X91638571Y-134370952D01*
X91733809Y-134418571D01*
X92067142Y-134418571D01*
X90543333Y-134942380D02*
X91114761Y-134942380D01*
X90829047Y-134942380D02*
X90829047Y-133942380D01*
X90924285Y-134085238D01*
X91019523Y-134180476D01*
X91114761Y-134228095D01*
X111789523Y-126428571D02*
X111646666Y-126476190D01*
X111599047Y-126523809D01*
X111551428Y-126619047D01*
X111551428Y-126761904D01*
X111599047Y-126857142D01*
X111646666Y-126904761D01*
X111741904Y-126952380D01*
X112122857Y-126952380D01*
X112122857Y-125952380D01*
X111789523Y-125952380D01*
X111694285Y-126000000D01*
X111646666Y-126047619D01*
X111599047Y-126142857D01*
X111599047Y-126238095D01*
X111646666Y-126333333D01*
X111694285Y-126380952D01*
X111789523Y-126428571D01*
X112122857Y-126428571D01*
X111265714Y-125952380D02*
X110694285Y-125952380D01*
X110980000Y-126952380D02*
X110980000Y-125952380D01*
X110360952Y-126952380D02*
X110360952Y-125952380D01*
X109789523Y-126952380D01*
X109789523Y-125952380D01*
X109408571Y-125952380D02*
X108789523Y-125952380D01*
X109122857Y-126333333D01*
X108980000Y-126333333D01*
X108884761Y-126380952D01*
X108837142Y-126428571D01*
X108789523Y-126523809D01*
X108789523Y-126761904D01*
X108837142Y-126857142D01*
X108884761Y-126904761D01*
X108980000Y-126952380D01*
X109265714Y-126952380D01*
X109360952Y-126904761D01*
X109408571Y-126857142D01*
X111789523Y-131778571D02*
X111646666Y-131826190D01*
X111599047Y-131873809D01*
X111551428Y-131969047D01*
X111551428Y-132111904D01*
X111599047Y-132207142D01*
X111646666Y-132254761D01*
X111741904Y-132302380D01*
X112122857Y-132302380D01*
X112122857Y-131302380D01*
X111789523Y-131302380D01*
X111694285Y-131350000D01*
X111646666Y-131397619D01*
X111599047Y-131492857D01*
X111599047Y-131588095D01*
X111646666Y-131683333D01*
X111694285Y-131730952D01*
X111789523Y-131778571D01*
X112122857Y-131778571D01*
X111265714Y-131302380D02*
X110694285Y-131302380D01*
X110980000Y-132302380D02*
X110980000Y-131302380D01*
X110360952Y-132302380D02*
X110360952Y-131302380D01*
X109789523Y-132302380D01*
X109789523Y-131302380D01*
X109360952Y-131397619D02*
X109313333Y-131350000D01*
X109218095Y-131302380D01*
X108980000Y-131302380D01*
X108884761Y-131350000D01*
X108837142Y-131397619D01*
X108789523Y-131492857D01*
X108789523Y-131588095D01*
X108837142Y-131730952D01*
X109408571Y-132302380D01*
X108789523Y-132302380D01*
X74152380Y-94052380D02*
X74485714Y-93576190D01*
X74723809Y-94052380D02*
X74723809Y-93052380D01*
X74342857Y-93052380D01*
X74247619Y-93100000D01*
X74200000Y-93147619D01*
X74152380Y-93242857D01*
X74152380Y-93385714D01*
X74200000Y-93480952D01*
X74247619Y-93528571D01*
X74342857Y-93576190D01*
X74723809Y-93576190D01*
X73723809Y-93528571D02*
X73390476Y-93528571D01*
X73247619Y-94052380D02*
X73723809Y-94052380D01*
X73723809Y-93052380D01*
X73247619Y-93052380D01*
X72866666Y-94004761D02*
X72723809Y-94052380D01*
X72485714Y-94052380D01*
X72390476Y-94004761D01*
X72342857Y-93957142D01*
X72295238Y-93861904D01*
X72295238Y-93766666D01*
X72342857Y-93671428D01*
X72390476Y-93623809D01*
X72485714Y-93576190D01*
X72676190Y-93528571D01*
X72771428Y-93480952D01*
X72819047Y-93433333D01*
X72866666Y-93338095D01*
X72866666Y-93242857D01*
X72819047Y-93147619D01*
X72771428Y-93100000D01*
X72676190Y-93052380D01*
X72438095Y-93052380D01*
X72295238Y-93100000D01*
X71866666Y-93528571D02*
X71533333Y-93528571D01*
X71390476Y-94052380D02*
X71866666Y-94052380D01*
X71866666Y-93052380D01*
X71390476Y-93052380D01*
X71104761Y-93052380D02*
X70533333Y-93052380D01*
X70819047Y-94052380D02*
X70819047Y-93052380D01*
X33535714Y-88697619D02*
X34154761Y-88697619D01*
X33821428Y-88316666D01*
X33964285Y-88316666D01*
X34059523Y-88269047D01*
X34107142Y-88221428D01*
X34154761Y-88126190D01*
X34154761Y-87888095D01*
X34107142Y-87792857D01*
X34059523Y-87745238D01*
X33964285Y-87697619D01*
X33678571Y-87697619D01*
X33583333Y-87745238D01*
X33535714Y-87792857D01*
X34583333Y-87792857D02*
X34630952Y-87745238D01*
X34583333Y-87697619D01*
X34535714Y-87745238D01*
X34583333Y-87792857D01*
X34583333Y-87697619D01*
X34964285Y-88697619D02*
X35630952Y-88697619D01*
X35202380Y-87697619D01*
X36773809Y-88078571D02*
X37535714Y-88078571D01*
X39202380Y-88697619D02*
X39011904Y-88697619D01*
X38916666Y-88650000D01*
X38869047Y-88602380D01*
X38773809Y-88459523D01*
X38726190Y-88269047D01*
X38726190Y-87888095D01*
X38773809Y-87792857D01*
X38821428Y-87745238D01*
X38916666Y-87697619D01*
X39107142Y-87697619D01*
X39202380Y-87745238D01*
X39250000Y-87792857D01*
X39297619Y-87888095D01*
X39297619Y-88126190D01*
X39250000Y-88221428D01*
X39202380Y-88269047D01*
X39107142Y-88316666D01*
X38916666Y-88316666D01*
X38821428Y-88269047D01*
X38773809Y-88221428D01*
X38726190Y-88126190D01*
X40345238Y-88697619D02*
X40678571Y-87697619D01*
X41011904Y-88697619D01*
X41345238Y-87697619D02*
X41345238Y-88697619D01*
X41583333Y-88697619D01*
X41726190Y-88650000D01*
X41821428Y-88554761D01*
X41869047Y-88459523D01*
X41916666Y-88269047D01*
X41916666Y-88126190D01*
X41869047Y-87935714D01*
X41821428Y-87840476D01*
X41726190Y-87745238D01*
X41583333Y-87697619D01*
X41345238Y-87697619D01*
X42916666Y-87792857D02*
X42869047Y-87745238D01*
X42726190Y-87697619D01*
X42630952Y-87697619D01*
X42488095Y-87745238D01*
X42392857Y-87840476D01*
X42345238Y-87935714D01*
X42297619Y-88126190D01*
X42297619Y-88269047D01*
X42345238Y-88459523D01*
X42392857Y-88554761D01*
X42488095Y-88650000D01*
X42630952Y-88697619D01*
X42726190Y-88697619D01*
X42869047Y-88650000D01*
X42916666Y-88602380D01*
X39864285Y-87147619D02*
X40054761Y-87147619D01*
X40150000Y-87100000D01*
X40245238Y-87004761D01*
X40292857Y-86814285D01*
X40292857Y-86480952D01*
X40245238Y-86290476D01*
X40150000Y-86195238D01*
X40054761Y-86147619D01*
X39864285Y-86147619D01*
X39769047Y-86195238D01*
X39673809Y-86290476D01*
X39626190Y-86480952D01*
X39626190Y-86814285D01*
X39673809Y-87004761D01*
X39769047Y-87100000D01*
X39864285Y-87147619D01*
X41054761Y-86671428D02*
X40721428Y-86671428D01*
X40721428Y-86147619D02*
X40721428Y-87147619D01*
X41197619Y-87147619D01*
X41911904Y-86671428D02*
X41578571Y-86671428D01*
X41578571Y-86147619D02*
X41578571Y-87147619D01*
X42054761Y-87147619D01*
X47197619Y-87147619D02*
X47388095Y-87147619D01*
X47483333Y-87100000D01*
X47578571Y-87004761D01*
X47626190Y-86814285D01*
X47626190Y-86480952D01*
X47578571Y-86290476D01*
X47483333Y-86195238D01*
X47388095Y-86147619D01*
X47197619Y-86147619D01*
X47102380Y-86195238D01*
X47007142Y-86290476D01*
X46959523Y-86480952D01*
X46959523Y-86814285D01*
X47007142Y-87004761D01*
X47102380Y-87100000D01*
X47197619Y-87147619D01*
X48054761Y-86147619D02*
X48054761Y-87147619D01*
X48626190Y-86147619D01*
X48626190Y-87147619D01*
X38400000Y-99875000D02*
X36400000Y-99875000D01*
X36400000Y-96925000D02*
X38400000Y-96925000D01*
X81245000Y-105750000D02*
X81545000Y-105750000D01*
X81245000Y-111250000D02*
X81545000Y-111250000D01*
X86755000Y-111250000D02*
X86455000Y-111250000D01*
X86755000Y-105750000D02*
X86455000Y-105750000D01*
X81245000Y-105750000D02*
X81245000Y-111250000D01*
X86755000Y-105750000D02*
X86755000Y-111250000D01*
X81545000Y-105750000D02*
X81545000Y-104000000D01*
X92328249Y-116926777D02*
X92823223Y-117421751D01*
X93671751Y-116573223D02*
X93176777Y-116078249D01*
X92323223Y-99078249D02*
X91828249Y-99573223D01*
X92676777Y-100421751D02*
X93171751Y-99926777D01*
X74573223Y-115828249D02*
X74078249Y-116323223D01*
X74926777Y-117171751D02*
X75421751Y-116676777D01*
X79921751Y-100573223D02*
X79426777Y-100078249D01*
X78578249Y-100926777D02*
X79073223Y-101421751D01*
X89426777Y-97171751D02*
X89921751Y-96676777D01*
X89073223Y-95828249D02*
X88578249Y-96323223D01*
X77323223Y-114078249D02*
X76828249Y-114573223D01*
X77676777Y-115421751D02*
X78171751Y-114926777D01*
X90421751Y-115073223D02*
X89926777Y-114578249D01*
X89078249Y-115426777D02*
X89573223Y-115921751D01*
X78171751Y-102323223D02*
X77676777Y-101828249D01*
X76828249Y-102676777D02*
X77323223Y-103171751D01*
X93921751Y-111573223D02*
X93426777Y-111078249D01*
X92578249Y-111926777D02*
X93073223Y-112421751D01*
X79926777Y-122171751D02*
X80421751Y-121676777D01*
X79573223Y-120828249D02*
X79078249Y-121323223D01*
X70073223Y-111328249D02*
X69578249Y-111823223D01*
X70426777Y-112671751D02*
X70921751Y-112176777D01*
X97926777Y-105671751D02*
X98421751Y-105176777D01*
X97573223Y-104328249D02*
X97078249Y-104823223D01*
X91671751Y-118573223D02*
X91176777Y-118078249D01*
X90328249Y-118926777D02*
X90823223Y-119421751D01*
X80421751Y-95323223D02*
X79926777Y-94828249D01*
X79078249Y-95676777D02*
X79573223Y-96171751D01*
X75823223Y-112578249D02*
X75328249Y-113073223D01*
X76176777Y-113921751D02*
X76671751Y-113426777D01*
X85926777Y-98421751D02*
X86421751Y-97926777D01*
X85573223Y-97078249D02*
X85078249Y-97573223D01*
X90573223Y-102078249D02*
X90078249Y-102573223D01*
X90926777Y-103421751D02*
X91421751Y-102926777D01*
X89176777Y-101671751D02*
X89671751Y-101176777D01*
X88823223Y-100328249D02*
X88328249Y-100823223D01*
X86676777Y-94171751D02*
X87171751Y-93676777D01*
X86323223Y-92828249D02*
X85828249Y-93323223D01*
X90578249Y-113926777D02*
X91073223Y-114421751D01*
X91921751Y-113573223D02*
X91426777Y-113078249D01*
X73071751Y-102723223D02*
X72576777Y-102228249D01*
X71728249Y-103076777D02*
X72223223Y-103571751D01*
X74328249Y-97176777D02*
X74823223Y-97671751D01*
X75671751Y-96823223D02*
X75176777Y-96328249D01*
X73671751Y-98823223D02*
X73176777Y-98328249D01*
X72328249Y-99176777D02*
X72823223Y-99671751D01*
X44900000Y-106350000D02*
X45600000Y-106350000D01*
X45600000Y-105150000D02*
X44900000Y-105150000D01*
X39400000Y-106350000D02*
X40100000Y-106350000D01*
X40100000Y-105150000D02*
X39400000Y-105150000D01*
X44600000Y-117850000D02*
X44600000Y-117150000D01*
X43400000Y-117150000D02*
X43400000Y-117850000D01*
X54350000Y-106650000D02*
X53650000Y-106650000D01*
X53650000Y-107850000D02*
X54350000Y-107850000D01*
X53600000Y-120650000D02*
X52900000Y-120650000D01*
X52900000Y-121850000D02*
X53600000Y-121850000D01*
X49900000Y-107850000D02*
X50600000Y-107850000D01*
X50600000Y-106650000D02*
X49900000Y-106650000D01*
X49400000Y-121850000D02*
X50100000Y-121850000D01*
X50100000Y-120650000D02*
X49400000Y-120650000D01*
X66100000Y-101150000D02*
X65400000Y-101150000D01*
X65400000Y-102350000D02*
X66100000Y-102350000D01*
X51850000Y-93100000D02*
X51850000Y-92400000D01*
X50650000Y-92400000D02*
X50650000Y-93100000D01*
X61600000Y-101150000D02*
X60900000Y-101150000D01*
X60900000Y-102350000D02*
X61600000Y-102350000D01*
X53850000Y-88400000D02*
X53150000Y-88400000D01*
X53150000Y-89600000D02*
X53850000Y-89600000D01*
X62475000Y-117500000D02*
X62475000Y-115500000D01*
X64525000Y-115500000D02*
X64525000Y-117500000D01*
X64250000Y-96225000D02*
X66250000Y-96225000D01*
X66250000Y-98275000D02*
X64250000Y-98275000D01*
X102900000Y-108400000D02*
X102900000Y-109100000D01*
X104100000Y-109100000D02*
X104100000Y-108400000D01*
X113900000Y-108150000D02*
X113900000Y-108850000D01*
X115100000Y-108850000D02*
X115100000Y-108150000D01*
X81900000Y-114750000D02*
X81900000Y-115450000D01*
X83100000Y-115450000D02*
X83100000Y-114750000D01*
X58180000Y-87060000D02*
X58180000Y-87060000D01*
X59360000Y-87060000D02*
X58180000Y-87060000D01*
X59360000Y-87060000D02*
X59360000Y-87060000D01*
X59360000Y-88900000D02*
X59360000Y-87060000D01*
X58180000Y-88900000D02*
X59360000Y-88900000D01*
X58180000Y-87070000D02*
X58180000Y-88900000D01*
X59180711Y-87360000D02*
G75*
G03X59180711Y-87360000I-70711J0D01*
G01*
X80460711Y-129640000D02*
G75*
G03X80460711Y-129640000I-70711J0D01*
G01*
X81320000Y-129930000D02*
X81320000Y-128100000D01*
X81320000Y-128100000D02*
X80140000Y-128100000D01*
X80140000Y-128100000D02*
X80140000Y-129940000D01*
X80140000Y-129940000D02*
X80140000Y-129940000D01*
X80140000Y-129940000D02*
X81320000Y-129940000D01*
X81320000Y-129940000D02*
X81320000Y-129940000D01*
X80180000Y-136310000D02*
X80180000Y-136310000D01*
X81360000Y-136310000D02*
X80180000Y-136310000D01*
X81360000Y-136310000D02*
X81360000Y-136310000D01*
X81360000Y-138150000D02*
X81360000Y-136310000D01*
X80180000Y-138150000D02*
X81360000Y-138150000D01*
X80180000Y-136320000D02*
X80180000Y-138150000D01*
X81180711Y-136610000D02*
G75*
G03X81180711Y-136610000I-70711J0D01*
G01*
X58460711Y-80390000D02*
G75*
G03X58460711Y-80390000I-70711J0D01*
G01*
X59320000Y-80680000D02*
X59320000Y-78850000D01*
X59320000Y-78850000D02*
X58140000Y-78850000D01*
X58140000Y-78850000D02*
X58140000Y-80690000D01*
X58140000Y-80690000D02*
X58140000Y-80690000D01*
X58140000Y-80690000D02*
X59320000Y-80690000D01*
X59320000Y-80690000D02*
X59320000Y-80690000D01*
X104320000Y-129940000D02*
X104320000Y-129940000D01*
X103140000Y-129940000D02*
X104320000Y-129940000D01*
X103140000Y-129940000D02*
X103140000Y-129940000D01*
X103140000Y-128100000D02*
X103140000Y-129940000D01*
X104320000Y-128100000D02*
X103140000Y-128100000D01*
X104320000Y-129930000D02*
X104320000Y-128100000D01*
X103460711Y-129640000D02*
G75*
G03X103460711Y-129640000I-70711J0D01*
G01*
X104180000Y-87060000D02*
X104180000Y-87060000D01*
X105360000Y-87060000D02*
X104180000Y-87060000D01*
X105360000Y-87060000D02*
X105360000Y-87060000D01*
X105360000Y-88900000D02*
X105360000Y-87060000D01*
X104180000Y-88900000D02*
X105360000Y-88900000D01*
X104180000Y-87070000D02*
X104180000Y-88900000D01*
X105180711Y-87360000D02*
G75*
G03X105180711Y-87360000I-70711J0D01*
G01*
X81180000Y-87060000D02*
X81180000Y-87060000D01*
X82360000Y-87060000D02*
X81180000Y-87060000D01*
X82360000Y-87060000D02*
X82360000Y-87060000D01*
X82360000Y-88900000D02*
X82360000Y-87060000D01*
X81180000Y-88900000D02*
X82360000Y-88900000D01*
X81180000Y-87070000D02*
X81180000Y-88900000D01*
X82180711Y-87360000D02*
G75*
G03X82180711Y-87360000I-70711J0D01*
G01*
X104460711Y-80390000D02*
G75*
G03X104460711Y-80390000I-70711J0D01*
G01*
X105320000Y-80680000D02*
X105320000Y-78850000D01*
X105320000Y-78850000D02*
X104140000Y-78850000D01*
X104140000Y-78850000D02*
X104140000Y-80690000D01*
X104140000Y-80690000D02*
X104140000Y-80690000D01*
X104140000Y-80690000D02*
X105320000Y-80690000D01*
X105320000Y-80690000D02*
X105320000Y-80690000D01*
X81460711Y-80390000D02*
G75*
G03X81460711Y-80390000I-70711J0D01*
G01*
X82320000Y-80680000D02*
X82320000Y-78850000D01*
X82320000Y-78850000D02*
X81140000Y-78850000D01*
X81140000Y-78850000D02*
X81140000Y-80690000D01*
X81140000Y-80690000D02*
X81140000Y-80690000D01*
X81140000Y-80690000D02*
X82320000Y-80690000D01*
X82320000Y-80690000D02*
X82320000Y-80690000D01*
X104180711Y-136610000D02*
G75*
G03X104180711Y-136610000I-70711J0D01*
G01*
X103180000Y-136320000D02*
X103180000Y-138150000D01*
X103180000Y-138150000D02*
X104360000Y-138150000D01*
X104360000Y-138150000D02*
X104360000Y-136310000D01*
X104360000Y-136310000D02*
X104360000Y-136310000D01*
X104360000Y-136310000D02*
X103180000Y-136310000D01*
X103180000Y-136310000D02*
X103180000Y-136310000D01*
X69373744Y-105330850D02*
X70080850Y-104623744D01*
X69126256Y-103669150D02*
X68419150Y-104376256D01*
X82825000Y-92250000D02*
X82825000Y-93250000D01*
X84175000Y-93250000D02*
X84175000Y-92250000D01*
X81675000Y-93250000D02*
X81675000Y-92250000D01*
X80325000Y-92250000D02*
X80325000Y-93250000D01*
X98750000Y-109175000D02*
X99750000Y-109175000D01*
X99750000Y-107825000D02*
X98750000Y-107825000D01*
X43325000Y-112000000D02*
X43325000Y-113000000D01*
X44675000Y-113000000D02*
X44675000Y-112000000D01*
X47075000Y-117000000D02*
X47075000Y-118000000D01*
X48425000Y-118000000D02*
X48425000Y-117000000D01*
X78500000Y-108675000D02*
X79500000Y-108675000D01*
X79500000Y-107325000D02*
X78500000Y-107325000D01*
X83175000Y-102500000D02*
X83175000Y-101500000D01*
X81825000Y-101500000D02*
X81825000Y-102500000D01*
X78500000Y-106275000D02*
X79500000Y-106275000D01*
X79500000Y-104925000D02*
X78500000Y-104925000D01*
X84825000Y-101500000D02*
X84825000Y-102500000D01*
X86175000Y-102500000D02*
X86175000Y-101500000D01*
X88500000Y-106275000D02*
X89500000Y-106275000D01*
X89500000Y-104925000D02*
X88500000Y-104925000D01*
X78500000Y-111075000D02*
X79500000Y-111075000D01*
X79500000Y-109725000D02*
X78500000Y-109725000D01*
X89500000Y-107325000D02*
X88500000Y-107325000D01*
X88500000Y-108675000D02*
X89500000Y-108675000D01*
X89500000Y-109725000D02*
X88500000Y-109725000D01*
X88500000Y-111075000D02*
X89500000Y-111075000D01*
X84825000Y-114500000D02*
X84825000Y-115500000D01*
X86175000Y-115500000D02*
X86175000Y-114500000D01*
X116530500Y-95425000D02*
X117530500Y-95425000D01*
X117530500Y-94075000D02*
X116530500Y-94075000D01*
X116500000Y-98925000D02*
X117500000Y-98925000D01*
X117500000Y-97575000D02*
X116500000Y-97575000D01*
X116500000Y-102425000D02*
X117500000Y-102425000D01*
X117500000Y-101075000D02*
X116500000Y-101075000D01*
X116500000Y-105925000D02*
X117500000Y-105925000D01*
X117500000Y-104575000D02*
X116500000Y-104575000D01*
X117500000Y-108075000D02*
X116500000Y-108075000D01*
X116500000Y-109425000D02*
X117500000Y-109425000D01*
X117500000Y-111575000D02*
X116500000Y-111575000D01*
X116500000Y-112925000D02*
X117500000Y-112925000D01*
X117500000Y-115075000D02*
X116500000Y-115075000D01*
X116500000Y-116425000D02*
X117500000Y-116425000D01*
X116500000Y-119925000D02*
X117500000Y-119925000D01*
X117500000Y-118575000D02*
X116500000Y-118575000D01*
X117500000Y-122075000D02*
X116500000Y-122075000D01*
X116500000Y-123425000D02*
X117500000Y-123425000D01*
X117250000Y-132825000D02*
X116250000Y-132825000D01*
X116250000Y-134175000D02*
X117250000Y-134175000D01*
X117250000Y-127825000D02*
X116250000Y-127825000D01*
X116250000Y-129175000D02*
X117250000Y-129175000D01*
X117250000Y-130325000D02*
X116250000Y-130325000D01*
X116250000Y-131675000D02*
X117250000Y-131675000D01*
X116250000Y-126675000D02*
X117250000Y-126675000D01*
X117250000Y-125325000D02*
X116250000Y-125325000D01*
X59786000Y-90694000D02*
X59024000Y-90694000D01*
X62072000Y-92218000D02*
X59786000Y-90694000D01*
X62072000Y-96282000D02*
X62072000Y-92218000D01*
X59786000Y-97806000D02*
X62072000Y-96282000D01*
X59024000Y-97806000D02*
X59786000Y-97806000D01*
X52928000Y-90694000D02*
X55976000Y-90694000D01*
X52928000Y-97806000D02*
X52928000Y-90694000D01*
X55976000Y-97806000D02*
X52928000Y-97806000D01*
X59944000Y-106726000D02*
X59944000Y-103678000D01*
X59944000Y-103678000D02*
X67056000Y-103678000D01*
X67056000Y-103678000D02*
X67056000Y-106726000D01*
X59944000Y-109774000D02*
X59944000Y-110536000D01*
X59944000Y-110536000D02*
X61468000Y-112822000D01*
X61468000Y-112822000D02*
X65532000Y-112822000D01*
X65532000Y-112822000D02*
X67056000Y-110536000D01*
X67056000Y-110536000D02*
X67056000Y-109774000D01*
X67825000Y-117500000D02*
X67825000Y-115500000D01*
X65675000Y-115500000D02*
X65675000Y-117500000D01*
X64250000Y-95325000D02*
X66250000Y-95325000D01*
X66250000Y-93175000D02*
X64250000Y-93175000D01*
X38042857Y-96507142D02*
X38090476Y-96554761D01*
X38233333Y-96602380D01*
X38328571Y-96602380D01*
X38471428Y-96554761D01*
X38566666Y-96459523D01*
X38614285Y-96364285D01*
X38661904Y-96173809D01*
X38661904Y-96030952D01*
X38614285Y-95840476D01*
X38566666Y-95745238D01*
X38471428Y-95650000D01*
X38328571Y-95602380D01*
X38233333Y-95602380D01*
X38090476Y-95650000D01*
X38042857Y-95697619D01*
X37185714Y-95935714D02*
X37185714Y-96602380D01*
X37423809Y-95554761D02*
X37661904Y-96269047D01*
X37042857Y-96269047D01*
X36471428Y-95602380D02*
X36376190Y-95602380D01*
X36280952Y-95650000D01*
X36233333Y-95697619D01*
X36185714Y-95792857D01*
X36138095Y-95983333D01*
X36138095Y-96221428D01*
X36185714Y-96411904D01*
X36233333Y-96507142D01*
X36280952Y-96554761D01*
X36376190Y-96602380D01*
X36471428Y-96602380D01*
X36566666Y-96554761D01*
X36614285Y-96507142D01*
X36661904Y-96411904D01*
X36709523Y-96221428D01*
X36709523Y-95983333D01*
X36661904Y-95792857D01*
X36614285Y-95697619D01*
X36566666Y-95650000D01*
X36471428Y-95602380D01*
X81461904Y-102652380D02*
X81461904Y-103461904D01*
X81414285Y-103557142D01*
X81366666Y-103604761D01*
X81271428Y-103652380D01*
X81080952Y-103652380D01*
X80985714Y-103604761D01*
X80938095Y-103557142D01*
X80890476Y-103461904D01*
X80890476Y-102652380D01*
X80509523Y-102652380D02*
X79842857Y-102652380D01*
X80271428Y-103652380D01*
X94615312Y-118870389D02*
X94615312Y-118937732D01*
X94682656Y-119072419D01*
X94750000Y-119139763D01*
X94884687Y-119207106D01*
X95019374Y-119207106D01*
X95120389Y-119173435D01*
X95288748Y-119072419D01*
X95389763Y-118971404D01*
X95490778Y-118803045D01*
X95524450Y-118702030D01*
X95524450Y-118567343D01*
X95457106Y-118432656D01*
X95389763Y-118365312D01*
X95255076Y-118297969D01*
X95187732Y-118297969D01*
X93874534Y-118264297D02*
X94278595Y-118668358D01*
X94076564Y-118466328D02*
X94783671Y-117759221D01*
X94750000Y-117927580D01*
X94750000Y-118062267D01*
X94783671Y-118163282D01*
X91870389Y-98884687D02*
X91937732Y-98884687D01*
X92072419Y-98817343D01*
X92139763Y-98750000D01*
X92207106Y-98615312D01*
X92207106Y-98480625D01*
X92173435Y-98379610D01*
X92072419Y-98211251D01*
X91971404Y-98110236D01*
X91803045Y-98009221D01*
X91702030Y-97975549D01*
X91567343Y-97975549D01*
X91432656Y-98042893D01*
X91365312Y-98110236D01*
X91297969Y-98244923D01*
X91297969Y-98312267D01*
X91028595Y-98581641D02*
X90961251Y-98581641D01*
X90860236Y-98615312D01*
X90691877Y-98783671D01*
X90658206Y-98884687D01*
X90658206Y-98952030D01*
X90691877Y-99053045D01*
X90759221Y-99120389D01*
X90893908Y-99187732D01*
X91702030Y-99187732D01*
X91264297Y-99625465D01*
X74120389Y-115634687D02*
X74187732Y-115634687D01*
X74322419Y-115567343D01*
X74389763Y-115500000D01*
X74457106Y-115365312D01*
X74457106Y-115230625D01*
X74423435Y-115129610D01*
X74322419Y-114961251D01*
X74221404Y-114860236D01*
X74053045Y-114759221D01*
X73952030Y-114725549D01*
X73817343Y-114725549D01*
X73682656Y-114792893D01*
X73615312Y-114860236D01*
X73547969Y-114994923D01*
X73547969Y-115062267D01*
X73244923Y-115230625D02*
X72807190Y-115668358D01*
X73312267Y-115702030D01*
X73211251Y-115803045D01*
X73177580Y-115904061D01*
X73177580Y-115971404D01*
X73211251Y-116072419D01*
X73379610Y-116240778D01*
X73480625Y-116274450D01*
X73547969Y-116274450D01*
X73648984Y-116240778D01*
X73851015Y-116038748D01*
X73884687Y-115937732D01*
X73884687Y-115870389D01*
X80115312Y-100120389D02*
X80115312Y-100187732D01*
X80182656Y-100322419D01*
X80250000Y-100389763D01*
X80384687Y-100457106D01*
X80519374Y-100457106D01*
X80620389Y-100423435D01*
X80788748Y-100322419D01*
X80889763Y-100221404D01*
X80990778Y-100053045D01*
X81024450Y-99952030D01*
X81024450Y-99817343D01*
X80957106Y-99682656D01*
X80889763Y-99615312D01*
X80755076Y-99547969D01*
X80687732Y-99547969D01*
X79913282Y-99110236D02*
X79441877Y-99581641D01*
X80351015Y-99009221D02*
X80014297Y-99682656D01*
X79576564Y-99244923D01*
X88620389Y-95634687D02*
X88687732Y-95634687D01*
X88822419Y-95567343D01*
X88889763Y-95500000D01*
X88957106Y-95365312D01*
X88957106Y-95230625D01*
X88923435Y-95129610D01*
X88822419Y-94961251D01*
X88721404Y-94860236D01*
X88553045Y-94759221D01*
X88452030Y-94725549D01*
X88317343Y-94725549D01*
X88182656Y-94792893D01*
X88115312Y-94860236D01*
X88047969Y-94994923D01*
X88047969Y-95062267D01*
X87340862Y-95634687D02*
X87677580Y-95297969D01*
X88047969Y-95601015D01*
X87980625Y-95601015D01*
X87879610Y-95634687D01*
X87711251Y-95803045D01*
X87677580Y-95904061D01*
X87677580Y-95971404D01*
X87711251Y-96072419D01*
X87879610Y-96240778D01*
X87980625Y-96274450D01*
X88047969Y-96274450D01*
X88148984Y-96240778D01*
X88317343Y-96072419D01*
X88351015Y-95971404D01*
X88351015Y-95904061D01*
X78870389Y-115884687D02*
X78937732Y-115884687D01*
X79072419Y-115817343D01*
X79139763Y-115750000D01*
X79207106Y-115615312D01*
X79207106Y-115480625D01*
X79173435Y-115379610D01*
X79072419Y-115211251D01*
X78971404Y-115110236D01*
X78803045Y-115009221D01*
X78702030Y-114975549D01*
X78567343Y-114975549D01*
X78432656Y-115042893D01*
X78365312Y-115110236D01*
X78297969Y-115244923D01*
X78297969Y-115312267D01*
X77624534Y-115851015D02*
X77759221Y-115716328D01*
X77860236Y-115682656D01*
X77927580Y-115682656D01*
X78095938Y-115716328D01*
X78264297Y-115817343D01*
X78533671Y-116086717D01*
X78567343Y-116187732D01*
X78567343Y-116255076D01*
X78533671Y-116356091D01*
X78398984Y-116490778D01*
X78297969Y-116524450D01*
X78230625Y-116524450D01*
X78129610Y-116490778D01*
X77961251Y-116322419D01*
X77927580Y-116221404D01*
X77927580Y-116154061D01*
X77961251Y-116053045D01*
X78095938Y-115918358D01*
X78196954Y-115884687D01*
X78264297Y-115884687D01*
X78365312Y-115918358D01*
X88615312Y-116620389D02*
X88615312Y-116687732D01*
X88682656Y-116822419D01*
X88750000Y-116889763D01*
X88884687Y-116957106D01*
X89019374Y-116957106D01*
X89120389Y-116923435D01*
X89288748Y-116822419D01*
X89389763Y-116721404D01*
X89490778Y-116553045D01*
X89524450Y-116452030D01*
X89524450Y-116317343D01*
X89457106Y-116182656D01*
X89389763Y-116115312D01*
X89255076Y-116047969D01*
X89187732Y-116047969D01*
X89019374Y-115744923D02*
X88547969Y-115273519D01*
X88143908Y-116283671D01*
X76365312Y-103870389D02*
X76365312Y-103937732D01*
X76432656Y-104072419D01*
X76500000Y-104139763D01*
X76634687Y-104207106D01*
X76769374Y-104207106D01*
X76870389Y-104173435D01*
X77038748Y-104072419D01*
X77139763Y-103971404D01*
X77240778Y-103803045D01*
X77274450Y-103702030D01*
X77274450Y-103567343D01*
X77207106Y-103432656D01*
X77139763Y-103365312D01*
X77005076Y-103297969D01*
X76937732Y-103297969D01*
X76297969Y-103129610D02*
X76398984Y-103163282D01*
X76466328Y-103163282D01*
X76567343Y-103129610D01*
X76601015Y-103095938D01*
X76634687Y-102994923D01*
X76634687Y-102927580D01*
X76601015Y-102826564D01*
X76466328Y-102691877D01*
X76365312Y-102658206D01*
X76297969Y-102658206D01*
X76196954Y-102691877D01*
X76163282Y-102725549D01*
X76129610Y-102826564D01*
X76129610Y-102893908D01*
X76163282Y-102994923D01*
X76297969Y-103129610D01*
X76331641Y-103230625D01*
X76331641Y-103297969D01*
X76297969Y-103398984D01*
X76163282Y-103533671D01*
X76062267Y-103567343D01*
X75994923Y-103567343D01*
X75893908Y-103533671D01*
X75759221Y-103398984D01*
X75725549Y-103297969D01*
X75725549Y-103230625D01*
X75759221Y-103129610D01*
X75893908Y-102994923D01*
X75994923Y-102961251D01*
X76062267Y-102961251D01*
X76163282Y-102994923D01*
X94115312Y-111120389D02*
X94115312Y-111187732D01*
X94182656Y-111322419D01*
X94250000Y-111389763D01*
X94384687Y-111457106D01*
X94519374Y-111457106D01*
X94620389Y-111423435D01*
X94788748Y-111322419D01*
X94889763Y-111221404D01*
X94990778Y-111053045D01*
X95024450Y-110952030D01*
X95024450Y-110817343D01*
X94957106Y-110682656D01*
X94889763Y-110615312D01*
X94755076Y-110547969D01*
X94687732Y-110547969D01*
X93711251Y-110851015D02*
X93576564Y-110716328D01*
X93542893Y-110615312D01*
X93542893Y-110547969D01*
X93576564Y-110379610D01*
X93677580Y-110211251D01*
X93946954Y-109941877D01*
X94047969Y-109908206D01*
X94115312Y-109908206D01*
X94216328Y-109941877D01*
X94351015Y-110076564D01*
X94384687Y-110177580D01*
X94384687Y-110244923D01*
X94351015Y-110345938D01*
X94182656Y-110514297D01*
X94081641Y-110547969D01*
X94014297Y-110547969D01*
X93913282Y-110514297D01*
X93778595Y-110379610D01*
X93744923Y-110278595D01*
X93744923Y-110211251D01*
X93778595Y-110110236D01*
X79457106Y-120297969D02*
X79524450Y-120297969D01*
X79659137Y-120230625D01*
X79726480Y-120163282D01*
X79793824Y-120028595D01*
X79793824Y-119893908D01*
X79760152Y-119792893D01*
X79659137Y-119624534D01*
X79558122Y-119523519D01*
X79389763Y-119422503D01*
X79288748Y-119388832D01*
X79154061Y-119388832D01*
X79019374Y-119456175D01*
X78952030Y-119523519D01*
X78884687Y-119658206D01*
X78884687Y-119725549D01*
X78851015Y-121038748D02*
X79255076Y-120634687D01*
X79053045Y-120836717D02*
X78345938Y-120129610D01*
X78514297Y-120163282D01*
X78648984Y-120163282D01*
X78750000Y-120129610D01*
X77706175Y-120769374D02*
X77638832Y-120836717D01*
X77605160Y-120937732D01*
X77605160Y-121005076D01*
X77638832Y-121106091D01*
X77739847Y-121274450D01*
X77908206Y-121442809D01*
X78076564Y-121543824D01*
X78177580Y-121577496D01*
X78244923Y-121577496D01*
X78345938Y-121543824D01*
X78413282Y-121476480D01*
X78446954Y-121375465D01*
X78446954Y-121308122D01*
X78413282Y-121207106D01*
X78312267Y-121038748D01*
X78143908Y-120870389D01*
X77975549Y-120769374D01*
X77874534Y-120735702D01*
X77807190Y-120735702D01*
X77706175Y-120769374D01*
X69957106Y-110797969D02*
X70024450Y-110797969D01*
X70159137Y-110730625D01*
X70226480Y-110663282D01*
X70293824Y-110528595D01*
X70293824Y-110393908D01*
X70260152Y-110292893D01*
X70159137Y-110124534D01*
X70058122Y-110023519D01*
X69889763Y-109922503D01*
X69788748Y-109888832D01*
X69654061Y-109888832D01*
X69519374Y-109956175D01*
X69452030Y-110023519D01*
X69384687Y-110158206D01*
X69384687Y-110225549D01*
X69351015Y-111538748D02*
X69755076Y-111134687D01*
X69553045Y-111336717D02*
X68845938Y-110629610D01*
X69014297Y-110663282D01*
X69148984Y-110663282D01*
X69250000Y-110629610D01*
X68677580Y-112212183D02*
X69081641Y-111808122D01*
X68879610Y-112010152D02*
X68172503Y-111303045D01*
X68340862Y-111336717D01*
X68475549Y-111336717D01*
X68576564Y-111303045D01*
X97457106Y-103797969D02*
X97524450Y-103797969D01*
X97659137Y-103730625D01*
X97726480Y-103663282D01*
X97793824Y-103528595D01*
X97793824Y-103393908D01*
X97760152Y-103292893D01*
X97659137Y-103124534D01*
X97558122Y-103023519D01*
X97389763Y-102922503D01*
X97288748Y-102888832D01*
X97154061Y-102888832D01*
X97019374Y-102956175D01*
X96952030Y-103023519D01*
X96884687Y-103158206D01*
X96884687Y-103225549D01*
X96851015Y-104538748D02*
X97255076Y-104134687D01*
X97053045Y-104336717D02*
X96345938Y-103629610D01*
X96514297Y-103663282D01*
X96648984Y-103663282D01*
X96750000Y-103629610D01*
X95941877Y-104168358D02*
X95874534Y-104168358D01*
X95773519Y-104202030D01*
X95605160Y-104370389D01*
X95571488Y-104471404D01*
X95571488Y-104538748D01*
X95605160Y-104639763D01*
X95672503Y-104707106D01*
X95807190Y-104774450D01*
X96615312Y-104774450D01*
X96177580Y-105212183D01*
X89952030Y-120707106D02*
X89952030Y-120774450D01*
X90019374Y-120909137D01*
X90086717Y-120976480D01*
X90221404Y-121043824D01*
X90356091Y-121043824D01*
X90457106Y-121010152D01*
X90625465Y-120909137D01*
X90726480Y-120808122D01*
X90827496Y-120639763D01*
X90861167Y-120538748D01*
X90861167Y-120404061D01*
X90793824Y-120269374D01*
X90726480Y-120202030D01*
X90591793Y-120134687D01*
X90524450Y-120134687D01*
X89211251Y-120101015D02*
X89615312Y-120505076D01*
X89413282Y-120303045D02*
X90120389Y-119595938D01*
X90086717Y-119764297D01*
X90086717Y-119898984D01*
X90120389Y-120000000D01*
X89682656Y-119158206D02*
X89244923Y-118720473D01*
X89211251Y-119225549D01*
X89110236Y-119124534D01*
X89009221Y-119090862D01*
X88941877Y-119090862D01*
X88840862Y-119124534D01*
X88672503Y-119292893D01*
X88638832Y-119393908D01*
X88638832Y-119461251D01*
X88672503Y-119562267D01*
X88874534Y-119764297D01*
X88975549Y-119797969D01*
X89042893Y-119797969D01*
X78952030Y-97207106D02*
X78952030Y-97274450D01*
X79019374Y-97409137D01*
X79086717Y-97476480D01*
X79221404Y-97543824D01*
X79356091Y-97543824D01*
X79457106Y-97510152D01*
X79625465Y-97409137D01*
X79726480Y-97308122D01*
X79827496Y-97139763D01*
X79861167Y-97038748D01*
X79861167Y-96904061D01*
X79793824Y-96769374D01*
X79726480Y-96702030D01*
X79591793Y-96634687D01*
X79524450Y-96634687D01*
X78211251Y-96601015D02*
X78615312Y-97005076D01*
X78413282Y-96803045D02*
X79120389Y-96095938D01*
X79086717Y-96264297D01*
X79086717Y-96398984D01*
X79120389Y-96500000D01*
X78076564Y-95523519D02*
X77605160Y-95994923D01*
X78514297Y-95422503D02*
X78177580Y-96095938D01*
X77739847Y-95658206D01*
X75707106Y-112047969D02*
X75774450Y-112047969D01*
X75909137Y-111980625D01*
X75976480Y-111913282D01*
X76043824Y-111778595D01*
X76043824Y-111643908D01*
X76010152Y-111542893D01*
X75909137Y-111374534D01*
X75808122Y-111273519D01*
X75639763Y-111172503D01*
X75538748Y-111138832D01*
X75404061Y-111138832D01*
X75269374Y-111206175D01*
X75202030Y-111273519D01*
X75134687Y-111408206D01*
X75134687Y-111475549D01*
X75101015Y-112788748D02*
X75505076Y-112384687D01*
X75303045Y-112586717D02*
X74595938Y-111879610D01*
X74764297Y-111913282D01*
X74898984Y-111913282D01*
X75000000Y-111879610D01*
X73754145Y-112721404D02*
X74090862Y-112384687D01*
X74461251Y-112687732D01*
X74393908Y-112687732D01*
X74292893Y-112721404D01*
X74124534Y-112889763D01*
X74090862Y-112990778D01*
X74090862Y-113058122D01*
X74124534Y-113159137D01*
X74292893Y-113327496D01*
X74393908Y-113361167D01*
X74461251Y-113361167D01*
X74562267Y-113327496D01*
X74730625Y-113159137D01*
X74764297Y-113058122D01*
X74764297Y-112990778D01*
X85457106Y-96547969D02*
X85524450Y-96547969D01*
X85659137Y-96480625D01*
X85726480Y-96413282D01*
X85793824Y-96278595D01*
X85793824Y-96143908D01*
X85760152Y-96042893D01*
X85659137Y-95874534D01*
X85558122Y-95773519D01*
X85389763Y-95672503D01*
X85288748Y-95638832D01*
X85154061Y-95638832D01*
X85019374Y-95706175D01*
X84952030Y-95773519D01*
X84884687Y-95908206D01*
X84884687Y-95975549D01*
X84851015Y-97288748D02*
X85255076Y-96884687D01*
X85053045Y-97086717D02*
X84345938Y-96379610D01*
X84514297Y-96413282D01*
X84648984Y-96413282D01*
X84750000Y-96379610D01*
X83537816Y-97187732D02*
X83672503Y-97053045D01*
X83773519Y-97019374D01*
X83840862Y-97019374D01*
X84009221Y-97053045D01*
X84177580Y-97154061D01*
X84446954Y-97423435D01*
X84480625Y-97524450D01*
X84480625Y-97591793D01*
X84446954Y-97692809D01*
X84312267Y-97827496D01*
X84211251Y-97861167D01*
X84143908Y-97861167D01*
X84042893Y-97827496D01*
X83874534Y-97659137D01*
X83840862Y-97558122D01*
X83840862Y-97490778D01*
X83874534Y-97389763D01*
X84009221Y-97255076D01*
X84110236Y-97221404D01*
X84177580Y-97221404D01*
X84278595Y-97255076D01*
X92457106Y-103547969D02*
X92524450Y-103547969D01*
X92659137Y-103480625D01*
X92726480Y-103413282D01*
X92793824Y-103278595D01*
X92793824Y-103143908D01*
X92760152Y-103042893D01*
X92659137Y-102874534D01*
X92558122Y-102773519D01*
X92389763Y-102672503D01*
X92288748Y-102638832D01*
X92154061Y-102638832D01*
X92019374Y-102706175D01*
X91952030Y-102773519D01*
X91884687Y-102908206D01*
X91884687Y-102975549D01*
X91851015Y-104288748D02*
X92255076Y-103884687D01*
X92053045Y-104086717D02*
X91345938Y-103379610D01*
X91514297Y-103413282D01*
X91648984Y-103413282D01*
X91750000Y-103379610D01*
X90908206Y-103817343D02*
X90436801Y-104288748D01*
X91446954Y-104692809D01*
X88707106Y-99797969D02*
X88774450Y-99797969D01*
X88909137Y-99730625D01*
X88976480Y-99663282D01*
X89043824Y-99528595D01*
X89043824Y-99393908D01*
X89010152Y-99292893D01*
X88909137Y-99124534D01*
X88808122Y-99023519D01*
X88639763Y-98922503D01*
X88538748Y-98888832D01*
X88404061Y-98888832D01*
X88269374Y-98956175D01*
X88202030Y-99023519D01*
X88134687Y-99158206D01*
X88134687Y-99225549D01*
X88101015Y-100538748D02*
X88505076Y-100134687D01*
X88303045Y-100336717D02*
X87595938Y-99629610D01*
X87764297Y-99663282D01*
X87898984Y-99663282D01*
X88000000Y-99629610D01*
X87292893Y-100538748D02*
X87326564Y-100437732D01*
X87326564Y-100370389D01*
X87292893Y-100269374D01*
X87259221Y-100235702D01*
X87158206Y-100202030D01*
X87090862Y-100202030D01*
X86989847Y-100235702D01*
X86855160Y-100370389D01*
X86821488Y-100471404D01*
X86821488Y-100538748D01*
X86855160Y-100639763D01*
X86888832Y-100673435D01*
X86989847Y-100707106D01*
X87057190Y-100707106D01*
X87158206Y-100673435D01*
X87292893Y-100538748D01*
X87393908Y-100505076D01*
X87461251Y-100505076D01*
X87562267Y-100538748D01*
X87696954Y-100673435D01*
X87730625Y-100774450D01*
X87730625Y-100841793D01*
X87696954Y-100942809D01*
X87562267Y-101077496D01*
X87461251Y-101111167D01*
X87393908Y-101111167D01*
X87292893Y-101077496D01*
X87158206Y-100942809D01*
X87124534Y-100841793D01*
X87124534Y-100774450D01*
X87158206Y-100673435D01*
X88207106Y-94297969D02*
X88274450Y-94297969D01*
X88409137Y-94230625D01*
X88476480Y-94163282D01*
X88543824Y-94028595D01*
X88543824Y-93893908D01*
X88510152Y-93792893D01*
X88409137Y-93624534D01*
X88308122Y-93523519D01*
X88139763Y-93422503D01*
X88038748Y-93388832D01*
X87904061Y-93388832D01*
X87769374Y-93456175D01*
X87702030Y-93523519D01*
X87634687Y-93658206D01*
X87634687Y-93725549D01*
X87601015Y-95038748D02*
X88005076Y-94634687D01*
X87803045Y-94836717D02*
X87095938Y-94129610D01*
X87264297Y-94163282D01*
X87398984Y-94163282D01*
X87500000Y-94129610D01*
X87264297Y-95375465D02*
X87129610Y-95510152D01*
X87028595Y-95543824D01*
X86961251Y-95543824D01*
X86792893Y-95510152D01*
X86624534Y-95409137D01*
X86355160Y-95139763D01*
X86321488Y-95038748D01*
X86321488Y-94971404D01*
X86355160Y-94870389D01*
X86489847Y-94735702D01*
X86590862Y-94702030D01*
X86658206Y-94702030D01*
X86759221Y-94735702D01*
X86927580Y-94904061D01*
X86961251Y-95005076D01*
X86961251Y-95072419D01*
X86927580Y-95173435D01*
X86792893Y-95308122D01*
X86691877Y-95341793D01*
X86624534Y-95341793D01*
X86523519Y-95308122D01*
X92452030Y-113457106D02*
X92452030Y-113524450D01*
X92519374Y-113659137D01*
X92586717Y-113726480D01*
X92721404Y-113793824D01*
X92856091Y-113793824D01*
X92957106Y-113760152D01*
X93125465Y-113659137D01*
X93226480Y-113558122D01*
X93327496Y-113389763D01*
X93361167Y-113288748D01*
X93361167Y-113154061D01*
X93293824Y-113019374D01*
X93226480Y-112952030D01*
X93091793Y-112884687D01*
X93024450Y-112884687D01*
X92755076Y-112615312D02*
X92755076Y-112547969D01*
X92721404Y-112446954D01*
X92553045Y-112278595D01*
X92452030Y-112244923D01*
X92384687Y-112244923D01*
X92283671Y-112278595D01*
X92216328Y-112345938D01*
X92148984Y-112480625D01*
X92148984Y-113288748D01*
X91711251Y-112851015D01*
X91980625Y-111706175D02*
X91913282Y-111638832D01*
X91812267Y-111605160D01*
X91744923Y-111605160D01*
X91643908Y-111638832D01*
X91475549Y-111739847D01*
X91307190Y-111908206D01*
X91206175Y-112076564D01*
X91172503Y-112177580D01*
X91172503Y-112244923D01*
X91206175Y-112345938D01*
X91273519Y-112413282D01*
X91374534Y-112446954D01*
X91441877Y-112446954D01*
X91542893Y-112413282D01*
X91711251Y-112312267D01*
X91879610Y-112143908D01*
X91980625Y-111975549D01*
X92014297Y-111874534D01*
X92014297Y-111807190D01*
X91980625Y-111706175D01*
X71602030Y-104607106D02*
X71602030Y-104674450D01*
X71669374Y-104809137D01*
X71736717Y-104876480D01*
X71871404Y-104943824D01*
X72006091Y-104943824D01*
X72107106Y-104910152D01*
X72275465Y-104809137D01*
X72376480Y-104708122D01*
X72477496Y-104539763D01*
X72511167Y-104438748D01*
X72511167Y-104304061D01*
X72443824Y-104169374D01*
X72376480Y-104102030D01*
X72241793Y-104034687D01*
X72174450Y-104034687D01*
X71905076Y-103765312D02*
X71905076Y-103697969D01*
X71871404Y-103596954D01*
X71703045Y-103428595D01*
X71602030Y-103394923D01*
X71534687Y-103394923D01*
X71433671Y-103428595D01*
X71366328Y-103495938D01*
X71298984Y-103630625D01*
X71298984Y-104438748D01*
X70861251Y-104001015D01*
X70187816Y-103327580D02*
X70591877Y-103731641D01*
X70389847Y-103529610D02*
X71096954Y-102822503D01*
X71063282Y-102990862D01*
X71063282Y-103125549D01*
X71096954Y-103226564D01*
X74202030Y-98707106D02*
X74202030Y-98774450D01*
X74269374Y-98909137D01*
X74336717Y-98976480D01*
X74471404Y-99043824D01*
X74606091Y-99043824D01*
X74707106Y-99010152D01*
X74875465Y-98909137D01*
X74976480Y-98808122D01*
X75077496Y-98639763D01*
X75111167Y-98538748D01*
X75111167Y-98404061D01*
X75043824Y-98269374D01*
X74976480Y-98202030D01*
X74841793Y-98134687D01*
X74774450Y-98134687D01*
X74505076Y-97865312D02*
X74505076Y-97797969D01*
X74471404Y-97696954D01*
X74303045Y-97528595D01*
X74202030Y-97494923D01*
X74134687Y-97494923D01*
X74033671Y-97528595D01*
X73966328Y-97595938D01*
X73898984Y-97730625D01*
X73898984Y-98538748D01*
X73461251Y-98101015D01*
X73831641Y-97191877D02*
X73831641Y-97124534D01*
X73797969Y-97023519D01*
X73629610Y-96855160D01*
X73528595Y-96821488D01*
X73461251Y-96821488D01*
X73360236Y-96855160D01*
X73292893Y-96922503D01*
X73225549Y-97057190D01*
X73225549Y-97865312D01*
X72787816Y-97427580D01*
X72202030Y-100957106D02*
X72202030Y-101024450D01*
X72269374Y-101159137D01*
X72336717Y-101226480D01*
X72471404Y-101293824D01*
X72606091Y-101293824D01*
X72707106Y-101260152D01*
X72875465Y-101159137D01*
X72976480Y-101058122D01*
X73077496Y-100889763D01*
X73111167Y-100788748D01*
X73111167Y-100654061D01*
X73043824Y-100519374D01*
X72976480Y-100452030D01*
X72841793Y-100384687D01*
X72774450Y-100384687D01*
X72505076Y-100115312D02*
X72505076Y-100047969D01*
X72471404Y-99946954D01*
X72303045Y-99778595D01*
X72202030Y-99744923D01*
X72134687Y-99744923D01*
X72033671Y-99778595D01*
X71966328Y-99845938D01*
X71898984Y-99980625D01*
X71898984Y-100788748D01*
X71461251Y-100351015D01*
X71932656Y-99408206D02*
X71494923Y-98970473D01*
X71461251Y-99475549D01*
X71360236Y-99374534D01*
X71259221Y-99340862D01*
X71191877Y-99340862D01*
X71090862Y-99374534D01*
X70922503Y-99542893D01*
X70888832Y-99643908D01*
X70888832Y-99711251D01*
X70922503Y-99812267D01*
X71124534Y-100014297D01*
X71225549Y-100047969D01*
X71292893Y-100047969D01*
X45892857Y-104607142D02*
X45940476Y-104654761D01*
X46083333Y-104702380D01*
X46178571Y-104702380D01*
X46321428Y-104654761D01*
X46416666Y-104559523D01*
X46464285Y-104464285D01*
X46511904Y-104273809D01*
X46511904Y-104130952D01*
X46464285Y-103940476D01*
X46416666Y-103845238D01*
X46321428Y-103750000D01*
X46178571Y-103702380D01*
X46083333Y-103702380D01*
X45940476Y-103750000D01*
X45892857Y-103797619D01*
X45511904Y-103797619D02*
X45464285Y-103750000D01*
X45369047Y-103702380D01*
X45130952Y-103702380D01*
X45035714Y-103750000D01*
X44988095Y-103797619D01*
X44940476Y-103892857D01*
X44940476Y-103988095D01*
X44988095Y-104130952D01*
X45559523Y-104702380D01*
X44940476Y-104702380D01*
X44083333Y-103702380D02*
X44273809Y-103702380D01*
X44369047Y-103750000D01*
X44416666Y-103797619D01*
X44511904Y-103940476D01*
X44559523Y-104130952D01*
X44559523Y-104511904D01*
X44511904Y-104607142D01*
X44464285Y-104654761D01*
X44369047Y-104702380D01*
X44178571Y-104702380D01*
X44083333Y-104654761D01*
X44035714Y-104607142D01*
X43988095Y-104511904D01*
X43988095Y-104273809D01*
X44035714Y-104178571D01*
X44083333Y-104130952D01*
X44178571Y-104083333D01*
X44369047Y-104083333D01*
X44464285Y-104130952D01*
X44511904Y-104178571D01*
X44559523Y-104273809D01*
X40142857Y-104607142D02*
X40190476Y-104654761D01*
X40333333Y-104702380D01*
X40428571Y-104702380D01*
X40571428Y-104654761D01*
X40666666Y-104559523D01*
X40714285Y-104464285D01*
X40761904Y-104273809D01*
X40761904Y-104130952D01*
X40714285Y-103940476D01*
X40666666Y-103845238D01*
X40571428Y-103750000D01*
X40428571Y-103702380D01*
X40333333Y-103702380D01*
X40190476Y-103750000D01*
X40142857Y-103797619D01*
X39761904Y-103797619D02*
X39714285Y-103750000D01*
X39619047Y-103702380D01*
X39380952Y-103702380D01*
X39285714Y-103750000D01*
X39238095Y-103797619D01*
X39190476Y-103892857D01*
X39190476Y-103988095D01*
X39238095Y-104130952D01*
X39809523Y-104702380D01*
X39190476Y-104702380D01*
X38857142Y-103702380D02*
X38190476Y-103702380D01*
X38619047Y-104702380D01*
X42857142Y-116857142D02*
X42904761Y-116809523D01*
X42952380Y-116666666D01*
X42952380Y-116571428D01*
X42904761Y-116428571D01*
X42809523Y-116333333D01*
X42714285Y-116285714D01*
X42523809Y-116238095D01*
X42380952Y-116238095D01*
X42190476Y-116285714D01*
X42095238Y-116333333D01*
X42000000Y-116428571D01*
X41952380Y-116571428D01*
X41952380Y-116666666D01*
X42000000Y-116809523D01*
X42047619Y-116857142D01*
X42047619Y-117238095D02*
X42000000Y-117285714D01*
X41952380Y-117380952D01*
X41952380Y-117619047D01*
X42000000Y-117714285D01*
X42047619Y-117761904D01*
X42142857Y-117809523D01*
X42238095Y-117809523D01*
X42380952Y-117761904D01*
X42952380Y-117190476D01*
X42952380Y-117809523D01*
X42380952Y-118380952D02*
X42333333Y-118285714D01*
X42285714Y-118238095D01*
X42190476Y-118190476D01*
X42142857Y-118190476D01*
X42047619Y-118238095D01*
X42000000Y-118285714D01*
X41952380Y-118380952D01*
X41952380Y-118571428D01*
X42000000Y-118666666D01*
X42047619Y-118714285D01*
X42142857Y-118761904D01*
X42190476Y-118761904D01*
X42285714Y-118714285D01*
X42333333Y-118666666D01*
X42380952Y-118571428D01*
X42380952Y-118380952D01*
X42428571Y-118285714D01*
X42476190Y-118238095D01*
X42571428Y-118190476D01*
X42761904Y-118190476D01*
X42857142Y-118238095D01*
X42904761Y-118285714D01*
X42952380Y-118380952D01*
X42952380Y-118571428D01*
X42904761Y-118666666D01*
X42857142Y-118714285D01*
X42761904Y-118761904D01*
X42571428Y-118761904D01*
X42476190Y-118714285D01*
X42428571Y-118666666D01*
X42380952Y-118571428D01*
X54642857Y-106107142D02*
X54690476Y-106154761D01*
X54833333Y-106202380D01*
X54928571Y-106202380D01*
X55071428Y-106154761D01*
X55166666Y-106059523D01*
X55214285Y-105964285D01*
X55261904Y-105773809D01*
X55261904Y-105630952D01*
X55214285Y-105440476D01*
X55166666Y-105345238D01*
X55071428Y-105250000D01*
X54928571Y-105202380D01*
X54833333Y-105202380D01*
X54690476Y-105250000D01*
X54642857Y-105297619D01*
X54309523Y-105202380D02*
X53690476Y-105202380D01*
X54023809Y-105583333D01*
X53880952Y-105583333D01*
X53785714Y-105630952D01*
X53738095Y-105678571D01*
X53690476Y-105773809D01*
X53690476Y-106011904D01*
X53738095Y-106107142D01*
X53785714Y-106154761D01*
X53880952Y-106202380D01*
X54166666Y-106202380D01*
X54261904Y-106154761D01*
X54309523Y-106107142D01*
X53309523Y-105297619D02*
X53261904Y-105250000D01*
X53166666Y-105202380D01*
X52928571Y-105202380D01*
X52833333Y-105250000D01*
X52785714Y-105297619D01*
X52738095Y-105392857D01*
X52738095Y-105488095D01*
X52785714Y-105630952D01*
X53357142Y-106202380D01*
X52738095Y-106202380D01*
X53892857Y-120107142D02*
X53940476Y-120154761D01*
X54083333Y-120202380D01*
X54178571Y-120202380D01*
X54321428Y-120154761D01*
X54416666Y-120059523D01*
X54464285Y-119964285D01*
X54511904Y-119773809D01*
X54511904Y-119630952D01*
X54464285Y-119440476D01*
X54416666Y-119345238D01*
X54321428Y-119250000D01*
X54178571Y-119202380D01*
X54083333Y-119202380D01*
X53940476Y-119250000D01*
X53892857Y-119297619D01*
X53559523Y-119202380D02*
X52940476Y-119202380D01*
X53273809Y-119583333D01*
X53130952Y-119583333D01*
X53035714Y-119630952D01*
X52988095Y-119678571D01*
X52940476Y-119773809D01*
X52940476Y-120011904D01*
X52988095Y-120107142D01*
X53035714Y-120154761D01*
X53130952Y-120202380D01*
X53416666Y-120202380D01*
X53511904Y-120154761D01*
X53559523Y-120107142D01*
X52083333Y-119202380D02*
X52273809Y-119202380D01*
X52369047Y-119250000D01*
X52416666Y-119297619D01*
X52511904Y-119440476D01*
X52559523Y-119630952D01*
X52559523Y-120011904D01*
X52511904Y-120107142D01*
X52464285Y-120154761D01*
X52369047Y-120202380D01*
X52178571Y-120202380D01*
X52083333Y-120154761D01*
X52035714Y-120107142D01*
X51988095Y-120011904D01*
X51988095Y-119773809D01*
X52035714Y-119678571D01*
X52083333Y-119630952D01*
X52178571Y-119583333D01*
X52369047Y-119583333D01*
X52464285Y-119630952D01*
X52511904Y-119678571D01*
X52559523Y-119773809D01*
X50892857Y-106107142D02*
X50940476Y-106154761D01*
X51083333Y-106202380D01*
X51178571Y-106202380D01*
X51321428Y-106154761D01*
X51416666Y-106059523D01*
X51464285Y-105964285D01*
X51511904Y-105773809D01*
X51511904Y-105630952D01*
X51464285Y-105440476D01*
X51416666Y-105345238D01*
X51321428Y-105250000D01*
X51178571Y-105202380D01*
X51083333Y-105202380D01*
X50940476Y-105250000D01*
X50892857Y-105297619D01*
X50559523Y-105202380D02*
X49940476Y-105202380D01*
X50273809Y-105583333D01*
X50130952Y-105583333D01*
X50035714Y-105630952D01*
X49988095Y-105678571D01*
X49940476Y-105773809D01*
X49940476Y-106011904D01*
X49988095Y-106107142D01*
X50035714Y-106154761D01*
X50130952Y-106202380D01*
X50416666Y-106202380D01*
X50511904Y-106154761D01*
X50559523Y-106107142D01*
X49369047Y-105630952D02*
X49464285Y-105583333D01*
X49511904Y-105535714D01*
X49559523Y-105440476D01*
X49559523Y-105392857D01*
X49511904Y-105297619D01*
X49464285Y-105250000D01*
X49369047Y-105202380D01*
X49178571Y-105202380D01*
X49083333Y-105250000D01*
X49035714Y-105297619D01*
X48988095Y-105392857D01*
X48988095Y-105440476D01*
X49035714Y-105535714D01*
X49083333Y-105583333D01*
X49178571Y-105630952D01*
X49369047Y-105630952D01*
X49464285Y-105678571D01*
X49511904Y-105726190D01*
X49559523Y-105821428D01*
X49559523Y-106011904D01*
X49511904Y-106107142D01*
X49464285Y-106154761D01*
X49369047Y-106202380D01*
X49178571Y-106202380D01*
X49083333Y-106154761D01*
X49035714Y-106107142D01*
X48988095Y-106011904D01*
X48988095Y-105821428D01*
X49035714Y-105726190D01*
X49083333Y-105678571D01*
X49178571Y-105630952D01*
X50392857Y-120107142D02*
X50440476Y-120154761D01*
X50583333Y-120202380D01*
X50678571Y-120202380D01*
X50821428Y-120154761D01*
X50916666Y-120059523D01*
X50964285Y-119964285D01*
X51011904Y-119773809D01*
X51011904Y-119630952D01*
X50964285Y-119440476D01*
X50916666Y-119345238D01*
X50821428Y-119250000D01*
X50678571Y-119202380D01*
X50583333Y-119202380D01*
X50440476Y-119250000D01*
X50392857Y-119297619D01*
X50059523Y-119202380D02*
X49440476Y-119202380D01*
X49773809Y-119583333D01*
X49630952Y-119583333D01*
X49535714Y-119630952D01*
X49488095Y-119678571D01*
X49440476Y-119773809D01*
X49440476Y-120011904D01*
X49488095Y-120107142D01*
X49535714Y-120154761D01*
X49630952Y-120202380D01*
X49916666Y-120202380D01*
X50011904Y-120154761D01*
X50059523Y-120107142D01*
X48964285Y-120202380D02*
X48773809Y-120202380D01*
X48678571Y-120154761D01*
X48630952Y-120107142D01*
X48535714Y-119964285D01*
X48488095Y-119773809D01*
X48488095Y-119392857D01*
X48535714Y-119297619D01*
X48583333Y-119250000D01*
X48678571Y-119202380D01*
X48869047Y-119202380D01*
X48964285Y-119250000D01*
X49011904Y-119297619D01*
X49059523Y-119392857D01*
X49059523Y-119630952D01*
X49011904Y-119726190D01*
X48964285Y-119773809D01*
X48869047Y-119821428D01*
X48678571Y-119821428D01*
X48583333Y-119773809D01*
X48535714Y-119726190D01*
X48488095Y-119630952D01*
X66392857Y-100607142D02*
X66440476Y-100654761D01*
X66583333Y-100702380D01*
X66678571Y-100702380D01*
X66821428Y-100654761D01*
X66916666Y-100559523D01*
X66964285Y-100464285D01*
X67011904Y-100273809D01*
X67011904Y-100130952D01*
X66964285Y-99940476D01*
X66916666Y-99845238D01*
X66821428Y-99750000D01*
X66678571Y-99702380D01*
X66583333Y-99702380D01*
X66440476Y-99750000D01*
X66392857Y-99797619D01*
X65535714Y-100035714D02*
X65535714Y-100702380D01*
X65773809Y-99654761D02*
X66011904Y-100369047D01*
X65392857Y-100369047D01*
X64488095Y-100702380D02*
X65059523Y-100702380D01*
X64773809Y-100702380D02*
X64773809Y-99702380D01*
X64869047Y-99845238D01*
X64964285Y-99940476D01*
X65059523Y-99988095D01*
X50357142Y-92107142D02*
X50404761Y-92059523D01*
X50452380Y-91916666D01*
X50452380Y-91821428D01*
X50404761Y-91678571D01*
X50309523Y-91583333D01*
X50214285Y-91535714D01*
X50023809Y-91488095D01*
X49880952Y-91488095D01*
X49690476Y-91535714D01*
X49595238Y-91583333D01*
X49500000Y-91678571D01*
X49452380Y-91821428D01*
X49452380Y-91916666D01*
X49500000Y-92059523D01*
X49547619Y-92107142D01*
X49785714Y-92964285D02*
X50452380Y-92964285D01*
X49404761Y-92726190D02*
X50119047Y-92488095D01*
X50119047Y-93107142D01*
X49547619Y-93440476D02*
X49500000Y-93488095D01*
X49452380Y-93583333D01*
X49452380Y-93821428D01*
X49500000Y-93916666D01*
X49547619Y-93964285D01*
X49642857Y-94011904D01*
X49738095Y-94011904D01*
X49880952Y-93964285D01*
X50452380Y-93392857D01*
X50452380Y-94011904D01*
X61892857Y-100607142D02*
X61940476Y-100654761D01*
X62083333Y-100702380D01*
X62178571Y-100702380D01*
X62321428Y-100654761D01*
X62416666Y-100559523D01*
X62464285Y-100464285D01*
X62511904Y-100273809D01*
X62511904Y-100130952D01*
X62464285Y-99940476D01*
X62416666Y-99845238D01*
X62321428Y-99750000D01*
X62178571Y-99702380D01*
X62083333Y-99702380D01*
X61940476Y-99750000D01*
X61892857Y-99797619D01*
X61035714Y-100035714D02*
X61035714Y-100702380D01*
X61273809Y-99654761D02*
X61511904Y-100369047D01*
X60892857Y-100369047D01*
X60607142Y-99702380D02*
X59988095Y-99702380D01*
X60321428Y-100083333D01*
X60178571Y-100083333D01*
X60083333Y-100130952D01*
X60035714Y-100178571D01*
X59988095Y-100273809D01*
X59988095Y-100511904D01*
X60035714Y-100607142D01*
X60083333Y-100654761D01*
X60178571Y-100702380D01*
X60464285Y-100702380D01*
X60559523Y-100654761D01*
X60607142Y-100607142D01*
X54142857Y-87857142D02*
X54190476Y-87904761D01*
X54333333Y-87952380D01*
X54428571Y-87952380D01*
X54571428Y-87904761D01*
X54666666Y-87809523D01*
X54714285Y-87714285D01*
X54761904Y-87523809D01*
X54761904Y-87380952D01*
X54714285Y-87190476D01*
X54666666Y-87095238D01*
X54571428Y-87000000D01*
X54428571Y-86952380D01*
X54333333Y-86952380D01*
X54190476Y-87000000D01*
X54142857Y-87047619D01*
X53285714Y-87285714D02*
X53285714Y-87952380D01*
X53523809Y-86904761D02*
X53761904Y-87619047D01*
X53142857Y-87619047D01*
X52333333Y-87285714D02*
X52333333Y-87952380D01*
X52571428Y-86904761D02*
X52809523Y-87619047D01*
X52190476Y-87619047D01*
X62107142Y-115857142D02*
X62154761Y-115809523D01*
X62202380Y-115666666D01*
X62202380Y-115571428D01*
X62154761Y-115428571D01*
X62059523Y-115333333D01*
X61964285Y-115285714D01*
X61773809Y-115238095D01*
X61630952Y-115238095D01*
X61440476Y-115285714D01*
X61345238Y-115333333D01*
X61250000Y-115428571D01*
X61202380Y-115571428D01*
X61202380Y-115666666D01*
X61250000Y-115809523D01*
X61297619Y-115857142D01*
X61535714Y-116714285D02*
X62202380Y-116714285D01*
X61154761Y-116476190D02*
X61869047Y-116238095D01*
X61869047Y-116857142D01*
X61202380Y-117714285D02*
X61202380Y-117238095D01*
X61678571Y-117190476D01*
X61630952Y-117238095D01*
X61583333Y-117333333D01*
X61583333Y-117571428D01*
X61630952Y-117666666D01*
X61678571Y-117714285D01*
X61773809Y-117761904D01*
X62011904Y-117761904D01*
X62107142Y-117714285D01*
X62154761Y-117666666D01*
X62202380Y-117571428D01*
X62202380Y-117333333D01*
X62154761Y-117238095D01*
X62107142Y-117190476D01*
X69642857Y-97607142D02*
X69690476Y-97654761D01*
X69833333Y-97702380D01*
X69928571Y-97702380D01*
X70071428Y-97654761D01*
X70166666Y-97559523D01*
X70214285Y-97464285D01*
X70261904Y-97273809D01*
X70261904Y-97130952D01*
X70214285Y-96940476D01*
X70166666Y-96845238D01*
X70071428Y-96750000D01*
X69928571Y-96702380D01*
X69833333Y-96702380D01*
X69690476Y-96750000D01*
X69642857Y-96797619D01*
X68785714Y-97035714D02*
X68785714Y-97702380D01*
X69023809Y-96654761D02*
X69261904Y-97369047D01*
X68642857Y-97369047D01*
X67833333Y-96702380D02*
X68023809Y-96702380D01*
X68119047Y-96750000D01*
X68166666Y-96797619D01*
X68261904Y-96940476D01*
X68309523Y-97130952D01*
X68309523Y-97511904D01*
X68261904Y-97607142D01*
X68214285Y-97654761D01*
X68119047Y-97702380D01*
X67928571Y-97702380D01*
X67833333Y-97654761D01*
X67785714Y-97607142D01*
X67738095Y-97511904D01*
X67738095Y-97273809D01*
X67785714Y-97178571D01*
X67833333Y-97130952D01*
X67928571Y-97083333D01*
X68119047Y-97083333D01*
X68214285Y-97130952D01*
X68261904Y-97178571D01*
X68309523Y-97273809D01*
X105357142Y-108107142D02*
X105404761Y-108059523D01*
X105452380Y-107916666D01*
X105452380Y-107821428D01*
X105404761Y-107678571D01*
X105309523Y-107583333D01*
X105214285Y-107535714D01*
X105023809Y-107488095D01*
X104880952Y-107488095D01*
X104690476Y-107535714D01*
X104595238Y-107583333D01*
X104500000Y-107678571D01*
X104452380Y-107821428D01*
X104452380Y-107916666D01*
X104500000Y-108059523D01*
X104547619Y-108107142D01*
X104785714Y-108964285D02*
X105452380Y-108964285D01*
X104404761Y-108726190D02*
X105119047Y-108488095D01*
X105119047Y-109107142D01*
X104452380Y-109392857D02*
X104452380Y-110059523D01*
X105452380Y-109630952D01*
X113357142Y-107857142D02*
X113404761Y-107809523D01*
X113452380Y-107666666D01*
X113452380Y-107571428D01*
X113404761Y-107428571D01*
X113309523Y-107333333D01*
X113214285Y-107285714D01*
X113023809Y-107238095D01*
X112880952Y-107238095D01*
X112690476Y-107285714D01*
X112595238Y-107333333D01*
X112500000Y-107428571D01*
X112452380Y-107571428D01*
X112452380Y-107666666D01*
X112500000Y-107809523D01*
X112547619Y-107857142D01*
X112785714Y-108714285D02*
X113452380Y-108714285D01*
X112404761Y-108476190D02*
X113119047Y-108238095D01*
X113119047Y-108857142D01*
X112880952Y-109380952D02*
X112833333Y-109285714D01*
X112785714Y-109238095D01*
X112690476Y-109190476D01*
X112642857Y-109190476D01*
X112547619Y-109238095D01*
X112500000Y-109285714D01*
X112452380Y-109380952D01*
X112452380Y-109571428D01*
X112500000Y-109666666D01*
X112547619Y-109714285D01*
X112642857Y-109761904D01*
X112690476Y-109761904D01*
X112785714Y-109714285D01*
X112833333Y-109666666D01*
X112880952Y-109571428D01*
X112880952Y-109380952D01*
X112928571Y-109285714D01*
X112976190Y-109238095D01*
X113071428Y-109190476D01*
X113261904Y-109190476D01*
X113357142Y-109238095D01*
X113404761Y-109285714D01*
X113452380Y-109380952D01*
X113452380Y-109571428D01*
X113404761Y-109666666D01*
X113357142Y-109714285D01*
X113261904Y-109761904D01*
X113071428Y-109761904D01*
X112976190Y-109714285D01*
X112928571Y-109666666D01*
X112880952Y-109571428D01*
X81357142Y-114457142D02*
X81404761Y-114409523D01*
X81452380Y-114266666D01*
X81452380Y-114171428D01*
X81404761Y-114028571D01*
X81309523Y-113933333D01*
X81214285Y-113885714D01*
X81023809Y-113838095D01*
X80880952Y-113838095D01*
X80690476Y-113885714D01*
X80595238Y-113933333D01*
X80500000Y-114028571D01*
X80452380Y-114171428D01*
X80452380Y-114266666D01*
X80500000Y-114409523D01*
X80547619Y-114457142D01*
X80785714Y-115314285D02*
X81452380Y-115314285D01*
X80404761Y-115076190D02*
X81119047Y-114838095D01*
X81119047Y-115457142D01*
X81452380Y-115885714D02*
X81452380Y-116076190D01*
X81404761Y-116171428D01*
X81357142Y-116219047D01*
X81214285Y-116314285D01*
X81023809Y-116361904D01*
X80642857Y-116361904D01*
X80547619Y-116314285D01*
X80500000Y-116266666D01*
X80452380Y-116171428D01*
X80452380Y-115980952D01*
X80500000Y-115885714D01*
X80547619Y-115838095D01*
X80642857Y-115790476D01*
X80880952Y-115790476D01*
X80976190Y-115838095D01*
X81023809Y-115885714D01*
X81071428Y-115980952D01*
X81071428Y-116171428D01*
X81023809Y-116266666D01*
X80976190Y-116314285D01*
X80880952Y-116361904D01*
X59488095Y-90202380D02*
X59488095Y-89202380D01*
X59250000Y-89202380D01*
X59107142Y-89250000D01*
X59011904Y-89345238D01*
X58964285Y-89440476D01*
X58916666Y-89630952D01*
X58916666Y-89773809D01*
X58964285Y-89964285D01*
X59011904Y-90059523D01*
X59107142Y-90154761D01*
X59250000Y-90202380D01*
X59488095Y-90202380D01*
X57964285Y-90202380D02*
X58535714Y-90202380D01*
X58250000Y-90202380D02*
X58250000Y-89202380D01*
X58345238Y-89345238D01*
X58440476Y-89440476D01*
X58535714Y-89488095D01*
X81488095Y-127702380D02*
X81488095Y-126702380D01*
X81250000Y-126702380D01*
X81107142Y-126750000D01*
X81011904Y-126845238D01*
X80964285Y-126940476D01*
X80916666Y-127130952D01*
X80916666Y-127273809D01*
X80964285Y-127464285D01*
X81011904Y-127559523D01*
X81107142Y-127654761D01*
X81250000Y-127702380D01*
X81488095Y-127702380D01*
X80535714Y-126797619D02*
X80488095Y-126750000D01*
X80392857Y-126702380D01*
X80154761Y-126702380D01*
X80059523Y-126750000D01*
X80011904Y-126797619D01*
X79964285Y-126892857D01*
X79964285Y-126988095D01*
X80011904Y-127130952D01*
X80583333Y-127702380D01*
X79964285Y-127702380D01*
X79238095Y-137702380D02*
X79238095Y-136702380D01*
X79000000Y-136702380D01*
X78857142Y-136750000D01*
X78761904Y-136845238D01*
X78714285Y-136940476D01*
X78666666Y-137130952D01*
X78666666Y-137273809D01*
X78714285Y-137464285D01*
X78761904Y-137559523D01*
X78857142Y-137654761D01*
X79000000Y-137702380D01*
X79238095Y-137702380D01*
X78333333Y-136702380D02*
X77714285Y-136702380D01*
X78047619Y-137083333D01*
X77904761Y-137083333D01*
X77809523Y-137130952D01*
X77761904Y-137178571D01*
X77714285Y-137273809D01*
X77714285Y-137511904D01*
X77761904Y-137607142D01*
X77809523Y-137654761D01*
X77904761Y-137702380D01*
X78190476Y-137702380D01*
X78285714Y-137654761D01*
X78333333Y-137607142D01*
X56988095Y-80452380D02*
X56988095Y-79452380D01*
X56750000Y-79452380D01*
X56607142Y-79500000D01*
X56511904Y-79595238D01*
X56464285Y-79690476D01*
X56416666Y-79880952D01*
X56416666Y-80023809D01*
X56464285Y-80214285D01*
X56511904Y-80309523D01*
X56607142Y-80404761D01*
X56750000Y-80452380D01*
X56988095Y-80452380D01*
X55559523Y-79785714D02*
X55559523Y-80452380D01*
X55797619Y-79404761D02*
X56035714Y-80119047D01*
X55416666Y-80119047D01*
X104488095Y-127702380D02*
X104488095Y-126702380D01*
X104250000Y-126702380D01*
X104107142Y-126750000D01*
X104011904Y-126845238D01*
X103964285Y-126940476D01*
X103916666Y-127130952D01*
X103916666Y-127273809D01*
X103964285Y-127464285D01*
X104011904Y-127559523D01*
X104107142Y-127654761D01*
X104250000Y-127702380D01*
X104488095Y-127702380D01*
X103011904Y-126702380D02*
X103488095Y-126702380D01*
X103535714Y-127178571D01*
X103488095Y-127130952D01*
X103392857Y-127083333D01*
X103154761Y-127083333D01*
X103059523Y-127130952D01*
X103011904Y-127178571D01*
X102964285Y-127273809D01*
X102964285Y-127511904D01*
X103011904Y-127607142D01*
X103059523Y-127654761D01*
X103154761Y-127702380D01*
X103392857Y-127702380D01*
X103488095Y-127654761D01*
X103535714Y-127607142D01*
X105488095Y-90452380D02*
X105488095Y-89452380D01*
X105250000Y-89452380D01*
X105107142Y-89500000D01*
X105011904Y-89595238D01*
X104964285Y-89690476D01*
X104916666Y-89880952D01*
X104916666Y-90023809D01*
X104964285Y-90214285D01*
X105011904Y-90309523D01*
X105107142Y-90404761D01*
X105250000Y-90452380D01*
X105488095Y-90452380D01*
X104059523Y-89452380D02*
X104250000Y-89452380D01*
X104345238Y-89500000D01*
X104392857Y-89547619D01*
X104488095Y-89690476D01*
X104535714Y-89880952D01*
X104535714Y-90261904D01*
X104488095Y-90357142D01*
X104440476Y-90404761D01*
X104345238Y-90452380D01*
X104154761Y-90452380D01*
X104059523Y-90404761D01*
X104011904Y-90357142D01*
X103964285Y-90261904D01*
X103964285Y-90023809D01*
X104011904Y-89928571D01*
X104059523Y-89880952D01*
X104154761Y-89833333D01*
X104345238Y-89833333D01*
X104440476Y-89880952D01*
X104488095Y-89928571D01*
X104535714Y-90023809D01*
X82488095Y-90452380D02*
X82488095Y-89452380D01*
X82250000Y-89452380D01*
X82107142Y-89500000D01*
X82011904Y-89595238D01*
X81964285Y-89690476D01*
X81916666Y-89880952D01*
X81916666Y-90023809D01*
X81964285Y-90214285D01*
X82011904Y-90309523D01*
X82107142Y-90404761D01*
X82250000Y-90452380D01*
X82488095Y-90452380D01*
X81583333Y-89452380D02*
X80916666Y-89452380D01*
X81345238Y-90452380D01*
X102988095Y-80202380D02*
X102988095Y-79202380D01*
X102750000Y-79202380D01*
X102607142Y-79250000D01*
X102511904Y-79345238D01*
X102464285Y-79440476D01*
X102416666Y-79630952D01*
X102416666Y-79773809D01*
X102464285Y-79964285D01*
X102511904Y-80059523D01*
X102607142Y-80154761D01*
X102750000Y-80202380D01*
X102988095Y-80202380D01*
X101845238Y-79630952D02*
X101940476Y-79583333D01*
X101988095Y-79535714D01*
X102035714Y-79440476D01*
X102035714Y-79392857D01*
X101988095Y-79297619D01*
X101940476Y-79250000D01*
X101845238Y-79202380D01*
X101654761Y-79202380D01*
X101559523Y-79250000D01*
X101511904Y-79297619D01*
X101464285Y-79392857D01*
X101464285Y-79440476D01*
X101511904Y-79535714D01*
X101559523Y-79583333D01*
X101654761Y-79630952D01*
X101845238Y-79630952D01*
X101940476Y-79678571D01*
X101988095Y-79726190D01*
X102035714Y-79821428D01*
X102035714Y-80011904D01*
X101988095Y-80107142D01*
X101940476Y-80154761D01*
X101845238Y-80202380D01*
X101654761Y-80202380D01*
X101559523Y-80154761D01*
X101511904Y-80107142D01*
X101464285Y-80011904D01*
X101464285Y-79821428D01*
X101511904Y-79726190D01*
X101559523Y-79678571D01*
X101654761Y-79630952D01*
X79988095Y-80202380D02*
X79988095Y-79202380D01*
X79750000Y-79202380D01*
X79607142Y-79250000D01*
X79511904Y-79345238D01*
X79464285Y-79440476D01*
X79416666Y-79630952D01*
X79416666Y-79773809D01*
X79464285Y-79964285D01*
X79511904Y-80059523D01*
X79607142Y-80154761D01*
X79750000Y-80202380D01*
X79988095Y-80202380D01*
X78940476Y-80202380D02*
X78750000Y-80202380D01*
X78654761Y-80154761D01*
X78607142Y-80107142D01*
X78511904Y-79964285D01*
X78464285Y-79773809D01*
X78464285Y-79392857D01*
X78511904Y-79297619D01*
X78559523Y-79250000D01*
X78654761Y-79202380D01*
X78845238Y-79202380D01*
X78940476Y-79250000D01*
X78988095Y-79297619D01*
X79035714Y-79392857D01*
X79035714Y-79630952D01*
X78988095Y-79726190D01*
X78940476Y-79773809D01*
X78845238Y-79821428D01*
X78654761Y-79821428D01*
X78559523Y-79773809D01*
X78511904Y-79726190D01*
X78464285Y-79630952D01*
X102214285Y-137702380D02*
X102214285Y-136702380D01*
X101976190Y-136702380D01*
X101833333Y-136750000D01*
X101738095Y-136845238D01*
X101690476Y-136940476D01*
X101642857Y-137130952D01*
X101642857Y-137273809D01*
X101690476Y-137464285D01*
X101738095Y-137559523D01*
X101833333Y-137654761D01*
X101976190Y-137702380D01*
X102214285Y-137702380D01*
X100690476Y-137702380D02*
X101261904Y-137702380D01*
X100976190Y-137702380D02*
X100976190Y-136702380D01*
X101071428Y-136845238D01*
X101166666Y-136940476D01*
X101261904Y-136988095D01*
X100071428Y-136702380D02*
X99976190Y-136702380D01*
X99880952Y-136750000D01*
X99833333Y-136797619D01*
X99785714Y-136892857D01*
X99738095Y-137083333D01*
X99738095Y-137321428D01*
X99785714Y-137511904D01*
X99833333Y-137607142D01*
X99880952Y-137654761D01*
X99976190Y-137702380D01*
X100071428Y-137702380D01*
X100166666Y-137654761D01*
X100214285Y-137607142D01*
X100261904Y-137511904D01*
X100309523Y-137321428D01*
X100309523Y-137083333D01*
X100261904Y-136892857D01*
X100214285Y-136797619D01*
X100166666Y-136750000D01*
X100071428Y-136702380D01*
X70687732Y-105952030D02*
X70586717Y-105379610D01*
X71091793Y-105547969D02*
X70384687Y-104840862D01*
X70115312Y-105110236D01*
X70081641Y-105211251D01*
X70081641Y-105278595D01*
X70115312Y-105379610D01*
X70216328Y-105480625D01*
X70317343Y-105514297D01*
X70384687Y-105514297D01*
X70485702Y-105480625D01*
X70755076Y-105211251D01*
X69778595Y-105581641D02*
X69711251Y-105581641D01*
X69610236Y-105615312D01*
X69441877Y-105783671D01*
X69408206Y-105884687D01*
X69408206Y-105952030D01*
X69441877Y-106053045D01*
X69509221Y-106120389D01*
X69643908Y-106187732D01*
X70452030Y-106187732D01*
X70014297Y-106625465D01*
X83952380Y-94833333D02*
X83476190Y-94500000D01*
X83952380Y-94261904D02*
X82952380Y-94261904D01*
X82952380Y-94642857D01*
X83000000Y-94738095D01*
X83047619Y-94785714D01*
X83142857Y-94833333D01*
X83285714Y-94833333D01*
X83380952Y-94785714D01*
X83428571Y-94738095D01*
X83476190Y-94642857D01*
X83476190Y-94261904D01*
X82952380Y-95166666D02*
X82952380Y-95785714D01*
X83333333Y-95452380D01*
X83333333Y-95595238D01*
X83380952Y-95690476D01*
X83428571Y-95738095D01*
X83523809Y-95785714D01*
X83761904Y-95785714D01*
X83857142Y-95738095D01*
X83904761Y-95690476D01*
X83952380Y-95595238D01*
X83952380Y-95309523D01*
X83904761Y-95214285D01*
X83857142Y-95166666D01*
X81952380Y-94833333D02*
X81476190Y-94500000D01*
X81952380Y-94261904D02*
X80952380Y-94261904D01*
X80952380Y-94642857D01*
X81000000Y-94738095D01*
X81047619Y-94785714D01*
X81142857Y-94833333D01*
X81285714Y-94833333D01*
X81380952Y-94785714D01*
X81428571Y-94738095D01*
X81476190Y-94642857D01*
X81476190Y-94261904D01*
X81285714Y-95690476D02*
X81952380Y-95690476D01*
X80904761Y-95452380D02*
X81619047Y-95214285D01*
X81619047Y-95833333D01*
X99416666Y-107452380D02*
X99750000Y-106976190D01*
X99988095Y-107452380D02*
X99988095Y-106452380D01*
X99607142Y-106452380D01*
X99511904Y-106500000D01*
X99464285Y-106547619D01*
X99416666Y-106642857D01*
X99416666Y-106785714D01*
X99464285Y-106880952D01*
X99511904Y-106928571D01*
X99607142Y-106976190D01*
X99988095Y-106976190D01*
X98511904Y-106452380D02*
X98988095Y-106452380D01*
X99035714Y-106928571D01*
X98988095Y-106880952D01*
X98892857Y-106833333D01*
X98654761Y-106833333D01*
X98559523Y-106880952D01*
X98511904Y-106928571D01*
X98464285Y-107023809D01*
X98464285Y-107261904D01*
X98511904Y-107357142D01*
X98559523Y-107404761D01*
X98654761Y-107452380D01*
X98892857Y-107452380D01*
X98988095Y-107404761D01*
X99035714Y-107357142D01*
X42952380Y-112107142D02*
X42476190Y-111773809D01*
X42952380Y-111535714D02*
X41952380Y-111535714D01*
X41952380Y-111916666D01*
X42000000Y-112011904D01*
X42047619Y-112059523D01*
X42142857Y-112107142D01*
X42285714Y-112107142D01*
X42380952Y-112059523D01*
X42428571Y-112011904D01*
X42476190Y-111916666D01*
X42476190Y-111535714D01*
X42952380Y-113059523D02*
X42952380Y-112488095D01*
X42952380Y-112773809D02*
X41952380Y-112773809D01*
X42095238Y-112678571D01*
X42190476Y-112583333D01*
X42238095Y-112488095D01*
X42047619Y-113440476D02*
X42000000Y-113488095D01*
X41952380Y-113583333D01*
X41952380Y-113821428D01*
X42000000Y-113916666D01*
X42047619Y-113964285D01*
X42142857Y-114011904D01*
X42238095Y-114011904D01*
X42380952Y-113964285D01*
X42952380Y-113392857D01*
X42952380Y-114011904D01*
X49952380Y-116857142D02*
X49476190Y-116523809D01*
X49952380Y-116285714D02*
X48952380Y-116285714D01*
X48952380Y-116666666D01*
X49000000Y-116761904D01*
X49047619Y-116809523D01*
X49142857Y-116857142D01*
X49285714Y-116857142D01*
X49380952Y-116809523D01*
X49428571Y-116761904D01*
X49476190Y-116666666D01*
X49476190Y-116285714D01*
X49952380Y-117809523D02*
X49952380Y-117238095D01*
X49952380Y-117523809D02*
X48952380Y-117523809D01*
X49095238Y-117428571D01*
X49190476Y-117333333D01*
X49238095Y-117238095D01*
X48952380Y-118142857D02*
X48952380Y-118761904D01*
X49333333Y-118428571D01*
X49333333Y-118571428D01*
X49380952Y-118666666D01*
X49428571Y-118714285D01*
X49523809Y-118761904D01*
X49761904Y-118761904D01*
X49857142Y-118714285D01*
X49904761Y-118666666D01*
X49952380Y-118571428D01*
X49952380Y-118285714D01*
X49904761Y-118190476D01*
X49857142Y-118142857D01*
X76842857Y-108552380D02*
X77176190Y-108076190D01*
X77414285Y-108552380D02*
X77414285Y-107552380D01*
X77033333Y-107552380D01*
X76938095Y-107600000D01*
X76890476Y-107647619D01*
X76842857Y-107742857D01*
X76842857Y-107885714D01*
X76890476Y-107980952D01*
X76938095Y-108028571D01*
X77033333Y-108076190D01*
X77414285Y-108076190D01*
X75890476Y-108552380D02*
X76461904Y-108552380D01*
X76176190Y-108552380D02*
X76176190Y-107552380D01*
X76271428Y-107695238D01*
X76366666Y-107790476D01*
X76461904Y-107838095D01*
X75557142Y-107552380D02*
X74890476Y-107552380D01*
X75319047Y-108552380D01*
X85642857Y-100452380D02*
X85976190Y-99976190D01*
X86214285Y-100452380D02*
X86214285Y-99452380D01*
X85833333Y-99452380D01*
X85738095Y-99500000D01*
X85690476Y-99547619D01*
X85642857Y-99642857D01*
X85642857Y-99785714D01*
X85690476Y-99880952D01*
X85738095Y-99928571D01*
X85833333Y-99976190D01*
X86214285Y-99976190D01*
X84690476Y-100452380D02*
X85261904Y-100452380D01*
X84976190Y-100452380D02*
X84976190Y-99452380D01*
X85071428Y-99595238D01*
X85166666Y-99690476D01*
X85261904Y-99738095D01*
X84119047Y-99880952D02*
X84214285Y-99833333D01*
X84261904Y-99785714D01*
X84309523Y-99690476D01*
X84309523Y-99642857D01*
X84261904Y-99547619D01*
X84214285Y-99500000D01*
X84119047Y-99452380D01*
X83928571Y-99452380D01*
X83833333Y-99500000D01*
X83785714Y-99547619D01*
X83738095Y-99642857D01*
X83738095Y-99690476D01*
X83785714Y-99785714D01*
X83833333Y-99833333D01*
X83928571Y-99880952D01*
X84119047Y-99880952D01*
X84214285Y-99928571D01*
X84261904Y-99976190D01*
X84309523Y-100071428D01*
X84309523Y-100261904D01*
X84261904Y-100357142D01*
X84214285Y-100404761D01*
X84119047Y-100452380D01*
X83928571Y-100452380D01*
X83833333Y-100404761D01*
X83785714Y-100357142D01*
X83738095Y-100261904D01*
X83738095Y-100071428D01*
X83785714Y-99976190D01*
X83833333Y-99928571D01*
X83928571Y-99880952D01*
X76892857Y-106302380D02*
X77226190Y-105826190D01*
X77464285Y-106302380D02*
X77464285Y-105302380D01*
X77083333Y-105302380D01*
X76988095Y-105350000D01*
X76940476Y-105397619D01*
X76892857Y-105492857D01*
X76892857Y-105635714D01*
X76940476Y-105730952D01*
X76988095Y-105778571D01*
X77083333Y-105826190D01*
X77464285Y-105826190D01*
X75940476Y-106302380D02*
X76511904Y-106302380D01*
X76226190Y-106302380D02*
X76226190Y-105302380D01*
X76321428Y-105445238D01*
X76416666Y-105540476D01*
X76511904Y-105588095D01*
X75464285Y-106302380D02*
X75273809Y-106302380D01*
X75178571Y-106254761D01*
X75130952Y-106207142D01*
X75035714Y-106064285D01*
X74988095Y-105873809D01*
X74988095Y-105492857D01*
X75035714Y-105397619D01*
X75083333Y-105350000D01*
X75178571Y-105302380D01*
X75369047Y-105302380D01*
X75464285Y-105350000D01*
X75511904Y-105397619D01*
X75559523Y-105492857D01*
X75559523Y-105730952D01*
X75511904Y-105826190D01*
X75464285Y-105873809D01*
X75369047Y-105921428D01*
X75178571Y-105921428D01*
X75083333Y-105873809D01*
X75035714Y-105826190D01*
X74988095Y-105730952D01*
X83452380Y-98607142D02*
X82976190Y-98273809D01*
X83452380Y-98035714D02*
X82452380Y-98035714D01*
X82452380Y-98416666D01*
X82500000Y-98511904D01*
X82547619Y-98559523D01*
X82642857Y-98607142D01*
X82785714Y-98607142D01*
X82880952Y-98559523D01*
X82928571Y-98511904D01*
X82976190Y-98416666D01*
X82976190Y-98035714D01*
X82547619Y-98988095D02*
X82500000Y-99035714D01*
X82452380Y-99130952D01*
X82452380Y-99369047D01*
X82500000Y-99464285D01*
X82547619Y-99511904D01*
X82642857Y-99559523D01*
X82738095Y-99559523D01*
X82880952Y-99511904D01*
X83452380Y-98940476D01*
X83452380Y-99559523D01*
X82452380Y-100178571D02*
X82452380Y-100273809D01*
X82500000Y-100369047D01*
X82547619Y-100416666D01*
X82642857Y-100464285D01*
X82833333Y-100511904D01*
X83071428Y-100511904D01*
X83261904Y-100464285D01*
X83357142Y-100416666D01*
X83404761Y-100369047D01*
X83452380Y-100273809D01*
X83452380Y-100178571D01*
X83404761Y-100083333D01*
X83357142Y-100035714D01*
X83261904Y-99988095D01*
X83071428Y-99940476D01*
X82833333Y-99940476D01*
X82642857Y-99988095D01*
X82547619Y-100035714D01*
X82500000Y-100083333D01*
X82452380Y-100178571D01*
X92342857Y-106052380D02*
X92676190Y-105576190D01*
X92914285Y-106052380D02*
X92914285Y-105052380D01*
X92533333Y-105052380D01*
X92438095Y-105100000D01*
X92390476Y-105147619D01*
X92342857Y-105242857D01*
X92342857Y-105385714D01*
X92390476Y-105480952D01*
X92438095Y-105528571D01*
X92533333Y-105576190D01*
X92914285Y-105576190D01*
X91961904Y-105147619D02*
X91914285Y-105100000D01*
X91819047Y-105052380D01*
X91580952Y-105052380D01*
X91485714Y-105100000D01*
X91438095Y-105147619D01*
X91390476Y-105242857D01*
X91390476Y-105338095D01*
X91438095Y-105480952D01*
X92009523Y-106052380D01*
X91390476Y-106052380D01*
X90438095Y-106052380D02*
X91009523Y-106052380D01*
X90723809Y-106052380D02*
X90723809Y-105052380D01*
X90819047Y-105195238D01*
X90914285Y-105290476D01*
X91009523Y-105338095D01*
X76892857Y-110852380D02*
X77226190Y-110376190D01*
X77464285Y-110852380D02*
X77464285Y-109852380D01*
X77083333Y-109852380D01*
X76988095Y-109900000D01*
X76940476Y-109947619D01*
X76892857Y-110042857D01*
X76892857Y-110185714D01*
X76940476Y-110280952D01*
X76988095Y-110328571D01*
X77083333Y-110376190D01*
X77464285Y-110376190D01*
X76511904Y-109947619D02*
X76464285Y-109900000D01*
X76369047Y-109852380D01*
X76130952Y-109852380D01*
X76035714Y-109900000D01*
X75988095Y-109947619D01*
X75940476Y-110042857D01*
X75940476Y-110138095D01*
X75988095Y-110280952D01*
X76559523Y-110852380D01*
X75940476Y-110852380D01*
X75559523Y-109947619D02*
X75511904Y-109900000D01*
X75416666Y-109852380D01*
X75178571Y-109852380D01*
X75083333Y-109900000D01*
X75035714Y-109947619D01*
X74988095Y-110042857D01*
X74988095Y-110138095D01*
X75035714Y-110280952D01*
X75607142Y-110852380D01*
X74988095Y-110852380D01*
X92392857Y-108452380D02*
X92726190Y-107976190D01*
X92964285Y-108452380D02*
X92964285Y-107452380D01*
X92583333Y-107452380D01*
X92488095Y-107500000D01*
X92440476Y-107547619D01*
X92392857Y-107642857D01*
X92392857Y-107785714D01*
X92440476Y-107880952D01*
X92488095Y-107928571D01*
X92583333Y-107976190D01*
X92964285Y-107976190D01*
X92011904Y-107547619D02*
X91964285Y-107500000D01*
X91869047Y-107452380D01*
X91630952Y-107452380D01*
X91535714Y-107500000D01*
X91488095Y-107547619D01*
X91440476Y-107642857D01*
X91440476Y-107738095D01*
X91488095Y-107880952D01*
X92059523Y-108452380D01*
X91440476Y-108452380D01*
X91107142Y-107452380D02*
X90488095Y-107452380D01*
X90821428Y-107833333D01*
X90678571Y-107833333D01*
X90583333Y-107880952D01*
X90535714Y-107928571D01*
X90488095Y-108023809D01*
X90488095Y-108261904D01*
X90535714Y-108357142D01*
X90583333Y-108404761D01*
X90678571Y-108452380D01*
X90964285Y-108452380D01*
X91059523Y-108404761D01*
X91107142Y-108357142D01*
X92342857Y-110152380D02*
X92676190Y-109676190D01*
X92914285Y-110152380D02*
X92914285Y-109152380D01*
X92533333Y-109152380D01*
X92438095Y-109200000D01*
X92390476Y-109247619D01*
X92342857Y-109342857D01*
X92342857Y-109485714D01*
X92390476Y-109580952D01*
X92438095Y-109628571D01*
X92533333Y-109676190D01*
X92914285Y-109676190D01*
X91961904Y-109247619D02*
X91914285Y-109200000D01*
X91819047Y-109152380D01*
X91580952Y-109152380D01*
X91485714Y-109200000D01*
X91438095Y-109247619D01*
X91390476Y-109342857D01*
X91390476Y-109438095D01*
X91438095Y-109580952D01*
X92009523Y-110152380D01*
X91390476Y-110152380D01*
X90533333Y-109485714D02*
X90533333Y-110152380D01*
X90771428Y-109104761D02*
X91009523Y-109819047D01*
X90390476Y-109819047D01*
X87452380Y-114357142D02*
X86976190Y-114023809D01*
X87452380Y-113785714D02*
X86452380Y-113785714D01*
X86452380Y-114166666D01*
X86500000Y-114261904D01*
X86547619Y-114309523D01*
X86642857Y-114357142D01*
X86785714Y-114357142D01*
X86880952Y-114309523D01*
X86928571Y-114261904D01*
X86976190Y-114166666D01*
X86976190Y-113785714D01*
X86547619Y-114738095D02*
X86500000Y-114785714D01*
X86452380Y-114880952D01*
X86452380Y-115119047D01*
X86500000Y-115214285D01*
X86547619Y-115261904D01*
X86642857Y-115309523D01*
X86738095Y-115309523D01*
X86880952Y-115261904D01*
X87452380Y-114690476D01*
X87452380Y-115309523D01*
X86452380Y-116214285D02*
X86452380Y-115738095D01*
X86928571Y-115690476D01*
X86880952Y-115738095D01*
X86833333Y-115833333D01*
X86833333Y-116071428D01*
X86880952Y-116166666D01*
X86928571Y-116214285D01*
X87023809Y-116261904D01*
X87261904Y-116261904D01*
X87357142Y-116214285D01*
X87404761Y-116166666D01*
X87452380Y-116071428D01*
X87452380Y-115833333D01*
X87404761Y-115738095D01*
X87357142Y-115690476D01*
X117673357Y-93702380D02*
X118006690Y-93226190D01*
X118244785Y-93702380D02*
X118244785Y-92702380D01*
X117863833Y-92702380D01*
X117768595Y-92750000D01*
X117720976Y-92797619D01*
X117673357Y-92892857D01*
X117673357Y-93035714D01*
X117720976Y-93130952D01*
X117768595Y-93178571D01*
X117863833Y-93226190D01*
X118244785Y-93226190D01*
X117292404Y-92797619D02*
X117244785Y-92750000D01*
X117149547Y-92702380D01*
X116911452Y-92702380D01*
X116816214Y-92750000D01*
X116768595Y-92797619D01*
X116720976Y-92892857D01*
X116720976Y-92988095D01*
X116768595Y-93130952D01*
X117340023Y-93702380D01*
X116720976Y-93702380D01*
X115863833Y-92702380D02*
X116054309Y-92702380D01*
X116149547Y-92750000D01*
X116197166Y-92797619D01*
X116292404Y-92940476D01*
X116340023Y-93130952D01*
X116340023Y-93511904D01*
X116292404Y-93607142D01*
X116244785Y-93654761D01*
X116149547Y-93702380D01*
X115959071Y-93702380D01*
X115863833Y-93654761D01*
X115816214Y-93607142D01*
X115768595Y-93511904D01*
X115768595Y-93273809D01*
X115816214Y-93178571D01*
X115863833Y-93130952D01*
X115959071Y-93083333D01*
X116149547Y-93083333D01*
X116244785Y-93130952D01*
X116292404Y-93178571D01*
X116340023Y-93273809D01*
X117642857Y-97202380D02*
X117976190Y-96726190D01*
X118214285Y-97202380D02*
X118214285Y-96202380D01*
X117833333Y-96202380D01*
X117738095Y-96250000D01*
X117690476Y-96297619D01*
X117642857Y-96392857D01*
X117642857Y-96535714D01*
X117690476Y-96630952D01*
X117738095Y-96678571D01*
X117833333Y-96726190D01*
X118214285Y-96726190D01*
X117261904Y-96297619D02*
X117214285Y-96250000D01*
X117119047Y-96202380D01*
X116880952Y-96202380D01*
X116785714Y-96250000D01*
X116738095Y-96297619D01*
X116690476Y-96392857D01*
X116690476Y-96488095D01*
X116738095Y-96630952D01*
X117309523Y-97202380D01*
X116690476Y-97202380D01*
X116357142Y-96202380D02*
X115690476Y-96202380D01*
X116119047Y-97202380D01*
X117642857Y-100702380D02*
X117976190Y-100226190D01*
X118214285Y-100702380D02*
X118214285Y-99702380D01*
X117833333Y-99702380D01*
X117738095Y-99750000D01*
X117690476Y-99797619D01*
X117642857Y-99892857D01*
X117642857Y-100035714D01*
X117690476Y-100130952D01*
X117738095Y-100178571D01*
X117833333Y-100226190D01*
X118214285Y-100226190D01*
X117261904Y-99797619D02*
X117214285Y-99750000D01*
X117119047Y-99702380D01*
X116880952Y-99702380D01*
X116785714Y-99750000D01*
X116738095Y-99797619D01*
X116690476Y-99892857D01*
X116690476Y-99988095D01*
X116738095Y-100130952D01*
X117309523Y-100702380D01*
X116690476Y-100702380D01*
X116119047Y-100130952D02*
X116214285Y-100083333D01*
X116261904Y-100035714D01*
X116309523Y-99940476D01*
X116309523Y-99892857D01*
X116261904Y-99797619D01*
X116214285Y-99750000D01*
X116119047Y-99702380D01*
X115928571Y-99702380D01*
X115833333Y-99750000D01*
X115785714Y-99797619D01*
X115738095Y-99892857D01*
X115738095Y-99940476D01*
X115785714Y-100035714D01*
X115833333Y-100083333D01*
X115928571Y-100130952D01*
X116119047Y-100130952D01*
X116214285Y-100178571D01*
X116261904Y-100226190D01*
X116309523Y-100321428D01*
X116309523Y-100511904D01*
X116261904Y-100607142D01*
X116214285Y-100654761D01*
X116119047Y-100702380D01*
X115928571Y-100702380D01*
X115833333Y-100654761D01*
X115785714Y-100607142D01*
X115738095Y-100511904D01*
X115738095Y-100321428D01*
X115785714Y-100226190D01*
X115833333Y-100178571D01*
X115928571Y-100130952D01*
X117642857Y-104202380D02*
X117976190Y-103726190D01*
X118214285Y-104202380D02*
X118214285Y-103202380D01*
X117833333Y-103202380D01*
X117738095Y-103250000D01*
X117690476Y-103297619D01*
X117642857Y-103392857D01*
X117642857Y-103535714D01*
X117690476Y-103630952D01*
X117738095Y-103678571D01*
X117833333Y-103726190D01*
X118214285Y-103726190D01*
X117261904Y-103297619D02*
X117214285Y-103250000D01*
X117119047Y-103202380D01*
X116880952Y-103202380D01*
X116785714Y-103250000D01*
X116738095Y-103297619D01*
X116690476Y-103392857D01*
X116690476Y-103488095D01*
X116738095Y-103630952D01*
X117309523Y-104202380D01*
X116690476Y-104202380D01*
X116214285Y-104202380D02*
X116023809Y-104202380D01*
X115928571Y-104154761D01*
X115880952Y-104107142D01*
X115785714Y-103964285D01*
X115738095Y-103773809D01*
X115738095Y-103392857D01*
X115785714Y-103297619D01*
X115833333Y-103250000D01*
X115928571Y-103202380D01*
X116119047Y-103202380D01*
X116214285Y-103250000D01*
X116261904Y-103297619D01*
X116309523Y-103392857D01*
X116309523Y-103630952D01*
X116261904Y-103726190D01*
X116214285Y-103773809D01*
X116119047Y-103821428D01*
X115928571Y-103821428D01*
X115833333Y-103773809D01*
X115785714Y-103726190D01*
X115738095Y-103630952D01*
X117642857Y-107702380D02*
X117976190Y-107226190D01*
X118214285Y-107702380D02*
X118214285Y-106702380D01*
X117833333Y-106702380D01*
X117738095Y-106750000D01*
X117690476Y-106797619D01*
X117642857Y-106892857D01*
X117642857Y-107035714D01*
X117690476Y-107130952D01*
X117738095Y-107178571D01*
X117833333Y-107226190D01*
X118214285Y-107226190D01*
X117309523Y-106702380D02*
X116690476Y-106702380D01*
X117023809Y-107083333D01*
X116880952Y-107083333D01*
X116785714Y-107130952D01*
X116738095Y-107178571D01*
X116690476Y-107273809D01*
X116690476Y-107511904D01*
X116738095Y-107607142D01*
X116785714Y-107654761D01*
X116880952Y-107702380D01*
X117166666Y-107702380D01*
X117261904Y-107654761D01*
X117309523Y-107607142D01*
X116071428Y-106702380D02*
X115976190Y-106702380D01*
X115880952Y-106750000D01*
X115833333Y-106797619D01*
X115785714Y-106892857D01*
X115738095Y-107083333D01*
X115738095Y-107321428D01*
X115785714Y-107511904D01*
X115833333Y-107607142D01*
X115880952Y-107654761D01*
X115976190Y-107702380D01*
X116071428Y-107702380D01*
X116166666Y-107654761D01*
X116214285Y-107607142D01*
X116261904Y-107511904D01*
X116309523Y-107321428D01*
X116309523Y-107083333D01*
X116261904Y-106892857D01*
X116214285Y-106797619D01*
X116166666Y-106750000D01*
X116071428Y-106702380D01*
X117642857Y-111202380D02*
X117976190Y-110726190D01*
X118214285Y-111202380D02*
X118214285Y-110202380D01*
X117833333Y-110202380D01*
X117738095Y-110250000D01*
X117690476Y-110297619D01*
X117642857Y-110392857D01*
X117642857Y-110535714D01*
X117690476Y-110630952D01*
X117738095Y-110678571D01*
X117833333Y-110726190D01*
X118214285Y-110726190D01*
X117309523Y-110202380D02*
X116690476Y-110202380D01*
X117023809Y-110583333D01*
X116880952Y-110583333D01*
X116785714Y-110630952D01*
X116738095Y-110678571D01*
X116690476Y-110773809D01*
X116690476Y-111011904D01*
X116738095Y-111107142D01*
X116785714Y-111154761D01*
X116880952Y-111202380D01*
X117166666Y-111202380D01*
X117261904Y-111154761D01*
X117309523Y-111107142D01*
X115738095Y-111202380D02*
X116309523Y-111202380D01*
X116023809Y-111202380D02*
X116023809Y-110202380D01*
X116119047Y-110345238D01*
X116214285Y-110440476D01*
X116309523Y-110488095D01*
X117642857Y-114702380D02*
X117976190Y-114226190D01*
X118214285Y-114702380D02*
X118214285Y-113702380D01*
X117833333Y-113702380D01*
X117738095Y-113750000D01*
X117690476Y-113797619D01*
X117642857Y-113892857D01*
X117642857Y-114035714D01*
X117690476Y-114130952D01*
X117738095Y-114178571D01*
X117833333Y-114226190D01*
X118214285Y-114226190D01*
X117309523Y-113702380D02*
X116690476Y-113702380D01*
X117023809Y-114083333D01*
X116880952Y-114083333D01*
X116785714Y-114130952D01*
X116738095Y-114178571D01*
X116690476Y-114273809D01*
X116690476Y-114511904D01*
X116738095Y-114607142D01*
X116785714Y-114654761D01*
X116880952Y-114702380D01*
X117166666Y-114702380D01*
X117261904Y-114654761D01*
X117309523Y-114607142D01*
X116309523Y-113797619D02*
X116261904Y-113750000D01*
X116166666Y-113702380D01*
X115928571Y-113702380D01*
X115833333Y-113750000D01*
X115785714Y-113797619D01*
X115738095Y-113892857D01*
X115738095Y-113988095D01*
X115785714Y-114130952D01*
X116357142Y-114702380D01*
X115738095Y-114702380D01*
X117642857Y-118202380D02*
X117976190Y-117726190D01*
X118214285Y-118202380D02*
X118214285Y-117202380D01*
X117833333Y-117202380D01*
X117738095Y-117250000D01*
X117690476Y-117297619D01*
X117642857Y-117392857D01*
X117642857Y-117535714D01*
X117690476Y-117630952D01*
X117738095Y-117678571D01*
X117833333Y-117726190D01*
X118214285Y-117726190D01*
X117309523Y-117202380D02*
X116690476Y-117202380D01*
X117023809Y-117583333D01*
X116880952Y-117583333D01*
X116785714Y-117630952D01*
X116738095Y-117678571D01*
X116690476Y-117773809D01*
X116690476Y-118011904D01*
X116738095Y-118107142D01*
X116785714Y-118154761D01*
X116880952Y-118202380D01*
X117166666Y-118202380D01*
X117261904Y-118154761D01*
X117309523Y-118107142D01*
X116357142Y-117202380D02*
X115738095Y-117202380D01*
X116071428Y-117583333D01*
X115928571Y-117583333D01*
X115833333Y-117630952D01*
X115785714Y-117678571D01*
X115738095Y-117773809D01*
X115738095Y-118011904D01*
X115785714Y-118107142D01*
X115833333Y-118154761D01*
X115928571Y-118202380D01*
X116214285Y-118202380D01*
X116309523Y-118154761D01*
X116357142Y-118107142D01*
X117642857Y-121702380D02*
X117976190Y-121226190D01*
X118214285Y-121702380D02*
X118214285Y-120702380D01*
X117833333Y-120702380D01*
X117738095Y-120750000D01*
X117690476Y-120797619D01*
X117642857Y-120892857D01*
X117642857Y-121035714D01*
X117690476Y-121130952D01*
X117738095Y-121178571D01*
X117833333Y-121226190D01*
X118214285Y-121226190D01*
X117309523Y-120702380D02*
X116690476Y-120702380D01*
X117023809Y-121083333D01*
X116880952Y-121083333D01*
X116785714Y-121130952D01*
X116738095Y-121178571D01*
X116690476Y-121273809D01*
X116690476Y-121511904D01*
X116738095Y-121607142D01*
X116785714Y-121654761D01*
X116880952Y-121702380D01*
X117166666Y-121702380D01*
X117261904Y-121654761D01*
X117309523Y-121607142D01*
X115833333Y-121035714D02*
X115833333Y-121702380D01*
X116071428Y-120654761D02*
X116309523Y-121369047D01*
X115690476Y-121369047D01*
X117392857Y-135452380D02*
X117726190Y-134976190D01*
X117964285Y-135452380D02*
X117964285Y-134452380D01*
X117583333Y-134452380D01*
X117488095Y-134500000D01*
X117440476Y-134547619D01*
X117392857Y-134642857D01*
X117392857Y-134785714D01*
X117440476Y-134880952D01*
X117488095Y-134928571D01*
X117583333Y-134976190D01*
X117964285Y-134976190D01*
X117059523Y-134452380D02*
X116440476Y-134452380D01*
X116773809Y-134833333D01*
X116630952Y-134833333D01*
X116535714Y-134880952D01*
X116488095Y-134928571D01*
X116440476Y-135023809D01*
X116440476Y-135261904D01*
X116488095Y-135357142D01*
X116535714Y-135404761D01*
X116630952Y-135452380D01*
X116916666Y-135452380D01*
X117011904Y-135404761D01*
X117059523Y-135357142D01*
X115535714Y-134452380D02*
X116011904Y-134452380D01*
X116059523Y-134928571D01*
X116011904Y-134880952D01*
X115916666Y-134833333D01*
X115678571Y-134833333D01*
X115583333Y-134880952D01*
X115535714Y-134928571D01*
X115488095Y-135023809D01*
X115488095Y-135261904D01*
X115535714Y-135357142D01*
X115583333Y-135404761D01*
X115678571Y-135452380D01*
X115916666Y-135452380D01*
X116011904Y-135404761D01*
X116059523Y-135357142D01*
X117200000Y-130066666D02*
X117433333Y-129733333D01*
X117600000Y-130066666D02*
X117600000Y-129366666D01*
X117333333Y-129366666D01*
X117266666Y-129400000D01*
X117233333Y-129433333D01*
X117200000Y-129500000D01*
X117200000Y-129600000D01*
X117233333Y-129666666D01*
X117266666Y-129700000D01*
X117333333Y-129733333D01*
X117600000Y-129733333D01*
X116966666Y-129366666D02*
X116533333Y-129366666D01*
X116766666Y-129633333D01*
X116666666Y-129633333D01*
X116600000Y-129666666D01*
X116566666Y-129700000D01*
X116533333Y-129766666D01*
X116533333Y-129933333D01*
X116566666Y-130000000D01*
X116600000Y-130033333D01*
X116666666Y-130066666D01*
X116866666Y-130066666D01*
X116933333Y-130033333D01*
X116966666Y-130000000D01*
X115933333Y-129366666D02*
X116066666Y-129366666D01*
X116133333Y-129400000D01*
X116166666Y-129433333D01*
X116233333Y-129533333D01*
X116266666Y-129666666D01*
X116266666Y-129933333D01*
X116233333Y-130000000D01*
X116200000Y-130033333D01*
X116133333Y-130066666D01*
X116000000Y-130066666D01*
X115933333Y-130033333D01*
X115900000Y-130000000D01*
X115866666Y-129933333D01*
X115866666Y-129766666D01*
X115900000Y-129700000D01*
X115933333Y-129666666D01*
X116000000Y-129633333D01*
X116133333Y-129633333D01*
X116200000Y-129666666D01*
X116233333Y-129700000D01*
X116266666Y-129766666D01*
X117200000Y-132566666D02*
X117433333Y-132233333D01*
X117600000Y-132566666D02*
X117600000Y-131866666D01*
X117333333Y-131866666D01*
X117266666Y-131900000D01*
X117233333Y-131933333D01*
X117200000Y-132000000D01*
X117200000Y-132100000D01*
X117233333Y-132166666D01*
X117266666Y-132200000D01*
X117333333Y-132233333D01*
X117600000Y-132233333D01*
X116966666Y-131866666D02*
X116533333Y-131866666D01*
X116766666Y-132133333D01*
X116666666Y-132133333D01*
X116600000Y-132166666D01*
X116566666Y-132200000D01*
X116533333Y-132266666D01*
X116533333Y-132433333D01*
X116566666Y-132500000D01*
X116600000Y-132533333D01*
X116666666Y-132566666D01*
X116866666Y-132566666D01*
X116933333Y-132533333D01*
X116966666Y-132500000D01*
X116300000Y-131866666D02*
X115833333Y-131866666D01*
X116133333Y-132566666D01*
X117200000Y-127566666D02*
X117433333Y-127233333D01*
X117600000Y-127566666D02*
X117600000Y-126866666D01*
X117333333Y-126866666D01*
X117266666Y-126900000D01*
X117233333Y-126933333D01*
X117200000Y-127000000D01*
X117200000Y-127100000D01*
X117233333Y-127166666D01*
X117266666Y-127200000D01*
X117333333Y-127233333D01*
X117600000Y-127233333D01*
X116966666Y-126866666D02*
X116533333Y-126866666D01*
X116766666Y-127133333D01*
X116666666Y-127133333D01*
X116600000Y-127166666D01*
X116566666Y-127200000D01*
X116533333Y-127266666D01*
X116533333Y-127433333D01*
X116566666Y-127500000D01*
X116600000Y-127533333D01*
X116666666Y-127566666D01*
X116866666Y-127566666D01*
X116933333Y-127533333D01*
X116966666Y-127500000D01*
X116133333Y-127166666D02*
X116200000Y-127133333D01*
X116233333Y-127100000D01*
X116266666Y-127033333D01*
X116266666Y-127000000D01*
X116233333Y-126933333D01*
X116200000Y-126900000D01*
X116133333Y-126866666D01*
X116000000Y-126866666D01*
X115933333Y-126900000D01*
X115900000Y-126933333D01*
X115866666Y-127000000D01*
X115866666Y-127033333D01*
X115900000Y-127100000D01*
X115933333Y-127133333D01*
X116000000Y-127166666D01*
X116133333Y-127166666D01*
X116200000Y-127200000D01*
X116233333Y-127233333D01*
X116266666Y-127300000D01*
X116266666Y-127433333D01*
X116233333Y-127500000D01*
X116200000Y-127533333D01*
X116133333Y-127566666D01*
X116000000Y-127566666D01*
X115933333Y-127533333D01*
X115900000Y-127500000D01*
X115866666Y-127433333D01*
X115866666Y-127300000D01*
X115900000Y-127233333D01*
X115933333Y-127200000D01*
X116000000Y-127166666D01*
X51452380Y-93488095D02*
X52261904Y-93488095D01*
X52357142Y-93535714D01*
X52404761Y-93583333D01*
X52452380Y-93678571D01*
X52452380Y-93869047D01*
X52404761Y-93964285D01*
X52357142Y-94011904D01*
X52261904Y-94059523D01*
X51452380Y-94059523D01*
X51452380Y-95011904D02*
X51452380Y-94535714D01*
X51928571Y-94488095D01*
X51880952Y-94535714D01*
X51833333Y-94630952D01*
X51833333Y-94869047D01*
X51880952Y-94964285D01*
X51928571Y-95011904D01*
X52023809Y-95059523D01*
X52261904Y-95059523D01*
X52357142Y-95011904D01*
X52404761Y-94964285D01*
X52452380Y-94869047D01*
X52452380Y-94630952D01*
X52404761Y-94535714D01*
X52357142Y-94488095D01*
X58702380Y-103988095D02*
X59511904Y-103988095D01*
X59607142Y-104035714D01*
X59654761Y-104083333D01*
X59702380Y-104178571D01*
X59702380Y-104369047D01*
X59654761Y-104464285D01*
X59607142Y-104511904D01*
X59511904Y-104559523D01*
X58702380Y-104559523D01*
X59035714Y-105464285D02*
X59702380Y-105464285D01*
X58654761Y-105226190D02*
X59369047Y-104988095D01*
X59369047Y-105607142D01*
X69202380Y-115857142D02*
X68726190Y-115523809D01*
X69202380Y-115285714D02*
X68202380Y-115285714D01*
X68202380Y-115666666D01*
X68250000Y-115761904D01*
X68297619Y-115809523D01*
X68392857Y-115857142D01*
X68535714Y-115857142D01*
X68630952Y-115809523D01*
X68678571Y-115761904D01*
X68726190Y-115666666D01*
X68726190Y-115285714D01*
X68202380Y-116190476D02*
X68202380Y-116857142D01*
X69202380Y-116428571D01*
X69202380Y-117285714D02*
X69202380Y-117476190D01*
X69154761Y-117571428D01*
X69107142Y-117619047D01*
X68964285Y-117714285D01*
X68773809Y-117761904D01*
X68392857Y-117761904D01*
X68297619Y-117714285D01*
X68250000Y-117666666D01*
X68202380Y-117571428D01*
X68202380Y-117380952D01*
X68250000Y-117285714D01*
X68297619Y-117238095D01*
X68392857Y-117190476D01*
X68630952Y-117190476D01*
X68726190Y-117238095D01*
X68773809Y-117285714D01*
X68821428Y-117380952D01*
X68821428Y-117571428D01*
X68773809Y-117666666D01*
X68726190Y-117714285D01*
X68630952Y-117761904D01*
X69642857Y-94702380D02*
X69976190Y-94226190D01*
X70214285Y-94702380D02*
X70214285Y-93702380D01*
X69833333Y-93702380D01*
X69738095Y-93750000D01*
X69690476Y-93797619D01*
X69642857Y-93892857D01*
X69642857Y-94035714D01*
X69690476Y-94130952D01*
X69738095Y-94178571D01*
X69833333Y-94226190D01*
X70214285Y-94226190D01*
X69071428Y-94130952D02*
X69166666Y-94083333D01*
X69214285Y-94035714D01*
X69261904Y-93940476D01*
X69261904Y-93892857D01*
X69214285Y-93797619D01*
X69166666Y-93750000D01*
X69071428Y-93702380D01*
X68880952Y-93702380D01*
X68785714Y-93750000D01*
X68738095Y-93797619D01*
X68690476Y-93892857D01*
X68690476Y-93940476D01*
X68738095Y-94035714D01*
X68785714Y-94083333D01*
X68880952Y-94130952D01*
X69071428Y-94130952D01*
X69166666Y-94178571D01*
X69214285Y-94226190D01*
X69261904Y-94321428D01*
X69261904Y-94511904D01*
X69214285Y-94607142D01*
X69166666Y-94654761D01*
X69071428Y-94702380D01*
X68880952Y-94702380D01*
X68785714Y-94654761D01*
X68738095Y-94607142D01*
X68690476Y-94511904D01*
X68690476Y-94321428D01*
X68738095Y-94226190D01*
X68785714Y-94178571D01*
X68880952Y-94130952D01*
X68071428Y-93702380D02*
X67976190Y-93702380D01*
X67880952Y-93750000D01*
X67833333Y-93797619D01*
X67785714Y-93892857D01*
X67738095Y-94083333D01*
X67738095Y-94321428D01*
X67785714Y-94511904D01*
X67833333Y-94607142D01*
X67880952Y-94654761D01*
X67976190Y-94702380D01*
X68071428Y-94702380D01*
X68166666Y-94654761D01*
X68214285Y-94607142D01*
X68261904Y-94511904D01*
X68309523Y-94321428D01*
X68309523Y-94083333D01*
X68261904Y-93892857D01*
X68214285Y-93797619D01*
X68166666Y-93750000D01*
X68071428Y-93702380D01*
%LPC*%
D12*
X35900000Y-98400000D03*
X38900000Y-98400000D03*
D13*
X46140000Y-135390000D03*
D14*
X46140000Y-132850000D03*
X48680000Y-135390000D03*
X48680000Y-132850000D03*
X51220000Y-135390000D03*
X51220000Y-132850000D03*
X53760000Y-135390000D03*
X53760000Y-132850000D03*
X56300000Y-135390000D03*
X56300000Y-132850000D03*
X58840000Y-135390000D03*
X58840000Y-132850000D03*
X61380000Y-135390000D03*
X61380000Y-132850000D03*
D15*
X82095000Y-104850000D03*
X83365000Y-104850000D03*
X84635000Y-104850000D03*
X85905000Y-104850000D03*
X85905000Y-112150000D03*
X84635000Y-112150000D03*
X83365000Y-112150000D03*
X82095000Y-112150000D03*
D16*
X92469670Y-116219670D03*
D10*
G36*
X91638820Y-116201992D02*
X92451992Y-115388820D01*
X93300520Y-116237348D01*
X92487348Y-117050520D01*
X91638820Y-116201992D01*
X91638820Y-116201992D01*
G37*
D16*
X93530330Y-117280330D03*
D10*
G36*
X92699480Y-117262652D02*
X93512652Y-116449480D01*
X94361180Y-117298008D01*
X93548008Y-118111180D01*
X92699480Y-117262652D01*
X92699480Y-117262652D01*
G37*
D16*
X93030330Y-99219670D03*
D10*
G36*
X93012652Y-100050520D02*
X92199480Y-99237348D01*
X93048008Y-98388820D01*
X93861180Y-99201992D01*
X93012652Y-100050520D01*
X93012652Y-100050520D01*
G37*
D16*
X91969670Y-100280330D03*
D10*
G36*
X91951992Y-101111180D02*
X91138820Y-100298008D01*
X91987348Y-99449480D01*
X92800520Y-100262652D01*
X91951992Y-101111180D01*
X91951992Y-101111180D01*
G37*
D16*
X75280330Y-115969670D03*
D10*
G36*
X75298008Y-115138820D02*
X76111180Y-115951992D01*
X75262652Y-116800520D01*
X74449480Y-115987348D01*
X75298008Y-115138820D01*
X75298008Y-115138820D01*
G37*
D16*
X74219670Y-117030330D03*
D10*
G36*
X74237348Y-116199480D02*
X75050520Y-117012652D01*
X74201992Y-117861180D01*
X73388820Y-117048008D01*
X74237348Y-116199480D01*
X74237348Y-116199480D01*
G37*
D16*
X79780330Y-101280330D03*
D10*
G36*
X78949480Y-101262652D02*
X79762652Y-100449480D01*
X80611180Y-101298008D01*
X79798008Y-102111180D01*
X78949480Y-101262652D01*
X78949480Y-101262652D01*
G37*
D16*
X78719670Y-100219670D03*
D10*
G36*
X77888820Y-100201992D02*
X78701992Y-99388820D01*
X79550520Y-100237348D01*
X78737348Y-101050520D01*
X77888820Y-100201992D01*
X77888820Y-100201992D01*
G37*
D16*
X88719670Y-97030330D03*
D10*
G36*
X88701992Y-97861180D02*
X87888820Y-97048008D01*
X88737348Y-96199480D01*
X89550520Y-97012652D01*
X88701992Y-97861180D01*
X88701992Y-97861180D01*
G37*
D16*
X89780330Y-95969670D03*
D10*
G36*
X89762652Y-96800520D02*
X88949480Y-95987348D01*
X89798008Y-95138820D01*
X90611180Y-95951992D01*
X89762652Y-96800520D01*
X89762652Y-96800520D01*
G37*
D16*
X78030330Y-114219670D03*
D10*
G36*
X78012652Y-115050520D02*
X77199480Y-114237348D01*
X78048008Y-113388820D01*
X78861180Y-114201992D01*
X78012652Y-115050520D01*
X78012652Y-115050520D01*
G37*
D16*
X76969670Y-115280330D03*
D10*
G36*
X76951992Y-116111180D02*
X76138820Y-115298008D01*
X76987348Y-114449480D01*
X77800520Y-115262652D01*
X76951992Y-116111180D01*
X76951992Y-116111180D01*
G37*
D16*
X90280330Y-115780330D03*
D10*
G36*
X91111180Y-115798008D02*
X90298008Y-116611180D01*
X89449480Y-115762652D01*
X90262652Y-114949480D01*
X91111180Y-115798008D01*
X91111180Y-115798008D01*
G37*
D16*
X89219670Y-114719670D03*
D10*
G36*
X90050520Y-114737348D02*
X89237348Y-115550520D01*
X88388820Y-114701992D01*
X89201992Y-113888820D01*
X90050520Y-114737348D01*
X90050520Y-114737348D01*
G37*
D16*
X78030330Y-103030330D03*
D10*
G36*
X77199480Y-103012652D02*
X78012652Y-102199480D01*
X78861180Y-103048008D01*
X78048008Y-103861180D01*
X77199480Y-103012652D01*
X77199480Y-103012652D01*
G37*
D16*
X76969670Y-101969670D03*
D10*
G36*
X76138820Y-101951992D02*
X76951992Y-101138820D01*
X77800520Y-101987348D01*
X76987348Y-102800520D01*
X76138820Y-101951992D01*
X76138820Y-101951992D01*
G37*
D16*
X93780330Y-112280330D03*
D10*
G36*
X94611180Y-112298008D02*
X93798008Y-113111180D01*
X92949480Y-112262652D01*
X93762652Y-111449480D01*
X94611180Y-112298008D01*
X94611180Y-112298008D01*
G37*
D16*
X92719670Y-111219670D03*
D10*
G36*
X93550520Y-111237348D02*
X92737348Y-112050520D01*
X91888820Y-111201992D01*
X92701992Y-110388820D01*
X93550520Y-111237348D01*
X93550520Y-111237348D01*
G37*
D16*
X79219670Y-122030330D03*
D10*
G36*
X79237348Y-121199480D02*
X80050520Y-122012652D01*
X79201992Y-122861180D01*
X78388820Y-122048008D01*
X79237348Y-121199480D01*
X79237348Y-121199480D01*
G37*
D16*
X80280330Y-120969670D03*
D10*
G36*
X80298008Y-120138820D02*
X81111180Y-120951992D01*
X80262652Y-121800520D01*
X79449480Y-120987348D01*
X80298008Y-120138820D01*
X80298008Y-120138820D01*
G37*
D16*
X70780330Y-111469670D03*
D10*
G36*
X70798008Y-110638820D02*
X71611180Y-111451992D01*
X70762652Y-112300520D01*
X69949480Y-111487348D01*
X70798008Y-110638820D01*
X70798008Y-110638820D01*
G37*
D16*
X69719670Y-112530330D03*
D10*
G36*
X69737348Y-111699480D02*
X70550520Y-112512652D01*
X69701992Y-113361180D01*
X68888820Y-112548008D01*
X69737348Y-111699480D01*
X69737348Y-111699480D01*
G37*
D16*
X97219670Y-105530330D03*
D10*
G36*
X97201992Y-106361180D02*
X96388820Y-105548008D01*
X97237348Y-104699480D01*
X98050520Y-105512652D01*
X97201992Y-106361180D01*
X97201992Y-106361180D01*
G37*
D16*
X98280330Y-104469670D03*
D10*
G36*
X98262652Y-105300520D02*
X97449480Y-104487348D01*
X98298008Y-103638820D01*
X99111180Y-104451992D01*
X98262652Y-105300520D01*
X98262652Y-105300520D01*
G37*
D16*
X91530330Y-119280330D03*
D10*
G36*
X90699480Y-119262652D02*
X91512652Y-118449480D01*
X92361180Y-119298008D01*
X91548008Y-120111180D01*
X90699480Y-119262652D01*
X90699480Y-119262652D01*
G37*
D16*
X90469670Y-118219670D03*
D10*
G36*
X89638820Y-118201992D02*
X90451992Y-117388820D01*
X91300520Y-118237348D01*
X90487348Y-119050520D01*
X89638820Y-118201992D01*
X89638820Y-118201992D01*
G37*
D16*
X80280330Y-96030330D03*
D10*
G36*
X81111180Y-96048008D02*
X80298008Y-96861180D01*
X79449480Y-96012652D01*
X80262652Y-95199480D01*
X81111180Y-96048008D01*
X81111180Y-96048008D01*
G37*
D16*
X79219670Y-94969670D03*
D10*
G36*
X80050520Y-94987348D02*
X79237348Y-95800520D01*
X78388820Y-94951992D01*
X79201992Y-94138820D01*
X80050520Y-94987348D01*
X80050520Y-94987348D01*
G37*
D16*
X76530330Y-112719670D03*
D10*
G36*
X76512652Y-113550520D02*
X75699480Y-112737348D01*
X76548008Y-111888820D01*
X77361180Y-112701992D01*
X76512652Y-113550520D01*
X76512652Y-113550520D01*
G37*
D16*
X75469670Y-113780330D03*
D10*
G36*
X75451992Y-114611180D02*
X74638820Y-113798008D01*
X75487348Y-112949480D01*
X76300520Y-113762652D01*
X75451992Y-114611180D01*
X75451992Y-114611180D01*
G37*
D16*
X85219670Y-98280330D03*
D10*
G36*
X85237348Y-97449480D02*
X86050520Y-98262652D01*
X85201992Y-99111180D01*
X84388820Y-98298008D01*
X85237348Y-97449480D01*
X85237348Y-97449480D01*
G37*
D16*
X86280330Y-97219670D03*
D10*
G36*
X86298008Y-96388820D02*
X87111180Y-97201992D01*
X86262652Y-98050520D01*
X85449480Y-97237348D01*
X86298008Y-96388820D01*
X86298008Y-96388820D01*
G37*
D16*
X91280330Y-102219670D03*
D10*
G36*
X91298008Y-101388820D02*
X92111180Y-102201992D01*
X91262652Y-103050520D01*
X90449480Y-102237348D01*
X91298008Y-101388820D01*
X91298008Y-101388820D01*
G37*
D16*
X90219670Y-103280330D03*
D10*
G36*
X90237348Y-102449480D02*
X91050520Y-103262652D01*
X90201992Y-104111180D01*
X89388820Y-103298008D01*
X90237348Y-102449480D01*
X90237348Y-102449480D01*
G37*
D16*
X88469670Y-101530330D03*
D10*
G36*
X88487348Y-100699480D02*
X89300520Y-101512652D01*
X88451992Y-102361180D01*
X87638820Y-101548008D01*
X88487348Y-100699480D01*
X88487348Y-100699480D01*
G37*
D16*
X89530330Y-100469670D03*
D10*
G36*
X89548008Y-99638820D02*
X90361180Y-100451992D01*
X89512652Y-101300520D01*
X88699480Y-100487348D01*
X89548008Y-99638820D01*
X89548008Y-99638820D01*
G37*
D16*
X85969670Y-94030330D03*
D10*
G36*
X85951992Y-94861180D02*
X85138820Y-94048008D01*
X85987348Y-93199480D01*
X86800520Y-94012652D01*
X85951992Y-94861180D01*
X85951992Y-94861180D01*
G37*
D16*
X87030330Y-92969670D03*
D10*
G36*
X87012652Y-93800520D02*
X86199480Y-92987348D01*
X87048008Y-92138820D01*
X87861180Y-92951992D01*
X87012652Y-93800520D01*
X87012652Y-93800520D01*
G37*
D16*
X90719670Y-113219670D03*
D10*
G36*
X91550520Y-113237348D02*
X90737348Y-114050520D01*
X89888820Y-113201992D01*
X90701992Y-112388820D01*
X91550520Y-113237348D01*
X91550520Y-113237348D01*
G37*
D16*
X91780330Y-114280330D03*
D10*
G36*
X92611180Y-114298008D02*
X91798008Y-115111180D01*
X90949480Y-114262652D01*
X91762652Y-113449480D01*
X92611180Y-114298008D01*
X92611180Y-114298008D01*
G37*
D16*
X72930330Y-103430330D03*
D10*
G36*
X73761180Y-103448008D02*
X72948008Y-104261180D01*
X72099480Y-103412652D01*
X72912652Y-102599480D01*
X73761180Y-103448008D01*
X73761180Y-103448008D01*
G37*
D16*
X71869670Y-102369670D03*
D10*
G36*
X72700520Y-102387348D02*
X71887348Y-103200520D01*
X71038820Y-102351992D01*
X71851992Y-101538820D01*
X72700520Y-102387348D01*
X72700520Y-102387348D01*
G37*
D16*
X74469670Y-96469670D03*
D10*
G36*
X75300520Y-96487348D02*
X74487348Y-97300520D01*
X73638820Y-96451992D01*
X74451992Y-95638820D01*
X75300520Y-96487348D01*
X75300520Y-96487348D01*
G37*
D16*
X75530330Y-97530330D03*
D10*
G36*
X76361180Y-97548008D02*
X75548008Y-98361180D01*
X74699480Y-97512652D01*
X75512652Y-96699480D01*
X76361180Y-97548008D01*
X76361180Y-97548008D01*
G37*
D16*
X73530330Y-99530330D03*
D10*
G36*
X74361180Y-99548008D02*
X73548008Y-100361180D01*
X72699480Y-99512652D01*
X73512652Y-98699480D01*
X74361180Y-99548008D01*
X74361180Y-99548008D01*
G37*
D16*
X72469670Y-98469670D03*
D10*
G36*
X73300520Y-98487348D02*
X72487348Y-99300520D01*
X71638820Y-98451992D01*
X72451992Y-97638820D01*
X73300520Y-98487348D01*
X73300520Y-98487348D01*
G37*
D17*
X44500000Y-105750000D03*
X46000000Y-105750000D03*
X39000000Y-105750000D03*
X40500000Y-105750000D03*
D18*
X44000000Y-118250000D03*
X44000000Y-116750000D03*
D17*
X54750000Y-107250000D03*
X53250000Y-107250000D03*
X54000000Y-121250000D03*
X52500000Y-121250000D03*
X49500000Y-107250000D03*
X51000000Y-107250000D03*
X49000000Y-121250000D03*
X50500000Y-121250000D03*
X66500000Y-101750000D03*
X65000000Y-101750000D03*
D18*
X51250000Y-93500000D03*
X51250000Y-92000000D03*
D17*
X62000000Y-101750000D03*
X60500000Y-101750000D03*
X54250000Y-89000000D03*
X52750000Y-89000000D03*
D19*
X63500000Y-115000000D03*
X63500000Y-118000000D03*
D20*
X66750000Y-97250000D03*
X63750000Y-97250000D03*
D18*
X103500000Y-108000000D03*
X103500000Y-109500000D03*
X114500000Y-107750000D03*
X114500000Y-109250000D03*
X82500000Y-114350000D03*
X82500000Y-115850000D03*
D21*
X57820000Y-88670000D03*
X59710000Y-88678000D03*
X59710000Y-88028000D03*
X57810000Y-87378000D03*
X59709000Y-87378000D03*
X79791000Y-129622000D03*
X81690000Y-129622000D03*
X79790000Y-128972000D03*
X79790000Y-128322000D03*
X81680000Y-128330000D03*
X79820000Y-137920000D03*
X81710000Y-137928000D03*
X81710000Y-137278000D03*
X79810000Y-136628000D03*
X81709000Y-136628000D03*
X57791000Y-80372000D03*
X59690000Y-80372000D03*
X57790000Y-79722000D03*
X57790000Y-79072000D03*
X59680000Y-79080000D03*
X104680000Y-128330000D03*
X102790000Y-128322000D03*
X102790000Y-128972000D03*
X104690000Y-129622000D03*
X102791000Y-129622000D03*
X103820000Y-88670000D03*
X105710000Y-88678000D03*
X105710000Y-88028000D03*
X103810000Y-87378000D03*
X105709000Y-87378000D03*
X80820000Y-88670000D03*
X82710000Y-88678000D03*
X82710000Y-88028000D03*
X80810000Y-87378000D03*
X82709000Y-87378000D03*
X103791000Y-80372000D03*
X105690000Y-80372000D03*
X103790000Y-79722000D03*
X103790000Y-79072000D03*
X105680000Y-79080000D03*
X80791000Y-80372000D03*
X82690000Y-80372000D03*
X80790000Y-79722000D03*
X80790000Y-79072000D03*
X82680000Y-79080000D03*
X104709000Y-136628000D03*
X102810000Y-136628000D03*
X104710000Y-137278000D03*
X104710000Y-137928000D03*
X102820000Y-137920000D03*
D22*
X34400000Y-107500000D03*
D23*
X34400000Y-104960000D03*
X34400000Y-102420000D03*
D24*
X69780330Y-103969670D03*
D10*
G36*
X69921751Y-104747487D02*
X69002513Y-103828249D01*
X69638909Y-103191853D01*
X70558147Y-104111091D01*
X69921751Y-104747487D01*
X69921751Y-104747487D01*
G37*
D24*
X68719670Y-105030330D03*
D10*
G36*
X68861091Y-105808147D02*
X67941853Y-104888909D01*
X68578249Y-104252513D01*
X69497487Y-105171751D01*
X68861091Y-105808147D01*
X68861091Y-105808147D01*
G37*
D25*
X83500000Y-93500000D03*
X83500000Y-92000000D03*
X81000000Y-92000000D03*
X81000000Y-93500000D03*
D26*
X100000000Y-108500000D03*
X98500000Y-108500000D03*
D25*
X44000000Y-113250000D03*
X44000000Y-111750000D03*
X47750000Y-118250000D03*
X47750000Y-116750000D03*
D26*
X79750000Y-108000000D03*
X78250000Y-108000000D03*
D25*
X82500000Y-101250000D03*
X82500000Y-102750000D03*
D26*
X79750000Y-105600000D03*
X78250000Y-105600000D03*
D25*
X85500000Y-102750000D03*
X85500000Y-101250000D03*
D26*
X89750000Y-105600000D03*
X88250000Y-105600000D03*
X79750000Y-110400000D03*
X78250000Y-110400000D03*
X88250000Y-108000000D03*
X89750000Y-108000000D03*
X88250000Y-110400000D03*
X89750000Y-110400000D03*
D25*
X85500000Y-115750000D03*
X85500000Y-114250000D03*
D26*
X117780500Y-94750000D03*
X116280500Y-94750000D03*
X117750000Y-98250000D03*
X116250000Y-98250000D03*
X117750000Y-101750000D03*
X116250000Y-101750000D03*
X117750000Y-105250000D03*
X116250000Y-105250000D03*
X116250000Y-108750000D03*
X117750000Y-108750000D03*
X116250000Y-112250000D03*
X117750000Y-112250000D03*
X116250000Y-115750000D03*
X117750000Y-115750000D03*
X117750000Y-119250000D03*
X116250000Y-119250000D03*
X116250000Y-122750000D03*
X117750000Y-122750000D03*
X116000000Y-133500000D03*
X117500000Y-133500000D03*
X116000000Y-128500000D03*
X117500000Y-128500000D03*
X116000000Y-131000000D03*
X117500000Y-131000000D03*
X117500000Y-126000000D03*
X116000000Y-126000000D03*
D27*
X54198000Y-96536000D03*
X54198000Y-91964000D03*
X54198000Y-94250000D03*
D28*
X60802000Y-94250000D03*
D29*
X34100000Y-111520000D03*
X34100000Y-118380000D03*
D30*
X36770000Y-117447940D03*
X36770000Y-112447940D03*
D31*
X43866000Y-98450000D03*
X40866000Y-93750000D03*
D32*
X46866000Y-93750000D03*
D33*
X63500000Y-111552000D03*
D34*
X63500000Y-104948000D03*
X65786000Y-104948000D03*
X61214000Y-104948000D03*
D14*
X84503500Y-134543500D03*
D13*
X84503500Y-132003500D03*
D14*
X81963500Y-134543500D03*
X81963500Y-132003500D03*
X79423500Y-134543500D03*
X79423500Y-132003500D03*
X76883500Y-134543500D03*
X76883500Y-132003500D03*
X74343500Y-134543500D03*
X74343500Y-132003500D03*
X71803500Y-134543500D03*
D35*
X71803500Y-132003500D03*
X94803500Y-132003500D03*
D14*
X94803500Y-134543500D03*
X97343500Y-132003500D03*
X97343500Y-134543500D03*
X99883500Y-132003500D03*
X99883500Y-134543500D03*
X102423500Y-132003500D03*
X102423500Y-134543500D03*
X104963500Y-132003500D03*
X104963500Y-134543500D03*
D13*
X107503500Y-132003500D03*
D14*
X107503500Y-134543500D03*
D35*
X67696500Y-84996500D03*
D14*
X67696500Y-82456500D03*
X65156500Y-84996500D03*
X65156500Y-82456500D03*
X62616500Y-84996500D03*
X62616500Y-82456500D03*
X60076500Y-84996500D03*
X60076500Y-82456500D03*
X57536500Y-84996500D03*
X57536500Y-82456500D03*
D13*
X54996500Y-84996500D03*
D14*
X54996500Y-82456500D03*
D35*
X90696500Y-84996500D03*
D14*
X90696500Y-82456500D03*
X88156500Y-84996500D03*
X88156500Y-82456500D03*
X85616500Y-84996500D03*
X85616500Y-82456500D03*
X83076500Y-84996500D03*
X83076500Y-82456500D03*
X80536500Y-84996500D03*
X80536500Y-82456500D03*
D13*
X77996500Y-84996500D03*
D14*
X77996500Y-82456500D03*
X100996500Y-82456500D03*
D13*
X100996500Y-84996500D03*
D14*
X103536500Y-82456500D03*
X103536500Y-84996500D03*
X106076500Y-82456500D03*
X106076500Y-84996500D03*
X108616500Y-82456500D03*
X108616500Y-84996500D03*
X111156500Y-82456500D03*
X111156500Y-84996500D03*
X113696500Y-82456500D03*
D35*
X113696500Y-84996500D03*
D36*
X66750000Y-115050000D03*
X66750000Y-117950000D03*
D37*
X66700000Y-94250000D03*
X63800000Y-94250000D03*
D38*
X36750000Y-92750000D03*
D39*
X36750000Y-94750000D03*
D40*
X119500000Y-137000000D03*
X119500000Y-80000000D03*
D41*
X39450000Y-102300000D03*
D42*
X41990000Y-102300000D03*
D43*
X119500000Y-87500000D03*
X119500000Y-85500000D03*
X119500000Y-89500000D03*
D44*
X119500000Y-91600000D03*
X119500000Y-83400000D03*
D40*
X34500000Y-80000000D03*
D45*
X72800000Y-84800000D03*
X72800000Y-91300000D03*
X120000000Y-131840000D03*
X113500000Y-131840000D03*
X113500000Y-126500000D03*
X120000000Y-126500000D03*
D46*
X40250000Y-83500000D03*
X44250000Y-83500000D03*
X48250000Y-83500000D03*
D47*
X50250000Y-85250000D03*
X50250000Y-79250000D03*
X38250000Y-85250000D03*
X38250000Y-79250000D03*
D40*
X34500000Y-137000000D03*
M02*
