<?xml version="1.0" encoding="UTF-8" standalone="no"?>
<!-- Created with Inkscape (http://www.inkscape.org/) -->

<svg
   xmlns:dc="http://purl.org/dc/elements/1.1/"
   xmlns:cc="http://creativecommons.org/ns#"
   xmlns:rdf="http://www.w3.org/1999/02/22-rdf-syntax-ns#"
   xmlns:svg="http://www.w3.org/2000/svg"
   xmlns="http://www.w3.org/2000/svg"
   xmlns:sodipodi="http://sodipodi.sourceforge.net/DTD/sodipodi-0.dtd"
   xmlns:inkscape="http://www.inkscape.org/namespaces/inkscape"
   width="210mm"
   height="297mm"
   viewBox="0 0 744.09448819 1052.3622047"
   id="svg2"
   version="1.1"
   inkscape:version="0.91 r13725"
   sodipodi:docname="drawing.svg">
  <defs
     id="defs4" />
  <sodipodi:namedview
     id="base"
     pagecolor="#ffffff"
     bordercolor="#666666"
     borderopacity="1.0"
     inkscape:pageopacity="0.0"
     inkscape:pageshadow="2"
     inkscape:zoom="8.2707506"
     inkscape:cx="146.42401"
     inkscape:cy="32.857142"
     inkscape:document-units="px"
     inkscape:current-layer="layer5"
     showgrid="false"
     inkscape:window-width="1280"
     inkscape:window-height="737"
     inkscape:window-x="-4"
     inkscape:window-y="-4"
     inkscape:window-maximized="1" />
  <metadata
     id="metadata7">
    <rdf:RDF>
      <cc:Work
         rdf:about="">
        <dc:format>image/svg+xml</dc:format>
        <dc:type
           rdf:resource="http://purl.org/dc/dcmitype/StillImage" />
        <dc:title></dc:title>
      </cc:Work>
    </rdf:RDF>
  </metadata>
  <g
     inkscape:groupmode="layer"
     id="layer5"
     inkscape:label="Layer 5 text bg">
    <rect
       style="fill:#ffffff;fill-opacity:1;stroke:none;stroke-width:1.36483896;stroke-linejoin:miter;stroke-miterlimit:4;stroke-dasharray:none;stroke-opacity:1"
       id="rect5107"
       width="28.657625"
       height="9.3123417"
       x="64.68457"
       y="1029.8721"
       inkscape:export-xdpi="300"
       inkscape:export-ydpi="300" />
    <rect
       style="fill:#ffffff;fill-opacity:1;stroke:none;stroke-width:0.56646419;stroke-linejoin:miter;stroke-miterlimit:4;stroke-dasharray:none;stroke-opacity:1"
       id="rect5109"
       width="21.838793"
       height="7.4507403"
       x="147.95374"
       y="1030.8029"
       inkscape:export-xdpi="300"
       inkscape:export-ydpi="300" />
  </g>
  <g
     inkscape:groupmode="layer"
     id="layer3"
     inkscape:label="Layer 3  spartan">
    <text
       xml:space="preserve"
       style="font-style:normal;font-variant:normal;font-weight:normal;font-stretch:normal;font-size:10px;line-height:125%;font-family:Narkisim;-inkscape-font-specification:Narkisim;letter-spacing:0px;word-spacing:0px;fill:#000000;fill-opacity:1;stroke:none;stroke-width:1px;stroke-linecap:butt;stroke-linejoin:miter;stroke-opacity:1"
       x="64.395256"
       y="1037.4438"
       id="text5095"
       sodipodi:linespacing="125%"
       inkscape:export-xdpi="300"
       inkscape:export-ydpi="300"><tspan
         sodipodi:role="line"
         id="tspan5097"
         x="64.395256"
         y="1037.4438"
         style="font-style:normal;font-variant:normal;font-weight:normal;font-stretch:normal;font-size:10px;font-family:Narkisim;-inkscape-font-specification:Narkisim">Spartan</tspan></text>
  </g>
  <g
     inkscape:groupmode="layer"
     id="layer4"
     inkscape:label="Layer 4 mini">
    <text
       xml:space="preserve"
       style="font-style:normal;font-variant:normal;font-weight:normal;font-stretch:normal;font-size:7.5px;line-height:125%;font-family:'Segoe Script';-inkscape-font-specification:'Segoe Script';letter-spacing:0px;word-spacing:0px;fill:#000000;fill-opacity:1;stroke:none;stroke-width:1px;stroke-linecap:butt;stroke-linejoin:miter;stroke-opacity:1"
       x="148.06065"
       y="1037.0885"
       id="text5100"
       sodipodi:linespacing="125%"
       inkscape:export-xdpi="300"
       inkscape:export-ydpi="300"><tspan
         sodipodi:role="line"
         id="tspan5102"
         x="148.06065"
         y="1037.0885">mini</tspan></text>
  </g>
  <g
     inkscape:groupmode="layer"
     id="layer2"
     inkscape:label="Layer 2">
    <rect
       style="fill:#ffffff;fill-opacity:1;stroke:none;stroke-width:0;stroke-linejoin:miter;stroke-miterlimit:4;stroke-dasharray:none;stroke-opacity:1"
       id="rect5090"
       width="34.01786"
       height="44.910748"
       x="66.890793"
       y="940.56885"
       inkscape:export-xdpi="300"
       inkscape:export-ydpi="300" />
  </g>
  <g
     inkscape:label="Layer 1"
     inkscape:groupmode="layer"
     id="layer1"
     style="display:inline">
    <path
       style="fill:#000000"
       d="m 84.811168,984.14864 c -0.01,-0.067 -0.007,-0.0705 0.052,-0.0588 0.0551,0.011 0.0673,0.002 0.10353,-0.0785 0.0226,-0.05 0.0495,-0.091 0.0599,-0.091 0.0104,0 0.0129,-0.0156 0.006,-0.0346 -0.017,-0.0443 0.035,-0.0439 0.094,4.4e-4 0.0438,0.0332 0.0438,0.0338 -0.004,0.0338 -0.027,0 -0.0565,0.0119 -0.0655,0.0264 -0.0116,0.0188 0.003,0.0217 0.0505,0.01 0.0549,-0.0136 0.0615,-0.0111 0.0371,0.0136 -0.0163,0.0166 -0.0423,0.0313 -0.0576,0.0327 -0.12861,0.0116 -0.12308,0.009 -0.0798,0.0344 0.05,0.0291 0.0551,0.10093 0.006,0.082 -0.019,-0.007 -0.0579,-0.004 -0.0864,0.008 -0.0322,0.0129 -0.0383,0.0214 -0.016,0.0223 0.0198,0.001 0.056,0.0167 0.0807,0.0353 0.0414,0.0313 0.0368,0.0339 -0.0621,0.0346 -0.10202,4.4e-4 -0.10733,-0.003 -0.11732,-0.0705 z m 0.40064,-0.2759 c -0.0297,-0.0119 -0.0628,-0.0162 -0.0735,-0.01 -0.0107,0.007 -0.0293,-0.006 -0.0413,-0.0269 -0.0304,-0.0543 0.1218,-0.16228 0.17113,-0.12134 0.0233,0.0193 0.0322,0.0196 0.0322,10e-4 0,-0.0438 0.0497,-0.0286 0.0621,0.019 0.006,0.0247 0.0288,0.0494 0.0497,0.0549 0.0268,0.007 0.0233,0.0109 -0.012,0.0127 -0.0275,0.002 -0.0536,-0.008 -0.058,-0.0216 -0.005,-0.0166 -0.0263,-0.017 -0.0653,-0.002 -0.0557,0.0222 -0.0559,0.0229 -0.005,0.0243 0.0531,0.002 0.0751,0.0473 0.023,0.0479 -0.0192,4.4e-4 -0.0173,0.008 0.006,0.0227 0.0307,0.0199 0.0307,0.0222 0,0.0212 -0.019,-4.4e-4 -0.0589,-0.0108 -0.0885,-0.0227 z m -0.47172,-0.15406 c -0.0417,-0.19663 -0.0437,-0.21883 -0.0183,-0.20318 0.0357,0.022 0.0318,-0.0138 -0.008,-0.07 -0.0182,-0.026 -0.0363,-0.0879 -0.0403,-0.13764 -0.006,-0.0797 -8.8e-4,-0.0913 0.0465,-0.098 0.0296,-0.004 0.0754,0.0114 0.1019,0.0346 0.0265,0.0232 0.0406,0.0294 0.0315,0.0136 -0.0112,-0.0193 -0.005,-0.0241 0.0189,-0.0149 0.02,0.008 0.0411,-10e-4 0.0483,-0.0195 0.007,-0.0182 0.0252,-0.0332 0.0405,-0.0333 0.0153,-4.4e-4 0.0494,-0.007 0.0758,-0.0157 0.0334,-0.0108 0.048,-0.006 0.048,0.0172 0,0.018 -0.0138,0.0274 -0.0307,0.0209 -0.0169,-0.006 -0.0307,4.4e-4 -0.0307,0.0151 0,0.0148 -0.0104,0.0205 -0.023,0.0127 -0.0521,-0.0322 -0.18905,0.12431 -0.16692,0.1907 0.0165,0.0494 0.0517,0.0303 0.0517,-0.0281 0,-0.0309 0.012,-0.0637 0.0266,-0.0727 0.0175,-0.0108 0.0209,-0.005 0.01,0.0159 -0.009,0.0178 -1.4e-4,0.0118 0.0202,-0.0134 0.0367,-0.0453 0.0371,-0.0453 0.0505,0.006 0.007,0.0283 0.0226,0.0515 0.0338,0.0515 0.0112,0 0.0204,0.0159 0.0204,0.0353 0,0.0368 -0.0861,0.0806 -0.12757,0.0648 -0.0131,-0.005 -0.0256,0.0135 -0.0276,0.0411 -0.005,0.0655 -0.0522,0.11576 -0.0522,0.0555 0,-0.0711 -0.0329,-0.0159 -0.059,0.0989 l -0.0245,0.10769 -0.0159,-0.0749 z m -4.59622,-0.23694 c -0.0285,-0.0114 -0.0519,-0.0144 -0.0519,-0.006 0,0.0282 -0.0975,-0.0744 -0.12938,-0.13615 -0.0297,-0.0575 -0.029,-0.0617 0.008,-0.05 0.0274,0.009 0.021,-0.005 -0.0196,-0.0409 -0.0686,-0.0612 -0.32621,-0.54355 -0.30692,-0.57476 0.007,-0.0113 -8.8e-4,-0.0207 -0.0175,-0.0209 -0.0219,-4.4e-4 -0.0207,-0.006 0.004,-0.0227 0.0285,-0.0184 0.0288,-0.0224 0.002,-0.0227 -0.018,-4.4e-4 -0.0266,-0.006 -0.0193,-0.0137 0.007,-0.007 0.0363,-10e-4 0.0642,0.0138 0.0367,0.0197 0.0463,0.0199 0.0346,0.001 -0.0258,-0.0417 0.0951,-0.007 0.26272,0.0755 0.11198,0.0551 0.14915,0.0855 0.15164,0.12392 0.002,0.0367 -0.0149,0.0573 -0.0619,0.0737 -0.0671,0.0234 -0.0874,0.0808 -0.0364,0.10295 0.0158,0.007 -10e-4,0.006 -0.038,-0.002 -0.047,-0.01 -0.062,-0.006 -0.0505,0.0124 0.009,0.0145 0.0306,0.0264 0.0482,0.0264 0.0175,0 0.0391,0.0116 0.0479,0.026 0.0111,0.018 -0.01,0.0229 -0.0678,0.0162 -0.0917,-0.0107 -0.0975,-0.005 -0.0514,0.0563 0.018,0.0236 0.0462,0.0348 0.0675,0.0267 0.0279,-0.0107 0.0343,-0.002 0.027,0.0357 -0.007,0.0373 1.5e-4,0.0475 0.0297,0.0411 0.0216,-0.005 0.0364,-0.0219 0.0328,-0.0382 -0.004,-0.0163 0.007,-0.0247 0.023,-0.0188 0.0162,0.006 0.0269,0.0225 0.0238,0.0367 -0.003,0.0143 0.006,0.0233 0.0202,0.0202 0.0143,-0.003 0.0303,0.006 0.0356,0.0203 0.005,0.0149 -0.0262,0.0328 -0.0737,0.0417 -0.0666,0.0125 -0.0782,0.0219 -0.0575,0.0468 0.0181,0.0218 0.0185,0.0357 0.001,0.0463 -0.0436,0.027 -1.4e-4,0.0581 0.0813,0.0581 0.0551,0 0.0793,0.0105 0.0793,0.0346 0,0.019 -0.003,0.0339 -0.006,0.0331 -0.003,-10e-4 -0.0291,-0.0109 -0.0576,-0.0223 z m 5.74908,-0.60123 c -0.0226,-0.0247 -0.0351,-0.0549 -0.0276,-0.067 0.007,-0.0121 -10e-4,-0.0163 -0.0195,-0.009 -0.0218,0.008 -0.0413,-0.0111 -0.0574,-0.0574 -0.0255,-0.0732 -0.005,-0.10885 0.0477,-0.0822 0.0158,0.008 0.01,-10e-4 -0.0138,-0.0201 -0.0252,-0.0205 -0.0354,-0.0464 -0.025,-0.0632 0.0121,-0.0196 0.006,-0.0241 -0.0188,-0.0145 -0.044,0.0169 -0.0652,-0.0285 -0.0466,-0.0997 0.0105,-0.0403 0.006,-0.0476 -0.0189,-0.0328 -0.0178,0.0105 -0.0117,-0.005 0.0137,-0.0349 0.0399,-0.0467 0.0407,-0.052 0.006,-0.0393 -0.0251,0.009 -0.038,0.004 -0.0346,-0.0134 0.003,-0.0154 -0.007,-0.0254 -0.0233,-0.0222 -0.0417,0.008 -0.0355,-0.0623 0.007,-0.0785 0.0206,-0.008 0.0488,0.004 0.0666,0.0287 0.0258,0.0352 0.037,0.0374 0.0667,0.0127 0.0321,-0.0267 0.0309,-0.0391 -0.0119,-0.12122 -0.0465,-0.0892 -0.0466,-0.0923 -0.005,-0.12362 0.0384,-0.0285 0.0457,-0.0264 0.0656,0.0184 0.0255,0.0576 0.0769,0.0966 0.12741,0.0966 0.0522,0 0.0415,0.0681 -0.0119,0.0758 -0.0256,0.004 -0.0664,0.0363 -0.0908,0.0725 -0.0269,0.0399 -0.0574,0.0608 -0.0776,0.053 -0.0218,-0.008 -0.0293,-0.002 -0.0216,0.0197 0.007,0.0179 0.0241,0.0297 0.0392,0.0262 0.0331,-0.008 0.1627,0.0813 0.1627,0.11153 0,0.0304 -0.0862,0.0267 -0.10554,-0.005 -0.0111,-0.018 -0.0222,-0.015 -0.036,0.01 -0.028,0.05 -10e-6,0.10865 0.0518,0.10865 0.024,0 0.0436,0.0156 0.0436,0.0346 0,0.019 -0.008,0.0346 -0.0173,0.0346 -0.01,1e-5 -0.0188,0.0259 -0.0206,0.0576 -0.004,0.0679 0.01,0.0725 0.0519,0.0173 0.0178,-0.0234 0.0309,-0.0286 0.0314,-0.0123 4.4e-4,0.0155 0.0141,0.023 0.0304,0.0167 0.0177,-0.007 0.0311,0.008 0.0332,0.0358 0.002,0.0259 -0.006,0.0412 -0.0181,0.0338 -0.0119,-0.007 -0.0216,-10e-4 -0.0216,0.0139 0,0.0202 -0.008,0.0206 -0.0309,0.002 -0.037,-0.0307 -0.063,-0.0114 -0.0457,0.0338 0.0163,0.0425 0.005,0.0383 -0.0452,-0.0165 z m -0.28852,-0.002 c -0.038,-0.038 -0.0344,-0.0644 0.009,-0.0644 0.0199,0 0.0518,-0.0156 0.0708,-0.0346 0.047,-0.047 0.0714,-0.0434 0.0894,0.0132 0.0182,0.0574 0.0155,0.0607 -0.0582,0.0709 -0.0317,0.005 -0.0634,0.0158 -0.0704,0.0252 -0.007,0.009 -0.0252,0.005 -0.0403,-0.0104 z m 0.48693,-0.16443 c 0.008,-0.055 0.004,-0.10956 -0.007,-0.12119 -0.0283,-0.0282 0.0106,-0.0887 0.0439,-0.0682 0.0143,0.009 0.019,0.0273 0.0105,0.0411 -0.009,0.014 -0.005,0.0185 0.008,0.0102 0.0254,-0.0157 0.0514,0.0542 0.052,0.1394 2.9e-4,0.0446 -0.0573,0.0987 -0.10501,0.0987 -0.009,0 -0.01,-0.045 -0.002,-0.10004 z m -1.30333,-0.0355 c -0.0151,-0.0554 0.031,-0.13071 0.0615,-0.10026 0.008,0.009 0.0253,4.4e-4 0.0373,-0.0184 0.0183,-0.0284 0.0251,-0.0288 0.0422,-0.003 0.0165,0.0256 0.0256,0.0234 0.0478,-0.0115 0.0258,-0.0405 0.0267,-0.0406 0.0142,-0.001 -0.007,0.0232 -0.0133,0.0612 -0.0133,0.0845 0,0.0341 -0.0155,0.041 -0.0796,0.036 -0.058,-0.005 -0.0817,0.004 -0.0874,0.0307 -0.005,0.0258 -0.0123,0.0204 -0.0227,-0.0178 z m 1.42564,-0.0316 c -0.008,-0.0285 -0.014,-0.0795 -0.0142,-0.11334 -4.4e-4,-0.0987 -0.0206,-0.12854 -0.0789,-0.1174 -0.0357,0.007 -0.0582,-0.003 -0.0685,-0.0298 -0.0211,-0.055 0.002,-0.0715 0.0549,-0.0387 0.0243,0.0152 0.0497,0.0183 0.0567,0.007 0.007,-0.0113 0.0308,-0.0171 0.0529,-0.0128 0.0221,0.004 0.0454,0.009 0.0518,0.01 0.006,10e-4 -0.004,0.0132 -0.023,0.0268 -0.0278,0.0198 -0.0244,0.0224 0.0173,0.0134 0.0638,-0.014 0.0643,-0.006 0.004,0.0785 -0.0431,0.0606 -0.0437,0.0654 -0.006,0.0517 0.023,-0.008 0.0342,-0.007 0.0249,0.004 -0.009,0.0102 0.001,0.0319 0.023,0.0481 0.0374,0.0276 0.0367,0.0325 -0.0109,0.0772 -0.0635,0.0596 -0.0674,0.0594 -0.0844,-0.004 z m 0.30811,0.0141 c 0,-0.0195 0.0262,-0.0314 0.0691,-0.0314 0.038,0 0.0691,-0.009 0.0691,-0.0209 0,-0.0117 0.0353,-0.01 0.0807,0.004 0.0444,0.0136 0.0807,0.0337 0.0807,0.0447 0,0.035 -0.0685,0.0476 -0.10299,0.0191 -0.0183,-0.0152 -0.0447,-0.0205 -0.0586,-0.0119 -0.0498,0.0308 -0.13796,0.0286 -0.13796,-0.004 z m -1.15535,-0.0698 c -0.0308,-0.008 -0.0342,-0.0254 -0.0185,-0.0948 0.0206,-0.0911 -0.0198,-0.16636 -0.0892,-0.16636 -0.0263,0 -0.0236,0.01 0.0114,0.0403 0.0351,0.0308 0.0435,0.0607 0.0356,0.12674 -0.006,0.0475 -0.0185,0.0864 -0.0284,0.0864 -0.0329,0 -0.0473,-0.0744 -0.0206,-0.10663 0.0366,-0.0441 -0.0123,-0.0416 -0.0568,0.003 -0.019,0.019 -0.0426,0.0346 -0.0524,0.0346 -0.01,0 -0.005,-0.0124 0.01,-0.0276 0.0384,-0.0385 0.0346,-0.0876 -0.007,-0.0876 -0.019,0 -0.0346,0.0146 -0.0346,0.0324 0,0.0221 -0.0165,0.0283 -0.0519,0.0193 -0.0657,-0.0166 -0.0886,-0.0507 -0.0734,-0.10932 0.009,-0.036 0.004,-0.0335 -0.0252,0.0115 -0.0218,0.0338 -0.0317,0.0402 -0.024,0.0154 0.007,-0.0232 0.0131,-0.0552 0.0131,-0.0711 0,-0.0355 0.0746,-0.0389 0.097,-0.005 0.0116,0.0179 0.0234,0.018 0.0411,4.4e-4 0.0275,-0.0275 0.008,-0.10161 -0.0269,-0.10161 -0.0122,0 -0.0379,-0.0157 -0.057,-0.0348 -0.0191,-0.0191 -0.0459,-0.0279 -0.0596,-0.0195 -0.0379,0.0234 -0.004,-0.15118 0.039,-0.19818 0.0516,-0.057 0.0437,-0.0729 -0.0216,-0.0432 -0.0467,0.0213 -0.0544,0.037 -0.0423,0.0859 0.0134,0.0538 0.011,0.0567 -0.0236,0.0281 -0.0212,-0.0174 -0.0479,-0.0641 -0.0594,-0.10371 -0.0115,-0.0396 -0.0218,-0.0551 -0.023,-0.0343 -0.001,0.0207 -0.0236,0.0433 -0.05,0.0502 -0.0339,0.009 -0.0444,0.004 -0.036,-0.0185 0.0112,-0.0291 -0.0444,-0.0698 -0.0838,-0.0613 -0.01,0.002 -0.0231,-0.01 -0.0294,-0.0259 -0.007,-0.0173 -0.0452,-0.0287 -0.092,-0.0272 -0.0471,0.002 -0.0923,-0.0119 -0.1089,-0.0324 -0.0184,-0.0227 -0.0191,-0.0295 -0.002,-0.0193 0.0386,0.0231 0.0598,-0.0526 0.027,-0.0963 -0.0233,-0.031 -0.0227,-0.0326 0.003,-0.01 0.0217,0.0192 0.0443,0.0208 0.0738,0.005 0.0339,-0.0181 0.0429,-0.0143 0.0444,0.0184 10e-4,0.0241 0.007,0.0293 0.0134,0.0123 0.0237,-0.0587 0.0595,-0.028 0.046,0.0395 -0.007,0.0375 -0.004,0.0744 0.009,0.082 0.0123,0.008 0.0223,-0.002 0.0223,-0.0216 0,-0.0194 0.0311,-0.0514 0.069,-0.071 0.061,-0.0315 0.0657,-0.041 0.0405,-0.0813 -0.0225,-0.036 -0.0225,-0.0551 -1.5e-4,-0.0908 0.0233,-0.0373 0.0225,-0.0431 -0.004,-0.0327 -0.0236,0.009 -0.0291,-4.4e-4 -0.02,-0.0354 0.01,-0.0364 0.002,-0.0479 -0.0322,-0.0479 -0.0246,0 -0.064,-0.0183 -0.0875,-0.0406 -0.0409,-0.0388 -0.045,-0.0386 -0.0942,0.005 -0.0381,0.0339 -0.046,0.0561 -0.0304,0.0852 0.0233,0.0435 0.0289,0.10396 0.008,0.0827 -0.007,-0.007 -0.0358,0.009 -0.0631,0.0362 l -0.0497,0.0497 -0.0153,-0.10717 c -0.008,-0.0589 -0.0226,-0.13013 -0.0315,-0.15819 -0.011,-0.0346 -0.008,-0.046 0.009,-0.0352 0.014,0.009 0.0255,0.003 0.0255,-0.0132 0,-0.0226 0.006,-0.0229 0.0276,-0.002 0.0334,0.0334 0.073,0.0369 0.053,0.005 -0.008,-0.0127 -0.003,-0.023 0.0102,-0.023 0.0134,0 0.0244,-0.01 0.0244,-0.0223 0,-0.0123 -0.0159,-0.0162 -0.0353,-0.009 -0.0457,0.0175 -0.14014,-0.0913 -0.15837,-0.18245 -0.0197,-0.0986 -0.0177,-0.10909 0.0208,-0.10909 0.019,0 0.0346,-0.009 0.0346,-0.0209 0,-0.0115 -0.0196,-0.0158 -0.0436,-0.009 -0.038,0.01 -0.0457,-0.006 -0.0597,-0.12769 -0.009,-0.0765 -0.008,-0.1516 0.001,-0.16691 0.01,-0.0157 0.007,-0.0219 -0.005,-0.0142 -0.0131,0.008 -0.076,-0.30351 -0.15405,-0.76271 -0.22908,-1.34812 -0.65266,-3.87955 -0.68328,-4.08345 -0.0162,-0.10774 -0.18395,-1.13342 -0.37284,-2.27929 -0.18888,-1.14588 -0.34049,-2.09106 -0.33692,-2.10043 0.004,-0.009 0.21911,0.0866 0.47895,0.21316 0.70021,0.34118 0.85103,0.41011 0.89736,0.41011 0.0231,0 0.25858,-0.18927 0.52335,-0.42059 0.26478,-0.23132 0.83846,-0.7317 1.27486,-1.11196 0.43639,-0.38025 1.04288,-0.90998 1.34775,-1.17717 0.30487,-0.26719 0.58957,-0.51609 0.63267,-0.5531 0.0431,-0.037 0.13194,-0.11396 0.19742,-0.171 0.0655,-0.057 0.18517,-0.16075 0.26598,-0.23045 0.0808,-0.0697 0.18383,-0.15978 0.22893,-0.20014 0.0451,-0.0403 0.15233,-0.13336 0.23829,-0.20665 0.13172,-0.11233 0.1546,-0.14245 0.14551,-0.19165 -0.006,-0.0321 -0.0396,-0.37727 -0.0748,-0.76703 -0.0632,-0.69924 -0.0648,-0.70865 -0.11562,-0.70865 -0.0284,0 -0.0754,0.009 -0.10449,0.0206 -0.0291,0.0113 -0.0944,0.0315 -0.14513,0.0448 -0.12275,0.0322 -0.65614,0.18224 -0.82964,0.23334 -0.076,0.0224 -0.22124,0.0626 -0.32264,0.0894 -0.20711,0.0547 -0.98159,0.26943 -1.14077,0.31631 -0.057,0.0168 -0.3163,0.0887 -0.57614,0.15966 -0.25984,0.071 -0.5554,0.15395 -0.6568,0.18428 -0.10141,0.0304 -0.44882,0.12781 -0.77204,0.2166 -0.32321,0.0888 -0.79507,0.2197 -1.04858,0.2909 -0.2535,0.0712 -0.83425,0.23344 -1.29056,0.36052 -0.4563,0.12708 -0.83854,0.2395 -0.84941,0.24982 -0.0109,0.0104 0.0489,1.38688 0.1343,3.08803 0.0847,1.6881 0.15016,3.07318 0.1454,3.07794 -0.0113,0.0113 -0.96916,-0.1497 -0.98514,-0.16564 -0.007,-0.007 -0.0395,-0.13842 -0.0727,-0.29266 -0.13228,-0.61402 -0.53407,-2.46771 -0.60775,-2.80392 -0.0813,-0.37083 -0.40513,-1.85966 -0.55521,-2.5523 l -0.0861,-0.39752 -0.52058,-0.38003 c -0.28632,-0.20903 -0.54107,-0.39469 -0.56612,-0.41259 -0.0416,-0.0297 -0.0471,-0.0724 -0.0638,-0.48996 -0.0166,-0.41686 0.004,-1.22756 0.044,-1.75463 l 0.0146,-0.19102 0.10278,0.0154 c 0.0756,0.0113 0.10812,0.007 0.12294,-0.0164 0.0331,-0.0523 0.0242,-0.0664 -0.0425,-0.0667 -0.13706,-10e-4 -0.13612,0.01 -0.0558,-0.61433 0.0405,-0.31469 0.0737,-0.58254 0.0737,-0.59521 2.7e-4,-0.0678 0.0372,-0.0818 0.12206,-0.0463 0.0919,0.0384 0.0996,0.03 0.0518,-0.0562 -0.0172,-0.0311 -0.0282,-0.0674 -0.0244,-0.0807 0.0224,-0.0792 0.13697,-0.45851 0.21618,-0.71557 0.13415,-0.43541 0.13353,-0.42072 0.0177,-0.42173 -0.0528,-4.4e-4 -0.10455,-0.002 -0.11509,-0.003 -0.0105,-0.001 0.003,-0.0373 0.0295,-0.0806 0.0267,-0.0433 0.0471,-0.0874 0.0452,-0.0979 -0.007,-0.0427 0.003,-0.0789 0.0201,-0.0684 0.0271,0.0168 0.15057,-0.23275 0.1351,-0.27305 -0.007,-0.0192 -0.0345,-0.035 -0.0602,-0.035 -0.0258,0 -0.0468,-0.004 -0.0468,-0.008 0,-0.005 0.0574,-0.17714 0.12747,-0.38357 0.10863,-0.31987 0.16435,-0.46976 0.287,-0.772 0.10218,-0.25181 0.36456,-0.81547 0.39155,-0.84117 0.007,-0.006 0.037,-0.0582 0.0674,-0.11523 0.0304,-0.057 0.0858,-0.16074 0.12299,-0.23046 0.0958,-0.17957 0.16246,-0.28682 0.18368,-0.29575 0.0101,-0.004 0.0183,-0.0178 0.0183,-0.0301 0,-0.0123 0.0441,-0.0855 0.098,-0.16252 0.0539,-0.0771 0.1135,-0.16339 0.13251,-0.1918 0.14154,-0.21154 0.22088,-0.32037 0.2787,-0.38227 0.0368,-0.0394 0.067,-0.0813 0.067,-0.093 0,-0.0117 0.0147,-0.0269 0.0326,-0.0339 0.018,-0.007 0.0582,-0.0512 0.0895,-0.0985 0.0665,-0.10047 0.65317,-0.6975 0.86453,-0.87978 0.80745,-0.69635 1.86721,-1.25809 2.95046,-1.56394 1.28979,-0.36416 2.86843,-0.49363 4.09177,-0.33559 0.69093,0.0893 1.26783,0.23809 1.99608,0.51497 0.12771,0.0486 0.49959,0.23236 0.84106,0.4157 0.85111,0.45696 1.77076,1.27767 2.45444,2.19037 0.40853,0.54537 0.67974,0.98876 1.01308,1.65626 0.19347,0.38738 0.29438,0.6277 0.6647,1.58283 0.32192,0.83029 0.50743,1.56585 0.65743,2.60678 0.0584,0.40546 0.0592,0.40056 -0.085,0.56237 -0.0337,0.0378 -0.0558,0.0688 -0.049,0.0688 0.007,0 -0.004,0.0249 -0.024,0.0553 -0.0199,0.0304 -0.0278,0.0589 -0.0174,0.0634 0.0365,0.0157 0.12092,0.14049 0.10851,0.16057 -0.007,0.0112 -8.8e-4,0.0203 0.0135,0.0203 0.0333,0 0.10143,0.0673 0.0849,0.0838 -0.007,0.007 0.0178,0.0442 0.0549,0.083 0.0536,0.0561 0.0677,0.0921 0.0691,0.17654 0.001,0.0583 0.005,0.12679 0.009,0.15214 0.004,0.0253 0.0195,0.20683 0.0343,0.40329 0.0149,0.19647 0.0364,0.46611 0.0478,0.5992 0.0114,0.13309 0.0272,0.41827 0.0351,0.63375 0.008,0.21548 0.0181,0.41558 0.0225,0.44466 0.0146,0.0948 0.044,1.38517 0.0447,1.96363 l 7.4e-4,0.56462 -0.0922,-0.004 c -0.0507,-0.002 -0.1355,-0.008 -0.18844,-0.014 -0.0529,-0.006 -0.10997,-0.002 -0.12675,0.009 -0.0252,0.016 -0.0252,0.0194 1.5e-4,0.0197 0.0169,4.4e-4 0.0264,0.0133 0.021,0.0292 -0.005,0.0159 0.007,0.0426 0.0269,0.0593 0.0293,0.0244 0.0297,0.0275 0.002,0.0156 -0.0216,-0.009 -0.0191,-0.002 0.007,0.0188 0.0227,0.0185 0.0382,0.0478 0.0346,0.0651 -0.004,0.0173 0.004,0.0294 0.018,0.027 0.0136,-0.003 0.0413,0.0238 0.0617,0.0583 0.0357,0.0604 0.0352,0.0626 -0.0131,0.0599 -0.0936,-0.005 -0.19996,-0.0367 -0.19996,-0.0594 0,-0.0124 -0.0104,-0.0162 -0.023,-0.008 -0.0127,0.008 -0.023,0.005 -0.023,-0.007 0,-0.0222 -0.15231,-0.0741 -0.21745,-0.0741 -0.0277,0 -0.0369,0.0153 -0.0314,0.0519 0.004,0.0285 0.0206,0.0493 0.0362,0.0461 0.0155,-0.003 0.0283,0.002 0.0283,0.0116 0,0.01 0.0285,0.0291 0.0634,0.0434 0.14064,0.0577 0.15655,0.0634 0.18124,0.065 0.0141,10e-4 0.04,0.0131 0.0576,0.027 0.0176,0.0139 0.0624,0.0326 0.0996,0.0415 0.12383,0.0297 0.12665,0.0447 0.12745,0.67646 5.8e-4,0.50414 -0.004,0.58447 -0.0348,0.59627 -0.0415,0.0159 -0.47206,-0.0362 -0.50604,-0.0612 -0.0127,-0.009 -0.18898,-0.0397 -0.39178,-0.0675 -0.50514,-0.0692 -0.49752,-0.0667 -0.56059,-0.18103 -0.0391,-0.0708 -0.0681,-0.0971 -0.10702,-0.0971 -0.0509,0 -0.0523,0.005 -0.03,0.0925 0.0182,0.0717 0.0371,0.0957 0.084,0.10688 0.0788,0.0188 0.12137,0.0533 0.10278,0.0834 -0.008,0.0132 -0.004,0.0172 0.01,0.009 0.0135,-0.008 0.0287,-0.003 0.0336,0.0117 0.005,0.0148 0.024,0.0302 0.0423,0.0341 0.0511,0.011 0.37935,0.0745 0.59794,0.11572 0.10774,0.0203 0.20626,0.0445 0.21894,0.0538 0.0127,0.009 0.0516,0.0237 0.0864,0.032 l 0.0634,0.0152 0,0.22617 c 0,0.1244 -0.007,0.23311 -0.0154,0.24159 -0.008,0.008 -0.0344,-0.002 -0.0576,-0.0228 -0.0537,-0.0486 -0.0552,-0.0145 -0.002,0.0444 0.0353,0.039 0.0394,0.0874 0.0332,0.3936 l -0.007,0.34912 -0.11281,0.11395 c -0.11102,0.11214 -0.11355,0.11327 -0.1599,0.0713 -0.0259,-0.0234 -0.0471,-0.0566 -0.0471,-0.0736 0,-0.0171 -0.0149,-0.031 -0.033,-0.031 -0.0182,0 -0.04,-0.0221 -0.0486,-0.0491 -0.0243,-0.0766 -0.0556,-0.006 -0.0579,0.1298 -10e-4,0.0858 -0.007,0.10346 -0.0218,0.0691 -0.0135,-0.0313 -0.0203,0.011 -0.0214,0.13178 l -0.002,0.17786 0.20165,0.0613 c 0.11091,0.0337 0.20683,0.0678 0.21317,0.0756 0.006,0.008 0.0245,0.0154 0.0403,0.0167 0.10361,0.008 0.10722,0.0121 0.0403,0.0418 -0.038,0.0169 -0.0943,0.058 -0.125,0.0913 -0.0307,0.0333 -0.064,0.0605 -0.0739,0.0605 -0.01,0 -0.0423,0.0233 -0.072,0.0519 -0.0297,0.0285 -0.0809,0.0726 -0.11365,0.0979 -0.0756,0.0585 -0.31993,0.28861 -0.36097,0.34002 -0.0287,0.0359 -0.019,0.0381 0.12675,0.0288 0.15057,-0.01 0.15253,-0.009 0.0426,0.011 -0.0634,0.0116 -0.21054,0.0307 -0.32703,0.0423 l -0.21181,0.0211 -0.33645,0.31994 c -0.18504,0.17597 -0.349,0.32189 -0.36433,0.32425 -0.0153,0.003 -0.0772,0.0108 -0.13736,0.0187 -0.12059,0.0159 -0.1499,0.0577 -0.0404,0.0577 0.0645,0 0.0497,0.0186 -0.22408,0.28231 -0.16121,0.15527 -0.42302,0.40796 -0.5818,0.56155 -0.15878,0.15358 -0.32688,0.31219 -0.37355,0.35246 l -0.0849,0.0732 -0.0132,-0.099 c -0.007,-0.0544 -0.0157,-0.15072 -0.0189,-0.21398 -0.004,-0.0886 -0.0149,-0.11678 -0.046,-0.12269 -0.023,-0.005 -0.0471,0.0104 -0.0559,0.0344 -0.008,0.0231 -0.0232,0.0473 -0.0325,0.0537 -0.009,0.006 -0.0198,0.12047 -0.0233,0.2535 -0.004,0.13303 -0.0105,0.25022 -0.0157,0.26041 -0.005,0.0102 -0.0338,0.003 -0.0636,-0.017 -0.0361,-0.0236 -0.0593,-0.0275 -0.0693,-0.0113 -0.01,0.0157 -0.0325,0.01 -0.0646,-0.0168 -0.0273,-0.0226 0.0101,0.0211 0.0829,0.0971 0.0729,0.076 0.13252,0.14901 0.13252,0.16229 0,0.0133 -0.0856,0.10592 -0.19013,0.20587 -0.10457,0.1 -0.31458,0.30167 -0.46668,0.44825 -0.1521,0.14657 -0.44248,0.41809 -0.64528,0.60337 -0.2028,0.18528 -0.41496,0.38464 -0.47147,0.44302 -0.0565,0.0584 -0.11675,0.10615 -0.13388,0.10615 -0.0171,0 -0.0252,0.01 -0.018,0.0212 0.007,0.0116 -0.0155,0.0432 -0.0505,0.0701 -0.0562,0.0433 -0.20427,0.1846 -0.85229,0.81382 -0.12791,0.1242 -0.17348,0.15582 -0.1967,0.13655 -0.0234,-0.0194 -0.03,-0.0135 -0.0294,0.0266 5.8e-4,0.0368 -0.0933,0.14298 -0.32549,0.368 l -0.32629,0.31627 -0.0482,-0.0613 c -0.0265,-0.0337 -0.0482,-0.0516 -0.0482,-0.0398 0,0.0118 0.0124,0.034 0.0276,0.0492 0.0181,0.0181 0.019,0.0276 0.003,0.0276 -0.0266,0 -0.0829,-0.11677 -0.0732,-0.15181 0.009,-0.0341 -0.0276,-0.12473 -0.051,-0.12473 -0.0287,0 -0.0275,0.0397 0.002,0.0577 0.0143,0.009 0.009,0.0281 -0.0126,0.0501 -0.0438,0.0438 -0.0314,0.0906 0.0215,0.0811 0.0335,-0.006 0.0349,-4.4e-4 0.01,0.0394 -0.0174,0.0279 -0.0349,0.0368 -0.0439,0.0223 -0.008,-0.0134 -0.0204,-0.003 -0.0274,0.024 -0.007,0.0264 -0.002,0.048 0.01,0.048 0.0123,0 0.0194,0.0182 0.0157,0.0403 -0.004,0.0222 0.001,0.0532 0.0113,0.0689 0.0127,0.0202 0.006,0.0241 -0.0219,0.0133 -0.0314,-0.012 -0.0364,-0.006 -0.0236,0.0269 0.0185,0.0482 -0.0691,0.15803 -0.10727,0.13443 -0.0128,-0.008 -0.0168,-0.004 -0.009,0.009 0.0221,0.0358 -0.20702,0.23888 -0.25068,0.22213 -0.0449,-0.0172 -0.0792,-0.10226 -0.0792,-0.19632 0,-0.0628 -0.006,-0.0691 -0.0582,-0.0592 -0.0605,0.0115 -0.0983,-0.0149 -0.0574,-0.0401 0.0461,-0.0284 0.0239,-0.0809 -0.0342,-0.0809 -0.0317,0 -0.055,-0.008 -0.0519,-0.0178 0.003,-0.01 -0.0445,-0.0694 -0.106,-0.13251 -0.091,-0.0934 -0.10861,-0.10404 -0.0948,-0.0571 0.009,0.0317 0.0273,0.0642 0.0399,0.0724 0.0126,0.008 0.0259,0.0522 0.0296,0.0979 0.005,0.0606 -0.003,0.0832 -0.0271,0.0832 -0.0185,0 -0.0306,0.0167 -0.0269,0.0371 0.004,0.0224 -0.0239,0.0537 -0.0708,0.0792 -0.0623,0.0338 -0.0861,0.0367 -0.12105,0.0149 -0.0609,-0.038 -0.0438,-0.0689 0.0678,-0.12335 0.008,-0.004 0.0225,-0.0706 0.0253,-0.11734 0.001,-0.0159 0.0134,-0.0262 0.0277,-0.023 0.0143,0.003 0.03,-0.005 0.0349,-0.0183 0.005,-0.0133 -0.0263,-0.0265 -0.0695,-0.0294 -0.0618,-0.004 -0.0953,0.011 -0.15755,0.0715 -0.0435,0.0422 -0.093,0.0722 -0.10993,0.0665 -0.0206,-0.007 -0.026,0.002 -0.0164,0.0274 0.009,0.0234 0.003,0.0377 -0.0167,0.0377 -0.0171,0 -0.0366,-0.0207 -0.0432,-0.0461 -0.0154,-0.059 -0.0767,-0.0595 -0.10809,-10e-4 -0.0142,0.0266 -0.0383,0.0398 -0.0584,0.0321 -0.0188,-0.007 -0.0342,-4.4e-4 -0.0342,0.0149 0,0.0166 -0.0164,0.0223 -0.0403,0.014 -0.0317,-0.011 -0.03,-0.005 0.008,0.0272 0.0401,0.0342 0.043,0.0461 0.0173,0.0701 -0.0456,0.0426 -0.0377,0.12707 0.0151,0.16003 0.0254,0.0159 0.0461,0.0529 0.0461,0.0824 0,0.0328 0.0137,0.0536 0.0353,0.0536 0.0243,0 0.0279,-0.007 0.0115,-0.0238 -0.0465,-0.0465 -0.0271,-0.0589 0.0972,-0.0624 0.0222,-4.4e-4 0.0403,-0.0161 0.0403,-0.0343 0,-0.0182 0.0187,-0.0331 0.0415,-0.0331 0.0228,0 0.0539,-0.0124 0.0691,-0.0276 0.0215,-0.0215 0.0283,-0.0202 0.0304,0.006 10e-4,0.0184 8.8e-4,0.043 -0.001,0.0546 -0.002,0.0116 0.0117,0.008 0.0308,-0.008 0.0485,-0.0403 0.083,-0.0117 0.083,0.0686 0,0.0373 0.009,0.0678 0.0206,0.0678 0.0458,0 0.0441,0.0715 -0.003,0.11514 l -0.0497,0.0463 -0.0633,-0.0607 -0.0633,-0.0607 -0.0993,0.0575 c -0.0546,0.0317 -0.11747,0.0546 -0.13965,0.0511 -0.0222,-0.004 -0.0403,0.003 -0.0403,0.0146 0,0.0116 0.013,0.0212 0.0288,0.0214 0.0192,4.4e-4 0.0173,0.008 -0.006,0.0227 -0.0295,0.0191 -0.0287,0.0224 0.006,0.0227 0.0285,4.4e-4 0.0404,0.019 0.0407,0.0637 2.9e-4,0.0473 0.006,0.0549 0.0214,0.0301 0.0128,-0.0202 0.0126,-0.0491 -4.4e-4,-0.0735 -0.0313,-0.0585 0.0181,-0.0791 0.0723,-0.0302 0.0246,0.0222 0.0438,0.057 0.0428,0.0772 -0.001,0.0238 -0.006,0.0267 -0.0134,0.008 -0.006,-0.0159 -0.0211,-0.0288 -0.0327,-0.0288 -0.0329,0 -0.0249,0.0604 0.0121,0.091 0.0183,0.0152 0.0364,0.0495 0.0403,0.0763 0.007,0.0465 0.009,0.0469 0.0475,0.008 0.0384,-0.0387 0.0403,-0.0375 0.0403,0.0252 0,0.0535 -0.0107,0.0666 -0.0576,0.0705 -0.0317,0.003 -0.0576,-0.004 -0.0576,-0.0147 0,-0.0364 -0.11259,-0.14124 -0.12685,-0.11816 -0.008,0.0126 -0.0297,0.0229 -0.0487,0.0229 -0.0198,0 -0.0277,-0.0111 -0.0185,-0.0261 0.01,-0.0155 0.004,-0.0219 -0.0145,-0.0159 -0.0473,0.0158 -0.0509,0.0557 -0.009,0.0979 0.0499,0.0499 0.0215,0.0776 -0.0401,0.0391 -0.0343,-0.0214 -0.0548,-0.0228 -0.0727,-0.005 -0.0179,0.0179 -0.0149,0.0249 0.0107,0.0249 0.0196,0 0.0532,0.0194 0.0747,0.0432 0.0369,0.0408 0.0365,0.0439 -0.008,0.0555 -0.0259,0.007 -0.047,0.003 -0.047,-0.008 0,-0.0111 -0.0147,-0.0145 -0.0327,-0.008 -0.0212,0.008 -0.0363,-0.006 -0.043,-0.0411 -0.009,-0.0487 -0.0105,-0.0478 -0.0134,0.009 -0.005,0.0943 -0.0646,0.0567 -0.0646,-0.0406 0,-0.0438 0.009,-0.0797 0.0192,-0.0797 0.0106,0 0.0192,0.0112 0.0192,0.0249 0,0.0138 0.013,0.0202 0.0288,0.0144 0.0158,-0.006 0.0257,-0.0239 0.0218,-0.0402 -0.004,-0.0163 0.006,-0.0391 0.023,-0.0507 0.0245,-0.0173 0.0245,-0.0234 1.4e-4,-0.0332 -0.0225,-0.009 -0.0234,-0.0197 -0.004,-0.0436 0.047,-0.0566 0.0116,-0.0831 -0.043,-0.0322 -0.0349,0.0325 -0.0619,0.0419 -0.0803,0.0278 -0.0183,-0.014 -0.0415,-0.007 -0.068,0.0211 -0.0222,0.0233 -0.0331,0.0424 -0.0242,0.0424 0.009,0 0.004,0.0123 -0.0113,0.0275 -0.0376,0.0376 -0.097,0.0437 -0.097,0.01 0,-0.0152 -0.028,-0.0272 -0.0623,-0.0267 -0.0397,4.4e-4 -0.0711,-0.0159 -0.0864,-0.0454 -0.0247,-0.0475 -0.0524,-0.0565 -0.0935,-0.0303 -0.0128,0.008 -0.0412,0.002 -0.0632,-0.0142 -0.0375,-0.0274 -0.0371,-0.0317 0.006,-0.0707 0.0355,-0.0321 0.0462,-0.0342 0.0475,-0.009 8.8e-4,0.0182 0.01,0.0122 0.0202,-0.0137 0.0106,-0.0262 0.009,-0.0585 -0.004,-0.0749 -0.0127,-0.0159 -0.0145,-0.0288 -0.004,-0.0288 0.0104,0 0.007,-0.0124 -0.009,-0.0276 -0.0152,-0.0152 -0.0276,-0.0476 -0.0276,-0.072 0,-0.0387 -0.005,-0.0404 -0.0403,-0.0131 -0.0328,0.0254 -0.0322,0.0217 0.004,-0.0202 0.0381,-0.0446 0.039,-0.0515 0.007,-0.0515 -0.0205,0 -0.0571,0.0213 -0.0813,0.0472 l -0.044,0.0472 0.0112,-0.0588 c 0.007,-0.0346 5.9e-4,-0.0588 -0.0145,-0.0588 -0.0142,0 -0.0257,-0.0259 -0.0257,-0.0576 0,-0.0317 0.0121,-0.0576 0.0269,-0.0576 0.0148,0 0.02,-0.007 0.0117,-0.0152 -0.008,-0.008 -0.0375,0.005 -0.0648,0.0288 -0.0495,0.044 -0.0495,0.044 -0.0208,-0.0109 0.0281,-0.0535 0.0275,-0.0539 -0.0223,-0.019 -0.0281,0.0197 -0.0655,0.0303 -0.0831,0.0236 -0.0283,-0.0109 -0.0426,0.017 -0.0346,0.0676 0.002,0.009 -0.008,0.0173 -0.0203,0.0173 -0.0345,0 -0.0278,-0.0677 0.0105,-0.10601 0.0423,-0.0424 0.0224,-0.0997 -0.0298,-0.086 -0.0516,0.0135 -0.0982,0.15661 -0.0634,0.19451 0.0186,0.0203 0.0169,0.0227 -0.007,0.009 -0.0218,-0.0124 -0.0281,-0.008 -0.0202,0.0139 0.006,0.0176 0.0233,0.0294 0.0376,0.0263 0.0143,-0.003 0.0259,0.011 0.0259,0.0315 0,0.0273 -0.0154,0.0343 -0.0576,0.0262 -0.053,-0.0101 -0.0692,0.006 -0.0595,0.0599 0.006,0.0353 -0.0468,0.0816 -0.0793,0.0691 -0.0417,-0.016 -0.0849,0.0115 -0.0661,0.0421 0.01,0.0159 0.0206,0.0145 0.032,-0.004 0.0126,-0.0204 0.0295,-0.0213 0.0627,-0.004 0.0519,0.0278 0.0986,-0.004 0.0986,-0.0664 0,-0.0207 0.007,-0.0442 0.0146,-0.0522 0.0228,-0.0228 0.10068,0.0277 0.10068,0.0653 0,0.0186 0.0104,0.0337 0.023,0.0337 0.0391,0 0.0257,0.0424 -0.0344,0.10907 -0.0316,0.0351 -0.0777,0.0881 -0.10248,0.11775 -0.0494,0.0591 -0.0936,0.0493 -0.0936,-0.0208 0,-0.0246 -0.0104,-0.0447 -0.023,-0.0447 -0.0127,0 -0.0231,0.0104 -0.0231,0.023 0,0.0127 -0.0155,0.023 -0.0346,0.023 -0.0379,0 -0.0489,0.0904 -0.0115,0.0951 0.0461,0.006 0.0581,0.01 0.088,0.0286 0.0167,0.0106 0.0246,0.0343 0.0175,0.0527 -0.007,0.0187 -0.003,0.0272 0.01,0.0194 0.0125,-0.008 0.0228,-0.004 0.0228,0.009 0,0.0126 -0.0208,0.0295 -0.0461,0.0375 -0.0354,0.0113 -0.0429,0.0277 -0.0321,0.0707 0.009,0.0363 0.004,0.0561 -0.0139,0.0561 -0.0154,0 -0.0221,0.0155 -0.0148,0.0346 0.007,0.019 0.011,0.0334 0.008,0.0319 -0.003,-0.002 -0.022,-0.007 -0.0427,-0.0127 z m 1.30715,-0.86234 c 0.002,-0.13063 -0.008,-0.18528 -0.0403,-0.23205 -0.0233,-0.0336 -0.0423,-0.0725 -0.0423,-0.0864 0,-0.028 -0.03,-0.0336 -0.0536,-0.01 -0.008,0.008 0.005,0.0297 0.0307,0.0474 0.056,0.0392 0.0598,0.0736 0.007,0.0659 -0.0645,-0.009 -0.0754,-0.0869 -0.0228,-0.16155 0.0404,-0.0573 0.0416,-0.0653 0.008,-0.0526 -0.0215,0.008 -0.0391,0.004 -0.0391,-0.009 0,-0.0422 -0.0565,-0.0822 -0.11053,-0.0782 -0.0362,0.003 -0.045,-0.004 -0.0286,-0.02 0.0131,-0.0131 0.0239,-0.0381 0.0239,-0.0555 0,-0.0238 -0.01,-0.0218 -0.0393,0.008 -0.0316,0.0316 -0.0413,0.0331 -0.0495,0.007 -0.0266,-0.0827 -0.11856,-0.0587 -0.11856,0.031 0,0.0315 0.0109,0.0416 0.0351,0.0323 0.0283,-0.0109 0.0306,-0.005 0.0115,0.0306 -0.0323,0.0603 -0.0299,0.07 0.0168,0.0709 0.0222,4.3e-4 0.0596,0.0272 0.0832,0.0595 0.0425,0.0584 0.0424,0.0592 -0.0216,0.12603 -0.0354,0.037 -0.0772,0.0672 -0.0928,0.0672 -0.0156,0 -0.0338,0.0129 -0.0404,0.0288 -0.009,0.0206 -0.0194,0.0174 -0.0376,-0.0116 -0.014,-0.0222 -0.0329,-0.0403 -0.0419,-0.0403 -0.026,0 -0.14692,0.11864 -0.13404,0.13152 0.006,0.006 0.0387,-0.0154 0.0717,-0.0484 0.0683,-0.0683 0.0922,-0.0763 0.0722,-0.0243 -0.009,0.0241 -0.004,0.0304 0.0148,0.0194 0.0166,-0.01 0.0205,-0.008 0.009,0.005 -0.0106,0.0115 -0.0312,0.021 -0.0458,0.021 -0.0146,0 -0.0301,0.0182 -0.0343,0.0403 -0.004,0.0222 0.003,0.0404 0.017,0.0404 0.0136,0 0.0247,0.0164 0.0247,0.0365 0,0.0201 0.013,0.0321 0.0288,0.0268 0.0158,-0.005 0.0257,-0.0358 0.0219,-0.0676 -0.009,-0.0777 0.0908,-0.1511 0.13442,-0.0985 0.0338,0.0407 0.0915,0.0445 0.0915,0.006 0,-0.0215 0.006,-0.0215 0.0277,0 0.0347,0.0347 0.0726,0.0364 0.0516,0.003 -0.011,-0.0178 -0.001,-0.0176 0.0332,0.001 0.0269,0.0144 0.0489,0.042 0.0489,0.0613 0,0.0193 0.0104,0.0287 0.023,0.0209 0.0127,-0.008 0.0231,-0.003 0.0231,0.0101 0,0.0422 -0.11098,0.0277 -0.12239,-0.0159 -0.006,-0.0222 -0.0117,-0.007 -0.0132,0.0346 -0.001,0.0412 0.007,0.0723 0.0187,0.0691 0.0118,-0.003 0.0375,0.015 0.0572,0.0403 0.0309,0.0398 0.0389,0.0413 0.0589,0.0115 0.0196,-0.0294 0.0232,-0.0282 0.0235,0.008 1.5e-4,0.0235 0.0132,0.0379 0.0292,0.0326 0.0193,-0.006 0.0295,-0.0658 0.0308,-0.18052 z m -0.29583,0.11338 c 0.0314,0.006 0.0382,-0.04 0.0112,-0.0768 -0.009,-0.0127 -0.0516,-0.0253 -0.094,-0.0281 -0.0612,-0.004 -0.0743,0.002 -0.0634,0.0307 0.008,0.0196 0.0137,0.056 0.0137,0.0807 0,0.0398 0.006,0.0417 0.0519,0.0163 0.0285,-0.0158 0.0648,-0.026 0.0807,-0.0228 z m -0.9188,-0.24393 c -0.008,-0.048 0.0128,-0.0803 0.12913,-0.20475 0.0948,-0.10141 0.13144,-0.12749 0.14659,-0.10443 0.0163,0.0249 0.0229,0.0237 0.0342,-0.006 0.008,-0.0201 0.0305,-0.0365 0.0507,-0.0365 0.0202,0 0.0302,0.0104 0.0224,0.023 -0.008,0.0127 -0.004,0.023 0.008,0.023 0.0124,0 0.0271,-0.0129 0.0328,-0.0288 0.006,-0.0159 0.0187,-0.0209 0.029,-0.0113 0.0103,0.01 -1.5e-4,0.0314 -0.0234,0.0483 -0.0659,0.0482 -0.0221,0.0915 0.0469,0.0464 0.0447,-0.0293 0.0635,-0.0312 0.09,-0.009 0.0263,0.0219 0.0437,0.0206 0.0815,-0.006 0.0469,-0.0328 0.047,-0.0339 0.003,-0.0454 -0.0248,-0.006 -0.0554,-0.002 -0.0681,0.0113 -0.0153,0.0153 -0.0462,-0.0177 -0.0925,-0.0987 l -0.0695,-0.1217 0.0816,-0.0996 c 0.0449,-0.0548 0.0909,-0.0939 0.1021,-0.087 0.0113,0.007 0.0205,-0.002 0.0205,-0.0198 0,-0.0178 0.0205,-0.0418 0.0455,-0.0532 0.0339,-0.0155 0.0397,-0.0297 0.0229,-0.0554 -0.0185,-0.0283 -0.0412,-0.0137 -0.12528,0.0807 -0.0706,0.0792 -0.10299,0.10261 -0.1036,0.0749 -4.4e-4,-0.0222 -0.01,-0.0403 -0.0202,-0.0403 -0.0106,0 -0.0319,-0.0275 -0.0472,-0.0611 -0.0223,-0.0489 -0.0334,-0.0552 -0.0555,-0.0317 -0.0216,0.0229 -0.0214,0.0318 0.001,0.04 0.0402,0.0148 0.0361,0.0528 -0.006,0.0528 -0.019,0 -0.0346,0.009 -0.0346,0.0194 0,0.0106 -0.0269,0.0316 -0.0599,0.0466 -0.0394,0.018 -0.0553,0.0393 -0.0464,0.0625 0.008,0.0201 0.004,0.0291 -0.009,0.0211 -0.0125,-0.008 -0.0228,0.007 -0.0228,0.0334 0,0.0381 0.0148,0.0475 0.0749,0.0478 0.11279,4.4e-4 0.14386,0.0276 0.10823,0.0942 -0.0273,0.051 -0.03,0.0516 -0.0446,0.01 -0.014,-0.0399 -0.0233,-0.0359 -0.0943,0.0407 -0.0434,0.0467 -0.10293,0.11613 -0.13241,0.15424 -0.0295,0.0381 -0.0736,0.0693 -0.0979,0.0693 -0.0749,0 -0.0593,0.11172 0.019,0.13646 0.003,0.001 0.004,-0.006 0.003,-0.0155 z m -0.3433,-0.14296 c 0.0681,-0.0523 0.0621,-0.0615 -0.0515,-0.0794 -0.0808,-0.0127 -0.0864,-0.01 -0.0864,0.0453 0,0.0334 0.01,0.0527 0.0231,0.0446 0.0127,-0.008 0.023,-0.003 0.023,0.0101 0,0.0354 0.0268,0.0294 0.0918,-0.0206 z m 1.53073,-0.15184 c -0.009,-0.0484 0.001,-0.0627 0.0568,-0.0821 0.0371,-0.0129 0.0729,-0.0442 0.0795,-0.0695 0.0107,-0.0409 0.0179,-0.0427 0.0652,-0.0158 0.0293,0.0166 0.0643,0.044 0.0779,0.061 0.0204,0.0256 0.03,0.0245 0.0551,-0.006 0.0167,-0.0202 0.0447,-0.0366 0.0622,-0.0366 0.0175,0 0.0317,-0.0156 0.0317,-0.0346 0,-0.0459 -0.0226,-0.0437 -0.0601,0.006 -0.0187,0.0246 -0.0309,0.0291 -0.0314,0.0115 -4.4e-4,-0.0164 -0.03,-0.0288 -0.0685,-0.0288 -0.0373,0 -0.0743,-0.0106 -0.0823,-0.0235 -0.008,-0.0138 -0.0327,-0.002 -0.0586,0.0288 l -0.044,0.0523 -0.0145,-0.0516 c -0.008,-0.0284 -0.0242,-0.0457 -0.0359,-0.0384 -0.0118,0.007 -0.0148,0.0339 -0.007,0.0593 0.009,0.0293 -0.001,0.0643 -0.0294,0.096 -0.0383,0.0434 -0.045,0.0683 -0.0324,0.11904 0.002,0.006 0.0126,0.0115 0.0244,0.0115 0.0118,0 0.0167,-0.0263 0.0109,-0.0586 z m 1.29951,-0.005 c -0.0167,-0.0202 -0.0158,-0.0387 0.003,-0.0614 0.0207,-0.0249 0.0205,-0.0365 -7.4e-4,-0.0496 -0.0176,-0.0109 -0.0217,-0.007 -0.0113,0.009 0.0268,0.0433 -0.10344,0.0318 -0.15545,-0.0138 -0.0415,-0.0363 -0.0447,-0.0365 -0.0321,-0.002 0.009,0.0235 -9e-5,0.0438 -0.0223,0.0523 -0.0324,0.0124 -0.0321,0.0185 0.003,0.0577 0.0473,0.0523 0.2587,0.0593 0.21543,0.007 z m -2.69162,-0.0584 c 0,-0.0133 0.006,-0.0179 0.0143,-0.01 0.0457,0.0457 0.0875,-0.12105 0.0536,-0.214 -0.002,-0.006 -0.003,-0.0193 -0.002,-0.0288 0.002,-0.009 -0.009,-0.0173 -0.0228,-0.0173 -0.0157,0 -0.02,-0.0221 -0.0111,-0.0576 0.0112,-0.0447 0.006,-0.0576 -0.0251,-0.0576 -0.0296,0 -0.033,-0.007 -0.0134,-0.0261 0.0283,-0.0284 -0.0135,-0.0891 -0.0614,-0.0891 -0.0311,0 -0.0323,0.0387 -0.002,0.0576 0.0127,0.008 0.023,0.0246 0.023,0.0373 0,0.0127 -0.0115,0.016 -0.0256,0.007 -0.0312,-0.0193 -0.12999,0.0897 -0.17349,0.19159 -0.0176,0.0412 -0.0448,0.0723 -0.0605,0.0691 -0.017,-0.004 -0.0253,0.013 -0.0206,0.0404 0.0104,0.0604 0.0143,0.0634 0.084,0.0634 0.0326,0 0.0688,0.0177 0.0804,0.0394 0.0151,0.0282 0.0412,0.0364 0.0914,0.0291 0.0387,-0.006 0.0704,-0.0212 0.0704,-0.0346 z m -0.0691,-0.10757 c 0,-0.0138 -0.0259,-0.037 -0.0576,-0.0515 -0.0693,-0.0316 -0.0757,-0.10218 -0.0112,-0.12266 0.0255,-0.008 0.0409,-0.0236 0.0342,-0.0345 -0.007,-0.0109 -0.002,-0.0263 0.0112,-0.0343 0.0222,-0.0138 0.0273,-0.004 0.0326,0.0631 0.001,0.0159 0.0211,0.0476 0.044,0.0706 0.023,0.0229 0.0384,0.0591 0.0343,0.0804 -0.008,0.0428 -0.0876,0.0689 -0.0876,0.0289 z m 4.76322,-1.47218 c 0.0186,-0.0186 0.029,-0.0526 0.023,-0.0754 -0.006,-0.0228 10e-4,-0.0465 0.0155,-0.0526 0.0145,-0.006 0.003,-0.0182 -0.0255,-0.0269 -0.0285,-0.009 -0.0519,-0.0239 -0.0519,-0.034 0,-0.01 -0.0207,-0.0127 -0.0461,-0.006 -0.0447,0.0117 -0.0556,0.033 -0.0478,0.0931 0.002,0.0159 -0.0149,0.0295 -0.0376,0.0303 -0.0358,0.002 -0.035,0.004 0.006,0.0205 0.0258,0.0104 0.0621,0.0374 0.0807,0.0599 0.028,0.0339 0.0284,0.0427 0.002,0.0515 -0.0265,0.009 -0.0265,0.0136 0,0.0302 0.0212,0.0133 0.0341,0.007 0.0397,-0.0185 0.004,-0.0209 0.0235,-0.0533 0.0421,-0.072 z m 2.08136,-2.38918 c -0.0158,-0.019 -0.0208,-0.0346 -0.0112,-0.0346 0.0231,0 -0.0953,-0.11806 -0.11974,-0.11943 -0.0104,-4.4e-4 -0.0583,-0.0323 -0.10643,-0.0704 l -0.0876,-0.0694 0.0162,0.0647 c 0.0225,0.0895 0.12507,0.19975 0.174,0.18695 0.0218,-0.006 0.0453,0.005 0.0524,0.0231 0.007,0.0184 0.0226,0.0275 0.0345,0.0201 0.0119,-0.007 0.0281,-0.003 0.0361,0.0101 0.008,0.0129 0.0203,0.0234 0.0275,0.0234 0.007,0 0,-0.0156 -0.0157,-0.0346 z m 2.67331,-2.10134 c 0,-0.0199 -0.0658,-0.0765 -0.089,-0.0765 -0.0127,0 -0.0443,-0.0298 -0.0702,-0.0661 -0.0422,-0.0592 -0.17497,-0.11439 -0.20443,-0.0849 -0.006,0.006 0.0369,0.0661 0.0948,0.13393 0.0966,0.11302 0.11223,0.12256 0.18709,0.11381 0.0449,-0.005 0.0817,-0.0143 0.0817,-0.0202 z m 0.40699,-1.79993 c -0.0434,-0.0978 -0.0972,-0.22743 -0.11959,-0.28805 -0.0224,-0.0606 -0.0496,-0.11568 -0.0604,-0.12235 -0.0432,-0.0267 -0.0157,0.16141 0.0499,0.34105 0.0382,0.10477 0.0643,0.20412 0.0579,0.2208 -0.007,0.0178 -0.001,0.0239 0.0136,0.0147 0.0171,-0.0105 0.0199,10e-4 0.009,0.0362 -0.0123,0.0388 -0.009,0.0473 0.013,0.0337 0.0209,-0.0129 0.0252,-0.007 0.0147,0.0202 -0.008,0.0211 -0.004,0.0383 0.009,0.0383 0.013,0 0.0178,0.009 0.0107,0.0211 -0.007,0.0116 -0.003,0.0245 0.01,0.0288 0.0208,0.007 0.0333,0.0495 0.0499,0.16905 0.004,0.0253 0.01,-0.0398 0.0142,-0.14481 0.007,-0.17605 0.002,-0.20473 -0.0711,-0.36873 z m -10.37508,9.09905 c -0.0473,-0.0192 -0.1215,-0.0933 -0.0934,-0.0933 0.008,0 0.004,-0.0205 -0.009,-0.0456 -0.0199,-0.0372 -0.0179,-0.0431 0.0107,-0.0321 0.0193,0.007 0.0351,0.0238 0.0351,0.0365 0,0.0127 0.013,0.0181 0.0288,0.012 0.016,-0.006 0.0465,0.0235 0.0687,0.0667 0.0415,0.081 0.037,0.0872 -0.0406,0.0557 z m -0.0826,-0.35949 c -10e-4,-0.0247 -10e-4,-0.0527 0,-0.0622 0.002,-0.009 -0.008,-0.0173 -0.0203,-0.0173 -0.0127,0 -0.023,-0.0167 -0.023,-0.037 0,-0.0243 0.0125,-0.0322 0.0365,-0.023 0.02,0.008 0.0512,0.014 0.0691,0.014 0.018,0 0.0327,0.0139 0.0327,0.0311 0,0.0171 0.0233,0.0423 0.0519,0.056 0.0496,0.0239 0.0489,0.0251 -0.0184,0.0266 -0.0387,10e-4 -0.0827,0.014 -0.0979,0.0292 -0.0215,0.0215 -0.0283,0.0177 -0.0304,-0.0173 z m -5.38909,-0.12395 c -0.0209,-0.0391 -0.0207,-0.0584 7.3e-4,-0.0843 0.0311,-0.0375 0.023,-0.0509 -0.0531,-0.0878 -0.0493,-0.0239 -0.11222,-0.13568 -0.47241,-0.83864 -0.0926,-0.18067 -0.10431,-0.21748 -0.0752,-0.23586 0.0599,-0.0379 0.0858,-0.0247 0.10287,0.0524 0.009,0.0412 0.0217,0.0619 0.0279,0.046 0.006,-0.0159 0.0224,-0.0221 0.036,-0.0137 0.0136,0.008 0.018,0.005 0.01,-0.009 -0.0221,-0.0358 0.0416,-0.0784 0.0912,-0.0608 0.0294,0.0104 0.0358,0.008 0.0202,-0.008 -0.0127,-0.013 -0.0645,-0.0366 -0.11522,-0.0524 -0.0507,-0.0158 -0.11001,-0.0443 -0.13179,-0.0633 -0.0353,-0.0308 -0.0359,-0.0398 -0.006,-0.0829 0.0457,-0.0652 0.0432,-0.0726 -0.024,-0.0726 -0.036,0 -0.0538,0.0106 -0.0471,0.0281 0.006,0.0155 0.002,0.0335 -0.009,0.0402 -0.0108,0.007 -0.0265,-0.006 -0.0348,-0.0275 -0.0104,-0.0271 0.004,-0.0532 0.0437,-0.0824 0.0706,-0.0514 0.0743,-0.0869 0.0136,-0.13059 -0.0338,-0.0244 -0.0389,-0.0402 -0.0202,-0.0627 0.0312,-0.0375 -0.008,-0.04 -0.0448,-0.003 -0.015,0.015 -0.0333,0.0212 -0.0408,0.0138 -0.0231,-0.0231 -0.0838,-0.4149 -0.073,-0.47139 0.006,-0.0295 0.003,-0.0536 -0.006,-0.0536 -0.009,0 -0.0236,-0.0804 -0.0321,-0.17861 -0.008,-0.0982 -0.0213,-0.22572 -0.0286,-0.28331 -0.0121,-0.0963 -0.008,-0.1069 0.0468,-0.13201 0.0774,-0.0353 0.0762,-0.0654 -0.003,-0.0813 -0.0488,-0.01 -0.0634,-0.0259 -0.0634,-0.0701 0,-0.0316 0.005,-0.0571 0.0115,-0.0566 0.0638,0.005 0.0922,-0.0111 0.0922,-0.0507 0,-0.0502 -0.0449,-0.0611 -0.0852,-0.0208 -0.0296,0.0296 -0.0557,-0.0619 -0.0538,-0.18854 6.5e-4,-0.0433 -0.004,-0.11506 -0.0108,-0.15943 -0.0511,-0.34429 -0.15914,-2.37276 -0.20561,-3.86015 -0.057,-1.82489 -0.0717,-3.19303 -0.0345,-3.21601 0.0179,-0.0111 0.0438,-0.009 0.0608,0.005 0.038,0.0316 0.0387,-0.008 7.5e-4,-0.0486 -0.0237,-0.0252 -0.0166,-0.028 0.0403,-0.0158 0.0549,0.0118 0.0608,0.01 0.0288,-0.01 -0.0492,-0.0299 -0.0539,-0.0784 -0.006,-0.06 0.0309,0.0118 0.0451,-0.0109 0.0373,-0.0602 -0.001,-0.009 0.008,-0.0173 0.0203,-0.0173 0.0127,0 0.023,-0.0111 0.023,-0.0247 0,-0.0136 -0.0182,-0.0208 -0.0403,-0.0159 -0.0222,0.005 -0.0373,0.0225 -0.0336,0.0391 0.005,0.0212 -0.0115,0.0268 -0.0536,0.0188 -0.054,-0.0103 -0.0589,-0.006 -0.0466,0.0432 0.008,0.0323 0.004,0.0548 -0.0111,0.0548 -0.0137,0 -0.0174,0.012 -0.008,0.0266 0.0104,0.0169 0.006,0.0203 -0.0113,0.009 -0.0202,-0.0125 -0.0209,-0.0254 -0.003,-0.0474 0.0183,-0.0221 0.0177,-0.0328 -0.002,-0.0394 -0.0195,-0.007 -0.0156,-0.0273 0.0135,-0.0718 0.0361,-0.0551 0.0365,-0.0609 0.003,-0.0482 -0.0206,0.008 -0.038,0.0107 -0.0386,0.006 -6.5e-4,-0.005 -0.007,-0.0731 -0.0139,-0.15244 -0.0117,-0.13276 -0.009,-0.14315 0.03,-0.13077 0.0397,0.0125 0.0398,0.0116 0.002,-0.0125 -0.0422,-0.0272 -0.057,-0.10224 -0.0175,-0.0889 0.0386,0.013 1.05909,1.29601 1.0601,1.33281 0.001,0.0376 0.14823,1.53172 0.24182,2.45437 0.0321,0.31688 0.0842,0.85096 0.1156,1.18686 0.0314,0.33589 0.088,0.92701 0.12576,1.3136 0.0377,0.3866 0.0738,0.78586 0.0802,0.88726 0.006,0.10141 0.0897,1.00365 0.18514,2.00499 0.0954,1.00133 0.17268,1.83616 0.17169,1.85517 -10e-4,0.026 -0.005,0.027 -0.014,0.004 -0.009,-0.0227 -0.0263,-0.0172 -0.0675,0.0215 -0.0544,0.0511 -0.0559,0.0512 -0.0914,0.007 -0.0199,-0.0245 -0.0296,-0.0316 -0.0215,-0.0157 0.008,0.0166 2.9e-4,0.0288 -0.0192,0.0288 -0.0224,0 -0.0297,0.0155 -0.0217,0.0461 0.0284,0.10852 -0.0941,0.002 -0.13603,-0.11803 -0.0284,-0.0816 -0.0647,-0.0865 -0.0647,-0.009 0,0.0358 0.0131,0.0576 0.0346,0.0576 0.0498,0 0.0448,0.10896 -0.006,0.12465 -0.0222,0.007 -0.10255,0.0143 -0.1786,0.0165 -0.076,0.002 -0.14494,0.0142 -0.15309,0.0267 -0.008,0.0125 -0.027,0 -0.0419,-0.0279 z m 8.3932,-0.35443 c -0.0283,-0.0127 -0.0515,-0.0329 -0.0515,-0.045 0,-0.0121 -0.0251,-0.0157 -0.0558,-0.008 -0.0611,0.0154 -0.12858,-0.003 -0.12858,-0.0339 0,-0.011 0.0259,-0.0101 0.0576,0.002 0.0341,0.0129 0.0576,0.0133 0.0576,10e-4 0,-0.0257 0.16976,-0.002 0.18052,0.0258 0.004,0.0107 0.0224,0.0195 0.0403,0.0195 0.018,0 0.0327,0.009 0.0327,0.0204 0,0.0328 -0.077,0.0436 -0.13284,0.0186 z m 7.35923,-21.58956 c -0.0994,-0.15423 -0.47206,-0.65593 -0.62277,-0.83837 -0.51951,-0.62886 -0.53484,-0.64608 -0.99187,-1.11398 -0.39234,-0.40167 -0.87336,-0.84412 -1.24458,-1.14478 -0.1521,-0.1232 -0.28,-0.23316 -0.28423,-0.24437 -0.004,-0.0112 -0.0207,-0.0204 -0.0365,-0.0204 -0.0158,0 -0.0591,-0.0308 -0.096,-0.0685 -0.037,-0.0377 -0.0763,-0.0688 -0.0874,-0.0691 -0.0111,-4.4e-4 -0.0889,-0.0507 -0.17284,-0.11179 -0.23565,-0.17162 -0.40151,-0.27917 -0.75181,-0.48747 -1.88172,-1.11895 -3.77542,-1.53145 -5.72021,-1.24602 -1.33437,0.19585 -2.65789,0.72419 -4.01661,1.60341 -0.20444,0.1323 -0.78956,0.54618 -0.88473,0.62583 -0.0366,0.0307 -0.0797,0.0507 -0.0958,0.0446 -0.0369,-0.0142 -0.64827,-0.46623 -0.71201,-0.52646 -0.0261,-0.0247 -0.0786,-0.061 -0.1166,-0.0808 -0.038,-0.0198 -0.0996,-0.0655 -0.13689,-0.10175 -0.0373,-0.0362 -0.0808,-0.0658 -0.0968,-0.0658 -0.016,0 -0.0373,-0.0139 -0.0475,-0.0309 -0.0101,-0.017 -0.0495,-0.0506 -0.0876,-0.0746 -0.038,-0.024 -0.0805,-0.0544 -0.0943,-0.0675 -0.0139,-0.0131 -0.20831,-0.15718 -0.43211,-0.32013 -0.2238,-0.16295 -0.4069,-0.30458 -0.4069,-0.31472 0,-0.0101 0.0155,-0.034 0.0346,-0.053 0.0451,-0.0451 0.0457,-0.15309 8e-4,-0.15309 -0.0186,0 -0.0449,0.0207 -0.0584,0.0461 -0.0378,0.0706 -0.0833,0.0561 -0.19852,-0.0634 -0.0581,-0.0602 -0.11569,-0.10661 -0.12808,-0.10313 -0.0124,0.004 -0.0169,-0.003 -0.01,-0.0139 0.0159,-0.0258 -0.0878,-0.12493 -0.10875,-0.104 -0.009,0.009 -0.0156,-0.003 -0.0156,-0.0242 0,-0.0219 -0.0104,-0.0334 -0.0231,-0.0256 -0.0127,0.008 -0.023,-0.002 -0.023,-0.023 0,-0.0205 -0.0104,-0.0309 -0.023,-0.023 -0.0127,0.008 -0.023,-0.003 -0.023,-0.0224 0,-0.0202 -0.0233,-0.046 -0.0519,-0.0575 -0.0285,-0.0114 -0.0437,-0.0215 -0.0337,-0.0223 0.01,-10e-4 -0.004,-0.0248 -0.0301,-0.0533 -0.0266,-0.0285 -0.0542,-0.0486 -0.0614,-0.0446 -0.007,0.004 -0.0256,-0.0168 -0.0409,-0.0461 -0.0153,-0.0293 -0.0407,-0.0505 -0.0564,-0.047 -0.0157,0.004 -0.0221,-0.005 -0.014,-0.0173 0.008,-0.013 -0.01,-0.0329 -0.0396,-0.0443 -0.0577,-0.0219 -0.10472,-0.0682 -0.10795,-0.10607 -0.001,-0.0127 -0.0119,-0.023 -0.024,-0.023 -0.0121,0 -0.0366,-0.0199 -0.0544,-0.0443 -0.0326,-0.0446 -0.10788,-0.0707 -0.10788,-0.0375 0,0.01 -0.0468,0.0243 -0.10403,0.0321 -0.0927,0.0127 -0.11486,0.006 -0.20363,-0.0602 -0.0548,-0.041 -0.22515,-0.16597 -0.37858,-0.27779 -0.17688,-0.12889 -0.27465,-0.21458 -0.26714,-0.23414 0.007,-0.017 -0.005,-0.0634 -0.0256,-0.10322 -0.0206,-0.0398 -0.031,-0.0926 -0.0232,-0.1173 0.008,-0.0247 0.004,-0.0449 -0.009,-0.0449 -0.0129,0 -0.0305,-0.0622 -0.0391,-0.13828 -0.009,-0.0761 -0.0236,-0.13827 -0.0332,-0.13827 -0.0302,0 -0.0464,0.0706 -0.0255,0.11114 0.029,0.0563 0.0549,0.28664 0.0312,0.27716 -0.0111,-0.005 -0.0816,-0.0525 -0.15666,-0.1069 -0.0751,-0.0544 -0.23247,-0.16637 -0.34972,-0.24889 l -0.21317,-0.15003 0,-0.12425 c 0,-0.12676 -0.0316,-0.18605 -0.0568,-0.10664 -0.008,0.0242 -0.012,0.0529 -0.01,0.0637 0.002,0.0109 -0.002,0.0352 -0.009,0.0542 -0.007,0.019 -0.0168,0.0476 -0.021,0.0635 -0.005,0.0196 -0.0362,0.009 -0.096,-0.0339 -0.0486,-0.0346 -0.0771,-0.0666 -0.0633,-0.0712 0.0251,-0.008 0.0361,-0.0736 0.0124,-0.0736 -0.007,0 -0.0413,0.0148 -0.0763,0.0329 -0.0611,0.0316 -0.0694,0.0286 -0.20582,-0.0749 -0.0782,-0.0593 -0.20717,-0.15427 -0.28664,-0.21102 -0.0795,-0.0568 -0.26482,-0.19158 -0.41191,-0.29959 -0.81215,-0.59645 -0.786,-0.57926 -0.85713,-0.56364 -0.0574,0.0126 -0.0652,0.009 -0.0547,-0.0279 0.0137,-0.048 -0.0268,-0.0823 -0.54821,-0.46392 -0.314628,-0.23029 -0.324621,-0.24023 -0.359219,-0.35709 -0.04541,-0.15337 -0.108077,-0.17695 -0.118577,-0.0446 l -0.0072,0.0902 -0.483304,-0.35379 c -0.265818,-0.19459 -0.496563,-0.3538 -0.512768,-0.3538 -0.01621,0 -0.03083,0.0129 -0.0325,0.0288 -0.0017,0.0159 -0.0094,-0.007 -0.01728,-0.0516 -0.01338,-0.0755 -0.10222,-0.14468 -1.453762,-1.13246 -0.791732,-0.57864 -1.443056,-1.0627 -1.447389,-1.0757 -0.01358,-0.0408 1.169699,-0.80571 2.051492,-1.32624 0.241995,-0.14285 0.339925,-0.21287 0.339925,-0.24306 0,-0.0351 0.04907,-0.0546 0.283312,-0.11276 0.233426,-0.058 0.331832,-0.097 0.55886,-0.2219 0.223018,-0.12265 0.295097,-0.15154 0.3781,-0.15157 0.07976,-2e-5 0.09641,0.006 0.0749,0.0276 -0.03652,0.0365 -0.03533,0.0876 0.0021,0.0876 0.01633,0 0.06888,-0.02 0.116769,-0.0444 0.05806,-0.0296 0.112823,-0.0402 0.164348,-0.0319 0.08652,0.0141 0.541883,-0.0591 0.541883,-0.087 0,-0.01 0.0233,-0.0224 0.0519,-0.0279 0.0302,-0.006 0.0134,-0.0114 -0.0403,-0.0135 -0.167904,-0.006 -0.160708,-0.034 0.037,-0.14241 0.2083,-0.11415 0.41042,-0.22635 0.60999,-0.33858 0.0733,-0.0412 0.15381,-0.0749 0.17902,-0.0749 0.0252,0 0.0394,-0.006 0.0316,-0.0142 -0.008,-0.008 8e-4,-0.0293 0.0192,-0.0477 0.0402,-0.0402 0.0425,-0.0969 0.007,-0.18424 -0.0349,-0.087 -0.17972,-0.59272 -0.17191,-0.60053 0.003,-0.004 0.0467,0.0689 0.0963,0.16072 0.0496,0.0918 0.10771,0.17028 0.12918,0.17441 0.0546,0.0105 0.45643,-0.17985 0.45643,-0.21624 0,-0.02 0.0522,-0.035 0.15858,-0.0455 0.21318,-0.021 0.22529,-0.0301 0.19119,-0.14394 -0.015,-0.0502 -0.0429,-0.10413 -0.0618,-0.11986 -0.019,-0.0157 -0.0345,-0.0526 -0.0345,-0.0819 0,-0.0484 0.008,-0.0522 0.0864,-0.0413 0.0475,0.007 0.10198,0.0184 0.121,0.0262 0.019,0.008 0.0605,0.0168 0.0922,0.0201 0.0317,0.004 0.0904,0.0127 0.13046,0.0208 0.0933,0.0189 0.13261,-0.0368 0.16882,-0.2395 0.0143,-0.0803 0.0348,-0.16842 0.0456,-0.19589 0.0107,-0.0275 0.0328,-0.11065 0.049,-0.18482 0.0274,-0.12546 0.0698,-0.18121 0.10841,-0.14262 0.0206,0.0206 0.025,0.35814 0.005,0.35814 -0.0137,0 -0.0691,0.20461 -0.0691,0.25526 0,0.0117 0.0143,0.0213 0.0318,0.0213 0.0175,0 0.0464,0.0221 0.0644,0.0491 0.0248,0.0374 0.0454,0.0451 0.0859,0.0323 0.0454,-0.0144 0.0511,-0.0276 0.0388,-0.0892 -0.008,-0.0398 -0.0352,-0.11205 -0.0605,-0.16067 l -0.0461,-0.0884 0.0524,-0.0437 c 0.0288,-0.024 0.0635,-0.044 0.0772,-0.0444 0.0137,-4.4e-4 0.15369,-0.0513 0.31112,-0.11305 0.39178,-0.15368 0.39141,-0.1552 -0.0907,-0.37534 -0.11856,-0.0541 -0.20377,-0.10237 -0.18935,-0.10718 0.0144,-0.005 0.0388,0.001 0.0542,0.0134 0.0154,0.0122 0.13174,0.056 0.25849,0.0974 0.12675,0.0414 0.24083,0.0831 0.2535,0.0927 0.0127,0.01 0.12564,0.0501 0.25104,0.0901 l 0.22799,0.0727 0.14475,-0.0559 c 0.14355,-0.0555 0.14534,-0.0556 0.2162,-0.0125 0.0948,0.0576 0.18556,0.0577 0.18556,1.4e-4 0,-0.0238 -0.0156,-0.0562 -0.0346,-0.072 -0.0496,-0.0412 -0.0426,-0.0691 0.0173,-0.0695 0.0528,-4.3e-4 0.10268,-0.0241 0.20923,-0.0997 0.0329,-0.0233 0.13017,-0.0661 0.21622,-0.095 0.0983,-0.0331 0.15926,-0.0668 0.16401,-0.0907 0.009,-0.044 -0.0829,-0.24435 -0.11177,-0.24435 -0.0107,0 -0.0267,-0.0233 -0.0356,-0.0519 -0.009,-0.0285 -0.0603,-0.12045 -0.11431,-0.20431 -0.054,-0.0838 -0.11137,-0.17719 -0.12748,-0.20741 -0.0271,-0.0508 -0.0263,-0.0525 0.0106,-0.0221 0.0219,0.0181 0.0561,0.0648 0.076,0.1037 0.0199,0.0389 0.0503,0.0791 0.0676,0.0893 0.0173,0.0101 0.0315,0.0291 0.0315,0.0422 0,0.0217 0.18308,0.28637 0.35656,0.51551 0.0384,0.0507 0.0813,0.11292 0.0953,0.13828 0.0274,0.0495 0.1114,0.0653 0.49662,0.0931 0.17043,0.0123 0.20114,0.0208 0.21102,0.0586 0.0161,0.0617 0.0496,0.0551 0.0821,-0.0163 0.0251,-0.0552 0.0366,-0.0595 0.13003,-0.049 0.0563,0.006 0.0969,0.003 0.09,-0.009 -0.007,-0.0111 -0.0493,-0.0202 -0.0943,-0.0202 -0.0773,0 -0.0809,-0.004 -0.0662,-0.0621 0.04,-0.15945 0.0767,-0.21114 0.16965,-0.23898 0.0776,-0.0233 0.0998,-0.0217 0.14519,0.01 0.0774,0.0542 0.14011,0.0491 0.13117,-0.0107 -0.008,-0.0523 -0.0145,-0.0493 0.37642,-0.16789 0.1096,-0.0332 0.20647,-0.0604 0.21527,-0.0604 0.009,0 -0.0601,0.0631 -0.15318,0.1403 -0.22952,0.19035 -0.27247,0.23789 -0.24908,0.27574 0.0106,0.0171 0.0145,0.0389 0.009,0.0484 -0.006,0.009 0.0104,0.0285 0.0361,0.0423 0.0541,0.029 0.063,-0.004 0.0124,-0.0455 -0.0393,-0.0327 -0.0256,-0.0693 0.026,-0.0693 0.0193,0 0.16444,-0.10111 0.3226,-0.2247 0.25864,-0.2021 0.28638,-0.23073 0.27596,-0.28468 -0.0109,-0.0565 -0.004,-0.0617 0.11968,-0.0894 0.0722,-0.0162 0.14427,-0.0344 0.16018,-0.0404 0.0179,-0.007 0.0531,0.0424 0.0922,0.12893 0.0444,0.0983 0.0762,0.14025 0.10661,0.14079 0.0377,4.4e-4 0.0412,-0.0104 0.0268,-0.0857 -0.0334,-0.17431 -0.0361,-0.16974 0.12577,-0.21488 0.0824,-0.023 0.25254,-0.0639 0.37811,-0.091 0.12558,-0.0271 0.25521,-0.0664 0.28807,-0.0873 0.0711,-0.0453 1.31739,-0.93112 1.42522,-1.01304 0.0412,-0.0313 0.0749,-0.052 0.0749,-0.046 0,0.006 -0.14259,0.11833 -0.31688,0.24958 -0.41909,0.31564 -0.51277,0.39413 -0.51277,0.42967 0,0.0392 0.0242,0.0379 0.30139,-0.0168 0.1296,-0.0255 0.24185,-0.0397 0.24944,-0.0314 0.008,0.008 0.001,0.0196 -0.0146,0.0252 -0.0339,0.0122 -0.1567,0.1897 -0.17835,0.25793 -0.01,0.0305 -0.005,0.0483 0.012,0.0483 0.028,0 0.0889,-0.059 0.33654,-0.32628 l 0.1418,-0.15302 0.20964,-0.0287 c 0.11531,-0.0158 0.20955,-0.0349 0.20943,-0.0427 -9e-5,-0.008 -0.026,-0.11541 -0.0576,-0.23935 -0.0587,-0.23027 -0.0748,-0.3606 -0.0362,-0.29319 0.0109,0.019 0.0733,0.18494 0.13878,0.36873 0.0655,0.18379 0.13143,0.34673 0.14662,0.36208 0.0204,0.0206 0.0667,0.0224 0.1774,0.007 0.17529,-0.0246 0.50688,-0.0588 1.03706,-0.10682 0.20914,-0.019 0.74102,-0.0405 1.18195,-0.0478 0.52923,-0.009 0.79903,-0.0213 0.79385,-0.0368 -0.004,-0.0129 0.0264,-0.0607 0.0682,-0.10627 0.0418,-0.0455 0.0761,-0.092 0.0761,-0.10325 1.4e-4,-0.0262 0.0724,-0.0815 0.10755,-0.0825 0.0147,-4.4e-4 0.0335,0.0434 0.0416,0.0972 0.008,0.0539 0.0254,0.15239 0.0382,0.21894 l 0.0234,0.12099 0.21154,0.003 c 0.11635,0.002 0.27694,0.009 0.35687,0.0173 l 0.14533,0.0146 -0.23175,0.13549 c -0.21379,0.12499 -0.28602,0.19867 -0.19475,0.19867 0.0204,0 0.19925,-0.0891 0.39754,-0.19809 l 0.36054,-0.19809 0.17284,0.0126 c 0.24597,0.018 0.69159,0.0826 0.76571,0.11105 0.0472,0.0181 0.0665,0.045 0.0778,0.108 0.008,0.0461 0.0285,0.0994 0.045,0.11843 0.0317,0.0365 0.0333,0.0421 0.0333,0.11523 0,0.0253 0.0112,0.0461 0.0248,0.0461 0.0136,0 0.0229,-0.0285 0.0206,-0.0634 -0.007,-0.1097 -1.5e-4,-0.14405 0.0295,-0.14375 0.03,3e-4 0.13253,0.0517 0.50124,0.25135 0.12042,0.0652 0.25783,0.13534 0.30536,0.15587 0.0475,0.0205 0.0864,0.0524 0.0864,0.0708 0,0.0416 0.0779,0.0324 0.41482,-0.0492 0.1395,-0.0338 0.24524,-0.0492 0.24966,-0.0364 0.0117,0.0337 0.0868,0.0264 0.11828,-0.0115 0.0242,-0.0292 0.0483,-0.026 0.18142,0.0237 0.0844,0.0315 0.16505,0.0726 0.17912,0.0912 0.0141,0.0186 0.0465,0.0339 0.0721,0.0339 0.12604,0 1.07242,0.485 1.55587,0.79735 0.15465,0.0999 0.15555,0.10111 0.15555,0.20572 l 0,0.10521 0.0864,-0.0159 c 0.0475,-0.009 0.0916,-0.0238 0.098,-0.0335 0.006,-0.01 0.1308,0.0754 0.27655,0.18908 0.22291,0.17381 0.26395,0.21556 0.25837,0.26286 -0.006,0.0477 0.003,0.0563 0.0576,0.0566 0.0495,2.9e-4 0.12905,0.0599 0.34618,0.25926 0.15506,0.14238 0.29713,0.2806 0.31569,0.30716 0.0186,0.0265 0.0478,0.12508 0.065,0.21894 0.0262,0.1429 0.0386,0.17063 0.0761,0.17063 0.0246,0 0.0518,0.01 0.0604,0.0217 0.01,0.0134 0.0381,0.0115 0.0739,-0.005 0.0534,-0.0243 0.0649,-0.0188 0.13745,0.0659 0.055,0.0642 0.0753,0.10723 0.0666,0.1407 -0.0109,0.0416 -0.004,0.0466 0.0472,0.0368 0.0526,-0.01 0.0814,0.0149 0.23979,0.20824 0.099,0.12082 0.2163,0.26795 0.26066,0.32694 0.0444,0.059 0.11518,0.15304 0.15736,0.20897 l 0.0767,0.10171 -0.14007,0.007 c -0.0982,0.005 -0.14007,0.0161 -0.14007,0.0377 0,0.0306 0.0414,0.0397 0.32783,0.0723 l 0.13194,0.015 0.22405,0.34311 c 0.12323,0.1887 0.23497,0.34354 0.24831,0.34407 0.0133,4.4e-4 0.0554,0.0646 0.0934,0.14229 0.038,0.0777 0.091,0.16802 0.1177,0.20067 0.1066,0.13033 0.5852,1.05496 0.5852,1.13058 0,0.0558 0.0145,0.0583 0.062,0.0108 0.0731,-0.0731 0.0543,-0.009 -0.0369,0.12481 -0.094,0.13848 -0.0943,0.13927 -0.0943,0.35899 0,0.21951 1.4e-4,0.22019 0.0576,0.22019 0.051,0 0.0578,-0.01 0.0589,-0.0864 7.3e-4,-0.0475 0.009,-0.12746 0.0175,-0.17763 l 0.0162,-0.0912 0.0804,0.20015 c 0.0642,0.15968 0.0933,0.20551 0.1443,0.22672 0.0831,0.0346 0.0991,0.0633 0.054,0.097 -0.0326,0.0243 -0.0239,0.0611 0.0798,0.33839 0.1282,0.34289 0.45339,1.31363 0.52596,1.57008 l 0.0461,0.16307 -0.0786,-0.0148 c -0.0432,-0.008 -0.10753,-0.0299 -0.14292,-0.0483 -0.0354,-0.0185 -0.0799,-0.0337 -0.0989,-0.0339 -0.019,0 -0.0643,-0.0158 -0.10058,-0.0347 -0.0363,-0.0189 -0.0749,-0.0344 -0.0857,-0.0344 -0.0109,0 -0.0745,-0.0246 -0.1414,-0.0548 -0.0669,-0.0301 -0.16316,-0.0673 -0.21386,-0.0827 -0.18107,-0.0548 -0.24524,-0.0952 -0.27888,-0.17576 -0.0453,-0.10852 -0.1169,-0.10754 -0.13743,0.002 -0.0192,0.10256 -7.3e-4,0.14997 0.0584,0.14997 0.0258,0 0.0468,0.011 0.0468,0.0244 0,0.0134 0.0104,0.018 0.023,0.0102 0.0127,-0.008 0.023,-0.005 0.023,0.007 0,0.0114 0.0441,0.0338 0.0979,0.0498 0.0539,0.016 0.10832,0.0373 0.12099,0.0475 0.0127,0.0101 0.12157,0.0598 0.24198,0.11045 0.37227,0.1565 0.43466,0.18858 0.44687,0.2298 0.0643,0.21683 0.21352,0.77346 0.25996,0.96945 0.032,0.13516 0.0779,0.32872 0.10195,0.43012 0.0241,0.1014 0.0653,0.28807 0.0916,0.41482 0.0264,0.12675 0.0631,0.29046 0.0816,0.3638 0.0331,0.13117 0.0287,0.17778 -0.0168,0.17778 -0.0127,0 -0.0164,-0.0108 -0.008,-0.024 0.01,-0.0157 -0.008,-0.0186 -0.0505,-0.008 -0.0365,0.009 -0.0571,0.007 -0.0467,-0.005 0.0161,-0.0172 -0.0657,-0.0374 -0.35857,-0.0885 -0.0414,-0.007 -0.0634,-0.001 -0.0634,0.018 0,0.016 0.0285,0.0407 0.0634,0.055 l 0.0634,0.0259 -0.0685,-0.0137 -0.0685,-0.0138 0.0415,0.0633 c 0.0228,0.0348 0.0356,0.0785 0.0284,0.0972 -0.008,0.0217 -0.003,0.028 0.0137,0.0174 0.0178,-0.011 0.0218,-0.004 0.012,0.0218 -0.008,0.0211 -0.005,0.0383 0.007,0.0383 0.0119,0 0.0156,0.0156 0.008,0.0346 -0.007,0.019 -0.002,0.0346 0.0115,0.0346 0.0136,0 0.0182,0.0172 0.0101,0.0384 -0.01,0.0256 -0.006,0.0329 0.012,0.0218 0.0176,-0.0109 0.0219,-0.004 0.0127,0.0201 -0.008,0.0201 10e-4,0.0544 0.0198,0.0761 0.0345,0.0403 0.0691,0.11322 0.0733,0.1547 0.001,0.0127 0.0156,0.0464 0.0318,0.0749 0.0162,0.0285 0.0214,0.052 0.0114,0.0522 -0.01,0 -0.007,0.008 0.007,0.0173 0.0311,0.021 0.0821,0.16559 0.067,0.19001 -0.006,0.01 0.005,0.0242 0.0249,0.0318 0.0248,0.01 0.0312,0.0292 0.0204,0.0629 -0.0104,0.0328 -0.007,0.0439 0.01,0.0335 0.0158,-0.01 0.0201,-0.002 0.0115,0.0202 -0.008,0.0197 -0.002,0.0358 0.0131,0.0358 0.0148,0 0.0205,0.0104 0.0126,0.023 -0.008,0.0127 -0.006,0.036 0.004,0.0519 0.01,0.0159 0.0212,0.0495 0.0251,0.0749 0.004,0.0254 0.0172,0.0496 0.0296,0.0538 0.0124,0.004 0.0167,0.0172 0.009,0.0288 -0.007,0.0116 -0.003,0.0211 0.009,0.0211 0.029,0 0.0742,0.13072 0.0589,0.17052 -0.007,0.017 0.002,0.0453 0.0201,0.0629 0.0176,0.0176 0.0281,0.0437 0.0233,0.0579 -0.005,0.0143 0.008,0.0425 0.0281,0.0627 0.0202,0.0202 0.0341,0.0499 0.0309,0.066 -0.009,0.0448 0.0502,0.20217 0.0758,0.20217 0.0124,0 0.0158,0.011 0.007,0.0245 -0.008,0.0135 0.003,0.0444 0.0248,0.0686 0.022,0.0243 0.0412,0.0677 0.0428,0.0965 0.002,0.0434 0.0146,0.0515 0.0718,0.0471 0.0379,-0.003 0.13754,-0.009 0.22137,-0.0139 l 0.15242,-0.009 0.0146,0.18675 c 0.008,0.10271 0.0195,0.21142 0.0254,0.24159 0.006,0.0302 0.0171,0.12868 0.0247,0.21893 0.008,0.0902 0.0182,0.17759 0.0235,0.19409 0.006,0.0178 -10e-4,0.0234 -0.0166,0.0138 -0.0144,-0.009 -0.0584,-0.0186 -0.0977,-0.0214 -0.0393,-0.003 -0.1077,-0.0144 -0.15206,-0.0257 -0.0444,-0.0112 -0.11175,-0.0168 -0.14974,-0.0122 l -0.0691,0.008 0.0917,0.0446 c 0.0504,0.0245 0.13113,0.0509 0.17938,0.0586 0.0482,0.008 0.097,0.0314 0.10833,0.0525 0.0113,0.0212 0.0368,0.24534 0.0566,0.49816 0.0198,0.25282 0.0414,0.5219 0.048,0.59794 0.0111,0.12738 0.009,0.13465 -0.023,0.0922 -0.0476,-0.0626 -0.13336,-0.17157 -0.1615,-0.20527 -0.0127,-0.0152 -0.0453,-0.0685 -0.0724,-0.11858 -0.0596,-0.10983 -0.12346,-0.13391 -0.12346,-0.0466 0,0.0326 0.0104,0.0593 0.023,0.0593 0.0127,0 0.0214,0.008 0.0194,0.0173 -0.008,0.0367 0.0327,0.0969 0.0557,0.0827 0.0139,-0.009 0.0174,-0.004 0.008,0.0109 -0.009,0.0142 0.0778,0.17682 0.19233,0.36133 0.20837,0.3356 0.23,0.38044 0.18343,0.38044 -0.0137,0 -0.0889,0.0247 -0.16708,0.0548 -0.0782,0.0301 -0.30814,0.11451 -0.51094,0.18752 -0.2028,0.073 -0.39984,0.14675 -0.43787,0.16385 -0.0698,0.0314 -0.40499,0.15555 -0.93335,0.34571 -0.15844,0.057 -0.33992,0.12336 -0.4033,0.14743 -0.36891,0.14009 -1.33162,0.48343 -1.35503,0.48326 -0.0152,0 -0.0685,-0.0635 -0.11836,-0.14087 z m 2.22237,-6.38179 c 0,-0.0132 -0.0191,-0.0624 -0.0425,-0.10946 -0.0234,-0.047 -0.0718,-0.17107 -0.1077,-0.27564 -0.051,-0.14886 -0.0747,-0.19013 -0.10912,-0.19013 -0.0375,0 -0.0416,0.0109 -0.0276,0.0749 0.0272,0.12489 0.12691,0.41743 0.15292,0.44878 0.0134,0.0162 0.0154,0.0302 0.004,0.0311 -0.0268,0.002 0.0641,0.0408 0.10089,0.0429 0.0158,10e-4 0.0288,-0.009 0.0288,-0.0223 z m -23.69103,-7.54536 c 0,-0.005 -0.027,-0.0858 -0.06,-0.17844 -0.0597,-0.16752 -0.11303,-0.26329 -0.0864,-0.15524 0.008,0.0308 0.0187,0.094 0.0247,0.14046 l 0.011,0.0845 -0.10018,-0.0118 c -0.0551,-0.007 -0.13551,-0.0208 -0.17868,-0.0318 -0.0432,-0.011 -0.0873,-0.0146 -0.0979,-0.008 -0.0107,0.007 -0.0194,0.002 -0.0194,-0.0105 0,-0.0124 -0.0685,-0.0299 -0.15217,-0.0388 -0.10664,-0.0114 -0.14284,-0.0229 -0.12099,-0.0384 0.0218,-0.0155 0.0138,-0.0179 -0.0264,-0.008 -0.30695,0.0748 -0.36846,0.0945 -0.36153,0.11549 0.008,0.0231 0.12157,0.0403 0.73026,0.11029 0.30765,0.0354 0.43787,0.0444 0.43787,0.0304 z m -0.55381,-0.30953 c 0.0842,-0.0235 0.13435,-0.0475 0.11523,-0.055 -0.0296,-0.0117 -0.0295,-0.0168 7e-4,-0.0404 0.0298,-0.0232 0.029,-0.0252 -0.005,-0.0142 -0.0219,0.007 -0.16192,0.0365 -0.31112,0.0656 l -0.27126,0.0528 0.1498,0.0133 c 0.0824,0.007 0.15498,0.0147 0.16132,0.0165 0.006,0.002 0.0786,-0.0156 0.16061,-0.0385 z m 13.60145,-3.77653 c -0.11241,-0.14026 -0.3239,-0.33857 -0.34189,-0.32059 -0.0174,0.0175 0.35719,0.40701 0.39142,0.40701 0.0109,0 -0.0114,-0.0389 -0.0495,-0.0864 z m 11.85187,13.96226 c 0.009,-0.014 0.004,-0.0254 -0.01,-0.0254 -0.014,0 -0.0227,-0.0129 -0.0194,-0.0288 0.01,-0.0473 -0.0796,-0.2695 -0.10279,-0.25518 -0.0125,0.008 -0.0145,-0.008 -0.005,-0.0386 0.0111,-0.035 0.008,-0.0468 -0.009,-0.0362 -0.0158,0.01 -0.0201,0.002 -0.0115,-0.0202 0.008,-0.0197 0.002,-0.0358 -0.0118,-0.0358 -0.014,0 -0.0243,-0.008 -0.0228,-0.0173 0.008,-0.0505 -0.007,-0.0987 -0.0406,-0.13258 -0.0209,-0.0209 -0.0408,-0.0646 -0.0444,-0.0972 -0.004,-0.0326 -0.0186,-0.0667 -0.0333,-0.0758 -0.0147,-0.009 -0.0292,-0.051 -0.0321,-0.0932 -0.003,-0.0421 -0.017,-0.0805 -0.0312,-0.0853 -0.0142,-0.005 -0.0202,-0.0235 -0.0132,-0.0417 0.007,-0.0182 0,-0.0331 -0.0153,-0.0331 -0.0158,0 -0.022,-0.0156 -0.0143,-0.0358 0.008,-0.0197 0.005,-0.0301 -0.007,-0.0232 -0.0234,0.0145 -0.0482,-0.0394 -0.0482,-0.10427 0,-0.0243 -0.011,-0.0442 -0.0244,-0.0442 -0.0134,0 -0.0176,-0.011 -0.009,-0.0245 0.008,-0.0135 -0.002,-0.0434 -0.0229,-0.0666 -0.0209,-0.0231 -0.0394,-0.0665 -0.041,-0.0965 -0.002,-0.03 -0.0239,-0.0848 -0.0494,-0.12198 -0.0294,-0.0429 -0.0342,-0.0603 -0.0131,-0.0479 0.0195,0.0115 0.0156,-4.4e-4 -0.009,-0.029 -0.0234,-0.0268 -0.0358,-0.0596 -0.0274,-0.0731 0.008,-0.0135 0.005,-0.0245 -0.007,-0.0245 -0.0267,0 -0.0846,-0.13462 -0.066,-0.15328 0.007,-0.007 -10e-4,-0.0281 -0.019,-0.046 -0.0179,-0.0179 -0.026,-0.0494 -0.018,-0.0702 0.01,-0.025 0.005,-0.0321 -0.0122,-0.0212 -0.0174,0.0108 -0.0219,0.004 -0.013,-0.0193 0.007,-0.0197 0.0222,-0.0358 0.0325,-0.0358 0.0183,0 0.36493,0.11701 0.48648,0.1642 0.0709,0.0276 0.0705,0.0256 0.23808,1.08027 0.0574,0.36124 0.10928,0.68512 0.11527,0.71972 0.008,0.0471 -10e-4,0.0694 -0.0373,0.0887 -0.0344,0.0184 -0.0437,0.0185 -0.0325,4.4e-4 z m -8.97489,-13.64902 c -0.0951,-0.0523 -0.23248,-0.12523 -0.30536,-0.16202 -0.0729,-0.0368 -0.13251,-0.0767 -0.13251,-0.0886 0,-0.0119 0.005,-0.0217 0.0101,-0.0217 0.0398,0 0.66682,0.16446 0.85097,0.22319 l 0.11206,0.0357 -0.066,0.0297 c -0.0958,0.0431 -0.21703,0.0802 -0.25953,0.0795 -0.0203,-4.4e-4 -0.11467,-0.0434 -0.20974,-0.0957 z"
       id="path4147"
       inkscape:connector-curvature="0"
       inkscape:export-xdpi="300"
       inkscape:export-ydpi="300" />
  </g>
</svg>
